<svg xmlns="http://www.w3.org/2000/svg" width="114" height="157" fill="none" viewBox="0 0 114 157"><g fill="#000" clip-path="url(#a)"><path d="M.728 106.354C.925 94.495 4.025 83.25 7.416 72.062a162 162 0 0 1 21.2-44.12A113.7 113.7 0 0 1 47.693 6.681a16 16 0 0 0 2.605-3.02C51.793 1.45 53.77.36 56.282 1.098a15.4 15.4 0 0 1 5.404 2.567 115 115 0 0 1 10.69 9.743c9.488 10.087 18.111 20.914 25.09 32.878 9.465 16.227 15.45 33.63 15.33 52.666-.065 9.959-1.575 19.703-6.679 28.523-7.208 12.461-18.242 20.267-31.495 25.022-13.023 4.675-26.405 5.031-39.803 1.681-15.45-3.863-29.995-16.071-33.014-36.783-.53-3.656-.726-7.36-1.077-11.041m52.631-95.737c-6.937 6.132-14.815 15.674-19.567 23.151a171.2 171.2 0 0 0-21.757 51.515c-2.61 10.65-4.004 21.335-2.14 32.324 2.92 17.244 15.588 27.416 29.38 29.85 6.32 1.116 12.663 1.668 19.099.903 12.676-1.51 23.786-6.367 32.967-15.293a36.35 36.35 0 0 0 10.414-18.128 66 66 0 0 0 .882-25.758 103.1 103.1 0 0 0-16.736-41.813 200 200 0 0 0-20.946-25.894c-3.635-3.777-7.651-7.186-11.596-10.857"/><path d="M97.127 99.165c.206 3.62-1.09 8.688-3.737 13.367a19.8 19.8 0 0 1-3.579 4.394c-1.186 1.137-2.798 1.622-4.303.497-1.32-.984-1.484-2.457-.947-3.938a29.5 29.5 0 0 1 1.83-4.317c5.729-10.273 4.989-20.621.484-31.041-.4-.924-1.024-1.855-1.06-2.801-.034-.864.357-2.144.99-2.519a2.9 2.9 0 0 1 2.645.384 11.3 11.3 0 0 1 2.397 3.204c3.65 6.508 5.17 13.562 5.28 22.77m-15.025 28.013a3.4 3.4 0 0 1-.997 2.479 3.385 3.385 0 0 1-3.81.682 3.39 3.39 0 0 1-1.97-3.332c.09-1.959 1.576-3.572 3.257-3.544a3.79 3.79 0 0 1 3.52 3.715"/></g><defs><clipPath id="a"><path fill="#fff" d="M.19.636h112.89v156.208H.19z"/></clipPath></defs></svg>