<svg xmlns="http://www.w3.org/2000/svg" width="164" height="136" fill="none" viewBox="0 0 164 136"><g clip-path="url(#a)"><path fill="#000" d="M163.392 23.482c-.469 7.688-3.596 14.156-10.096 18.718a50 50 0 0 1-7.925 4.41 687 687 0 0 1-20.339 8.915c-2.034.853-4.332 1.07-6.379 1.893a21.5 21.5 0 0 0-5.228 2.931 24793 24793 0 0 0-69.303 54.653 19.2 19.2 0 0 0-3.265 3.324c-3.03 3.938-7.047 5.842-11.805 4.639-5.022-1.271-8.375.735-11.623 4.076-2.81 2.887-5.766 5.67-9.688 7.099-2.291.835-4.594 1.493-6.563-.553-1.472-1.529-1.27-4.173.713-6.807a61.7 61.7 0 0 1 6.563-7.648c2.728-2.597 4.631-5.417 4.865-9.254a33 33 0 0 1 .62-3.301c.637-3.85 2.654-6.533 5.828-8.977 6.397-4.923 12.305-10.481 18.481-15.698a666 666 0 0 1 60.096-45.015 26.3 26.3 0 0 0 6.131-5.54c4.692-5.88 9.404-11.753 14.359-17.41 5.11-5.834 11.209-10.239 18.918-12.26 12.477-3.271 20.186 2.676 24.035 13.057a30.7 30.7 0 0 1 1.241 4.884c.233 1.204.241 2.452.364 3.864m-59.421 17.462c-.712.388-.922.477-1.105.605-22.888 16.049-45.402 32.59-66.825 50.577-4.037 3.39-7.904 7.114-12.372 9.82-3.15 1.909-4.383 4.111-4.476 7.44-.019.671-.143 1.341-.143 2.012 0 4.68-1.911 8.444-5.412 11.482-.933.809-1.76 1.741-2.634 2.616l.492.466c1.074-1.076 2.178-2.125 3.216-3.234 3.66-3.905 7.836-6.36 13.452-4.965.43.107.903.034 1.338.131 2.14.474 3.74-.131 4.64-2.253-.75-1.364-1.76-2.66-2.169-4.126a4.12 4.12 0 0 1 .533-3.313c.907-1.063 2.31-.459 3.316.376 1.094.907 2.1 1.922 3.228 2.969l3.249-2.714c-.974-1.326-1.904-2.452-2.67-3.681-.792-1.274-.802-2.631.477-3.617 1.28-.987 2.593-.591 3.618.486.919.963 1.68 2.075 2.696 3.356l3.448-2.64c-.919-1.12-1.759-2.027-2.464-3.028-1.27-1.807-1.205-3.574.073-4.5 1.424-1.035 3.305-.411 4.458 1.527.559.94 1.034 1.932 1.64 3.07l4.726-3.735c-1.116-1.49-2.371-2.815-3.167-4.375a3.62 3.62 0 0 1 .1-3.024c.733-1.201 2.177-1.163 3.268-.32a15.3 15.3 0 0 1 2.24 2.477c.532.642.998 1.34 1.584 2.136l4.758-4a50 50 0 0 1-2.712-4.252c-.656-1.302-.566-2.692.822-3.562 1.501-.942 2.576-.073 3.389 1.12.8 1.177 1.472 2.44 2.303 3.841l4.815-3.864a36.5 36.5 0 0 1-2.762-3.788 2.825 2.825 0 0 1 .887-3.854c1.292-.714 2.698-.24 3.655 1.345.628 1.041 1.12 2.166 1.78 3.463l4.882-3.876a42 42 0 0 1-2.898-3.53c-1-1.533-.712-3.456.437-4.266 1.225-.863 2.76-.414 4.004 1.278.791 1.075 1.463 2.238 2.28 3.505l4.632-3.665c-1.001-1.011-1.809-1.764-2.543-2.582-1.379-1.534-1.54-3.465-.432-4.513 1.23-1.161 3.259-.773 4.664.96.755.929 1.41 1.938 2.227 3.075l5.077-3.947c-.673-.538-1.095-.864-1.504-1.207q-.67-.511-1.258-1.112c-1.328-1.494-1.417-3.226-.255-4.162 1.195-.962 2.919-.59 4.053.977.689.953 1.229 2.013 2.008 3.314l7.226-6.018zm14.797 9.977c6.573-5.26 14.73-7.582 22.505-10.745a43.7 43.7 0 0 0 7.403-3.938c7.908-5.185 10.259-13.943 6.164-22.374-2.862-5.89-6.928-7.925-13.429-6.91-7.013 1.097-12.519 4.78-17.143 9.905-3.759 4.167-7.31 8.519-10.994 12.754-1.831 2.105-3.752 4.131-5.406 5.944z"/></g><defs><clipPath id="a"><path fill="#fff" d="M.137.138h163.428v135.206H.137z"/></clipPath></defs></svg>