<svg xmlns="http://www.w3.org/2000/svg" width="163" height="132" fill="none" viewBox="0 0 163 132"><g fill="#000" clip-path="url(#a)"><path d="M160.225 77.917c-1.688-12.168-3.435-24.75-3.155-37.38.097-4.366-1.766-8.148-5.536-11.242a24 24 0 0 0-15.549-5.535c-4.54-.014-9.145.103-13.6.213-2.321.058-4.641.116-6.958.156-1.501.027-3.001.02-4.59.013l-1.456-.005-.188-1.298c-.65-4.637-1.666-10.06-4.276-15.115C102.251 2.561 98.026.006 92.381.132q-2.924.065-5.85.12c-7.028.14-14.294.285-21.437.637a50 50 0 0 0-8.523 1.424q-.939.215-1.876.42a8.87 8.87 0 0 0-6.952 6.709 43.5 43.5 0 0 0-1.284 8.107c-.149 2.182-.116 4.318-.082 6.58q.017 1.014.027 2.042l-4.233.418c-3.98.393-7.886.778-11.792 1.161-5.926.581-12.053 1.182-18.071 3.104-6.785 2.166-10.416 6.817-11.1 14.216-.165 1.772-.215 3.574-.263 5.316l-.022.774C.889 52.287.84 53.415.792 54.542.669 57.314.544 60.18.673 63.01c.437 9.509.969 19.17 1.484 28.514q.345 6.251.681 12.502c.085 1.587.141 3.176.197 4.765.115 3.195.234 6.498.583 9.739.722 6.711 4.196 10.44 10.931 11.733 2.605.499 5.25.749 7.903.749h.316c21.597-.163 43.928-.386 66.37-.665 12.936-.16 26.311-.328 39.763-.739 6.029-.185 12.134-.884 17.521-1.5 5.781-.661 9.956-3.784 12.072-9.029a28.8 28.8 0 0 0 2.017-6.994 131 131 0 0 0-.286-34.167m-34.343-47.33a86 86 0 0 1 10.801.156c2.463.248 5.024 1.384 7.203 2.464 3.183 1.575 4.558 4.003 4.742 8.376.374 8.829 1.233 18.154 2.789 30.236l.226 1.742c1.223 9.456 2.489 19.235 1.925 28.927a72 72 0 0 1-1.092 9.885c-1.209 6.01-3.151 7.79-9.021 8.279-11.486.958-21.083 1.547-30.192 1.854-10.246.345-20.674.532-30.759.711q-7.517.135-15.036.288-8.795.19-17.593.425l-7.012.175-.003-.175h-.967q-2.597 0-5.195.009c-4.26.01-8.664.021-12.992-.034a53 53 0 0 1-6.908-.554c-4.236-.618-5.413-1.877-5.726-6.121-.173-2.355-.29-4.759-.402-7.085-.09-1.862-.183-3.787-.305-5.682-.197-3.072-.425-6.142-.652-9.212-.427-5.78-.869-11.758-1.1-17.637-.47-11.992-.601-21.212-.421-29.893.059-2.84 1.026-7.845 6.844-9.465a94 94 0 0 1 12.306-2.8 383 383 0 0 1 45.179-3.518c10.711-.183 21.593-.488 32.123-.784a7516 7516 0 0 1 21.238-.567M99.072 10.01c2.217 4.621 2.681 9.507 2.763 14.156h-4.43q-.066-.45-.137-.909a128 128 0 0 0-.652-4.054C95.274 11.82 91.263 8.138 83.993 7.62a67.6 67.6 0 0 0-18.681 1.304c-5.374 1.125-7.576 3.592-8.126 9.101-.182 1.832-.298 3.67-.422 5.618q-.059.943-.124 1.933h-3.662l-.009-.143c-.313-5.185-.608-10.085 1.605-14.76a4.12 4.12 0 0 1 2.252-1.92 40.5 40.5 0 0 1 8.976-1.745c7.391-.32 14.922-.442 22.205-.56q2.677-.042 5.355-.089c2.706-.045 4.494 1.113 5.71 3.65m-34.461 7.249a2.22 2.22 0 0 1 1.995-1.8l1.268-.185c2.823-.413 5.747-.84 8.617-1.05a48 48 0 0 1 3.511-.124c1.387 0 2.85.053 4.41.159 3.17.215 4.266 1.232 4.892 4.533l.03.16q.149.66.184 1.334c.021 1.18.017 2.362.014 3.668v.741l-25.98.718a28.3 28.3 0 0 1 1.059-8.154"/><path d="M98.386 48.967c-10.41-3.813-19.144-4.982-27.482-3.675-7.686 1.203-13.958 4.743-18.64 10.52a37.76 37.76 0 0 0-8.484 23.254c-.285 10.21 4.22 17.892 13.39 22.831 5.466 2.945 11.298 3.662 18.376 3.833h.054l.053-.004a87 87 0 0 1 1.822-.127c1.621-.102 3.459-.217 5.3-.51 9.083-1.444 16.186-4.83 21.717-10.36 11.216-11.213 8.779-29.838 2.808-38.427-2.562-3.676-5.476-6.075-8.914-7.335M62.008 96.054c-7.453-3.167-11.304-9.355-10.84-17.424a34 34 0 0 1 4.482-15.214A23.87 23.87 0 0 1 70.61 51.91a16 16 0 0 1 4.056-.56q1.061-.006 2.105.19c5.592 1.088 11.086 2.584 15.247 3.764 6.181 1.754 10.165 6.113 11.839 12.955 3.113 12.726-1.997 22.942-13.668 27.33a58 58 0 0 1-8.934 2.302 31.5 31.5 0 0 1-4.24.451c-.657.04-1.31.08-1.961.139a31.3 31.3 0 0 1-13.046-2.426"/><path d="M79.332 90.218c1.838-.17 3.02-1.58 3.01-3.592-.007-1.772-.094-3.56-.178-5.291-.045-.927-.09-1.852-.123-2.778a44 44 0 0 1-.01-1.922v-.116q.471-.037.918-.07c1.233-.095 2.397-.184 3.545-.31q.6-.063 1.21-.115a18 18 0 0 0 4.29-.734c1.284-.439 2.2-2.177 2.366-3.263a2.55 2.55 0 0 0-.532-2.048 3.46 3.46 0 0 0-2.519-1.172 24 24 0 0 0-3.838.149c-1.63.173-3.252.385-4.97.608l-1.282.167-.03-.34c-.08-.891-.153-1.733-.276-2.564a440 440 0 0 0-1.2-7.528l-.016-.096c-.444-2.687-1.926-3.138-3.088-3.044-2.428.197-2.479 2.412-2.502 3.479l-.008.303q-.012.7.065 1.398c.021.231.043.464.055.696.117 2.363.232 4.72.349 7.13l.066 1.378-.206.04a27 27 0 0 1-1.538.275c-1.247.17-2.502.328-3.754.492-2.266.29-4.61.59-6.91.947-3.212.497-3.995 1.448-3.986 4.851v.838l.827.131c3.224.515 6.307.146 9.572-.244 2.095-.29 4.205-.46 6.32-.509q-.002.175-.008.345-.051 1.355.046 2.71a66 66 0 0 0 .82 6.702c.379 1.97 1.554 3.112 3.177 3.112q.17 0 .338-.015"/></g><defs><clipPath id="a"><path fill="#fff" d="M.01.107h162.115v131.268H.01z"/></clipPath></defs></svg>