<svg xmlns="http://www.w3.org/2000/svg" width="161" height="156" fill="none" viewBox="0 0 161 156"><g clip-path="url(#a)"><path fill="#000" d="M73.433 154.374c-7.184 0-14.368-.069-21.551.016-10.214.122-20.427.412-30.64.512-3.348.033-6.702-.296-10.052-.473a7.7 7.7 0 0 1-1.331-.198c-8.086-1.879-10.734-7.22-6.974-14.588a79.6 79.6 0 0 1 6.17-10.016c13.117-18.365 26.718-36.36 41.512-53.425.59-.68 1.107-1.42 1.724-2.07a7.56 7.56 0 0 0 2.125-6.026c-.216-5.035.207-10.095.279-15.146.181-12.91.291-25.82.486-38.73.044-2.912.337-5.821.48-8.733.116-2.384 1.483-3.682 3.663-4.206A17 17 0 0 1 63.292.66C73.4.699 83.507.72 93.607.95c5.673.131 7.066 1.498 7.527 7.214.586 7.27 1.015 14.557 1.346 21.844a2657 2657 0 0 1 1.425 37.013c.066 2.083 1.215 3.275 2.417 4.59 7.121 7.788 14.398 15.44 21.331 23.391 10.406 11.929 20.418 24.192 29.338 37.293a22.8 22.8 0 0 1 3.044 6.659c1.419 5.132-.34 9.237-5.263 11.322-3.347 1.418-7.064 2.087-10.681 2.714-9.896 1.716-19.896 1.474-29.894 1.384-13.586-.123-27.176-.031-40.763-.031zm-62.048-10.403a19.94 19.94 0 0 0 9.785 1.789c9.528-.353 19.073-.266 28.611-.369 7.745-.084 15.486-.28 23.228-.263 5.722.013 11.442.376 17.164.427 9.541.087 19.087-.103 28.625.109 9.2.231 18.403-.25 27.528-1.438 6.968-.924 7.855-2.41 3.79-8.086-5.678-7.928-11.71-15.601-17.55-23.416-1.582-2.117-3.1-4.108-6.24-3.458-.693.144-1.518-.307-2.274-.516-3.568-.984-7.164-1.884-10.691-2.997-6.397-2.017-12.615-1.5-18.746 1.002a44 44 0 0 0-4.327 1.85c-7.27 3.938-15.057 4.262-22.937 3.005a135 135 0 0 1-15.039-3.457c-8.134-2.273-16.917.561-21.763 7.345-4.563 6.389-9.162 12.754-13.608 19.223-1.96 2.851-3.582 5.936-5.556 9.25M60.92 7.801c.253 5.866.486 11.344.727 16.823.575 13.12.952 26.253 1.824 39.356a21.2 21.2 0 0 1-5.024 15.53c-.78.956-1.51 1.953-2.28 2.92L42.751 99.297c-.498.628-.865 1.358-1.48 2.34a31.26 31.26 0 0 1 13.751.357 108 108 0 0 0 13.145 2.772c6.165.83 12.305.797 18.05-2.33a59 59 0 0 1 7.115-3.026c6.447-2.48 13.061-3.17 19.822-1.537 2.773.671 5.513 1.496 8.263 2.251-3.811-5.042-7.87-9.677-12.006-14.242-3.767-4.157-7.464-8.401-11.503-12.28-1.776-1.706-2.79-3.413-2.873-5.766-.214-6.058-.46-12.116-.608-18.175-.283-11.899-.491-23.8-.765-35.699-.046-1.994-.269-3.984-.423-6.163z"/></g><defs><clipPath id="a"><path fill="#fff" d="M.57.293h160.146v154.896H.57z"/></clipPath></defs></svg>