<svg xmlns="http://www.w3.org/2000/svg" width="131" height="161" fill="none" viewBox="0 0 131 161"><g clip-path="url(#a)"><path fill="#000" d="M41.947 112.368a14.44 14.44 0 0 0 9.799 7.816c12.657 3.191 24.657 1.462 34.954-6.822 8.56-6.887 11.37-16.726 11.398-27.323a45.9 45.9 0 0 0-4.667-19.772c-6.39.807-7.22.641-11.937-2.325l-29.065 20.1q-.556.382-1.136.721c-4.08 2.414-5.915 2.085-9.029-1.772-3.829 2.636-7.66 5.307-11.533 7.919a28.3 28.3 0 0 1-4.335 2.552c-2.485 1.09-4.413.512-5.767-1.8-1.756-2.996-3.285-6.124-4.942-9.18-.967-1.783-.63-3.198 1.022-4.364A5242 5242 0 0 0 32.045 67.24a1.1 1.1 0 0 0-.042-.375c-3.7-6.409-2.686-6.267 1.946-10.293a432 432 0 0 1 37.875-29.7c5.263-3.632 10.314-7.572 15.465-11.365 3.781-2.785 4.95-2.706 8.37.516.32.301.68.56 1.057.867 6.588-4.792 13.16-9.491 19.637-14.318 3.216-2.4 5.191-2.366 7.735.77a76 76 0 0 1 4.746 6.537c2.551 3.938 1.806 6.695-2.065 9.402-5.243 3.665-10.393 7.462-15.559 11.235-1.064.779-2.019 1.707-3.191 2.707.679.919 1.168 1.63 1.707 2.297 2.553 3.163 2.179 5.488-1.214 7.857-2.201 1.536-4.346 3.15-6.454 4.686.226 2.113.393 3.991.646 5.858a3.15 3.15 0 0 0 .591 1.51c6.043 7.46 8.987 16.233 10.468 25.511 1.51 9.432 1.127 18.795-2.386 27.845-4.988 12.85-14.579 20.967-26.952 26.225-1.107.47-2.236.888-3.377 1.339l4.28 10.506c1.141.1 2.792.197 4.432.394 5.078.607 7.82 5.212 5.825 9.857-.844 1.969-2.69 2.153-4.543 2.207-5.61.164-11.22.466-16.829.477-9.654.018-19.308-.136-28.962-.242a9.5 9.5 0 0 1-2.33-.329c-2.423-.646-3.228-2.123-2.56-4.569 1.224-4.507 4.471-7.209 9.174-7.613 1.112-.096 2.227-.14 3.331-.207l2.822-6.858c-7.904-1.112-15.748-2.419-22.403-7.137-6.728-4.769-10.995-11.411-14-19.34-2.883 0-5.894.089-8.896-.031a31.7 31.7 0 0 1-5.99-.747 3.94 3.94 0 0 1-3.166-3.877 3.98 3.98 0 0 1 2.86-4.112 15.3 15.3 0 0 1 4.594-.804q19.201-.094 38.405-.009a13 13 0 0 1 3.598.662c1.397.416 2.584 1.473 2.312 2.903a5.88 5.88 0 0 1-2.121 3.111c-.806.643-2.069.787-3.16.984-1.845.329-3.72.519-5.774.791m61.018-74.044c-6.188-4.893-8.453-12.19-13.233-17.621-9.56 5.204-51.01 36.847-53.958 41.18l12.299 16.343L77.579 57.75c-.955-5.733-1.94-11.532 4.128-15.367 5.447-3.441 10.96-4.627 16.56-.183zm-6.226 25.92c4.547 8.44 5.903 12.058 6.15 22.073.308 12.485-3.473 23.686-13.843 31.342-11.89 8.778-25.472 10.567-39.67 7.14-6.006-1.448-10.408-5.529-14.016-10.464-.552-.755-1.444-1.838-2.137-1.806-2.375.107-4.882-.175-7.097 1.015 1.555 7.639 8.316 15.667 15.845 18.627a50.2 50.2 0 0 0 19.117 3.247 54.9 54.9 0 0 0 23.936-5.984c11.89-5.934 20.088-14.995 22.676-28.317 2.035-10.484.766-20.778-2.915-30.765-1.177-3.194-2.598-6.3-4.003-9.67zM105.27 27.6l16.787-13.849-3.343-5.533-18.672 13.047c1.359 1.728 2.443 3.137 3.562 4.517.483.597 1.038 1.138 1.665 1.818zM81.84 49.25c.605 2.483.866 4.736 1.706 6.752 1.982 4.78 5.56 5.568 9.608 2.345 2.766-2.2 3.191-4.8 1.373-8.378-1.326-2.608-3.661-3.643-6.76-2.8-1.822.492-3.567 1.24-5.93 2.081zm-20.983 91.028-1.259 5.277h17.357c-.63-2.691-1.154-4.934-1.67-7.146zM46.58 154.355c14.238.296 28.48.453 42.799-.971-.853-.759-1.8-1.402-2.757-1.414-2.434-.033-4.872.35-7.306.328-7.835-.066-15.67-.242-23.504-.381-3.25-.056-6.468.03-9.23 2.438zM35.473 72.329l-14.164 9.47 3.696 4.38c4.608-3.299 9.393-5.79 12.934-10.119z"/></g><defs><clipPath id="a"><path fill="#fff" d="M.737.634h129.955v159.49H.737z"/></clipPath></defs></svg>