<svg xmlns="http://www.w3.org/2000/svg" width="133" height="154" fill="none" viewBox="0 0 133 154"><g clip-path="url(#a)"><path fill="#000" d="M67.28 143.948c-5.397 5.496-12.396 6.788-19.366 8.052a43.3 43.3 0 0 1-18.369-.31C17.806 148.771 4.58 138.284 3.05 120.811c-.853-9.726-1.5-19.438-1.39-29.23.118-10.536-.638-21.08-.792-31.624-.093-6.391-.407-12.883.513-19.165 1.557-10.619 3.233-21.409 11.25-29.666C19.228 4.328 26.99-.02 36.731.316c2.57.119 5.1.666 7.49 1.62a32.56 32.56 0 0 1 15.446 12.536c6.395 9.61 10.042 20.262 11.535 31.649.742 5.656 1.168 11.354 1.769 17.358 1.04-.278 2.074-.534 3.096-.83 12.11-3.513 24.106-3.468 35.996 1.03a24.1 24.1 0 0 1 14.019 13.249c5.382 12.022 7.219 24.44 4.385 37.411-1.943 8.882-6.356 16.208-13.693 21.701-9.823 7.355-20.795 11.394-33.126 11.367-5.555-.008-10.888-1.337-16.368-3.459M9.078 74.171c5.94 0 11.434.083 16.923-.018 10.097-.187 20.193-.467 30.287-.759a3.8 3.8 0 0 0 2.052-.741 52 52 0 0 0 4.915-4.077 3.92 3.92 0 0 0 1.165-2.464c.066-4.04.05-8.087-.128-12.124-.512-11.664-2.61-22.946-8.28-33.347A29.7 29.7 0 0 0 45.879 9.614C40.23 5.98 34.295 5.428 28.216 8.051c-7.19 3.102-12.71 8.27-15.608 15.528a65.6 65.6 0 0 0-4.83 24.977c.071 7.515.59 15.025.938 22.536.046.99.228 1.976.361 3.079m50.49 65.661c-1.824-1.526-3.237-2.631-4.562-3.833a33.4 33.4 0 0 1-10.21-16.292c-3.366-12.504-1.014-24.192 4.944-35.385l1.736-3.247c-5.66-.853-39.086-.35-42.136.637 0 1.73-.063 3.511.011 5.287.211 5.042.382 10.089.746 15.12.484 6.701.977 13.408 1.752 20.079 1.266 10.9 11.454 20.138 21.06 21.849 8.199 1.461 16.05.033 23.776-2.599a19.5 19.5 0 0 0 2.883-1.616m56.654-60.968a15.95 15.95 0 0 0-8.138-6.9c-4.156-1.663-8.374-3.215-12.664-4.485-2.647-.782-5.561-1.586-8.213-1.253A43.3 43.3 0 0 0 68.64 72.75c-9.043 5.927-13.832 14.785-16.753 24.828-2.153 7.405-2.17 14.836.475 22.164.472 1.306 1.137 2.543 1.72 3.831 20.015-16.307 41.837-29.358 62.14-44.708m-57.858 50.441c6.403 6.209 13.433 9.667 21.624 10.485 11.898 1.187 22.315-2.739 31.654-9.845a26 26 0 0 0 9.793-15.271 50.3 50.3 0 0 0 .513-19.391c-.434-2.691-1.231-5.32-1.985-8.494z"/></g><defs><clipPath id="a"><path fill="#fff" d="M.165.197h131.924v152.927H.165z"/></clipPath></defs></svg>