<svg xmlns="http://www.w3.org/2000/svg" width="130" height="153" fill="none" viewBox="0 0 130 153"><g fill="#000" clip-path="url(#a)"><path d="M128.899 134.928c-.581 1.308-1.154 2.621-1.746 3.924a9.98 9.98 0 0 1-8.241 6.147 22.9 22.9 0 0 1-12.822-1.909c-4.678-2.199-6.643-5.669-6.307-10.817a15.21 15.21 0 0 1 10.721-13.634c.636-.197 1.244-.473 2.101-.803-.144-7.375.897-14.799-.676-22.115a15.1 15.1 0 0 0-2.941-5.869c-1.503-1.922-3.741-2.166-5.726-.722a18.3 18.3 0 0 0-4.398 4.522c-3.555 5.317-5.42 11.302-6.276 17.602-.936 6.892-1.651 13.814-2.713 20.685-2.498 16.168-19.4 24.668-34.017 17.159-7.122-3.658-10.333-9.931-10.474-17.581-.127-6.935.442-13.892.913-20.825.34-5.035 1.033-10.042 1.537-15.069q.072-1.186.013-2.374c-6.138-2.207-12.161-4.011-17.887-6.498C14.195 79.897 5.337 67.474 2.124 50.843a48 48 0 0 1 1.43-24.302C7.149 15.59 14.735 8.383 25.615 4.646a14.5 14.5 0 0 1 2.954-.616c1.57-.193 2.905-.403 3.992-1.962 1.338-1.92 3.257-1.628 4.683.307a6.63 6.63 0 0 1 .193 6.71c-1.525 2.32-3.32 2.28-6.13-.131-9.254 1.229-20.853 11.171-22.949 24.115-1.26 7.788-1.305 15.575 1.375 22.957 3.887 10.71 10.65 19.206 21.515 23.705 4.241 1.758 8.692 3.004 12.951 4.72 7.13 2.874 14.085 1.431 19.99-2.32 11.86-7.534 22.086-17.062 28.546-29.812 5.25-10.365 5.339-20.953-.556-31.255C88.13 13.99 81.742 10.16 74.041 8.194c-1.313-.336-2.322-.162-3.216 1.05-.998 1.345-2.437 2.03-4.149 1.325-1.606-.662-2.32-2.03-2.589-3.67-.656-4.018.244-5.769 3.521-6.3.98-.16 2.1.3 3.106.622 1.116.357 2.15 1.149 3.276 1.288 10.88 1.348 19.18 6.718 24.705 16.107 7.138 12.133 6.596 24.618.94 37.108-3.484 7.693-8.866 14.037-14.998 19.715-4.606 4.266-9.418 8.315-14.261 12.31a18.7 18.7 0 0 1-11.798 4.316q-1.65.111-3.282.39-.25.519-.368 1.084c-.465 8.519-1.026 17.036-1.313 25.562a88.5 88.5 0 0 0 .428 12.426c.95 8.813 6.914 13.254 15.681 11.988 7.514-1.085 11.255-4.415 12.602-11.923.948-5.291 1.388-10.675 1.998-16.022 1.064-9.32 2.84-18.403 8.098-26.45 2.542-3.892 5.728-6.892 10.288-8.183 3.982-1.129 7.539-.162 10.756 2.312 5.139 3.954 6.814 9.56 7.364 15.651a59.6 59.6 0 0 1-1.308 19.865q.694.464 1.45.825c3.943 1.544 6.533 4.247 7.408 8.474.06.294.346.541.525.809zm-12.566 3.634c3.405-.38 4.785-1.432 5.615-4.576.783-2.962-.373-6.498-2.645-8.097-2.989-2.1-6.049-2.428-8.388-.66a9.17 9.17 0 0 0-3.619 8.532 3.95 3.95 0 0 0 2.073 2.699c2.217.942 4.63 1.428 6.964 2.1z"/><path d="M118.953 131.208a3.7 3.7 0 0 1-1.081 2.56 3.7 3.7 0 0 1-2.554 1.096 4.11 4.11 0 0 1-4.124-3.984 3.54 3.54 0 0 1 1.04-2.581 3.54 3.54 0 0 1 2.586-1.029 3.96 3.96 0 0 1 4.133 3.938"/></g><defs><clipPath id="a"><path fill="#fff" d="M.562.51h128.642v151.614H.562z"/></clipPath></defs></svg>