<svg xmlns="http://www.w3.org/2000/svg" width="155" height="156" fill="none" viewBox="0 0 155 156"><g fill="#000" clip-path="url(#a)"><path d="M53.746 154.742a9.8 9.8 0 0 1-6.27-2.762c-4.469-4.424-9.05-8.735-13.567-13.109-5.889-5.703-11.893-11.295-17.597-17.177-4.365-4.5-8.36-9.361-12.477-14.097a20 20 0 0 1-1.631-2.549c-1.747-2.774-1.711-5.535.221-8.172 3.316-4.529 6.373-9.296 10.108-13.45a3475 3475 0 0 1 42.079-45.96C63.956 27.448 73.636 17.743 83.18 7.912a52 52 0 0 1 3.433-3.233c4.12-3.535 9.118-4.332 13.724-1.516 4.285 2.626 8.603 5.448 12.176 8.931 11.98 11.678 23.657 23.668 35.387 35.6a38.5 38.5 0 0 1 4.59 5.8c2.061 3.125 1.903 5.098-.61 7.895-5.029 5.593-10.073 11.179-15.267 16.618-18.694 19.577-37.559 38.987-57.355 57.465-5.579 5.208-11.149 10.428-16.802 15.552-2.152 1.949-4.401 3.915-8.71 3.717M93.815 7.228c-1.253 1.318-2.016 2.129-2.788 2.93-17.065 17.693-34.224 35.295-51.159 53.11-8.578 9.025-16.802 18.388-25.083 27.69-2.66 2.99-4.989 6.276-7.496 9.465a29 29 0 0 0 2.13 2.966c3.682 3.925 7.306 7.917 11.163 11.666 6.839 6.648 13.816 13.154 20.767 19.687 4.791 4.504 9.64 8.952 14.484 13.446 31.08-28.563 59.829-59.108 89.398-89.337-2.342-2.58-4.463-5.018-6.695-7.35a7655 7655 0 0 0-24.954-25.984c-4.357-4.522-8.663-9.101-13.177-13.46-1.896-1.834-4.277-3.163-6.59-4.83"/><path d="M36.645 120.822c-2.133.168-3.338-1.337-2.779-2.953a8.9 8.9 0 0 1 1.949-3.079c6.242-6.615 12.404-13.313 18.854-19.725a9312 9312 0 0 1 53.981-53.238 13.1 13.1 0 0 1 3.455-2.61 2.79 2.79 0 0 1 2.595.45c.487.545.531 1.903.201 2.66a10.1 10.1 0 0 1-2.248 2.895C102.858 54.966 93 64.65 83.226 74.412a16678 16678 0 0 0-43.055 43.18c-1.243 1.243-2.597 2.383-3.526 3.23m34.225-19.049c-.557-6.852 8.162-13.258 14.579-9.058 2.906 1.903 5.245 3.852 6.808 7.072 3.049 6.277-1.414 12.837-7.915 13.595-5.634.655-13.66-4.333-13.472-11.609m6.787-.919c-.089 2.576 3.134 5.419 5.644 4.887a3.2 3.2 0 0 0 1.641-1.023c1.108-1.301-.316-7.132-1.872-7.863a2.6 2.6 0 0 0-.976-.186c-2.107-.072-4.362 2.07-4.437 4.187zm-13.708 31.872c-5.491.05-11.722-5.256-12.484-10.345a9.11 9.11 0 0 1 6.07-10.062c7.316-2.586 14.323 2.56 16.343 8.118 1.778 4.884-2.542 11.085-8.254 12.112-.66.119-1.337.142-1.675.177m3.23-10.084c.048-1.712-3.07-5.491-4.628-5.608-1.976-.149-4.285 1.742-4.222 3.455.073 1.977 3.432 5.169 5.475 5.204 1.642.027 3.328-1.498 3.373-3.051zm43.88-39.335a10.04 10.04 0 0 1-3.427 7.734 10.05 10.05 0 0 1-8.12 2.377 12.31 12.31 0 0 1-10.287-8.087 8.37 8.37 0 0 1 .788-7.721c2.907-4.861 11.551-8.716 17.176-2.463 2.885 3.209 3.839 4.54 3.87 8.16m-6.68-.967c.018-3.243-1.05-5.078-2.959-5.08-2.83 0-6.054 2.596-5.99 4.83.056 2.004 2.888 4.47 5.173 4.511 2.139.038 3.762-1.794 3.776-4.26m16.478-10.389a15.1 15.1 0 0 1-9.517-4.559c-2.957-2.953-3.347-6.847-1.277-10.488 2.16-3.798 7.864-6.663 11.965-6.012 4.422.703 9.263 5.09 10.21 9.25 1.437 6.296-3.417 11.83-11.381 11.809m-.02-6.245c3.237-.095 4.446-1.951 3.628-4.417-.853-2.574-3.094-3.703-5.142-5.041-1.229-.805-2.246-.488-3.313.427-2.842 2.44-2.738 5.478.512 7.373a24.3 24.3 0 0 0 4.315 1.658m-17.993-28.729c.132 2.554-1.241 4.566-3.19 6.204-3.09 2.596-6.62 3.865-10.595 2.48-4.263-1.483-7.334-4.36-8.45-8.833a8.15 8.15 0 0 1 1.98-7.511 13.02 13.02 0 0 1 8.72-4.552 8.4 8.4 0 0 1 3.61.446c3.493 1.242 7.965 7.919 7.925 11.766m-10.67 2.498c2.436.013 4.478-1.873 4.406-4.069-.088-2.636-1.698-5.06-3.424-5.154-2.452-.131-6.384 2.644-6.423 4.538-.037 1.827 3.272 4.674 5.442 4.686M71.664 65.12c-5.693.068-10.699-4.54-10.583-9.99.121-5.88 5.543-9.679 11.822-10.231 4.548-.4 8.992 5.932 9.393 11.116.361 4.64-4.921 9.035-10.632 9.104m1.893-14.918a6.8 6.8 0 0 0-5.273 2.211c-1.805 1.852-1.213 4.625 1.274 5.299a6.4 6.4 0 0 0 4.06-.57c1.313-.618 1.566-2.069 1.076-3.512-.388-1.14-.76-2.288-1.137-3.428M52.705 87.553c-4.5-.048-9.352-3.63-10.73-7.854a7.76 7.76 0 0 1 1.556-7.848 10.99 10.99 0 0 1 9.5-4.094c4.756.287 9.892 5.973 9.75 10.73-.158 5.322-4.388 9.126-10.076 9.066m4.074-10.772c.045-2.51-1.054-3.566-3.734-3.588-2.888-.024-5.552 1.873-5.471 3.899.073 1.814 2.94 4.354 4.94 4.374 2.372.023 4.215-2.004 4.265-4.685M41.593 97.402c-.062 5.372-5.276 9.011-10.698 7.304a11.48 11.48 0 0 1-7.654-7.443 7.53 7.53 0 0 1 2.243-8.236 7.5 7.5 0 0 1 2.634-1.446 10.27 10.27 0 0 1 13.475 9.82m-6.485-.905c.046-1.87-1.819-4.512-3.18-4.51-1.887.004-3.404 1.122-3.413 2.515-.01 1.773 2.313 4.13 4.194 4.25a2.25 2.25 0 0 0 1.688-.608 2.26 2.26 0 0 0 .711-1.647"/></g><defs><clipPath id="a"><path fill="#fff" d="M.677.884H154.26v154.24H.677z"/></clipPath></defs></svg>