<svg xmlns="http://www.w3.org/2000/svg" width="163" height="160" fill="none" viewBox="0 0 163 160"><g fill="#000" clip-path="url(#a)"><path d="M57.927 90.907c.97 4.984 2.671 9.132 5.624 12.543 10.1 11.666 23.188 14.925 37.976 12.93 1.749-.237 3.418-1.05 5.137-1.547 2.013-.581 3.929-.34 5.018 1.588 1.124 1.991.045 3.734-1.379 5.116-2.794 2.714-6.439 3.811-10.111 4.107-14.899 1.202-28.564-2.011-39.98-12.247-5.857-5.25-9.475-11.931-11.264-19.506-.575-2.432-1.587-3.085-3.854-2.918a42 42 0 0 1-6.057-.108 10.3 10.3 0 0 1-3.236-.775c-1.477-.637-2.446-1.982-1.92-3.504a5.6 5.6 0 0 1 2.525-2.695c.899-.494 2.173-.379 3.281-.401 2.437-.05 4.876-.015 7.622-.015V71.189c-1.844 0-3.945.086-6.035-.028a24 24 0 0 1-4.981-.695 3.39 3.39 0 0 1-2.663-3.782c.142-2.049 1.453-3.033 3.316-3.143 3.245-.19 6.502-.182 9.753-.287.886-.029 1.768-.166 2.822-.27.605-1.566 1.199-3.113 1.801-4.66a30.87 30.87 0 0 1 10.281-13.888c10.042-7.502 21.105-11.854 33.867-10.31 2.74.328 5.425 1.329 8.06 2.239a6.2 6.2 0 0 1 2.968 2.085 4.37 4.37 0 0 1 .568 3.302c-.138.478-1.863.525-2.882.7a2.3 2.3 0 0 1-.975-.232c-15.74-5.201-28.27.751-39.32 11.476-2.335 2.266-3.755 5.236-4.52 8.891 1.188 0 2.154.022 3.118-.004 6.845-.182 13.69-.406 20.537-.541 1.682-.01 3.361.11 5.024.359a3.455 3.455 0 0 1 3.26 3.301c.174 1.851-.504 3.55-2.291 4.074a25.8 25.8 0 0 1-6.892 1.08c-7.409.078-14.82-.077-22.23-.121-.77-.005-1.542.126-2.791.235v11.516c4.786 0 9.786.113 14.777-.038 3.697-.11 7.38-.676 11.077-.816 1.76-.066 3.723 0 5.247.728a5.24 5.24 0 0 1 2.612 3.474c.14 1.093-.958 2.874-2.008 3.468a12 12 0 0 1-5.412 1.394c-7.182.197-14.374.16-21.557.208-1.1.008-2.214.002-3.913.002"/><path d="M161.45 73.217a84.37 84.37 0 0 0-18.729-44.115c-8.552-10.493-17.752-17.973-28.124-22.856A59.95 59.95 0 0 0 88.652.305a65 65 0 0 0-8.254.54C69.006 2.32 57.46 5.624 44.073 11.25c-18.11 7.614-30.717 20.7-37.466 38.881a87.8 87.8 0 0 0-5.334 39.184c1.423 14.938 5.017 26.516 11.31 36.426 9.09 14.305 20.543 23.727 35.016 28.792 8.774 3.075 18.432 4.62 30.382 4.863 7.035 0 13.584-.85 19.917-1.673l1.2-.155c13.826-1.787 25.567-6.778 35.901-15.242a67.3 67.3 0 0 0 21.245-29.925c4.948-14.035 6.648-26.856 5.205-39.184m-16.321 44.559c-7.824 15.842-20.982 26.235-39.124 30.889-2.179.56-4.431.965-6.812 1.389-1.181.209-2.415.432-3.71.681-5.644.85-13.258.978-17.454.978-1.867 0-3.061-.026-3.095-.026-11.02-.136-20.502-2.004-28.98-5.72-11.297-4.95-20.327-13.306-27.598-25.541-4.39-7.377-7.175-16.111-8.76-27.482a83.9 83.9 0 0 1 5.159-42.773c5.699-14.452 15.949-25.418 30.464-32.588 3.352-1.659 16.975-5.651 20.556-6.38a100 100 0 0 1 15.293-1.84c20.32-.487 28.346 2.784 40.759 12.26 12.995 9.92 22.154 22.391 27.225 37.06 6.887 19.983 5.573 39.865-3.923 59.093"/></g><defs><clipPath id="a"><path fill="#fff" d="M.658.135h161.46v159.49H.657z"/></clipPath></defs></svg>