<svg xmlns="http://www.w3.org/2000/svg" width="163" height="160" fill="none" viewBox="0 0 163 160"><g fill="#000" clip-path="url(#a)"><path d="M71.02 84.755v15.943c3.598-.169 6.813-.31 10.026-.475 2.577-.132 5.15-.341 7.728-.42a10 10 0 0 1 2.99.339c1.886.53 3.195 1.706 3.17 3.822a3.506 3.506 0 0 1-2.954 3.617 45.4 45.4 0 0 1-7.324.699c-4.352.106-8.708.03-13.318.03-.203 2.946-.308 5.727-.611 8.487a46 46 0 0 1-1.175 6.941c-.802 2.978-2.77 4.308-5.054 3.807-2.155-.474-3.434-2.718-3.352-5.547.114-4.026.118-8.055.145-12.083a12 12 0 0 0-.316-1.749c-3.578 0-7.15.053-10.718-.029a7.6 7.6 0 0 1-3.555-.699 3.5 3.5 0 0 1-1.575-2.605 3.29 3.29 0 0 1 1.847-2.378 17.1 17.1 0 0 1 4.955-.656c3.01-.092 6.025-.027 9.341-.027 0-1.935.018-3.258 0-4.58q-.36-23.234-.722-46.463c-.019-1.234-.044-2.474.048-3.703.325-4.318 2.569-6.559 6.886-6.634 11.447-.197 22.895-.359 34.343-.394a12.5 12.5 0 0 1 5.496 1.185 5 5 0 0 1 2.216 3.355c.228 1.514-.997 2.763-2.583 3.056a28.4 28.4 0 0 1-5.645.57c-9.875-.186-19.748-.483-29.623-.719-1.09-.026-2.184.09-3.527.151L70.21 76.41c1.019 0 1.969.02 2.922-.003 8.642-.207 17.283-.468 25.925-.602a25.7 25.7 0 0 1 6.002.61c1.999.449 3.429 1.785 3.394 4.032-.034 2.226-1.425 3.578-3.478 3.946a35 35 0 0 1-6.343.48c-7.857-.046-15.712-.205-23.569-.293-1.327-.017-2.66.111-4.043.176"/><path d="M161.405 73.275a84.37 84.37 0 0 0-18.729-44.114c-8.552-10.494-17.752-17.973-28.125-22.857A59.95 59.95 0 0 0 88.607.363c-2.76.004-5.518.184-8.255.54-11.391 1.477-22.938 4.78-36.325 10.405C25.918 18.923 13.31 32.007 6.562 50.19a87.84 87.84 0 0 0-5.334 39.184c1.423 14.938 5.017 26.516 11.31 36.427 9.091 14.308 20.543 23.726 35.016 28.791 8.774 3.075 18.432 4.619 30.383 4.862 7.034 0 13.584-.849 19.917-1.672l1.2-.155c13.826-1.787 25.567-6.778 35.901-15.242a67.3 67.3 0 0 0 21.244-29.925c4.948-14.034 6.649-26.855 5.206-39.184m-16.321 44.56c-7.824 15.842-20.982 26.235-39.125 30.888-2.178.56-4.431.965-6.811 1.39-1.182.209-2.415.431-3.71.681-5.644.849-13.258.978-17.454.978-1.868 0-3.062-.027-3.095-.027-11.02-.132-20.503-2.004-28.98-5.719-11.297-4.951-20.327-13.307-27.598-25.541-4.39-7.378-7.176-16.112-8.76-27.483a83.9 83.9 0 0 1 5.158-42.772c5.7-14.453 15.95-25.419 30.464-32.589 3.352-1.658 16.976-5.651 20.557-6.38a100 100 0 0 1 15.292-1.84c20.321-.486 28.347 2.785 40.756 12.26 12.996 9.921 22.155 22.391 27.227 37.06 6.889 19.984 5.574 39.866-3.924 59.094z"/></g><defs><clipPath id="a"><path fill="#fff" d="M.751.135h161.46v159.49H.75z"/></clipPath></defs></svg>