<svg xmlns="http://www.w3.org/2000/svg" width="163" height="160" fill="none" viewBox="0 0 163 160"><g fill="#000" clip-path="url(#a)"><path d="M68.468 82.013c5.25-.419 10.268-.848 15.292-1.2 1.333-.1 2.672-.059 3.996.123a3.2 3.2 0 0 1 2.878 2.871c.272 1.759-.394 3.324-1.995 3.879a26 26 0 0 1-6.842 1.456c-3.907.231-7.838.066-12.115.066-.365 7.984-2.668 14.922-6.835 21.89 9.955.555 19.307 1.3 28.67 1.476 3.264.062 6.58-1.175 9.824-2.009 3.554-.915 5.33-.608 6.177 1.41.909 2.166-.25 4.069-3.484 5.618a27.84 27.84 0 0 1-13.47 2.422c-7.051-.328-14.096-1.043-21.107-1.891-4.696-.7-9.49.233-13.581 2.641-3.513 2.072-5.402.994-5.124-3.105a15.1 15.1 0 0 1 2.134-6.195c3.246-5.637 6.883-11.065 8.256-17.572q.253-1.148.385-2.316-.002-.814-.132-1.618c-2.282 0-4.501.02-6.72-.009a15.5 15.5 0 0 1-3.347-.22c-1.8-.429-3.073-1.595-2.954-3.559.115-1.915 1.308-3.043 3.272-3.222 2.787-.253 5.575-.49 8.785-.771-.83-2.948-1.53-5.726-2.394-8.452-2.346-7.4-.919-14.29 3.195-20.568 7.271-11.093 24.38-18.233 38.584-7.468a30.5 30.5 0 0 1 5.272 5.595c.73.986 1.085 2.2 1.001 3.425a4.07 4.07 0 0 1-1.783 2.878c-.869.42-2.453.143-3.334-.428-1.383-.895-2.363-2.384-3.645-3.468-12.853-10.863-29.316-2.208-32.16 10.113a14.5 14.5 0 0 0-.39 4.332 28.3 28.3 0 0 0 1.04 5.272c.77 2.784 1.692 5.527 2.65 8.604"/><path d="M161.948 73.275A84.36 84.36 0 0 0 143.22 29.16c-8.552-10.494-17.751-17.973-28.124-22.856A59.95 59.95 0 0 0 89.151.362c-2.76.005-5.517.185-8.255.54-11.39 1.477-22.937 4.782-36.324 10.407-18.109 7.613-30.717 20.697-37.465 38.88a87.84 87.84 0 0 0-5.334 39.183c1.423 14.939 5.018 26.516 11.31 36.427 9.09 14.308 20.543 23.727 35.016 28.792 8.774 3.075 18.432 4.619 30.382 4.862 7.035 0 13.583-.849 19.916-1.672l1.2-.155c13.826-1.788 25.568-6.778 35.902-15.242a67.3 67.3 0 0 0 21.245-29.925c4.948-14.034 6.648-26.855 5.204-39.184m-16.321 44.56c-7.823 15.842-20.98 26.235-39.123 30.888-2.178.56-4.431.964-6.811 1.39-1.182.208-2.415.431-3.71.68-5.644.85-13.257.979-17.454.979-1.868 0-3.062-.028-3.096-.028-11.02-.131-20.502-2.003-28.98-5.718-11.296-4.951-20.327-13.307-27.597-25.541-4.39-7.378-7.176-16.113-8.761-27.483a83.86 83.86 0 0 1 5.16-42.772c5.698-14.454 15.948-25.42 30.463-32.589 3.352-1.659 16.975-5.652 20.557-6.38a100 100 0 0 1 15.292-1.84c20.321-.486 28.346 2.784 40.758 12.26 12.996 9.921 22.155 22.39 27.227 37.06 6.887 19.984 5.571 39.865-3.925 59.094"/></g><defs><clipPath id="a"><path fill="#fff" d="M.844.135H162.96v159.49H.844z"/></clipPath></defs></svg>