<svg xmlns="http://www.w3.org/2000/svg" width="163" height="160" fill="none" viewBox="0 0 163 160"><g fill="#000" clip-path="url(#a)"><path d="M33.572 83.67c-2.035 0-3.812.02-5.589-.007a45 45 0 0 1-5.046-.185c-1.829-.236-3.225-1.228-3.174-3.276.052-2.105 1.525-2.855 3.408-2.944 2.768-.131 5.54-.215 8.471-.328-1.456-7.102-2.826-13.768-4.186-20.437-.269-1.32-.538-2.643-.727-3.975-.368-2.602.431-4.39 2.182-4.64 2.253-.321 3.237 1.192 3.77 3.047.681 2.37 1.27 4.768 1.876 7.159 1.378 5.438 2.727 10.881 4.116 16.316q.327.986.787 1.917c8.038-.355 15.986-.742 23.938-1.028 1.619-.058 2.027-1.076 2.497-2.252a9973 9973 0 0 1 9.25-23.095c.333-.831.643-1.672.993-2.493.817-1.924 2.204-3.178 4.363-3.104 2.312.082 3.593 1.522 4.285 3.655 1.452 4.472 2.873 8.958 4.485 13.373 1.422 3.894 3.102 7.693 4.638 11.546.447 1.124 1.002 1.894 2.407 1.885 7.178-.045 14.357-.021 21.892-.021.62-2.822 1.291-5.75 1.904-8.687 1.416-6.804 2.801-13.614 4.205-20.419q.117-.491.293-.963c.872-2.567 2.845-4 4.971-3.614a4.67 4.67 0 0 1 3.008 2.021 4.68 4.68 0 0 1 .662 3.563c-.705 3.855-1.714 7.655-2.554 11.486-1.196 5.455-2.356 10.917-3.619 16.784 2.989 0 5.629-.022 8.267.006 3.025.03 6.063-.063 9.067.21 2.81.256 4.057 1.545 4.129 3.57.075 2.108-1.371 3.666-4.172 3.974-2.783.304-5.602.319-8.406.366-3.361.056-6.724.013-10.521.013l-3.359 16.44c3.081 0 5.86-.046 8.636.016a21.7 21.7 0 0 1 4.984.43c2.418.637 3.753 2.35 3.643 4.266a4.275 4.275 0 0 1-3.389 4.127 26.3 26.3 0 0 1-5.615.743c-3.47.113-6.945.033-10.803.033-.833 3.006-1.677 6.103-2.56 9.188a23.3 23.3 0 0 1-1.258 3.819c-1.874 3.862-5.993 4.162-8.16.486a128 128 0 0 1-5.907-11.331c-.842-1.823-1.873-2.441-3.821-2.396a2878 2878 0 0 1-35.377.602c-2.248.021-3.397.854-4.256 2.897-1.3 3.095-2.918 6.06-4.471 9.042-1.143 2.194-2.698 4.014-5.476 3.684-2.625-.313-3.616-2.332-4.303-4.602-.81-2.682-1.82-5.308-2.542-8.013-.434-1.628-1.282-2.12-2.879-2.072-4.603.138-9.21.175-13.815.22a27 27 0 0 1-3.364-.164c-2.312-.271-3.671-1.525-3.61-3.226.062-1.672 1.483-2.888 3.799-3.085 3.244-.273 6.497-.431 9.744-.687 2.223-.174 4.44-.432 7.019-.688zm29.798 17.338 33.098-1.126c-2.548-5.757-4.886-11.158-7.375-16.489-.272-.582-1.422-1.056-2.172-1.066-4.59-.058-9.189-.04-13.772.141a3.08 3.08 0 0 0-2.198 1.523c-2.537 5.455-4.919 10.98-7.584 17.017zm-22.364-17.9c1.89 6.838 3.58 12.944 5.299 19.165a51 51 0 0 0 5.402-.399 3.1 3.1 0 0 0 2.053-1.362c2.67-5.76 5.21-11.581 7.797-17.403zm72.281 16.15 3.335-16.571h-18.59c2.004 4.322 3.836 8.258 5.657 12.199 2.486 5.382 2.482 5.382 8.472 4.82a6.7 6.7 0 0 0 1.123-.449zM80.194 61.302l-5.47 13.455h10.681c-1.735-4.47-3.3-8.51-5.214-13.452z"/><path d="M161.883 73.284a84.35 84.35 0 0 0-18.728-44.115c-8.552-10.494-17.751-17.973-28.124-22.856A59.95 59.95 0 0 0 89.086.372 65 65 0 0 0 80.83.91C69.44 2.387 57.893 5.692 44.506 11.317 26.399 18.93 13.79 32.016 7.042 50.198a87.8 87.8 0 0 0-5.334 39.184c1.423 14.938 5.018 26.516 11.31 36.426 9.091 14.305 20.543 23.727 35.016 28.792 8.774 3.075 18.432 4.619 30.382 4.862 7.035 0 13.583-.849 19.916-1.672l1.2-.155c13.826-1.787 25.568-6.778 35.902-15.242a67.3 67.3 0 0 0 21.245-29.925c4.949-14.035 6.648-26.856 5.204-39.184m-16.321 44.559c-7.823 15.842-20.98 26.235-39.123 30.889-2.178.559-4.431.964-6.811 1.389-1.181.209-2.415.431-3.71.681-5.644.853-13.257.978-17.454.978-1.868 0-3.062-.027-3.096-.027-11.02-.135-20.502-2.003-28.98-5.719-11.296-4.951-20.327-13.307-27.597-25.541-4.39-7.378-7.176-16.112-8.761-27.483a83.86 83.86 0 0 1 5.16-42.771c5.699-14.454 15.949-25.42 30.463-32.589 3.352-1.659 16.976-5.652 20.557-6.38a100 100 0 0 1 15.293-1.837c20.32-.486 28.345 2.784 40.757 12.26 12.996 9.921 22.156 22.391 27.227 37.06 6.887 19.98 5.571 39.862-3.925 59.09"/></g><defs><clipPath id="a"><path fill="#fff" d="M.78.135h162.115v159.49H.78z"/></clipPath></defs></svg>