<svg xmlns="http://www.w3.org/2000/svg" width="155" height="156" fill="none" viewBox="0 0 155 156"><g clip-path="url(#a)"><path fill="#000" d="M82.198 18.069q.621.625 1.313 1.17c12.852 7.794 25.676 15.633 38.578 23.343 7.12 4.256 14.395 8.251 21.542 12.461a40 40 0 0 1 4.792 3.65c.507.415 1.156 1.01 1.208 1.57.299 3.234 2.772 6.068 1.546 9.624-.447 1.3-.136 2.883-.074 4.332.888 20.855 1.82 41.709 2.663 62.567.108 2.68-.253 5.377-.321 8.068a7.7 7.7 0 0 0 .349 2.538c.97 2.959-.035 5.422-2.979 6.42a15 15 0 0 1-4.62.684q-29.643.213-59.288.323c-14.935.066-29.872.214-44.806.092-10.436-.085-20.866-.583-31.3-.853-2.59-.066-4.157-.963-5.37-3.564a23.3 23.3 0 0 1-2.253-9.356c-.624-19.523-1.308-39.045-1.911-58.569-.119-3.811.022-7.63.06-11.446a5.2 5.2 0 0 1 .172-1.658c2.373-6.629 4.455-13.38 7.241-19.83a115.5 115.5 0 0 1 30.143-41.65 60.5 60.5 0 0 1 7.894-5.71c3.33-2.073 4.636-1.759 7.668.776a24.4 24.4 0 0 0 3.95 2.553c4.82 2.642 9.708 5.16 14.494 7.859 1.694.955 2.823.803 4.513-.279A120 120 0 0 1 89.15 6.747a9.3 9.3 0 0 1 4.553-.825c1.05.072 2.578.874 2.894 1.721.31.83-.353 2.437-1.11 3.155-1.181 1.123-2.773 1.846-4.248 2.629-2.843 1.515-5.731 2.953-9.042 4.642m57.413 45.243c-21.245-12.966-41.517-27.13-63.166-39.142-.64.746-1.026 1.143-1.35 1.587-.384.525-.715 1.096-1.213 1.87a31 31 0 0 1 2.54 2.325c5.541 6.305 5.256 16.896-.976 21.856-5.447 4.335-11.864 6.344-18.912 5.285-5.593-.84-9.144-4.909-9.567-10.556-.755-10.08 6.99-20.074 16.965-21.278 3.158-.381 4.884-1.653 5.96-4.45L48.203 7.76c-17.76 15.782-30.307 35.27-36.764 58.809 8.281.978 117.091-1.269 128.172-3.256M9.2 74.744c-.46 1.772.574 16.48 1.54 19.663 5.982 0 12.031.225 18.058-.045 14.805-.665 29.6-1.503 44.399-2.371 20.958-1.23 41.912-2.55 62.868-3.829 2.096-.13 4.192-.237 6.377-.36V73.106c-22.3.59-44.385 1.416-66.478 1.686-22.22.273-44.449-.009-66.764-.047m133.817 52.294-130.48 3.14c.184 2.779.4 5.55.542 8.325.14 2.752.203 5.508.298 8.204 9.233 1.116 125.459-1.271 130.258-2.682-.203-5.638-.411-11.316-.618-16.986zm-35.184-8.351c4.594 0 9.038-.015 13.478.007 2.143.01 3.885-.39 4.645-2.822.313-1.001 1.293-1.805 2.011-2.664 3.961-4.725 7.942-9.44 11.895-14.173.51-.611.91-1.313 1.576-2.297-7.539.584-14.571 1.161-21.615 1.647-1.51.105-2.428.56-3.022 2.071-.903 2.287-2.092 4.463-3.188 6.67-1.924 3.881-3.872 7.75-5.78 11.561m-37.628 1.631 12.522-19.788c-7.134.34-13.73.681-20.33.95-1.454.059-2.137.788-2.741 2.016-2.618 5.326-5.338 10.602-8.008 15.903a16 16 0 0 0-.562 1.673zm28.79-.886c2.227-7.506 7.601-13.172 11.197-20.412l-19.409 1.024-11.176 19.967zm-57.781 2.135c4.003-6.606 7.8-12.864 11.945-19.703-5.857.263-10.989.406-16.1.805-.848.065-1.867 1.095-2.367 1.94-2.28 3.845-4.397 7.786-6.583 11.683-1.026 1.83-2.086 3.642-3.479 6.066zM53.33 43.463c-.072 5.015 2.067 7.308 6.245 7.047a19.76 19.76 0 0 0 9.464-3.103c2.748-1.748 3.25-4.463 2.872-7.362a6.71 6.71 0 0 0-4.846-5.887c-3.746-1.105-7.568-.06-10.659 1.758-2.655 1.56-2.733 5.162-3.077 7.547zM29.141 102.65H11.053l1.164 19.517c3.997.685 3.897.628 5.562-2.263 1.731-3.004 3.64-5.907 5.547-8.806 1.715-2.606 3.532-5.144 5.814-8.448zm113.31 14.087v-9.409l-.623-.146-6.953 10.362z"/></g><defs><clipPath id="a"><path fill="#fff" d="M.633.433h153.583v154.896H.633z"/></clipPath></defs></svg>