<svg xmlns="http://www.w3.org/2000/svg" width="77" height="157" fill="none" viewBox="0 0 77 157"><g fill="#000" clip-path="url(#a)"><path d="M57.01 9.166c-.489-1.05-.977-2.101-1.445-3.155-.957-2.157-2.746-3.682-5.628-4.8a3.16 3.16 0 0 0-2.621-.048 2.85 2.85 0 0 0-1.396 1.943 17 17 0 0 0-.504 4.127c-.05 3.355-.075 6.711-.099 10.066-.041 5.628-.082 11.45-.257 17.165-.247 8.139-.569 16.408-.88 24.408-.322 8.303-.656 16.889-.908 25.335-.425 14.225-.74 28.688-1.044 42.677l-.252 11.464c-.076 3.489-.074 7.121.01 10.796a8.05 8.05 0 0 0 .806 3.907c.371.616 1.713 2.655 3.428 3.02q.328.07.663.07c1.788 0 3.02-1.616 3.441-3.286.35-1.462.525-2.96.52-4.463q.066-9.274.088-18.548.02-5.698.043-11.397c.005-.785.056-1.561.115-2.461l.05-.772q2.607 0 5.16.026c4.47.029 8.692.058 12.995-.072 4.971-.149 6.792-2.012 6.957-7.12q.015-1.228-.124-2.449l-.057-.647a443 443 0 0 0-.31-3.493c-.196-2.145-.398-4.363-.53-6.543l-.142-2.374c-.656-11.038-1.34-22.452-3.872-33.448-2.775-12.04-6.032-24.763-10.248-40.036a64.7 64.7 0 0 0-3.96-9.892m11.026 97.327H51.479c-.155-10.575.164-21.606.472-32.278.136-4.704.276-9.566.377-14.359q.342-16.51.665-33.023l.203-10.247C60.984 43 68.469 73.951 68.034 106.493zM7.891 26.944c-.378-3.347-.547-6.78-.71-10.104a339 339 0 0 0-.246-4.616q-.06-.973-.115-1.945c-.121-2.123-.247-4.316-.485-6.471a2.82 2.82 0 0 0-1.858-2.16c-.825-.163-1.61.708-2.247 1.411a2.8 2.8 0 0 0-.58 1.688 1542 1542 0 0 1-.214 6.517c-.205 5.907-.418 12.011-.37 18.021A14.53 14.53 0 0 0 6.513 40.39a32.4 32.4 0 0 0 5.4 3.406c.788.43 1.601.871 2.423 1.35a953 953 0 0 1-.273 6.891c-.225 5.346-.46 10.873-.476 16.353-.071 19.638-.06 39.604-.048 58.913q.007 10.936.01 21.872.001.371-.005.742c-.007.764-.015 1.553.047 2.34.22 2.75 1.77 4.57 3.873 4.57h.123c2.192-.073 3.628-1.965 3.662-4.82.017-1.57-.028-3.159-.071-4.695-.038-1.332-.078-2.708-.075-4.058q.054-25.945.137-51.89l.04-13.739q.01-3.356.014-6.71c.01-5.964.021-12.129.08-18.191.02-1.965.152-3.972.279-5.913q.075-1.135.141-2.272c6.71-2.418 10.71-7.28 12.946-15.695 2.147-8.083 2.232-16.104 2.035-22.884l-.006-.245c-.013-.716-.029-1.609-.553-2.146-.937-.959-2.035-1.987-3.24-2.053-1.142-.065-2.445 1.313-2.944 2.332a6.1 6.1 0 0 0-.436 2.539c-.009.334-.017.668-.05.99a365 365 0 0 0-.473 5.031c-.353 3.938-.716 8.008-1.381 11.95-.432 2.55-1.523 5.078-2.579 7.522q-.313.724-.619 1.444a4.1 4.1 0 0 1-2.29 2.316l-.009-1.102c-.012-1.331-.023-2.59.02-3.835.04-1.185.088-2.37.135-3.556.272-6.792.553-13.816-.502-20.735a7.9 7.9 0 0 0-.945-3.102 3.03 3.03 0 0 0-2.59-1.064c-.987.1-1.646 1.478-1.768 1.754-.165.457-.22.946-.158 1.428.01.163.019.328.014.485q-.121 3.273-.236 6.548c-.208 5.892-.424 11.985-.687 17.973-.065 1.444-.254 2.888-.456 4.41q-.09.676-.178 1.365c-4.158-1.653-6.437-4.692-6.953-9.265"/></g><defs><clipPath id="a"><path fill="#fff" d="M.963.776h75.479v156.208H.962z"/></clipPath></defs></svg>