<svg xmlns="http://www.w3.org/2000/svg" width="157" height="88" fill="none" viewBox="0 0 157 88"><g clip-path="url(#a)"><path fill="#000" d="M148.958 79.173c-1.449-.005-2.899 0-4.373 0h-1.43l-.147-.933a117 117 0 0 1-.384-2.51c-1.777-12.854-5.199-23.896-10.464-33.759-8.581-16.08-21.593-26.473-38.664-30.892-1.763-.46-3.572-.875-5.322-1.279l-1.981-.46c0-.205.006-.404.008-.6.01-.742.02-1.444-.02-2.144-.144-2.482-.744-4.11-1.889-5.124S81.48.064 79.03.217c-2.838.18-5.831.5-9.423 1.012-2.685.382-4.548.887-5.537 2.217-.99 1.33-.94 3.326-.525 6.104q-.024.054-.057.121l-.022.048-.71.164c-.788.18-1.605.37-2.422.563-18.256 4.314-31.332 14.512-38.863 30.31-6.406 13.437-9.4 27.852-11.463 40.249l-1.655.174c-1.83.192-3.661.383-5.49.59a3 3 0 0 0-2.23 1.163 2.19 2.19 0 0 0-.263 1.874 3.75 3.75 0 0 0 2.441 2.275c1.267.286 2.566.41 3.864.368h.656c13.204-.07 25.132-.138 37.392-.263q10.87-.11 21.738-.262c12.636-.164 25.703-.333 38.553-.39 9.825-.041 19.821.066 29.487.17q7.317.08 14.635.141c3.507.026 6.757-.405 6.837-3.683a3.2 3.2 0 0 0-.872-2.41c-1.032-1.07-2.984-1.57-6.143-1.58m-15.862-.747v.013L17.488 80.69q.044-.33.086-.661.154-1.507.532-2.974.664-2.334 1.316-4.67c2.238-7.988 4.551-16.247 7.87-24.04 6.86-16.101 18.49-25.72 35.562-29.404a61 61 0 0 1 12.93-1.407 59.05 59.05 0 0 1 25.69 5.955c8.692 4.154 15.753 10.942 20.975 20.173 5.382 9.506 8.861 20.47 10.628 33.52q.061.621.019 1.243M70.321 8.723a37.4 37.4 0 0 1 8.313-.885q.288.373.525.78.03.052.066.105z"/></g><defs><clipPath id="a"><path fill="#fff" d="M.076.004h156.208v87.949H.076z"/></clipPath></defs></svg>