<svg xmlns="http://www.w3.org/2000/svg" width="156" height="160" fill="none" viewBox="0 0 156 160"><g clip-path="url(#a)"><path fill="#000" d="M155.491 33.035a9.4 9.4 0 0 1-.429-1.378 25.9 25.9 0 0 0-8.961-15.089c-8.865-7.428-21.631-8.23-33.317-2.088a31.6 31.6 0 0 0-14.485 15.914l-39.59.853-5.326-7.35c-4.741-6.544-9.34-12.89-13.96-19.222a7.89 7.89 0 0 0-7.949-3.403 19.7 19.7 0 0 1-3.429.065q-.586-.023-1.168-.035-4.434-.083-8.87-.174Q12.163 1.008 6.322.9c-.13 0-.269-.007-.409-.013a3.7 3.7 0 0 0-2.297.389c-1.6 1.142-2.382 2.116-2.461 3.067-.1 1.21 1.105 2.796 2.209 3.348 1.392.575 2.882.874 4.388.88l.106.007c7.038.49 14.055.93 20.854 1.307a3.76 3.76 0 0 1 3.254 1.986c2.008 3.07 4.124 6.138 6.17 9.105a755 755 0 0 1 3.472 5.064c.893 1.313 1.754 2.663 2.752 4.225l.98 1.531c-.393 0-.762-.005-1.12-.008-1.377-.009-2.566-.018-3.736.022l-3.15.102c-4.489.143-9.13.292-13.693.57-2.686.162-4.753 1.527-5.672 3.741-.994 2.399.482 4.24 1.667 5.718l.283.355c.21.262.438.503.656.733l.06.065q2.1 2.202 4.208 4.398c2.968 3.093 6.038 6.29 8.996 9.488a6326 6326 0 0 1 15.466 16.778 6814 6814 0 0 0 18.727 20.298 4.4 4.4 0 0 1 1.19 3.995c-.548 4.345-.875 7.865-1.029 11.076-.346 7.223-.65 14.567-.945 21.67q-.282 6.773-.574 13.545c-.04.927-.162 1.854-.29 2.835q-.056.415-.11.838h-2.189a513 513 0 0 0-6.592.014 13.5 13.5 0 0 0-3.159.283c-2.59.645-3.196 2.311-3.246 3.594-.075 1.908.919 3.254 2.868 3.893.792.268 1.61.446 2.442.53 9.862.882 18.143 1.61 26.499 2.297q.185.014.374.014a9 9 0 0 0 2.51-.459 4.86 4.86 0 0 0 3.73-4.857 4.545 4.545 0 0 0-3.935-4.677 32 32 0 0 0-4.231-.348l-.52-.019c-.98-.041-1.949-.031-2.977-.021l-.66.005c.093-.827.196-1.626.292-2.403.263-2.096.515-4.075.569-6.059.343-12.613.722-27.5.897-42.303a6.76 6.76 0 0 1 2.27-5.355 757 757 0 0 0 17.896-17.798c3.351-3.447 6.675-7.057 9.888-10.548a1496 1496 0 0 1 3.948-4.277c5.819 5.272 12.858 6.727 21.501 4.45 11.717-3.084 18.679-10.154 20.694-21.002q.113-.453.336-.864c.081-.168.163-.337.234-.507a.7.7 0 0 0 .051-.263v-7.388a.7.7 0 0 0-.033-.21c-.071-.234-.156-.467-.241-.703m-36.489 5.884c-5.026 6.849-37.042 39.607-45.339 46.276L30.493 40.03zm3.944 9.229q2.66-3.15 5.322-6.32.315-.37.637-.738a20 20 0 0 0 1.735-2.192 5.5 5.5 0 0 0 .844-4.488 4.81 4.81 0 0 0-2.669-3.045 16.5 16.5 0 0 0-6.349-1.406c-3.493-.131-6.947-.107-10.607-.081q-1.683.011-3.406.019a20 20 0 0 1 5.164-5.607 21.81 21.81 0 0 1 18.487-4.246c8.159 1.717 13.094 8.853 12.573 18.18a15.9 15.9 0 0 1-5.603 11.421 16.16 16.16 0 0 1-12.394 3.636c-2.107-.24-3.749-1.033-5.71-2.788z"/></g><defs><clipPath id="a"><path fill="#fff" d="M.918.463h154.896v158.834H.918z"/></clipPath></defs></svg>