<svg xmlns="http://www.w3.org/2000/svg" width="46" height="160" fill="none" viewBox="0 0 46 160"><g clip-path="url(#a)"><path fill="#000" d="M23.262 53.462c.31-3.556.827-7.107.896-10.667.23-11.895.29-23.795.45-35.692.009-1.231.156-2.457.437-3.656a2.915 2.915 0 0 1 2.908-2.37 2.99 2.99 0 0 1 2.996 2.288 12.1 12.1 0 0 1 .38 3.656c-.22 13.021-.41 26.043-.783 39.06-.093 3.216-.816 6.419-1.321 10.155a8.73 8.73 0 0 0 2.683-3.833 34.2 34.2 0 0 0 2.668-12.428c.298-9.874.46-19.756.73-29.628.024-1.792.216-3.577.573-5.332A3.87 3.87 0 0 1 39.4 1.87a4 4 0 0 1 3.83 2.756c.366.941.594 1.93.677 2.937.776 11.436 1.275 22.897-.114 34.298a52 52 0 0 1-3.39 12.597c-2.463 6.246-6.108 9.236-14.243 12.876.175 3.446.34 7.004.54 10.56.593 10.646 1.361 21.285 1.762 31.938.536 14.246.805 28.503 1.145 42.756 0 1.227-.148 2.451-.44 3.643-.386 1.745-1.706 2.613-3.356 2.881-1.479.24-3.316-1.011-3.837-2.727a15 15 0 0 1-.529-3.977c-.17-8.082-.188-16.168-.436-24.247-.296-9.648-.853-19.288-1.148-28.937-.282-9.09-.38-18.184-.552-27.277-.025-1.328-.004-2.656-.004-4.04-.999-.351-1.706-.65-2.44-.853-7.361-2.02-12.124-6.807-13.973-14.087A68 68 0 0 1 .96 39.348c-.415-9.302-.73-18.63.443-27.917.225-1.781.432-3.57.782-5.327.556-2.792 1.838-4.015 3.836-3.86 2.021.157 3 1.524 3 4.463 0 4.491-.1 8.982-.138 13.473-.076 9.096.61 18.181 2.05 27.162.59 3.703 1.616 7.245 4.66 9.799q.866.616 1.79 1.14c-4.143-8.949-3.728-17.965-3.736-26.894-.007-7.745.271-15.487.433-23.23q.013-1.346.166-2.685c.17-1.354.843-2.398 2.309-2.454 1.686-.065 2.297 1.126 2.523 2.589q.1.665.126 1.34c.432 11.102.815 22.207 1.312 33.307.2 4.472.636 8.936 2.018 13.231z"/></g><defs><clipPath id="a"><path fill="#fff" d="M.54.463h44.631v158.834H.541z"/></clipPath></defs></svg>