<svg xmlns="http://www.w3.org/2000/svg" width="91" height="157" fill="none" viewBox="0 0 91 157"><g clip-path="url(#a)"><path fill="#000" d="M30.663 18.365c.338-2.375.434-4.64 1.01-6.775 1.29-4.785 4.306-8.029 9.184-9.401a22.35 22.35 0 0 1 9.648-.768c5.776.906 9.714 5.017 10.232 10.826.099 1.107.014 2.232.014 3.259q.447.408.985.686c10.908 3.23 18.057 10.722 22.582 20.73 2.387 5.279 3.631 11.063 5.71 16.496 1.054 2.756.797 5-.41 7.623-4.219 9.167-8.067 18.503-12.282 27.671a4057 4057 0 0 1-22.243 47.553c-2.8 5.864-6.022 11.533-9.197 17.21-2.242 4.007-3.979 3.823-8.15 1.959-3.968-1.772-5.286-4.888-6.532-8.363A39175 39175 0 0 1 5.279 74.545C3.703 70.112 2.45 65.563 1.144 61.04a5.3 5.3 0 0 1 .05-2.609 70 70 0 0 1 14.02-28.067 42.5 42.5 0 0 1 11.783-9.92c1.259-.729 2.53-1.436 3.666-2.078m9.4 128.192h.768c3.778-7.751 7.472-15.544 11.35-23.245a14418 14418 0 0 1 29.336-57.917c.645-1.274 1.251-2.567 1.854-3.806-.34-.236-.433-.357-.525-.355-12.905.19-25.81.328-38.712.605-10.887.235-21.77.626-32.654.975q-1.395.14-2.762.447zM82.69 53.596c-1.564-7.72-3.846-14.406-8.073-20.412-4.589-6.518-10.802-10.264-18.509-11.818-3.917-.788-7.817-.501-11.728-.03a34.77 34.77 0 0 0-21.797 10.967A62.15 62.15 0 0 0 9.48 53.68q-.329 1.141-.512 2.316c.968 0 1.63.032 2.287-.005 5.937-.337 11.869-.853 17.81-1 15.486-.385 30.976-.597 46.464-.915 2.212-.047 4.419-.291 7.16-.48M54.493 14.192c.15-5.15-1.96-7.417-7.015-7.223a19 19 0 0 0-4.61.793c-3.651 1.082-5.586 3.934-5.61 7.963z"/></g><defs><clipPath id="a"><path fill="#fff" d="M.805.776h89.918v156.208H.805z"/></clipPath></defs></svg>