<svg xmlns="http://www.w3.org/2000/svg" width="164" height="161" fill="none" viewBox="0 0 164 161"><g fill="#000" clip-path="url(#a)"><path d="M79.854 159.969c-14.36.324-27.567-1.482-39.663-7.868-19.51-10.305-31.366-26.694-36.507-47.979C1.704 95.927.589 87.547 1.04 79.096c.676-12.65 3.293-24.842 9.096-36.26a64.82 64.82 0 0 1 30.848-29.922 145.2 145.2 0 0 1 35.07-11.387c22.524-4.29 41.635 2.506 58.136 17.679 14.731 13.545 24.242 30.077 27.706 49.926 2.655 15.21.665 29.962-4.77 44.245-9.41 24.734-27.636 39.092-53.303 44.369a113.5 113.5 0 0 1-23.97 2.223M26.936 33.318C16.415 42.17 6.73 72.798 10.306 85.642l63.402-6.166a362.4 362.4 0 0 0-46.77-46.158m108.974 97.991c13.422-12.291 19.173-40.306 16.895-50.577-10.123.975-20.262 2.127-30.43 2.883-10.224.76-20.477 1.128-31.241 1.696 14.677 15.968 29.358 31.214 44.773 45.995zM84.535 74.733l45.963-44.588C119.167 16.243 90.697 6.148 79.67 11.965c1.616 20.877 3.231 41.718 4.862 62.761zm-57.133 56.97 45.3-45.714c-21.084 2.83-41.78 2.126-62.053 5.686 1.377 15.309 6.548 28.629 16.748 40.024zm47.813 19.729 1.781-60.21c-16.114 14.659-30.696 29.676-45.404 44.561 9.784 10.506 28.56 16.257 43.621 15.645zm7.788.168c17.144-.617 33.069-3.187 46.295-14.06L84.267 91.724c-.597 20.003-1.364 39.736-1.266 59.872zM31.651 27.843c8.08 6.85 15.985 13.121 23.38 19.943 7.442 6.864 14.374 14.276 21.533 21.447l.7-.288-2.62-56.67c-2.772 0-5.239-.13-7.686.034-2.897.192-5.999.066-8.619 1.086a171 171 0 0 0-17.378 8c-3.306 1.73-6.196 4.249-9.313 6.444zM91.003 77.4c20.792-.01 41.069-2.146 61.334-5.135-1.969-14.254-7.99-26.242-17.09-37.25z"/><path d="M50.773 72.98a4.48 4.48 0 0 1-4.635-4.672c.015-2.293 2.907-5.236 5.167-5.26 2.872-.033 4.827 1.819 4.748 4.495a5.42 5.42 0 0 1-5.28 5.438M28.29 58.603a6.2 6.2 0 0 1-1.895-.158c-2.781-1.166-5.08-5.608-4.595-8.643.175-1.106.559-1.998 1.848-1.895 1.196.095 1.277.954 1.171 1.954-.228 2.166.92 3.816 2.136 5.438.64.853 1.226 1.751 1.838 2.629zm9.01 11.223c-.066.525.031 1.086-.203 1.346-2.008 2.216-4.044 4.409-6.153 6.528a2.02 2.02 0 0 1-1.707.548 1.95 1.95 0 0 1-.738-1.592c.107-2.594 4.847-7.13 7.476-7.22.459.065.905.196 1.325.39m99.29 20.996c3.234-.035 4.796 1.349 4.771 4.227-.024 2.81-1.799 4.656-4.536 4.717a5.085 5.085 0 0 1-5.096-5.074c.009-2.362 1.864-3.837 4.861-3.87m-7.607 22.549c-4.135-.311-7.75-4.53-7.262-8.02a3.06 3.06 0 0 1 1.616-2.116c1.242-.43 1.691.679 1.821 1.767.281 2.348 1.65 3.807 3.756 4.693.205.085.472.151.582.313.469.694 1.409 1.667 1.212 2.08-.331.703-1.394 1.062-1.725 1.283m-16.115-22.985c1.739.732 3.248 1.166 4.502 1.989a2.38 2.38 0 0 1 .653 2.254c-.235.515-1.559.994-2.174.793-2.108-.691-4.05-1.036-6.113.19-.487.29-1.939.005-2.034-.297-.225-.731-.212-2.066.243-2.378a40 40 0 0 1 4.923-2.55M99.355 50.343c.193 2.355-.962 4.171-2.996 5.427a5.59 5.59 0 0 1-6.02.08c-2.252-1.286-3.578-5.63-2.585-8.304a5.844 5.844 0 0 1 6.76-3.6c3.056.564 4.818 2.842 4.84 6.397m-8.462-.43c.648 2.969 1.379 3.898 2.503 3.218a2.79 2.79 0 0 0 1.116-2.342c-.492-2.124-2.03-1.361-3.619-.877M87.07 31.296c.14-3.191 1.79-5.207 4.718-6.235a41 41 0 0 0 5.69-2.625c1.224-.657 2.363-1.531 3.602-.25.848.874.567 2.859-.857 3.85a15.3 15.3 0 0 1-5.064 2.355c-2.199.525-3.653 1.379-3.905 3.78-.148 1.408-.701 2.909-2.374 2.641-1.803-.293-1.821-2.014-1.81-3.516m27.899 4.628c-2.308.041-4.252-1.122-4.786-2.863-.605-1.975.149-3.679 2.242-5.054.186-.122.383-.227.577-.334 2.1-1.159 4.933-1.129 6.306.075 1.509 1.326 1.279 3.024.808 4.644-.604 2.077-2.8 3.489-5.147 3.531M50.982 92.904c2.494.021 4.11 1.586 3.993 3.87-.107 2.115-2.257 3.861-4.668 3.792-2.443-.07-3.716-1.531-3.628-4.162.076-2.237 1.656-3.522 4.303-3.5M37.57 103.077c-3.699 3.1-9.161 1.404-10.067-2.781a2.1 2.1 0 0 1 .64-1.64 1.51 1.51 0 0 1 1.45.136c1.444 2.637 3.842 3.092 6.513 3.162.42.011.822.61 1.465 1.123m-2.437 10.167c-1.51 3.085-2.706 5.7-4.099 8.204a2.09 2.09 0 0 1-1.969.557 2.33 2.33 0 0 1-1.04-1.819c.008-2.712 3.375-6.211 7.108-6.942m32.629 20.202a4.82 4.82 0 0 1 4.486 3.081 4.8 4.8 0 0 1 .32 1.888 5.38 5.38 0 0 1-5.56 5.139c-2.838 0-5.262-2.076-5.327-4.561-.072-2.753 3.03-5.584 6.081-5.547m-.253-24.555c2.765.065 4.322 1.731 4.195 4.494-.123 2.697-2.578 5.212-5.123 5.251a4.35 4.35 0 0 1-3.148-1.303 4.36 4.36 0 0 1-1.242-3.172 5.27 5.27 0 0 1 5.319-5.27m-20.198 29.347c-.047-3.261 3.175-8.327 5.605-9.25a2.6 2.6 0 0 1 2.152.092 2.13 2.13 0 0 1 .269 2.053c-1.69 2.842-3.523 5.601-5.382 8.336-.245.359-1.239.699-1.371.56a11 11 0 0 1-1.273-1.791m54.088-3.145c.07-3.596 2.449-5.972 5.822-5.815 3.082.144 5.239 2.59 5.156 5.841-.093 3.626-2.777 6.544-5.907 6.424-3.381-.127-5.151-2.38-5.071-6.45m-14.285-17.118c.036-3.228 1.596-4.908 4.57-4.923 3.245-.017 5.205 1.814 5.142 4.805-.058 2.767-2.64 4.941-5.727 4.823-2.584-.098-4.019-1.794-3.985-4.705m8.264 10.79q.673-1.446 1.562-2.771c1.519-1.96 2.948-3.893 3.274-6.498.079-.631 1.056-1.424 1.758-1.604.451-.115 1.477.633 1.688 1.201.985 2.643.198 5.071-1.413 7.23-1.523 2.043-3.298 3.734-6.193 3.019-.184-.046-.325-.27-.677-.577M64.222 44.878c.56-1.022 1.247-2.93 2.484-4.371 1.44-1.684 4.586-.728 5.896 1.525 1.802 3.1-.525 7.843-4.07 8.297-2.082.267-4.273-2.06-4.31-5.451M50.91 31.693c-2.98-.01-4.849-1.884-4.798-4.81.038-2.16 2.271-4.02 4.857-4.041 2.795-.024 5.22 2.189 5.128 4.679-.092 2.381-2.328 4.182-5.187 4.172m12.198-1.587 6.614-1.504c.94 1.977.643 2.776-1.52 3.8-2.363 1.118-3.954.426-5.094-2.296m70.532 33.456c-2.835.04-4.517-1.62-4.612-4.552-.108-3.348 2.67-6.513 5.784-6.589 3.164-.077 5.158 1.769 5.21 4.823.061 3.625-2.604 6.264-6.382 6.318m-14.607 8.098c-3.99-.123-6.324-1.591-7.68-4.485a4.2 4.2 0 0 1-.426-2.223 2 2 0 0 1 1.126-1.42 2.07 2.07 0 0 1 1.641.695c.504.552.66 1.41 1.122 2.016.76.998 1.699 1.886 3.096 1.212 1.22-.591 2.414-.913 3.216.436.338.568.482 1.726.141 2.125a9.5 9.5 0 0 1-2.236 1.644"/></g><defs><clipPath id="a"><path fill="#fff" d="M.357.12h162.772v160.146H.357z"/></clipPath></defs></svg>