<svg xmlns="http://www.w3.org/2000/svg" width="124" height="133" fill="none" viewBox="0 0 124 133"><g clip-path="url(#a)"><path fill="#000" d="M91.203 91.262c-2.1.24-3.001 1.915-4.05 3.315-4.271 5.695-8.636 7.22-15.507 5.322-5.288-1.462-6.744-.774-9.303 4.193a35.4 35.4 0 0 1-3.225 5.507 9.71 9.71 0 0 1-11.768 2.827 9.7 9.7 0 0 1-3.41-2.65q-.422-.525-.902-.999c-1.696-1.582-3.437-1.255-4.056 1.014-.525 1.923-.544 3.985-.775 5.987-.347 3.006-.637 6.021-1.05 9.018-.16.997-.47 1.965-.92 2.87-2.276 4.802-7.884 5.352-10.706.834-1.384-2.214-2.001-4.943-2.764-7.498-.606-2.035-.739-4.21-1.384-6.225-.794-2.478-1.973-2.85-4.37-1.778a36 36 0 0 1-4.304 1.875c-5.204 1.544-10.035-1.247-11.498-6.464-.686-2.448-1.032-4.563 1.229-6.669 1.488-1.387 2.231-3.593 3.24-5.47 10.568-19.69 22.208-38.737 34.64-57.298 6.683-9.976 13.484-19.878 20.27-29.787 1.268-1.85 2.779-3.532 4.065-5.37 1.606-2.297 3.76-3.029 6.444-2.653 5.462.766 10.311 3.11 14.825 6.08 18.069 11.894 29.873 28.204 34.435 49.506.959 4.477 2.334 8.887 1.664 13.617-.225 1.587.552 3.294.694 4.961a13.02 13.02 0 0 1-1.5 7.81c-1.288 2.232-3.008 3.455-5.787 3.076-3.27-.445-3.938.108-4.483 3.373-.459 2.764-.702 5.565-1.116 8.335a23.4 23.4 0 0 1-.853 3.595c-1.187 3.745-3.241 5.393-6.739 5.504-3.865.124-6.882-1.772-8.073-5.34-.525-1.575-.566-3.302-.94-4.935-.438-1.9-.119-4.105-2.023-5.483m-9.13-37.86c-.047-.102-.064-.253-.145-.299a9.5 9.5 0 0 0-1.459-.775c-4.384-1.582-6.938-4.753-8.065-9.189-.386-1.517-.736-3.046-1.2-4.539a36 36 0 0 0-1.986-5.68c-1.944-3.815-6.039-5.36-11.321-4.705-3.787.47-4.574 3.54-6.235 6.333 5.49.712 7.903 4.042 8.49 8.66a19.17 19.17 0 0 1-5.741 16.562c-5.08 5.073-12.086 5.731-18.26 2.066-.649-.385-1.268-.822-2.198-1.427L9.061 100.544l.435.633 17.217-5.522c.074-.766.123-1.095.132-1.425.013-.448-.044-.902 0-1.346.74-7.71 3.657-14.015 11.026-17.639 7.511-3.694 19.137-2.807 23.76 7.007q.346.616.77 1.181c1.35-.459 2.62-.867 3.873-1.321 1.324-.48 2.631-1.005 3.911-1.497-3.257-10.413 1.569-21.21 11.888-27.213M29.83 126.598l.942-.217c1.597-2.429 1.585-5.257 1.858-8.014.309-3.12.34-6.295.96-9.351.927-4.574 4.791-7.013 8.973-5.914 1.805.474 3.627.968 4.939 2.594 1.2 1.486 2.972 2.377 4.76 1.337a7.3 7.3 0 0 0 2.753-3.208 19.46 19.46 0 0 1 7.704-8.627 9.7 9.7 0 0 1 8.32-1.339c1.076.31 2.131.734 3.228.933 2.85.519 5.341.02 7.056-2.643a25 25 0 0 1 2.31-2.888c2.424-2.753 5.287-4.771 9.132-3.64 3.686 1.086 5.013 4.215 5.626 7.702.31 1.766.533 3.548.857 5.313.23 1.252.627 2.513 2.191 2.563s1.523-1.382 1.873-2.381a7.7 7.7 0 0 0 .32-1.648c.328-2.782.627-5.568.952-8.35.767-6.543 5.084-9.02 10.049-8.27.184.028.4-.155.985-.403l.827-6.286c-5.309 1.46-10.003 2.56-14.571 4.04-21.756 7.041-43.441 14.299-65.229 21.24-9.707 3.093-19.593 5.627-29.4 8.408-.672.191-1.36.328-2.156.517 2.3 3.286 3.525 3.711 6.582 2.376 1.023-.447 1.949-1.109 2.962-1.581a12.5 12.5 0 0 1 3.104-1.187c3.81-.622 6.946 1.252 8.279 5.258.949 2.854 1.309 5.898 2.074 8.82.432 1.652 1.151 3.232 1.742 4.846zm74.651-56.963q-.114-1.501-.394-2.982c-3.787-14.686-10.255-28-20.602-39.212-5.266-5.704-11.929-9.268-19.356-11.692l-6.215 8.957c1.346 0 2.02.051 2.683-.008 6.896-.616 11.789 3.862 13.759 10.012.614 1.916 1.133 3.864 1.65 5.809.989 3.714 2.948 6.473 6.907 7.476 1.074.325 2.105.78 3.07 1.355 4.148 2.244 6.69 5.656 6.916 10.429a79 79 0 0 1-.336 8.049c-.095 1.732-.246 3.461-.387 5.402zm11.397-2.936c-.092-1.154-.117-1.822-.203-2.48-2.657-20.313-11.381-37.206-28.215-49.373A68 68 0 0 0 76.172 8.29c-5.232-2.418-5.79-2.04-8.79 2.937-.09.149-.012.4-.012.596q.288.194.603.337c.632.228 1.281.41 1.91.645 7.465 2.803 14.036 6.877 19.376 12.936a94 94 0 0 1 19.128 34.082l2.576 8.078zM56.566 85.446c-1.547-4.852-5.55-7.054-10.769-6.275-7.43 1.109-12.36 6.632-12.364 14.103zM37.27 55.719c4.862 3.83 9.613 3.525 12.744-.638a14.15 14.15 0 0 0 2.926-8.771c-.036-3.81-1.472-5.275-5.69-5.73zm48.757 19.552c.44-3.137.857-5.907 1.211-8.685.36-2.834 1.332-5.677.155-8.543-7.632 1.487-12.965 12.503-9.678 19.984z"/></g><defs><clipPath id="a"><path fill="#fff" d="M.047.778H123.44v131.268H.047z"/></clipPath></defs></svg>