<svg xmlns="http://www.w3.org/2000/svg" width="160" height="156" fill="none" viewBox="0 0 160 156"><g clip-path="url(#a)"><path fill="#000" d="M88.83 144.453c15.278-2.495 41.809-20.999 52.293-46.18a31 31 0 0 1-2.644-2.202c-2.035-2.067-2.342-4.368-.903-5.972 1.453-1.624 3.748-1.707 6.118-.126 1.679 1.122 3.281 2.356 4.922 3.537 2.459 1.772 4.948 3.502 7.369 5.324.91.651 1.713 1.44 2.38 2.339a4.05 4.05 0 0 1 .065 4.748 4.14 4.14 0 0 1-4.721 1.675 35 35 0 0 1-4.047-1.856 68.7 68.7 0 0 1-10.412 16.774c-9.685 11.333-21.029 20.468-34.649 26.728-15.866 7.292-31.74 6.834-47.663.353-10.94-4.453-20.594-10.946-29.26-18.91a139 139 0 0 1-10.013-9.992c-2.96-3.336-5.507-7.04-8.368-10.753a21 21 0 0 1-2.453 1.398 4.044 4.044 0 0 1-4.884-1.082c-1.007-1.324-1.02-3.07.03-4.72a7.1 7.1 0 0 1 1.28-1.553c3.721-3.248 7.449-6.49 11.227-9.671a9.3 9.3 0 0 1 2.374-1.207c1.79-.766 3.317-.157 4.584 1.115a3.93 3.93 0 0 1 .269 4.712 15 15 0 0 1-2.716 2.931c-1.081.967-2.293 1.788-3.527 2.733a12.36 12.36 0 0 0 3.15 6.223c10.699 12.49 22.858 23.144 38.086 29.899a59.8 59.8 0 0 0 20.15 4.954c1.423.102 2.86.015 4.18.015-.826-23.477-1.641-46.65-2.47-70.144l-19.392-.812c-.045.977-.047 1.936-.143 2.885a34 34 0 0 1-.644 4.992 4.22 4.22 0 0 1-4.183 3.267 4.02 4.02 0 0 1-3.762-3.312 23.6 23.6 0 0 1-.482-5.996c.223-3.92.677-7.828 1.132-11.73a14 14 0 0 1 .928-3.567 3.04 3.04 0 0 1 3.148-2.092 2.92 2.92 0 0 1 2.83 2.83l.666 5.601c6.588.947 13.146.374 19.921.442V24.228c-1.255-.438-2.638-.84-3.958-1.394-5.168-2.166-7.895-6.307-7.244-10.898.812-5.716 5.072-10.495 10.292-11A55 55 0 0 1 88.415.878c7.397.75 10.948 6.46 8.624 13.5-1.49 4.518-4.402 7.76-8.946 9.412-.42.153-.85.28-1.266.442-.093.035-.15.16-.535.603.45 13.96.913 28.267 1.378 42.603h24.626c.249-1.48.44-2.786.696-4.08.173-.872.206-1.913.718-2.538.643-.782 1.684-1.613 2.603-1.674.722-.048 1.7.913 2.232 1.661.471.766.727 1.644.741 2.542.247 4.822.501 9.648.541 14.474a12 12 0 0 1-1.022 4.53 3.356 3.356 0 0 1-3.516 2.122 3.24 3.24 0 0 1-3.047-2.297c-.549-1.904-.794-3.892-1.236-6.197H87.768q.533 34.127 1.062 68.471M82.088 17.88c3.916-.174 6.532-2.083 7.26-5.467.48-2.225-.41-4.042-2.605-4.758a21.8 21.8 0 0 0-5.56-1.227 9.45 9.45 0 0 0-4.507.938c-2.216 1.103-2.965 3.379-2.958 5.675.007 2.086 1.772 3.044 3.5 3.645 1.573.545 3.243.807 4.87 1.194"/></g><defs><clipPath id="a"><path fill="#fff" d="M.83.174h158.833V155.07H.83z"/></clipPath></defs></svg>