<svg xmlns="http://www.w3.org/2000/svg" width="106" height="159" fill="none" viewBox="0 0 106 159"><g clip-path="url(#a)"><path fill="#000" d="M105.097 62.22c-.021-1.05-.043-2.137-.149-3.21q-.225-2.264-.439-4.532c-.498-5.218-1.014-10.614-1.745-15.896-.306-2.207-1.238-3.754-2.696-4.476-1.53-.758-3.47-.52-5.612.688-3.698 2.087-7.501 3.837-11.528 5.692a439 439 0 0 0-4.42 2.054l-.18-.937c-.23-1.2-.447-2.334-.745-3.449-1.191-4.453-2.86-5.814-7.438-6.068-1.409-.078-2.823-.061-4.463-.042q-.524.008-1.084.012c3.294-3.355 5.82-6.432 6.683-10.604 1.016-4.919-.095-9.08-3.399-12.719-5.443-5.997-13.293-6.834-21-2.242-2.736 1.63-4.7 4.242-5.835 7.762a29 29 0 0 0-.81 2.962 13.6 13.6 0 0 0-.175-2.107c-1.03-6.318-3.436-10.73-12.235-13.193-4.72-1.32-8.626-.197-11.606 3.34a23.13 23.13 0 0 0-5.554 13.868c-.363 5.579 2.219 9.78 7.468 12.134l.263.118-1.608.098c-3.067.187-5.921.361-8.775.544-5.141.328-6.652 1.943-6.468 6.907a1399 1399 0 0 0 1.514 31.63c.298 4.977 2.259 6.984 7.494 7.674q1.859.23 3.733.214h.048q4.843-.006 9.688-.036 4.255-.021 8.51-.034c.633 0 1.253.047 1.92.1l.311.023-.013.156q-.039.556-.132 1.105c-2.383 12.344-4.114 25.729-5.447 42.123-.66 8.121-1.558 16.365-2.429 24.337l-.155 1.43a24 24 0 0 1-.641 3.178c-.218.879-.444 1.788-.587 2.708-.32 2.05.454 3.586 2.181 4.326a3.877 3.877 0 0 0 4.868-1.811 9.3 9.3 0 0 0 1.158-3.387c.679-5.317 1.388-10.987 1.946-16.737a5966 5966 0 0 0 2.246-23.653c.778-8.284 1.583-16.85 2.403-25.273.204-2.088.564-4.213.912-6.268.136-.806.273-1.613.402-2.423l.689-.041c.77-.046 1.429-.088 2.092-.084.64 0 1.292.053 1.981.106l.432.032c1.21 15.156 4.463 29.942 7.613 44.248q.682 3.099 1.359 6.199a2486 2486 0 0 1 3.662 17.262l1.766 8.393q.1.55.293 1.076c.7 1.788 2.149 2.885 3.726 2.885q.305 0 .607-.055c2.126-.379 3.355-1.729 3.461-3.801a13.5 13.5 0 0 0-.213-3.164c-.46-2.407-.97-4.994-1.62-7.607-5.972-24.088-10.206-44.051-13.323-62.838a163 163 0 0 1-.35-2.235l-.094-.607h.739c.932 0 1.746.006 2.56-.006q2.57-.037 5.143-.06c4.28-.043 8.705-.087 13.058-.253 4.353-.165 5.344-1.181 5.61-5.707.092-1.579.07-3.15.046-4.82q-.01-.736-.017-1.5l.715.218c.984.302 1.838.563 2.71.8 1.277.347 2.55.706 3.825 1.064 3.216.904 6.54 1.838 9.862 2.57 2.585.57 4.442.339 5.679-.706 1.247-1.054 1.793-2.88 1.663-5.586a68 68 0 0 1-.054-1.869m-8.694-1.083-16.52-3.863-.792-8.258 16.626-7.526zM11.745 71.648l-.08-.02-2.997-32.543q6.176-.073 12.32-.175c16.416-.252 33.384-.515 50.298.229 1.155 6.867 1.53 13.831 1.925 21.195.188 3.478.38 7.07.664 10.663q-.611.087-1.204.18a24 24 0 0 1-3.496.37c-17.442.097-35.18.145-52.33.192l-4.576.012a1.6 1.6 0 0 1-.524-.103M31.23 20.76c-.594 3.568-2.516 5.075-6.476 5.008-2.84-.042-4.877-.8-6.055-2.254-1.18-1.454-1.493-3.585-.95-6.349.487-2.477 1.263-5.312 3.325-7.56 1.457-1.588 1.888-1.653 3.849-.572l.366.2c2.523 1.385 4.905 2.692 5.526 5.543.498 1.953.64 3.98.415 5.984m31.767-1.876c-.052 3.901-2.342 7.56-5.448 8.705-2.906 1.07-6.514.086-8.775-2.392-2.324-2.548-2.626-5.538-.973-9.696 1.332-3.352 3.75-5.301 7.188-5.793q.35-.056.704-.06a.9.9 0 0 1 .404.056c.379.328.764.647 1.148.97 2.436 2.038 4.736 3.963 5.679 7.022.07.294.095.597.075.898q-.003.171-.002.29m-22.261 5.395a41.4 41.4 0 0 0 3.169 5.486q.408.628.807 1.254H32.513a16.97 16.97 0 0 0 7.386-10.6 9.7 9.7 0 0 0 .838 3.86z"/></g><defs><clipPath id="a"><path fill="#fff" d="M.973.861H105.33v157.521H.973z"/></clipPath></defs></svg>