<svg xmlns="http://www.w3.org/2000/svg" width="154" height="136" fill="none" viewBox="0 0 154 136"><g fill="#000" clip-path="url(#a)"><path d="M127.902 44.334c-2.279.036-3.621-.569-4.436-2.149-.776-1.501-.268-2.849.556-4.091a5.7 5.7 0 0 1 1.656-1.641c3.502-2.2 6.992-4.431 10.607-6.432a6.95 6.95 0 0 1 3.86-.657 3.91 3.91 0 0 1 2.961 1.96 3.92 3.92 0 0 1 .157 3.545 8.5 8.5 0 0 1-2.953 3.512c-3.237 1.964-6.663 3.624-10.06 5.313a10 10 0 0 1-2.348.64M21.669 49.075c-.723-.407-2.358-.98-3.51-2.068a41.4 41.4 0 0 1-5.024-5.85 6.66 6.66 0 0 1-1.307-3.682c.027-2.429 2.585-4.18 5.173-3.315a17.05 17.05 0 0 1 10.07 8.374c1.744 3.407-.66 6.65-5.402 6.54M114.501.367c3.442-.021 5.513 2.553 4.833 5.259A5.4 5.4 0 0 1 118.158 8c-2.331 2.407-4.683 4.813-7.219 6.997-1.232 1.06-2.787 1.85-4.657 1.22-2.177-.733-3.227-2.523-2.521-4.691.182-.65.489-1.258.902-1.79 2.189-2.539 4.35-5.114 6.711-7.486.971-.976 2.421-1.473 3.127-1.883M53.356 13.062c-.197 1.989-1.029 3.46-2.823 4.327-1.677.808-3.129.253-4.295-.901a21.3 21.3 0 0 1-5.541-8.693c-.738-2.339-.044-4.293 1.65-5.344 1.802-1.116 3.76-.959 5.471.873 2.61 2.798 4.8 5.904 5.538 9.738"/><path d="M152.875 64.837a17.2 17.2 0 0 0-.89-4.964c-.782-2.124-2.192-3.568-3.959-4.053-1.787-.492-3.757.04-5.544 1.49-1.349 1.093-2.67 2.287-3.945 3.44-.525.472-1.05.951-1.575 1.416l-7.001 6.225a27301 27301 0 0 1-17.151 15.235q-.615.517-1.294.944c-.183.122-.371.243-.56.378a1.02 1.02 0 0 1-.884.132 1 1 0 0 1-.648-.62c-1.274-3.488-2.515-6.958-3.756-10.414-2.756-7.68-5.611-15.626-8.598-23.314-4.162-10.699-8.626-21.077-12.82-30.7a22.4 22.4 0 0 0-4.398-6.266c-1.633-1.706-3.42-1.834-5.787-.398-1.928 1.16-2.751 3.17-3.622 5.295l-.08.196q-1.304 3.157-2.583 6.327c-2.61 6.407-5.308 13.043-8.174 19.477-4.332 9.732-9.018 19.505-13.449 28.682-1.503 3.116-3.142 6.11-4.876 9.28-.787 1.444-1.591 2.913-2.394 4.424a1.006 1.006 0 0 1-1.43.385l-2.846-1.788c-1.807-1.126-3.453-2.15-5.092-3.19a5345 5345 0 0 1-6.92-4.377A3563 3563 0 0 0 9.03 69.514a6.73 6.73 0 0 0-3.473-1.281 3.8 3.8 0 0 0-2.482 1.025c-1.99 1.632-2.55 3.649-1.706 6.17.54 1.625 1.268 3.244 1.969 4.815l.034.066c.566 1.275 1.187 2.563 1.78 3.81 1.12 2.354 2.287 4.792 3.224 7.286l1.807 4.741c3.865 10.123 7.858 20.59 10.468 31.367.883 3.656 2.994 5.632 6.454 6.043.95.115 1.903.236 2.846.358 3.88.584 7.797.898 11.722.937 8.915-.114 17.98-.445 26.747-.762q5.787-.213 11.566-.404 9.49-.305 18.979-.58l7.264-.223c.586-.014 1.173-.034 1.767-.047.64-.014 1.288-.034 1.935-.054 2.246-.066 4.492-.156 6.737-.236 5.514-.202 11.203-.412 16.814-.445 2.59-.014 4.418-.919 5.76-2.84a16.5 16.5 0 0 0 2.084-4.579l.728-2.388c2.974-9.738 6.043-19.814 7.85-30.011.176-.992.358-1.977.533-2.968 1.44-7.967 2.937-16.222 2.438-24.477m-22.479 55.566a1 1 0 0 1-.842.656c-.81.088-1.646.189-2.489.291-1.929.236-3.932.479-5.955.566-3.319.142-6.69.243-9.948.328-4.343.131-8.835.256-13.24.499-5.131.29-10.352.715-15.396 1.126-2.9.237-5.8.473-8.7.681-4.235.311-7.77.56-11.452.675-9.071.29-18.29.525-27.206.756l-4.418.114h-.101a6.6 6.6 0 0 1-1.22-.142c-.136-.027-.27-.054-.399-.066a1.01 1.01 0 0 1-.83-.708L16.487 87.074a1.006 1.006 0 0 1 1.497-1.154l1.518.938c1.005.62 1.929 1.187 2.84 1.767q1.941 1.235 3.884 2.455c3.21 2.03 6.535 4.121 9.739 6.292 2.05 1.39 3.844 1.923 5.32 1.585 1.445-.328 2.719-1.47 3.886-3.486l1.05-1.801c1.983-3.4 4.033-6.92 5.739-10.502 5.644-11.896 11.303-24.036 16.773-35.778a9415 9415 0 0 1 6.488-13.9c.182-.393.37-.776.64-1.308l.52-1.045a.98.98 0 0 1 .938-.56 1.01 1.01 0 0 1 .903.613c.796 1.876 1.599 3.69 2.388 5.47 1.713 3.873 3.331 7.527 4.714 11.324 3.163 8.707 6.258 17.59 9.26 26.187q2.58 7.386 5.18 14.777a70 70 0 0 0 2.994 7.371 6.06 6.06 0 0 0 4.195 3.521c1.814.358 3.729-.27 5.402-1.76 2.542-2.266 5.072-4.553 7.601-6.832q3.328-3.005 6.656-5.996 4.24-3.782 8.504-7.548l3.807-3.365a1.02 1.02 0 0 1 1.046-.189l.701.277a1.016 1.016 0 0 1 .634 1.099c-2.072 13.22-4.985 28.893-10.907 44.877"/></g><defs><clipPath id="a"><path fill="#fff" d="M.682.019H153.61v135.206H.682z"/></clipPath></defs></svg>