<svg xmlns="http://www.w3.org/2000/svg" width="155" height="75" fill="none" viewBox="0 0 155 75"><path fill="#000" d="M127.701 2.193c-1.561-1.07-3.654-1.23-5.896-.445a22.6 22.6 0 0 0-3.751 1.776l-2.855 1.627c-5.3 3.02-10.779 6.141-16.109 9.32a66.6 66.6 0 0 0-7.802 5.432 5.95 5.95 0 0 1-4.064 1.575h-.04c-9.882-.048-19.929-.043-29.643-.038l-10.096.004v.219l-10.163.187q-14.296.262-28.593.539c-3.75.075-5.85 1.755-6.612 5.29a36.7 36.7 0 0 0-.93 7.122c-.119 6.788-.065 13.757-.014 19.906.034 4.196 1.781 6.217 5.842 6.76a70.5 70.5 0 0 0 9.823.725c5.19-.055 10.463-.225 15.562-.388 2.673-.086 5.345-.17 8.017-.241l4.08-.108c14.557-.384 29.61-.782 44.415-1.099a11 11 0 0 1 4.582.779c5.351 2.384 10.76 4.887 15.992 7.306q4.377 2.024 8.761 4.037c1.157.513 2.359.922 3.589 1.22a8.4 8.4 0 0 0 2.077.303c1.87 0 3.031-.957 3.807-3.02a23.6 23.6 0 0 0 1.379-7.063l.047-.891c.552-10.524 1.123-21.407 1.366-32.123.18-7.95-.077-15.914-.328-23.616-.067-2.254-.934-4.058-2.443-5.095m-5.645 9.499-2.283 50.27-22.4-9.201-1.741-26.692zM12.299 54.442l-3.635-.244c-1.043-4.951-.95-19.59.157-24.704l4.686-.213zm75.616-27.194v24.86l-65.21 2.319a132 132 0 0 1-1.171-15.304c-.123-3.216-.249-6.535-.525-9.877 10.867-.787 21.844-.853 32.465-.919 11.28-.069 22.936-.138 34.439-1.076zm61.549 2.581c-3.78.337-7.512.991-10.341 1.523a3.434 3.434 0 0 0-2.941 3.494c.013 1.772 1.151 3.03 3.043 3.373a35 35 0 0 0 3.85.4c.614.04 1.255.083 1.931.141l.073.007.072-.01c.472-.066.978-.116 1.505-.17a23.7 23.7 0 0 0 4.16-.677c2.328-.666 3.555-2.613 3.054-4.845a3.92 3.92 0 0 0-4.406-3.236m-12.538-15.062q.257.117.497.262l.24.156.277-.069c.333-.082.633-.14.906-.196a5.3 5.3 0 0 0 1.531-.456l.558-.299c2.828-1.513 5.751-3.077 8.542-4.773a8.6 8.6 0 0 0 2.749-2.841 3.17 3.17 0 0 0 .183-3.295 3.02 3.02 0 0 0-2.871-1.355 9.3 9.3 0 0 0-4.056 1.286c-2.14 1.257-4.217 2.68-6.227 4.053l-1.456.992a6.4 6.4 0 0 0-2.101 1.895 4.2 4.2 0 0 0-.374 3.271 2.87 2.87 0 0 0 1.602 1.369m10.779 42.889c-2.226-1.182-4.557-2.232-6.813-3.243l-1.079-.486a3.57 3.57 0 0 0-2.717-.191 2.4 2.4 0 0 0-1.367 1.339c-.44 1.025-.611 3.061.228 4.06 2.686 3.193 6.296 5.328 11.364 6.72l.266.073.239-.14a9 9 0 0 1 .747-.363c.764-.342 1.63-.73 2.006-1.493.511-1.036.255-2.636-.262-3.68a6.3 6.3 0 0 0-2.612-2.596"/><path fill="#000" d="M55.118 49.88c1.181.032 2.377.024 3.533.017l.905-.005.025.285.661-.065c.714-.07 1.428-.131 2.143-.193 1.697-.147 3.454-.299 5.176-.557a2.887 2.887 0 0 0 2.613-3.323 2.935 2.935 0 0 0-3.244-2.737c-3.651.197-7.975.478-12.357 1.043a3.66 3.66 0 0 0-2.568 2.722 2.27 2.27 0 0 0 .521 1.797 3.5 3.5 0 0 0 2.592 1.016m21.65-1.085h.008c1.157 0 3.562-.004 3.924-2.674a2.48 2.48 0 0 0-.582-2.014 4.35 4.35 0 0 0-3.313-1.257c-1.563-.02-2.726.324-3.429 1.03a2.53 2.53 0 0 0-.722 1.88c.036 1.845 1.65 3.035 4.114 3.035"/></svg>