<svg xmlns="http://www.w3.org/2000/svg" width="147" height="160" fill="none" viewBox="0 0 147 160"><g fill="#000" clip-path="url(#a)"><path d="m144.735 93.006-.191-7.255c-.066-2.617-.285-5.264-.494-7.824l-.131-1.617c-.185-2.317-1.467-3.592-3.61-3.592h-.338c-3.314.005-6.739.01-10.111.123-3.554.12-7.166.285-10.658.445-6.76.308-13.753.627-20.623.637-10.605.016-21.388-.14-31.818-.29-7.348-.105-14.946-.214-22.421-.262-3.865-.025-7.784.163-11.576.345q-1.72.083-3.44.16c.5-.231 1.001-.46 1.51-.678q11.07-4.8 22.136-9.61c19.756-8.582 40.183-17.455 60.314-26.09 10.77-4.618 19.856-7.555 28.596-9.243 1.919-.37 2.954-1.702 2.767-3.562a9.8 9.8 0 0 0-1.291-3.67 67 67 0 0 0-3.559-5.785c-3.061-4.434-6.189-8.795-8.571-12.097-1.525-2.116-3.438-2.833-5.679-2.13-1.519.476-3.077.932-4.582 1.374-2.842.833-5.776 1.694-8.612 2.73-21.688 7.932-50.17 18.65-78.146 31.241-8.902 4.007-17.875 8.247-26.553 12.346l-3.347 1.58c-1.853.874-3.02 2.042-3.479 3.472-.45 1.417-.176 3.024.814 4.774a68 68 0 0 1 6.599 17.016c.15.597.344 1.182.531 1.746.162.484.323.969.455 1.46.09.335.197.672.298 1.009a9.3 9.3 0 0 1 .554 2.655c-.003 1.539-.1 3.113-.191 4.636-.116 1.9-.234 3.865-.18 5.808.274 9.832.663 20.417 1.223 33.308.131 3.027.328 6.098.516 9.069.26 4.074.525 8.286.633 12.427.172 6.803 1.365 8.12 7.977 8.806.46.048.923.073 1.385.092 4.857.203 9.8.446 14.578.681 10.778.53 21.922 1.078 32.894 1.206 14.42.167 29.08.043 43.258-.079a4202 4202 0 0 1 22.122-.149c1.478.05 2.944.284 4.364.696.561.158 1.14.242 1.722.248 1.832 0 3.189-.968 3.973-2.859a8.3 8.3 0 0 0 .682-2.828c.061-1.785.135-3.571.208-5.356.21-5.094.428-10.361.359-15.548-.172-13.191-.525-26.599-.867-39.566M15.06 73.334 7.344 55.913l21.058-9.17-1.701 20.714zm121.443 5.957-.666 70.614c-11.915.619-23.773.642-35.245.665l-3.248.007c-12.19.031-24.284-.136-38.697-.394-9-.16-17.815-.394-27.148-.645q-5.803-.155-11.698-.307l-.488-4.756c-2.106-20.484-4.283-41.661-3.675-62.797l.955-.136c1.077-.155 2.19-.316 3.287-.385 16.97-1.066 34.212-.688 50.417-.208 11.405.337 23.825.373 39.092.116 5.369-.091 10.812-.525 16.075-.948 2.332-.186 4.745-.38 7.115-.54a401 401 0 0 0 3.013-.219zm-57.1-35.64-19.455 8.63.394-4.309c.429-4.725.833-9.18 1.224-13.635a2.22 2.22 0 0 1 1.635-2.162c4.819-1.87 9.575-3.783 14.61-5.81q2.202-.886 4.464-1.792a150 150 0 0 1-1.042 4.755c-1.108 4.779-2.151 9.3-1.83 14.326zm6.977-3.187q.252-1.755.492-3.448c.692-4.857 1.345-9.446 2.079-13.992a2.33 2.33 0 0 1 1.18-1.357c4.798-1.917 9.578-3.748 14.637-5.685l3.5-1.342q-.07.641-.212 1.27l-.489 1.994c-1.121 4.58-2.28 9.315-3.507 13.947a2.56 2.56 0 0 1-1.144 1.485c-4.274 1.903-8.608 3.75-13.196 5.705zm27.106-11.69 2.603-17.011c2.608-1.413 6.161-2.243 9.306-2.914a1.67 1.67 0 0 1 1.144.232l.677.849c2.899 3.63 5.892 7.376 7.887 11.915zM33.449 62.29q.12-3.435.262-6.87c.12-2.978.24-5.956.335-8.934.047-1.51.136-2.319 1.51-2.87 4.331-1.747 8.701-3.6 12.93-5.395q2.997-1.273 5.999-2.536a.6.6 0 0 1 .125-.034L51.812 55.88l-18.257 8.24-.014-.157a13 13 0 0 1-.09-1.673z"/><path d="M121.041 120.026c-.013-.676-.026-1.375-.085-2.067a444 444 0 0 1-.301-3.647c-.305-3.758-.619-7.645-1.126-11.45-.496-3.728-2.131-5.164-6.033-5.298q-1.836-.064-3.67-.139c-2.991-.118-6.083-.24-9.131-.262-14.486-.115-29.47-.234-44.448-.208-3.069.006-6.179.179-9.189.346-2.065.115-4.2.234-6.3.297-2.555.076-4.194 1.273-4.872 3.555a12.3 12.3 0 0 0-.585 3.798c.11 4.172.302 8.686.591 13.802.131 2.36.31 4.892.706 7.43.582 3.721 2.662 5.869 6.359 6.563 2.34.479 4.712.78 7.097.904 8.193.277 16.524.498 24.581.711q4.37.115 8.737.234l.648.018.008-.21q3.31 0 6.62.007c7.34.008 14.931.018 22.398-.062.99-.011 3.434-.175 4.743-1.465 2.933-2.888 4.093-6.235 3.45-9.945a19 19 0 0 1-.198-2.912m-7.823 6.279c-7.279 1.329-62.578 1.145-69.318-.243l-2.363-21.821c20.668-.894 45.13-1.555 70.572.128.52 3.946.748 7.924.681 11.902-.032 3.35.111 6.7.428 10.034"/><path d="M105.939 117.55a4.94 4.94 0 0 0-2.708-.399c-.204.007-.407.015-.601.016-1.773.011-3.545.041-5.313.07-1.933.032-3.866.066-5.799.072q-6.162.026-12.324.034c-6.226.013-12.663.026-18.995.071q-2.426.059-4.834.362-.633.07-1.264.135a2.74 2.74 0 0 0-2.003 1.085 2.1 2.1 0 0 0-.274 1.767c.272.988 1.252 1.734 2.15 2.355a2.4 2.4 0 0 0 1.589.242c.149-.011.297-.023.434-.023h22.191l6.69.323c5.992.292 11.65.568 17.202.788q.38.017.795.018a8.15 8.15 0 0 0 3.428-.617c1.042-.491 2.219-2.1 2.055-3.209-.182-1.237-1.382-2.469-2.419-3.09m-50.069-3.684 2.559.347c3.192.436 6.492.886 9.756 1.22q.473.049.95.048a12.4 12.4 0 0 0 3.267-.473c.919-.258 1.605-1.45 1.744-2.212.149-.818-.64-1.816-1.266-2.221a5.8 5.8 0 0 0-2.484-.78 296 296 0 0 0-6.314-.549l-2.377-.191-.62-.052-.02.145q-.573 0-1.146-.008c-1.533-.014-3.12-.028-4.683.06-.707.039-2.09.824-2.087 1.678.1.87.473 1.685 1.066 2.329.45.418 1.04.653 1.654.659"/></g><defs><clipPath id="a"><path fill="#fff" d="M.302.205h145.707v159.49H.302z"/></clipPath></defs></svg>