<svg xmlns="http://www.w3.org/2000/svg" width="133" height="159" fill="none" viewBox="0 0 133 159"><g clip-path="url(#a)"><path fill="#000" d="M.91 85.816q0-24.245.016-48.49c.007-3.366.112-6.739.366-10.094.317-4.17 2.727-7.274 5.663-9.98 3.696-3.408 8.197-5.466 12.833-7.21 8.451-3.176 17.297-4.815 26.18-6.012C56.189 2.65 66.466 1.505 76.755.88 82.42.536 88.2 1.183 93.86 1.911c6.549.84 13.073 2.039 19.513 3.503a24.25 24.25 0 0 1 11.748 6.264c3.085 3.014 4.575 6.583 4.113 10.913a22.6 22.6 0 0 0 .814 8.64c1.623 5.784 1.618 11.746 1.526 17.712-.088 5.71-.131 11.43.1 17.133 1.001 24.35 1.644 48.7.489 73.062-.328 6.917-1.592 9.194-8.283 11.202a134 134 0 0 1-17.709 3.873c-18.669 2.933-37.458 4.436-56.365 3.46-11.201-.577-22.431-.985-33.48-3.231a39.4 39.4 0 0 1-10.932-4.223 6 6 0 0 1-3.223-4.801 23 23 0 0 1-.086-3.026l-.525-56.58zm122.374-5.724c-.304 0-.473-.046-.513.007a55 55 0 0 0-1.379 1.88c-5.167 7.443-11.386 13.572-20.324 16.324-.437.08-.842.28-1.17.579-1.694 2.219-4.044 2.084-6.438 1.937a42 42 0 0 0-4.376-.078c-9.612.409-19.174 1.065-28.779-.863-8.048-1.614-16.11-2.956-23.519-6.689-11.217-5.652-19.73-14.284-26.805-24.482a19 19 0 0 0-1.338-1.56c.677 26.045 1.35 51.935 2.038 78.331 2.12.598 4.534 1.64 7.032 1.917 7.908.882 15.841 1.554 23.776 2.17 24.571 1.908 48.86-.591 73.012-4.92 3.032-.543 6.152-1.106 8.781-2.936zm-.973-25.414c-3.953 1.22-7.273-.336-10.352-2.52-3.303-2.343-5.307-2.421-8.604 1.468-1.434 1.691-2.404 3.772-3.624 5.65-3.368 5.185-7.896 6.277-13.275 3.224-3.007-1.706-5.115-4.266-7.066-7.065-2.836-4.065-4.857-3.948-7.407.35a20.4 20.4 0 0 0-1.826 4.308c-.569 1.811-.807 3.727-1.392 5.53-.857 2.653-1.497 5.49-2.927 7.82-4.672 7.619-11.962 7.195-17.518 2.757a16.48 16.48 0 0 1-5.745-9.64c-.533-2.405-.808-4.874-1.439-7.25a22 22 0 0 0-2.154-5.587c-1.252-2.1-3.013-2.493-5.228-1.42a19 19 0 0 0-4.2 2.733c-4.709 4.125-10.023 4.565-15.76 2.88-.918-.27-1.837-.514-2.943-.822.007.419.071.834.19 1.236 11.346 20.254 27.923 32.692 51.62 34.402.9.066 1.857-.42 2.757-.732 1.544-.534 3.036-1.524 4.601-1.641 7.382-.544 14.78-.895 22.175-1.232 3.044-.138 6.104-.083 7.8 3.043 14.328-6.07 22.446-27.76 22.317-37.492M7.923 25.414c1.465 1.014 2.712 2.166 4.181 2.822a22.4 22.4 0 0 0 6.07 1.909c7.889 1.033 15.792 2 23.714 2.715a262 262 0 0 0 49.088-.037c8.204-.801 16.193-2.508 23.497-6.538a27.7 27.7 0 0 0 5.239-3.604c2.42-2.195 2.323-3.664-.197-5.828a15.5 15.5 0 0 0-3.938-2.544c-2.678-1.13-5.397-2.363-8.223-2.892C98.1 9.688 88.813 8.074 79.487 6.79c-4.522-.623-9.238-1.028-13.73-.453-10.435 1.335-20.827 3.146-31.17 5.113a60.2 60.2 0 0 0-19.815 7.209c-2.603 1.56-5.083 3.285-6.85 6.755M7.01 32.61c.263 5.382.442 10.183.773 14.975a4.8 4.8 0 0 0 1.173 2.374c3.848 4.819 11.744 5.67 16.641 1.892a38 38 0 0 1 5.223-3.65c4.837-2.563 9.727-1.435 12.563 3.25 1.525 2.519 2.27 5.544 3.16 8.405.794 2.56 1.15 5.25 1.979 7.799a9.47 9.47 0 0 0 5.12 5.943c2.93 1.344 5.28 1.014 7.121-1.587a20.5 20.5 0 0 0 2.596-5.751c.864-2.775 1.313-5.677 2.111-8.475a15.36 15.36 0 0 1 5.448-8.296c3.355-2.538 6.714-2.359 9.673.62 1.251 1.259 2.078 2.938 3.317 4.213a30.8 30.8 0 0 0 5.455 4.834c2.512 1.57 4.379.93 6.033-1.498.754-1.107 1.26-2.388 2.048-3.467a39.3 39.3 0 0 1 4.39-5.487c3.243-3.078 7.315-3.316 11.123-.995 1.148.7 2.243 1.503 3.446 2.087 2.925 1.42 6.024-.116 6.104-3.29.131-5.137-.144-10.285-.257-15.877-1.993 1.013-3.563 1.806-5.128 2.608-10.668 5.464-22.25 6.73-33.959 7.231a314 314 0 0 1-45.74-1.344C27.303 38.08 17.029 37.62 7.01 32.61"/></g><defs><clipPath id="a"><path fill="#fff" d="M.88.61h131.924v157.521H.88z"/></clipPath></defs></svg>