<svg xmlns="http://www.w3.org/2000/svg" width="156" height="152" fill="none" viewBox="0 0 156 152"><g clip-path="url(#a)"><path fill="#000" d="M155.191 4.71a3.94 3.94 0 0 0-2.281-2.406 8.2 8.2 0 0 0-2.843-.628l-1.259-.047c-3.019-.116-6.139-.234-9.216-.17-14.386.31-25.417 7.239-32.786 20.596a21.03 21.03 0 0 0-2.756 10.997c.048 1.386-.478 2.111-1.614 3.13-3.453 3.1-7.023 6.308-10.362 9.648-3.302 3.306-6.617 6.707-9.822 9.996-4.5 4.617-9.153 9.39-13.837 13.97-14.623 14.29-29.558 28.751-44 42.737q-8.46 8.189-16.913 16.383c-4.475 4.339-6.45 8.745-6.214 13.866a7.59 7.59 0 0 0 4.944 7.053c1.66.729 3.453 1.11 5.267 1.119a13.5 13.5 0 0 0 6.66-1.82c4.486-2.517 9.183-5.31 12.958-9.308a1349 1349 0 0 1 19.637-20.346c5.938-6.027 12.045-12.092 17.95-17.957 16.193-16.08 32.938-32.71 48.05-50.393 1.622-1.899 2.99-3.156 5.824-2.039l.197.077.201-.05a54 54 0 0 1 1.945-.418 31 31 0 0 0 5.119-1.36 21.14 21.14 0 0 0 13.039-13.959c1.299-4.135 2.227-8.282 2.962-11.792 1.213-5.786 3.268-9.286 6.872-11.705a6.3 6.3 0 0 0 1.799-1.894 3.93 3.93 0 0 0 .479-3.28M9.381 142.161a1.88 1.88 0 0 1-.354-1.603 7.33 7.33 0 0 1 2.634-5.332c3.329-2.899 6.503-6.07 9.574-9.136a468 468 0 0 1 4.019-3.978q25.955-25.275 51.92-50.538.248-.225.52-.418l.14-.105 3.995 5.072-.493.539c-.546.597-1.037 1.136-1.549 1.655l-2.095 2.13a137541 137541 0 0 1-46.13 46.863l-.482.489c-4.23 4.296-8.603 8.739-13.974 11.734a31.7 31.7 0 0 1-6.341 2.679 1.61 1.61 0 0 1-1.385-.051M143.403 9.307c-3.127 4.016-4.357 8.533-5.55 12.917a108 108 0 0 1-1.076 3.777 38.5 38.5 0 0 1-2.549 6.45c-2.599 4.973-7.737 7.399-13.406 6.332-1.568-.296-3.13-.628-4.594-.944-3.176-.683-4.421-2.305-4.164-5.425a13.4 13.4 0 0 1 1.014-4.345c4.943-11.043 12.43-17.158 22.886-18.694q1.472-.201 2.959-.186c.841 0 1.716.03 2.65.066.596.017 1.205.038 1.832.052zm-31.71 36.128L88.802 69.266l-4.43-4.988 22.034-23.291z"/></g><defs><clipPath id="a"><path fill="#fff" d="M.945.892H155.84v150.301H.945z"/></clipPath></defs></svg>