<svg xmlns="http://www.w3.org/2000/svg" width="158" height="144" fill="none" viewBox="0 0 158 144"><g clip-path="url(#a)"><path fill="#000" d="M138.714 53.643q.423.229.887.35c9.132.362 13.51 6.39 15.949 14.071 2.16 6.803 2.112 13.923 1.343 21.02-.495 4.566-.759 9.157-1.213 13.728a25.95 25.95 0 0 1-3.625 11.086c-1.962 3.216-4.689 5.514-8.485 6.046-5.436.762-10.903 1.301-16.359 1.911-.992.111-1.996.109-3.413.179.602 2.764 1.145 5.327 1.721 7.884.467 2.077 1.023 4.135 1.439 6.222a8.9 8.9 0 0 1 .176 2.984 4.434 4.434 0 0 1-3.961 3.981 4.225 4.225 0 0 1-4.594-3.168 73 73 0 0 1-1.384-7.928c-.483-3.073-.926-6.153-1.368-9.108H41.583c-.64 3.747-1.24 7.475-1.925 11.189a40 40 0 0 1-1.302 5.551c-.997 2.958-3.129 4.379-5.469 3.915-2.396-.475-3.966-2.947-3.356-6.104.763-3.951 1.928-7.824 2.911-11.734.24-.96.45-1.927.781-3.347-3.491-.39-6.785-.661-10.042-1.15a84 84 0 0 1-9.223-1.783c-5.76-1.535-9.385-5.296-10.107-11.273-.914-7.562-1.53-15.161-2.201-22.752-.306-3.458-.623-6.934-.59-10.399a37 37 0 0 1 .923-8.97c2.33-8.874 9.958-14.164 19.123-13.63.866.051 1.731.132 2.696.209-1.042-10.95-.482-21.681.427-32.407.736-8.699 4.828-13.769 13.175-16.264 6.52-1.95 13.267-2.445 19.985-2.494 19.761-.137 39.523-.016 59.286.066a32 32 0 0 1 7.023.669c7.15 1.656 11.617 6.202 12.974 13.403a110.5 110.5 0 0 1 1.93 14.99c.332 6.717.101 13.463.112 20.197.002.99 0 1.981 0 2.86m-15.513 13.123a40 40 0 0 1 2.086-3.789c1.255-1.843 3.308-3.394 3.867-5.393.596-2.127-.267-4.629-.295-6.969-.084-7.179.085-14.364-.16-21.536a117 117 0 0 0-1.394-12.688c-.525-3.63-2.854-5.757-6.384-6.469a24.5 24.5 0 0 0-5.004-.471c-8.865.069-17.73.164-26.593.35-11.442.24-22.89.408-34.32.95-4.894.233-9.78 1.176-14.61 2.085-4.074.764-6.192 3.417-6.875 7.617-1.893 11.654-2.663 23.391-3.043 35.166.001.868.285 1.712.81 2.404a28.7 28.7 0 0 1 6.025 12.974c.048.254.176.486.365.662 4.351-.839 8.373-2.03 12.458-2.325 14.209-1.024 28.432-1.952 42.662-2.494 9.956-.38 19.934-.075 30.405-.075M84.987 113.26v-.271c13.022 0 26.046.115 39.066-.056 5.147-.066 10.289-.722 15.424-1.195a6.59 6.59 0 0 0 5.93-4.761c.478-1.593.743-3.243.787-4.905.203-3.581 0-7.2.425-10.75a83.3 83.3 0 0 0 .356-19.138 15.4 15.4 0 0 0-3.187-7.64c-1.276-1.718-2.953-2.273-4.999-2.115-3.719.288-6.962 3.165-8.029 7.539-.985 4.024-1.756 8.104-2.507 12.18-.744 4.033-3.008 6.889-6.397 9.046a18.7 18.7 0 0 1-8.853 2.903c-7.053.501-14.103 1.233-21.164 1.356-13.692.238-27.394.299-41.087.052-4.54-.082-9.075-1.238-13.58-2.08-4.357-.816-6.376-3.938-6.967-8.027-.416-2.875-.502-5.8-.678-8.707-.288-4.756-.953-9.377-4.03-13.295-2.64-3.361-5.978-4.308-9.834-2.538-2.749 1.264-5.01 3.17-5.597 6.295a43.5 43.5 0 0 0-1.056 8.959c.137 5.71.672 11.416 1.145 17.116.325 3.91.88 7.8 1.23 11.709.289 3.217 1.91 5.163 5.067 5.833q.972.267 1.969.416c7.93.705 15.854 1.802 23.797 1.983 14.249.323 28.512.091 42.769.091m35.977-37.716a49 49 0 0 0-5.042-.65 782 782 0 0 0-66.94 2.058c-2.853.208-5.695 1.136-8.44 2.035-1.973.647-1.838 2.494-1.716 4.266.121 1.772 1.206 2.282 2.637 2.448 3.67.428 7.338 1.01 11.022 1.16 20.543.842 41.045-.744 61.564-1.345 2.462-.072 4.464-1.144 5.37-3.388.77-1.903.975-4.037 1.545-6.584"/></g><defs><clipPath id="a"><path fill="#fff" d="M.81.83h156.864v143.082H.81z"/></clipPath></defs></svg>