<svg xmlns="http://www.w3.org/2000/svg" width="153" height="149" fill="none" viewBox="0 0 153 149"><path fill="#000" d="M151.782 94.997c-.184-4.42-.378-10.667-.584-17.283-.313-10.116-.668-21.581-1.061-28.458-.394-6.924-.958-16.037-1.817-25.137-1.237-13.11-11.789-22.6-25.659-23.077C112.312.686 101.789.538 91.606.393h-.1C88.6.351 85.643.378 82.786.402 78.082.44 73.222.482 68.46.23 57.68-.34 46.257.138 31.417 1.778 21.813 2.84 14.59 5.66 8.686 10.651 3.85 14.74 1.493 19.476 1.48 25.131a158 158 0 0 1-.111 5.586 167 167 0 0 1-.281 4.913 80 80 0 0 0-.245 10.314c.74 11.695 1.903 37.334 1.005 50.67-.319 4.73-.231 9.561-.147 14.232l.018 1.051a67.7 67.7 0 0 0 3.575 21.491c2.418 6.898 7.11 11.092 13.945 12.466a83 83 0 0 0 12.995 1.646c8.162.332 16.465.517 24.495.697q4.887.108 9.775.227l.323-.093 2.807-.008h6.236l3.424.005c13.498.023 27.463.055 41.084-2.079 4.74-.743 10.277-1.78 15.4-3.839 10.218-4.107 15.732-11.677 16.389-22.502.426-7.023.103-14.096-.209-20.937q-.095-1.988-.177-3.974m-141.74-7.679-.043-1.842c-.202-8.812-.622-27.149-1.123-34.867-.496-7.613-.797-17.655 1.284-27.79l.02-.073a.8.8 0 0 0 .047-.325c-.498-5.893 3.654-8.17 8.05-10.582l.148-.082c4.227-2.32 8.885-3.122 13.294-3.747a215 215 0 0 1 30.141-1.82c4.194 0 8.329.068 12.384.154 7.36.155 14.844.255 22.082.352 6.341.085 12.897.173 19.344.298a61 61 0 0 1 8.944.765c10.739 1.789 16.678 8.768 17.175 20.18.362 8.304.697 19.914 1.02 31.142.3 10.395.611 21.144.934 28.904.102 2.461.243 4.961.379 7.378.213 3.793.434 7.717.512 11.575.093 4.567-.16 9.244-.427 13.644-.397 6.527-4.184 11.158-11.257 13.769a65.8 65.8 0 0 1-13.192 3.151c-15.092 2.251-30.572 2.15-45.538 2.053l-1.977-.012q-1.161-.006-2.324 0h-1.425l-.006.256q-4.972-.126-9.945-.248c-9.593-.235-19.512-.479-29.266-.8a49 49 0 0 1-7.518-1.043l-.426-.082c-4.227-.809-7.055-3.417-8.401-7.754a69.6 69.6 0 0 1-2.975-20.45c-.021-3.154.023-6.367.066-9.468.056-4.144.112-8.426.016-12.638z"/><path fill="#000" d="M37.286 76.121q.81.075 1.62.156c2.217.217 4.51.442 6.775.471 9.037.118 21.828.209 34.196.297 9.582.066 18.632.132 25.567.206q.76.03 1.51.153l.339.047-.431.467c-.494.536-.903.98-1.329 1.407a82.6 82.6 0 0 0-14.848 20.741l-.123.234a9.6 9.6 0 0 0-.894 2.1 2.86 2.86 0 0 0 .088 1.302c.038.17.075.339.098.505l.048.345.34-.066q.3-.052.605-.074a2.5 2.5 0 0 0 1.449-.427 9.3 9.3 0 0 0 1.27-1.476q.428-.607.935-1.151 4.121-4.215 8.258-8.41 5.362-5.448 10.702-10.915a33 33 0 0 0 4.259-5.002c1.782-2.767 1.509-5.07-.907-7.698a362 362 0 0 1-7.434-8.358 1118 1118 0 0 1-5.826-6.796q-3.15-3.693-6.324-7.372a13.1 13.1 0 0 0-2.814-2.564c-.633-.393-2-.447-2.533.045a2.64 2.64 0 0 0-.468 2.553 17.5 17.5 0 0 0 2.025 2.947q.258.323.51.648 3.654 4.711 7.315 9.418a9694 9694 0 0 1 8.523 10.976q.35.489.616 1.03l.136.255c-1.568-.077-3.108-.156-4.63-.234-3.754-.191-7.301-.373-10.895-.511-7.643-.291-18.806-.575-29.601-.849-9.293-.237-18.07-.46-24.518-.682a20 20 0 0 0-3.773.267c-1.903.303-2.87 1.282-2.867 2.912-.001 1.82 1.077 2.921 3.031 3.103"/></svg>