<svg xmlns="http://www.w3.org/2000/svg" width="153" height="149" fill="none" viewBox="0 0 153 149"><path fill="#000" d="M152.307 102.477c-.74-11.694-1.904-37.333-1.005-50.669.319-4.742.231-9.583.146-14.267l-.017-1.013a67.7 67.7 0 0 0-3.576-21.491c-2.417-6.899-7.109-11.092-13.943-12.466A83 83 0 0 0 120.916.925C112.754.592 104.452.407 96.422.227Q91.535.12 86.647 0l-.324.093-2.806.009H77.28L73.857.096C60.357.073 46.394.04 32.771 2.176c-4.741.743-10.277 1.78-15.4 3.839C7.151 10.12 1.638 17.692.981 28.517c-.426 7.022-.104 14.101.209 20.945q.09 1.98.174 3.962c.186 4.419.38 10.667.584 17.282.314 10.116.67 21.582 1.061 28.459.394 6.938.961 16.065 1.818 25.138 1.238 13.11 11.79 22.599 25.663 23.076 10.347.356 20.871.505 31.053.649h.1c2.908.041 5.864.016 8.721-.008 4.702-.041 9.564-.081 14.327.171 2.887.153 5.823.23 8.86.23a256 256 0 0 0 28.184-1.778c9.604-1.061 16.827-3.881 22.731-8.872 4.836-4.089 7.193-8.825 7.205-14.481.005-1.854.042-3.733.112-5.585.061-1.632.172-3.297.281-4.906.303-3.432.384-6.88.242-10.322m-17.431 34.107-.15.082c-4.226 2.319-8.884 3.122-13.293 3.746-14.537 2.058-28.98 1.951-42.525 1.667-7.36-.154-14.844-.255-22.082-.353-6.34-.085-12.897-.173-19.344-.297a61 61 0 0 1-8.945-.765c-10.738-1.789-16.677-8.768-17.174-20.181-.362-8.302-.697-19.913-1.02-31.14-.3-10.396-.61-21.145-.934-28.905-.103-2.461-.244-4.961-.38-7.379-.213-3.793-.433-7.716-.511-11.574-.093-4.574.16-9.249.427-13.644.397-6.527 4.184-11.158 11.257-13.77a65.8 65.8 0 0 1 13.193-3.15c12.003-1.79 24.25-2.093 36.29-2.093 3.1 0 6.184.02 9.247.04l1.977.013q1.163.006 2.323 0h1.427l.006-.257q4.971.127 9.944.248c9.593.236 19.513.48 29.267.8 2.529.153 5.042.502 7.517 1.044l.426.082c4.228.808 7.056 3.417 8.405 7.753a69.6 69.6 0 0 1 2.974 20.45c.022 3.154-.023 6.367-.066 9.468-.057 4.142-.117 8.424-.021 12.635l.043 1.843c.202 8.812.622 27.149 1.124 34.867.495 7.614.797 17.656-1.284 27.789l-.021.075a.8.8 0 0 0-.047.323c.497 5.894-3.655 8.171-8.05 10.583"/><path fill="#000" d="M103.956 89.061a17.4 17.4 0 0 0-2.953 2.03q-.32.255-.643.505a6984 6984 0 0 0-9.418 7.316 9230 9230 0 0 1-10.975 8.522q-.49.351-1.03.616l-.256.137q.115-2.352.234-4.629c.192-3.756.373-7.303.51-10.9.293-7.65.576-18.826.854-29.634.235-9.28.46-18.044.68-24.482a19.7 19.7 0 0 0-.267-3.773c-.303-1.904-1.28-2.868-2.909-2.868-1.819 0-2.92 1.08-3.102 3.035q-.075.807-.156 1.619c-.217 2.218-.441 4.51-.47 6.775-.118 9.037-.21 21.829-.298 34.199-.066 9.582-.131 18.632-.207 25.567a12 12 0 0 1-.151 1.506l-.048.339-.48-.443a47 47 0 0 1-1.394-1.316 82.6 82.6 0 0 0-20.74-14.849l-.234-.122a9.6 9.6 0 0 0-2.1-.894 2.9 2.9 0 0 0-1.303.088c-.17.037-.339.075-.504.098l-.345.047.065.342q.053.3.074.603a2.5 2.5 0 0 0 .427 1.45 9.3 9.3 0 0 0 1.477 1.268q.606.431 1.15.937 4.227 4.134 8.435 8.283 5.436 5.349 10.89 10.677a33 33 0 0 0 5.002 4.259 6.24 6.24 0 0 0 3.373 1.153c1.433 0 2.823-.681 4.325-2.06a359 359 0 0 1 8.358-7.434q3.385-2.926 6.796-5.826 3.694-3.15 7.372-6.325a13.1 13.1 0 0 0 2.56-2.814c.397-.634.447-2.002-.044-2.532a2.64 2.64 0 0 0-2.555-.47"/></svg>