<svg xmlns="http://www.w3.org/2000/svg" width="108" height="109" fill="none" viewBox="0 0 108 109"><path fill="#000" d="M61.958 58.127A53252 53252 0 0 1 99.806 96.63c2.509 2.564 4.85 5.303 7.128 8.078a2.96 2.96 0 0 1 .262 3.32c-.442.857-2.086 1.058-3.085.332-.966-.704-2.001-1.332-2.892-2.121-5.686-5.038-11.508-9.939-16.971-15.21C73.025 80.2 61.944 69.223 50.906 58.207 40.43 47.755 30.1 37.16 19.659 26.674c-1.676-1.685-3.569-3.154-5.396-4.681a.97.97 0 0 0-.927-.041c-.289.229-.65.739-.57 1.008 1.467 4.964 2.804 9.976 4.55 14.844 4.064 11.32 6.826 22.985 9.575 34.66.451 1.919.947 3.906-.03 5.842-.178.352-.497.94-.696.919a4.6 4.6 0 0 1-2.17-.627 4.3 4.3 0 0 1-1.37-1.891c-.985-2.618-1.923-5.258-2.757-7.926C13.88 49.711 7.953 30.624 1.939 11.563-.329 4.373-.192-.258 10.892.01c3.194.077 6.406.175 9.571.565A4769 4769 0 0 1 64.487 6.22c1.961.323 3.895.799 5.782 1.423 1.264.374 1.82 1.458 1.994 2.699.192 1.365-1.032 3.555-2.05 4.037-2.263 1.07-4.673 1.104-7.056.936-9.173-.651-18.341-1.386-27.508-2.125-5.973-.482-11.937-1.038-17.908-1.51-.295-.022-.725.394-.913.709a1.03 1.03 0 0 0 .066.951c1.575 1.795 3.12 3.622 4.813 5.298A21143 21143 0 0 0 61.843 58.25z"/></svg>