<svg xmlns="http://www.w3.org/2000/svg" width="155" height="150" fill="none" viewBox="0 0 155 150"><path fill="#000" d="M3.497 54.189c-6.794 26.704-.845 50.262 17.696 70.028.483.51.975 1.021 1.467 1.512 9.96 9.96 22.365 16.11 32.194 20.389 4.22 1.842 25.866 4.08 31.724 3.207 34.807-5.198 57.713-24.83 65.691-57.674a84 84 0 0 0 2.26-19.636c.037-15.576-6.52-33.683-20.044-47.243a267 267 0 0 1-4.122-3.5c-2.909-2.501-5.917-5.091-9.063-7.3C97.264-2.945 72.29-3.04 47.076 5.932c-22.83 8.116-37.49 24.356-43.579 48.257m43.677-40.261c22.123-9.194 44.32-10.816 65.972 2.953 3.958 2.52 14.512 11.05 16.173 12.331l.107.08.088.096c8.447 8.958 18.119 25.335 17.905 42.171a86 86 0 0 1-2.901 21.316c-5.499 19.989-18.647 34.557-40.195 44.521-21.906 10.489-53.32-.114-61.68-5.632a97.6 97.6 0 0 1-23.897-23.23C8.433 93.934 6.12 72.947 11.66 53.761a62.2 62.2 0 0 1 35.513-39.833"/><path fill="#000" d="M50.283 59.91a17.5 17.5 0 0 0 2.944-2.024q.325-.259.65-.512 4.682-3.63 9.356-7.267 5.514-4.29 11.039-8.57a7 7 0 0 1 1.027-.617l.257-.137q-.117 2.39-.237 4.7c-.19 3.731-.37 7.254-.508 10.83-.291 7.642-.575 18.803-.85 29.597-.235 9.294-.459 18.073-.68 24.522a19.7 19.7 0 0 0 .267 3.773c.302 1.904 1.28 2.867 2.907 2.867h.004c1.82 0 2.922-1.079 3.104-3.033q.075-.819.157-1.638c.216-2.211.44-4.499.47-6.76.116-9.017.207-21.776.296-34.115.066-9.614.131-18.695.207-25.651q.029-.756.152-1.502l.048-.344.455.42c.542.499.989.91 1.418 1.34a82.7 82.7 0 0 0 20.74 14.849l.234.122c.662.38 1.367.68 2.1.894.435.07.881.04 1.302-.088.17-.037.34-.075.506-.098l.345-.047-.066-.342a7 7 0 0 1-.074-.605 2.47 2.47 0 0 0-.426-1.448 9.3 9.3 0 0 0-1.477-1.268q-.606-.431-1.151-.937a2700 2700 0 0 1-8.417-8.266Q90.937 43.2 85.474 37.861a33 33 0 0 0-5.002-4.259c-2.765-1.783-5.068-1.51-7.697.907a366 366 0 0 1-8.359 7.434 1094 1094 0 0 1-6.815 5.842q-3.684 3.144-7.35 6.308a13.1 13.1 0 0 0-2.564 2.814c-.394.633-.447 2 .044 2.532a2.64 2.64 0 0 0 2.551.47"/></svg>