<svg xmlns="http://www.w3.org/2000/svg" width="151" height="84" fill="none" viewBox="0 0 151 84"><path fill="#000" d="M68.1 41.35c-17.996-.146-35.992-.263-53.988-.46-3.587-.04-7.18-.321-10.752-.672a2.95 2.95 0 0 1-2.532-2.166c-.293-.919.727-2.222 1.945-2.414 1.181-.186 2.357-.474 3.544-.546 7.583-.46 15.165-1.11 22.755-1.247 15.593-.28 31.19-.35 46.787-.368 14.798-.017 29.595.168 44.392.202 2.376.006 4.754-.294 7.126-.506a.97.97 0 0 0 .684-.626c.042-.367-.066-.985-.31-1.116-4.547-2.472-9.038-5.073-13.714-7.278-10.877-5.132-21.081-11.425-31.278-17.74-1.676-1.037-3.432-2.091-4.108-4.15-.123-.375-.315-1.017-.158-1.142A4.6 4.6 0 0 1 80.472.03a4.3 4.3 0 0 1 2.305.368 150 150 0 0 1 7.556 3.653q26.577 13.875 53.136 27.782c6.688 3.479 9.867 6.852 1.838 14.5-2.313 2.205-4.653 4.406-7.168 6.366a4668 4668 0 0 1-35.121 27.137 38 38 0 0 1-5.095 3.085c-1.159.629-2.318.256-3.319-.498-1.1-.83-1.784-3.244-1.404-4.305.843-2.356 2.523-4.085 4.328-5.65a2230 2230 0 0 1 20.953-17.95c4.563-3.882 9.174-7.706 13.73-11.596.225-.191.236-.787.145-1.145a1.03 1.03 0 0 0-.718-.63c-2.382-.155-4.767-.354-7.15-.342q-28.195.15-56.39.372z"/></svg>