<svg xmlns="http://www.w3.org/2000/svg" width="155" height="150" fill="none" viewBox="0 0 155 150"><path fill="#000" d="M3.497 54.185c-6.794 26.704-.845 50.262 17.696 70.031a75 75 0 0 0 1.467 1.514c9.96 9.959 22.365 16.108 32.194 20.388 4.22 1.842 25.866 4.08 31.724 3.207 34.807-5.198 57.713-24.83 65.691-57.674a84 84 0 0 0 2.26-19.636c.037-15.575-6.52-33.682-20.044-47.244a267 267 0 0 1-4.122-3.5c-2.909-2.5-5.917-5.09-9.063-7.3-24.036-16.916-49.01-17.01-74.224-8.04-22.83 8.114-37.49 24.353-43.579 48.254m43.677-40.26c22.123-9.194 44.32-10.817 65.972 2.953 3.958 2.52 14.512 11.05 16.173 12.331l.107.08.088.097c8.447 8.957 18.119 25.335 17.905 42.17a86 86 0 0 1-2.901 21.317c-5.499 19.989-18.647 34.557-40.195 44.521-21.906 10.489-53.32-.115-61.68-5.633a97.6 97.6 0 0 1-23.897-23.23C8.433 93.931 6.12 72.944 11.66 53.759a62.2 62.2 0 0 1 35.513-39.834"/><path fill="#000" d="M110.469 61.52a1114 1114 0 0 1-5.825-6.795q-3.154-3.694-6.325-7.373a13.1 13.1 0 0 0-2.813-2.563c-.634-.397-2-.448-2.532.043a2.64 2.64 0 0 0-.47 2.555 17.4 17.4 0 0 0 2.025 2.946q.258.323.511.648 3.63 4.68 7.267 9.356 4.288 5.517 8.571 11.038.352.49.617 1.032.065.122.132.254-2.35-.117-4.631-.235a836 836 0 0 0-10.895-.51c-7.648-.293-18.82-.577-29.625-.854-9.283-.235-18.053-.46-24.493-.68a19.6 19.6 0 0 0-3.773.267c-1.903.302-2.869 1.282-2.868 2.912 0 1.82 1.079 2.921 3.034 3.102q.808.075 1.618.156c2.218.218 4.511.442 6.777.471 9.036.118 21.827.21 34.195.298 9.582.065 18.633.13 25.567.206q.758.029 1.507.152l.339.048q-.227.245-.43.467c-.494.536-.904.98-1.33 1.407a82.7 82.7 0 0 0-14.849 20.74l-.122.234a9.6 9.6 0 0 0-.894 2.1c-.07.435-.041.881.088 1.302.038.169.075.339.098.505l.047.345.342-.065q.3-.053.604-.074a2.5 2.5 0 0 0 1.449-.427q.712-.672 1.27-1.478.43-.606.936-1.15 4.103-4.197 8.226-8.377a4538 4538 0 0 0 10.733-10.948 33 33 0 0 0 4.259-5.001c1.782-2.768 1.509-5.07-.906-7.699a365 365 0 0 1-7.431-8.355"/></svg>