<svg xmlns="http://www.w3.org/2000/svg" width="60" height="93" fill="none" viewBox="0 0 60 93"><path fill="#000" d="M10.706 48.11C17.15 53.632 23.2 59.321 29.77 64.326c8.85 6.74 18.085 12.976 27.19 19.377 2.507 1.762 3.43 4.246 2.134 6.398-1.332 2.21-4.213 2.739-6.587.961-11.618-8.696-23.279-17.346-34.74-26.25-4.992-3.878-9.531-8.335-14.3-12.504-3.61-3.15-3.59-6.215.085-9.255Q22.36 27.498 41.14 11.913c4.109-3.426 8.007-7.101 12.113-10.535A5.65 5.65 0 0 1 56.698 0c1.87.066 2.594 2.266 1.307 4.034a33 33 0 0 1-4.356 4.878A12001 12001 0 0 1 13.5 45.602c-.797.729-1.606 1.444-2.794 2.508"/></svg>