<svg xmlns="http://www.w3.org/2000/svg" width="155" height="150" fill="none" viewBox="0 0 155 150"><path fill="#000" d="M116.929 72.847q-.81-.075-1.62-.156c-2.217-.217-4.51-.441-6.774-.47-9.037-.118-21.829-.21-34.2-.298a6916 6916 0 0 1-25.567-.207 12 12 0 0 1-1.506-.151l-.338-.048.435-.473c.491-.533.899-.976 1.324-1.401a82.7 82.7 0 0 0 14.849-20.74l.122-.234a9.6 9.6 0 0 0 .893-2.1 2.9 2.9 0 0 0-.087-1.302 6 6 0 0 1-.099-.505l-.046-.346-.342.066q-.3.053-.603.074a2.5 2.5 0 0 0-1.45.426 9.4 9.4 0 0 0-1.27 1.478q-.43.606-.936 1.15-4.14 4.234-8.297 8.451-5.34 5.427-10.663 10.875a33 33 0 0 0-4.258 5c-1.783 2.769-1.51 5.071.906 7.7a360 360 0 0 1 7.435 8.357q2.927 3.385 5.825 6.796 3.15 3.694 6.325 7.372a13 13 0 0 0 2.814 2.56c.403.217.855.324 1.313.312.436.028.869-.098 1.221-.356a2.64 2.64 0 0 0 .469-2.554 17.3 17.3 0 0 0-2.03-2.953q-.255-.32-.505-.643a6800 6800 0 0 0-7.315-9.418 8949 8949 0 0 1-8.523-10.976 7 7 0 0 1-.616-1.03l-.136-.255q2.35.115 4.628.234c3.756.192 7.303.373 10.9.51 7.641.292 18.805.576 29.6.85 9.293.236 18.071.46 24.518.682a20 20 0 0 0 3.772-.267c1.904-.303 2.869-1.282 2.868-2.913-.004-1.814-1.082-2.916-3.036-3.097"/><path fill="#000" d="M3.497 54.185c-6.794 26.704-.845 50.262 17.696 70.031.483.511.975 1.021 1.467 1.514 9.96 9.959 22.365 16.108 32.194 20.388 4.22 1.842 25.867 4.079 31.724 3.207 34.807-5.197 57.713-24.83 65.691-57.674a84 84 0 0 0 2.261-19.637c.036-15.574-6.521-33.682-20.045-47.243a270 270 0 0 1-4.121-3.499c-2.91-2.502-5.918-5.091-9.064-7.3C97.264-2.945 72.29-3.04 47.076 5.93 24.247 14.045 9.586 30.284 3.497 54.185m43.677-40.26c22.124-9.195 44.322-10.817 65.972 2.953 3.959 2.52 14.512 11.05 16.174 12.331l.106.08.089.097c8.446 8.957 18.118 25.335 17.904 42.17a86 86 0 0 1-2.901 21.317c-5.499 19.989-18.647 34.557-40.195 44.521-21.905 10.488-53.32-.115-61.68-5.633a97.6 97.6 0 0 1-23.897-23.23C8.434 93.931 6.12 72.944 11.661 53.758a62.2 62.2 0 0 1 35.513-39.833"/></svg>