<svg xmlns="http://www.w3.org/2000/svg" width="155" height="150" fill="none" viewBox="0 0 155 150"><path fill="#000" d="M3.497 54.188c-6.794 26.705-.845 50.263 17.696 70.028.483.511.975 1.022 1.467 1.513 9.96 9.96 22.365 16.109 32.195 20.389 4.218 1.842 25.866 4.079 31.723 3.207 34.807-5.198 57.713-24.83 65.691-57.674a84 84 0 0 0 2.261-19.636c.037-15.576-6.521-33.683-20.045-47.244a267 267 0 0 1-4.121-3.5c-2.91-2.5-5.918-5.09-9.064-7.3-24.036-16.916-49.009-17.01-74.224-8.04C24.247 14.048 9.588 30.287 3.497 54.188m43.677-40.26C69.298 4.733 91.496 3.11 113.145 16.88c3.959 2.52 14.513 11.05 16.175 12.331l.107.079.088.097c8.446 8.958 18.118 25.335 17.904 42.171a86 86 0 0 1-2.9 21.316c-5.5 19.989-18.648 34.557-40.196 44.521-21.905 10.489-53.32-.115-61.679-5.632a97.6 97.6 0 0 1-23.898-23.23C8.434 93.933 6.12 72.947 11.658 53.761a62.21 62.21 0 0 1 35.516-39.834"/><path fill="#000" d="M47.453 89.043a2.5 2.5 0 0 0 .427 1.45q.672.713 1.477 1.27.606.43 1.15.936 4.215 4.12 8.41 8.258 5.447 5.36 10.916 10.702a33 33 0 0 0 5 4.259 6.24 6.24 0 0 0 3.374 1.153c1.434 0 2.827-.682 4.325-2.06a362 362 0 0 1 8.359-7.434q3.385-2.926 6.795-5.826 3.694-3.15 7.372-6.325a13.1 13.1 0 0 0 2.56-2.814c.397-.633.448-2-.044-2.532a2.64 2.64 0 0 0-2.554-.468 17.4 17.4 0 0 0-2.947 2.025q-.323.256-.647.51a8789 8789 0 0 0-9.418 7.314q-5.485 4.266-10.975 8.523-.49.352-1.03.616l-.256.137q.115-2.352.234-4.629c.192-3.755.373-7.302.51-10.9.293-7.64.576-18.804.85-29.6.237-9.293.46-18.07.682-24.517a19.7 19.7 0 0 0-.267-3.774c-.302-1.903-1.28-2.867-2.91-2.867h-.003c-1.819 0-2.92 1.079-3.102 3.034q-.075.808-.156 1.62c-.217 2.217-.441 4.51-.47 6.775-.118 9.036-.21 21.828-.298 34.195-.066 9.582-.131 18.633-.207 25.568a12 12 0 0 1-.152 1.505l-.047.34-.48-.443c-.53-.488-.97-.894-1.394-1.317a82.7 82.7 0 0 0-20.74-14.849l-.235-.122a9.6 9.6 0 0 0-2.1-.894c-.435-.07-.88-.04-1.302.088-.17.038-.34.076-.505.099l-.345.046.066.342q.054.3.077.606"/></svg>