<svg xmlns="http://www.w3.org/2000/svg" width="151" height="84" fill="none" viewBox="0 0 151 84"><path fill="#000" d="M82.74 41.35c17.996-.146 35.992-.263 53.988-.46 3.587-.04 7.179-.321 10.752-.672a2.95 2.95 0 0 0 2.532-2.166c.293-.919-.727-2.222-1.945-2.414-1.181-.186-2.357-.474-3.544-.546-7.583-.46-15.165-1.11-22.755-1.247-15.593-.28-31.19-.35-46.787-.368-14.797-.017-29.595.167-44.392.202-2.376.006-4.754-.294-7.126-.506a.97.97 0 0 1-.684-.626c-.042-.367.066-.985.31-1.116 4.547-2.472 9.038-5.073 13.714-7.278C47.68 19.02 57.884 12.728 68.08 6.413c1.676-1.037 3.432-2.091 4.108-4.15.123-.375.315-1.017.159-1.142A4.64 4.64 0 0 0 70.367.03a4.3 4.3 0 0 0-2.304.368 151 151 0 0 0-7.557 3.653C42.786 13.3 25.101 22.607 7.371 31.832c-6.688 3.479-9.866 6.853-1.838 14.5 2.313 2.206 4.653 4.407 7.168 6.367a4681 4681 0 0 0 35.121 27.137 38 38 0 0 0 5.095 3.085c1.159.629 2.318.255 3.319-.498 1.1-.83 1.784-3.244 1.404-4.305-.843-2.356-2.523-4.085-4.328-5.65a2228 2228 0 0 0-20.953-17.95c-4.563-3.882-9.174-7.706-13.73-11.596-.225-.192-.236-.787-.145-1.145a1.03 1.03 0 0 1 .718-.63c2.381-.155 4.767-.354 7.15-.342q28.195.15 56.39.372z"/></svg>