<svg xmlns="http://www.w3.org/2000/svg" width="153" height="149" fill="none" viewBox="0 0 153 149"><path fill="#000" d="M151.785 94.997c-.184-4.42-.378-10.668-.583-17.282-.313-10.117-.669-21.583-1.062-28.458-.393-6.925-.958-16.039-1.817-25.138-1.237-13.11-11.789-22.6-25.659-23.077-10.348-.356-20.871-.505-31.055-.65h-.1c-2.908-.04-5.865-.014-8.729.01-4.698.04-9.56.08-14.32-.171C57.68-.34 46.257.137 31.417 1.778 21.814 2.84 14.592 5.66 8.686 10.651 3.85 14.74 1.493 19.476 1.48 25.13a158 158 0 0 1-.111 5.586c-.061 1.633-.173 3.3-.281 4.913a80 80 0 0 0-.245 10.315c.74 11.694 1.903 37.333 1.005 50.669-.319 4.73-.231 9.561-.147 14.232l.018 1.05a67.7 67.7 0 0 0 3.575 21.491c2.418 6.899 7.11 11.092 13.945 12.466a83 83 0 0 0 12.995 1.646c8.162.333 16.465.518 24.495.698q4.887.108 9.775.227l.323-.093 2.807-.009h6.236l3.424.006c13.499.024 27.463.054 41.084-2.08 4.74-.743 10.277-1.78 15.4-3.839 10.218-4.106 15.732-11.677 16.389-22.502.426-7.022.103-14.095-.209-20.937q-.09-1.988-.174-3.973m-141.741-7.68L10 85.473c-.2-8.813-.62-27.147-1.122-34.865-.495-7.614-.797-17.656 1.284-27.79l.02-.074a.8.8 0 0 0 .047-.323c-.498-5.894 3.654-8.171 8.05-10.583l.149-.082c4.226-2.319 8.884-3.122 13.293-3.746a215 215 0 0 1 30.141-1.822c4.194 0 8.33.07 12.384.155 7.36.154 14.845.255 22.082.353 6.341.085 12.897.173 19.344.297a61.5 61.5 0 0 1 8.945.765c10.739 1.79 16.677 8.768 17.174 20.18.362 8.303.697 19.914 1.021 31.142.3 10.395.61 21.144.933 28.904.102 2.46.244 4.96.379 7.379.214 3.793.434 7.716.512 11.574.094 4.567-.16 9.244-.427 13.644-.397 6.528-4.184 11.158-11.257 13.769a65.8 65.8 0 0 1-13.192 3.15c-15.092 2.252-30.572 2.15-45.538 2.054l-1.976-.013q-1.162-.007-2.325 0h-1.425l-.006.257q-4.987-.13-9.976-.248c-9.583-.237-19.494-.48-29.233-.8a49 49 0 0 1-7.508-1.043l-.436-.083c-4.228-.808-7.056-3.417-8.401-7.754a69.6 69.6 0 0 1-2.975-20.45c-.022-3.153.023-6.366.066-9.467.055-4.143.11-8.425.014-12.637z"/><path fill="#000" d="M49.195 59.362a17.4 17.4 0 0 0 2.953-2.03q.321-.255.643-.505 4.674-3.625 9.342-7.257 5.524-4.294 11.053-8.581.487-.352 1.027-.616.124-.064.257-.137-.114 2.349-.233 4.624c-.192 3.758-.374 7.306-.512 10.904-.292 7.65-.575 18.827-.853 29.635-.235 9.28-.46 18.044-.68 24.482a19.7 19.7 0 0 0 .267 3.773c.303 1.903 1.281 2.868 2.91 2.868 1.818 0 2.92-1.08 3.102-3.035q.076-.812.156-1.625c.217-2.216.442-4.507.47-6.769.117-9.037.21-21.829.298-34.199.065-9.582.131-18.632.206-25.567q.029-.76.152-1.51l.047-.339.46.426c.538.496.984.906 1.412 1.334a82.6 82.6 0 0 0 20.74 14.848l.234.123a9.6 9.6 0 0 0 2.1.893 2.85 2.85 0 0 0 1.302-.088c.17-.036.339-.074.504-.097l.345-.047-.065-.342a6 6 0 0 1-.074-.603 2.5 2.5 0 0 0-.426-1.45 9.4 9.4 0 0 0-1.477-1.269q-.607-.43-1.151-.936-4.227-4.135-8.436-8.283A4107 4107 0 0 0 84.38 37.309a33 33 0 0 0-5.002-4.258c-2.768-1.783-5.069-1.51-7.697.907a361 361 0 0 1-8.36 7.434 1064 1064 0 0 1-6.795 5.825q-3.694 3.151-7.372 6.326a13.1 13.1 0 0 0-2.56 2.813c-.394.634-.447 2.002.045 2.532a2.64 2.64 0 0 0 2.557.474"/></svg>