<svg xmlns="http://www.w3.org/2000/svg" width="100" height="93" fill="none" viewBox="0 0 100 93"><path fill="#000" d="M10.706 48.111C17.15 53.633 23.2 59.321 29.77 64.327c8.85 6.74 18.085 12.976 27.19 19.376 2.507 1.763 3.43 4.247 2.134 6.398-1.332 2.21-4.213 2.74-6.587.962-11.618-8.697-23.279-17.347-34.74-26.25-4.992-3.877-9.531-8.335-14.3-12.505-3.61-3.15-3.59-6.215.085-9.254Q22.36 27.499 41.14 11.914c4.11-3.426 8.007-7.102 12.113-10.534A5.65 5.65 0 0 1 56.698 0c1.87.066 2.594 2.267 1.307 4.034a33 33 0 0 1-4.356 4.879A12002 12002 0 0 1 13.5 45.603c-.797.728-1.606 1.44-2.794 2.508"/><path fill="#000" d="M50.087 48.11c6.442 5.522 12.492 11.211 19.064 16.216 8.85 6.74 18.084 12.976 27.19 19.377 2.506 1.762 3.428 4.247 2.133 6.398-1.332 2.21-4.213 2.739-6.587.961-11.617-8.696-23.278-17.346-34.74-26.25-4.992-3.877-9.53-8.335-14.3-12.504-3.61-3.15-3.59-6.215.085-9.255q18.807-15.555 37.588-31.14c4.11-3.426 8.008-7.101 12.114-10.535A5.65 5.65 0 0 1 96.078 0c1.87.066 2.594 2.267 1.307 4.034a33 33 0 0 1-4.356 4.878 12023 12023 0 0 1-40.148 36.69c-.798.729-1.607 1.441-2.794 2.509"/></svg>