<svg xmlns="http://www.w3.org/2000/svg" width="1200" height="720" viewBox="0 0 1200 720"><defs><style>.ink,.thin{fill:none;stroke:#000;stroke-width:8;stroke-linecap:round;stroke-linejoin:round}.thin{stroke-width:5}.lbl{font-family:Arial,Helvetica,sans-serif}.lbl,.mrz,.txtS{font-weight:700;fill:#000}.txtS{font-family:Arial,Helvetica,sans-serif;font-size:18px}.lbl{font-size:14px;letter-spacing:.5px}.mrz{font-family:&quot;Courier New&quot;,Courier,monospace;font-size:22px;letter-spacing:1px}</style></defs><path d="M85 105q5-35 40-35h950q40 0 45 35l5 505q0 40-37 40H125q-35 0-40-40Z" class="ink"/><path d="M95 110q7-25 33-27h940q32 1 40 29l3 492q1 31-25 34H128q-26-1-32-30Zm15 40h980" class="thin"/><text x="120" y="135" style="font-family:Arial,Helvetica,sans-serif;font-weight:800;font-size:36px;fill:#000">CREDENCIAL / TARJETA</text><text x="120" y="170" class="txtS">REVERSO (DISEÑO GENÉRICO)</text><text x="120" y="230" class="lbl">NÚMERO DE TARJETA</text><path d="M320 235h400" class="thin"/><text x="120" y="280" class="lbl">DOMICILIO</text><path d="M220 285h620" class="thin"/><text x="120" y="330" class="lbl">CIUDAD / PROVINCIA</text><path d="M320 335h280m40 0h200" class="thin"/><text x="120" y="380" class="lbl">PAÍS</text><path d="M180 385h180" class="thin"/><text x="120" y="440" class="lbl">FIRMA</text><path d="M120 455h440v65H120Z" class="ink"/><path d="M150 500q70-30 140 5t140-10 100-10" class="thin"/><text x="650" y="440" class="lbl">CÓDIGO (GENÉRICO)</text><path d="M650 455h440v65H650Z" class="ink"/><path d="M675 455h50v50h-50Z" class="thin"/><path d="M690 490h20v20h-20m65-40h35v35h-35m50-20h40m-40 15h75m20-30h160m-160 20h140m-140 20h165" class="thin"/><path d="M120 555h970v75H120Z" class="ink"/><text x="140" y="585" class="mrz">ID&lt;&lt;FICCION&lt;&lt;NOOFICIAL&lt;&lt;&lt;&lt;&lt;&lt;&lt;&lt;&lt;&lt;&lt;&lt;&lt;&lt;&lt;&lt;&lt;&lt;&lt;</text><text x="140" y="613" class="mrz">0000000000&lt;0XXX0000&lt;&lt;&lt;&lt;&lt;&lt;&lt;&lt;&lt;&lt;&lt;&lt;&lt;&lt;&lt;&lt;&lt;&lt;&lt;</text><text x="120" y="675" class="txtS">Uso ilustrativo. No reproduce documentos oficiales.</text></svg>