<svg xmlns="http://www.w3.org/2000/svg" width="900" height="700" viewBox="0 0 900 700"><defs><style>.ink,.thin{fill:none;stroke:#000;stroke-width:14;stroke-linecap:round;stroke-linejoin:round}.thin{stroke-width:8}</style></defs><path d="M560 140q25-25 55-20l145 30q40 10 35 50l-35 360q-5 45-50 35l-110-25q-40-10-35-50l35-345q2-20-40-35" class="ink"/><path d="m640 160 95 20m-105 10 110 25" class="thin"/><path d="M210 155q0-40 45-45l265-20q50-2 70 35l40 80q10 20 10 45v295q0 55-55 65l-325 40q-50 5-70-35l-40-80q-10-20-10-45V220q0-45 50-55Z" class="ink"/><path d="M190 175q-15 30-15 55v270q0 35 15 65l40 70m370-495q15 30 15 65v335q0 35-20 55" class="thin"/><text x="250" y="215" style="font-family:Arial,Helvetica,sans-serif;font-weight:900;font-size:72px;fill:#000;letter-spacing:2px">PASSPORT</text><circle cx="395" cy="395" r="120" class="ink"/><path d="M395 275c-55 35-55 205 0 240 55-35 55-205 0-240" class="thin"/><path d="M395 275c-30 35-30 205 0 240m0-240c30 35 30 205 0 240M280 395h230" class="thin"/><path d="M300 345c60 20 130 20 190 0M300 445c60-20 130-20 190 0M235 255q-15 10 0 20m325 25q15 10 0 20M240 585q-15 10 0 20" class="thin"/></svg>