<svg xmlns="http://www.w3.org/2000/svg" width="1536" height="1024" viewBox="0 0 1536 1024"><rect width="100%" height="100%" fill="#fff"/><g fill="#2a0f0f"><path d="m1208 324-44-25-374 391 357-402-45-60-81 130 118-91-415 464 357-521-64-30-84 169 50-189-69-8-36 120-1-138h-75l-24 82-55-83-38 152-28-120-66 6 25 157-50-126-63 24 104 160 17 345-137-482-57 36 97 77 82 323-156-342-83 2 117 87 114 304-236-367-39 43 121 63 114 201-227-239-29 45 155 112-160-55 156 150-45 109 425 82 394-303-30-41-360 164 378-184-10-55-399 244 417-270-21-56-431 340Z"/><path d="m616 510 2 32-2 1v8l4 35-1 17 2 69h2v-17l3-1v-15l-2-1v-2l3-1v-3l-4-1v-3l3-1v-3l-3-1v-11l3-4-7-89-1-9Zm471-118-3 1-16 18-1 3-44 46-1 4h2l64-66ZM858 578h-2l-44 51-8 10v2l-5 2-5 9h3l4-4 2-6 3-1 9-9 2-4 18-19 14-18v-2l9-9Zm142-186h-2v2l-3 2-19 29-9 11-4 8-5 4-2 5h2l3-3 2-5 4-3 17-22Zm15 6-4-1-2 3-6 1-4 6v2h2l1 3-3 3-1 5 4-2 13-18ZM558 605l1 4 2 1v4l7 18 1 8 3 3 2 10h2v-8l-12-31-3-3-1-6Zm384 233-41 4v2l9-1 1 5h5l-2-5 8-1 1 5h2l1-5 16-2Zm139-421h-2l-13 13-2 5-4 1-7 8v2h2l9-9v-2l3-1 14-15Zm-29 401-48 3v2l5 1 7-2 36-2ZM518 412l6 16 3 3 6 14h2v-3l-15-30Zm-37 416-41 6v2l26-3 15-3Zm509 11-46 5v2l46-5Zm-343 8-32 4v2h10l4-2 9 1 1-2 8-1Z"/></g></svg>