<svg xmlns="http://www.w3.org/2000/svg" width="137" height="143" fill="none" viewBox="0 0 137 143"><g fill="#000" clip-path="url(#a)"><path d="M120.6 8.383c.449 11.6.645 22.706 1.355 33.779 1.51 23.515 4.141 46.96 4.506 70.547.086 5.496 0 11.003-.286 16.491a21.1 21.1 0 0 1-1.572 6.12c-1.176 3.151-3.306 4.02-6.332 2.532a48 48 0 0 1-5.698-3.567c-2.311-1.58-4.554-3.259-6.957-4.989q-.862.454-1.662 1.01c-3.971 3.121-7.956 6.222-11.873 9.41-4.115 3.347-7.81 3.386-12.344-.55-2.878-2.5-5.624-5.151-8.443-7.72-.401-.366-.876-.653-1.482-1.098-3.44 2.572-6.834 5.139-10.258 7.662-5.01 3.692-5.077 4.271-12.011.262-4.05-2.34-7.634-5.485-11.61-8.401-4.445 2.641-9.132 5.465-13.857 8.223-5.427 3.169-9.643.925-10.215-5.397-.04-.446-.03-.897-.037-1.346q-.359-28.29-.711-56.577-.283-23.742-.513-47.483c-.05-5.157-.007-10.316-.007-16.02-.788 0-1.844.021-2.9-.005a25.5 25.5 0 0 1-4.681-.25c-.794-.17-1.908-1.076-1.993-1.761a3.73 3.73 0 0 1 1.058-2.864 5.36 5.36 0 0 1 3.12-.968q16.65-.755 33.305-1.369c16.938-.642 33.874-1.35 50.816-1.849 14.026-.411 28.059-.56 42.09-.824a8 8 0 0 1 .673.011c2.731.175 4.441 1.631 4.332 3.684-.105 1.97-1.684 3.244-4.319 3.288-3.68.066-7.364.019-11.494.019m-4.143 119.549c.077-1.497.163-2.167.138-2.833-.632-16.943-1.182-33.889-1.944-50.826-.812-18.054-2.467-36.08-1.313-54.186.239-3.768.035-7.563.035-11.803l-94.96 3.085c.538 39.283 2.277 78.382 2.797 117.838.924-.459 1.531-.713 2.083-1.053 2.197-1.355 4.266-2.964 6.584-4.064 5.167-2.457 8.694-2.954 12.886.944 3.372 3.135 7.685 5.259 11.486 7.77 1.561-1.201 2.744-2.054 3.864-2.985a367 367 0 0 0 5.894-5.028c3.208-2.781 6.534-3.177 10.22-1.136q1.466.833 2.822 1.838c3.072 2.219 6.124 4.465 9.274 6.769 3.91-2.852 7.721-5.621 11.52-8.407 4.335-3.178 7.171-3.281 11.71-.379 2.137 1.366 4.269 2.751 6.904 4.456"/><path d="M44.381 79.789c-3.918 0-7.836.008-11.754-.006a12.8 12.8 0 0 1-2.673-.149c-1.662-.364-2.865-1.296-2.94-3.162a3.125 3.125 0 0 1 2.682-3.363 45 45 0 0 1 5.979-.816c7.244-.629 14.49-1.252 21.744-1.76a19.2 19.2 0 0 1 4.981.419 3.6 3.6 0 0 1 2.96 3.263 3.42 3.42 0 0 1-2.1 3.84 22.7 22.7 0 0 1-6.46 1.486c-4.13.229-8.28.066-12.42.066zm-9.749-34.401c-1.01 0-2.024.045-3.032-.01-2.38-.13-3.873-1.273-4.188-3.15-.328-1.93.932-3.72 3.398-4.31a61 61 0 0 1 7.628-1.29c5.804-.63 11.617-1.217 17.44-1.62 1.778-.135 3.564.12 5.232.749 3.03 1.217 3.38 4.512.671 6.351a11.64 11.64 0 0 1-4.965 1.818c-3.56.434-7.166.479-10.753.69q-5.716.338-11.433.687zM45.89 88.354c2.358 0 4.72-.092 7.069.037a9.7 9.7 0 0 1 3.872.836 4.26 4.26 0 0 1 2.35 3.811 4.27 4.27 0 0 1-2.35 3.812 10.5 10.5 0 0 1-4.21.919c-5.94.276-11.885.459-17.83.59a17 17 0 0 1-4.32-.44c-1.999-.48-3.262-2.078-3.15-3.82.115-1.844 1.036-3.282 2.891-3.7a64 64 0 0 1 7.279-1.232c2.787-.304 5.6-.375 8.401-.547zm-9.046-59.787c-2.015 0-4.033.05-6.046-.022-.988-.035-2.17-.013-2.901-.53a5.64 5.64 0 0 1-2.049-2.783c-.411-1.39.355-2.661 1.686-3.323a9.1 9.1 0 0 1 2.853-.903c4.552-.572 9.11-1.115 13.68-1.527 1.304-.119 2.841-.123 3.927.459a6.37 6.37 0 0 1 2.7 3.077c.58 1.49-.385 3.014-1.75 3.629a20.6 20.6 0 0 1-5.725 1.63c-2.093.273-4.247.062-6.375.062zm-.699 33.603c-2.025-.293-3.491-.388-4.893-.739-1.576-.394-2.672-1.64-2.46-3.18.16-1.171.999-2.892 1.927-3.205 4.373-1.47 8.91-2.246 13.54-1.181a3.14 3.14 0 0 1 2.678 3.037 3.27 3.27 0 0 1-2.433 3.616c-2.905.77-5.905 1.185-8.36 1.651m54.19-17.939c-2.214-.3-4.485-.394-6.616-.985-.994-.278-2.418-1.552-2.39-2.33.038-1.076 1.144-2.228 2.025-3.116.482-.486 1.428-.598 2.19-.705 2.664-.376 5.332-.759 8.012-.985 3.493-.295 6.248 1.287 6.422 3.529.171 2.217-2.297 4.05-5.913 4.314-1.228.09-2.467.014-3.702.014zm.721 51.54c-1.151-.11-3.04-.223-4.91-.486a2.82 2.82 0 0 1-2.582-3.023 2.967 2.967 0 0 1 2.57-3.092c3.633-.598 7.285-1.162 10.953-1.431 2.51-.184 4.214 1.312 4.375 3.224.163 1.938-1.187 3.626-3.653 4.113-1.964.388-3.996.428-6.754.695m-.542-16.088c-1.83-.262-3.396-.398-4.918-.731-1.685-.37-2.854-1.473-2.888-3.243a3.243 3.243 0 0 1 2.745-3.359 72 72 0 0 1 8.26-1.36c2.517-.24 4.4 1.264 4.719 3.347.284 1.857-1.014 3.863-3.226 4.525a37 37 0 0 1-4.692.821m-1.44-19.272a25.7 25.7 0 0 1-4.804-.947c-.811-.295-1.575-1.522-1.792-2.457a2.26 2.26 0 0 1 .363-1.795 2.25 2.25 0 0 1 1.575-.934 68.5 68.5 0 0 1 9.654-.803 3.5 3.5 0 0 1 3.374 3.182c.036 1.453-1.266 2.937-3.252 3.344q-2.547.35-5.118.41"/></g><defs><clipPath id="a"><path fill="#fff" d="M.735.953h135.862v141.77H.735z"/></clipPath></defs></svg>