<svg xmlns="http://www.w3.org/2000/svg" width="88" height="153" fill="none" viewBox="0 0 88 153"><g clip-path="url(#a)"><path fill="#000" d="M56.186 123.391c7.872-2.128 16.863-4.958 23.952-11.644 5.102-4.813 7.533-11.343 6.669-17.918-.86-6.538-4.871-12.186-11.007-15.496a35.5 35.5 0 0 0-9.969-3.484c-3.869-.75-7.821-1.207-11.644-1.65a441 441 0 0 1-4.215-.503V25.757c6.524-.419 11.922.34 16.937 2.38 3.772 1.532 5.416 3.535 5.5 6.694.059.477.268.921.599 1.27q.155.192.29.401a.673.673 0 0 0 1.099.07 6.84 6.84 0 0 0 1.482-5.275 7.05 7.05 0 0 0-2.967-4.797 24.6 24.6 0 0 0-8.27-4.05 100 100 0 0 0-10.431-1.773c-1.23-.165-2.453-.328-3.66-.505v-2.653c-.004-2.626-.008-5.302.013-7.98.006-.735.048-1.491.087-2.223.114-1.41.116-2.825.007-4.234-.11-1.06-1.46-2.945-2.585-2.842a4.27 4.27 0 0 0-3.204 2.28 14.5 14.5 0 0 0-.745 4.195q-.035.478-.079.95c-.303 3.245-.577 6.493-.853 9.78l-.296 3.483-.892.172c-.948.185-1.838.357-2.725.525-11.95 2.214-20.426 6.42-26.674 13.241C7 40.983 4.65 48.906 6.16 56.6c1.488 7.59 6.557 13.936 13.907 17.415a61.4 61.4 0 0 0 10.936 3.616c2.336.605 4.754.984 7.092 1.354q1.274.195 2.543.412v37.083c-11.193-.423-24.332-1.621-37.52-6.902a.67.67 0 0 0-.66.091 2.5 2.5 0 0 0-1.027 1.772 4.04 4.04 0 0 0 1.226 2.909 19.8 19.8 0 0 0 3.963 3.367c5.174 3.315 11.137 5.409 18.232 6.402 3.812.534 7.592.915 11.594 1.32 1.583.16 3.187.323 4.818.497q.001.362-.005.722c-.006.969-.012 1.97.011 2.965.145 5.926.306 12.273.493 18.512.044 1.437.126 4.114 3.108 4.393q.242.023.476.023c2.027 0 3.494-1.287 4.06-3.592.468-1.782.733-3.611.788-5.452.066-4.537.056-9.017.045-13.761l-.009-4.946 1.679-.381c1.478-.335 2.882-.653 4.276-1.028m19.427-19.447a28.7 28.7 0 0 1-6.27 4.702c-6.209 3.52-13.001 5.263-19.472 6.576V80.214l.525.04c6.81.485 13.242.945 19.428 3.367 3.592 1.407 6.092 3.545 7.642 6.54 2.578 4.968 1.902 9.992-1.851 13.783zM42.498 26.313 41.007 72.05c-6.34-.573-12.984-1.566-18.954-4.588-4.973-2.517-8.405-6.643-9.667-11.618-1.28-5.054-.197-10.42 3.059-15.115 5.3-7.65 13.336-10.848 20.498-12.967 1.468-.435 2.965-.731 4.698-1.075.597-.118 1.214-.24 1.859-.374z"/></g><defs><clipPath id="a"><path fill="#fff" d="M.844.047h86.637v152.927H.844z"/></clipPath></defs></svg>