<svg xmlns="http://www.w3.org/2000/svg" width="110" height="157" fill="none" viewBox="0 0 110 157"><g fill="#000" clip-path="url(#a)"><path d="M59.817 86.238v25.673q.49-.232.899-.586C69.82 100.102 81.9 94.341 95.919 92.124c1.883-.298 3.756-.665 5.636-.985 3.538-.597 5.841.956 6.563 4.552a26.9 26.9 0 0 1-.32 11.354c-2.494 11.077-9.373 18.955-18.517 25.072a61.5 61.5 0 0 1-22.801 9.544c-2.074.394-4.214.445-6.742.693a34.5 34.5 0 0 1-.21 5.138 40 40 0 0 1-1.847 6.728 3.25 3.25 0 0 1-3.5 2.116 3.43 3.43 0 0 1-3.242-2.944c-.467-2.182-.728-4.413-.979-6.634a31 31 0 0 1-.02-3.36c-3.085-.433-5.892-.602-8.588-1.244-17.437-4.151-30.694-13.796-38.811-30.003a24.7 24.7 0 0 1-2.112-5.999c-.894-4.355 1.128-8.002 5.42-9.097 13.074-3.335 25.832-2.577 37.842 4.037 2.511 1.383 4.611 3.512 7.245 5.565.864-6.604.93-13.2 1.437-19.89-3.958-.46-7.653-.65-11.25-1.345-15.74-3.043-26.472-11.91-30.493-27.69-2.9-11.375-.818-22.312 4.916-32.479A51 51 0 0 1 27.538 10.83c5.538-4.566 12.172-6.544 18.947-8.21 9.879-2.428 19.664-1.616 29.21 1.467A30.13 30.13 0 0 1 93.32 18.892c5.884 10.895 8.394 22.533 5.886 34.771C95.88 69.885 85.553 79.707 69.81 84.07c-3.22.9-6.543 1.432-9.994 2.168M49.502 8.711c-9.484-.138-14.014 1.552-20.39 8.467-7.573 8.212-12.046 17.862-12.19 29.141-.169 13.245 6.182 26.714 22.91 30.812a53.8 53.8 0 0 0 32.117-2.035c11.116-4.135 17.62-12.313 19.44-24.132 1.424-9.247-.812-17.832-4.777-26.042-3.545-7.346-9.608-11.886-17.483-13.496-6.457-1.32-13.079-1.84-19.627-2.715m.775 125.965c0-4.197.032-8.429-.036-12.66a3.4 3.4 0 0 0-.792-1.772c-1.82-2.416-3.735-4.759-5.543-7.184a21.73 21.73 0 0 0-10.817-7.61 49.8 49.8 0 0 0-21.545-2.341q-1.297.22-2.556.611c5.725 19.062 27.583 31.76 41.289 30.956m49.755-35.515a13.4 13.4 0 0 0-2.049-.094c-6.708.902-13.214 2.48-19.152 5.883-6.512 3.733-12.242 8.319-16.035 14.956a22.3 22.3 0 0 0-3.076 13.546q1.488.1 2.977-.018c13.24-2.195 24.368-8.204 32.585-18.906a22.46 22.46 0 0 0 4.75-15.367"/><path d="M58.937 66.423c-.192 1.614-.304 3.173-.575 4.703-.415 2.34-1.604 3.56-3.328 3.6-1.686.039-2.991-1.137-3.556-3.427-.398-1.616-.604-3.281-.894-4.909-2.494-.86-4.923-1.654-7.319-2.55a11.6 11.6 0 0 1-2.33-1.328c-1.465-.985-2.12-2.385-1.478-4.07.681-1.786 2.297-1.581 3.735-1.285 2.407.496 4.784 1.138 7.696 1.845l.599-12.518c-1.664-.525-3.055-.924-4.418-1.406-7.048-2.487-7.995-8.23-5.137-13.756 1.746-3.376 3.95-5.185 9.823-8.217-.056-1.296-.13-2.716-.178-4.135-.049-1.378.489-2.722 1.87-2.722a4.1 4.1 0 0 1 2.897 1.667c.776 1.156.969 2.701 1.413 4.08 2.333.984 4.72 1.859 6.966 3.01a3.55 3.55 0 0 1 1.627 2.25c.229 1.288-.8 2.041-2.018 2.232-1.969.313-3.952.512-6.053.773-.06.543-.147.966-.148 1.39-.011 3.242-.006 6.485-.006 9.75 1.136.403 1.844.68 2.57.904 1.282.397 2.592.711 3.86 1.148 8.808 3.031 8.755 9.492 5.197 15.423-1.853 3.085-4.695 5.075-7.963 6.47-.915.395-1.864.708-2.852 1.078m-.293-18.837V59.01c3.077-.97 5.344-2.405 6.657-5.063 1.108-2.244.713-3.645-1.486-4.647a49 49 0 0 0-5.17-1.713zm-7.042-16.004c-3.603 1.422-5.558 3.359-5.175 5.37.501 2.63 2.822 2.705 5.175 3.301z"/></g><defs><clipPath id="a"><path fill="#fff" d="M.115.734h108.952v156.208H.115z"/></clipPath></defs></svg>