<svg xmlns="http://www.w3.org/2000/svg" width="166" height="150" fill="none" viewBox="0 0 166 150"><g fill="#000" clip-path="url(#a)"><path d="M136.782 46.9h-.066q-1.256.01-2.512.035h-.107c-1.043.018-2.085.037-3.131.037h-.302a242 242 0 0 0-30.903 2.124c-.826.105-3.34.425-3.451 3.146-.079 1.931 1.254 3.295 3.478 3.559 1.104.113 2.215.137 3.323.072q6.348-.27 12.694-.561l1.129-.05q4.374-.197 8.747-.389.306-.013.623-.017L91.945 81.341l-6.437-5.9c-4.612-4.231-9.38-8.606-14.1-12.879-2.84-2.57-5.294-2.664-7.96-.304l-1.61 1.425c-6.13 5.425-12.467 11.035-18.64 16.615-6.8 6.142-13.514 12.363-18.603 17.096a20 20 0 0 0-3.004 3.592 3.23 3.23 0 0 0 .553 4.25 3.32 3.32 0 0 0 2.327 1 3.5 3.5 0 0 0 1.611-.417l.407-.21a10.6 10.6 0 0 0 2.021-1.237l1.496-1.246c3.393-2.831 6.901-5.76 10.27-8.743a4784 4784 0 0 0 19.419-17.32l.111-.1q3.686-3.301 7.39-6.611l.303.225q.575.41 1.106.875l3.973 3.68c5.09 4.71 10.353 9.583 15.483 14.417 2.803 2.643 4.937 2.822 7.87.67.47-.345.923-.714 1.387-1.092l.102-.083c.272-.22.542-.441.82-.656a51863 51863 0 0 1 30.868-23.925c.547-.423 1.12-.827 1.723-1.247a4167 4167 0 0 1-2.152 8.321l-.237.914q-1.162 4.478-2.314 8.954l-.088.34a10.2 10.2 0 0 0-.454 2.729 4.731 4.731 0 0 0 8.668 2.52 9.1 9.1 0 0 0 1.228-2.953 3967 3967 0 0 0 6.572-30.885c.382-1.829.099-3.386-.818-4.503-.943-1.147-2.483-1.754-4.454-1.754"/><path d="M165.053 90.86c-.573-13.728-1.154-25.716-1.778-36.648-.428-7.498-1.038-17.364-1.969-27.192-1.354-14.341-12.889-24.72-28.052-25.24-11.223-.387-22.643-.549-33.692-.705-3.15-.044-6.349-.017-9.443.01-5.077.042-10.327.088-15.464-.185C62.987.286 50.615.8 34.553 2.575 24.103 3.73 16.24 6.802 9.804 12.243c-5.305 4.484-7.89 9.684-7.904 15.9a173 173 0 0 1-.12 6.028c-.066 1.76-.187 3.56-.303 5.299a87 87 0 0 0-.266 11.2q.15 2.334.303 4.67c.797 12.198 1.621 24.81.784 37.257-.345 5.134-.25 10.37-.16 15.43l.02 1.12c.153 8.686 1.423 16.32 3.884 23.338 2.654 7.573 7.807 12.178 15.316 13.686a90 90 0 0 0 14.102 1.786c8.822.36 17.796.56 26.475.754q5.292.119 10.584.247h.013a.56.56 0 0 0 .328-.11h9.792l3.702.006c14.614.03 29.722.06 44.474-2.253 5.144-.806 11.153-1.932 16.722-4.17 11.172-4.49 17.201-12.77 17.918-24.608.46-7.61.114-15.269-.224-22.675a2014 2014 0 0 1-.191-4.289M11.793 82.56c-.183-7.945-.584-16.49-1.26-26.891-.535-8.214-.86-19.042 1.398-30.017.052-.15.074-.309.065-.467-.525-6.166 3.88-8.58 8.539-11.136l.162-.089c4.52-2.48 9.525-3.343 14.264-4.014a232 232 0 0 1 32.542-1.97c4.533 0 9.004.075 13.39.168 7.973.167 16.08.276 23.918.382 6.842.091 13.915.187 20.872.32 3.224.04 6.441.315 9.625.824 11.444 1.907 17.774 9.348 18.305 21.519.435 9.99.835 20.15 1.222 29.977q.436 11.066.889 22.132c.11 2.66.263 5.363.41 7.974.231 4.102.469 8.344.554 12.513.099 4.936-.174 9.982-.46 14.727-.42 6.919-4.445 11.833-11.963 14.606a70.7 70.7 0 0 1-14.2 3.391c-16.295 2.429-33.019 2.32-49.19 2.218l-2.137-.014q-1.257-.006-2.515 0H75.03a.68.68 0 0 0-.542.273q-5.316-.136-10.633-.262c-10.348-.255-21.046-.518-31.566-.864a52.6 52.6 0 0 1-8.055-1.115l-.485-.093c-4.446-.853-7.421-3.598-8.841-8.165a74.9 74.9 0 0 1-3.202-22.019c-.024-3.413.025-6.88.072-10.239.057-4.48.122-9.111.017-13.669"/></g><defs><clipPath id="a"><path fill="#fff" d="M.951.424h164.741v148.989H.952z"/></clipPath></defs></svg>