<svg xmlns="http://www.w3.org/2000/svg" width="167" height="150" fill="none" viewBox="0 0 167 150"><g fill="#000" clip-path="url(#a)"><path d="M141.059 96.104a4043 4043 0 0 0-6.405-30.108 10.5 10.5 0 0 0-1.386-3.448 4.72 4.72 0 0 0-8.571 2.428 9.5 9.5 0 0 0 .371 2.877q1.106 4.207 2.239 8.41 1.138 4.246 2.262 8.496c.132.498.222 1.026.314 1.614l-.065-.047q-2.784-2.071-5.576-4.135l-.418-.31c-4.824-3.567-9.812-7.256-14.645-10.974-2.811-2.162-5.575-4.451-8.248-6.666a446 446 0 0 0-5.558-4.553c-3.113-2.494-5.285-2.368-8.302.481-5.404 5.1-10.917 10.187-16.248 15.106L67.6 78.25q-.539.464-1.144.84l-.094.062a1201 1201 0 0 0-3.526-3.044c-3.003-2.59-5.841-5.036-8.73-7.61-2.9-2.584-5.829-5.23-8.663-7.793l-.088-.08c-3.72-3.36-7.935-7.17-12.028-10.772a84 84 0 0 0-7.13-5.424l-.554-.394a3.32 3.32 0 0 0-4.516.468 3.43 3.43 0 0 0-.276 4.508 20.8 20.8 0 0 0 2.927 3.31c4.292 3.987 9.372 8.687 14.5 13.307 3.784 3.408 7.645 6.855 11.38 10.19l.093.08a3655 3655 0 0 1 12.095 10.83c3.385 3.054 5.644 3.072 8.95.071 4.528-4.107 9.1-8.31 13.52-12.374q3.233-2.973 6.468-5.942a5 5 0 0 1 .248-.209l34.289 26.443q-3.465-.132-6.93-.275-6.032-.24-12.065-.465l-.233-.008c-2.461-.09-5.006-.182-7.527-.074a3.207 3.207 0 0 0-3.158 3.27c-.087 1.782 1.116 3.08 3.058 3.306 1.1.126 2.2.262 3.299.394 3.776.459 7.679.933 11.552 1.144 5.357.292 10.791.419 16.056.542q3.009.071 6.018.151c.117 0 .23.005.343.005 2.097 0 3.63-.561 4.556-1.669.955-1.134 1.215-2.798.768-4.934"/><path d="M164.9 90.86c-.573-13.728-1.154-25.716-1.778-36.648-.427-7.498-1.037-17.364-1.965-27.192-1.354-14.341-12.889-24.72-28.052-25.24-11.223-.387-22.643-.549-33.692-.705-3.15-.044-6.35-.017-9.445.01-5.077.042-10.326.088-15.463-.185C62.838.286 50.466.8 34.404 2.575 23.954 3.73 16.091 6.802 9.653 12.243c-5.304 4.484-7.89 9.684-7.903 15.9a173 173 0 0 1-.12 6.028c-.066 1.76-.187 3.56-.303 5.299a87 87 0 0 0-.263 11.2q.149 2.334.302 4.67c.798 12.198 1.622 24.81.788 37.257-.345 5.134-.25 10.37-.16 15.43l.02 1.12c.154 8.686 1.423 16.32 3.884 23.338 2.654 7.573 7.807 12.178 15.316 13.686a90 90 0 0 0 14.101 1.786c8.823.36 17.796.56 26.475.754q5.293.119 10.585.247h.013a.56.56 0 0 0 .328-.11h9.792l3.7.006c14.615.03 29.723.06 44.475-2.253 5.144-.806 11.153-1.932 16.721-4.17 11.172-4.49 17.202-12.77 17.919-24.608.459-7.61.113-15.269-.225-22.675q-.104-2.144-.198-4.289M11.642 82.56c-.184-7.945-.585-16.49-1.262-26.891-.535-8.214-.86-19.042 1.398-30.017.053-.15.075-.309.066-.467-.522-6.166 3.879-8.58 8.538-11.136l.162-.089c4.52-2.48 9.525-3.343 14.265-4.014a232 232 0 0 1 32.542-1.97c4.533 0 9.003.075 13.389.168 7.973.167 16.08.276 23.919.382 6.842.091 13.914.187 20.872.32 3.223.04 6.44.315 9.624.824 11.445 1.907 17.774 9.348 18.305 21.519.435 9.99.835 20.15 1.222 29.977q.436 11.066.889 22.132c.111 2.66.263 5.363.41 7.974.231 4.102.47 8.344.554 12.513.1 4.936-.174 9.982-.46 14.727-.42 6.919-4.446 11.833-11.963 14.606a70.7 70.7 0 0 1-14.2 3.391c-16.295 2.429-33.019 2.32-49.19 2.218l-2.137-.014q-1.259-.006-2.515 0h-1.194a.68.68 0 0 0-.543.273q-5.316-.136-10.632-.262c-10.348-.255-21.047-.518-31.566-.864a52.6 52.6 0 0 1-8.056-1.115l-.484-.093c-4.447-.853-7.422-3.598-8.842-8.165a75 75 0 0 1-3.202-22.019c-.023-3.413.025-6.88.072-10.239.059-4.48.123-9.111.019-13.669"/></g><defs><clipPath id="a"><path fill="#fff" d="M.704.424H166.1v148.989H.704z"/></clipPath></defs></svg>