<svg xmlns="http://www.w3.org/2000/svg" width="154" height="76" fill="none" viewBox="0 0 154 76"><g clip-path="url(#a)"><path fill="#000" d="M4.657 11.254c5.422 5.039 11.845 10.981 18.368 16.857 4.831 4.353 9.764 8.755 14.534 13.012 5.03 4.49 10.234 9.133 15.326 13.724 4.13 3.726 6.751 3.75 10.782.091 5.734-5.2 11.526-10.526 17.13-15.676q4.098-3.767 8.197-7.53.285-.256.596-.48l44.722 34.488h-.122a4170 4170 0 0 1-9.954-.394q-7.641-.305-15.285-.59l-.295-.011c-3.115-.112-6.335-.23-9.504-.093a3.666 3.666 0 0 0-3.604 3.746c-.1 2.055 1.247 3.493 3.507 3.756q2.093.241 4.182.5c4.779.58 9.72 1.18 14.608 1.443 6.768.37 13.655.531 20.317.687q3.82.09 7.641.19.214.007.421.007c2.53 0 4.364-.66 5.454-1.965 1.127-1.347 1.425-3.337.888-5.913a5221 5221 0 0 0-8.114-38.144 12.8 12.8 0 0 0-1.7-4.23 5.56 5.56 0 0 0-6.066-2.136 5.56 5.56 0 0 0-4.028 5.015 11.6 11.6 0 0 0 .456 3.515q1.4 5.33 2.837 10.653 1.443 5.381 2.867 10.767.325 1.361.506 2.748l.042.28a18 18 0 0 1-.883-.603q-3.747-2.79-7.506-5.564c-6.142-4.542-12.493-9.237-18.648-13.971-3.549-2.731-7.064-5.645-10.462-8.456a551 551 0 0 0-7.037-5.764c-3.782-3.03-6.301-2.881-9.977.587-6.814 6.432-13.817 12.893-20.589 19.143l-4.082 3.768q-.707.613-1.502 1.106-.191.124-.382.252a1988 1988 0 0 0-4.705-4.063c-3.822-3.295-7.432-6.407-11.066-9.648a1951 1951 0 0 1-11.092-9.977c-4.973-4.494-10.116-9.14-15.235-13.645a106 106 0 0 0-9-6.845l-.7-.497a3.81 3.81 0 0 0-5.181.539 3.95 3.95 0 0 0-.31 5.19 26 26 0 0 0 3.649 4.13"/></g><defs><clipPath id="a"><path fill="#fff" d="M.144.179H153.07v74.823H.144z"/></clipPath></defs></svg>