<svg xmlns="http://www.w3.org/2000/svg" width="155" height="76" fill="none" viewBox="0 0 155 76"><g clip-path="url(#a)"><path fill="#000" d="M5.237 74.981a4 4 0 0 0 1.851-.482l.517-.267a13 13 0 0 0 2.484-1.515l1.885-1.576c4.3-3.589 8.746-7.298 13.012-11.076 8.262-7.317 16.641-14.818 24.744-22.071q4.796-4.294 9.616-8.604.351.264.657.488.748.53 1.436 1.138l4.94 4.574c6.48 5.998 13.18 12.2 19.715 18.358 3.413 3.216 5.88 3.428 9.44.817a43 43 0 0 0 1.741-1.372c.39-.316.777-.634 1.174-.942a79711 79711 0 0 1 39.113-30.313c.803-.621 1.628-1.194 2.584-1.857l.46-.322q.007.171-.03.338a4649 4649 0 0 1-2.974 11.51 6676 6676 0 0 0-3.162 12.233l-.11.42a12.7 12.7 0 0 0-.564 3.358 5.58 5.58 0 0 0 4.019 5.234 5.58 5.58 0 0 0 6.2-2.261 11.1 11.1 0 0 0 1.497-3.606c2.309-10.68 5.342-24.779 8.327-39.131.46-2.188.128-4.04-.951-5.356-1.11-1.354-2.945-2.07-5.316-2.07h-.082q-1.59.016-3.179.046c-1.369.024-2.738.048-4.106.048h-.387a306 306 0 0 0-39.101 2.691c-1.668.213-3.898.818-4.011 3.591-.09 2.21 1.457 3.773 4.039 4.08 1.376.14 2.762.169 4.143.088q8.041-.344 16.081-.71 6.257-.281 12.513-.556a37 37 0 0 1 2.025-.02L90.704 44.398l-1.176-1.072q-3.605-3.3-7.204-6.606c-5.854-5.371-11.906-10.925-17.898-16.348-3.452-3.124-6.301-3.24-9.531-.384l-1.869 1.655c-7.82 6.921-15.907 14.079-23.789 21.2C20.64 50.607 12.13 58.494 5.675 64.501a25 25 0 0 0-3.741 4.476 3.697 3.697 0 0 0 .644 4.858c.7.718 1.656 1.13 2.659 1.145"/></g><defs><clipPath id="a"><path fill="#fff" d="M.735.179h153.583v74.823H.735z"/></clipPath></defs></svg>