<svg xmlns="http://www.w3.org/2000/svg" width="161" height="118" fill="none" viewBox="0 0 161 118"><g fill="#000" clip-path="url(#a)"><path d="M83.486 116.738c-17.25-.357-30.729-.467-44.192-.978-7.725-.293-15.442-1.083-23.127-1.965a33.7 33.7 0 0 1-8.356-2.415c-4.091-1.616-6.345-4.857-6.965-9.189a29 29 0 0 1-.359-4.692q.347-16.665.8-33.332.377-14.307.835-28.61c.177-5.371.318-10.75.74-16.104.572-7.25 3.976-12.525 11.254-14.702a31.6 31.6 0 0 1 6.2-1.472c8.155-.708 16.32-1.57 24.495-1.753Q76.465.82 108.131.688c10.67-.158 21.337.481 31.912 1.914A82 82 0 0 1 149.9 4.69a10.98 10.98 0 0 1 8.133 8.19 29.7 29.7 0 0 1 1.181 6.592c.347 11.894.685 23.792.744 35.69.066 13.48-.571 26.941-3.355 40.177-.919 4.358-2.535 8.574-3.913 12.829-.876 2.703-3.07 4.027-5.588 4.929-4.916 1.76-10.042 2.385-15.205 2.578-17.39.65-34.777 1.537-48.412 1.063m66.667-42.92a11 11 0 0 0-1.444-.19c-7.96.422-15.918 1.131-23.881 1.208a283 283 0 0 1-24.213-.82c-6.815-.521-9.928-3.676-11.573-10.277-1.302-5.23-1.087-10.51-.228-15.72 1.108-6.715 3.908-9.42 10.729-10.715a125.3 125.3 0 0 1 25.098-2.408c7.413.099 14.825.218 22.238.3 1.177.014 2.357-.121 3.959-.212-.355-6.08-.621-11.782-1.05-17.47-.187-2.474-1.501-4.11-4.179-4.48-5.217-.723-10.401-2.013-15.633-2.232-13.459-.568-26.937-.912-40.408-.913-15.611 0-31.223.416-46.832.743-4.704.099-9.41.404-14.098.802-3.46.293-6.904.826-10.336 1.368-4.989.787-7.554 4.236-8.558 8.753a51.2 51.2 0 0 0-1.155 10.683c-.15 21.675-.154 43.35-.201 65.026 0 .787 0 1.575.065 2.357.214 2.452 1.258 4.274 3.817 4.931 1.409.361 2.785.898 4.214 1.127 9.111 1.465 18.303 1.844 27.516 2.041 29.76.636 59.52 1.458 89.262-.639 3.814-.268 7.557-.704 10.91-2.245 3.987-10.064 5.419-20.33 5.981-31.019m.424-31.542c-10.381.275-20.478.338-30.553.882-6.366.345-12.713 1.288-19.034 2.197-3.205.46-3.986 1.278-4.171 4.314a93 93 0 0 0-.012 12.088c.247 3.586 1.148 4.247 4.825 4.887 1.325.23 2.662.403 4.001.536 11.223 1.115 22.436.281 33.65-.132 3.772-.14 7.535-.525 11.19-.787 1.061-4.512 1.071-20.046.103-23.985z"/><path d="M112.146 48.305c4.314-.853 7.023 3.119 7.004 6.659-.022 4.01-2.932 6.936-7.023 7.017-4.307.086-8.085-3.202-7.985-6.95.103-3.938 3.426-6.729 8.004-6.726"/></g><defs><clipPath id="a"><path fill="#fff" d="M.144.424H160.29v116.828H.144z"/></clipPath></defs></svg>