<svg xmlns="http://www.w3.org/2000/svg" width="159" height="155" fill="none" viewBox="0 0 159 155"><path fill="#000" d="M107.161 91.88c2.128.593 4.491.805 6.297 1.919 1.091.672 2.09 3.004 1.716 4.115s-2.723 2.516-3.836 2.248a16.42 16.42 0 0 0-13.537 2.306 26.53 26.53 0 0 0-10.353 13.377c-.677 1.828-1.03 4.436-3.87 3.595-2.762-.817-2.214-3.395-1.876-5.446 1.85-11.195 14.129-21.653 25.459-22.113m1.573-31.481c-.7 1.81-1.076 3.619-2.02 5.054-2.121 3.22-6.84 3.02-8.073-.583-.917-2.678-.784-5.881-.388-8.75.139-1.008 2.449-2.385 3.771-2.388a7.56 7.56 0 0 1 4.8 2.064c1.066 1.035 1.275 2.953 1.91 4.603m-63.086 3.38c.013-3.991 1.867-6.762 4.544-6.791 2.454-.026 4.75 2.895 4.956 6.307.207 3.443-2.1 6.358-5.053 6.382-2.877.024-4.46-2.075-4.447-5.898m4.88-25.987c1.671 1.28 2.889 2.21 4.106 3.14-.948.963-1.734 2.348-2.886 2.81a113 113 0 0 1-10.813 3.588c-.594.171-2.103-.636-2.092-.957.037-1.224.147-3.111.907-3.533 3.355-1.864 6.945-3.304 10.778-5.048m57.033-3.873c2.97 1.35 6.045 2.523 8.845 4.164.774.453.732 2.297 1.064 3.503-1.189.313-2.486 1.097-3.547.854a101 101 0 0 1-10.141-3.02 2.72 2.72 0 0 1-1.601-1.814 2.64 2.64 0 0 1 1.17-2.133c1.151-.573 2.524-.686 3.806-.99z"/><path fill="#000" d="M2.956 55.903c-7.01 27.55-.872 51.856 18.257 72.251a79 79 0 0 0 1.514 1.562c10.275 10.275 23.073 16.619 33.215 21.034 4.352 1.901 26.686 4.209 32.728 3.309 35.912-5.362 59.544-25.617 67.775-59.503a86.7 86.7 0 0 0 2.332-20.258c.038-16.07-6.728-34.75-20.68-48.741a279 279 0 0 1-4.252-3.611c-3.003-2.58-6.105-5.253-9.351-7.531C99.696-3.038 73.931-3.136 47.917 6.119 24.364 14.489 9.238 31.244 2.956 55.903m45.061-41.537c22.825-9.485 45.727-11.16 68.064 3.047 4.084 2.6 14.973 11.4 16.687 12.722l.11.082.091.1c8.714 9.242 18.692 26.138 18.472 43.508a88.7 88.7 0 0 1-2.992 21.992c-5.674 20.623-19.239 35.653-41.471 45.933-22.6 10.821-55.01-.119-63.634-5.812a100.7 100.7 0 0 1-24.655-23.966c-10.64-15.063-13.027-36.715-7.31-56.51a64.18 64.18 0 0 1 36.639-41.096"/></svg>