<svg xmlns="http://www.w3.org/2000/svg" width="112" height="170" fill="none" viewBox="0 0 112 170"><g fill="#000" clip-path="url(#a)"><path d="M109.448 91.939c-1.91-5.178-6.547-7.958-12.108-7.256a19.4 19.4 0 0 0-4.81 1.5c-.646.262-1.309.532-1.986.778-2.619-5.796-7.779-8.376-15.367-7.676q.001-.37.005-.695a36 36 0 0 0-.01-1.65q-.158-4.13-.296-8.261C74.642 61.905 74.4 54.902 74 48.02c-.41-7.045-2.217-12.812-5.522-17.631-2.646-3.858-6.868-4.985-11.016-2.94a10.62 10.62 0 0 0-5.129 5.01c-.842 1.79-1.575 3.667-2.282 5.482q-.352.9-.708 1.8l-.445-.703a28 28 0 0 0-1.969-2.861c-2.434-2.967-5.506-3.65-9.13-2.027a9.69 9.69 0 0 0-5.532 6.347 21.4 21.4 0 0 0-.853 4.698 515 515 0 0 1-.22 3.256c-.291 4.225-.59 8.593-.585 12.896.013 8.845.15 17.493.293 26.648q.083 5.098.155 10.256l-.135-.122q-.6-.562-1.26-1.05c-6.958-4.923-14.327-6.55-21.897-4.844-3.914.883-6.219 3.526-6.849 7.856-.8 5.507 2.4 8.941 5.275 11.317a50.9 50.9 0 0 1 13.038 16.329c4.77 9.28 9.902 18.246 13.84 25.023a21.9 21.9 0 0 0 5.262 5.747 48.6 48.6 0 0 0 13.898 7.643 41.1 41.1 0 0 0 14.474 2.629 50.3 50.3 0 0 0 17.057-3.194 36.7 36.7 0 0 0 11.052-6.534c5.923-4.91 10.05-11.617 12.617-20.507a111.8 111.8 0 0 0 4.31-36.389 34.7 34.7 0 0 0-2.29-10.216m-72.132 14.396c-.122-7.177-.277-14.755-.504-24.573-.044-1.885-.115-3.77-.188-5.656-.14-3.66-.284-7.444-.206-11.158.139-6.735.574-13.414 1.085-20.82.237-3.431.849-4.322 4.044-5.697 2.111 1.394 3.419 3.67 3.994 6.951a145 145 0 0 1 1.831 14.965c.435 6.26.765 12.635 1.086 18.8.186 3.589.372 7.177.579 10.764.071 1.233.351 2.044.834 2.412.781.596 2.077 1.235 3.145 1.067.853-.131 1.86-1.52 1.923-2.395a50.6 50.6 0 0 0 .014-8.13c-1.157-12.97-.247-25.747.966-39.905a22.5 22.5 0 0 1 1.624-5.818q.215-.567.42-1.129a6.3 6.3 0 0 1 1.746-2.231c.832-.749 1.522-1.066 2.047-.948.49.111.926.626 1.299 1.53l.106.262c1.269 3.079 2.58 6.262 3.102 9.501a102.5 102.5 0 0 1 1.356 15.691c.037 7.107-.193 14.337-.415 21.331q-.099 3.134-.193 6.264a26 26 0 0 1-.259 2.65q-.198 1.34-.262 2.694c-.045 1.48.333 2.54 1.122 3.15s1.927.719 3.361.303a4.83 4.83 0 0 0 3.596-4.086c.172-1.034.263-2.092.356-3.114.056-.642.112-1.282.188-1.92.247-2.085 1.358-3.034 3.482-2.979a7.26 7.26 0 0 1 6.616 5.207c.279 1.18.454 2.383.525 3.593q.042.505.091 1.006.04.55.01 1.099c-.071.67-.002 1.35.204 1.992.325.797 1.162 2.22 2.245 2.504.752.197 1.807-.174 3.14-1.098.421-.354.744-.81.937-1.325q.172-.38.394-.73c.257-.38.505-.768.754-1.156a19 19 0 0 1 2.122-2.9c1.272-1.333 2.715-1.965 4.052-1.784 1.337.18 2.537 1.158 3.395 2.756a22.7 22.7 0 0 1 2.914 12.121c-.374 6.6-.999 13.381-1.911 20.732a54.8 54.8 0 0 1-5.788 18.046c-3.596 7.123-9.616 11.945-18.405 14.736-12.674 4.027-25.124 1.823-37.004-6.551a11.9 11.9 0 0 1-3.054-2.914 104 104 0 0 1-5.67-9.099 363 363 0 0 1-7.9-15.588c-4.004-8.371-9.118-14.964-15.64-20.149a11.4 11.4 0 0 1-2.744-3.189 2.6 2.6 0 0 1-.31-2.117 3.1 3.1 0 0 1 1.796-1.762 9.9 9.9 0 0 1 4.092-.862c.765.002 1.529.077 2.28.221 5.732 1.072 9.575 3.205 12.091 6.715a17.4 17.4 0 0 1 2.024 4.482q.209.612.426 1.213c.561 1.539 1.346 2.965 3.276 2.977 1.72-.01 2.938-1.041 3.393-2.888a12 12 0 0 0 .372-3.064z"/><path d="M86.811 71.447a14.4 14.4 0 0 0 5.638-2.26c6.834-4.568 11.88-11.296 15.424-20.568a33.84 33.84 0 0 0-.905-26.839C102.909 13.007 95.429 5.988 86.96 3.004 81.573 1.106 75.842.47 68.93 1.005c-12.46.965-20.593 4.767-26.343 12.322l-.377-.069a18 18 0 0 0-1.138-.187 60 60 0 0 1-2.997-.468 26.5 26.5 0 0 0-6.715-.586C17.237 13.243 7.28 21.585 3.32 35.504.708 44.693.976 54.25 4.116 63.914a23.18 23.18 0 0 0 8.738 11.911c2.29 1.64 4.472 2.45 6.62 2.45a8.6 8.6 0 0 0 1.854-.202 2.95 2.95 0 0 0 1.99-1.939c.157-.919-.739-2.042-1.132-2.483a3.5 3.5 0 0 0-1.575-.827q-.185-.06-.363-.122c-2.53-.898-4.674-2.554-6.95-5.369-2.736-3.384-3.64-7.464-4.331-11.354-1.977-11.122-.42-20.347 4.756-28.203 5.77-8.759 17.84-12.625 27.481-8.801 3.467 1.374 4.346 1.123 6.276-1.802a19.5 19.5 0 0 1 9.276-7.73c9.128-3.533 17.59-4.237 25.86-2.15 7.553 1.903 14.152 7.185 18.105 14.487 3.737 6.901 4.529 14.783 2.176 21.625-3.123 9.08-7.957 15.774-14.774 20.469-1.452.92-2.72 2.1-3.741 3.482a2.74 2.74 0 0 0-.193 3.029 2.51 2.51 0 0 0 2.623 1.062"/><path d="M81.648 46.108c-.47.894-.958 1.819-1.36 2.768a2.98 2.98 0 0 0 .966 3.73c1.29.968 2.788.83 4.11-.38a9.8 9.8 0 0 0 1.938-2.438c6.284-11.314 3.066-23.244-8.2-30.394-8.487-5.386-24.439-3.359-31.197 3.923-3.573-.73-8.233-1.368-12.945-.066-13.921 3.847-21.116 16.745-17.905 32.095a18 18 0 0 0 1.485 4.175c.747 1.547 1.762 2.325 3.027 2.325a3.8 3.8 0 0 0 1.182-.202l.13-.043.067-.122c.846-1.627.641-3.287.443-4.894a24 24 0 0 1-.155-1.52c-.04-.686-.087-1.373-.131-2.06a52.5 52.5 0 0 1-.155-7.607c.486-6.218 3.62-11.224 9.316-14.869 4.756-3.046 9.745-3.66 14.827-1.822 2.774 1.004 3.33.448 5.173-1.39l.094-.094c1.903-1.897 3.627-3.096 5.271-3.665a35.7 35.7 0 0 1 9.107-1.789c6.934-.489 14.881 5.006 17.058 11.768 1.109 3.443.668 6.976-1.387 11.116q-.38.731-.759 1.455"/></g><defs><clipPath id="a"><path fill="#fff" d="M.328.54h111.577v168.68H.328z"/></clipPath></defs></svg>