<svg xmlns="http://www.w3.org/2000/svg" width="125" height="150" fill="none" viewBox="0 0 125 150"><g fill="#000" clip-path="url(#a)"><path d="m6.425 91.794.58.517a52.1 52.1 0 0 1 11.779 14.813c4.123 7.913 8.805 16.382 14.312 25.89a21.7 21.7 0 0 0 5.258 5.745 48.5 48.5 0 0 0 13.895 7.639 41.1 41.1 0 0 0 14.488 2.632 50.4 50.4 0 0 0 17.043-3.186 36.7 36.7 0 0 0 11.054-6.522c5.927-4.906 10.057-11.606 12.625-20.485a111.7 111.7 0 0 0 4.315-36.356 34.7 34.7 0 0 0-2.286-10.208c-1.907-5.175-6.532-7.962-12.097-7.264-1.663.287-3.282.79-4.816 1.495-.645.262-1.31.53-1.987.775-2.7-5.853-7.87-8.418-15.375-7.628q.001-.38.005-.712c.005-.626.009-1.138-.01-1.65q-.16-4.138-.296-8.278c-.234-6.76-.475-13.748-.876-20.615-.412-7.046-2.216-12.81-5.514-17.618-2.75-4.01-7.396-5.13-11.299-2.725a14.76 14.76 0 0 0-4.771 4.778 32 32 0 0 0-2.403 5.473 100 100 0 0 1-.67 1.8q-.22-.343-.44-.693a28 28 0 0 0-1.964-2.851c-2.442-2.98-5.513-3.667-9.123-2.038-3.216 1.45-5.175 3.882-5.66 7.034-.387 2.523-.567 5.114-.743 7.62-.08 1.14-.16 2.28-.257 3.418-1.105 12.782-.586 25.766-.085 38.323l.095 2.384c.05 1.288.038 2.591.024 3.971q-.007.67-.012 1.371l-.224-.197c-.46-.397-.853-.74-1.277-1.045-6.588-4.758-13.62-6.464-20.901-5.067a9.7 9.7 0 0 0-7.458 5.973 10.35 10.35 0 0 0 1.575 9.928 24.4 24.4 0 0 0 3.496 3.559m30.93-5.138c-.15-8.795-.339-17.345-.504-24.547-.044-1.907-.116-3.816-.187-5.724-.139-3.741-.283-7.614-.206-11.411.124-6.161.542-12.423.945-18.479l.132-1.988c.225-3.402 1.435-5.12 4.04-5.71 2.111 1.37 3.42 3.641 4.004 6.938a144 144 0 0 1 1.837 14.952c.436 6.265.767 12.644 1.087 18.813.185 3.575.37 7.154.577 10.725.071 1.233.349 2.045.827 2.412a4.68 4.68 0 0 0 3.14 1.08c.86-.132 1.872-1.51 1.936-2.385.223-2.703.229-5.42.016-8.123-1.16-12.954-.25-25.721.962-39.872a22.5 22.5 0 0 1 1.62-5.814q.216-.566.42-1.128a6.3 6.3 0 0 1 1.742-2.231c.832-.751 1.525-1.073 2.054-.953.492.112.927.621 1.296 1.516l.158.384c1.253 3.036 2.548 6.174 3.052 9.366a107 107 0 0 1 1.361 16.015c.042 6.994-.19 14.11-.413 20.993q-.1 3.118-.197 6.235-.063 1.33-.259 2.648c-.116.878-.236 1.786-.263 2.69-.045 1.484.329 2.548 1.116 3.16.788.614 1.919.719 3.354.31a4.81 4.81 0 0 0 3.607-4.075c.174-1.039.269-2.1.36-3.131.055-.633.11-1.267.185-1.898.249-2.114 1.32-3.04 3.47-2.99a7.255 7.255 0 0 1 6.625 5.193 21 21 0 0 1 .525 3.596q.043.5.092.997.04.55.009 1.1a4.8 4.8 0 0 0 .203 1.987c.322.799 1.155 2.226 2.231 2.513.754.197 1.809-.166 3.147-1.085a3.2 3.2 0 0 0 .939-1.324q.17-.378.394-.728c.256-.379.504-.767.752-1.155a19 19 0 0 1 2.121-2.9c1.27-1.334 2.71-1.969 4.057-1.79 1.33.179 2.534 1.153 3.392 2.744a22.2 22.2 0 0 1 2.913 12.103c-.532 7.89-1.461 15.853-2.29 22.699-.722 5.963-3.14 11.457-5.411 16.045-3.514 7.102-9.528 11.922-18.385 14.735-12.69 4.03-25.138 1.83-37.001-6.539a13.2 13.2 0 0 1-3.266-3.175 94 94 0 0 1-5.472-8.817 371 371 0 0 1-7.899-15.575c-3.997-8.36-9.111-14.945-15.635-20.13a11.5 11.5 0 0 1-2.75-3.184 2.6 2.6 0 0 1-.31-2.121 3.1 3.1 0 0 1 1.781-1.761 9.95 9.95 0 0 1 4.106-.865c.76.002 1.52.076 2.266.218 5.729 1.065 9.572 3.195 12.095 6.701a17.4 17.4 0 0 1 2.035 4.496q.205.602.418 1.191c.56 1.54 1.345 2.967 3.266 2.988 1.685.015 2.945-1.028 3.402-2.872.259-1 .387-2.03.382-3.063m49.032-69.811c1.914.14 3.895.212 6.056.218 5.25.017 10.502.015 15.827.012h5.468l-.363.478-1.629 2.151a149 149 0 0 1-1.195 1.572c-1.016 1.329-2.066 2.703-3.034 4.104-1.072 1.55-.992 3.03.219 4.062.377.35.868.552 1.383.565a4.06 4.06 0 0 0 2.259-1.064l.086-.065q.434-.333.78-.757a906 906 0 0 1 2.888-3.467c2.449-2.93 4.981-5.959 7.385-9.009 1.14-1.444 1.566-2.523 1.378-3.495-.191-1.007-1.018-1.872-2.763-2.888a1833 1833 0 0 1-9.631-5.65l-3.992-2.347a4 4 0 0 1-.334-.234 1.6 1.6 0 0 0-1.011-.45l-.187.015c-.864.06-1.94.137-2.418.733-.502.626-.468 1.977-.101 2.766a5.45 5.45 0 0 0 2.028 1.954 339 339 0 0 0 5.644 3.668q.964.618 1.928 1.239l-4.638.252c-3.765.18-7.53.359-11.295.562l-1.063.058c-3.182.17-6.475.345-9.695.713a3.22 3.22 0 0 0-2.221 2.085 1.57 1.57 0 0 0 .239 1.32 2.68 2.68 0 0 0 2.002.9"/></g><defs><clipPath id="a"><path fill="#fff" d="M.291.23h124.048v148.99H.291z"/></clipPath></defs></svg>