<svg xmlns="http://www.w3.org/2000/svg" width="132" height="146" fill="none" viewBox="0 0 132 146"><g fill="#000" clip-path="url(#a)"><path d="M128.798 68.56c-2.067-5.695-7.28-8.61-13.277-7.43a16.5 16.5 0 0 0-4.065 1.594c-.52.257-1.054.525-1.599.767-1.061-2.288-2.845-5.285-6.195-6.428a42 42 0 0 0-6.505-1.47 119 119 0 0 1-2.738-.494v-.254a32 32 0 0 0-.008-1.586q-.16-4.14-.298-8.28c-.234-6.76-.476-13.748-.877-20.614-.411-7.03-2.223-12.79-5.54-17.611-2.647-3.849-6.874-4.957-11.03-2.892a10.64 10.64 0 0 0-5.112 5.021c-.833 1.782-1.563 3.65-2.269 5.455q-.35.898-.707 1.798c-.13-.214-.267-.43-.401-.646a29 29 0 0 0-1.807-2.691c-2.546-3.24-5.896-3.967-9.686-2.1a9.52 9.52 0 0 0-5.185 6.227 25.5 25.5 0 0 0-.957 5.699l-.13 3.287c-.283 6.968-.575 14.173-.576 21.266 0 6.46.18 12.798.372 19.514q.114 3.969.218 8.016l-.271-.241a15 15 0 0 0-1.286-1.072c-6.784-4.823-13.93-6.483-21.235-4.936a9.57 9.57 0 0 0-6.998 5.676 9.93 9.93 0 0 0 .958 9.305 22 22 0 0 0 4.138 4.499 52.7 52.7 0 0 1 12.593 15.844c3.958 7.672 8.408 15.709 14.006 25.292 1.46 2.499 3.859 4.585 5.537 5.936 3.461 2.789 7.592 5.069 12.999 7.175a41.1 41.1 0 0 0 15.072 2.86 50.6 50.6 0 0 0 17.089-3.196 36.6 36.6 0 0 0 11.048-6.541c5.915-4.911 10.036-11.617 12.602-20.5a112 112 0 0 0 4.305-36.361 34.1 34.1 0 0 0-2.185-9.889m-72.24 14.103c-.151-8.904-.348-17.797-.503-24.547-.044-1.907-.115-3.814-.186-5.722-.14-3.74-.284-7.613-.207-11.413.124-6.183.544-12.468.95-18.545l.132-1.922c.226-3.4 1.437-5.112 4.043-5.696 2.112 1.379 3.42 3.652 3.998 6.946.87 4.95 1.481 9.94 1.833 14.953.434 6.254.765 12.621 1.085 18.78.186 3.586.372 7.172.579 10.757.071 1.231.352 2.043.833 2.41.882.73 2 1.11 3.144 1.069.853-.132 1.862-1.517 1.924-2.392.224-2.703.229-5.42.016-8.123-1.158-12.957-.248-25.723.965-39.871.277-2.003.824-3.96 1.624-5.816q.214-.565.42-1.124a6.3 6.3 0 0 1 1.745-2.232c.832-.749 1.52-1.07 2.048-.948.49.112.927.625 1.297 1.526l.151.365c1.255 3.042 2.552 6.187 3.058 9.385a107 107 0 0 1 1.359 16.015c.041 7-.19 14.123-.415 21.01q-.1 3.11-.197 6.219a26 26 0 0 1-.259 2.645c-.116.88-.236 1.788-.263 2.695-.044 1.479.332 2.539 1.121 3.15.79.612 1.924.718 3.36.304a4.82 4.82 0 0 0 3.598-4.082c.173-1.033.263-2.091.357-3.115.056-.638.112-1.277.187-1.914.247-2.082 1.343-3.039 3.479-2.978a7.26 7.26 0 0 1 6.617 5.2c.28 1.18.456 2.383.525 3.594q.044.502.092 1 .04.549.009 1.098a4.8 4.8 0 0 0 .205 1.99c.324.797 1.161 2.222 2.242 2.505.748.197 1.805-.172 3.142-1.095.421-.353.743-.809.936-1.323q.17-.379.394-.73.383-.57.753-1.154a19 19 0 0 1 2.124-2.9c1.27-1.33 2.707-1.962 4.052-1.783 1.33.18 2.535 1.157 3.394 2.753a22.25 22.25 0 0 1 2.909 12.105c-.533 7.876-1.463 15.846-2.292 22.698-.722 5.962-3.142 11.456-5.414 16.044-3.514 7.097-9.53 11.916-18.39 14.729-12.68 4.026-25.13 1.824-37-6.547a13.1 13.1 0 0 1-3.26-3.178 95 95 0 0 1-5.47-8.817 375 375 0 0 1-7.9-15.577C41.5 92.7 36.386 86.116 29.865 80.936a11.4 11.4 0 0 1-2.745-3.186 2.6 2.6 0 0 1-.308-2.115 3.1 3.1 0 0 1 1.792-1.76 9.9 9.9 0 0 1 4.093-.863c.765.003 1.528.077 2.279.22 5.731 1.07 9.573 3.202 12.092 6.708a17.4 17.4 0 0 1 2.025 4.478q.209.611.425 1.21c.562 1.539 1.347 2.965 3.274 2.978h.029c1.69 0 2.915-1.05 3.365-2.881.256-1 .381-2.03.374-3.062M3.942 17.134a348 348 0 0 0 8.22 7.96 3.86 3.86 0 0 0 2.26 1.116h.006a4.05 4.05 0 0 0 2.85-1.007c.503-.58.31-2.145-.198-2.845a14 14 0 0 0-2.075-2.144 29 29 0 0 1-1.04-.963c-.46-.455-.975-.87-1.472-1.273a11.2 11.2 0 0 1-2.622-2.673h.55c.685.004 1.277.008 1.87-.006l5.466-.132c6.366-.147 12.946-.3 19.417-.525A10.2 10.2 0 0 0 39.963 14c.445-.146.905-.297 1.386-.426l.408-.11-.197-.373a4.34 4.34 0 0 0-4.184-2.56 569 569 0 0 0-11.74-.236c-3.385-.027-6.747-.021-10.308-.015l-3.823.005.985-.77c1.28-1 2.48-1.938 3.67-2.888q.412-.33.827-.656a33.5 33.5 0 0 0 3.282-2.83 2.36 2.36 0 0 0 .093-2.464c-.517-.626-1.913-.512-2.328-.46a2.5 2.5 0 0 0-1.17.62c-.13.102-.262.205-.393.292L3.005 9.924C1.284 11.047.878 12.633 1.86 14.387a12.8 12.8 0 0 0 2.082 2.747"/></g><defs><clipPath id="a"><path fill="#fff" d="M.792.169h130.611v145.05H.793z"/></clipPath></defs></svg>