<svg xmlns="http://www.w3.org/2000/svg" width="112" height="157" fill="none" viewBox="0 0 112 157"><g fill="#000" clip-path="url(#a)"><path d="M5.305 97.598a23 23 0 0 1 1.748 1.686c.89.99 1.823 1.979 2.725 2.936a63 63 0 0 1 6.874 8.18 104 104 0 0 1 5.687 10.242c.95 1.873 1.931 3.807 2.959 5.679l.59 1.077c2.353 4.289 4.787 8.724 7.471 12.906a23.8 23.8 0 0 0 5.372 5.625 48.7 48.7 0 0 0 12.703 7.013 41.1 41.1 0 0 0 15.256 2.935 50.6 50.6 0 0 0 17.22-3.241 37.2 37.2 0 0 0 21.585-21.738c5.023-13.071 6.995-27.385 6.029-43.756a25.8 25.8 0 0 0-2.123-8.201 11.496 11.496 0 0 0-13.605-6.909 16.7 16.7 0 0 0-3.768 1.608c-.466.245-.946.497-1.433.733-1.521-3.462-3.584-5.6-6.301-6.532a40 40 0 0 0-6.32-1.42c-.908-.155-1.846-.314-2.799-.5q-.001-.145.004-.31c.007-.567.017-1.274-.01-1.985q-.157-4.025-.294-8.052c-.236-6.723-.48-13.676-.897-20.504-.422-6.907-2.195-12.566-5.42-17.304-2.858-4.201-7.5-5.317-11.551-2.779a13.96 13.96 0 0 0-4.539 4.563 35 35 0 0 0-2.443 5.584c-.226.61-.453 1.223-.69 1.83l-.315-.507c-.543-.88-1.105-1.791-1.767-2.66-2.615-3.427-6.052-4.187-9.943-2.202a9.66 9.66 0 0 0-5.097 6.295 23.6 23.6 0 0 0-.834 4.691c-.066 1.057-.144 2.113-.219 3.17-.285 4.029-.58 8.195-.559 12.297.039 7.586.215 15.296.385 22.753q.117 5.102.22 10.203c.022 1.115.016 2.231.01 3.355q0 .59-.004 1.178-.253-.208-.498-.422a16 16 0 0 0-.928-.758c-6.49-4.791-13.513-6.54-20.875-5.204a9.74 9.74 0 0 0-7.613 6.01 10.41 10.41 0 0 0 1.695 10.08c.696.855 1.47 1.643 2.312 2.355m31.496-29.48a348 348 0 0 0-.186-5.53c-.136-3.48-.277-7.07-.2-10.596.125-5.873.509-11.843.88-17.616l.183-2.853c.161-2.545.771-5.014 4.081-5.886 2.118 1.53 3.432 3.861 4.014 7.121.85 4.612 1.447 9.268 1.789 13.945.455 6.69.798 13.5 1.13 20.084q.255 5.063.525 10.124c.04.707.201 1.401.474 2.054a2.796 2.796 0 0 0 3.382 1.748 2.49 2.49 0 0 0 2.154-2.724c-.014-.91.006-1.841.025-2.742.07-1.674.037-3.353-.099-5.024-.96-9.42-.435-18.992.072-28.25l.174-3.277c.097-2.894.339-5.78.725-8.65a30.7 30.7 0 0 1 2.132-6.92 7.45 7.45 0 0 1 2.307-2.594 1.7 1.7 0 0 1 1.454-.469 1.66 1.66 0 0 1 1.038 1.06c.267.623.557 1.244.848 1.867a21.6 21.6 0 0 1 2.004 5.538 145 145 0 0 1 1.892 17.655c.428 12.839.1 22.662-1.065 31.853a6 6 0 0 0-.035.69q.002.173-.008.345c-.117 2.683.162 3.96 2.126 4.437 1.908.459 4.587-.55 5.382-2.744a21.8 21.8 0 0 0 1.025-5.32c.186-1.954.76-3.239 1.706-3.818s2.35-.51 4.17.21a6.72 6.72 0 0 1 4.397 5.115 34 34 0 0 1 .45 4.68c.028.542.054 1.084.09 1.624.094 1.42.472 3.11 2.571 3.58 1.83.411 2.853-.772 3.61-1.982.319-.507.622-1.027.926-1.547a25 25 0 0 1 2.114-3.228c1.418-1.729 3.042-2.575 4.565-2.385 1.522.19 2.899 1.418 3.852 3.455a30.9 30.9 0 0 1 2.486 16.598c-.721 6.755-1.739 13.82-3.113 21.597a39.6 39.6 0 0 1-7.063 16.067c-3.479 4.869-8.768 8.435-15.728 10.6-13.091 4.069-25.299 1.903-37.32-6.619a12 12 0 0 1-3.018-2.949c-1.78-2.633-3.843-5.776-5.645-9.111-2.494-4.62-4.972-9.521-7.584-14.979-4.22-8.821-9.466-15.577-16.035-20.657a4.5 4.5 0 0 1-.467-.416 42 42 0 0 0-.42-.427c-1.353-1.36-2.63-2.646-1.8-4.693.787-1.95 2.794-2.255 4.541-2.255h.28c7.584.131 12.892 2.868 16.229 8.374.51.953.89 1.971 1.131 3.026q.134.487.276.967c.849 2.81 2.378 3.281 3.498 3.178 1.792-.16 2.92-1.295 3.353-3.373.177-.901.252-1.82.223-2.74-.157-9.263-.322-17.514-.498-25.219M3.097 21.84a2.76 2.76 0 0 0 2.077-.77 35 35 0 0 0 2.678-2.809l.348-.394c1.289-1.451 2.56-2.916 3.837-4.38l1.44-1.653.207.084q0 .402-.006.802c-.006.74-.011 1.48.01 2.22l.145 4.861c.213 7.116.432 14.474.702 21.71a20.6 20.6 0 0 0 .774 4.701 2.95 2.95 0 0 0 2.97 2.325q.232 0 .463-.027a2.86 2.86 0 0 0 2.638-2.764 17.6 17.6 0 0 0 .151-3.075c-.13-2.189-.284-4.379-.437-6.568-.262-3.786-.538-7.702-.688-11.555-.131-3.319-.099-6.596-.066-10.066q.018-1.866.028-3.77l.989 1.19c1.312 1.574 2.583 3.105 3.862 4.625l.371.444a21.5 21.5 0 0 0 1.904 2.09c1.411 1.3 2.822 1.466 4.083.483 1.301-1.018 1.478-2.503.486-4.07a26 26 0 0 0-2.498-3.228 762 762 0 0 0-5.172-5.762 2053 2053 0 0 1-3.158-3.506C19.79 1.364 18.765.702 17.707.693h-.02c-1.012 0-2.004.604-3.309 2.014-2.736 2.957-5.377 6.087-7.932 9.114q-1.423 1.686-2.851 3.364-.238.277-.49.553a7.7 7.7 0 0 0-1.575 2.214c-.352.892-.394 2.315.15 3.061a1.97 1.97 0 0 0 1.417.827"/></g><defs><clipPath id="a"><path fill="#fff" d="M.226.667h111.577V156.22H.226z"/></clipPath></defs></svg>