<svg xmlns="http://www.w3.org/2000/svg" width="113" height="153" fill="none" viewBox="0 0 113 153"><g fill="#000" clip-path="url(#a)"><path d="M109.565 74.941c-1.46-3.856-4.486-6.305-8.75-7.085a11.26 11.26 0 0 0-9.825 2.656c-4.174-6.741-5.957-7.666-15.681-8.292q.001-.285.005-.573c.008-.657.015-1.342-.012-2.023q-.155-4.008-.291-8.016c-.237-6.735-.481-13.7-.892-20.54-.421-7.035-2.243-12.793-5.57-17.602-2.57-3.717-6.687-4.85-10.745-2.957a10.7 10.7 0 0 0-5.392 5.204c-.822 1.764-1.51 3.538-2.238 5.418q-.35.905-.71 1.817l-.327-.543c-.491-.822-.955-1.598-1.496-2.35-2.753-3.828-6.564-4.62-10.738-2.23-3.93 2.253-4.86 6.134-5.232 9.264-.286 2.405-.332 4.872-.376 7.258l-.022 1.168q-.06 2.8-.126 5.6c-.148 6.429-.301 13.077-.298 19.617 0 4.86.15 9.63.308 14.681q.093 2.976.178 6.01l-.119-.1c-.445-.371-.83-.693-1.242-.996-6.653-4.889-13.783-6.629-21.188-5.174a9.64 9.64 0 0 0-7.333 5.897 10.29 10.29 0 0 0 1.427 9.79 23.8 23.8 0 0 0 3.605 3.712l.443.394a53 53 0 0 1 12 15.06 530 530 0 0 0 14.348 25.871 21.9 21.9 0 0 0 6.41 6.475 67.7 67.7 0 0 0 11.208 6.174 39.3 39.3 0 0 0 15.872 3.324 50.6 50.6 0 0 0 17.212-3.264 37.23 37.23 0 0 0 21.626-21.697c5.023-13.049 7.004-27.362 6.057-43.754-.158-2.754-1.099-5.566-2.096-8.195M36.932 64.11c-.04-1.69-.118-3.407-.193-5.068-.131-2.965-.274-6.03-.197-9.035.18-7.379.622-14.877 1.05-22.129l.021-.362c.158-2.668.769-5.227 4.113-5.912 2.07 1.444 3.369 3.741 3.968 7.031.863 4.61 1.465 9.265 1.802 13.943.445 6.54.782 13.2 1.106 19.641q.268 5.285.552 10.567c.05.91.152 1.923.715 2.429a5.17 5.17 0 0 0 3.005 1.378 2.03 2.03 0 0 0 1.554-.573 2.76 2.76 0 0 0 .73-2.035c-.01-.887.008-1.778.025-2.667q.1-2.551-.086-5.098c-1.169-12.71-.328-24.909.898-39.537.188-2.246 1.022-4.5 1.828-6.68l.336-.91a6.4 6.4 0 0 1 2.018-2.395c.685-.558 1.198-.782 1.61-.709.433.078.867.505 1.366 1.346 2.853 4.81 3.548 10.268 3.977 15.005.995 10.988 1.005 23.038.03 37.93a44 44 0 0 1-.253 2.469c-.128 1.05-.263 2.14-.292 3.22-.04 1.398.309 2.407 1.037 3 .728.592 1.813.735 3.2.406a4.84 4.84 0 0 0 3.862-4.234c.159-.985.246-1.986.329-2.954.06-.692.12-1.383.204-2.071.238-1.93 1.271-2.845 3.25-2.88a7.135 7.135 0 0 1 6.86 5.296c.264 1.178.427 2.376.487 3.582.035.453.07.905.116 1.354.036.356.042.733.047 1.098a8 8 0 0 0 .197 1.963 3.08 3.08 0 0 0 2.308 2.297 3.02 3.02 0 0 0 2.97-1.154 20 20 0 0 0 1.735-2.686c.306-.535.623-1.087.96-1.605 1.24-1.907 2.784-3.922 5.55-3.67 2.747.252 3.642 2.58 4.513 4.849a32.1 32.1 0 0 1 1.922 14.074l-.04.528c-.617 8.082-1.255 16.439-3.777 24.264a55.7 55.7 0 0 1-6.432 13.862c-3.269 4.885-8.39 8.369-15.656 10.652-13.04 4.095-25.249 1.946-37.327-6.574a11.9 11.9 0 0 1-3.03-2.934 106 106 0 0 1-5.654-9.103 353 353 0 0 1-7.744-15.276c-4.135-8.643-9.32-15.308-15.854-20.376a4 4 0 0 1-.468-.413q-.243-.254-.498-.505c-1.329-1.332-2.583-2.59-1.779-4.6.858-2.14 3-2.34 5.12-2.362h.147c6.547 0 16.088 4.237 17.214 12.303.292 2.092 1.493 3.282 3.303 3.282h.103c1.78-.044 2.962-1.187 3.418-3.302.185-.9.267-1.82.243-2.739-.184-9.893-.347-17.908-.52-25.223z"/><path d="M15.737 49.585a3.23 3.23 0 0 0 2.26 1.066q.083.001.167-.006a3.43 3.43 0 0 0 2.432-1.51c2.282-2.988 4.506-6.096 6.659-9.1l1.455-2.032a2.7 2.7 0 0 0 .712-1.742c-.191-1.346-.547-2.154-1.09-2.47-.7-.41-1.974-.205-2.756.219a3.1 3.1 0 0 0-1.07 1.305q-.178.34-.397.656c-.96 1.328-1.928 2.65-3.048 4.18L20 41.605l-.118-1.05c-.114-1.002-.204-1.793-.226-2.566q-.228-7.68-.439-15.359-.244-8.775-.502-17.55a7.9 7.9 0 0 0-.525-3.057A2.6 2.6 0 0 0 16.083.686c-.838.058-1.617 1.033-1.911 1.54a3.6 3.6 0 0 0-.309 1.785q.001.178-.004.346l-.115 4.316c-.14 5.19-.285 10.556-.364 15.836-.053 3.456-.041 6.892-.028 10.53.005 1.427.01 2.88.012 4.368q-.677-.564-1.29-1.081c-1.286-1.082-2.396-2.015-3.57-2.888a2.75 2.75 0 0 0-2.13-.595 1.96 1.96 0 0 0-1.307.972 2.86 2.86 0 0 0 .3 2.747c4.058 4.508 7.254 7.91 10.37 11.023"/></g><defs><clipPath id="a"><path fill="#fff" d="M.69.605h111.578V152.22H.69z"/></clipPath></defs></svg>