<svg xmlns="http://www.w3.org/2000/svg" width="113" height="159" fill="none" viewBox="0 0 113 159"><g fill="#000" clip-path="url(#a)"><path d="M5.468 99.467a23 23 0 0 1 1.741 1.682c.894.994 1.828 1.987 2.733 2.947a62.6 62.6 0 0 1 6.87 8.18 104 104 0 0 1 5.695 10.262c.947 1.871 1.928 3.806 2.953 5.673l.624 1.138c2.343 4.273 4.765 8.691 7.436 12.858a24 24 0 0 0 5.366 5.635 48.2 48.2 0 0 0 12.383 6.909 41.3 41.3 0 0 0 15.607 3.06 50.4 50.4 0 0 0 17.19-3.24 37.22 37.22 0 0 0 21.594-21.749c5.022-13.065 6.996-27.391 6.037-43.796a25.9 25.9 0 0 0-2.119-8.209 11.5 11.5 0 0 0-13.595-6.932c-1.32.379-2.587.922-3.77 1.615-.465.246-.943.499-1.429.735-2.785-6.046-7.834-8.62-15.438-7.856q.001-.434.007-.827c.007-.753.014-1.402-.012-2.063q-.157-4.043-.295-8.085c-.235-6.72-.48-13.67-.892-20.498-.424-7.034-2.254-12.798-5.593-17.61-2.634-3.797-6.952-4.922-10.744-2.804a13.96 13.96 0 0 0-4.977 4.565 33 33 0 0 0-2.614 5.767c-.239.63-.483 1.276-.739 1.912l-.285-.46c-.514-.833-1.098-1.78-1.764-2.654-2.615-3.439-6.051-4.208-9.937-2.222-2.915 1.488-4.694 3.79-5.15 6.66-.34 2.159-.5 4.376-.656 6.52-.099 1.374-.2 2.795-.35 4.182-.929 8.642-.722 17.428-.52 25.926.095 3.98.192 8.096.171 12.142-.011 2.053.187 4.135.379 6.147.079.825.157 1.65.222 2.475l-.053.006-.075.008a23 23 0 0 1-.584-.488c-.3-.254-.598-.509-.913-.741-6.485-4.797-13.505-6.554-20.872-5.224a9.76 9.76 0 0 0-7.629 6.008A10.42 10.42 0 0 0 3.152 97.11a17.7 17.7 0 0 0 2.316 2.357m32.018-4.223c-.096-3.53-.216-7.061-.335-10.592-.257-7.556-.525-15.37-.525-23.052 0-7.372.37-14.872.728-22.125q.15-3.053.294-6.104c.112-2.422.686-5.011 4.07-5.925 2.108 1.502 3.421 3.826 4.012 7.098A126 126 0 0 1 47.526 48.5c.444 6.526.78 13.171 1.104 19.598q.269 5.32.556 10.64c.055.975.18 1.945.726 2.429a5.17 5.17 0 0 0 3.02 1.355 2.1 2.1 0 0 0 1.534-.58 2.8 2.8 0 0 0 .722-2.055c-.01-.9.008-1.804.025-2.706a46 46 0 0 0-.087-5.065c-1.262-13.763-.065-28.074.902-39.574.187-2.242 1.023-4.492 1.831-6.668l.342-.924a6.36 6.36 0 0 1 2.025-2.391c.68-.55 1.187-.77 1.593-.698.43.078.868.513 1.375 1.37 2.839 4.803 3.537 10.273 3.968 15.023 1.006 11.084 1.014 22.792.028 37.965-.053.822-.155 1.66-.254 2.47-.131 1.05-.263 2.142-.292 3.224-.039 1.389.312 2.392 1.043 2.983.743.602 1.828.734 3.222.394a4.86 4.86 0 0 0 3.841-4.258c.153-.968.239-1.957.321-2.913.06-.707.122-1.414.21-2.117.24-1.924 1.28-2.833 3.27-2.858a7.14 7.14 0 0 1 6.744 5.017 20 20 0 0 1 .59 3.666q.045.458.095.913.068.761.048 1.526c0 .382-.004.766.016 1.146.095 1.809.935 2.913 2.494 3.282 1.378.328 2.507-.216 3.441-1.665.181-.28.343-.573.504-.866q.163-.304.34-.602l.403-.687c.366-.628.744-1.277 1.161-1.875 1.239-1.772 2.775-3.639 5.393-3.377 2.481.248 3.413 2.132 4.379 4.57a32.2 32.2 0 0 1 2.035 14.399l-.041.536c-.618 8.087-1.257 16.449-3.781 24.278a55.5 55.5 0 0 1-6.44 13.869c-3.282 4.895-8.41 8.378-15.667 10.649-13.07 4.087-25.28 1.93-37.325-6.598a12 12 0 0 1-3.025-2.944 107 107 0 0 1-5.645-9.115 351 351 0 0 1-7.745-15.288c-4.138-8.654-9.328-15.323-15.862-20.388a2 2 0 0 1-.221-.189c-.193-.197-.394-.39-.591-.584-1.405-1.364-2.731-2.651-1.896-4.757.806-2.035 2.867-2.337 4.997-2.337h.126a19.17 19.17 0 0 1 14.006 5.735 11.75 11.75 0 0 1 3.297 6.276c.555 3.056 2.192 3.642 3.473 3.61 1.723-.053 3.062-1.465 3.496-3.686.131-.797.177-1.607.136-2.414M87.7 11.339c-1.203-1.502-2.975-1.22-4.114-.323-1.97 1.552-3.819 3.311-5.607 5.013l-.621.59c-.29.336-.492.737-.591 1.168-.077.233-.162.491-.279.77l-.058.14.065.135c.078.164.147.359.22.562a3.25 3.25 0 0 0 .947 1.6c.311.193.674.287 1.04.268.529.012 1.05-.13 1.502-.41a100 100 0 0 0 6.846-5.454c1.414-1.236 1.663-2.791.65-4.06M51.538 3.134a3.4 3.4 0 0 0-2.166-2.1 1.63 1.63 0 0 0-1.34.186 2.66 2.66 0 0 0-1.007 1.875q-.086.563-.18 1.124c-.169 1.04-.345 2.115-.444 3.184a28 28 0 0 0-.145 4.34 2.48 2.48 0 0 0 2.58 2.358c.074 0 .145.005.216.005a2.653 2.653 0 0 0 2.835-2.225q.18-1.026.214-2.068.02-.39.046-.733v-.06a73 73 0 0 1-.131-1.796 26 26 0 0 0-.478-4.091"/><path d="M83.626 40.705c1.127.195 2.269.3 3.413.313.5.019 1.014.038 1.547.073h.036c.36-.017.739-.025 1.131-.032a27 27 0 0 0 3.041-.186c1.03-.141 3.169-.437 2.933-2.746-.218-2.14-2.382-2.166-3.093-2.179-2.576-.034-4.554-.01-6.413.076a7.4 7.4 0 0 0-3.063.632c-.687.361-1.647 1.413-1.585 2.24.058.78 1.286 1.653 2.053 1.809M29.581 17.919l.252-.138-.094-.27c-.113-.323-.197-.683-.281-1.03a3.9 3.9 0 0 0-.93-2.087 37 37 0 0 0-6.02-4.276c-.776-.442-2.332-.094-3.064.5a1.9 1.9 0 0 0-.75 1.415 2.77 2.77 0 0 0 .934 2.028c1.287 1.253 2.685 2.416 4.037 3.54a4.56 4.56 0 0 0 2.975 1.19 6.2 6.2 0 0 0 2.941-.872m-7.976 18.898c-2.756.123-5.72.294-8.679.693a2.83 2.83 0 0 0-1.954 2.012 1.65 1.65 0 0 0 .368 1.322 2.63 2.63 0 0 0 1.965.764c.938.024 1.889.019 2.81.013l.885-.005.01.342.353-.029c.45-.036.905-.054 1.36-.073a14.6 14.6 0 0 0 3.339-.393 3.35 3.35 0 0 0 2.02-2.281 1.89 1.89 0 0 0-.424-1.615 2.57 2.57 0 0 0-2.053-.75"/></g><defs><clipPath id="a"><path fill="#fff" d="M.62.698h111.577V158.22H.62z"/></clipPath></defs></svg>