<svg xmlns="http://www.w3.org/2000/svg" width="112" height="157" fill="none" viewBox="0 0 112 157"><g fill="#000" clip-path="url(#a)"><path d="m6.179 98.496.46.409a53 53 0 0 1 11.993 15.072c4.18 8.055 8.867 16.526 14.328 25.899 1.427 2.45 3.715 4.454 5.55 5.927 3.366 2.702 7.399 4.938 12.69 7.039a41.1 41.1 0 0 0 15.325 2.961 50.5 50.5 0 0 0 17.146-3.216 36.6 36.6 0 0 0 11.035-6.559c5.836-4.857 9.917-11.467 12.475-20.208a111.4 111.4 0 0 0 4.378-36.709 34.6 34.6 0 0 0-2.31-10.208c-1.876-5.06-6.403-7.823-11.814-7.2-1.727.284-3.41.791-5.005 1.51a50 50 0 0 1-2.01.768c-3.992-6.373-5.849-7.313-15.41-7.821q.001-.286.005-.575c.006-.656.014-1.335-.012-2.01q-.158-4.035-.294-8.069c-.236-6.724-.48-13.678-.886-20.51-.417-7.038-2.232-12.802-5.55-17.62-2.707-3.932-7.133-5.048-11.013-2.778a14.36 14.36 0 0 0-4.89 4.66 32 32 0 0 0-2.489 5.6c-.23.621-.465 1.26-.714 1.891a25 25 0 0 0-.244-.393c-.473-.767-1.009-1.635-1.598-2.45-2.756-3.815-6.577-4.588-10.748-2.18-3.912 2.259-4.839 6.148-5.208 9.285-.286 2.423-.332 4.907-.377 7.309l-.022 1.123q-.058 2.776-.123 5.553c-.146 6.45-.298 13.12-.296 19.682 0 4.857.152 9.627.31 14.679q.091 2.984.179 6.034l-.144-.124c-.443-.38-.824-.709-1.237-1.011-6.665-4.89-13.794-6.625-21.187-5.163a9.65 9.65 0 0 0-7.32 5.902A10.31 10.31 0 0 0 2.587 94.8a24 24 0 0 0 3.59 3.696m30.454-30.43c-.04-1.668-.118-3.362-.197-5-.131-2.882-.272-5.86-.2-8.78.197-8 .656-16.039 1.076-22.847.229-3.701.854-4.633 4.107-5.95 2.073 1.41 3.335 3.637 3.965 6.99a115 115 0 0 1 1.804 13.615c.448 6.653.787 13.426 1.115 19.977q.262 5.3.547 10.598c.052.954.149 1.928.696 2.434a5.17 5.17 0 0 0 2.981 1.425 2.07 2.07 0 0 0 1.585-.563 2.72 2.72 0 0 0 .74-2.013c-.007-.857.013-1.717.034-2.577.078-1.734.045-3.47-.096-5.198-.94-9.124-.459-18.403 0-27.375l.16-3.129c.159-3.2.323-6.511.795-9.714a32.8 32.8 0 0 1 2.083-6.951 6.4 6.4 0 0 1 2.015-2.415c.698-.577 1.221-.812 1.647-.734s.857.494 1.336 1.313a27.1 27.1 0 0 1 3.413 10.354c1.354 10.186 1.681 21.275 1.034 34.896-.135 2.835-.377 5.715-.61 8.5a441 441 0 0 0-.348 4.296c-.123 1.622-.262 3.46 2.021 4.122 1.791.525 4.548-.401 5.284-2.324a24 24 0 0 0 1.24-5.95c.198-1.82.723-2.981 1.618-3.551.878-.558 2.176-.547 3.857.03 2.744.943 4.373 2.789 4.84 5.488q.354 2.333.425 4.693l.066 1.287c.084 1.439.441 3.155 2.47 3.662 1.944.486 2.993-.757 3.83-2.174.198-.328.384-.656.574-.989a28 28 0 0 1 2.072-3.252c1.526-1.97 3.351-2.954 4.989-2.715 1.568.23 2.888 1.54 3.713 3.688a32.8 32.8 0 0 1 2.451 10.618 93.8 93.8 0 0 1-3.737 29.496 51 51 0 0 1-6.398 13.873c-3.305 4.942-8.527 8.464-15.964 10.768-12.874 3.987-24.98 1.82-37.01-6.629a11.9 11.9 0 0 1-3.04-2.926 105 105 0 0 1-5.66-9.107 365 365 0 0 1-7.9-15.588C22 103.276 16.87 96.7 10.367 91.632a4 4 0 0 1-.47-.413c-.172-.179-.35-.357-.525-.535-1.317-1.317-2.56-2.56-1.79-4.568.826-2.154 2.968-2.363 5.09-2.393h.21c6.54 0 16.029 4.21 17.179 12.274.3 2.115 1.513 3.324 3.328 3.324h.044c1.795-.019 2.988-1.148 3.451-3.264.192-.9.278-1.82.257-2.74a4134 4134 0 0 0-.514-25.251z"/><path d="M79.14 32.547a2.25 2.25 0 0 0 1.178 1.362c1.57.794 3.336.042 4.61-1.961a8.6 8.6 0 0 0 .817-1.55c2.97-7.89 2.245-14.57-2.219-20.416C74.981-1.214 61.504-.812 51.941 4.555a13 13 0 0 0-3.092 2.778c-.29.32-.576.64-.87.946q-.691.755-1.246 1.614l-.165.24c-1.181-.04-2.328-.114-3.44-.185a43 43 0 0 0-7.183-.072 20.64 20.64 0 0 0-15.298 9.658 19.74 19.74 0 0 0-2.215 17.155 12.5 12.5 0 0 0 2.216 3.83 2.8 2.8 0 0 0 2.044 1.143h.048a3.1 3.1 0 0 0 2.25-1.201l.137-.15-.066-.19a43 43 0 0 0-.434-1.156 20 20 0 0 1-.854-2.536 46 46 0 0 0-.314-1.23 12.3 12.3 0 0 1-.625-4.242 17.3 17.3 0 0 1 8.04-13.116 15.62 15.62 0 0 1 13.834-1.358c3.988 1.52 4.937 1.16 6.771-2.573a11 11 0 0 1 7.955-6.182 46 46 0 0 1 4.606-.792c6.092-.71 11.183 1.619 15.122 6.92 3.435 4.626 3.672 9.72.702 15.144-.764 1.39-1.014 2.616-.723 3.547"/></g><defs><clipPath id="a"><path fill="#fff" d="M.156.667h111.577V156.22H.156z"/></clipPath></defs></svg>