<svg xmlns="http://www.w3.org/2000/svg" width="114" height="154" fill="none" viewBox="0 0 114 154"><g fill="#000" clip-path="url(#a)"><path d="M6.79 94.718c.578.525 1.175 1.07 1.697 1.647a162 162 0 0 0 2.8 2.999 60.3 60.3 0 0 1 6.838 8.093 105 105 0 0 1 5.756 10.399c.974 1.925 1.98 3.916 3.034 5.838 2.772 5.048 5.292 9.582 8.078 13.984a21.6 21.6 0 0 0 4.882 5.185 49.5 49.5 0 0 0 13.902 7.631 41.1 41.1 0 0 0 14.477 2.631 50.3 50.3 0 0 0 17.05-3.196 37.26 37.26 0 0 0 21.687-21.651c5.125-13.315 7.113-27.746 6.077-44.117a25.4 25.4 0 0 0-2.177-8.195 11.55 11.55 0 0 0-6.648-6.384 12.07 12.07 0 0 0-9.621.59c-.369.183-.745.35-1.204.556l-.301.135.074-1.514a395 395 0 0 0 .183-3.955q.08-2.07.173-4.14c.37-8.584.753-17.459-.47-26.18-.661-4.707-1.483-9.255-4.242-13.16a9.3 9.3 0 0 0-6.36-3.903 9.32 9.32 0 0 0-7.185 2.014c-.484.388-.928.81-1.357 1.22l-.243.23q-.538-.996-1.058-1.979c-.94-1.772-1.828-3.444-2.854-5.077-1.86-2.962-4.81-4.135-8.538-3.386a9.94 9.94 0 0 0-7.033 5.245 57 57 0 0 0-2.546 5.815c-.263.656-.521 1.32-.788 1.976l-.394-.635a29 29 0 0 0-1.804-2.691c-2.55-3.241-5.9-3.965-9.688-2.093a9.58 9.58 0 0 0-5.18 6.235 24.3 24.3 0 0 0-.925 5.367q-.082 1.8-.17 3.599c-.285 5.99-.581 12.182-.577 18.276.006 7.206.177 14.27.358 21.746q.105 4.368.203 8.808l-.227-.204q-.609-.57-1.275-1.069c-6.622-4.76-13.652-6.458-20.905-5.045a9.71 9.71 0 0 0-7.444 5.988 10.38 10.38 0 0 0 1.609 9.944c.7.88 1.482 1.691 2.336 2.423m31.564-29.15c-.041-1.772-.118-3.58-.192-5.324-.136-3.216-.277-6.542-.202-9.803.152-6.653.564-13.415.961-19.953l.114-1.881c.154-2.542.758-5.005 4.082-5.853 2.143 1.581 3.458 3.926 4.016 7.164.84 4.731 1.435 9.503 1.786 14.296.45 6.59.792 13.3 1.123 19.788q.257 5.054.53 10.112c.043.708.209 1.402.489 2.053a2.793 2.793 0 0 0 3.402 1.711 2.51 2.51 0 0 0 2.12-2.756c-.017-.92.004-1.86.022-2.77a41 41 0 0 0-.098-5.002c-.963-9.517-.43-19.182.087-28.532l.072-1.317q.05-.902.094-1.808a86 86 0 0 1 .722-8.555 33 33 0 0 1 2.018-6.635l.116-.303a6.14 6.14 0 0 1 1.788-2.184c.801-.684 1.42-.968 1.89-.864.448.097.863.566 1.267 1.434l.341.728c1.02 2.166 2.074 4.41 2.429 6.695a144 144 0 0 1 1.826 17.34c.415 12.935.085 22.767-1.07 31.88q-.045.415-.04.831c0 .179-.004.357-.019.59-.099 1.499-.21 3.197 1.81 3.928 1.544.559 4.155-.077 5.21-1.734a7.75 7.75 0 0 0 1.175-3.254l.058-.575c.36-2.941.54-5.901.535-8.865-.148-6.592-.378-13.292-.6-19.772q-.197-5.752-.378-11.504a13.94 13.94 0 0 1 2.925-9.19 3.1 3.1 0 0 1 2.841-1.388 2.79 2.79 0 0 1 2.068 2.02 41 41 0 0 1 2.397 10.01c.463 5.963.478 11.885.451 18.452-.023 5.6-.15 11.296-.274 16.802q-.086 3.872-.163 7.749c-.03 1.618.229 3.236 2.309 4.106 2.647 1.106 3.766.793 5.204-1.465.337-.528.65-1.073.962-1.619a26 26 0 0 1 1.479-2.378c1.603-2.199 3.406-3.304 5.07-3.118s3.154 1.65 4.216 4.12a31.6 31.6 0 0 1 2.2 16.01c-.665 6.243-1.637 13.007-3.058 21.285-.948 5.524-3.353 11.044-7.148 16.403-3.395 4.791-8.584 8.323-15.424 10.491-13.051 4.134-25.714 1.922-37.635-6.577a12.1 12.1 0 0 1-3.008-2.964c-1.767-2.625-3.818-5.759-5.633-9.123a326 326 0 0 1-7.434-14.69c-4.27-8.984-9.57-15.84-16.212-20.972a2 2 0 0 1-.207-.175 27 27 0 0 0-.677-.687c-1.259-1.247-2.448-2.422-1.83-4.392.675-2.16 2.624-2.508 4.68-2.508h.262c7.277.095 12.678 2.83 16.053 8.129a12.4 12.4 0 0 1 1.27 3.334c.09.322.178.643.273.959.428 1.436 1.136 2.934 3.138 3.144 1.633.173 3.088-1.07 3.613-3.085.244-1.007.35-2.043.313-3.078a4291 4291 0 0 0-.505-24.911M9.243 31.488q-.281-.255-.537-.491a15 15 0 0 0-1.859-1.542A7.4 7.4 0 0 0 3.73 28.04a3.53 3.53 0 0 0-2.805 1.218c-.503.664.082 2.141.358 2.746.271.512.63.972 1.061 1.36.169.171.338.342.491.52q.944 1.09 1.893 2.175c1.407 1.614 2.862 3.282 4.257 4.953 1.633 1.956 3.208 2.907 4.812 2.907h.07c1.618-.028 3.165-1.02 4.73-3.033 2.086-2.682 4.053-5.521 5.955-8.27l.915-1.32c.561-.807 1.155-1.743 1.105-2.635-.036-.624-.232-2.719-1.284-3.45-.875-.607-2.618-.464-3.7.051a7.3 7.3 0 0 0-2.396 2.318l-.29.375c-.918 1.178-1.8 2.415-2.652 3.61q-.478.673-.959 1.341l-.107-.03-.246-5.36q-.308-6.714-.62-13.428-.055-1.15-.104-2.297c-.111-2.55-.226-5.185-.44-7.776a3.22 3.22 0 0 0-.948-2.284 2.15 2.15 0 0 0-1.632-.453c-1.87.167-1.943 1.969-1.977 2.83-.036.888-.084 1.776-.131 2.664-.104 1.885-.211 3.834-.184 5.756.052 3.561.172 7.18.286 10.679.066 2.045.136 4.09.19 6.137q.004.847-.092 1.689-.024.217-.043.456"/></g><defs><clipPath id="a"><path fill="#fff" d="M.336.949h113.546v152.27H.336z"/></clipPath></defs></svg>