<svg xmlns="http://www.w3.org/2000/svg" width="113" height="157" fill="none" viewBox="0 0 113 157"><g fill="#000" clip-path="url(#a)"><path d="M24.998 39.543a3.9 3.9 0 0 0 1.134-.185l.124-.037.066-.111c.919-1.53.562-3.04.216-4.5-.075-.312-.15-.625-.211-.937a13.79 13.79 0 0 1 9.05-15.93c3.703-1.318 7.068-1.386 10.29-.21 1.453.53 2.454.6 3.246.222.821-.39 1.412-1.247 1.974-2.871a10.5 10.5 0 0 1 1.378-2.888 16.33 16.33 0 0 1 13.013-6.72c5.93-.193 9.613 2.166 11.94 7.644 1.145 2.695 2.382 3.358 5.09 2.731 1.939-.448 3.536-.722 4.989.131l.71.416a42 42 0 0 1 6.72 4.533 8.74 8.74 0 0 1 2.786 8.561l-.05.268a5.9 5.9 0 0 0-.117 2.54 4.1 4.1 0 0 0 1.683 2.486 2.17 2.17 0 0 0 1.737.131 2.7 2.7 0 0 0 1.537-1.444 12.5 12.5 0 0 0 1.161-3.929c.549-5.582-1.444-10.277-5.913-13.951-5.245-4.31-10.136-6.12-15.387-5.685C79.922 5.082 76.071 2.18 70.4.948a1.4 1.4 0 0 1-.442-.266 4 4 0 0 0-.285-.205L69.59.424h-8.187l-.132.027c-.692.293-1.39.576-2.087.859-1.532.622-3.116 1.265-4.626 2.009-3.305 1.627-6.034 4.294-8.575 8.386-.673 0-1.322-.005-1.956-.008a159 159 0 0 0-4.2.014c-6.334.137-11.35 2.545-14.91 7.158-4.147 5.373-5.12 11.355-2.888 17.78.349.987 1.01 2.894 2.97 2.894"/><path d="M93.605 72.957q-.546.258-1.116.454l-.283.105.07-1.444c.065-1.32.123-2.532.171-3.746q.08-1.957.169-3.916c.384-8.656.782-17.608-.427-26.405-.647-4.712-1.452-9.266-4.147-13.189a9.313 9.313 0 0 0-13.761-1.985c-.46.377-.906.778-1.313 1.148l-.197.178q-.556-1.018-1.09-2.017c-.955-1.779-1.857-3.46-2.884-5.102-1.697-2.714-4.434-3.885-7.911-3.39a9.65 9.65 0 0 0-7.269 4.9 60 60 0 0 0-2.812 6.1c-.29.695-.578 1.389-.875 2.076l-.27-.439a32 32 0 0 0-1.759-2.653c-2.619-3.433-6.055-4.194-9.943-2.198-2.916 1.496-4.691 3.802-5.135 6.67-.346 2.239-.511 4.537-.67 6.76-.101 1.405-.205 2.857-.354 4.278-.907 8.646-.695 17.435-.49 25.934.096 3.975.197 8.085.178 12.125-.008 1.972.186 3.976.373 5.912.076.787.153 1.583.217 2.377h-.035l-.085.005q-.293-.237-.578-.483c-.297-.252-.604-.514-.928-.752-6.684-4.884-13.814-6.613-21.196-5.138a9.65 9.65 0 0 0-7.3 5.907 10.32 10.32 0 0 0 1.46 9.815 24 24 0 0 0 3.621 3.718l.434.387a52.8 52.8 0 0 1 11.984 15.082c4.307 8.283 8.837 16.347 14.313 25.907a17.4 17.4 0 0 0 4.517 5.094c9.483 7.187 19.074 10.737 29.103 10.737a45.2 45.2 0 0 0 8.986-.919c13.757-2.78 23.13-9.81 28.656-21.491a58.5 58.5 0 0 0 4.867-15.074c1.515-8.621 2.881-17.918 2.625-27.496a31.9 31.9 0 0 0-2.416-11.928 11.85 11.85 0 0 0-6.804-6.569 12.17 12.17 0 0 0-9.696.665m-55.646 20.43c-.131-7.811-.304-16.08-.507-24.572a275 275 0 0 0-.193-5.306c-.138-3.222-.28-6.554-.206-9.82.17-7.515.621-15.073 1.07-22.171.236-3.742.814-4.63 4.069-6.023 2.11 1.398 3.417 3.676 3.991 6.957.869 4.954 1.48 9.948 1.832 14.965.434 6.259.764 12.632 1.085 18.795.186 3.59.372 7.18.579 10.764.057.833.304 1.64.722 2.363a2.73 2.73 0 0 0 3.31 1.214 2.42 2.42 0 0 0 1.95-2.521c-.005-.853.016-1.706.037-2.564a41 41 0 0 0-.094-5.212c-.938-9.057-.47-18.269-.018-27.175l.1-2.005c.198-4.003.54-8.007.845-11.397.304-3.377 1.328-6.047 3.127-8.166.96-1.13 1.728-1.65 2.371-1.583.644.067 1.303.734 2.048 2.1 2.483 4.548 3.114 9.593 3.587 14.794.974 10.698.98 22.094.02 36.952-.056.875-.159 1.767-.258 2.629-.127 1.11-.262 2.26-.297 3.398-.05 1.482.328 2.544 1.116 3.159.787.614 1.945.713 3.36.303a4.83 4.83 0 0 0 3.65-4.437l.115-1.238c.34-3.056.523-6.127.55-9.202-.074-8.477-.322-17.092-.561-25.425l-.024-.822c-.025-.854-.107-1.721-.187-2.56-.228-2.406-.444-4.678.553-6.916l.296-.67a17.8 17.8 0 0 1 1.969-3.695 2.87 2.87 0 0 1 2.58-1.297 2.84 2.84 0 0 1 2.16 1.872 35.6 35.6 0 0 1 1.882 6.366c1.593 7.182 1.344 14.61 1.103 21.79l-.009.254c-.205 6.128-.306 12.361-.404 18.389q-.051 3.085-.105 6.17c-.029 1.63.11 3.297 2.118 4.218 2.722 1.247 3.946.906 5.46-1.517.3-.483.585-.976.869-1.47.38-.66.773-1.343 1.2-1.981 1.492-2.222 2.972-3.664 5.346-3.47 2.768.226 3.681 2.55 4.564 4.798a32.3 32.3 0 0 1 1.878 15.413c-.808 7.482-1.976 14.791-3.012 20.955-.927 5.513-3.311 11.043-7.089 16.431-3.502 5-8.734 8.524-15.994 10.77-12.917 3.997-25.024 1.838-37.013-6.595a12 12 0 0 1-3.05-2.917 104 104 0 0 1-5.668-9.1 364 364 0 0 1-7.9-15.588c-3.999-8.364-9.117-14.952-15.645-20.141a11.3 11.3 0 0 1-2.738-3.191 2.6 2.6 0 0 1-.31-2.118 3.1 3.1 0 0 1 1.812-1.755 10 10 0 0 1 4.096-.86c.764.004 1.526.078 2.277.222 5.739 1.084 9.582 3.22 12.086 6.725a17.4 17.4 0 0 1 2.019 4.476q.209.616.428 1.22c.561 1.54 1.348 2.965 3.282 2.97h.01c1.696 0 2.926-1.056 3.374-2.899a12 12 0 0 0 .386-3.054"/></g><defs><clipPath id="a"><path fill="#fff" d="M.7.104h112.234v156.208H.7z"/></clipPath></defs></svg>