<svg xmlns="http://www.w3.org/2000/svg" width="153" height="157" fill="none" viewBox="0 0 153 157"><g fill="#000" clip-path="url(#a)"><path d="M39.64 39.722a3.9 3.9 0 0 0 1.134-.184l.124-.038.066-.11c.919-1.53.562-3.04.215-4.5-.074-.313-.15-.626-.21-.938a13.79 13.79 0 0 1 9.05-15.93c3.703-1.318 7.068-1.385 10.29-.209 1.453.53 2.454.599 3.246.222.821-.39 1.412-1.247 1.974-2.872a10.4 10.4 0 0 1 1.378-2.888 16.33 16.33 0 0 1 13.013-6.72c5.93-.193 9.613 2.166 11.94 7.645 1.144 2.695 2.382 3.357 5.09 2.73 1.938-.448 3.536-.721 4.989.132l.709.415a42 42 0 0 1 6.72 4.534 8.74 8.74 0 0 1 2.787 8.56l-.05.268a5.85 5.85 0 0 0-.117 2.54 4.1 4.1 0 0 0 1.683 2.486 2.17 2.17 0 0 0 1.737.131 2.7 2.7 0 0 0 1.537-1.443 12.5 12.5 0 0 0 1.161-3.93c.549-5.582-1.444-10.276-5.913-13.951-5.245-4.31-10.136-6.12-15.387-5.685-2.242-4.725-6.093-7.628-11.765-8.86A1.4 1.4 0 0 1 84.6.86a4 4 0 0 0-.285-.205L84.23.604h-8.188l-.13.027c-.693.292-1.391.575-2.088.858-1.532.622-3.116 1.266-4.627 2.01-3.304 1.627-6.033 4.294-8.574 8.385q-1.008-.001-1.956-.008a159 159 0 0 0-4.2.015c-6.334.136-11.35 2.544-14.91 7.158-4.147 5.373-5.12 11.355-2.888 17.779.349.987 1.01 2.895 2.97 2.894"/><path d="M108.246 73.137q-.545.257-1.115.454l-.283.105.069-1.444c.065-1.32.123-2.532.172-3.746q.079-1.957.168-3.916c.385-8.656.783-17.608-.426-26.406-.647-4.711-1.452-9.266-4.147-13.188a9.31 9.31 0 0 0-13.761-1.985c-.46.377-.906.778-1.313 1.148l-.197.177q-.556-1.017-1.09-2.016c-.955-1.78-1.857-3.46-2.884-5.102-1.697-2.715-4.434-3.886-7.912-3.39a9.65 9.65 0 0 0-7.268 4.9 60 60 0 0 0-2.812 6.1c-.29.695-.579 1.388-.875 2.075l-.27-.438a32 32 0 0 0-1.759-2.653c-2.619-3.433-6.055-4.195-9.943-2.199-2.916 1.497-4.691 3.803-5.135 6.67-.346 2.24-.511 4.537-.67 6.76a132 132 0 0 1-.355 4.278c-.907 8.647-.694 17.435-.49 25.935.097 3.975.198 8.085.179 12.124-.008 1.973.185 3.977.373 5.913.076.787.152 1.583.217 2.377h-.035l-.085.005c-.197-.157-.387-.32-.578-.483-.297-.252-.604-.514-.929-.752-6.683-4.884-13.814-6.613-21.195-5.138a9.63 9.63 0 0 0-7.3 5.907 10.32 10.32 0 0 0 1.46 9.815 24 24 0 0 0 3.621 3.718l.434.387a52.8 52.8 0 0 1 11.983 15.082c4.307 8.283 8.837 16.347 14.314 25.907a17.4 17.4 0 0 0 4.517 5.094C62.41 152.399 72 155.949 82.03 155.949a45.3 45.3 0 0 0 8.986-.919c13.757-2.78 23.13-9.811 28.656-21.491a58.5 58.5 0 0 0 4.866-15.074c1.515-8.621 2.882-17.918 2.626-27.496a31.9 31.9 0 0 0-2.417-11.928 11.84 11.84 0 0 0-6.803-6.569 12.17 12.17 0 0 0-9.697.665m-55.645 20.43c-.131-7.811-.304-16.08-.507-24.572-.042-1.772-.119-3.567-.193-5.307-.138-3.221-.28-6.554-.206-9.82.17-7.514.621-15.073 1.07-22.17.236-3.742.814-4.631 4.069-6.023 2.11 1.398 3.417 3.675 3.99 6.957a146 146 0 0 1 1.833 14.964c.434 6.26.764 12.632 1.084 18.796.187 3.59.373 7.179.58 10.764a5.5 5.5 0 0 0 .721 2.363 2.73 2.73 0 0 0 3.312 1.214 2.424 2.424 0 0 0 1.95-2.521c-.006-.853.015-1.707.036-2.564a41 41 0 0 0-.094-5.212c-.939-9.057-.47-18.269-.019-27.175l.102-2.005c.196-4.004.538-8.007.844-11.397.304-3.377 1.327-6.048 3.127-8.166.96-1.13 1.728-1.65 2.371-1.583.644.067 1.302.733 2.047 2.1 2.483 4.548 3.114 9.593 3.587 14.794.974 10.698.98 22.093.021 36.952-.056.875-.16 1.766-.258 2.629-.128 1.11-.263 2.26-.298 3.399-.049 1.48.329 2.543 1.116 3.158s1.946.713 3.36.303a4.835 4.835 0 0 0 3.65-4.437l.115-1.238c.34-3.056.523-6.127.55-9.202-.073-8.477-.321-17.093-.56-25.425l-.024-.823c-.025-.853-.107-1.72-.187-2.56-.229-2.406-.445-4.677.553-6.915l.295-.671a17.8 17.8 0 0 1 1.97-3.694 2.87 2.87 0 0 1 2.58-1.298 2.84 2.84 0 0 1 2.159 1.872 35.6 35.6 0 0 1 1.883 6.367c1.593 7.182 1.343 14.61 1.102 21.79l-.008.253c-.206 6.129-.307 12.362-.404 18.39l-.105 6.17c-.03 1.629.11 3.297 2.117 4.218 2.723 1.247 3.947.906 5.46-1.517.301-.483.585-.976.87-1.47.38-.66.773-1.343 1.2-1.981 1.492-2.222 2.971-3.664 5.346-3.47 2.768.226 3.681 2.55 4.563 4.798a32.3 32.3 0 0 1 1.878 15.413c-.807 7.482-1.975 14.791-3.012 20.955-.927 5.513-3.31 11.043-7.088 16.431-3.502 5-8.734 8.524-15.994 10.77-12.917 3.997-25.024 1.838-37.013-6.595a12 12 0 0 1-3.05-2.917 104 104 0 0 1-5.669-9.1 364 364 0 0 1-7.9-15.588c-3.998-8.364-9.116-14.952-15.644-20.141a11.3 11.3 0 0 1-2.738-3.191 2.6 2.6 0 0 1-.31-2.118 3.1 3.1 0 0 1 1.812-1.755 10 10 0 0 1 4.095-.86 12.3 12.3 0 0 1 2.277.222c5.74 1.084 9.583 3.22 12.087 6.725a17.4 17.4 0 0 1 2.019 4.476q.209.616.428 1.22c.561 1.54 1.348 2.965 3.282 2.969h.009c1.697 0 2.927-1.055 3.375-2.898a12 12 0 0 0 .386-3.054M15.226 46.033a3.85 3.85 0 0 0 3.179-1.89l.155-.221-4.392-4.786q1.43.095 2.805.194c2.813.197 5.47.385 8.145.454 1.913.011 3.82-.19 5.689-.602a2.72 2.72 0 0 0 1.842-1.233 1.93 1.93 0 0 0 .136-1.64 3.75 3.75 0 0 0-2.354-1.97 10.2 10.2 0 0 0-2.967-.237q-.399.008-.792.009a2461 2461 0 0 0-10.363-.01h-3.538l.618-.663c.646-.694 1.116-1.196 1.62-1.669.774-.722 2.214-2.058 1.056-3.598-.822-1.093-2.166-1.136-3.783-.122q-.506.319-1.007.644l-.408.263q-1.12.722-2.235 1.45c-1.653 1.08-3.362 2.194-5.076 3.23-1.427.863-2.254 2.1-2.269 3.39a3.65 3.65 0 0 0 1.916 3.085 91 91 0 0 0 10.061 5.429c.61.308 1.28.476 1.962.493m108.651-8.429.245.141c.349.16.735.221 1.116.176.122 0 .244-.005.36 0l12.948.574 3.225.142q-.197.301-.394.58a6.9 6.9 0 0 0-1.139 2.155c-.238.985-.253 2.653.459 3.297a3.07 3.07 0 0 0 1.937.572 2.77 2.77 0 0 0 1.474-.353 21.2 21.2 0 0 0 7.536-9.027c.38-.825.154-2.596-.56-3.15a102 102 0 0 0-9.066-6.311 2.13 2.13 0 0 0-1.482-.058 2.52 2.52 0 0 0-1.496.873c-.446.765.03 2.221.544 2.978a9 9 0 0 0 1.848 1.797q.225.181.464.379c-1.09.035-2.15.065-3.19.098a551 551 0 0 0-8.882.316 49 49 0 0 0-6.016.6 2.27 2.27 0 0 0-1.595 1.055 1.87 1.87 0 0 0-.097 1.625c.271.687 1.063 1.14 1.761 1.54"/></g><defs><clipPath id="a"><path fill="#fff" d="M.663.104h151.614v156.208H.663z"/></clipPath></defs></svg>