<svg xmlns="http://www.w3.org/2000/svg" width="142" height="158" fill="none" viewBox="0 0 142 158"><g fill="#000" clip-path="url(#a)"><path d="M84.735 23.57c-.243-4.119-2.993-6.701-7.176-6.738h-.08c-2.842 0-5.058 1.352-7.03 2.813-.574.425-1.137.865-1.798 1.382l-.241.188-.04-.329c-.1-.798-.178-1.429-.296-2.075-.595-3.26-2.483-4.978-5.772-5.254a7.6 7.6 0 0 0-6.294 2.288 33 33 0 0 0-3.454 4.239 300 300 0 0 0-18.4 31.02 16 16 0 0 1-1.05 1.64l-.16.23-.17-.329c-.35-.671-.646-1.237-.947-1.799a21.15 21.15 0 0 0-10.717-9.91 8.18 8.18 0 0 0-8.28.943 8.41 8.41 0 0 0-2.927 8.06c.203 1.14.505 2.258.902 3.344a40.7 40.7 0 0 1 2.127 15.671c-.4 7.089-.532 14.105-.651 21.884-.017 1.755.279 3.5.873 5.152a36.63 36.63 0 0 0 13.579 18.014c1.858 1.293 2.456 2.483 2.37 4.713l-.02.546c-.127 3.242-.263 6.594.656 9.636 4.07 13.516 12.785 22.391 25.913 26.379a33 33 0 0 0 9.599 1.489 28.9 28.9 0 0 0 13.102-3.15 49.2 49.2 0 0 0 13.184-9.546 212 212 0 0 0 15.963-17.839c5.852-7.445 10.46-13.887 13.933-21.134a58.4 58.4 0 0 0 4.11-10.764c1.543-6.038-1.05-10.858-7.115-13.23a3 3 0 0 1-.499-.293l-.103-.065.197-.478q.46-1.06.81-2.161c.148-.492.306-.985.465-1.478a24.4 24.4 0 0 0 1.189-4.776 8.1 8.1 0 0 0-1.746-6.274 8.65 8.65 0 0 0-6.229-2.86l-1.76-.104c.047-.487.097-.965.147-1.444.151-1.444.295-2.804.328-4.19.088-4.11-2.383-6.98-6.449-7.49a9.7 9.7 0 0 0-2.284.072c-.405.046-.938.099-1.454.11h-.143c-1.161.002-1.444-.1-1.504-.148-1.76-2.517-4.387-3.529-6.76-4.376q.12-.372.238-.727.441-1.242.722-2.53l.17-.853c.381-1.607.595-3.248.636-4.899-.045-4.266-3.028-7.24-7.421-7.398a42 42 0 0 0-1.988-.011h-.231c.003-.47.01-.926.015-1.378.016-1.313.031-2.55-.039-3.782m-45.7 29.243c2.5-4.51 5.085-9.174 7.76-13.68 2.996-5.049 6.25-10.063 9.398-14.912l1.571-2.42a10.4 10.4 0 0 1 2.564-2.792c.853-.617 1.677-.797 2.256-.491.558.293.863 1.035.84 2.034a15.7 15.7 0 0 1-.924 5.065 83 83 0 0 1-3.79 8.547c-2.105 4.155-4.28 8.325-6.382 12.358l-.088.168q-1.953 3.747-3.894 7.5l-.121.232a5.1 5.1 0 0 0-.815 2.57 3.45 3.45 0 0 0 1.62 2.49c.74.407 2.264-.145 2.738-.825a45 45 0 0 0 3.314-5.563c4.032-8.078 9.31-16.459 16.61-26.373a13.5 13.5 0 0 1 4.398-3.648c1.025-.554 1.88-.682 2.345-.348.44.317.585 1.108.399 2.166a37.3 37.3 0 0 1-2.62 9.18 165.5 165.5 0 0 1-16.747 28.242l-.255.345c-.187.253-.375.507-.548.768l-.12.18c-.646.962-1.621 2.416-.267 3.878a3.63 3.63 0 0 0 4.743.693 8.24 8.24 0 0 0 2.77-2.788c4.614-7.908 9.513-16.338 14.216-24.826 1.51-2.718 3.093-4.45 5.144-5.617 1.366-.777 2.137-.846 2.662-.235.539.723.774 1.627.656 2.52a32 32 0 0 1-1.843 5.983 2.74 2.74 0 0 1-1.448 1.408c-3.69 1.126-6.003 3.785-7.779 6.236A3134 3134 0 0 0 58.39 77.412c-1.171 1.655-2.242 3.387-3.383 5.23q-.53.858-1.089 1.754l-.731-1.896a23.62 23.62 0 0 0-9.292-11.277c-3.767-2.508-7.071-2.729-10.099-.671-3.298 2.24-4.61 5.506-3.897 9.707.227 1.336.487 2.686.746 4.034.37 1.922.753 3.91 1.035 5.876.55 3.832.006 7.548-.57 11.49-.299 2.048-.607 4.162-.755 6.318l-.065-.019a2.3 2.3 0 0 1-.749-.285c-5.185-4.358-8.452-8.842-9.997-13.71-.959-3.025-.998-6.367-.951-10.108.046-3.695.344-7.453.631-11.087.096-1.221.193-2.442.28-3.664a43.6 43.6 0 0 0-2.446-18.798l-.14-.37c-.625-1.634-1.216-3.177.24-4.21a2.66 2.66 0 0 1 1.582-.526c.942 0 2.043.493 3.272 1.466 5.382 4.258 7.203 8.685 5.727 13.932-.374 1.329-.579 2.975 1.177 3.922.882.475 2.602.932 4.229-1.344a29 29 0 0 0 1.811-3.037l.591-1.083a849 849 0 0 0 3.447-6.186zm-3.277 66.133c.123-1.308.262-2.79.46-4.254.56-4.127 1.158-8.32 1.737-12.374l.611-4.293c.767-5.652.424-11.4-1.01-16.92l-.04-.163a17.5 17.5 0 0 1-.668-3.99 2.31 2.31 0 0 1 .674-1.91 2.5 2.5 0 0 1 2.141-.231 8.3 8.3 0 0 1 1.772.631c5.108 2.516 8.387 10.297 6.62 15.71-.67 2.054-1.143 4.14 1.04 5.1 1.672.736 3.464-.066 4.916-2.208 1.767-2.609 3.518-5.25 5.21-7.8 2.758-4.15 5.602-8.44 8.51-12.587 4.892-6.974 10.024-13.865 15.29-20.899a10 10 0 0 1 3.33-2.836 1.95 1.95 0 0 1 1.968-.108 2.02 2.02 0 0 1 .678 1.892 14.7 14.7 0 0 1-1.13 5.005 87 87 0 0 1-4.791 9.175c-2.846 4.71-5.813 9.456-8.684 14.05a3057 3057 0 0 0-4.26 6.832q-.13.203-.272.413a3.66 3.66 0 0 0-.836 1.98 4.5 4.5 0 0 0 1.097 3.004 1.96 1.96 0 0 0 1.567.59 2.76 2.76 0 0 0 1.913-1.233q.388-.54.781-1.078c.989-1.355 2.01-2.756 2.883-4.23 4.922-8.316 11.01-16.54 19.744-26.66a15.06 15.06 0 0 1 5.482-3.802c1.055-.445 1.893-.496 2.302-.143.41.354.483 1.196.197 2.305a41.4 41.4 0 0 1-3.367 9.298c-5.02 9.223-11.355 18.311-19.929 28.599-.179.215-.365.424-.576.661-.255.287-.511.575-.75.874l-.085.104c-.829 1.031-1.964 2.443-.611 4.201a4.155 4.155 0 0 0 5.076.957 10.7 10.7 0 0 0 3.13-2.838 1154 1154 0 0 0 13.16-18.732c1.186-1.725 2.253-3.561 3.295-5.356q.46-.792.924-1.582a12.08 12.08 0 0 1 5.704-4.994c1.103-.493 2.016-.678 2.888.017.808.646.958 1.548.446 2.68-.464 1.027-.908 2.07-1.354 3.118a52.6 52.6 0 0 1-4.278 8.573c-2.873 4.322-6.063 8.536-9.149 12.61l-.057.076c-1.49 1.97-3.03 4.004-4.517 6.027a83 83 0 0 0-3.976 5.907c-.549.899-1.007 2.159-.645 3.003a6 6 0 0 0 2.577 2.868c.934.473 2.583-.965 3.05-1.593 1.883-2.53 3.733-5.127 5.521-7.638a978 978 0 0 1 3.534-4.932l1.051-1.456c1.585-2.205 3.225-4.486 5.018-6.554a14.4 14.4 0 0 1 4.277-3.24 2.32 2.32 0 0 1 2.043-.275c.501.257.843.905.992 1.875a9.3 9.3 0 0 1-.353 4.317 80 80 0 0 1-3.822 9.26 95.3 95.3 0 0 1-12.558 19.323l-.209.247a16.6 16.6 0 0 0-1.88 2.527c-3.398 6.021-8.417 10.851-13.272 15.522l-.154.148a35.4 35.4 0 0 1-12.053 7.455c-4.824 1.842-10.099 1.783-16.124-.176-10.488-3.413-17.553-10.51-21.599-21.701l-.055-.152a7 7 0 0 1-.453-1.641c-.091-.993-.13-1.998-.172-3.161l-.005-.153c-.018-.471-.037-.97-.062-1.456.05-.48.098-1.002.15-1.553l-.336-.031zM37.873.696h-.306l-.657.031c-.317.029-.737.066-1.152.132a50.2 50.2 0 0 0-19.28 7.23A36.57 36.57 0 0 0 .691 28.805a16.7 16.7 0 0 0-.634 3.754c-.06.892-.2 2.98 1.903 3.264q.164.022.328.022c1.387 0 1.807-1.29 2.058-2.06q.056-.174.113-.339c.22-.618.42-1.247.62-1.871.336-1.05.683-2.141 1.123-3.162 4.851-11.244 13.915-18.2 27.705-21.265a32 32 0 0 1 2.05-.367c.853-.131 1.731-.273 2.647-.507 1.309-.333 3.102-.787 3.212-2.926a2 2 0 0 0-.545-1.48c-.654-.71-1.86-1.125-3.4-1.173m87.6 134.761a65.4 65.4 0 0 1-13.77 9.32 14.3 14.3 0 0 0-2.054 1.408c-.304.235-.616.476-.948.714l-.57.41.501.491a5 5 0 0 0 1.603 1.182 5 5 0 0 0 1.938.458 7.76 7.76 0 0 0 3.32-.953c4.835-2.289 9.533-5.522 14.785-10.173 5.346-4.735 8.85-10.952 10.414-18.48.537-2.58.228-5.382-.044-7.859-.262-2.375-1.449-3.679-3.531-3.877l-.304-.028-.197.233c-1.328 1.554-1.28 3.249-1.238 4.75.009.307.018.612.014.912-.112 8.524-3.353 15.555-9.919 21.492"/><path d="M126.953 111.315a2.05 2.05 0 0 0-1.681-.471c-2.438.345-2.466 2.356-2.485 3.686q0 .282-.012.555a17.85 17.85 0 0 1-7.46 14.231 44 44 0 0 1-4.632 2.863c-.647.364-1.294.728-1.931 1.103a9 9 0 0 1-.806.394c-.617.226-1.18.58-1.65 1.039-.542.607-1.194 1.944-.869 2.888.316.919 1.668 1.541 2.522 1.633q.158.017.316.017a6.9 6.9 0 0 0 2.439-.633l.105-.042a30.7 30.7 0 0 0 10.344-6.625 22.64 22.64 0 0 0 7.101-16.015v-.696c-.048-1.887-.497-3.245-1.301-3.927M17.983 35.801l.282-.263c.121-.11.227-.196.325-.274.22-.145.395-.348.506-.586 3.055-7.807 8.73-12.982 16.877-15.38a11.7 11.7 0 0 0 3.368-1.89 2.11 2.11 0 0 0 .697-2.172 3 3 0 0 0-1.812-1.485 4.2 4.2 0 0 0-2.297.215c-6.18 1.984-10.754 4.625-14.396 8.312-2.354 2.383-4.075 5.405-5.416 9.509-.394 1.202-.664 2.91 1.51 3.859z"/></g><defs><clipPath id="a"><path fill="#fff" d="M.006.448H141.12v156.865H.006z"/></clipPath></defs></svg>