<svg xmlns="http://www.w3.org/2000/svg" width="143" height="144" fill="none" viewBox="0 0 143 144"><g fill="#000" clip-path="url(#a)"><path d="M139.56 66.44c-2.196-5.667-7.421-8.572-13.315-7.402-1.411.35-2.769.886-4.04 1.592-.497.248-1.008.504-1.519.734-4.144-6.557-6.018-7.518-15.521-7.982q0-.28.005-.566c.007-.657.015-1.337-.012-2.014q-.154-4.014-.291-8.027c-.237-6.74-.482-13.71-.887-20.556-.417-7.042-2.232-12.806-5.548-17.624-2.61-3.792-6.941-4.919-11.039-2.871a10.67 10.67 0 0 0-5.104 5.034c-.828 1.777-1.557 3.645-2.261 5.45q-.351.904-.71 1.811l-.355-.583c-.511-.843-1.039-1.715-1.64-2.522-2.651-3.544-6.282-4.323-10.224-2.2a9.5 9.5 0 0 0-4.857 6.095 25.6 25.6 0 0 0-.953 5.703l-.123 3.29c-.28 7.417-.57 15.084-.576 22.629-.006 6.145.178 12.153.373 18.515.077 2.508.155 5.03.22 7.57l-.154-.123c-.484-.39-.943-.759-1.424-1.1-6.805-4.817-13.952-6.473-21.243-4.922a9.55 9.55 0 0 0-6.991 5.695 9.92 9.92 0 0 0 .984 9.307 24.7 24.7 0 0 0 4.349 4.655l.05.046c5.304 4.786 9.232 9.714 12.012 15.069 4.181 8.059 8.866 16.534 14.322 25.909 1.43 2.454 3.712 4.463 5.542 5.938 3.456 2.788 7.587 5.068 13.003 7.177a41 41 0 0 0 15.058 2.857 50.4 50.4 0 0 0 17.103-3.208 36.6 36.6 0 0 0 11.3-6.771 35.9 35.9 0 0 0 10.223-14.606c5.195-13.324 7.22-27.857 6.187-44.438a26 26 0 0 0-1.944-7.562M72.672 126.48a12 12 0 0 1-3.001-2.97c-1.764-2.625-3.814-5.761-5.628-9.127a329 329 0 0 1-7.436-14.691c-4.266-8.97-9.57-15.826-16.211-20.958a2 2 0 0 1-.216-.185c-.212-.225-.434-.446-.656-.667-1.266-1.255-2.461-2.44-1.823-4.417.691-2.135 2.62-2.489 4.66-2.489h.301c7.154.108 12.491 2.757 15.87 7.876a13 13 0 0 1 1.4 3.55c.1.348.196.694.303 1.034.443 1.433 1.166 2.924 3.166 3.115 1.64.16 3.045-1.068 3.593-3.12.23-.897.335-1.82.313-2.747A4390 4390 0 0 0 66.8 56.45a338 338 0 0 0-.191-5.513c-.14-3.486-.285-7.089-.209-10.626.141-6.608.553-13.323.952-19.818l.124-2.017c.148-2.418.753-4.993 4.093-5.817 2.162 1.633 3.474 3.989 4.007 7.196.888 5.33 1.471 10.118 1.782 14.636.448 6.484.788 13.088 1.116 19.474q.263 5.045.536 10.09c.046.709.216 1.404.505 2.052a2.79 2.79 0 0 0 3.427 1.665 2.53 2.53 0 0 0 2.078-2.788c-.017-.932 0-1.887.02-2.81a41 41 0 0 0-.1-4.961c-.961-9.505-.426-19.165.093-28.504l.074-1.347c.197-3.59.48-7.118.756-10.395a14.7 14.7 0 0 1 2.865-7.949c1.013-1.325 1.854-1.941 2.575-1.883s1.452.804 2.237 2.28c2.4 4.497 3.02 9.46 3.449 14.158C97.99 34.543 98 46.147 97.021 61.2a47 47 0 0 1-.272 2.625c-.096.779-.197 1.585-.257 2.383l-.025.31c-.12 1.445-.27 3.241 1.857 3.982 1.94.676 4.54-.435 5.564-2.374.37-.729.624-1.511.749-2.32.207-1.216.313-2.464.417-3.706.137-1.63.637-2.75 1.487-3.331.829-.567 2.006-.63 3.503-.187 2.921.864 4.741 2.77 5.264 5.513.265 1.603.418 3.222.459 4.846q.026.563.056 1.125c.089 1.636.43 3.226 2.307 3.78 2.184.645 3.255-.842 4.085-2.288l.234-.408a30 30 0 0 1 2.436-3.807c1.504-1.891 3.292-2.834 4.923-2.586 1.531.233 2.811 1.492 3.605 3.544a34.8 34.8 0 0 1 2.516 10.945c.42 10.116-1.429 19.959-3.295 28.252a42.1 42.1 0 0 1-6.694 14.833c-3.434 4.927-8.694 8.542-15.634 10.745-13.031 4.132-25.691 1.917-37.631-6.595zM38.741 42.817a2.56 2.56 0 0 0-.753-1.876c-1.669-1.575-3.513-.365-4.12.033-.797.525-1.546 1.123-2.412 1.816q-.403.322-.854.676l-.978-13.8h13.505q-.372.622-.722 1.18a14.2 14.2 0 0 0-1.663 3.24c-.328 1.085-.135 2.877.621 3.652 1.021 1.046 2.634.9 4.112-.368a7.3 7.3 0 0 0 1.396-1.581l.784-1.232c1.171-1.838 2.382-3.732 3.442-5.677 1.735-3.18 1.298-5.197-1.615-7.44-1.05-.812-2.166-1.567-3.248-2.298-.931-.63-1.893-1.28-2.805-1.96-1.066-.796-2.457-1.552-3.752-.316-1.121 1.069-1.105 2.525.044 4.1a63 63 0 0 0 1.56 2.022l.331.42H29.37V11.296q.48.264.95.53a19 19 0 0 0 3.461 1.661 4 4 0 0 0 3.324-.605c.734-.623 1.292-1.784-.217-3.772a5 5 0 0 0-1.003-1.038c-.622-.446-1.235-.91-1.848-1.373a35 35 0 0 0-5.113-3.413c-1.5-.761-3.832-1.212-5.394-.602-4.43 1.736-6.81 5.698-9.111 9.529l-.106.176c-.385.64-.113 2.17.455 2.56a3.15 3.15 0 0 0 2.783.262 12.5 12.5 0 0 0 2.677-2.123q.241-.23.48-.455c.698-.65 1.36-1.338 2.127-2.133l.614-.637v13.84l-13.676.774q.417-.507.795-.957a28 28 0 0 0 2.274-2.971 2.54 2.54 0 0 0-.128-2.472 2.88 2.88 0 0 0-2.354-.67 3.63 3.63 0 0 0-1.865 1.16l-.985.984c-2.022 2.02-4.112 4.11-6.057 6.27-1.499 1.665-1.439 3.545.17 5.288 1.451 1.575 3.06 3.046 4.619 4.47.51.554 1.19.925 1.932 1.055.996.072 2.388.09 2.995-.571.634-.69.562-2.21.308-3.067a7.3 7.3 0 0 0-1.192-2.079c-.14-.197-.285-.397-.435-.612h13.93l.6 15.639-3.75-2.713a26 26 0 0 1-1.018-.788 12.4 12.4 0 0 0-2.613-1.735c-.827-.364-2.498-.182-3.01.494-.406.535-.37 1.547.103 3.007a3.26 3.26 0 0 0 1.199 1.363c.098.078.197.155.287.231a853 853 0 0 0 8.33 6.839 4.5 4.5 0 0 0 2.828 1.11 4 4 0 0 0 2.56-.985 146 146 0 0 0 8.315-7.39 3.58 3.58 0 0 0 1.13-2.56"/></g><defs><clipPath id="a"><path fill="#fff" d="M.28.23h141.769v143.083H.279z"/></clipPath></defs></svg>