<svg xmlns="http://www.w3.org/2000/svg" width="127" height="143" fill="none" viewBox="0 0 127 143"><g fill="#000" clip-path="url(#a)"><path d="M125.572 75.523c-.145-3.212-1.099-6.417-2.022-9.517l-.112-.376a10.35 10.35 0 0 0-6.158-6.705c-4.556-1.918-8.833-1.296-12.721 1.845-1.793-4.092-4.722-6.708-8.712-7.778-4.678-1.254-8.48-.255-11.306 2.972-4.794-6.583-8.34-7.274-15.919-3.085q-.127-1.88-.24-3.741c-.198-3.108-.394-6.322-.708-9.46-.618-6.236-1.323-12.93-2.28-19.713a21.9 21.9 0 0 0-4.229-9.971c-2.625-3.558-6.252-4.34-10.221-2.205a9.57 9.57 0 0 0-4.862 6.088 24.5 24.5 0 0 0-.924 5.365q-.083 1.776-.17 3.552c-.287 5.893-.583 11.987-.578 17.983.005 7.291.174 14.435.353 22q.105 4.404.196 8.88l-.14-.128a14 14 0 0 0-1.09-.927c-6.8-4.988-14.031-6.723-21.496-5.159a9.56 9.56 0 0 0-7.004 5.661 9.95 9.95 0 0 0 .94 9.32 22 22 0 0 0 4.134 4.507 52.7 52.7 0 0 1 12.598 15.847c3.821 7.416 8.138 15.227 13.993 25.312a21.8 21.8 0 0 0 5.26 5.746 48.6 48.6 0 0 0 13.893 7.642 41.1 41.1 0 0 0 14.48 2.631 50.3 50.3 0 0 0 17.042-3.188 36.8 36.8 0 0 0 11.051-6.525c5.927-4.905 10.057-11.609 12.627-20.495a112.3 112.3 0 0 0 4.325-36.378m-74.429 4.143c-.13-7.83-.305-16.098-.507-24.573a241 241 0 0 0-.197-5.229c-.136-3.138-.277-6.382-.205-9.564.157-6.851.56-13.814.949-20.548l.114-1.964c.153-2.68.755-5.26 4.064-6.033 2.116 1.384 3.426 3.663 4.003 6.957.868 4.953 1.48 9.948 1.831 14.964.455 6.552.797 13.224 1.129 19.675q.253 4.946.525 9.892c.114 2.055.95 3.242 2.554 3.63 1.62.394 2.953-.47 3.962-2.567l.453-.945c.935-1.955 1.903-3.977 3-5.871.664-1.144 1.864-2.424 3.84-2.028a3.9 3.9 0 0 1 3.154 3.46 39 39 0 0 1 .494 6.276c.01 2.873.385 4.281 2.48 4.51 2.053.223 2.764-.984 3.575-3.784a31.7 31.7 0 0 1 2.334-6.18c1.269-2.351 2.779-2.877 5.574-1.937 2.757.928 4.407 2.762 4.893 5.448a37 37 0 0 1 .44 4.756q.03.612.065 1.22c.087 1.537.44 3.18 2.396 3.717s3.019-.685 3.872-2.087q.367-.607.727-1.222a25.7 25.7 0 0 1 2.344-3.528c1.384-1.65 2.972-2.454 4.469-2.265s2.835 1.364 3.766 3.307c2.363 4.928 3.221 10.623 2.555 16.93-.672 6.374-1.649 13.138-3.073 21.284a39.8 39.8 0 0 1-7.194 16.38c-3.518 4.879-8.683 8.32-15.793 10.518-12.96 4.004-25.068 1.854-37.017-6.579a13.2 13.2 0 0 1-3.26-3.179 95 95 0 0 1-5.473-8.827 376 376 0 0 1-7.897-15.59c-4.004-8.373-9.118-14.965-15.64-20.15a11.4 11.4 0 0 1-2.745-3.188 2.6 2.6 0 0 1-.309-2.12 3.1 3.1 0 0 1 1.79-1.761 9.9 9.9 0 0 1 4.09-.868c.766.002 1.53.079 2.281.227 6.104 1.173 9.955 3.405 12.492 7.237a16.2 16.2 0 0 1 1.685 4.02q.182.575.371 1.14c.5 1.47 1.28 2.975 3.272 2.989h.028c1.69 0 2.915-1.05 3.366-2.884.256-1.002.382-2.032.375-3.066zM16.671 5.934c.51-.59 1.862-2.165.288-3.725-.975-.967-2.246-.874-3.488.26-3.983 3.636-8.207 7.524-12.215 11.55-.804.808-1.356 2.925-.787 3.757a222 222 0 0 0 9.983 13.462 2.57 2.57 0 0 0 2.007.915h.025a2.68 2.68 0 0 0 2.118-1.025 4.6 4.6 0 0 0 .611-3.638 8.6 8.6 0 0 0-1.752-2.896q-.233-.29-.455-.578a191 191 0 0 0-3.242-4.069q-.568-.698-1.15-1.419l.156-.054q.26-.116.542-.142 4.35.021 8.701.056c4.5.033 9 .066 13.5.074h.332a61 61 0 0 0 7.411-.286 3.37 3.37 0 0 0 3.116-3.24 3.186 3.186 0 0 0-2.908-3.384 44.5 44.5 0 0 0-7.363-.345c-4.98.193-10.042.47-14.932.736q-2.838.156-5.676.306l-.171-.278q.717-.806 1.439-1.608c1.29-1.445 2.626-2.935 3.91-4.429m77.787 4.385q-2.897.085-5.792.15c-3.617.09-7.358.181-11.037.334-1.6.029-3.18.346-4.668.936-.808.346-1.41 1.789-1.371 2.752.034.83 1.303 1.652 2.004 1.88.808.21 1.646.285 2.479.219q.316-.01.627-.01 4.936 0 9.871-.008 5.335-.007 10.67-.007c.525 0 1.07.047 1.757.105l.637.054-.869.966c-.87.965-1.624 1.8-2.333 2.673q-.253.31-.51.619a14.6 14.6 0 0 0-2.25 3.268c-.412.924-.366 2.637.308 3.377.606.666 1.837.702 2.923.733l.334.01h.042a2.57 2.57 0 0 0 1.667-.888q1.083-1.205 2.175-2.403c2.691-2.967 5.476-6.038 8.04-9.2 1.456-1.795 1.292-3.634-.474-5.316a218 218 0 0 0-10.286-9.198c-.7-.586-2.286-.565-3.095-.136-.705.374-.981 1.948-.78 2.738a7.8 7.8 0 0 0 1.713 2.995 26 26 0 0 0 2.281 2.26c.284.262.59.539.915.844-.529.028-1.02.057-1.482.084-1.345.076-2.409.137-3.496.169"/></g><defs><clipPath id="a"><path fill="#fff" d="M.054.543h126.017v141.77H.054z"/></clipPath></defs></svg>