<svg xmlns="http://www.w3.org/2000/svg" width="156" height="157" fill="none" viewBox="0 0 156 157"><g fill="#000" clip-path="url(#a)"><path d="M128.524 2.77A152 152 0 0 0 110.121.332c-5.208-.454-9.644 0-13.56 1.378-3.174 1.116-5.467 3.18-6.459 5.805-.98 2.596-.634 5.614.976 8.498.131.237.254.479.41.788l.013.024a10.84 10.84 0 0 0-5.601 6.74c-.935 3.151-.27 6.015 2.035 8.754-1.783 1.332-3.603 3-3.807 5.71a9.77 9.77 0 0 0 1.54 6.006l.107.184c-.73.055-1.553.109-2.37.163-.862.057-1.717.113-2.464.17-3.953.303-8.041.616-12.103 1.033-5.481.563-10.374 1.26-14.728 4.082-2.389 1.548-3.672 3.826-3.52 6.25.15 2.414 1.706 4.506 4.258 5.741a14.9 14.9 0 0 0 5.395 1.35c4.589.297 9.923.61 15.175.562 5.878-.054 11.675-.239 17.867-.435q3.326-.106 6.737-.207l-.055.08a63 63 0 0 0-1.05 1.542 21.8 21.8 0 0 0-3.31 14.206c.32 3.479 1.904 5.76 4.716 6.78a10 10 0 0 0 3.4.645 7.8 7.8 0 0 0 5.105-1.915q1.395-1.227 2.592-2.645l.495-.557c3.69-4.108 7.202-6.917 11.056-8.842 4.003-1.998 7.991-4.163 11.85-6.256l2.145-1.162c4.518-2.444 10.116-6.065 13.335-12.43 1.883-3.722 3.701-7.777 4.26-12.209 1.395-11.066-1.194-20.123-7.915-27.687-4.318-4.859-10.246-8.035-18.122-9.708m-19.511 60.75c1.863-.309 2.868-1.43 2.757-3.077-.114-1.718-1.342-2.774-3.369-2.897a28 28 0 0 0-3.102.048 38 38 0 0 1-1.979.075c-3.355.017-6.712.013-10.069.01h-.366c-.087.007-8.804.591-10.996.561-6.756-.111-13.742-.227-20.635-.399-1.497 0-2.98-.275-4.377-.811-.985-.412-1.565-1.017-1.587-1.66-.021-.618.485-1.231 1.39-1.683a19.1 19.1 0 0 1 6.455-2.114c4.637-.486 9.375-.794 13.957-1.092 1.942-.126 3.884-.252 5.824-.394q5.376-.386 10.746-.806l.243-.017c2.75 0 3.383-1.79 3.395-2.479.016-.919-.347-2.399-1.417-2.721l-.088-.026a28 28 0 0 1-5.128-1.97 2.877 2.877 0 0 1-1.274-3.696l.044-.087c.465-.912.904-1.772 1.817-2.08a11.7 11.7 0 0 1 3.696-.348c.263 0 .52.004.776.004h.16c1.379 0 3.265-.005 3.532-2.26.253-2.137-1.485-2.606-2.663-2.925a19 19 0 0 1-.415-.116l-.722-.209a19.4 19.4 0 0 1-3.303-1.164 3.9 3.9 0 0 1-2.25-2.429c-.243-1.01.09-2.17.962-3.358a5.77 5.77 0 0 1 4.498-2.293c.393-.03.812-.033 1.214-.034a8.9 8.9 0 0 0 2.588-.268 3.96 3.96 0 0 0 2.404-2.218c.298-.9-.645-2.174-1.312-2.765a9 9 0 0 0-1.816-1.166 13 13 0 0 1-1.108-.64c-1.58-1.06-2.867-2.094-2.614-4.003.233-1.756 1.675-2.352 3.347-3.043 3.38-1.398 7.19-1.9 11.651-1.535 4.725.384 9.476 1.05 14.334 1.755a34.7 34.7 0 0 1 13.808 5.359c4.147 2.674 7.033 6.815 8.821 12.658 2.908 9.5 1.367 18.7-4.58 27.347a11.1 11.1 0 0 1-3.329 3.355c-5.26 3.085-10.928 6.344-16.737 9.286-7.735 3.918-12.923 7.941-16.818 13.044a6.7 6.7 0 0 1-1.571 1.475 2.32 2.32 0 0 1-1.965.51 2.42 2.42 0 0 1-1.328-1.655 7 7 0 0 1-.475-2.414c.065-4.5 2.958-11.636 8.976-12.635zm-8.437 30.363a16.8 16.8 0 0 0-4.751-1.028l-.652-.04c-4.425-.271-9-.552-13.51-.511-5.003.042-10.086.215-15.025.384-2.398.082-4.796.164-7.194.231-.914.026-1.824.02-2.878.013h-.513c.3-.404.536-.722.76-1.05a21.82 21.82 0 0 0 3.708-14.443c-.284-3.721-1.846-6.045-4.774-7.106-3.33-1.207-6.283-.698-8.778 1.515q-1.187 1.098-2.232 2.332-.288.328-.578.653c-3.675 4.099-7.19 6.906-11.06 8.836a297 297 0 0 0-13.991 7.447l-1.015.573c-3.202 1.797-6.513 3.656-8.86 6.729-8.214 10.757-10.223 22.475-5.974 34.827a27.28 27.28 0 0 0 11.128 14.469 37.2 37.2 0 0 0 14.89 5.776l1.803.258c4.769.686 9.7 1.394 14.585 1.79 1.482.12 2.83.178 4.124.178 3.557.08 7.096-.529 10.423-1.792a9.35 9.35 0 0 0 5.826-5.691 9.34 9.34 0 0 0-.854-8.1l-.6-1.094a10.78 10.78 0 0 0 5.618-6.751c.913-3.071.24-5.993-1.995-8.691 4.455-3.948 4.937-6.407 2.27-11.907q2.323-.186 4.603-.358c4.2-.322 8.166-.627 12.204-1.04 5.113-.525 10.064-1.215 14.431-3.904 2.1-1.296 4.2-3.049 3.771-6.226a7.36 7.36 0 0 0-4.91-6.28M63.902 106.44a8.5 8.5 0 0 0-2.788.411c-.881.343-2.227 1.337-2.318 2.379-.085.978.902 2.044 1.745 2.766a3.6 3.6 0 0 0 1.428.64q.437.103.843.298l.6.328a16 16 0 0 1 2.982 1.9 2.69 2.69 0 0 1 1.081 2.443 2.62 2.62 0 0 1-1.846 1.838 12.6 12.6 0 0 1-3.315.534c-.394.029-.783.057-1.168.097a5 5 0 0 1-.859-.022 3.8 3.8 0 0 0-1.614.108c-.784.286-1.92 1.169-1.923 2.017a3.24 3.24 0 0 0 1.495 2.617c.825.362 1.682.645 2.56.844q.994.234 1.95.59c2.071.823 3.42 1.518 3.294 3.61a5.065 5.065 0 0 1-3.77 4.588c-1.05.222-2.12.345-3.193.366-.464.024-.928.049-1.388.088-1.424.123-2.979.41-3.413 2.271-.45 1.936 1.023 2.781 2.1 3.398l.543.31q1.068.58 2.063 1.28c1.631 1.203 2.448 2.512 2.301 3.686-.142 1.131-1.196 2.151-2.97 2.871a17.4 17.4 0 0 1-5.63 1.51c-13.112.525-22.864-1.074-31.614-5.18-5.52-2.591-9.268-6.929-11.462-13.258-3.647-10.532-1.98-20.395 4.955-29.312 1.844-2.37 4.778-4.047 7.618-5.668l1.116-.639c2.91-1.686 5.978-3.227 8.954-4.726a297 297 0 0 0 5.06-2.58 40 40 0 0 0 12.41-10.025l.09-.11a16 16 0 0 1 2.116-2.267 3.2 3.2 0 0 1 1.88-.857q.188 0 .368.05c.605.17 1.112.801 1.467 1.824a6.3 6.3 0 0 1 .394 1.796c.181 4.642-2.851 11.968-8.808 13.07-2.675.495-3.047 2.081-2.888 3.323.123.964.747 2.598 3.527 2.717 1.217.054 2.442-.012 3.69-.078.578-.032 1.157-.066 1.734-.08q3.06-.101 6.117-.22l.153-.005c4.782-.183 9.727-.371 14.586-.378 7.1 0 14.523.262 21.074.497l1.123.04c2.302.083 3.95.586 4.488 2.748-1.11 1.755-2.982 2.363-4.499 2.699a68 68 0 0 1-9.548 1.503c-4.98.378-10.053.656-14.991.918q-3.591.198-7.182.403-.358.016-.718.029"/></g><defs><clipPath id="a"><path fill="#fff" d="M.8.104h154.24v156.208H.8z"/></clipPath></defs></svg>