<svg xmlns="http://www.w3.org/2000/svg" width="140" height="140" fill="none" viewBox="0 0 140 140"><g fill="#000" clip-path="url(#a)"><path d="M137.221 62.602c-1.864-5.054-6.394-7.792-11.837-7.154a20 20 0 0 0-5.003 1.526c-.665.266-1.348.54-2.044.788a12.45 12.45 0 0 0-8.656-7.367c-4.589-1.201-8.346-.186-11.18 3.02-4.714-6.612-8.952-7.4-15.883-2.927-.09-1.316-.171-2.607-.252-3.877-.203-3.216-.394-6.252-.696-9.31-.787-7.993-1.484-14.073-2.252-19.712a22.35 22.35 0 0 0-4.151-10.003c-2.674-3.741-6.395-4.543-10.474-2.266a9.66 9.66 0 0 0-4.759 6.164 24.3 24.3 0 0 0-.829 4.694c-.07 1.131-.148 2.263-.225 3.395-.285 4.179-.578 8.5-.552 12.754.051 8.215.245 16.564.434 24.639q.12 5.178.23 10.357c.01.47.008.942.005 1.528v.358l-.166-.145c-.407-.354-.73-.634-1.069-.893-6.463-4.95-13.574-6.769-21.134-5.41a9.71 9.71 0 0 0-7.6 5.99 10.44 10.44 0 0 0 1.697 10.115 17.7 17.7 0 0 0 2.308 2.353 23 23 0 0 1 1.75 1.687c.89.992 1.821 1.98 2.722 2.938a62.7 62.7 0 0 1 6.873 8.187 104 104 0 0 1 5.687 10.251c.949 1.873 1.93 3.807 2.953 5.68l.6 1.095c2.351 4.285 4.78 8.717 7.46 12.896a24 24 0 0 0 5.366 5.631 48.2 48.2 0 0 0 12.38 6.907 41.6 41.6 0 0 0 15.651 3.045 49 49 0 0 0 17.124-3.262c3.798-1.414 7.22-3.838 10.684-6.409 6.022-4.47 10.121-11.039 12.895-20.675a112 112 0 0 0 4.289-36.046 35.5 35.5 0 0 0-2.346-10.542M35.544 69.97c.705-2.126 2.71-2.475 4.66-2.475h.315c7.159.124 12.496 2.782 15.863 7.901a12.8 12.8 0 0 1 1.378 3.516c.103.36.206.722.315 1.072.444 1.43 1.17 2.917 3.185 3.094 1.627.147 3.034-1.091 3.575-3.147.227-.897.33-1.822.305-2.747-.131-7.28-.298-15.208-.506-24.236-.045-1.928-.116-3.855-.186-5.783-.141-3.84-.287-7.81-.21-11.706.116-5.986.517-12.072.905-17.956l.166-2.53c.157-2.413.771-4.98 4.103-5.793 2.176 1.678 3.485 4.043 4 7.224.874 5.388 1.457 10.287 1.781 14.978.423 6.088.746 12.286 1.059 18.281.19 3.65.38 7.3.59 10.949.132 2.27 1.147 3.604 2.855 3.754 2.265.206 3.084-1.493 3.75-2.852.271-.553.534-1.116.796-1.678a28.7 28.7 0 0 1 2.943-5.303c.97-1.274 2.231-1.896 3.444-1.707 1.292.197 2.369 1.256 2.958 2.896a17 17 0 0 1 .714 4.325q.034.436.072.869.06 1-.044 1.998c-.033.444-.066.889-.07 1.331a2.61 2.61 0 0 0 2.434 2.888 2.64 2.64 0 0 0 3.143-2.09l.197-.745c.1-.394.201-.793.323-1.181.121-.388.229-.767.34-1.152a21 21 0 0 1 1.007-2.948l.097-.211c.953-2.087 1.843-4.055 4.507-3.906 2.197.125 5.065.959 6.255 4.225.546 1.745.876 3.55.985 5.375l.079.776c.038.35.05.707.066 1.063.054 1.538.116 3.282 2.267 4.036 1.884.66 2.9-.394 4.599-3.166a22.4 22.4 0 0 1 3.312-4.516 4.43 4.43 0 0 1 3.652-1.415 4.51 4.51 0 0 1 3.161 2.416 22.05 22.05 0 0 1 3.113 12.383c-.466 7.411-1.302 14.675-2.265 22.722-.742 6.199-3.216 11.749-5.542 16.366-3.51 6.965-9.463 11.708-18.201 14.499-12.683 4.05-25.138 1.867-37.013-6.49a12.9 12.9 0 0 1-3.276-3.159 102 102 0 0 1-5.629-9.123 331 331 0 0 1-7.436-14.691c-4.266-8.966-9.574-15.818-16.218-20.953a2 2 0 0 1-.215-.187q-.314-.329-.643-.653c-1.27-1.266-2.472-2.458-1.815-4.438"/><path d="M38.126 43.284a3.66 3.66 0 0 0 1.151-2.591 2.54 2.54 0 0 0-.722-1.852c-1.123-1.094-2.47-1.098-4.117-.012-.8.525-1.55 1.13-2.42 1.827-.275.22-.561.45-.867.691l-.985-13.625h13.39q-.313.52-.618 1.004a14 14 0 0 0-1.641 3.193c-.336 1.091-.182 2.865.575 3.665 1.008 1.064 2.622.939 4.114-.319a7.1 7.1 0 0 0 1.404-1.575l.746-1.167c1.185-1.855 2.41-3.773 3.487-5.737 1.75-3.194 1.325-5.213-1.57-7.45-1.05-.811-2.161-1.563-3.238-2.291-.934-.63-1.904-1.283-2.813-1.97-1.09-.816-2.691-1.715-4.011-.095-.977 1.198-.792 2.736.495 4.112a24 24 0 0 0 1.801 1.667q.242.209.5.436c-.938.057-1.855.127-2.755.197-3.545.268-6.9.525-10.431-.074V18.81c0-3.026 0-5.947.009-8.868a4.6 4.6 0 0 1 .104-.8l.01-.058q.593.313 1.163.625a24.6 24.6 0 0 0 3.707 1.765c.892.307 2.615-.041 3.046-.772.432-.73.263-1.799.115-2.736q-.042-.266-.079-.516a2.2 2.2 0 0 0-.977-1.247q-.912-.659-1.82-1.326C33.068 3.548 31.194 2.174 29.24.991c-2.449-1.483-5.135-1.29-7.01.504a77 77 0 0 0-7.1 8.082c-.572.728-.43 2.456.09 3.168a1.9 1.9 0 0 0 1.27.777 3.1 3.1 0 0 0 2.243-.695 19.5 19.5 0 0 0 2.1-1.93q.31-.316.623-.625c.621-.612 1.232-1.235 1.963-1.98l.59-.6v13.875l-13.724.788q.41-.478.78-.898a20.4 20.4 0 0 0 2.14-2.718c.42-.684.59-2.38.014-2.782-.757-.525-1.932-.496-2.872-.41a2.6 2.6 0 0 0-1.427.956l-.117.12q-.738.75-1.48 1.499c-1.768 1.788-3.596 3.637-5.305 5.541-1.51 1.681-1.465 3.56.122 5.29 1.228 1.339 2.582 2.594 3.892 3.807l.718.666c.423.486.994.82 1.626.949l.379.026c1.092.079 2.33.167 2.917-.45.85-.893.298-3.102.232-3.35a5.5 5.5 0 0 0-1.135-1.882c-.152-.197-.316-.403-.486-.63h14.035l.608 15.72-1.05-.755c-.994-.716-1.837-1.322-2.677-1.93-.348-.253-.69-.526-1.031-.796a12.4 12.4 0 0 0-2.595-1.73c-.844-.376-2.494-.227-3.023.44-.53.668-.257 2.001.058 3.012a3.2 3.2 0 0 0 1.197 1.37q.15.117.287.23a922 922 0 0 0 8.323 6.845 4.52 4.52 0 0 0 2.851 1.108 4.4 4.4 0 0 0 2.83-1.116 143 143 0 0 0 8.03-7.203"/></g><defs><clipPath id="a"><path fill="#fff" d="M.777 0h139.144v139.8H.777z"/></clipPath></defs></svg>