<svg xmlns="http://www.w3.org/2000/svg" width="113" height="136" fill="none" viewBox="0 0 113 136"><g clip-path="url(#a)"><path fill="#000" d="M101.439 16.913a45.9 45.9 0 0 1 6.779 15.114c2.691 11.092 3.976 20.67 3.976 29.732a94 94 0 0 1-.118 4.726 35.4 35.4 0 0 1-2.357 10.551c-1.989 5.298-7.16 8.146-12.869 7.089a17.6 17.6 0 0 1-4.12-1.52c-.519-.24-1.05-.49-1.587-.714-6.51 8.781-11.486 9.944-20.215 4.708-1.612 2.38-3.594 4.623-6.95 5.293-3.238.648-5.81-.66-8.746-2.52-.082 1.26-.154 2.494-.225 3.704-.178 3.04-.348 5.907-.633 8.795l-.248 2.524c-.585 5.988-1.19 12.178-2.165 18.211-.471 2.907-1.877 5.678-3.237 8.358l-.075.146c-1.691 3.335-4.207 4.932-7.273 4.617-3.862-.398-6.654-2.386-7.86-5.596a35.7 35.7 0 0 1-1.624-7.477l-.112-.773a24.4 24.4 0 0 1-.154-3.775c.006-.551.012-1.102 0-1.65q-.073-3.84-.166-7.679c-.13-5.868-.27-11.936-.292-17.906-.017-4.624.103-9.198.229-14.046.05-1.957.102-3.943.146-5.972l-.52.397a63 63 0 0 1-1.5 1.122 27.96 27.96 0 0 1-19.034 5.038c-4.337-.356-7.195-2.277-8.494-5.711C.41 67.505.97 63.778 3.661 60.618a21 21 0 0 1 1.919-1.894 23 23 0 0 0 1.689-1.637 162 162 0 0 1 2.785-3.003 60.3 60.3 0 0 0 6.821-8.123c2.101-3.362 4.01-6.84 5.72-10.416.97-1.937 1.973-3.938 3.025-5.872 2.468-4.528 5.12-9.345 8.041-14.026a19.2 19.2 0 0 1 4.626-4.985C51.694.434 66.324-2.296 81.77 2.55a36.36 36.36 0 0 1 19.669 14.363M33.889 56.8c1.683-.008 2.917 1.05 3.386 2.906.245 1.005.368 2.036.364 3.07.007 2.352-.014 7.083-.04 13.07-.065 14.818-.163 37.209.093 45.162a41 41 0 0 0 .666 5.625c.15.833.48 1.624.97 2.316.76 1.046 1.627 1.594 2.444 1.544.765-.047 1.466-.607 2.026-1.62a25.4 25.4 0 0 0 2.618-6.761 69.4 69.4 0 0 0 1.374-10.287c.223-3.567.342-7.203.46-10.72.079-2.44.161-4.962.277-7.441.197-4.194.48-8.789.892-14.46.166-2.29 1.18-3.626 2.852-3.767 2.231-.19 3.067 1.503 3.741 2.864q.355.725.706 1.46a29.3 29.3 0 0 0 3.116 5.487c.97 1.239 2.214 1.842 3.413 1.654 1.227-.192 2.254-1.181 2.818-2.708a16.8 16.8 0 0 0 .744-4.433c.038-.476.075-.95.123-1.42a8.5 8.5 0 0 0-.042-1.604 15 15 0 0 1-.066-1.044v-.097c0-1.649.78-2.665 2.259-2.946 1.66-.314 2.865.482 3.391 2.242.097.325.167.656.237.99q.115.646.334 1.264.249.643.485 1.292a26.6 26.6 0 0 0 1.838 4.212c1.267 2.166 2.772 2.679 5.365 1.824 2.773-.914 4.441-2.735 4.96-5.415.265-1.575.416-3.166.454-4.762l.042-.875c.082-1.545.182-3.468 2.346-4.096 2.153-.625 3.242.864 4.093 2.308l.196.332c.661 1.123 1.345 2.285 2.109 3.352 1.664 2.326 3.243 3.188 5.278 2.88 2.223-.334 3.121-2.078 3.986-4.15A32.1 32.1 0 0 0 106.261 58c-.666-6.038-1.613-12.597-2.982-20.639a40.9 40.9 0 0 0-7.26-16.746c-3.41-4.803-8.598-8.335-15.43-10.5-13.04-4.131-25.704-1.9-37.64 6.628a12 12 0 0 0-3.007 2.967c-1.65 2.463-3.779 5.73-5.612 9.148a301 301 0 0 0-7.243 14.428c-4.257 9.08-9.572 16.069-16.253 21.369a10.6 10.6 0 0 0-2.369 2.666c-.36.53-.564 1.15-.59 1.79-.001.221.032.443.097.656a3.35 3.35 0 0 0 2.023 1.913c3.483 1.53 6.957.629 9.598-.328 6.597-2.39 10.114-6.048 11.065-11.51.329-1.928 1.51-3.037 3.232-3.043"/></g><defs><clipPath id="a"><path fill="#fff" d="M.671.073h111.577v135.862H.671z"/></clipPath></defs></svg>