<svg xmlns="http://www.w3.org/2000/svg" width="137" height="114" fill="none" viewBox="0 0 137 114"><g clip-path="url(#a)"><path fill="#000" d="M117.649 31.873a921 921 0 0 1-9.197-4.933c-4.66-2.522-9.48-5.13-14.287-7.568A50.5 50.5 0 0 1 79.3 7.634l-.556-.628a32 32 0 0 0-2.46-2.586C72.924 1.37 69.015.69 64.66 2.396c-3.61 1.413-5.475 4.425-5.71 9.206-.361 7.254 1.51 13.608 5.551 18.886q.435.598.788 1.247.1.18.218.379c-.97-.066-1.908-.131-2.823-.197-2.33-.17-4.528-.328-6.73-.373-12.88-.24-27.477-.513-41.78.616a28.2 28.2 0 0 0-7.93 1.746C3.03 35.163 1.063 37.97.704 41.807c-.353 3.776 2.29 5.868 4.633 7.27l.38.228A13 13 0 0 0 9.034 50.9c.792.206 1.584.42 2.377.633a65 65 0 0 0 9.787 2.108c5.388.587 10.89.931 16.211 1.265 2.325.145 4.65.29 6.973.455.648.046 1.294.112 1.97.181l.53.053c-3.938 7.896-3.49 10.266 2.858 15.822-2.54 3.208-3.545 6.738-2.9 10.228.721 3.92 3.502 7.478 7.849 10.042l-.01.023q-.106.292-.262.56c-2.348 3.781-2.922 7.787-1.619 11.279 1.263 3.382 4.186 5.936 8.233 7.19a43 43 0 0 0 10.66 1.756q1.597.075 3.198.073c8.504 0 17-1.485 23.976-2.705a60.5 60.5 0 0 0 18.683-6.816 30.7 30.7 0 0 0 11.842-11.509c9.042-15.304 9.218-31.04.525-46.768-3.428-6.197-7.324-10.294-12.266-12.898M61.094 95.305a30 30 0 0 1 2.752-1.753c.505-.298 1.01-.594 1.509-.906 1.61-1.013 2.186-2.231 1.763-3.727-.547-1.93-2.207-2.259-3.406-2.338q-.744-.048-1.487-.091c-1.489-.089-3.028-.18-4.529-.359a6.72 6.72 0 0 1-4.566-2.733c-1.303-1.666-1.817-3.323-1.486-4.792.321-1.426 1.44-2.655 3.236-3.553a24 24 0 0 1 3.538-1.313c.495-.154.988-.308 1.477-.474.305-.104.618-.189.93-.274q.679-.172 1.332-.42a2.802 2.802 0 0 0-1.046-5.366h-.197c-.432 0-.865.03-1.286.06q-.925.093-1.854.031a50 50 0 0 0-1.066-.092 16.8 16.8 0 0 1-4.45-.761c-1.506-.562-2.49-1.563-2.7-2.747s.37-2.468 1.594-3.515a22.7 22.7 0 0 1 3.896-2.487q.586-.318 1.163-.644a6.2 6.2 0 0 1 1.229-.475c.31-.096.632-.197.942-.328 1.21-.512 2.795-1.44 2.613-3.584-.147-1.726-1.479-2.747-3.75-2.876-4.18-.238-8.361-.452-12.543-.666-5.476-.28-11.14-.569-16.705-.911a134 134 0 0 1-13.344-1.365c-2.35-.384-4.618-1.459-6.812-2.498-.879-.417-1.896-1.647-1.827-1.955a5.8 5.8 0 0 1 2.318-3.106 9.6 9.6 0 0 1 4.376-1.014c7.664-.352 31.653-.312 47.525-.285 6.202.01 11.099.018 13.389 0a8.76 8.76 0 0 0 4.042-.802 4.4 4.4 0 0 0 1.904-2.856c.235-1.358-.634-2.546-2.27-3.1-.534-.182-1.088-.329-1.623-.478a14.2 14.2 0 0 1-2.785-.961c-4.445-2.277-7.089-6.193-8.573-12.697a10.4 10.4 0 0 1 .292-6.413c.525-1.312 1.26-2.135 2.125-2.377.84-.234 1.807.054 2.874.858a19 19 0 0 1 3.019 3.037 53.2 53.2 0 0 0 17.17 13.541 757 757 0 0 0 6.16 3.073c3.813 1.891 7.755 3.846 11.579 5.865l.591.31c2.953 1.556 6.003 3.162 8.457 5.331a30.4 30.4 0 0 1 6.295 8.046c4.147 7.518 5.928 14.514 5.447 21.387-.741 10.529-4.078 18.622-10.201 24.744a20 20 0 0 1-3.946 2.969c-6.633 3.944-12.858 6.225-19.03 6.972-8.448 1.023-15.461 1.738-22.073 2.25-3.24.251-6.726-.468-10.976-2.261-2.38-1.005-3.802-2.454-4-4.081-.2-1.659.862-3.447 2.994-5.04"/></g><defs><clipPath id="a"><path fill="#fff" d="M.198.887h136.518v112.234H.198z"/></clipPath></defs></svg>