<svg xmlns="http://www.w3.org/2000/svg" width="112" height="137" fill="none" viewBox="0 0 112 137"><g clip-path="url(#a)"><path fill="#000" d="M11.247 119.455a45.9 45.9 0 0 1-6.779-15.114C1.778 93.249.492 83.671.492 74.609q0-2.382.118-4.726a35.4 35.4 0 0 1 2.357-10.551c1.989-5.298 7.16-8.146 12.869-7.088a17.6 17.6 0 0 1 4.12 1.518c.519.242 1.05.49 1.587.715 6.51-8.781 11.486-9.944 20.216-4.708 1.611-2.38 3.594-4.623 6.949-5.294 3.238-.648 5.81.66 8.746 2.521.082-1.26.154-2.494.225-3.704.178-3.04.347-5.907.633-8.795l.248-2.524c.585-5.988 1.19-12.179 2.165-18.211.471-2.908 1.877-5.678 3.237-8.358l.075-.146C65.728 1.922 68.244.326 71.31.642c3.862.397 6.654 2.385 7.86 5.595a35.8 35.8 0 0 1 1.624 7.477l.112.773c.148 1.252.2 2.514.154 3.774a51 51 0 0 0 0 1.651q.073 3.84.166 7.68c.131 5.867.27 11.935.292 17.905.017 4.624-.103 9.198-.229 14.046-.05 1.956-.102 3.944-.145 5.972l.52-.397c.58-.444 1.034-.787 1.5-1.122a27.96 27.96 0 0 1 19.033-5.037c4.337.355 7.195 2.276 8.494 5.71 1.585 4.194 1.026 7.921-1.666 11.081a21 21 0 0 1-1.919 1.894 23 23 0 0 0-1.688 1.637 161 161 0 0 1-2.786 3.002 60.3 60.3 0 0 0-6.821 8.124 106 106 0 0 0-5.72 10.416c-.97 1.937-1.973 3.938-3.025 5.872-2.467 4.528-5.12 9.345-8.041 14.026a19.2 19.2 0 0 1-4.626 4.985c-13.407 10.229-28.037 12.958-43.483 8.112a36.36 36.36 0 0 1-19.67-14.363m67.55-39.887c-1.683.008-2.916-1.05-3.386-2.907a12.7 12.7 0 0 1-.363-3.07c-.008-2.351.013-7.082.039-13.07.066-14.817.163-37.208-.093-45.161a41 41 0 0 0-.666-5.625 5.8 5.8 0 0 0-.97-2.316c-.76-1.046-1.627-1.594-2.444-1.544-.765.047-1.466.607-2.026 1.62a25.4 25.4 0 0 0-2.618 6.76 69 69 0 0 0-1.374 10.288c-.223 3.567-.341 7.203-.46 10.72-.08 2.44-.161 4.962-.277 7.441-.197 4.194-.48 8.788-.892 14.46-.166 2.289-1.181 3.626-2.852 3.767-2.232.19-3.067-1.504-3.741-2.864q-.355-.725-.706-1.46a29.3 29.3 0 0 0-3.116-5.487c-.97-1.24-2.214-1.842-3.413-1.655-1.227.193-2.254 1.182-2.818 2.708a16.8 16.8 0 0 0-.744 4.435c-.037.475-.075.95-.123 1.418a8.5 8.5 0 0 0 .042 1.605c.03.348.06.697.066 1.044v.097c0 1.648-.78 2.665-2.259 2.946-1.66.314-2.864-.482-3.39-2.242a12 12 0 0 1-.238-.991 8 8 0 0 0-.334-1.263q-.249-.643-.485-1.293a26.7 26.7 0 0 0-1.838-4.212c-1.267-2.166-2.772-2.678-5.365-1.823-2.773.914-4.44 2.735-4.96 5.415a33.6 33.6 0 0 0-.454 4.762l-.042.874c-.082 1.546-.182 3.47-2.345 4.097-2.154.625-3.243-.864-4.093-2.308l-.197-.332c-.661-1.123-1.344-2.285-2.108-3.352-1.665-2.326-3.244-3.188-5.279-2.88-2.223.334-3.12 2.078-3.986 4.15a32.1 32.1 0 0 0-2.064 16.047c.666 6.038 1.614 12.597 2.983 20.639a40.9 40.9 0 0 0 7.26 16.746c3.408 4.803 8.597 8.335 15.43 10.501 13.04 4.13 25.703 1.899 37.64-6.629a12 12 0 0 0 3.006-2.967c1.65-2.464 3.779-5.73 5.612-9.148A300 300 0 0 0 85.6 93.081c4.256-9.08 9.572-16.07 16.252-21.37a10.7 10.7 0 0 0 2.369-2.665c.359-.53.564-1.15.591-1.79q0-.335-.098-.656a3.36 3.36 0 0 0-2.023-1.913c-3.483-1.53-6.957-.629-9.598.328-6.597 2.39-10.114 6.048-11.065 11.51-.328 1.927-1.51 3.037-3.231 3.043"/></g><defs><clipPath id="a"><path fill="#fff" d="M.133.073H111.71V136.59H.133z"/></clipPath></defs></svg>