<svg xmlns="http://www.w3.org/2000/svg" width="138" height="114" fill="none" viewBox="0 0 138 114"><path fill="#000" d="M17.946 101.858a45.9 45.9 0 0 0 15.113 6.779c11.092 2.691 20.67 3.976 29.732 3.976q2.383 0 4.726-.118a35.4 35.4 0 0 0 10.551-2.357c5.298-1.989 8.146-7.16 7.088-12.869a17.6 17.6 0 0 0-1.518-4.12c-.242-.519-.49-1.05-.715-1.587 8.781-6.51 9.944-11.486 4.708-20.215 2.38-1.612 4.623-3.594 5.294-6.95.648-3.238-.66-5.81-2.521-8.745 1.26-.083 2.494-.155 3.704-.226 3.039-.178 5.907-.347 8.795-.633l2.524-.247c5.988-.586 12.179-1.191 18.211-2.166 2.908-.47 5.678-1.877 8.358-3.237l.146-.075c3.336-1.69 4.932-4.207 4.616-7.272-.397-3.863-2.385-6.654-5.596-7.86a35.7 35.7 0 0 0-7.476-1.625l-.772-.112a24.4 24.4 0 0 0-3.775-.154c-.551.006-1.103.012-1.651 0q-3.838-.074-7.68-.165c-5.867-.132-11.935-.271-17.905-.292-4.624-.018-9.198.102-14.046.228-1.956.05-3.944.102-5.972.146l.397-.52a65 65 0 0 0 1.122-1.5 27.96 27.96 0 0 0 5.037-19.034c-.355-4.337-2.276-7.194-5.71-8.493C68.537.829 64.81 1.389 61.65 4.08A21 21 0 0 0 59.756 6a23 23 0 0 1-1.637 1.689 161 161 0 0 0-3.003 2.785 60.3 60.3 0 0 1-8.123 6.821 106 106 0 0 1-10.416 5.72c-1.937.97-3.938 1.973-5.872 3.026-4.528 2.467-9.345 5.119-14.026 8.04a19.2 19.2 0 0 0-4.984 4.626C1.465 52.113-1.265 66.743 3.582 82.19a36.35 36.35 0 0 0 14.363 19.669m39.886-67.55c-.008 1.683 1.05 2.917 2.907 3.386 1.004.246 2.035.368 3.07.364 2.351.007 7.082-.013 13.07-.04 14.817-.065 37.208-.162 45.161.094 1.888.09 3.767.313 5.625.665.834.15 1.625.48 2.316.97 1.046.76 1.594 1.627 1.544 2.444-.047.765-.607 1.466-1.62 2.026a25.4 25.4 0 0 1-6.76 2.619 69 69 0 0 1-10.288 1.373c-3.567.223-7.203.342-10.72.46-2.44.08-4.962.161-7.441.277-4.194.197-8.788.48-14.46.892-2.289.166-3.626 1.181-3.767 2.852-.19 2.232 1.504 3.067 2.864 3.741q.726.357 1.46.706a29.4 29.4 0 0 1 5.487 3.116c1.24.97 1.842 2.214 1.655 3.413-.193 1.227-1.182 2.255-2.708 2.818a16.8 16.8 0 0 1-4.435.744c-.475.038-.95.075-1.418.123a8.5 8.5 0 0 1-1.605-.042c-.348-.03-.697-.06-1.044-.066h-.097c-1.648 0-2.665.78-2.946 2.259-.314 1.66.482 2.865 2.242 3.39.325.098.657.168.991.238q.646.115 1.263.334.643.249 1.293.485a26.7 26.7 0 0 1 4.212 1.838c2.166 1.267 2.678 2.772 1.823 5.365-.914 2.773-2.735 4.441-5.415 4.96a33.6 33.6 0 0 1-4.762.454l-.874.042c-1.546.082-3.47.182-4.097 2.346-.625 2.153.864 3.242 2.308 4.092l.332.197c1.123.661 2.284 1.345 3.352 2.109 2.326 1.664 3.188 3.243 2.88 5.278-.334 2.223-2.078 3.121-4.15 3.986a32.1 32.1 0 0 1-16.047 2.064c-6.038-.666-12.597-1.613-20.639-2.983a40.86 40.86 0 0 1-16.745-7.26c-4.803-3.408-8.336-8.597-10.502-15.43-4.13-13.04-1.9-25.703 6.629-37.639a12 12 0 0 1 2.967-3.007c2.464-1.65 5.73-3.779 9.148-5.612a301 301 0 0 1 14.428-7.243c9.08-4.256 16.07-9.572 21.369-16.252a10.6 10.6 0 0 1 2.666-2.37 3.44 3.44 0 0 1 1.79-.59q.335-.001.656.097a3.36 3.36 0 0 1 1.913 2.023c1.53 3.483.629 6.957-.328 9.598-2.39 6.597-6.048 10.114-11.51 11.066-1.928.328-3.037 1.51-3.043 3.23"/></svg>