<svg xmlns="http://www.w3.org/2000/svg" width="142" height="142" fill="none" viewBox="0 0 142 142"><g fill="#000" clip-path="url(#a)"><path d="M138.562 63.723a10.9 10.9 0 0 0-6.98-6.175 12.04 12.04 0 0 0-10.035 1.54c-.346.226-.685.464-1.039.711l-.177.124a14.2 14.2 0 0 0-9.892-7.97 11.51 11.51 0 0 0-10.246 3.053c-2.182-3.175-4.397-4.886-6.948-5.371-2.654-.506-5.6.349-8.999 2.611l-.023-.197c-.046-.38-.08-.66-.1-.939-.157-2.37-.302-4.742-.447-7.113-.32-5.266-.652-10.711-1.143-16.054-.519-5.645-1.378-12.135-5.026-17.783-1.707-2.644-4.201-4.212-6.848-4.304-2.647-.091-5.191 1.26-7.096 3.807a10.1 10.1 0 0 0-1.923 4.397c-.342 2.337-.511 4.732-.675 7.048-.078 1.11-.156 2.22-.252 3.326-1.182 13.532-.596 27.277-.03 40.57l.034.835c.053 1.23.04 2.46.025 3.761q-.007.633-.012 1.286a5 5 0 0 1-.459-.308c-.148-.118-.288-.248-.429-.378a7 7 0 0 0-.6-.512c-6.72-4.85-13.856-6.543-21.214-5.028a9.61 9.61 0 0 0-7.13 5.759 9.98 9.98 0 0 0 1.115 9.451 18.4 18.4 0 0 0 2.711 2.977c.57.54 1.158 1.099 1.683 1.681.944 1.05 1.938 2.091 2.9 3.1a59.3 59.3 0 0 1 6.76 7.973 105 105 0 0 1 5.787 10.436c.966 1.911 1.965 3.886 3.012 5.793l.17.308c2.494 4.542 5.07 9.239 7.897 13.678a22.6 22.6 0 0 0 5.12 5.411 49.4 49.4 0 0 0 13.295 7.331 41.4 41.4 0 0 0 14.936 2.774 49 49 0 0 0 17.206-3.294c3.747-1.402 7.185-3.843 10.669-6.432 6.002-4.463 10.086-11.038 12.854-20.698a110.8 110.8 0 0 0 4.249-36.048 32.5 32.5 0 0 0-2.7-11.137m-66.246 61.139a11.9 11.9 0 0 1-3.027-2.942 107 107 0 0 1-5.65-9.115 351 351 0 0 1-7.745-15.292c-4.14-8.655-9.328-15.325-15.86-20.39a2 2 0 0 1-.223-.189q-.294-.295-.596-.59c-1.403-1.362-2.728-2.648-1.896-4.753.795-2.006 2.749-2.34 4.8-2.34h.317c6.104.093 10.945 2.199 14.385 6.26 1.347 1.59 2.114 3.74 2.857 5.825.772 2.166 1.663 3.58 3.54 3.535 1.724-.052 3.063-1.464 3.496-3.685a11.3 11.3 0 0 0 .142-2.416c-.095-3.534-.215-7.067-.336-10.6-.257-7.553-.525-15.365-.525-23.044 0-7.367.37-14.861.73-22.108q.15-3.064.294-6.127c.11-2.42.685-5.01 4.07-5.922 2.108 1.51 3.42 3.83 4.01 7.1a127 127 0 0 1 1.796 13.957c.475 6.986.829 14.1 1.17 20.98q.232 4.63.473 9.26c.083 1.559.465 3.408 2.7 3.872 2.054.422 3.129-1.205 3.98-3.03q.238-.51.474-1.028a29.4 29.4 0 0 1 3.112-5.657c1.034-1.352 2.34-2.008 3.593-1.796 1.31.221 2.388 1.34 2.96 3.07a17.3 17.3 0 0 1 .626 4.236c.029.44.057.878.095 1.313a9.5 9.5 0 0 1-.046 1.619c-.03.345-.059.69-.066 1.033-.039 1.677.777 2.743 2.297 3.003 1.641.281 2.786-.408 3.235-1.935.088-.3.161-.606.233-.912q.146-.675.374-1.326a80 80 0 0 0 .549-1.516 28.4 28.4 0 0 1 1.811-4.326c1.231-2.205 2.724-2.743 5.316-1.92 2.781.883 4.529 2.724 5.044 5.327.183 1.063.291 2.138.322 3.216q.05 1.569.298 3.12a5.8 5.8 0 0 0 1.727 3.25 2.12 2.12 0 0 0 1.695.506 3.8 3.8 0 0 0 2.462-1.812c.447-.664.858-1.364 1.256-2.042a25 25 0 0 1 1.985-3.025c1.419-1.752 3.053-2.613 4.586-2.428 1.532.184 2.892 1.4 3.84 3.42a30.9 30.9 0 0 1 2.508 16.61c-.828 7.838-2.06 15.495-3.04 21.291-.936 5.531-3.33 11.055-7.116 16.419-3.485 4.937-8.624 8.415-15.71 10.632-13.059 4.098-25.267 1.941-37.322-6.588"/><path d="M36.882 48.294c-.188-1.238-1.11-2.398-2.822-3.549l-.138-.092a2353 2353 0 0 1-8.78-5.926c-1.895-1.287-3.11-1.754-4.07-1.558a2.12 2.12 0 0 0-1.372 1.02c-1.166 1.811.044 3.357 2.22 5.12 1.095.889 2.211 1.748 3.503 2.743l1.194.92a29.1 29.1 0 0 1-10.292-2.143c-5.123-2.185-7.95-6.334-8.402-12.331-.506-6.692 2.044-12.896 7.578-18.444 4.827-4.835 10.9-6.967 17.107-6.007a20.17 20.17 0 0 1 14.736 10.698c.54 1.046 1.006 2.16 1.456 3.237.276.66.553 1.322.848 1.974.411.908 1.262 2.797 3.343 2.389 1.62-.319 2.44-1.51 2.508-3.646a8.3 8.3 0 0 0-.132-1.744c-1.086-6.032-4.991-11.74-10.712-15.66C38.933 1.375 32.209-.2 26.197.968c-12.3 2.38-20.465 10.135-24.27 23.046-1.95 6.62-1.098 13.48 2.337 18.824 3.482 5.417 9.161 8.826 16.422 9.86l5.232.741q-.662.74-1.274 1.417c-1.142 1.269-2.128 2.363-3.11 3.51-1.944 2.268-2.428 4.388-1.256 5.533.498.47 1.162.724 1.846.707 1.073 0 2.383-.538 3.723-1.898a143 143 0 0 0 9.7-10.741c1.07-1.33 1.508-2.533 1.335-3.673"/></g><defs><clipPath id="a"><path fill="#fff" d="M.66.447h141.113V141.56H.66z"/></clipPath></defs></svg>