<svg xmlns="http://www.w3.org/2000/svg" width="106" height="164" fill="none" viewBox="0 0 106 164"><g fill="#000" clip-path="url(#a)"><path d="M105.077 52.872c.203-8.527.312-17.196.419-25.585l.066-5.068q0-2.21-.234-4.408c-.537-5.635-3.312-9.759-8.247-12.256-3.61-1.827-7.553-2.191-10.586-2.305l-.237-.008c-14.16-.53-28.802-1.078-43.209-1.448l-1.82-.049c-5.833-.158-11.863-.321-17.73.273C9.908 3.397 6.284 8.852 4.844 17.207c-.885 5.13-1.295 10.424-1.693 15.542-.1 1.295-.2 2.59-.308 3.883-.275 3.288-.43 6.638-.58 9.878a639 639 0 0 1-.188 3.909 500 500 0 0 1-.296 5.044c-.24 3.86-.488 7.85-.516 11.78-.047 6.572 0 13.254.05 19.715.036 4.8.072 9.765.07 14.646 0 4.603-.044 9.285-.084 13.812-.061 7.062-.124 14.365-.046 21.547a65.6 65.6 0 0 0 1.481 12.034c1.2 5.877 4.927 9.73 11.08 11.455 4.807 1.347 10.128 2.011 16.748 2.091 7.32.09 14.008.132 20.281.132 6.662 0 12.852-.05 18.814-.151 5.206-.088 10.486-.549 15.593-.995 1.523-.131 3.046-.266 4.568-.389 3.996-.329 6.975-2.477 8.852-6.396a32.4 32.4 0 0 0 1.846-4.738c2.401-8.073 3.029-16.265 3.235-26.078.237-11.256.346-22.702.453-33.773q.066-7.03.145-14.063l.004-.328-.108-.004q.13-3.423.272-6.844c.212-5.257.433-10.693.561-16.044M9.227 131.34a45 45 0 0 0-.116-.755 10 10 0 0 1-.179-1.698l.166-9.648c.286-16.702.582-33.972.942-50.956.251-11.884.525-23.527 1.065-35.317.283-4.384.797-8.75 1.538-13.08l.287-1.878a7.505 7.505 0 0 1 5.919-6.522l.853-.223a24 24 0 0 1 5.93-1.05h.04c14.04.052 28.467.215 44.11.498 5.716.103 11.527.416 17.147.722l2.349.126c1.309.087 2.6.357 3.834.802 2.65.918 4.26 2.735 4.651 5.25.427 2.522.661 5.073.702 7.63.03 6.841.03 14.948-.186 23.214-.162 6.213-.386 12.529-.604 18.636-.221 6.244-.45 12.7-.614 19.054-.183 7.154-.285 14.429-.385 21.462q-.086 6.104-.187 12.214c-.036 2.029-.117 4.051-.202 6.192-.036.911-.074 1.841-.108 2.799-21.171-.838-42.524.287-63.176 1.378-7.784.411-15.83.834-23.776 1.15m86.275 5.174q-.042.466-.077.947-.075 1.407-.35 2.789c-.977 4.346-1.795 7.656-2.648 10.734-.657 2.363-2.294 3.653-4.866 3.828-2.012.138-4.023.305-6.034.471-4.177.348-8.497.706-12.745.778-13.802.234-25.917.24-37.037.015-4.433-.089-10.24-.433-15.834-2.311-3.032-1.018-4.791-2.847-5.546-5.756l-.22-.84c-.766-2.917-1.557-5.933-1.08-9.178l1.595-.075c62.943-2.967 81.01-2.427 84.842-1.402"/><path d="M37.294 69.656v.032l.006.032c.118.776.23 1.553.344 2.331.268 1.842.544 3.748.898 5.61.166.88.54 2.86 2.411 2.86q.224 0 .443-.034c1.826-.271 1.804-1.871 1.788-3.04v-.233a57 57 0 0 0-.061-1.986 26 26 0 0 1 .061-4.347l.122-.954c.361-2.85.735-5.795 1.76-8.413a9.26 9.26 0 0 1 5.473-5.447 10.13 10.13 0 0 1 8.288.735c.32.173.634.355.949.537.552.32 1.122.649 1.712.928 2.235 1.06 3.114.14 3.438-.504a3.82 3.82 0 0 0-.182-3.388A10.9 10.9 0 0 0 60.969 51c-3.478-1.727-7.857-1.872-12.006-.403a15.96 15.96 0 0 0-9.31 8.102 28.3 28.3 0 0 0-2.359 10.957m2.771 28.931a15 15 0 0 0-3.741-.337l-.68-.005c-2.016-.029-4.04-.023-6.184-.017-.817 0-1.653.004-2.517.005l.004-1.88c.004-1.542.009-2.918-.012-4.294l-.009-.638c.012-1.26-.056-2.52-.202-3.77-.146-1.055-.387-2.809-2.38-2.809h-.083c-1.736.042-2.004 1.395-2.22 2.483l-.025.13a21 21 0 0 0-.375 2.704 280 280 0 0 0-.23 3.886 291 291 0 0 1-.227 3.841c-.302 4.44 1.367 6.548 5.579 7.049 2.51.28 5.034.411 7.56.394 1.008 0 1.981-.016 2.904-.036a6.93 6.93 0 0 0 3.868-1.46 3.87 3.87 0 0 0 1.289-3.119c-.121-.867-1.366-1.873-2.319-2.127m30.757-46.999c2.166-.035 4.303-.027 6.567-.02q1.313.006 2.653.008c0 1.08 0 2.12-.005 3.131-.006 2.468-.012 4.8.015 7.112.044 3.695 1.689 4.576 3.063 4.664q.105.007.208.007c1.908 0 3.254-1.73 3.532-4.576.022-.234.028-.469.03-.703q.01-1.384.03-2.768c.026-2.073.054-4.217.016-6.328-.045-2.5-.577-4.14-1.675-5.16-1.115-1.033-2.828-1.449-5.416-1.302-3.187.179-6.401.429-9.4.674-1.545.125-2.63.555-3.228 1.276a2.43 2.43 0 0 0-.512 1.884c.191 1.8 1.72 2.135 4.122 2.1M86.75 96.449c-.328-1.545-.541-3.15-.75-4.697-.114-.853-.228-1.702-.36-2.55-.038-.24-.066-.485-.095-.731a6.1 6.1 0 0 0-.564-2.285 3.75 3.75 0 0 0-2.32-1.87 1.97 1.97 0 0 0-1.611.449 2.65 2.65 0 0 0-.844 2.008c-.017 1.45.109 2.919.23 4.34l.085 1.026c.102 1.281.226 2.56.361 3.956l.162 1.682q-.697.074-1.341.147c-1.108.123-2.155.24-3.179.294-.755.04-1.528.039-2.281.04a30 30 0 0 0-3.437.131c-2.203.263-3.526 1.641-3.453 3.61a3.17 3.17 0 0 0 .992 2.367 3.17 3.17 0 0 0 2.421.849h.548c3.89 0 7.408-.083 10.803-.8 4.124-.871 5.599-3.403 4.633-7.966M23.901 66.758q.14.008.27.008c1.686 0 2.691-1.002 2.91-2.912.206-1.806.239-3.654.27-5.44q.014-.8.034-1.597c.027-1.046.02-2.1.014-3.22 0-.435-.006-.882-.007-1.348q1.238-.059 2.402-.11c2.106-.093 4.095-.182 6.103-.331a7.2 7.2 0 0 0 3.333-.785c.82-.533 1.872-1.88 1.722-2.863-.131-.861-1.181-1.523-2.105-2.107l-.277-.175a2.5 2.5 0 0 0-1.522-.183q-.166.014-.32.023c-3.602.184-7.13.366-10.705.587-3.403.21-4.479 1.299-4.605 4.66-.11 2.925-.189 5.899-.267 8.775l-.074 2.594c-.038.48-.017.963.061 1.438.305 1.482.853 2.873 2.763 2.986"/><path d="M51.386 72.417c.128.785.32 1.559.577 2.312l.205.549a19 19 0 0 0 2.044 4.35c.808 1.155 2.504 1.74 3.195 1.936a1.89 1.89 0 0 0 1.833-.35 1.71 1.71 0 0 0 .423-1.682c-.158-.737-.308-1.478-.459-2.22a53.5 53.5 0 0 0-2.118-8.19 5.1 5.1 0 0 0-3.163-3.078 6.29 6.29 0 0 0-5.25.638 7.7 7.7 0 0 0-4.009 6.591 19.86 19.86 0 0 0 2.61 10.101 3.21 3.21 0 0 0 2.367 1.43h.053a1.57 1.57 0 0 0 1.181-.46 2.74 2.74 0 0 0 .533-2.118c-.061-1-.197-2.005-.328-2.978a50 50 0 0 1-.28-2.34c-.031-.338-.082-.678-.132-1.024-.204-1.361-.399-2.656.587-4.127q.07.342.13.66"/><path d="M67.739 66.796c-.2-1.113-.48-2.21-.835-3.282a2.98 2.98 0 0 0-1.495-1.841 1.76 1.76 0 0 0-1.46.047 4 4 0 0 0-1.815 2.244 12.5 12.5 0 0 0-2.397-4.735c-1.444-1.614-3.617-2.344-6.427-2.174-2.614-.131-4.495.515-5.744 1.974a3.97 3.97 0 0 0-.716 3.272 1.41 1.41 0 0 0 .762.923c.706.318 1.63-.024 2.261-.31 2.494-1.128 4.608-.494 6.653 1.993q.14.18.253.382c.147.298.365.556.636.75.197.118.397.255.604.393a4.33 4.33 0 0 0 2.141.972q.12 0 .238-.02a2.1 2.1 0 0 0 1.468-.997c.03-.049.046-.106.073-.156.022.532.071 1.064.122 1.588.044.46.089.919.114 1.378a44.5 44.5 0 0 1-1.863 13.812 17.6 17.6 0 0 0-.83 4.683c0 1.252.5 2.217 1.336 2.58.227.1.473.15.721.15a2.73 2.73 0 0 0 1.814-.825 12.1 12.1 0 0 0 3.322-5.062 36.4 36.4 0 0 0 1.064-17.74M49.386 90.808c2.416 0 4.493-.765 5.578-2.095a3.2 3.2 0 0 0 .45-2.685 2.4 2.4 0 0 0-2.26-1.148c-3.779 1.043-6.474.779-9.013-.884a1.45 1.45 0 0 0-1.55-.026 2.43 2.43 0 0 0-1.14 2.19l.022.107c.031.081.066.174.096.273q.142.455.358.88c.953 1.775 3.38 3.053 6.33 3.334q.571.054 1.129.054m6.656-.521a63 63 0 0 0-7.849 1.541c-.747.188-1.75 1.154-1.716 1.85a3.1 3.1 0 0 0 1.444 2.31c.784.32 1.616.507 2.461.553.46.056.96.116 1.52.21l.077.013.075-.022c.411-.122.867-.246 1.353-.379 1.277-.35 2.725-.746 4.142-1.286a3.05 3.05 0 0 0 1.86-1.746 2.25 2.25 0 0 0-.223-1.932c-.499-.852-2.196-1.228-3.144-1.112m-1.299 59.297q.238.026.477.026a4.96 4.96 0 0 0 4.82-4.383c.233-2.607-1.67-4.548-4.736-4.832a5.4 5.4 0 0 0-2.127.101 5.4 5.4 0 0 0-1.923.915 4.1 4.1 0 0 0-1.409 2.888c-.203 2.406 2.177 4.974 4.898 5.285"/></g><defs><clipPath id="a"><path fill="#fff" d="M.685.946H105.7V163.06H.685z"/></clipPath></defs></svg>