<svg xmlns="http://www.w3.org/2000/svg" width="106" height="164" fill="none" viewBox="0 0 106 164"><g fill="#000" clip-path="url(#a)"><path d="M105.198 52.617c.214-8.767.324-17.682.429-26.304l.046-3.675a40 40 0 0 0-.262-5.088c-.616-5.368-3.267-9.33-7.88-11.773-3.735-1.979-7.776-2.37-10.88-2.488l-8.08-.314c-13.796-.539-28.063-1.095-42.1-1.402a93.5 93.5 0 0 0-17.146 1.181c-8.161 1.34-13.123 6.22-14.347 14.111-.937 6.039-1.515 12.255-2.001 18.075-.331 3.974-.505 8.023-.673 11.94q-.088 2.1-.187 4.2a676 676 0 0 1-.257 4.885c-.229 4.134-.464 8.407-.494 12.616-.043 6.19.007 12.483.055 18.569.037 4.624.075 9.406.071 14.107-.008 12.356-.114 24.635-.216 35.016a47.4 47.4 0 0 0 1.56 13.082c1.569 5.761 5.073 9.37 10.713 11.031 4.857 1.432 10.126 2.109 17.075 2.194 7.291.089 13.968.131 20.245.131 6.65 0 12.853-.05 18.848-.15 5.158-.087 10.392-.541 15.453-.98 1.57-.136 3.139-.271 4.708-.397 4.084-.329 7.126-2.569 9.038-6.662a34 34 0 0 0 1.772-4.762c2.595-8.756 2.993-17.882 3.163-25.749.241-11.167.349-22.523.453-33.505q.066-6.998.143-13.995l-.109-.31q.131-3.507.278-7.014c.221-5.43.448-11.044.582-16.57m-9.547 84.3-.531 2.573c-.757 3.678-1.54 7.482-2.443 11.187-.638 2.617-2.418 4.034-5.294 4.212a396 396 0 0 0-6.59.484c-4.107.324-8.354.66-12.53.732-13.209.228-24.993.235-36.026.017-4.994-.097-10.858-.462-16.487-2.421-2.772-.965-4.409-2.651-5.152-5.304l-.05-.181c-.904-3.228-1.838-6.563-1.368-10.386 9.254-.208 18.618-.608 27.675-.995 19.154-.818 38.956-1.663 58.38-.702.076.149.152.28.22.397q.12.184.196.387m-86.319-5.544a35 35 0 0 0-.115-.765 10 10 0 0 1-.176-1.701l.17-9.813c.285-16.647.58-33.86.94-50.788.251-11.906.524-23.563 1.064-35.318.285-4.414.804-8.811 1.554-13.171l.274-1.787a7.5 7.5 0 0 1 5.929-6.511l.86-.225a24 24 0 0 1 5.923-1.041h.04c13.915.052 28.341.216 44.11.498 5.617.102 11.704.365 19.156.829 6.675.416 9.286 3.129 9.31 9.676.048 12.383-.188 24.977-.417 37.157l-.06 3.216c-.1 5.367-.269 10.824-.431 16.1-.132 4.32-.273 8.787-.372 13.182-.172 7.574-.31 15.275-.444 22.722q-.12 6.656-.247 13.31-.029.664-.14 1.319-.04.273-.082.584c-21.072-.833-42.402.291-63.033 1.378-7.796.41-15.854.834-23.813 1.149"/><path d="M40.252 98.64a12.2 12.2 0 0 0-3.506-.356l-.591-.005c-2.107-.028-4.235-.023-6.49-.018-.86 0-1.745.005-2.663.005 0-.933.006-1.83.01-2.704.012-2.114.024-4.112-.026-6.094-.06-2.39-.41-4.6-2.532-4.6h-.013c-1.92.008-2.453 1.838-2.662 4.575a170 170 0 0 0-.27 4.571 245 245 0 0 1-.218 3.833c-.308 4.474 1.338 6.601 5.501 7.111a65 65 0 0 0 7.76.409c.935 0 1.842-.013 2.705-.029a7.06 7.06 0 0 0 3.883-1.422 3.92 3.92 0 0 0 1.36-3.091c-.1-.943-1.397-1.924-2.248-2.185m30.519-47.062c.242-.01.475-.03.722-.02 2.148.004 4.298 0 6.506 0h2.297v1.12c0 .873.005 1.604-.005 2.334-.012.82-.034 1.64-.055 2.46-.043 1.623-.088 3.3-.049 4.952.057 2.406 1.12 3.897 2.918 4.089q.16.017.322.017c1.681 0 3.019-1.448 3.444-3.785a6 6 0 0 0 .107-1.061q.013-1.453.039-2.907c.037-2.363.075-4.801 0-7.203-.066-2.126-.603-3.627-1.636-4.594s-2.548-1.384-4.648-1.307c-3.185.12-6.414.394-9.536.657l-1.212.102a3 3 0 0 0-2.069.761 3.83 3.83 0 0 0-.984 2.541c.065.722 1.098 1.475 1.81 1.697.662.164 1.35.214 2.03.147m16.192 45.309c-.319-1.658-.56-3.365-.793-5.014-.137-.967-.273-1.933-.425-2.896q-.045-.29-.08-.591a5.4 5.4 0 0 0-.556-2.104c-.472-.793-1.346-1.772-2.256-1.935a1.98 1.98 0 0 0-1.648.407 2.6 2.6 0 0 0-.877 1.973 43 43 0 0 0 .22 4.562l.065.81c.103 1.272.233 2.526.384 3.977.06.577.124 1.18.189 1.825l-1.724.121c-1.365.097-2.56.183-3.761.242-.599.03-1.2.033-1.802.035a22 22 0 0 0-3.252.173c-1.992.301-3.216 1.634-3.19 3.478.026 1.86 1.23 3.072 3.305 3.325a37 37 0 0 0 4.433.29 23.2 23.2 0 0 0 7.656-1.2c3.5-1.2 4.846-3.647 4.112-7.478M24.158 66.793h.034a2.76 2.76 0 0 0 2.991-2.74c.178-2.35.258-4.663.329-7.022.033-1.055.026-2.086.017-3.282 0-.46-.006-.943-.008-1.45q1.158-.057 2.269-.109c2.074-.098 4.034-.19 6-.334l.201-.015a7.3 7.3 0 0 0 3.175-.705 4.2 4.2 0 0 0 1.963-2.715 2.1 2.1 0 0 0-.46-1.57 3.3 3.3 0 0 0-2.276-1.036 14 14 0 0 0-2.177.025l-.542.031q-3.747.196-7.491.417l-.534.031q-.42.022-.84.038-1.105.02-2.2.176c-1.735.285-2.86 1.416-2.935 2.954-.255 5.222-.373 9.935-.364 14.41a2.97 2.97 0 0 0 .817 2.137 2.8 2.8 0 0 0 2.03.76m30.307 73.605a4.83 4.83 0 0 0-3.492 1.444 4.17 4.17 0 0 0-1.04 3.106c.113 2.312 2.908 4.709 5.463 4.709h.065a5.02 5.02 0 0 0 4.706-4.645 4.08 4.08 0 0 0-1.23-3.085 5.92 5.92 0 0 0-4.473-1.529"/></g><defs><clipPath id="a"><path fill="#fff" d="M.722.946h105.014V163.06H.722z"/></clipPath></defs></svg>