<svg xmlns="http://www.w3.org/2000/svg" width="113" height="154" fill="none" viewBox="0 0 113 154"><g fill="#000" clip-path="url(#a)"><path d="M95.067 143.189c5.917-4.911 10.042-11.617 12.606-20.506a111.9 111.9 0 0 0 4.308-36.38 34.7 34.7 0 0 0-2.287-10.212 10.695 10.695 0 0 0-11.42-7.285c-1.82.255-3.597.743-5.291 1.454-.726.262-1.473.54-2.237.787a12.6 12.6 0 0 0-8.519-7.246c-4.618-1.247-8.42-.23-11.309 3.029-1.55-2.485-3.653-5.002-7.324-5.65-3.176-.56-5.76.686-8.788 2.935q.006-.547.016-1.023a26 26 0 0 0-.034-2.555q-.24-2.943-.473-5.887c-.521-6.535-1.06-13.293-1.746-19.924-.558-5.42-2.129-9.89-4.8-13.667-2.734-3.864-6.546-4.663-10.734-2.25a9.44 9.44 0 0 0-4.54 5.928 25.7 25.7 0 0 0-.95 5.702l-.12 3.265c-.279 7.532-.567 15.32-.574 22.983-.006 6.06.18 11.99.375 18.267.077 2.476.155 4.965.22 7.476l-.176-.144a26 26 0 0 0-1.416-1.102c-6.808-4.812-13.955-6.465-21.24-4.914a9.55 9.55 0 0 0-6.985 5.695 9.92 9.92 0 0 0 .985 9.308 25 25 0 0 0 4.397 4.7c5.301 4.781 9.229 9.709 12.007 15.064 4.18 8.054 8.86 16.526 14.316 25.901 1.437 2.466 3.714 4.471 5.537 5.94 3.46 2.79 7.59 5.071 12.996 7.179a41 41 0 0 0 15.074 2.864 50.5 50.5 0 0 0 17.077-3.195 36.6 36.6 0 0 0 11.05-6.537m-52.057-6.76a11.9 11.9 0 0 1-3.02-2.948 107 107 0 0 1-5.644-9.117c-2.472-4.588-4.952-9.492-7.583-14.995-4.23-8.842-9.475-15.606-16.034-20.679a2 2 0 0 1-.22-.186q-.308-.314-.63-.628c-1.381-1.354-2.687-2.632-1.842-4.72.864-2.132 3.081-2.322 5.102-2.322h.04a19.25 19.25 0 0 1 13.777 5.514 11.8 11.8 0 0 1 3.508 6.524c.577 3.216 2.439 3.632 3.494 3.589 1.717-.066 3.049-1.488 3.478-3.707.128-.798.174-1.607.136-2.414a7030 7030 0 0 0-.515-25.246 350 350 0 0 0-.186-5.54c-.137-3.478-.278-7.073-.202-10.601.149-6.928.618-13.82 1.07-20.486.239-3.516.813-4.392 4.035-5.932 2.173 1.575 3.463 3.85 4.053 7.146.852 4.616 1.45 9.276 1.79 13.958.473 6.944.825 14.014 1.166 20.85q.234 4.695.48 9.39c.078 1.466.447 3.459 2.736 3.84 2.328.388 3.282-1.557 3.85-2.72l.533-1.098c.919-1.9 1.867-3.864 2.954-5.7.544-.922 1.772-2.394 3.883-1.89a3.96 3.96 0 0 1 2.981 3.27c.313 1.629.517 3.277.613 4.933q.042.91-.052 1.816c-.031.394-.061.788-.07 1.181-.035 1.673.788 2.733 2.32 2.984a2.6 2.6 0 0 0 2.028-.294 2.63 2.63 0 0 0 1.192-1.666c.084-.282.16-.565.238-.849.099-.362.197-.722.308-1.082q.184-.601.355-1.211.383-1.482.971-2.897l.053-.121c.996-2.239 1.94-4.358 4.8-4.092 3.168.288 5.289 1.876 6.305 4.718.354 1.128.59 2.29.705 3.466l.1.739a8.4 8.4 0 0 1 .037 1.396c-.008.308-.016.617-.005.924.097 2.708.837 3.951 2.56 4.292 2.127.419 3.042-1.072 3.846-2.388l.1-.162q.273-.448.544-.9a24 24 0 0 1 2.605-3.775c1.341-1.481 2.954-2.189 4.397-1.943 1.349.228 2.472 1.255 3.165 2.892 1.156 2.73 2.711 6.826 2.858 10.834a96.5 96.5 0 0 1-4.069 31.464 46.3 46.3 0 0 1-5.871 12.3c-3.39 5.04-8.588 8.604-15.888 10.896-13.06 4.098-25.27 1.938-37.335-6.606z"/><path d="M12.682 39.66q-.602-.507-1.16-.98a138 138 0 0 0-3.312-2.75c-1.232-.978-2.505-1.016-3.492-.099-1.543 1.434-.164 2.922.288 3.413l1.04 1.122c2.806 3.03 5.71 6.163 8.643 9.168a4 4 0 0 0 2.773 1.428q.077.001.154-.005a3.4 3.4 0 0 0 2.45-1.514c2.292-2.98 4.517-6.085 6.667-9.088l1.27-1.773a3.42 3.42 0 0 0 .864-2.017c-.057-.716-.36-2.043-1.13-2.471-.784-.436-2.088-.044-2.734.256-.448.28-.8.69-1.005 1.176q-.144.267-.313.52l-4.026 5.76-.197-.097q-.053-.389-.114-.777a17 17 0 0 1-.223-1.985q-.406-13.227-.774-26.454l-.166-5.81c-.01-.329-.01-.66-.01-.992a17 17 0 0 0-.083-2.063c-.287-2.367-1.575-2.78-2.607-2.704-1.307.093-2.027 1.02-2.142 2.756-.05.77-.109 1.539-.167 2.308-.152 1.997-.31 4.062-.323 6.1-.037 5.501-.027 11.095-.018 16.504q.008 4.536.008 9.071a16 16 0 0 1-.123 1.637q-.021.173-.037.358"/></g><defs><clipPath id="a"><path fill="#fff" d="M.736.915h111.577v152.27H.736z"/></clipPath></defs></svg>