<svg xmlns="http://www.w3.org/2000/svg" width="113" height="157" fill="none" viewBox="0 0 113 157"><g fill="#000" clip-path="url(#a)"><path d="M107.516 125.524a110.8 110.8 0 0 0 4.257-36.048 32.5 32.5 0 0 0-2.691-11.135 10.92 10.92 0 0 0-6.983-6.19 12.03 12.03 0 0 0-10.027 1.53c-.345.224-.683.462-1.033.709l-.19.13a14.24 14.24 0 0 0-9.934-7.955 11.59 11.59 0 0 0-10.28 3.118c-1.516-2.347-3.563-4.749-7.088-5.463-3.403-.685-6.088.975-8.686 2.583l-.023.015a992 992 0 0 1-.25-3.872c-.203-3.216-.395-6.25-.697-9.312a536 536 0 0 1-.328-3.42c-.512-5.364-1.04-10.91-2.015-16.292-.525-2.906-1.824-6.063-3.962-9.648-1.247-2.092-2.872-3.347-4.824-3.727-1.854-.362-3.96.121-6.089 1.395a9.6 9.6 0 0 0-4.427 6.003 24.3 24.3 0 0 0-.825 4.693 805 805 0 0 1-.21 3.228c-.282 4.233-.572 8.61-.564 12.921.013 8.751.152 17.687.288 26.33q.08 5.12.154 10.276-.15-.091-.29-.197a8 8 0 0 1-.435-.383 6 6 0 0 0-.59-.506c-6.718-4.854-13.85-6.551-21.21-5.044a9.61 9.61 0 0 0-7.146 5.755 9.98 9.98 0 0 0 1.101 9.444A18.2 18.2 0 0 0 5.21 97.42c.576.547 1.171 1.113 1.7 1.707a154 154 0 0 0 2.918 3.15 64 64 0 0 1 6.908 8.212c2.092 3.3 3.989 6.719 5.681 10.239.949 1.878 1.93 3.82 2.958 5.693l.226.413c2.475 4.507 5.033 9.167 7.838 13.575a22.6 22.6 0 0 0 5.115 5.415 49.5 49.5 0 0 0 13.294 7.335 41.4 41.4 0 0 0 14.952 2.78 49 49 0 0 0 17.192-3.286c3.75-1.401 7.187-3.841 10.67-6.433 5.995-4.464 10.082-11.039 12.854-20.696M36.844 68.2c-.038-1.64-.117-3.302-.197-4.911-.13-2.8-.27-5.696-.197-8.532.207-8.285.661-16.37 1.077-23.186.226-3.7.848-4.63 4.11-5.943 2.073 1.413 3.333 3.64 3.964 6.99.87 4.5 1.47 9.046 1.801 13.617.482 7.135.839 14.4 1.182 21.425q.225 4.576.459 9.151c.087 1.66.467 3.423 2.635 3.92 2.106.483 3.22-1.22 4.03-2.953q.27-.575.532-1.155a29.2 29.2 0 0 1 3.033-5.543c1.05-1.385 2.375-2.06 3.643-1.849 1.295.215 2.363 1.313 2.923 3.015.402 1.449.617 2.942.641 4.445.028.48.056.96.096 1.433q.026.597-.055 1.19a4.4 4.4 0 0 0 .065 1.89 4.06 4.06 0 0 0 2.072 2.216 2.36 2.36 0 0 0 1.844.017 2.56 2.56 0 0 0 1.345-1.464q.27-.739.427-1.51.144-.709.387-1.391.23-.6.454-1.203a30.3 30.3 0 0 1 2.006-4.595c1.129-1.953 2.474-2.462 4.799-1.818 2.97.822 4.837 2.684 5.396 5.385.283 1.587.443 3.194.48 4.806q.035.748.08 1.493c.095 1.53.463 3.162 2.458 3.669 1.96.498 3-.746 3.838-2.16q.296-.504.591-1.014a28.5 28.5 0 0 1 2.058-3.23c1.526-1.969 3.347-2.962 4.994-2.723 1.566.23 2.884 1.536 3.71 3.676a32.8 32.8 0 0 1 2.453 10.618 93.8 93.8 0 0 1-3.733 29.498 51.1 51.1 0 0 1-6.397 13.875c-3.305 4.945-8.526 8.467-15.963 10.772-12.875 3.989-24.984 1.822-37.011-6.625a11.9 11.9 0 0 1-3.04-2.926 105 105 0 0 1-5.662-9.106 364 364 0 0 1-7.9-15.589c-4.054-8.462-9.183-15.039-15.687-20.107a4.5 4.5 0 0 1-.47-.413q-.262-.272-.534-.542c-1.313-1.313-2.553-2.56-1.785-4.562.825-2.154 2.967-2.363 5.09-2.394h.212c6.54 0 16.028 4.21 17.177 12.274.3 2.115 1.513 3.325 3.328 3.325h.044c1.796-.02 2.99-1.148 3.451-3.265.192-.9.278-1.82.257-2.74a4015 4015 0 0 0-.51-25.25M19.753 10.68l1.029 1.238a544 544 0 0 0 4.147 4.96c.713.892 1.51 1.715 2.379 2.456a3.2 3.2 0 0 0 2.334.8 2.13 2.13 0 0 0 1.457-.881 4.07 4.07 0 0 0 .493-3.325 10.6 10.6 0 0 0-2.225-3.265l-.114-.131c-2.1-2.394-4.27-4.797-6.366-7.12L20.48 2.747C19.131 1.244 18.106.603 17.057.602h-.003c-1.006 0-1.995.596-3.204 1.931-3.485 3.854-6.87 7.91-10.147 11.83q-1.262 1.513-2.528 3.023a3.06 3.06 0 0 0-.844 2.2 2.28 2.28 0 0 0 .883 1.568c1.148.961 2.556.771 3.763-.505.809-.853 1.593-1.757 2.352-2.629.555-.638 1.11-1.278 1.68-1.903q.543-.6 1.082-1.227a40 40 0 0 1 2.958-3.15q0 .335-.003.623c-.004.691-.008 1.194.007 1.695l.174 6.23c.184 6.676.375 13.579.628 20.367.095 1.925.399 3.835.906 5.695a2.855 2.855 0 0 0 2.903 2.154c.1 0 .197-.004.303-.012a2.84 2.84 0 0 0 2.756-2.645c.166-1.13.224-2.273.172-3.413a643 643 0 0 0-.438-6.637c-.256-3.66-.52-7.444-.662-11.167-.128-3.356-.098-6.664-.066-10.167.009-1.248.02-2.506.024-3.784"/></g><defs><clipPath id="a"><path fill="#fff" d="M.195.602H112.43v155.552H.195z"/></clipPath></defs></svg>