<svg xmlns="http://www.w3.org/2000/svg" width="113" height="151" fill="none" viewBox="0 0 113 151"><g fill="#000" clip-path="url(#a)"><path d="M33.243 134.406c1.392 2.396 3.706 4.392 5.326 5.685a48.7 48.7 0 0 0 12.986 7.194 41.1 41.1 0 0 0 15.148 2.892 50.5 50.5 0 0 0 17.319-3.287 36.1 36.1 0 0 0 10.744-6.392c5.99-4.977 10.155-11.784 12.733-20.806a112.9 112.9 0 0 0 4.255-36.05c-.141-3.188-1.082-6.37-1.992-9.446l-.131-.448a10.36 10.36 0 0 0-6.135-6.726c-4.57-1.94-8.801-1.373-12.578 1.687-2.33-4.397-6.07-7.303-10.322-7.995a11.58 11.58 0 0 0-9.99 3.159c-4.742-6.46-8.396-7.134-15.803-2.88q-.126-1.877-.242-3.737c-.197-3.109-.397-6.322-.707-9.458-.585-5.894-1.313-12.846-2.273-19.713a22.04 22.04 0 0 0-4.212-9.976c-2.612-3.57-6.235-4.37-10.208-2.255a9.7 9.7 0 0 0-4.894 6.062 22 22 0 0 0-.853 4.695 547 547 0 0 1-.22 3.252c-.29 4.224-.59 8.593-.584 12.895.013 8.84.15 17.487.296 26.642q.08 5.103.156 10.266l-.056-.049c-.38-.343-.707-.639-1.066-.906-6.609-4.927-13.729-6.704-21.161-5.285a9.7 9.7 0 0 0-7.457 5.968 10.36 10.36 0 0 0 1.564 9.94 24.5 24.5 0 0 0 3.532 3.59l.547.487a52.2 52.2 0 0 1 11.778 14.819c4.264 8.154 9.007 16.718 14.5 26.176m3.566-71.784c-.04-1.668-.119-3.363-.197-5.001-.131-2.882-.273-5.86-.2-8.78.187-7.62.631-15.363 1.06-22.852l.02-.334c.137-2.417.735-4.994 4.084-5.841 2.16 1.61 3.472 3.959 4.011 7.176.889 5.293 1.473 10.08 1.787 14.636.46 6.637.803 13.394 1.137 19.927q.246 4.82.506 9.64c.081 1.465.46 3.45 2.8 3.784 2.283.328 3.157-1.473 3.801-2.784.29-.59.57-1.19.853-1.792a28.4 28.4 0 0 1 2.871-5.201c.991-1.308 2.28-1.942 3.526-1.741 1.28.206 2.327 1.243 2.873 2.846a17.8 17.8 0 0 1 .682 4.602c.034.536.066 1.07.114 1.6q.03.588-.044 1.172a4.25 4.25 0 0 0 .1 1.91 3.53 3.53 0 0 0 2.247 2.062 3.67 3.67 0 0 0 2.802-1.217 3.37 3.37 0 0 0 .65-1.668q.083-.485.244-.95c.19-.493.375-.984.56-1.483a49 49 0 0 1 2.077-4.978c1.126-2.22 3.33-2.026 4.542-1.714 3.144.811 5.03 2.686 5.606 5.573.273 1.595.427 3.208.46 4.826q.025.57.055 1.14c.095 1.76.479 3.45 2.626 3.89s3.107-1.226 3.745-2.328l.359-.623a31 31 0 0 1 2.107-3.337c1.59-2.1 3.397-3.12 5.091-2.875 1.588.229 2.93 1.586 3.778 3.82a34 34 0 0 1 2.404 10.633c.304 8.363-.74 17.176-3.385 28.576a41.4 41.4 0 0 1-6.594 14.513c-3.601 5.114-8.921 8.694-16.262 10.941-12.803 3.92-24.81 1.772-36.71-6.56a12.9 12.9 0 0 1-3.286-3.15 101 101 0 0 1-5.637-9.119 325 325 0 0 1-7.437-14.692c-4.27-8.984-9.57-15.843-16.2-20.966a2 2 0 0 1-.217-.184 27 27 0 0 0-.673-.681c-1.26-1.247-2.452-2.429-1.833-4.398.675-2.156 2.62-2.506 4.674-2.506h.268c7.28.097 12.68 2.833 16.051 8.132a12.4 12.4 0 0 1 1.27 3.335q.133.485.27.96c.43 1.436 1.138 2.932 3.144 3.14 1.64.169 3.085-1.075 3.61-3.095.242-1.007.347-2.044.312-3.08-.154-9.03-.32-17.18-.502-24.904m24.71-45.597c1.329.346 2.7.507 4.073.479 5.19-.07 10.465-.18 15.567-.285q3.166-.066 6.333-.128c.536-.01 1.072-.009 1.727-.005h.491c-.59.776-1.169 1.524-1.728 2.252-1.505 1.956-2.925 3.806-4.283 5.67-.968 1.331-1.367 2.552-1.153 3.529a2.07 2.07 0 0 0 1.05 1.389c.433.26.925.402 1.43.414 1.307 0 2.247-1.105 2.983-1.97 3.27-3.84 6.756-7.977 10.099-12.202 1.232-1.556 1.675-2.65 1.483-3.656-.197-1.02-1.056-1.903-2.88-2.96L94.95 8.539c-3.623-2.089-7.368-4.248-11.003-6.45-2.24-1.358-3.836-1.89-4.868-.351-.968 1.444-.312 2.97 1.95 4.534 1.757 1.213 3.526 2.345 5.575 3.655q1.038.664 2.166 1.39h-.03c-.41.041-.656.066-.905.077q-3.216.142-6.432.28c-4.952.211-10.073.431-15.108.678a20.6 20.6 0 0 0-4.725.656 2.98 2.98 0 0 0-1.693 2.12c-.124.69.965 1.714 1.642 1.898"/></g><defs><clipPath id="a"><path fill="#fff" d="M.545.228h111.577v150.3H.545z"/></clipPath></defs></svg>