<svg xmlns="http://www.w3.org/2000/svg" width="131" height="147" fill="none" viewBox="0 0 131 147"><g fill="#000" clip-path="url(#a)"><path d="M128.758 69.616c-2.198-5.662-7.417-8.565-13.317-7.392a16.7 16.7 0 0 0-4.065 1.602c-.532.262-1.08.535-1.645.787a12.22 12.22 0 0 0-8.63-7.538c-4.602-1.236-8.372-.227-11.214 3.006-1.935-3.112-4.397-5.021-7.147-5.533-2.777-.516-5.71.372-8.747 2.64q-.136-1.983-.257-3.883c-.206-3.212-.4-6.246-.702-9.29a683 683 0 0 1-.338-3.505c-.507-5.336-1.031-10.854-1.992-16.207a29.6 29.6 0 0 0-3.916-9.665c-1.21-2.047-2.768-3.315-4.634-3.77-1.988-.484-4.247.016-6.533 1.444-3.775 2.363-4.62 6.29-4.932 9.447-.425 4.26-.65 8.114-.688 11.78-.1 9.451-.109 19.195-.028 28.953.026 3.15.192 6.343.351 9.434q.1 1.962.192 3.926h-.009q-.297-.237-.587-.483c-.299-.251-.599-.503-.914-.733-6.673-4.885-13.797-6.62-21.188-5.152a9.64 9.64 0 0 0-7.313 5.903 10.32 10.32 0 0 0 1.444 9.809 24 24 0 0 0 3.59 3.696l.46.412a53 53 0 0 1 11.99 15.072c4.185 8.062 8.871 16.533 14.327 25.896 1.427 2.45 3.716 4.454 5.55 5.926 3.366 2.701 7.397 4.938 12.689 7.039a41.1 41.1 0 0 0 15.325 2.961 50.6 50.6 0 0 0 17.143-3.216 37.24 37.24 0 0 0 21.508-21.387c5.18-13.348 7.197-27.88 6.169-44.43a25.9 25.9 0 0 0-1.942-7.549M56.501 83.793c-.143-8.384-.328-16.605-.5-24.237-.046-1.927-.116-3.855-.186-5.783-.141-3.84-.287-7.81-.21-11.705.12-6.098.532-12.296.93-18.29l.146-2.197c.225-3.404 1.436-5.123 4.04-5.718 2.087 1.353 3.362 3.564 4.008 6.946a113 113 0 0 1 1.815 13.614c.448 6.613.781 13.345 1.103 19.856q.266 5.361.55 10.72c.14 2.554 1.127 3.913 2.933 4.038 2.225.158 3.048-1.548 3.703-2.915q.363-.764.715-1.54c.754-1.82 1.7-3.555 2.823-5.174 1.082-1.436 2.438-2.13 3.71-1.904 1.329.235 2.414 1.419 2.974 3.249a18 18 0 0 1 .565 4.348c.025.518.05 1.034.09 1.546q.02.52-.056 1.035a3.7 3.7 0 0 0 .07 1.723 4.3 4.3 0 0 0 1.997 2.268 2.4 2.4 0 0 0 3.243-1.338 9.7 9.7 0 0 0 .514-1.557c.065-.242.13-.485.204-.722.142-.46.27-.924.4-1.389.26-1.038.597-2.054 1.01-3.04l.036-.078c.97-2.144 1.889-4.168 4.598-3.986 2.193.147 5.054 1.009 6.224 4.278.536 1.745.858 3.547.962 5.37l.079.787c.035.342.047.695.06 1.05.055 1.582.118 3.375 2.353 3.99 2.351.648 3.26-.977 4.057-2.411.153-.275.306-.55.468-.808q.226-.36.45-.722a21.4 21.4 0 0 1 2.177-3.103c1.345-1.496 2.863-2.219 4.297-2.028 1.406.185 2.668 1.252 3.559 3.005 2.089 4.11 3.016 8.092 2.757 11.832-.541 7.784-1.421 15.52-2.291 22.721-.722 5.988-3.14 11.48-5.407 16.062-3.605 7.28-9.546 11.997-18.7 14.847-12.717 3.957-24.715 1.79-36.684-6.622a12.9 12.9 0 0 1-3.262-3.174 102 102 0 0 1-5.619-9.131 359 359 0 0 1-7.757-15.284c-3.994-8.367-9.107-14.959-15.633-20.15a11.6 11.6 0 0 1-2.754-3.184 2.6 2.6 0 0 1-.309-2.13 3.07 3.07 0 0 1 1.768-1.761 10 10 0 0 1 4.118-.87c.756.003 1.51.076 2.254.217 5.723 1.062 9.569 3.192 12.1 6.702a17.4 17.4 0 0 1 2.041 4.51c.137.394.272.792.414 1.181.561 1.543 1.345 2.973 3.26 2.999h.056c1.678 0 2.9-1.042 3.353-2.867a12 12 0 0 0 .384-3.077zM1.87 16.464c2.995 3.052 6.481 6.592 9.955 10.002a3.1 3.1 0 0 0 1.984.849h.07c.608-.025 2.082-.163 2.616-.919a3.06 3.06 0 0 0-.046-2.828 10.5 10.5 0 0 0-2.126-2.297q-.24-.212-.475-.424c-1.175-1.069-2.374-2.116-3.763-3.329l-1.333-1.166h2.64c1.884-.007 3.768 0 5.653 0 4.555.01 9.26.021 13.885-.128q.524-.017 1.05-.027c2.857-.066 5.812-.132 8.726-1.863l.307-.183-.2-.296a4.7 4.7 0 0 0-4.01-2.267c-3.963-.117-7.843-.225-11.74-.26-3.418-.03-6.815-.023-10.41-.016-1.271 0-2.56.005-3.88.006l7.165-5.637q.24-.186.503-.374c1.033-.746 2.447-1.768 1.327-3.465a1.98 1.98 0 0 0-1.301-.985c-.82-.131-1.572.448-2.236.964-.214.166-.423.329-.622.455a436 436 0 0 0-5.938 3.869c-2.37 1.564-4.822 3.18-7.27 4.709a3.197 3.197 0 0 0-1.514 4.07c.203.583.54 1.11.982 1.54"/></g><defs><clipPath id="a"><path fill="#fff" d="M.353.197h130.611V146.56H.353z"/></clipPath></defs></svg>