<svg xmlns="http://www.w3.org/2000/svg" width="115" height="136" fill="none" viewBox="0 0 115 136"><g fill="#000" clip-path="url(#a)"><path d="M7.915 102.691c1.036.438 2.124.78 3.177 1.111l.984.314a51.9 51.9 0 0 1 16.746 8.837c8.115 6.503 16.326 12.621 23.287 17.748a18.6 18.6 0 0 0 6.477 3.01 57 57 0 0 0 13.43 1.706 43.2 43.2 0 0 0 26.768-9.123c10.684-8.073 16.087-18.372 16.054-30.622a72 72 0 0 0-1.45-14.408 118.6 118.6 0 0 0-8.699-26.92c-2.106-4.455-4.555-7.868-7.486-10.435a11.74 11.74 0 0 0-9.208-2.954 11.93 11.93 0 0 0-8.376 5.12c-.252.357-.497.721-.776 1.138l-.25.37c-3.613-2.925-7.289-4.046-11.223-3.43-3.803.595-5.478 1.837-9.224 6.917-7.856-4.08-11.842-1.56-15.54 3.958-.603-1.143-1.188-2.265-1.764-3.369-1.444-2.773-2.812-5.392-4.285-7.984-3.385-5.96-6.715-11.775-10.23-17.4a21.6 21.6 0 0 0-8.208-7.581c-3.7-1.965-6.963-1.301-9.7 1.974a9.49 9.49 0 0 0-1.985 8.837c.574 2.161 1.354 4.299 2.107 6.366.387 1.06.773 2.119 1.134 3.185C13.93 51.613 19.86 63.66 25.593 75.308l.949 1.925c.483.985.926 1.97 1.439 3.11l.532 1.181-.52-.093a60 60 0 0 1-1.758-.324 28.4 28.4 0 0 0-18.861 2.677C2.964 85.997.93 89.02 1.157 93.027c.259 4.63 2.533 7.882 6.758 9.665m24.17-10.698c1.608 1.755 3.075 2.223 4.487 1.432 1.473-.826 2.044-2.26 1.652-4.147a14.8 14.8 0 0 0-1.134-3.228 1698 1698 0 0 0-5.209-11.037c-3.534-7.453-7.188-15.161-10.604-22.817-2.419-5.42-4.552-11.081-6.615-16.556q-.948-2.516-1.903-5.027a9.1 9.1 0 0 1-.814-4.08 5.42 5.42 0 0 1 1.792-3.386c.332-.252 1.92.168 2.85.87a18.4 18.4 0 0 1 4.197 4.155 102 102 0 0 1 6.288 10.297c3.202 6.124 6.367 12.4 9.427 18.47q2.226 4.413 4.463 8.821l.105.209c.347.777.804 1.5 1.358 2.145a2.924 2.924 0 0 0 4.5.134c.38-.432.624-.965.703-1.534a6.5 6.5 0 0 0 .075-1.813 9 9 0 0 1-.005-1.235 71 71 0 0 0 .14-1.804c.061-1.716.298-3.42.708-5.087A3.278 3.278 0 0 1 54.3 55.15a16.2 16.2 0 0 1 2.737 3.824q.301.52.606 1.027c.312.57.56 1.173.74 1.797.108.328.215.651.338.968.666 1.707 1.94 2.388 3.586 1.924 1.483-.419 2.182-1.575 1.969-3.25a54 54 0 0 0-.308-2.026c-.108-.656-.216-1.306-.3-1.962a14 14 0 0 1-.112-2.297l.013-.353c.079-2.133.154-4.148 2.385-5.075 2.8-1.165 5.457-.745 7.482 1.181a16.5 16.5 0 0 1 2.53 3.479c.222.367.443.734.669 1.092q.334.568.57 1.181c.23.67.59 1.287 1.06 1.816.794.779 2.183 1.463 3.14 1.26.958-.205 1.939-1.405 2.328-2.446a9.4 9.4 0 0 0 .44-2.555c.038-.493.077-1.003.162-1.482.154-1.087.421-2.155.798-3.186.7-1.735 1.838-2.87 3.212-3.194a4.25 4.25 0 0 1 3.78 1.181c2.2 1.933 4.915 4.534 6.4 7.526 5.884 11.842 9.288 23.927 10.118 35.923.041.595.029 1.21.018 1.806a42 42 0 0 0-.011.863v.014c.769 18.949-19.564 32.336-33.9 33.227-10.962.684-19.986-2.328-27.58-9.201-5.37-4.861-11.178-9.434-16.152-13.265a50.3 50.3 0 0 0-16.807-8.591l-.157-.046a24.6 24.6 0 0 1-4.52-1.627c-1.325-.69-2.107-1.593-2.202-2.542-.092-.913.432-1.858 1.514-2.732a14 14 0 0 1 5.135-2.675 23.7 23.7 0 0 1 5.907-.815 15.04 15.04 0 0 1 8.43 2.423 17 17 0 0 1 3.178 2.992q.294.332.59.656zM45.6 15.176a48.5 48.5 0 0 1 29.423 11.131c.32.259.638.525.955.788.883.732 1.795 1.49 2.763 2.145.715.542 1.575.86 2.47.912a2.67 2.67 0 0 0 1.949-.87c1.772-1.798.254-3.735-.245-4.372a17 17 0 0 0-2.344-2.494C72.793 15.813 64.2 11.646 55.03 10.03c-2.21-.389-4.415-.58-6.752-.782-.853-.074-1.712-.149-2.584-.234q.453-.485.893-.952c1.013-1.076 1.969-2.092 2.882-3.15 1.058-1.226 1.152-2.5.256-3.493-1.35-1.5-2.834-.475-3.722.137a1001 1001 0 0 1-10.794 7.38c-2.029 1.363-3.103 2.925-3.103 4.516 0 1.468.928 2.87 2.69 4.055a73 73 0 0 0 9.208 4.988l1.444.697a6.94 6.94 0 0 0 3.454.375 2.23 2.23 0 0 0 1.877-1.011 2.14 2.14 0 0 0-.11-2.046 9.7 9.7 0 0 0-2.41-2.904 20 20 0 0 0-2.669-1.754q-.423-.248-.89-.525l.074-.016q.406-.114.827-.135"/></g><defs><clipPath id="a"><path fill="#fff" d="M.66.447h114.203v135.206H.66z"/></clipPath></defs></svg>