<svg xmlns="http://www.w3.org/2000/svg" width="115" height="136" fill="none" viewBox="0 0 115 136"><g fill="#000" clip-path="url(#a)"><path d="M110.403 85.246a20 20 0 0 0-4.764-2.629c-6.075-2.362-11.755-2.784-17.368-1.29a5.3 5.3 0 0 1-1.05.117l-.329.018c.445-.857.88-1.684 1.307-2.494 1.08-2.048 2.1-3.983 3.023-5.962l1.346-2.88c5.353-11.458 10.89-23.308 15.081-35.496 1.195-3.474 1.695-6.41 1.531-8.974-.21-3.271-1.793-5.88-4.346-7.159-2.594-1.299-5.82-.978-8.63.857a15.1 15.1 0 0 0-3.943 3.297l-.888 1.172a113 113 0 0 0-7.81 11.216c-2.454 4.212-4.711 8.629-6.892 12.9-1.05 2.054-2.1 4.108-3.174 6.149-.16.256-.357.487-.585.684l-.091.09c-4.665-6.498-7.722-7.216-15.694-3.734-1.427-3.854-4.34-6.194-8.664-6.96-4.195-.745-7.931.361-11.41 3.38l-.197-.2a3.6 3.6 0 0 1-.432-.48c-2.554-3.74-6.022-5.913-9.765-6.115-3.654-.193-7.207 1.52-10.03 4.83a44.7 44.7 0 0 0-5.876 9.057c-4.227 8.466-6.532 17.73-8.566 25.9a58.1 58.1 0 0 0-1.46 17.81c.574 9.412 4.555 17.647 11.83 24.481 8.903 8.358 19.376 12.58 31.18 12.58q1.92 0 3.888-.15c5.676-.431 12.235-1.462 17.84-5.841 2.541-1.987 5.152-3.976 7.675-5.899 4.322-3.293 8.79-6.695 13.061-10.203a53 53 0 0 1 17.899-9.48 22.1 22.1 0 0 0 6.165-2.818 9.69 9.69 0 0 0 4.158-7.767 9.84 9.84 0 0 0-4.02-8.007M6.501 93.778c.172-1.284.322-2.574.472-3.863a93 93 0 0 1 1.411-9.33c2.021-9.077 4.326-16.277 7.254-22.664A27.9 27.9 0 0 1 22.5 48.61c1.726-1.529 3.503-2.119 5.008-1.66 1.52.463 2.68 1.968 3.266 4.235.293 1.256.5 2.532.618 3.816.056.489.112.977.179 1.463.19 1.42.63 2.925 2.45 3.32 1.63.354 2.889-.363 3.846-2.193q.441-.847.867-1.707c.558-1.111 1.135-2.26 1.773-3.34a6.93 6.93 0 0 1 4.584-3.281c2.064-.48 3.777-.262 4.95.637 1.15.877 1.798 2.42 1.874 4.463.016 1.25-.057 2.5-.217 3.74q-.066.622-.125 1.241c-.031.352-.096.698-.165 1.065q-.132.627-.185 1.266a2.823 2.823 0 0 0 5.39 1.407c.236-.53.442-1.084.641-1.619a15.4 15.4 0 0 1 1.189-2.666 14.6 14.6 0 0 1 3.24-4.031 3.36 3.36 0 0 1 3.072-.706 3.29 3.29 0 0 1 2.068 2.293c.47 1.731.758 3.506.858 5.297q.07.787.152 1.563a6 6 0 0 1-.046 1.215 4.2 4.2 0 0 0 .073 1.852c.37 1.055 1.2 2.32 2.152 2.602s2.253-.399 3.184-1.018a3.6 3.6 0 0 0 1.094-1.601q.116-.261.236-.504 2.154-4.239 4.29-8.487c3.116-6.18 6.337-12.57 9.597-18.806a97 97 0 0 1 6.281-10.298 19.3 19.3 0 0 1 4.439-4.382c1.1-.813 2.21-1.046 3.044-.64.857.415 1.374 1.468 1.418 2.887a12.3 12.3 0 0 1-.828 4.463 567 567 0 0 0-1.265 3.51c-1.637 4.561-3.33 9.278-5.34 13.754-3.609 8.034-7.404 16.146-11.075 23.991a4433 4433 0 0 0-6.47 13.89 11.6 11.6 0 0 0-1.323 4.58c-.01 1.123.99 2.514 1.92 3.16 1.116.773 2.578.415 3.728-.907.248-.285.466-.59.678-.888.176-.248.352-.495.545-.728 2.252-2.72 6.38-4.551 11.045-4.897 4.511-.334 8.696.806 11.196 3.05 1.238 1.116 1.828 2.212 1.706 3.182s-.919 1.832-2.363 2.582a13.2 13.2 0 0 1-2.756 1.05c-7.754 2.012-14.916 5.857-21.893 11.756-4.226 3.573-8.79 7.389-13.532 11.092-2.779 2.166-5.802 4.132-8.725 6.03l-.11.07c-2.968 1.929-6.486 2.214-9.89 2.489l-.318.025c-14.44 1.175-26.358-3.841-35.412-14.905-4.545-5.556-6.55-11.69-5.96-18.234l.033-.365zm27.809-63.69a3.5 3.5 0 0 0 1.813-.559 29.4 29.4 0 0 0 3.554-2.606c8.712-7.316 18.64-11.268 29.518-11.748.46.003.919.055 1.368.153l.103.019q-.437.27-.846.518c-1.04.635-1.94 1.182-2.788 1.824-1.431 1.08-2.41 2.531-2.494 3.698a1.6 1.6 0 0 0 .424 1.288c1.243 1.256 3.089 1.432 5.063.484l1.042-.5a76 76 0 0 0 9.613-5.179c1.785-1.198 2.73-2.613 2.732-4.093 0-1.582-1.056-3.13-3.06-4.48-3.13-2.108-6.46-4.383-10.796-7.378-.953-.656-2.39-1.65-3.721-.209-.992 1.073-.865 2.34.376 3.765.865.991 1.787 1.949 2.764 2.963l1.03 1.073-.074.031c-.439.03-.879.058-1.318.058h-.004c-11.687 0-22.513 4.147-33.1 12.676a21.5 21.5 0 0 0-3.237 3.488c-1.016 1.29-1.004 2.716.033 3.815a2.7 2.7 0 0 0 2.006.899"/></g><defs><clipPath id="a"><path fill="#fff" d="M.094.447h114.859v135.206H.093z"/></clipPath></defs></svg>