<svg xmlns="http://www.w3.org/2000/svg" width="113" height="158" fill="none" viewBox="0 0 113 158"><g fill="#000" clip-path="url(#a)"><path d="M71.181 70.965c-1.99-3.375-4.262-5.132-7.319-5.677-3.141-.559-5.703.663-8.507 2.733-.09-1.318-.174-2.606-.257-3.872-.207-3.203-.403-6.228-.706-9.267q-.183-1.85-.357-3.7c-.512-5.383-1.041-10.948-2.017-16.343-.518-2.863-1.838-6.012-4.028-9.628-2.37-3.909-6.366-4.759-10.681-2.276-3.925 2.257-4.853 6.142-5.223 9.274-.287 2.41-.332 4.882-.376 7.272l-.022 1.16q-.06 2.788-.125 5.575c-.149 6.443-.302 13.104-.3 19.657 0 4.868.156 9.814.306 14.597q.1 3.047.18 6.093-.247-.196-.493-.394c-.282-.23-.566-.46-.86-.675-6.648-4.892-13.775-6.639-21.18-5.185a9.66 9.66 0 0 0-7.343 5.895 10.3 10.3 0 0 0 1.41 9.794 24 24 0 0 0 3.62 3.737l.422.378a52.9 52.9 0 0 1 12.004 15.062c4.159 8.019 8.843 16.49 14.321 25.9 1.426 2.451 3.711 4.459 5.541 5.935 3.452 2.784 7.583 5.064 13 7.172a41 41 0 0 0 15.05 2.855 50.5 50.5 0 0 0 17.102-3.204 36.6 36.6 0 0 0 11.04-6.545c5.911-4.914 10.031-11.625 12.593-20.514a111.8 111.8 0 0 0 4.3-36.38 34.9 34.9 0 0 0-2.297-10.211 10.8 10.8 0 0 0-11.776-7.257 20.4 20.4 0 0 0-5.05 1.489c-.692.268-1.404.545-2.137.797-1.405-3.594-4.418-6.18-8.519-7.3-4.594-1.256-8.4-.228-11.316 3.053M43.229 140.49a12 12 0 0 1-3-2.97c-1.766-2.625-3.816-5.764-5.629-9.128a330 330 0 0 1-7.436-14.692c-4.267-8.97-9.57-15.825-16.212-20.958a2 2 0 0 1-.214-.186q-.318-.334-.657-.662c-1.267-1.257-2.465-2.444-1.823-4.421.696-2.14 2.714-2.487 4.672-2.487h.293c7.154.115 12.495 2.767 15.869 7.884a13 13 0 0 1 1.395 3.544c.1.35.196.697.305 1.039.444 1.433 1.169 2.923 3.171 3.111 1.641.156 3.043-1.074 3.59-3.126.228-.897.332-1.822.31-2.748-.151-8.34-.323-16.493-.51-24.236a258 258 0 0 0-.196-5.291c-.138-3.228-.282-6.563-.207-9.839.165-7.242.597-14.604 1.014-21.724l.066-1.125c.142-2.412.742-4.98 4.095-5.808 2.174 1.654 3.485 4.013 4.004 7.205.872 5.368 1.456 10.267 1.783 14.977.452 6.51.795 13.139 1.127 19.549q.25 4.84.516 9.681c.082 1.465.466 3.448 2.833 3.756 2.248.293 3.096-1.432 3.775-2.817.278-.567.546-1.143.815-1.72a28.6 28.6 0 0 1 2.915-5.266c.985-1.291 2.253-1.92 3.492-1.721 1.285.205 2.344 1.254 2.905 2.878.423 1.457.654 2.963.688 4.48q.043.697.103 1.387a10 10 0 0 1-.031 1.575q-.065.715-.047 1.43a2.536 2.536 0 0 0 2.393 2.55c1.51.2 2.586-.417 3.027-1.739.131-.397.229-.805.323-1.2q.148-.697.387-1.368.26-.691.512-1.388a29 29 0 0 1 1.89-4.434c1.191-2.1 2.608-2.634 5.055-1.898 2.966.89 4.74 2.743 5.27 5.509a35 35 0 0 1 .459 4.85q.025.561.055 1.12c.09 1.637.43 3.228 2.302 3.784 2.192.657 3.26-.836 4.088-2.28l.247-.432a29.6 29.6 0 0 1 2.422-3.784c1.505-1.895 3.302-2.84 4.927-2.591 1.53.233 2.81 1.49 3.604 3.54a34.8 34.8 0 0 1 2.518 10.945c.421 10.115-1.429 19.958-3.294 28.253a42.2 42.2 0 0 1-6.695 14.833c-3.431 4.926-8.69 8.542-15.634 10.746-13.026 4.144-25.687 1.925-37.63-6.587M19.574 20.914c.879.28 1.759.558 2.632.853l.329.11.158-.518q.13.01.257.023c.434.086.884.048 1.297-.11l.186-.093c.874-.436 1.962-.979 2.166-1.78a4.6 4.6 0 0 0-.745-3.24 4.5 4.5 0 0 0-2.414-1.51c-3.006-.906-5.477-1.56-7.775-2.06-2.03-.441-3.683.287-4.316 1.903-.564 1.444-.044 3.368 2.044 4.25 2.013.85 4.132 1.521 6.18 2.172m42.207 3.867a3.4 3.4 0 0 0 1.776-.53 66 66 0 0 0 6.78-4.95c.46-.454.791-1.023.96-1.648q.073-.227.172-.446l.037-.073v-.082a3.38 3.38 0 0 0-1.607-3.09 3.24 3.24 0 0 0-3.32.357 45 45 0 0 0-5.897 4.876l-.565.525c-1.226 1.131-1.458 2.547-.622 3.786a2.69 2.69 0 0 0 2.286 1.275"/><path d="M67.891 37.167c-.957.318-1.873 1.73-2.023 2.734-.216 1.435.787 2.626 2.442 2.895.915.149 1.833.244 2.806.344q.659.066 1.356.145l.038.005.039-.005c.46-.053.94-.09 1.428-.127a16.8 16.8 0 0 0 3.759-.575 4.03 4.03 0 0 0 2.186-2.56 2.08 2.08 0 0 0-.197-1.64 2.8 2.8 0 0 0-1.778-1.255c-3.843-.945-7.132-.932-10.056.04M7.15 38.8c-.114.771 1.108 1.895 1.854 2.085 1.194.269 2.407.44 3.629.514.54.048 1.101.097 1.687.164l.036.004.037-.004a36 36 0 0 1 1.292-.108 18.5 18.5 0 0 0 3.759-.54 3.08 3.08 0 0 0 1.715-2.56c-.049-.849-1.211-2.262-2.067-2.286a82 82 0 0 0-10.042.347c-.853.08-1.774 1.522-1.9 2.385m32.277-29.1c.3 2.228 1.398 3.5 3.02 3.5h.065c1.76-.036 2.987-1.525 2.985-3.621a34 34 0 0 0-.843-6.983c-.162-.772-1.46-1.61-2.232-1.61h-.02a2.86 2.86 0 0 0-2.197 1.642 20.7 20.7 0 0 0-.753 3.457c-.062.387-.12.754-.182 1.088l-.007.042v.042c.024.374.04.699.055.99.027.564.05 1.007.11 1.453"/></g><defs><clipPath id="a"><path fill="#fff" d="M.868.946h111.577v156.208H.868z"/></clipPath></defs></svg>