<svg xmlns="http://www.w3.org/2000/svg" width="113" height="156" fill="none" viewBox="0 0 113 156"><g fill="#000" clip-path="url(#a)"><path d="M6.04 97.856c.46.405.919.811 1.368 1.23 3.655 3.419 7.77 7.664 10.584 13.231 2.915 5.771 6.544 12.954 10.273 19.701 3.166 5.729 6.968 11.574 13.295 15.515 8.251 5.139 16.764 7.714 25.447 7.714a47.8 47.8 0 0 0 16.07-2.882 39.8 39.8 0 0 0 10.337-5.732c7.903-5.948 12.924-14.687 15.348-26.713a224 224 0 0 0 3.166-22.287 43.4 43.4 0 0 0-1.755-17.759c-1.641-5.103-5.105-8.146-10.29-9.047-3.82-.663-6.919 1.081-9.24 2.79a13.29 13.29 0 0 0-8.886-7.724c-4.258-1.222-8.029-.23-11.208 2.953-4.513-6.37-8.26-7.154-15.598-3.224q-.196-2.594-.379-5.135c-.307-4.266-.596-8.293-1.02-12.38-.605-5.841-1.193-11.105-2.252-16.307a25.1 25.1 0 0 0-3.51-8.049c-1.497-2.41-3.463-3.856-5.687-4.182-2.328-.34-4.775.553-7.074 2.585-2.182 1.928-3.402 4.618-3.63 7.994q-.125 1.89-.259 3.78c-.434 6.246-.884 12.704-.893 19.062-.01 7.503.238 15.156.477 22.557.096 2.983.193 5.973.275 8.975-5.557-4.761-12.326-6.963-20.15-6.545-3.013.162-7.255.91-9.299 5.524-1.884 4.255-1.323 8.172 1.67 11.643a28.5 28.5 0 0 0 2.82 2.712m21.7-7.666a21 21 0 0 1 2.28 5.397c.485 1.538 1.186 3.185 3.385 3.266 1.793.066 2.991-.926 3.646-3.035a7 7 0 0 0 .313-2.082l-.015-4.381c-.017-5.523-.035-11.233-.145-16.849-.056-2.899-.172-5.845-.283-8.694-.165-4.2-.336-8.544-.32-12.812.024-6.597.42-13.292.858-20.142.172-2.69.791-5.264 4.093-5.892 3.058 2.576 4.048 6.145 4.585 10.701.369 3.123.525 6.33.683 9.43.077 1.545.154 3.091.256 4.635q.898 13.586 1.827 27.172c.12 1.756 1.058 2.883 2.645 3.174a3.09 3.09 0 0 0 3.631-1.962c.17-.388.31-.791.443-1.181q.256-.822.648-1.59c.182-.328.36-.665.54-1a23.5 23.5 0 0 1 2.538-4.065c1.096-1.304 2.348-1.903 3.527-1.694 1.195.214 2.216 1.284 2.805 2.934.408 1.243.642 2.537.695 3.844q.075 1.757-.065 3.51l-.048.82c-.097 1.83.747 2.954 2.44 3.256 1.123.2 2.625-.034 3.373-2.281q.136-.438.222-.89c.052-.247.103-.494.176-.735q.19-.624.365-1.255c.271-1.077.63-2.131 1.071-3.15l.117-.252c.93-2.002 1.904-4.074 4.5-3.801 2.216.228 5.079 1.181 6.13 4.408.348 1.235.568 2.502.656 3.781.05.474.099.946.16 1.415.058.436.08.896.102 1.34.008.798.112 1.591.31 2.364a3.22 3.22 0 0 0 2.325 2.399 3.29 3.29 0 0 0 3.166-1.274q.53-.66.912-1.416c.166-.301.337-.613.525-.894.23-.343.453-.693.677-1.042q.879-1.468 1.996-2.764c1.28-1.395 2.833-2.06 4.25-1.825a4.27 4.27 0 0 1 3.101 2.733c1.096 2.486 2.564 6.207 2.665 9.806a139 139 0 0 1-.754 15.674l-.203 2.392a55 55 0 0 1-.862 5.59 95 95 0 0 0-.591 3.33c-.89 5.841-3.333 11.005-6.728 16.956-1.952 3.42-5.147 6.304-9.498 8.575-13.31 6.945-26.925 6.589-40.463-1.057-5.884-3.322-9.197-8.586-11.662-13.295-1.78-3.398-3.526-6.887-5.216-10.26-1.619-3.232-3.293-6.572-4.993-9.832a51.9 51.9 0 0 0-12.142-15.3l-.635-.544a25 25 0 0 1-3.227-3.105c-.82-1.009-1.138-1.97-.922-2.789.226-.853 1.035-1.575 2.341-2.085a9.8 9.8 0 0 1 3.578-.657c1.505.034 2.997.28 4.433.728 4.762 1.364 7.78 3.293 9.782 6.254z"/><path d="M12.661 51.373a20.65 20.65 0 0 0 9.891 5.145c.474.105.958.163 1.444.174a2.4 2.4 0 0 0 2.464-1.524c.722-1.858-.86-2.757-2.013-3.417l-.097-.055c-.638-.365-1.292-.705-1.945-1.045a48 48 0 0 1-2.193-1.19c-6.743-3.97-9.74-10.428-8.436-18.185C14.25 16.56 27.186 5.919 41.844 6.499c5.152.207 9.68 2.193 12.748 5.59a17.15 17.15 0 0 1 4.159 12.709q-.111 1.261-.402 2.494c-.1.48-.202.96-.28 1.444-.423 2.58.45 4.397 2.277 4.733a3 3 0 0 0 2.345-.509 4.76 4.76 0 0 0 1.732-3.27q.186-1.516.197-3.044.016-.676.047-1.35a22.38 22.38 0 0 0-5.64-16.103 24.4 24.4 0 0 0-17.012-8.131C24.845-.01 8.91 12.272 5.72 29.034c-1.758 9.22.513 16.527 6.941 22.34"/></g><defs><clipPath id="a"><path fill="#fff" d="M.403.602h112.234v154.896H.403z"/></clipPath></defs></svg>