<svg xmlns="http://www.w3.org/2000/svg" width="160" height="144" fill="none" viewBox="0 0 160 144"><g fill="#000" clip-path="url(#a)"><path d="M155.414 14.287c-1.301-7.847-5.038-10.943-13.331-11.043l-2.443-.032c-5.28-.07-10.74-.143-16.103.087-6.245.268-12.702.545-18.837 3.314-.425-.236-.846-.482-1.269-.729a28 28 0 0 0-3.316-1.743l-.927-.394a28.7 28.7 0 0 0-6.4-2.134A58 58 0 0 0 81.655.8c-9.965.318-21.755.755-33.646 1.575a155 155 0 0 0-20.049 2.58c-4.76.967-9.37 2.57-13.704 4.764a18.12 18.12 0 0 0-9.658 12.824A18.38 18.38 0 0 0 8.951 38.24q.09.106.15.234c-.645.787-1.313 1.547-1.958 2.285a37.6 37.6 0 0 0-4.11 5.29c-3.545 5.908-1.912 12.433 4.063 16.243.764.486 1.572.918 2.428 1.378q.456.241.94.505c-3.033 3.584-4.49 7.279-4.449 11.283.041 4.144 2.241 7.309 6.72 9.661a15.16 15.16 0 0 0-4.397 9.684c-.285 3.9 1.181 6.76 4.363 8.496a32.8 32.8 0 0 0 6.569 2.74 85.4 85.4 0 0 0 21.353 3.175c5.597.17 11.289.192 16.794.214 2.71.011 5.42.021 8.13.049q.427.03.837.15l.365.088q-.127.38-.242.745-.306 1.056-.766 2.055c-.365.738-.788 1.47-1.198 2.179a31 31 0 0 0-1.525 2.866q-.69 1.544-1.395 3.085a94 94 0 0 0-4.314 10.567 9.12 9.12 0 0 0 .746 7.11 8.84 8.84 0 0 0 5.415 4.31 24 24 0 0 0 6.152.853 16.3 16.3 0 0 0 11.502-4.487c2.05-1.915 4.064-3.933 6.012-5.884 1.64-1.641 3.338-3.343 5.046-4.971 5.593-5.332 11.341-11.19 14.833-19.008l2.039.291c1.617.234 3.145.455 4.665.633.883.104 1.782.14 2.652.174q.534.02 1.068.047c7.688.404 15.949.632 24.276-.426a28.1 28.1 0 0 0 11.814-4.047c3.236-2.06 5.009-4.922 5.272-8.497.317-4.322.508-8.286.584-12.119.301-15.325-.152-31.408-1.384-49.167-.485-6.993-1.356-14.308-2.588-21.738m-45.166 84.92c.156-1.492.302-2.901.315-4.34q.032-3.61.084-7.216c.096-7.35.197-14.946-.018-22.413-.32-11.182-.905-22.542-1.47-33.527q-.212-4.083-.417-8.166c-.112-2.232-.413-4.48-.704-6.655q-.116-.864-.228-1.73c-.267-2.09-.146-2.54 1.851-3.002a41.6 41.6 0 0 1 7.246-1.133c7.161-.352 14.254-.535 20.853-.681 1.777.002 3.552.145 5.307.43 3.258.455 4.139 1.312 4.716 4.598q.591 3.466.83 6.975c.167 2.266.35 4.529.533 6.798.493 6.129 1.004 12.466 1.181 18.705.387 13.558.489 27.352.591 40.693l.025 3.402c.047 6.223-.853 7.341-6.876 8.549a72 72 0 0 1-10.967 1.148c-3.77.156-7.621.035-11.344-.084l-.751-.023c-2.528-.079-5.027-.231-7.674-.394q-1.6-.099-3.253-.192c.05-.59.111-1.17.17-1.743m-7.891-5.872c.281 7.57-2.326 14.555-7.971 21.356-4.45 5.362-9.446 10.432-14.277 15.336a1252 1252 0 0 0-4.164 4.245c-2.9 2.982-6.728 2.948-10.09 2.523-1.481-.187-2.255-1.186-2.125-2.74.08-1.082.33-2.145.743-3.148a223 223 0 0 1 2.194-4.868c.974-2.117 1.981-4.306 2.88-6.497a110 110 0 0 0 4.13-11.383c.525-1.831.46-3.172-.197-4.1-.684-.972-1.972-1.488-4.05-1.623a63 63 0 0 0-4.036-.131 56 56 0 0 0-4.422.17 149.6 149.6 0 0 1-34.497-1.413 48 48 0 0 1-9.294-2.647c-2.541-.95-3.014-1.969-2.297-4.937.613-2.545 2.208-4.367 5.174-5.907q.357-.158.74-.23a1.9 1.9 0 0 0 1.225-.602 8.35 8.35 0 0 0 1.623-3.616c.131-1.328-.788-2.429-2.463-2.948a98 98 0 0 0-.95-.287 23.5 23.5 0 0 1-4.323-1.61c-2.26-1.209-2.674-2.317-1.847-4.938 1.005-3.192 3.229-5.553 6.996-7.431 2.704-1.348 4.051-2.494 3.424-4.687-.566-1.976-2.242-2.436-5.338-2.63a25 25 0 0 1-7.403-1.408c-1.983-.784-3.318-2.018-3.857-3.568-.546-1.564-.263-3.381.82-5.25a17.4 17.4 0 0 1 4.266-4.897c.731-.569 1.86-.737 2.954-.898.438-.066.873-.131 1.287-.219a1.8 1.8 0 0 1 .618.036q.33.065.666.059c1.372-.074 3.08-.165 3.632-1.97.525-1.72-.674-2.914-1.778-3.763a18 18 0 0 0-2.48-1.51l-.448-.24c-4.276-2.329-6.038-4.997-5.71-8.652.438-4.893 2.683-8.318 6.672-10.18a52.3 52.3 0 0 1 16.699-4.657A589 589 0 0 1 62.567 9.26c7.256-.416 14.657-.494 21.814-.57l.718-.007c2.45.02 4.895.244 7.309.67 4.466.698 6.569 2.751 7.255 7.085a84 84 0 0 1 .849 11.011c.096 3.69.074 7.447.053 11.08q-.013 2.219-.018 4.438l-.269.034.521 6.854q.832 10.977 1.656 21.954c.073.98.062 1.99.052 3a441 441 0 0 1-.113 5.862c-.096 4.145-.196 8.442-.038 12.662"/><path d="M125.008 95.054a12.5 12.5 0 0 0 4.456.843 10.6 10.6 0 0 0 6.038-1.837c3.085-2.12 4.864-5.75 4.881-9.96.012-3.065-.797-5.434-2.405-7.04s-3.986-2.422-7.074-2.432h-.041a14.2 14.2 0 0 0-8.28 2.811 10.28 10.28 0 0 0-4.413 9.995c.441 3.5 2.741 6.065 6.838 7.62m-.443-9.41c.125-2.438 2.556-5.348 4.486-5.368h.074a5.58 5.58 0 0 1 3.974 1.466 3.3 3.3 0 0 1 .76 1.117 3.3 3.3 0 0 1 .253 1.327 5.57 5.57 0 0 1-1.707 3.938A4.65 4.65 0 0 1 129 89.44a5.08 5.08 0 0 1-3.562-1.552 3.06 3.06 0 0 1-.873-2.245"/></g><defs><clipPath id="a"><path fill="#fff" d="M.677.51H159.51v143.08H.677z"/></clipPath></defs></svg>