<svg xmlns="http://www.w3.org/2000/svg" width="153" height="144" fill="none" viewBox="0 0 153 144"><g fill="#000" clip-path="url(#a)"><path d="M6.511 88.607c.549.373 1.102.74 1.688 1.127l.513.341C4.818 93.96 2.427 98.1 1.409 102.722c-.953 4.332.294 7.983 3.707 10.86.449.378.903.747 1.368 1.126l.424.345c-2.588 3.422-3.991 6.86-4.291 10.501-.374 4.555 1.209 7.832 4.705 9.739 2.578 1.407 5.112 2.716 7.78 3.271a147 147 0 0 0 16.015 2.372c7.505.708 15.64 1.29 24.875 1.779 5.144.272 11.12.539 17.334.539q1.436 0 2.888-.02c7.045-.1 13.323-.517 18.85-4.63a3.8 3.8 0 0 1 4.595-.25 9.7 9.7 0 0 0 3.26.948q.366.06.727.126c9.652 1.801 19.532 1.582 29.087 1.369q2.122-.048 4.244-.088c5.246-.094 8.885-3.036 10.524-8.509.57-1.84.966-3.73 1.181-5.644l.315-3.029c.696-6.694 1.417-13.611 1.895-20.437 1.09-15.559 1.449-31.54 1.065-47.5a126 126 0 0 0-.538-9.095c-.367-3.765-2.179-6.581-5.242-8.144-2.531-1.292-5.4-2.757-8.419-3.442-9.163-2.082-18.601-1.575-26.929-1.132a52 52 0 0 1-2.572.051c-2.822.01-5.736.022-8.566 1.514-2.838-6.985-7.607-12.284-11.914-16.554a666 666 0 0 0-5.083-4.985c-2.677-2.61-5.447-5.31-8.109-8.02-4.43-4.505-10.13-6.029-17.424-4.66a9.13 9.13 0 0 0-5.912 3.903 9.9 9.9 0 0 0-1.468 7.421 21.7 21.7 0 0 0 1.491 4.896c1.583 3.45 3.3 6.826 5.22 10.567.241.47.495.935.749 1.4a18.8 18.8 0 0 1 2.122 5.005q-.173.046-.325.09a3.2 3.2 0 0 1-.794.166q-4.824.049-9.649.083c-5.007.04-10.184.08-15.275.153a59.4 59.4 0 0 0-16.004 2.456 22.67 22.67 0 0 0-10.857 6.82C.735 50.637.957 58.07 7.049 63.958q.05.12.072.247l.038.161a22 22 0 0 0-5.87 11.026c-1.242 5.567.516 10.01 5.222 13.214m11.223-21.353c2.236-.517 3.774-2.017 3.92-3.823.196-2.417-2.256-3.358-3.72-3.92a19 19 0 0 0-2.41-.692 25 25 0 0 1-1.815-.485c-2.774-.897-3.632-2.428-2.963-5.288a10.93 10.93 0 0 1 3.378-5.846c3.707-3.277 7.464-4.93 11.825-5.206l.435-.027c9.32-.586 18.95-1.193 28.445-.305a41 41 0 0 0 7.8-.101c1.767-.174 2.926-.698 3.544-1.604.591-.868.67-2.048.23-3.61a114 114 0 0 0-4.161-11.728c-.752-1.866-1.607-3.723-2.434-5.518-1.018-2.211-2.071-4.499-2.934-6.806-.7-1.87-.76-3.177-.19-3.996.587-.84 1.9-1.255 4.005-1.229 3.806.023 6.606 1.15 8.821 3.544 2.129 2.301 4.35 4.587 6.498 6.798 3.393 3.49 6.9 7.1 10.116 10.845 6.358 7.406 9.254 14.948 8.86 23.055-.18 4.165-.13 8.337.152 12.496a59 59 0 0 1-.464 9.689c-.204 1.974-.415 4.015-.494 6.038-.296 7.56-.476 15.25-.65 22.686-.104 4.445-.208 8.89-.336 13.334l-.006.184c-.1 3.467-.202 7.052-.622 10.533-.707 5.865-2.84 8.013-8.454 8.512-4.359.387-8.829.432-13.15.475-1.662.016-3.323.033-4.982.065-1.772.037-3.572.027-5.316.018q-1.05-.006-2.105-.008l-.008-.112-.292-.021a1999 1999 0 0 0-9.807-.7c-8.451-.594-17.191-1.209-25.767-2.01-3.464-.324-6.937-1.537-9.878-2.681-2.518-.981-3.041-2.06-2.433-5.022a18.6 18.6 0 0 1 1.757-4.937c1.096-2.055 2.475-2.936 4.492-2.842a8.2 8.2 0 0 0 4.317-1.217c1.05-.611 2.192-1.93 2.207-2.996s-1.134-2.436-2.173-3.001a17.4 17.4 0 0 0-4.862-1.53c-2.593-.53-4.314-1.069-4.875-2.119-.492-.919-.242-2.325.922-5.185 1.746-4.284 4.102-6.97 7.416-8.452a4.724 4.724 0 0 0 3.08-5.112c-.159-2.41-1.956-3.348-3.692-3.945-.885-.305-1.801-.547-2.687-.781-.927-.245-1.885-.498-2.793-.82-2.777-.985-3.474-2.11-3.107-5.007.713-5.62 2.984-8.578 7.364-9.592zm95.702 65.981a75 75 0 0 1-9.976-1.072c-3.189-.525-3.171-.722-2.872-4.074a553 553 0 0 0 1.39-19.812l.179-3.335c.447-8.27.91-16.829 1.082-25.251.167-8.148.092-16.434.021-24.448q-.027-2.925-.049-5.851a44 44 0 0 0-.332-4.42c-.065-.624-.136-1.265-.197-1.93 2.67-.077 5.34-.205 7.926-.328 8.019-.386 15.594-.75 23.3.288q.331.043.664.073c.343.034.667.066.988.126 7.106 1.35 8.158 2.626 8.036 9.727l-.055 3.15c-.291 16.949-.59 34.474-1.139 51.702-.193 6.088-.936 12.269-1.655 18.247l-.218 1.816c-.533 4.463-1.42 5.337-5.584 5.486-7.179.255-14.269.101-21.505-.094z"/><path d="M126.622 49.144c-4.004-1.898-9.434-.965-12.912 2.218-2.799 2.56-3.642 5.76-2.504 9.51 1.583 5.224 6.125 8.325 12.461 8.51q.224.006.444.006c2.666 0 4.772-.722 6.263-2.152 1.718-1.645 2.613-4.222 2.66-7.657v-.025c-.308-5.035-2.468-8.542-6.412-10.41m.131 10.817a3.35 3.35 0 0 1-1.097 2.436 5.55 5.55 0 0 1-4.047 1.385c-1.953-.077-4.341-3.033-4.406-5.452a3.12 3.12 0 0 1 .928-2.22 5.2 5.2 0 0 1 3.602-1.496h.093a4.7 4.7 0 0 1 3.293 1.394 5.55 5.55 0 0 1 1.634 3.953"/></g><defs><clipPath id="a"><path fill="#fff" d="M.736.633H152.35v143.082H.736z"/></clipPath></defs></svg>