<svg xmlns="http://www.w3.org/2000/svg" width="129" height="154" fill="none" viewBox="0 0 129 154"><g fill="#000" clip-path="url(#a)"><path d="M110.167 76.88c-2.195-5.666-7.423-8.57-13.308-7.406a16.5 16.5 0 0 0-4.063 1.599c-.525.259-1.06.525-1.612.775a12.6 12.6 0 0 0-8.663-7.519c-4.625-1.222-8.413-.197-11.264 3.04-2.14-3.445-4.365-5.147-7.374-5.66-3.156-.541-5.707.678-8.48 2.734-.092-1.325-.175-2.62-.258-3.892-.206-3.204-.401-6.23-.701-9.269q-.175-1.772-.342-3.544c-.506-5.324-1.03-10.83-1.987-16.17a29.6 29.6 0 0 0-3.912-9.666c-1.21-2.05-2.767-3.321-4.627-3.778-1.981-.487-4.242.011-6.536 1.437-3.665 2.278-4.547 6.061-4.906 9.103-.286 2.423-.333 4.908-.378 7.31l-.021 1.122q-.059 2.79-.124 5.579c-.146 6.44-.297 13.1-.294 19.651 0 4.857.151 9.633.309 14.688q.093 2.979.178 6.022l-.144-.124c-.442-.38-.824-.71-1.236-1.012-6.665-4.889-13.792-6.629-21.186-5.163a9.65 9.65 0 0 0-7.32 5.901 10.31 10.31 0 0 0 1.433 9.805 24 24 0 0 0 3.591 3.702l.46.408a53 53 0 0 1 11.995 15.069c4.163 8.025 8.848 16.496 14.325 25.897 1.424 2.445 3.712 4.453 5.548 5.929 3.35 2.696 7.382 4.933 12.687 7.041a41.1 41.1 0 0 0 15.337 2.966 50.6 50.6 0 0 0 17.13-3.21 37.24 37.24 0 0 0 21.515-21.38c5.186-13.352 7.202-27.886 6.17-44.429a25.9 25.9 0 0 0-1.942-7.557M37.904 91.03c-.15-8.801-.339-17.361-.504-24.573-.044-1.908-.115-3.816-.186-5.724-.14-3.749-.285-7.625-.207-11.428.124-6.188.545-12.478.95-18.56l.128-1.926c.226-3.404 1.438-5.12 4.043-5.703 2.112 1.379 3.421 3.654 4 6.953.868 4.953 1.48 9.948 1.832 14.964.454 6.546.796 13.211 1.126 19.658q.255 4.954.525 9.91c.116 2.056.95 3.245 2.55 3.635 1.619.397 2.957-.466 3.966-2.56l.466-.973c.93-1.946 1.893-3.959 2.987-5.842.663-1.143 1.863-2.425 3.838-2.034 1.689.336 2.812 1.566 3.163 3.461.255 1.568.415 3.149.481 4.735l.056.884q.015.511-.058 1.019a3.7 3.7 0 0 0 .074 1.743 4.23 4.23 0 0 0 2.01 2.257 2.39 2.39 0 0 0 2.716-.528c.228-.238.404-.52.518-.828q.316-.752.506-1.547c.066-.245.132-.49.207-.732.141-.456.27-.92.399-1.379q.391-1.562 1.015-3.046l.03-.066c.973-2.146 1.89-4.178 4.61-3.983 2.195.153 5.055 1.022 6.218 4.292.533 1.741.853 3.54.957 5.359l.079.8c.035.338.047.687.06 1.037.056 1.585.12 3.382 2.367 3.99 2.335.63 3.235-.974 4.026-2.39.16-.287.32-.574.492-.842l.48-.758a21 21 0 0 1 2.382-3.299c1.27-1.337 2.707-1.976 4.059-1.795 1.329.178 2.533 1.152 3.391 2.743a22.25 22.25 0 0 1 2.916 12.115c-.53 7.876-1.46 15.856-2.289 22.72-.722 5.968-3.141 11.468-5.411 16.061-3.515 7.11-9.529 11.935-18.385 14.75-12.69 4.034-25.138 1.832-37.004-6.545a13.2 13.2 0 0 1-3.262-3.178 95 95 0 0 1-5.472-8.826 376 376 0 0 1-7.9-15.59c-3.999-8.371-9.113-14.964-15.637-20.15a11.4 11.4 0 0 1-2.748-3.187 2.6 2.6 0 0 1-.308-2.122A3.1 3.1 0 0 1 9.94 82.24a9.9 9.9 0 0 1 4.1-.864 12.4 12.4 0 0 1 2.273.22c5.732 1.069 9.574 3.201 12.094 6.71a17.4 17.4 0 0 1 2.03 4.491q.208.607.422 1.203c.561 1.54 1.346 2.968 3.272 2.984h.035c1.686 0 2.91-1.05 3.362-2.88.259-1.004.386-2.037.38-3.074zm71.872-86.265c-3.053-1.116-6.344-2.074-9.701-1.526-11.65 1.898-19.215 6.624-23.81 14.874a24 24 0 0 0-1.362 20.634 23.14 23.14 0 0 0 14.579 13.6 46 46 0 0 0 7.052 1.457c.697.103 1.304.193 1.781.283l.037.007h.036c8.514-.235 14.02-1.547 19.005-4.528 6.34-3.79 9.904-9.49 10.595-16.937 1.225-13.206-9.991-24.858-18.212-27.864m3.79 38.535c-3.976 2.44-8.629 3.676-14.64 3.878q-.472-.056-1.024-.117c-.89-.1-1.9-.211-2.902-.37-6.583-1.035-11.453-4.719-13.71-10.37a19.36 19.36 0 0 1 2.703-18.608c3.44-4.479 7.841-6.988 13.08-7.455a10 10 0 0 1 .85-.036 13 13 0 0 1 3.614.546 26.8 26.8 0 0 1 15.078 10.85c3.131 4.64 4.099 8.795 3.047 13.078a13.3 13.3 0 0 1-6.096 8.604"/><path d="M57.428 36.21c1.75 1.343 3.552.438 4.756-.361 2.56-1.698 4.148-4.22 4.856-7.709 1.154-5.659-.25-11.874-3.852-17.052a23.1 23.1 0 0 0-15.167-9.83C35.334-.712 22.55 7.978 17.975 17.16c-3.421 6.861-2.132 15.223 3.133 20.332 1.148 1.116 2.959 2.586 5.483 2.586h.102c1.576-.025 3.264-.313 3.829-2.258.561-1.934-.876-2.888-1.925-3.59-5.457-3.64-6.895-9.552-3.66-15.064C28.859 12.48 35.16 8.299 42.227 7.689c5.1-.029 9.684 1.733 12.896 4.927a15.18 15.18 0 0 1 4.483 10.819c.005 3.009-1.197 5.543-2.537 8.09-.534 1.018-1.652 3.141.359 4.685m51.001-11.15h-.026c-.82.004-1.645.073-2.443.14-.42.035-.838.07-1.258.096-.74.046-1.481.085-2.309.131l-.875.046-.159-2.569a239 239 0 0 0-.438-6.358c-.251-2.92-1.729-3.595-2.925-3.647-1.722-.066-2.865 1.202-3.094 3.507-.328 3.348-.673 7.327-.731 11.42a4.53 4.53 0 0 0 1.312 3.535 4.45 4.45 0 0 0 3.085 1.058q.386 0 .767-.042c1.958-.207 3.938-.502 5.851-.788q1.072-.159 2.146-.315l.119-.017a10 10 0 0 0 1.584-.315c1.989-.634 2.993-1.934 2.684-3.479-.22-1.097-.969-2.402-3.29-2.402"/></g><defs><clipPath id="a"><path fill="#fff" d="M.798.788h127.33v152.927H.798z"/></clipPath></defs></svg>