<svg xmlns="http://www.w3.org/2000/svg" width="160" height="145" fill="none" viewBox="0 0 160 145"><g fill="#000" clip-path="url(#a)"><path d="m140.254 98.355-.241-.59c-2.457-6.052-4.998-12.31-7.993-18.225-8.853-17.481-17.978-35.192-26.802-52.319q-3.887-7.545-7.77-15.089a47 47 0 0 0-2.87-4.997c-2.58-3.784-5.963-5.622-10.068-5.458-3.6-.152-6.712 1.203-9.588 2.607L72.493 5.47C60.79 11.18 48.687 17.087 36.86 23.046c-4.141 2.086-8.442 4.55-11.844 8.41a12.58 12.58 0 0 0-2.948 12.193l.12.472c.186.845.442 1.673.763 2.476a881 881 0 0 0 3.328 7.588 945 945 0 0 1 4.218 9.66 288 288 0 0 0 13.651 28.197c3.243 5.768 5.867 10.546 8.26 15.041 1.68 3.16 3.337 6.335 4.993 9.509 2.81 5.389 5.717 10.961 8.71 16.37a42 42 0 0 0 6.096 8.085 10.55 10.55 0 0 0 8.052 3.53 15 15 0 0 0 2.721-.262c5.219-.985 9.96-3.193 13.91-5.226a957 957 0 0 0 27.042-14.455c3.825-2.127 7.567-4.544 11.188-6.881q1.413-.912 2.83-1.821c3.453-2.208 4.85-5.57 4.153-9.991a34.5 34.5 0 0 0-1.848-7.586m-4.015 10.066c.075 1.356-.555 2.436-1.925 3.3q-1.863 1.183-3.718 2.376c-3.325 2.137-6.76 4.347-10.26 6.301-9.671 5.412-17.589 9.641-24.91 13.311a77 77 0 0 1-10.225 3.938l-1.97.656c-2.71.914-5.178.123-7.134-2.288-1.096-1.349-2.156-2.747-3.277-4.228q-.669-.885-1.387-1.826c6.292-3.571 12.542-7.258 18.589-10.824 14.385-8.485 27.977-16.503 42.736-23.512 1.67 3.934 3.228 8.2 3.481 12.794zm-5.927-18.346c-14.538 6.962-28.454 15.358-41.914 23.475-6.264 3.78-12.74 7.686-19.217 11.412-.213-.372-.412-.716-.602-1.043-.464-.801-.865-1.493-1.226-2.199l-1.882-3.681a5085 5085 0 0 1-11.265-22.108l-2.562-5.07c-6.376-12.612-12.968-25.652-19.35-38.528a54 54 0 0 1-2.567-6.6q-.418-1.244-.853-2.476c-1.192-3.321-.343-6.195 2.455-8.313a63 63 0 0 1 8.953-5.828c9.332-4.837 18.896-9.614 28.145-14.233l4.306-2.152c3.402-1.7 6.033-2.913 8.532-3.933a9.6 9.6 0 0 1 3.577-.81c2.265 0 4.03 1.217 5.505 3.72a308 308 0 0 1 9.375 17.082c7.131 14.079 14.308 28.433 21.246 42.314l6.07 12.138a232 232 0 0 1 2.283 4.736c.32.686.65 1.382.991 2.097m-84.438 27.417a15.8 15.8 0 0 0-3.386-.256c-1.203.032-2.428.12-3.61.206a40 40 0 0 1-6.724.112c-10.866-1.058-18.07-6.074-21.41-14.908-5.185-13.717-3.079-26.45 6.267-37.84q.186-.224.38-.444a6.7 6.7 0 0 0 1.075-1.486 2.104 2.104 0 0 0-2.196-3.112 4.3 4.3 0 0 0-2.332.923c-.389.345-.788.685-1.185 1.026a23.7 23.7 0 0 0-4.129 4.163C1.595 75.872-.74 86.936 1.684 98.76c2.637 12.864 10.214 21.21 22.519 24.816a63 63 0 0 0 8.856 1.691c1.335.189 2.714.384 4.057.615l.32.056.076-.363q.579.008 1.158.026a22 22 0 0 0 3.322-.072 17.7 17.7 0 0 0 4.607-1.182 3.57 3.57 0 0 0 2.197-3.91c-.163-1.585-1.173-2.603-2.921-2.944M120.263.99a7 7 0 0 0-3.432.598c-.881.454-1.847 1.623-1.824 2.51.023.852 1.375 1.847 2.24 2.076a26 26 0 0 0 3.239.568c.904.12 1.838.244 2.731.447 6.997 1.598 14.317 3.745 20.449 8.598a19.8 19.8 0 0 1 7.505 12.1c1.213 6.154.663 11.456-1.682 16.211-1.166 2.363-2.483 4.706-3.757 6.971-.68 1.21-1.36 2.418-2.022 3.637-.191.353-.394.704-.591 1.055a19.4 19.4 0 0 0-1.684 3.486c-.474 1.453-1.123 3.444 1.01 5.39l.202.186.222-.16a37 37 0 0 1 1.592-1.062 14 14 0 0 0 3.114-2.42c3.556-4.048 7.904-9.569 9.986-16.386 3.966-12.985 1.525-23.853-7.257-32.305-7.301-7.026-17.127-10.787-30.041-11.5"/><path d="M126.062 46.71a1.4 1.4 0 0 0-.349.822c.008.252 0 .528-.007.808-.026.957-.052 1.946.49 2.47a2.9 2.9 0 0 0 1.939.583c.496.005.989-.077 1.456-.242 2.366-.9 3.972-2.802 4.772-5.653 1.247-4.436.465-9.692-2.084-14.061a20.07 20.07 0 0 0-12.739-9.336 15.6 15.6 0 0 0-5.125-.107 2.57 2.57 0 0 0-2.011 1.005c-.446.661-.493 1.602-.138 2.796l.059.197.203.037c.465.086.91.161 1.34.234.867.147 1.686.287 2.481.475 5.03 1.196 8.934 4.242 10.71 8.354a12.47 12.47 0 0 1-.838 11.38c-.046.08-.102.158-.159.237M28.581 80.187c.498-.915 1.116-2.054-.292-3.058-.77-.55-1.99-.873-3.422.715a12.2 12.2 0 0 0-2.297 3.406c-3.02 7.31-2.211 14.285 2.409 20.73 2.775 3.873 6.553 5.821 11.551 5.953h.039l.039-.008c.177-.036.403-.074.663-.117a19 19 0 0 0 2.893-.66 2.73 2.73 0 0 0 1.663-1.416 2.04 2.04 0 0 0-.009-1.677 4.2 4.2 0 0 0-2.352-1.86 3.75 3.75 0 0 0-1.519-.118 3.7 3.7 0 0 1-1.17-.046l-.585-.157a20.2 20.2 0 0 1-4.625-1.648c-2.467-1.384-3.582-3.968-4.348-6.314a16.8 16.8 0 0 1 1.2-13.421zm79.207 33.286a5.12 5.12 0 0 0-3.62 1.391 3.6 3.6 0 0 0-1.27 2.486 3.32 3.32 0 0 0 .924 2.428 4.44 4.44 0 0 0 3.184 1.265h.09a4.22 4.22 0 0 0 3.002-1.173 3.88 3.88 0 0 0 1.14-2.822 3.567 3.567 0 0 0-3.45-3.575"/></g><defs><clipPath id="a"><path fill="#fff" d="M.6.32h158.835v144.395H.6z"/></clipPath></defs></svg>