<svg xmlns="http://www.w3.org/2000/svg" width="119" height="152" fill="none" viewBox="0 0 119 152"><g fill="#000" clip-path="url(#a)"><path d="M108.494 60.29a1.2 1.2 0 0 1-.245-.203l-.18-.168q.198-.452.411-.918c.44-.896.805-1.827 1.093-2.783a95 95 0 0 1 .511-1.798 30.3 30.3 0 0 0 1.414-6.736 8.84 8.84 0 0 0-2.601-6.863 9.67 9.67 0 0 0-7.456-2.661c-.499.033-.997.084-1.544.139l-.407.04.21-1.69c.209-1.672.404-3.238.596-4.805.459-3.747-.989-6.054-2.284-7.33a9.87 9.87 0 0 0-8.156-2.494c-2.712.375-5.27 1.53-8.046 3.639-.58.44-1.145.919-1.8 1.472l-.563.476q.002-.499.008-.95c.01-1.003.018-1.87-.019-2.73-.211-4.807-2.888-7.492-7.745-7.763a9 9 0 0 0-7.329 2.65c-1.662 1.716-3.207 3.591-4.7 5.404q-.717.87-1.44 1.737c-8.953 10.691-16.592 22.578-23.98 34.064l-1.503 2.335c-.43.668-.88 1.322-1.326 1.973q-.226.331-.452.656l-.027-.015-.066-.037c-.099-.284-.19-.57-.282-.857q-.154-.492-.322-.977c-2.64-7.476-7.352-12.845-13.998-15.956a9.76 9.76 0 0 0-9.613.473 10.28 10.28 0 0 0-4.518 8.935c.096 1.799.386 3.583.865 5.32l.163.693c1.51 6.48 1.946 11.486 1.414 16.236-.387 3.457-.868 6.966-1.332 10.358-.449 3.275-.913 6.661-1.293 10.002-.515 4.243-.804 8.51-.866 12.784a22 22 0 0 0 1.227 7.023c5.15 15.328 15.217 25.583 29.92 30.48a39.4 39.4 0 0 0 12.482 2.108 35.3 35.3 0 0 0 12.501-2.288 49.3 49.3 0 0 0 17.773-11.587c6.569-6.629 13.503-13.762 19.712-21.654 5.348-6.797 12.004-15.256 16.711-24.463a82 82 0 0 0 6.2-15.289c2.079-7.469-1.413-13.595-9.118-15.981m-97.719-.355c-.457-1.478-.753-3-.886-4.542-.065-1.312.252-2.301.92-2.866.698-.59 1.795-.736 3.168-.428 2.02.5 3.84 1.607 5.213 3.172 4.272 4.52 6.073 8.598 5.842 13.211a17.2 17.2 0 0 1-.901 4.07q-.163.522-.314 1.042c-.432 1.489-.646 3.164 1.043 4.295 1.437.963 3.052.775 4.433-.513a16.6 16.6 0 0 0 2.363-2.917q3.783-5.627 7.536-11.276c5.125-7.693 10.425-15.648 15.77-23.378 2.984-4.315 6.371-8.467 9.648-12.48q1.074-1.311 2.142-2.63a10.2 10.2 0 0 1 3.494-2.822c1.165-.534 2.194-.553 2.901-.056.708.497 1.029 1.458.924 2.718a17.8 17.8 0 0 1-1.406 6.065 134 134 0 0 1-6.478 12.127c-3.522 5.837-7.192 11.719-10.74 17.407q-2.517 4.034-5.024 8.073a7.3 7.3 0 0 0-.755 1.588 2.833 2.833 0 0 0 1.31 3.586 2.58 2.58 0 0 0 2.021.395 2.58 2.58 0 0 0 1.668-1.208c.437-.623.886-1.238 1.335-1.853a49 49 0 0 0 3.074-4.556c4.988-8.749 11.289-16.775 16.847-23.856 2.1-2.674 4.47-5.565 7.465-9.1a13.64 13.64 0 0 1 6.78-4.459c1.418-.399 2.367-.375 2.894.075s.703 1.387.531 2.861c-.575 4.964-2.796 9.374-4.89 13.033-5.86 10.232-12.946 20.392-22.306 31.976-.468.579-.976 1.147-1.467 1.697-.688.77-1.4 1.568-2.025 2.418-.84 1.143-1.116 2.255-.801 3.216.322.985 1.239 1.734 2.65 2.173 2.185.68 4.122.037 5.754-1.911l.815-.97c1.873-2.228 3.807-4.53 5.483-6.966 4.047-5.892 8.043-11.96 11.908-17.83l1.726-2.62c.635-.963 1.213-1.98 1.772-2.963.376-.663.753-1.325 1.148-1.976a14.6 14.6 0 0 1 7.231-5.963c1.564-.631 2.746-.493 3.722.435.975.928.886 2.035.47 3.436a49 49 0 0 1-7.06 14.719c-3.257 4.52-6.646 9.062-9.924 13.455a2269 2269 0 0 0-6.498 8.753c-.97 1.322-1.898 2.704-2.794 4.042a134 134 0 0 1-2.169 3.176c-1.266 1.786-1.226 3.535.124 5.35.784 1.053 1.627 1.59 2.508 1.597h.019a3.12 3.12 0 0 0 2.39-1.452c.978-1.264 1.9-2.598 2.792-3.888.627-.907 1.256-1.815 1.903-2.706a843 843 0 0 0 3.527-4.857c3.7-5.11 7.527-10.393 11.492-15.424 1.135-1.439 3.258-2.305 5.132-3.07l.414-.17a1.96 1.96 0 0 1 1.763.097 2.58 2.58 0 0 1 1.173 1.95c.343 2.637.225 4.62-.36 6.064-2.532 6.25-5.083 11.844-7.797 17.1-3.63 7.03-8.477 13.296-13.172 19.019-1.305 1.59-2.478 3.324-3.61 5.001a62 62 0 0 1-3.888 5.324c-3.233 3.816-6.953 7.456-10.234 10.667a42 42 0 0 1-15.28 9.399c-5.654 2.043-12.042 1.963-18.986-.241-13.03-4.135-22.05-13.156-26.808-26.81a21.2 21.2 0 0 1-.881-5.222 36 36 0 0 0-.189-1.908c.125-1.144.235-2.211.341-3.226.22-2.129.411-3.969.665-5.83.352-2.57.73-5.136 1.107-7.702.577-3.92 1.173-7.976 1.664-11.977a52 52 0 0 0-1.372-20.16"/><path d="M52.59 17.444a61 61 0 0 1-.602.871 14.8 14.8 0 0 0-1.856 3.182 3.34 3.34 0 0 0 .677 3.063c.819.73 2.555.487 3.066.393a4.2 4.2 0 0 0 2.117-1.39q.718-.817 1.444-1.63c2.015-2.272 4.098-4.621 5.94-7.094 1.025-1.379 1.434-2.59 1.253-3.714-.19-1.167-1.025-2.254-2.56-3.324-2.45-1.714-5.127-3.46-8.182-5.337a10 10 0 0 1-.697-.492c-1.04-.776-2.463-1.838-3.796-.081-1.35 1.778.13 2.998 1.208 3.888q.237.195.452.381c1.081.953 2.232 1.85 3.448 2.799l.96.752q-.854-.006-1.656-.017c-1.668-.02-3.241-.038-4.783.037-10.924.53-21.134 4.262-30.34 11.092a33.2 33.2 0 0 0-9.91 11.902c-.19.377-.346.77-.497 1.15-.095.24-.19.478-.294.714a2.84 2.84 0 0 0-.17 2.31 1.76 1.76 0 0 0 1.18.934q.171.047.348.045a4.85 4.85 0 0 0 2.423-1.125c.348-.303.612-.69.768-1.125q.145-.343.348-.656c.42-.598.822-1.216 1.223-1.835a24 24 0 0 1 3.078-4.084C27.48 18.88 39.663 14.29 54.405 15.03c-.19.246-.366.47-.53.68-.511.668-.92 1.188-1.285 1.734"/></g><defs><clipPath id="a"><path fill="#fff" d="M.815.757h117.484v150.958H.815z"/></clipPath></defs></svg>