<svg xmlns="http://www.w3.org/2000/svg" width="119" height="152" fill="none" viewBox="0 0 119 152"><g fill="#000" clip-path="url(#a)"><path d="M117.12 101.303c-.216-2.058-.44-4.184-.611-6.278-.223-2.715-.617-5.46-.998-8.115-.869-6.055-1.767-12.316-.673-18.565.449-2.56 1.005-5.082 1.632-7.88.525-2.339.919-5.097-.138-7.82a10.05 10.05 0 0 0-6.055-6.149c-2.853-.966-6.095-.48-9.127 1.371-6.104 3.727-10.272 8.872-12.385 15.293-.15.453-.305.905-.494 1.456l-.139.406-.14-.191c-.262-.362-.463-.632-.646-.913a722 722 0 0 1-4.149-6.405c-3.007-4.669-6.116-9.496-9.35-14.124-5.034-7.199-10.39-14.233-15.446-20.82a24.1 24.1 0 0 0-5.185-4.889c-2.954-2.086-6.48-2.251-9.938-.465-3.391 1.752-3.733 5.098-3.62 8.138.019.525.015 1.05.01 1.72q.001.24-.004.507c-.226-.197-.436-.39-.633-.57a9 9 0 0 0-1.917-1.478 94 94 0 0 1-1.595-.839 25.3 25.3 0 0 0-6.07-2.598 9.16 9.16 0 0 0-8.107 2.043c-2.056 1.863-2.965 4.62-2.56 7.761.191 1.481.372 2.965.562 4.519l.232 1.89-.282-.022c-.408-.03-.753-.054-1.097-.087a9.86 9.86 0 0 0-8.065 2.589 9.36 9.36 0 0 0-2.55 7.632 29.5 29.5 0 0 0 1.48 6.205c.206.652.412 1.304.602 1.956q.408 1.299.984 2.533.179.404.344.794l-.141.143a1 1 0 0 0-.086.097q-.446.18-.912.3c-4.314 1.035-7.03 3.783-8.3 8.401-.864 3.139-.691 6.45.528 10.123a85 85 0 0 0 9.458 19.39 221 221 0 0 0 29.478 36.295c5.918 5.962 11.486 10.127 17.517 13.104a35.1 35.1 0 0 0 15.72 3.708 40.6 40.6 0 0 0 12.032-1.909c11.874-3.684 20.831-11 26.625-21.743 2.83-5.248 5.348-10.448 5.077-16.373-.161-3.39-.521-6.822-.868-10.141M19.23 73.007c1.83 2.614 3.799 5.19 5.703 7.68a316 316 0 0 1 4.177 5.55c1.66 2.272 3.288 4.63 4.861 6.91a495 495 0 0 0 3.055 4.39c1.378 1.95 2.668 3.016 4.49 1.887a4.5 4.5 0 0 0 1.991-2.888 4.08 4.08 0 0 0-.59-3.176c-3.939-5.775-7.224-10.403-10.333-14.57-1.175-1.576-2.395-3.15-3.575-4.679-4.146-5.363-8.434-10.907-11.452-17.151a76 76 0 0 1-2.867-7.143l-.46-1.266c-.516-1.408-.29-2.528.672-3.326.945-.787 2.05-.888 3.479-.324a14.96 14.96 0 0 1 7.285 5.914l1.37 2.11c4.238 6.526 8.62 13.274 13 19.865 2.016 3.032 4.228 5.998 6.367 8.867l.119.16a23 23 0 0 0 2.965 3.293 4.72 4.72 0 0 0 5.06.947c1.322-.484 2.172-1.247 2.456-2.213a3.41 3.41 0 0 0-.796-3.02c-1.147-1.514-2.385-2.993-3.583-4.423a163 163 0 0 1-2.589-3.146c-6.777-8.521-15.37-19.942-21.72-32.718-1.378-2.766-2.118-5.929-2.822-9.196-.256-1.195-.155-2.03.303-2.48.474-.468 1.403-.558 2.684-.264a13.12 13.12 0 0 1 7.332 4.726q1.437 1.773 2.888 3.533c3.458 4.223 7.035 8.59 10.285 13.072 3.413 4.703 6.685 9.63 9.852 14.393a967 967 0 0 0 4.319 6.458c.501.741.957 1.373 1.395 1.93a2.72 2.72 0 0 0 1.832 1.1 2.1 2.1 0 0 0 1.615-.525 5.1 5.1 0 0 0 1.444-2.983c.106-.699-.37-1.449-.787-2.112l-.15-.235a1902 1902 0 0 0-5.447-8.74c-3.534-5.653-7.19-11.497-10.694-17.3a117 117 0 0 1-6.058-11.588 17.1 17.1 0 0 1-1.313-5.75c-.108-1.318.242-2.323.984-2.827.756-.513 1.838-.465 3.054.136a10.3 10.3 0 0 1 3.221 2.676c2.67 3.228 5.262 6.406 7.65 9.797 3.607 5.119 7.202 10.378 10.678 15.463q2.578 3.772 5.166 7.54 1.887 2.74 3.791 5.47 2.235 3.215 4.46 6.44a100 100 0 0 1 1.615 2.455c.676 1.05 1.374 2.13 2.112 3.164a13.4 13.4 0 0 0 2.535 2.774 3.2 3.2 0 0 0 4.16.022c1.1-.863 1.424-2.154.94-3.734a29 29 0 0 0-.482-1.394 16 16 0 0 1-.733-2.405c-1.34-7.063 4.054-14.48 8.462-17.118 1.803-1.078 3.566-1.944 5.317-.727 1.852 1.287 1.49 3.265.959 5.18-1.071 3.88-2.294 9.018-2.231 14.354.008.64.006 1.28.004 1.921a48 48 0 0 0 .23 5.838c.512 4.185 1.13 8.427 1.726 12.53.314 2.161.629 4.323.93 6.485.15 1.08.275 2.166.399 3.247.131 1.128.262 2.293.425 3.437 1.101 7.768-1.22 15.004-7.528 23.465-6.618 8.878-16.665 14.665-26.877 15.483h-.307c-12.32 0-19.516-4.093-26.503-10.231-5.355-4.706-12.114-11.166-16.879-19.415a29 29 0 0 0-3.05-4.076c-.5-.59-1.018-1.205-1.499-1.821-8.154-10.446-13.93-20.749-17.655-31.496a15.2 15.2 0 0 1-.763-6.1c.109-1.227.539-2.1 1.241-2.53.378-.22.81-.33 1.247-.319.634.02 1.258.16 1.838.416a12.1 12.1 0 0 1 5.6 4.331"/><path d="m61.616 22.157.382.45a7 7 0 0 0 2.793 2.12c.933.328 2.609.481 3.409-.192.764-.644 1.003-2.413.656-3.356a12.5 12.5 0 0 0-1.801-2.975 33 33 0 0 1-.747-1.038 62 62 0 0 0-1.173-1.63l-.328-.451a39.1 39.1 0 0 1 15.691 1.383c13.032 4.08 21.397 10.285 26.324 19.527q.069.128.136.267c.18.508.527.941.985 1.226.49.203 1.013.312 1.542.32.295.005.588-.046.864-.15.63-.254 1.017-1.337 1.007-1.97a4.84 4.84 0 0 0-.745-2.39 81 81 0 0 1-1.326-2.21 27.2 27.2 0 0 0-3.944-5.623c-11.174-11.212-24.62-16.432-39.97-15.51-.46.028-.935.022-1.593.015l-.46-.005 2.55-2.123q.477-.392.958-.779c.722-.579 1.464-1.177 2.149-1.825.566-.536 1.894-1.79.788-3.377-1.164-1.671-2.809-.62-3.428-.228l-.105.066c-3.13 1.993-6.367 4.054-9.457 6.224-2.68 1.883-3.092 3.958-1.296 6.53 1.88 2.689 4.045 5.239 6.139 7.704"/></g><defs><clipPath id="a"><path fill="#fff" d="M.882.757h117.484v150.958H.882z"/></clipPath></defs></svg>