<svg xmlns="http://www.w3.org/2000/svg" width="134" height="147" fill="none" viewBox="0 0 134 147"><g fill="#000" clip-path="url(#a)"><path d="M53.313 18.45c-.342 2.34-.51 4.738-.673 7.058-.078 1.106-.156 2.213-.252 3.316-1.185 13.627-.59 27.47-.017 40.855l.023.55c.053 1.218.04 2.452.025 3.759q-.006.625-.01 1.282l-.227-.191c-.46-.39-.854-.725-1.276-1.028-6.728-4.848-13.867-6.534-21.215-5.014a9.6 9.6 0 0 0-7.117 5.764 9.98 9.98 0 0 0 1.125 9.457 24.7 24.7 0 0 0 4.103 4.345l.343.31a53 53 0 0 1 11.787 14.816c4.244 8.129 8.986 16.694 14.494 26.185 1.374 2.367 3.564 4.286 5.317 5.692a48.9 48.9 0 0 0 13.296 7.332 41.2 41.2 0 0 0 14.874 2.779 50.4 50.4 0 0 0 17.28-3.275 36.2 36.2 0 0 0 10.751-6.383c5.993-4.962 10.164-11.765 12.748-20.797a112 112 0 0 0 4.257-36.05 32.7 32.7 0 0 0-2.383-10.538 11.42 11.42 0 0 0-7.177-6.694 11.98 11.98 0 0 0-10.181 1.492c-.341.223-.676.459-1.026.702l-.183.126a14.11 14.11 0 0 0-9.814-7.963A11.57 11.57 0 0 0 91.84 59.4c-4.914-6.502-8.592-7.155-15.922-2.788l-.025-.21c-.043-.377-.076-.657-.094-.937q-.237-3.54-.446-7.081c-.322-5.277-.656-10.733-1.146-16.087-.52-5.644-1.379-12.135-5.035-17.78-1.706-2.637-4.204-4.2-6.851-4.286-2.681-.1-5.195 1.268-7.094 3.816a10.14 10.14 0 0 0-1.914 4.403m4.712 40.667a416 416 0 0 0-.186-5.788c-.142-3.837-.286-7.806-.21-11.7.117-5.986.518-12.07.906-17.953l.166-2.534c.157-2.412.77-4.979 4.103-5.79 2.177 1.682 3.486 4.048 4.001 7.226.872 5.392 1.454 10.29 1.78 14.978.421 6.078.744 12.268 1.056 18.253.19 3.66.382 7.319.595 10.977.132 2.27 1.147 3.603 2.857 3.752 2.267.203 3.128-1.568 3.748-2.857.263-.543.512-1.093.764-1.645a27.4 27.4 0 0 1 2.757-5.079c1.084-1.449 2.435-2.157 3.713-1.947 1.32.219 2.414 1.383 3.002 3.195.372 1.36.577 2.759.61 4.168q.033.526.074 1.05.045.883-.046 1.764c-.03.411-.065.822-.065 1.233a2.62 2.62 0 0 0 .601 1.962 2.6 2.6 0 0 0 1.835.921 2.64 2.64 0 0 0 3.142-2.091l.197-.75c.1-.394.197-.791.321-1.181.125-.39.23-.766.34-1.15a21 21 0 0 1 1.008-2.95l.096-.208c.953-2.087 1.843-4.065 4.509-3.906 2.196.126 5.065.961 6.254 4.226a22.5 22.5 0 0 1 .984 5.376l.081.776c.037.35.049.707.062 1.062.055 1.539.117 3.282 2.269 4.035 1.885.656 2.898-.394 4.597-3.168a22.4 22.4 0 0 1 3.314-4.516 4.4 4.4 0 0 1 1.66-1.132 4.4 4.4 0 0 1 1.989-.281 4.5 4.5 0 0 1 3.163 2.417 22.04 22.04 0 0 1 3.112 12.385c-.465 7.39-1.301 14.662-2.266 22.721-.743 6.2-3.219 11.749-5.543 16.366-3.509 6.964-9.462 11.706-18.201 14.497-12.683 4.05-25.138 1.868-37.013-6.491a12.9 12.9 0 0 1-3.276-3.16 103 103 0 0 1-5.628-9.123 330 330 0 0 1-7.436-14.692c-4.267-8.964-9.573-15.817-16.22-20.953a2 2 0 0 1-.213-.186c-.208-.22-.426-.435-.643-.652-1.27-1.262-2.47-2.454-1.813-4.435.704-2.125 2.713-2.473 4.664-2.473h.314c7.154.123 12.493 2.782 15.86 7.903a12.8 12.8 0 0 1 1.38 3.518q.151.541.314 1.07c.444 1.43 1.17 2.917 3.187 3.092 1.613.143 3.031-1.095 3.572-3.15.225-.898.328-1.822.306-2.748-.129-7.246-.295-15.174-.504-24.234M3.473 66.606A3.7 3.7 0 0 0 5.8 65.6a22 22 0 0 0 2.01-1.855q4.2-4.504 8.388-9.024 3.258-3.508 6.519-7.015c.318-.341.663-.657 1.1-1.06l.34-.313 1.405 6.341c.663 2.998 1.85 4.135 3.964 3.8a2.7 2.7 0 0 0 1.924-1.147c.59-.882.677-2.19.263-3.89a148 148 0 0 0-3.463-11.968c-.92-2.738-2.22-3.407-5.37-2.747l-1.724.363c-2.015.426-4.1.867-6.158 1.242-1.05.191-2.13.353-3.172.51-1.355.203-2.756.413-4.125.692a2.14 2.14 0 0 0-1.456 1.635 2.17 2.17 0 0 0 1.379 1.686 9 9 0 0 0 3.1.286c1.89-.114 3.738-.28 5.88-.473l2.066-.184-.486.692q-.703 1.048-1.515 2.013c-3.732 4.25-7.552 8.55-11.245 12.708l-2.15 2.422c-.192.216-.394.421-.6.627-.267.27-.545.55-.795.853-1.62 1.963-.984 3.294-.166 4.066.466.47 1.098.739 1.76.747m25.85-35.102a71 71 0 0 0 9.193 2.078q.603.098 1.215.1a5.82 5.82 0 0 0 4.892-2.584l.148-.202-.15-.197c-1.495-1.98-3.599-2.166-5.632-2.352-1.509-.136-2.946-.262-4.115-1.096l.154-.167c.27-.294.525-.569.783-.839l4.707-4.915q5.907-6.166 11.804-12.343a19.4 19.4 0 0 0 2.18-2.625c1.265-1.917 1.313-3.873.114-4.755-1.86-1.369-3.56-.008-4.377.646a22.3 22.3 0 0 0-2.643 2.655l-.443.496c-3.56 3.96-7.11 7.927-10.862 12.12l-3.716 4.156.044-.337a26 26 0 0 0 .193-1.65l.083-1.149c.14-1.93.286-3.927.354-5.896a2.7 2.7 0 0 0-.646-2.05 1.56 1.56 0 0 0-1.325-.338c-.794.12-1.487 1.439-1.652 2.143-.976 4.154-1.879 8.396-2.752 12.498l-.34 1.59c-.61 2.86.146 4.219 2.789 5.012"/></g><defs><clipPath id="a"><path fill="#fff" d="M.747.447h132.58v145.707H.747z"/></clipPath></defs></svg>