<svg xmlns="http://www.w3.org/2000/svg" width="163" height="122" fill="none" viewBox="0 0 163 122"><g fill="#000" clip-path="url(#a)"><path d="M76.606 29.81c4.608-5.991 10.783-9.278 17.69-11.314 9.971-2.938 19.417-1.011 28.208 3.938a54.4 54.4 0 0 1 10.931 8.345c6.295 6.086 8.527 13.765 7.362 22.464.248.218.459.525.745.64 13.549 5.368 21.838 23.073 15.555 39.825-1.91 5.098-4.905 9.594-8.279 13.802-4.374 5.458-10.522 7.982-17.143 9.195-6.598 1.209-13.279 1.995-19.944 2.796-17.435 2.096-34.975 1.8-52.484 2.159-8.547.175-17.078.022-25.424-2.139-2.599-.673-5.186-1.435-7.709-2.344-13.347-4.803-20.79-14.825-24.129-28.118-3.199-12.733-2.429-25.423 3.853-37.003 9.052-16.682 23.05-27.023 42.296-29.047 8.779-.924 17.15 1.378 25.108 5.103 1.014.472 1.998 1.005 3.364 1.698m-13.533 81.889c4.487-.183 8.978-.292 13.46-.561 14.567-.872 29.124-1.925 43.697-2.645a34.3 34.3 0 0 0 14.152-3.746c10.323-5.256 15.303-14.548 13.628-26.048-1.232-8.457-5.896-14.259-14.293-16.437-10.663-2.765-20.508-1.004-28.984 6.358-2.362 2.053-4.424 4.455-6.629 6.695a15 15 0 0 1-2.165 2.1c-2.667 1.766-5.776.741-6.756-2.322a6.06 6.06 0 0 1 .01-3.535c1.35-4.07.792-7.968-.623-11.85a41 41 0 0 0-8.252-13.771c-10.388-11.35-23.32-15.05-38.175-11.96-6.007 1.247-11.136 4.618-15.953 8.384C10.442 54.676 7.143 71.99 11.172 88.12c2.5 10.003 8.415 17.261 18.58 20.401a78 78 0 0 0 9.465 2.26c7.9 1.388 15.88 1.117 23.856.919m35.973-51.194c9.156-7.627 19.493-10.46 30.769-9.625.978-4.77.076-9.177-2.942-12.586-10.436-11.787-25.466-15.64-40.174-6.615a47 47 0 0 0-3.742 2.85 53.6 53.6 0 0 1 16.089 25.975m43.481-35.399c-.774-.536-2.048-.966-2.405-1.791a3.4 3.4 0 0 1-.164-1.576 3.4 3.4 0 0 1 .563-1.482 18.84 18.84 0 0 1 9.775-5.513 2.974 2.974 0 0 1 3.451 1.491 3.13 3.13 0 0 1-.66 4.005c-2.943 2.555-6.611 3.62-10.56 4.866m12.022 15.714q2.062.177 4.096.56c2.111.503 3.264 1.991 3.124 3.766a3.136 3.136 0 0 1-3.347 3.076 41 41 0 0 1-8.197-.984 2.69 2.69 0 0 1-2.047-3.08 3.036 3.036 0 0 1 2.5-2.803c1.302-.286 2.647-.374 3.871-.535M129.324 6.763a23.3 23.3 0 0 1-1.127 3.976 3.905 3.905 0 0 1-4.71 2.317 3.76 3.76 0 0 1-2.786-4.117 25 25 0 0 1 1.4-5.84A3.24 3.24 0 0 1 125.8.822c1.809.205 2.747 1.415 3.194 3.035q.263 1.441.33 2.905M99.56 9.152a10.7 10.7 0 0 1-.586 2.175c-1.247 2.662-4.297 3.01-5.872.533a10.8 10.8 0 0 1-1.077-9.018c.636-2.187 3.442-2.435 5.213-.574 1.703 1.79 2.198 4.077 2.322 6.884"/><path d="M69.619 11.537c2.516-.053 6.947 2.675 7.75 5.062.306.907.224 2.395-.342 3.031-.684.77-2.18 1.445-3.13 1.242a10.4 10.4 0 0 1-6.947-5.288c-1.154-2.043.24-3.996 2.669-4.047"/></g><defs><clipPath id="a"><path fill="#fff" d="M.047.533h162.115v121.423H.047z"/></clipPath></defs></svg>