<svg xmlns="http://www.w3.org/2000/svg" width="165" height="128" fill="none" viewBox="0 0 165 128"><g clip-path="url(#a)"><path fill="#000" d="M162.522 38.883c-1.322-1.309-3.271-1.849-5.497-1.525a9 9 0 0 0-.688.142q-.303.07-.607.128a29.43 29.43 0 0 1-22.883-5.064c-6.238-4.404-10.723-9.452-13.704-15.405-1.403-2.812-2.664-5.74-3.884-8.572a342 342 0 0 0-1.599-3.682c-1.444-3.244-2.752-3.925-6.111-3.157a17 17 0 0 0-3.075.972c-11.283 4.956-18.412 13.468-21.2 25.29a65 65 0 0 0-1.166 7.622c-.142 1.241-.29 2.515-.466 3.81l-.148 1.06-.89-.588a45 45 0 0 1-1.019-.681c-.694-.465-1.355-.91-2.034-1.313-8.802-5.22-17.333-7.803-25.838-7.803a43.6 43.6 0 0 0-10.757 1.37A52.46 52.46 0 0 0 8.948 54.774C-.386 69.653-1.58 85.879 5.408 102.996c3.715 9.105 10.311 15.633 19.612 19.403a60.7 60.7 0 0 0 21.662 4.715c11.551.216 23.47.065 33.99-.066 6.078-.081 13.267-.236 20.49-.782 7.203-.54 14.622-1.343 22.688-2.449a96 96 0 0 0 13.009-2.785 22.24 22.24 0 0 0 12.201-8.329 61 61 0 0 0 6.002-9.543c5.598-11.668 4.726-22.864-2.596-33.27-.29-.418-.591-.836-.919-1.281l-.817-1.112.385-.412c.182-.189.35-.37.513-.546.328-.365.64-.702.984-1.019a39.3 39.3 0 0 0 9.368-13.853 31.2 31.2 0 0 0 2.057-7.567 6 6 0 0 0-.135-2.79 6 6 0 0 0-1.38-2.427M149.061 90.24c-.453 9.557-4.944 16.645-13.354 21.076a35.9 35.9 0 0 1-15.323 4.289c-9.583.46-19.323 1.085-28.737 1.699-5.092.324-10.191.656-15.283.958-3.001.182-6.056.284-9.01.378q-2.064.071-4.128.148l-.741.02c-2.786.075-5.605.149-8.438.149a86 86 0 0 1-14.817-1.085 81 81 0 0 1-9.55-2.267c-9.954-3.061-16.361-10.063-19.052-20.806-4.674-18.681.83-35.211 15.49-46.542 4.356-3.365 9.657-6.98 15.956-8.288 15.438-3.197 28.495.87 38.814 12.106a41.8 41.8 0 0 1 8.396 13.947c1.686 4.595 1.895 8.484.656 12.26a5.8 5.8 0 0 0 .081 3.4 3.51 3.51 0 0 0 2.111 2.231 3.78 3.78 0 0 0 3.231-.393 8.7 8.7 0 0 0 1.767-1.552q.282-.303.566-.586c.796-.788 1.572-1.598 2.347-2.407 1.531-1.599 3.123-3.258 4.843-4.726 7.54-6.44 16.766-8.64 27.401-6.529 10.906 2.166 17.333 10.798 16.774 22.52m1.929-40.648c-1.619 4.357-4.546 7.932-9.206 11.25l-.298.209-.337-.135a42.6 42.6 0 0 0-21.588-2.408c-6.892.95-13.313 3.798-19.612 8.707l-.668.52-.357-.77a881 881 0 0 0-1.882-3.999c-1.517-3.203-2.947-6.225-4.25-9.354a28.6 28.6 0 0 1-1.766-6.933c-1.45-10.015.04-18.29 4.552-25.291 2.948-4.566 5.659-7.014 10.737-9.718l.614-.324.31.614c.095.202.209.398.31.586q.413.688.682 1.443c1.881 5.733 4.734 13.091 10.15 19.155 7.745 8.663 16.267 13.603 26.056 15.106q2.008.267 4.034.325c.647.033 1.294.065 1.942.107l.897.061z"/></g><defs><clipPath id="a"><path fill="#fff" d="M.33.907h164.083V127.58H.33z"/></clipPath></defs></svg>