<svg xmlns="http://www.w3.org/2000/svg" width="154" height="150" fill="none" viewBox="0 0 154 150"><g fill="#000" clip-path="url(#a)"><path d="M106.196 29.733c1.28-.854 2.381-1.617 3.511-2.335 8.151-5.185 17.003-6.26 26.21-3.925 15.661 3.973 21.127 20.23 16.244 32.71-1.524 3.898-3.997 7.502-6.456 10.942-2.708 3.79-6.846 5.705-11.278 6.886-2.376.633-4.797 1.099-7.432 1.693-.271 1.02-.569 2.075-.833 3.139-1.407 5.69-4.528 10.435-8.285 14.809-2.822 3.281-6.62 5.082-10.726 5.93a196 196 0 0 1-16.928 2.738c-14.976 1.743-30.047 1.451-45.09 1.737a70.3 70.3 0 0 1-20.666-2.385C12.292 98.219 4.947 90.211 1.955 78.137a42.4 42.4 0 0 1 .62-23.211C6.524 42.302 15.35 34.136 27.05 28.737a8.44 8.44 0 0 0 4.357-4.209C37.94 11.655 48.254 3.014 62.558.786 76.842-1.44 89.114 3.468 98.399 14.868a39.7 39.7 0 0 1 6.766 12.31c.281.825.65 1.62 1.031 2.555m-55.85 66.081c2.918 0 5.842.14 8.75-.024 12.103-.684 24.196-1.562 36.304-2.145a28.3 28.3 0 0 0 11.337-2.756c8.249-4.043 12.122-10.737 11.42-19.848-.545-7.063-4.957-12.503-11.873-14.166-8.642-2.078-16.512-.446-23.204 5.608-1.825 1.65-3.43 3.54-5.145 5.311-1.78 1.838-3.42 2.27-5.063 1.364-1.587-.876-2.275-2.658-1.575-4.966 1.038-3.413.487-6.63-.756-9.834a35 35 0 0 0-6.055-10.024c-7.89-9.293-22.027-13.36-33.027-8.963-14.626 5.841-25.003 18.18-23.195 36.2 1.585 15.813 9.261 20.92 20.604 23.413.328.072.664.114.994.18 6.78 1.339 13.632 1.16 20.484.65m28.777-40.68a3 3 0 0 0 .507-.148c.383-.23.777-.447 1.134-.712 6.7-4.98 14.263-6.921 22.522-6.236 11.129.92 19.246 6.545 22.666 17.482.22.703.544 1.374.988 2.482 2.465-.981 4.791-1.744 6.975-2.805 8.007-3.89 11.754-10.407 11.229-19.28-.437-7.402-4.93-12.97-12.148-14.638-8.668-2.005-16.507-.267-23.146 5.835-1.81 1.665-3.401 3.566-5.129 5.324-1.637 1.665-3.24 2.046-4.813 1.228-1.62-.842-2.372-2.664-1.675-4.926 1.09-3.53.53-6.853-.84-10.14a46 46 0 0 0-1.383-3.059C87.173 8.044 66.46 4.092 53.303 12.153a44.3 44.3 0 0 0-12.464 11.129q-.682 1.096-1.198 2.281c20.24.825 33.235 10.866 39.482 29.572m16.816 67.541a33 33 0 0 1 1.45-3.813c1.641-3.036 3.373-6.024 5.111-9.006.443-.761.9-1.707 1.607-2.074a5.24 5.24 0 0 1 3.085-.531c1.274.217 1.566 1.454 1.538 2.637a4.5 4.5 0 0 1-.278 1.633c-1.666 3.885-3.347 7.762-5.094 11.61a6.2 6.2 0 0 1-1.444 1.818c-1.147 1.083-2.656 1.647-3.959.722-.944-.674-1.4-2.035-2.016-2.996M36.97 111.129c-.401 1.19-.656 2.035-.97 2.861-1.238 3.216-2.52 6.419-3.742 9.644-1.207 3.188-3.196 4.529-5.403 3.57-1.87-.815-2.383-2.962-1.102-5.846 1.49-3.354 3.169-6.629 4.828-9.905a4.8 4.8 0 0 1 1.607-2.086c.886-.488 2.2-.919 3.03-.598.805.309 1.23 1.6 1.752 2.36m22.275 13.267c.595-1.586.97-2.87 1.545-4.058 1.408-2.905 2.906-5.768 4.376-8.644a10 10 0 0 1 .829-1.444c.743-.989 1.883-1.556 2.923-.962a5.14 5.14 0 0 1 1.904 2.46 3.56 3.56 0 0 1-.228 2.28c-1.198 3.348-2.41 6.702-3.777 9.985a5.3 5.3 0 0 1-2.073 2.53c-.963.525-2.444.857-3.378.481s-1.447-1.734-2.121-2.628m67.781 3.218a19 19 0 0 1-.594 2.323c-1.107 2.681-2.131 5.41-3.455 7.983a10.2 10.2 0 0 1-2.972 3.515c-2.007 1.444-4.107.302-4.211-2.187a6.7 6.7 0 0 1 .614-3.24c1.59-3.072 3.357-6.055 5.096-9.049.241-.509.65-.92 1.158-1.165.919-.254 2.06-.573 2.828-.233.738.327 1.118 1.454 1.536 2.053m-78.886 7.785c-1.57 4.665-3.102 8.84-5.74 12.47-1.23 1.694-3.034 1.954-4.408 1.042-1.274-.845-1.645-2.337-1.015-4.152.128-.425.304-.836.525-1.221 1.96-3.097 3.914-6.198 5.929-9.261.712-1.081 1.799-1.969 3.071-1.156.792.499 1.188 1.617 1.638 2.278m36.47.909c-1.837 3.633-3.502 7.154-5.392 10.553a2.847 2.847 0 0 1-3.83 1.182c-1.51-.67-1.518-2.13-1.266-3.479a10.8 10.8 0 0 1 1.055-3.158 104 104 0 0 1 4.11-6.921c.815-1.252 2.237-1.792 3.521-1.001.787.485 1.122 1.701 1.803 2.824m57.337-48.642c-1.706 4.07-3.157 7.942-4.966 11.643a2.785 2.785 0 0 1-4.042 1.2 2.72 2.72 0 0 1-1.412-1.627 2.72 2.72 0 0 1 .21-2.143c1.772-3.605 3.766-7.108 5.805-10.574.579-.984 1.8-1.631 2.9-.853.699.496 1.009 1.538 1.505 2.354"/></g><defs><clipPath id="a"><path fill="#fff" d="M.33.094h153.582v149.645H.33z"/></clipPath></defs></svg>