<svg xmlns="http://www.w3.org/2000/svg" width="160" height="136" fill="none" viewBox="0 0 160 136"><g fill="#000" clip-path="url(#a)"><path d="M99.334 38.344c1.371-.958 2.45-1.742 3.558-2.48 11.192-7.463 23.275-8.962 36.016-5.055 15.452 4.74 21.801 19.98 20.477 32.265-1.119 10.416-6.241 18.828-13.764 25.842-2.928 2.728-6.695 4.238-10.535 5.01-7.01 1.41-14.074 2.678-21.174 3.493-18.092 2.076-36.292 1.975-54.469 2.266-8.544.137-17.065-.02-25.409-2.166-2.49-.64-4.97-1.362-7.39-2.228-13.46-4.817-21.022-14.869-24.363-28.295C-.856 54.395-.115 41.84 6.044 30.323 15.003 13.57 28.91 2.725 48.15 1.168c17.312-1.4 31.79 5.285 42.478 19.378 3.985 5.25 6.708 11.104 8.706 17.798M63.63 89.707c4.375-.177 8.754-.282 13.126-.545 14.567-.875 29.123-1.958 43.697-2.64a35.4 35.4 0 0 0 15.352-4.343c8.278-4.425 12.377-11.457 12.849-20.674.525-10.253-4.947-18.608-14.194-21.122-10.6-2.882-20.511-1.313-29.066 5.977-2.552 2.175-4.744 4.767-7.13 7.14a12.3 12.3 0 0 1-2.516 2.18c-2.395 1.322-4.997.329-6.166-2.146a5.13 5.13 0 0 1-.077-4.22c1.357-3.655.834-7.263-.382-10.862a45.2 45.2 0 0 0-7.96-13.94C70.357 11.152 49.06 6.913 34.43 15.111 13.944 26.598 6.405 44.935 11.476 66.029c2.408 10.019 8.336 17.298 18.502 20.459a77 77 0 0 0 9.457 2.288c8.013 1.413 16.106 1.139 24.194.93m41.607 40.204a21 21 0 0 1 1.074-2.931c1.797-3.49 3.675-6.94 5.563-10.381a6.1 6.1 0 0 1 1.426-1.838 2.555 2.555 0 0 1 4.2 1.476 6.35 6.35 0 0 1-.185 3.307c-1.357 3.555-2.797 7.088-4.454 10.512a8.1 8.1 0 0 1-2.915 3.13c-2.256 1.401-4.618-.067-4.709-3.275m-67.605-10.617c-.238.713-.502 1.686-.882 2.611a579 579 0 0 1-3.918 9.294 8.5 8.5 0 0 1-1.347 2.297 3.75 3.75 0 0 1-4.603.823 3.22 3.22 0 0 1-1.172-4.149c2.166-4.42 4.538-8.743 6.94-13.041a2.523 2.523 0 0 1 3.238-1.079c1.41.492 1.672 1.675 1.744 3.244m31.908 15.712a2.9 2.9 0 0 1-1.17-.194 2.88 2.88 0 0 1-1.827-2.818c.032-.788.239-1.56.605-2.259 2.039-3.604 4.144-7.169 6.26-10.728a2.63 2.63 0 0 1 1.146-1.19c.879-.289 2.068-.7 2.713-.333.656.374.937 1.597 1.141 2.503.103.456-.296 1.05-.525 1.553-1.521 3.363-3.085 6.708-4.578 10.084-.773 1.749-1.892 3.027-3.765 3.382"/></g><defs><clipPath id="a"><path fill="#fff" d="M.078.97h159.49v134.549H.078z"/></clipPath></defs></svg>