<svg xmlns="http://www.w3.org/2000/svg" width="161" height="149" fill="none" viewBox="0 0 161 149"><g fill="#000" clip-path="url(#a)"><path d="M99.94 37.779c1.239-.862 2.318-1.641 3.425-2.38 11.185-7.459 23.267-8.942 36.007-5.06 15.463 4.713 21.812 19.918 20.503 32.152-1.11 10.388-6.235 18.772-13.748 25.774-2.922 2.724-6.685 4.234-10.527 5.005-7.01 1.406-14.072 2.674-21.171 3.486-18.088 2.067-36.286 1.974-54.46 2.26-8.542.131-17.065-.017-25.405-2.153-2.49-.638-4.977-1.34-7.389-2.22C16.575 90.777 9.094 83.676 5.051 73.1-1.304 56.48-.426 40.262 9.2 25.236 17.23 12.705 28.784 3.993 43.644 1.431 62.339-1.792 78.15 4.259 90.289 19.035a47.7 47.7 0 0 1 8.769 16.488c.217.711.54 1.39.882 2.256M63.9 89.067c4.375-.17 8.755-.262 13.124-.525 14.676-.877 29.338-1.955 44.026-2.655a35.3 35.3 0 0 0 15.046-4.209c8.282-4.358 12.567-11.303 13.011-20.504.49-10.142-4.423-19.486-16.216-21.835-9.852-1.962-19.018-.306-26.836 6.363-2.548 2.173-4.766 4.73-7.15 7.098a14 14 0 0 1-2.463 2.248c-2.475 1.474-5.376.529-6.331-2.175a6.4 6.4 0 0 1-.096-3.833c1.322-4.07.784-7.948-.635-11.819a41 41 0 0 0-8.257-13.728C70.735 12.177 57.802 8.503 42.95 11.577c-5.893 1.22-10.944 4.493-15.686 8.155C11.394 31.987 7.903 49.21 12.005 65.566c2.327 9.265 7.549 16.469 17.011 19.729A73 73 0 0 0 39.715 88.1c8 1.46 16.098 1.2 24.186.966m12.4 23.245c-2.685-.014-5.042-2.244-5.046-4.774a5.62 5.62 0 0 1 1.653-3.707 5.62 5.62 0 0 1 3.718-1.629 5 5 0 0 1 4.768 5.016 5.13 5.13 0 0 1-5.093 5.094m-47.877 24.004c-2.75.038-5.328-2.133-5.363-4.513-.037-2.464 2.414-4.629 5.224-4.614 2.645.013 4.895 2.064 4.944 4.505.05 2.452-2.171 4.586-4.805 4.622m72.22-23.618a4.82 4.82 0 0 1 4.854-4.782 4.815 4.815 0 0 1 4.782 4.854 5.016 5.016 0 0 1-5.053 4.784 4.835 4.835 0 0 1-4.583-4.856m22.347 19.622c-2.709.025-5.107-2.256-5.046-4.801a4.79 4.79 0 0 1 4.516-4.552c2.743-.082 5.477 2.338 5.453 4.827-.023 2.437-2.269 4.501-4.923 4.526m7.961-23.367c-2.654.034-4.623-1.81-4.57-4.281.054-2.521 2.409-4.633 5.201-4.661 2.671-.03 4.58 1.773 4.544 4.291-.038 2.563-2.316 4.615-5.175 4.651m-56.693 39.059a4.64 4.64 0 0 1-4.584-4.764c.044-2.735 1.865-4.267 4.945-4.166 2.611.086 4.594 1.992 4.574 4.391s-2.406 4.586-4.935 4.539m-26.452-4.977a4.783 4.783 0 0 1-4.422 4.951 4.177 4.177 0 0 1-4.402-4.398c.036-2.735 1.962-4.939 4.384-5.021a4.43 4.43 0 0 1 4.44 4.468m46.435-12.702a4.745 4.745 0 0 1-4.831 4.594 4.626 4.626 0 0 1-4.29-4.869 4.63 4.63 0 0 1 4.795-4.374 4.533 4.533 0 0 1 4.326 4.649m-29.571.954a4.49 4.49 0 0 1-4.578 4.678c-2.504-.034-4.447-2.213-4.387-4.919a4.43 4.43 0 0 1 4.248-4.321 4.55 4.55 0 0 1 3.333 1.273 4.54 4.54 0 0 1 1.384 3.289M20.84 99.34a4.1 4.1 0 0 1 3.036 1.193 4.1 4.1 0 0 1 1.21 3.031c-.048 2.547-2.47 4.745-5.186 4.709a3.86 3.86 0 0 1-2.891-1.12 3.87 3.87 0 0 1-1.142-2.883 5.196 5.196 0 0 1 4.973-4.93m25.591 14.531c.082 2.353-1.66 4.156-4.164 4.311a4.52 4.52 0 0 1-4.46-2.598 4.5 4.5 0 0 1-.419-1.77c-.044-2.391 1.505-4.212 3.681-4.328 2.699-.143 5.28 1.966 5.362 4.385m60.244 25.298a3.723 3.723 0 0 1 3.703 3.898c-.029 2.856-1.702 4.915-3.975 4.891s-4.201-2.248-4.178-4.794c.023-2.334 1.94-4.056 4.45-3.995"/></g><defs><clipPath id="a"><path fill="#fff" d="M.734.406h159.49v147.676H.734z"/></clipPath></defs></svg>