<svg xmlns="http://www.w3.org/2000/svg" width="156" height="154" fill="none" viewBox="0 0 156 154"><g fill="#000" clip-path="url(#a)"><path d="M54.612 63.345c-.041-.092-.075-.355-.225-.478-8.587-7.133-11.338-16.408-9.793-27.149 1.444-10.049 5.125-19.193 12.874-26.007C65.348 2.779 74.598-.834 85.34.637a16.3 16.3 0 0 1 4.215 1.116c11.026 4.761 19.887 11.898 24.11 23.519 3.592 9.878 1.795 19.273-3.967 27.871-1.916 2.86-4.478 5.286-6.901 8.092 9.836 2.845 15.998 10.061 21.223 18.685 1.348-.877 2.538-1.658 3.735-2.429a44 44 0 0 1 4.553-2.873c5.22-2.517 9.207-6.212 11.677-11.505.415-.798.93-1.539 1.534-2.205.996-1.19 2.211-2.085 3.79-1.173s1.34 2.447.967 3.904q-.327.954-.752 1.87c-.38 1.03-.731 2.07-1.128 3.201 1.343.7 2.564 1.236 3.675 1.94 1.981 1.255 2.71 2.871 2.166 4.464a3.59 3.59 0 0 1-3.263 2.444 3.6 3.6 0 0 1-1.417-.23c-3.559-1.463-6.213-.109-9.026 1.729-3.192 2.085-6.535 3.938-9.785 5.938-1.131.696-2.184 1.521-3.371 2.358 1.549 5.703 2.449 11.379 1.958 17.106-1.401 16.338-7.128 30.571-20.971 40.436-10.442 7.442-22.222 9.799-34.856 8.409a58.8 58.8 0 0 1-17.232-4.332c-17.604-7.69-27.55-21.025-28.928-40.321-.401-5.63.731-11.177 2.48-16.56.307-.946.624-1.888.91-2.753L13.008 75.054c-2.458 0-5.024.017-7.59-.012a7.6 7.6 0 0 1-1.997-.262C2.01 74.377.992 73.477.934 71.95c-.057-1.554.94-2.511 2.349-2.905a16.7 16.7 0 0 1 2.992-.373c1.09-.097 2.186-.15 3.26-.221 0-1.575-.009-2.895 0-4.217.019-2.404.62-3.413 2.152-3.592 1.862-.216 2.811 1.01 3.052 2.494.835 5.18 3.904 8.358 8.322 10.94 3.845 2.249 7.215 5.31 10.733 7.965 3.212-3.554 6.089-7.293 9.537-10.398 3.395-3.054 7.364-5.462 11.28-8.298m63.255 40.075c.344-14.88-8.886-28.929-24.897-33.053-2.675-.69-5.543-1.51-8.204-1.213-6.209.7-12.296.704-18.35-.865a5.12 5.12 0 0 0-4.473.7c-2.12 1.466-4.372 2.756-6.413 4.321-12.295 9.434-19.04 21.617-17.845 37.422 1.014 13.418 8.22 22.828 20.178 28.36a49.2 49.2 0 0 0 28.616 3.833c10.126-1.575 18.362-6.355 24.045-15.045 4.848-7.414 7.128-15.639 7.343-24.46m-65.19-63.598c-.131 10.74 4.866 17.481 14.29 19.97a36.5 36.5 0 0 0 8.288 1.268c11.233.292 20.487-3.839 26.53-13.495 4.024-6.428 4.594-13.466 1.116-20.519-3.802-7.714-10.295-12.44-18.084-15.18-9.41-3.31-21.962.598-27.119 10.633a45.7 45.7 0 0 0-5.02 17.325z"/><path d="M79.885 83.491a4.2 4.2 0 0 1-2.595 3.94 4.2 4.2 0 0 1-1.628.32 4.02 4.02 0 0 1-4.223-4.187c-.03-2.38 1.579-4.287 3.701-4.39 2.177-.105 4.67 2.161 4.745 4.317m-4.869 19.032c2.073-.004 4.402 2.487 4.406 4.713a3.92 3.92 0 0 1-3.92 3.771 4.46 4.46 0 0 1-4.341-4.248 4.107 4.107 0 0 1 3.855-4.236m.839 30.433a3.6 3.6 0 0 1-2.744-1.006 3.6 3.6 0 0 1-1.096-2.71 4.16 4.16 0 0 1 2.439-4.022 4.2 4.2 0 0 1 1.615-.367 3.9 3.9 0 0 1 3.922 3.76 4.24 4.24 0 0 1-4.136 4.345m3.877-99.309c.293-.004.585.043.863.139 3.704 1.855 7.555 3.529 10.377 6.701 1.79 2.014 1.806 4.168.34 5.776-1.414 1.55-3.579 1.58-5.782.014a61 61 0 0 1-5.656-4.23 14.3 14.3 0 0 1-3.281-4.158c-1.101-2.247.505-4.308 3.139-4.242m15-5.744a3.3 3.3 0 0 1-.9 2.438 3.3 3.3 0 0 1-2.386 1.033 3.135 3.135 0 0 1-3.234-3.117 3.26 3.26 0 0 1 3.09-3.626 3.187 3.187 0 0 1 3.43 3.272m-24.933.547a3.2 3.2 0 0 1-.892 2.29 3.2 3.2 0 0 1-2.252.982 3.137 3.137 0 0 1-3.324-3.059 3.35 3.35 0 0 1 3.324-3.49 3.22 3.22 0 0 1 3.144 3.276"/></g><defs><clipPath id="a"><path fill="#fff" d="M.796.124h154.24v153.583H.795z"/></clipPath></defs></svg>