<svg xmlns="http://www.w3.org/2000/svg" width="161" height="157" fill="none" viewBox="0 0 161 157"><g fill="#000" clip-path="url(#a)"><path d="M64.768 156.276c-1.045-1.502-1.553-2.97-.967-4.93 1.466-4.899 2.668-9.877 3.955-14.828.222-.854.344-1.73.576-2.924-.942.049-1.662.057-2.376.128a39 39 0 0 1-4.654.477c-2.712-.058-4.017-2.054-3.101-4.595.372-.933.834-1.827 1.378-2.671a155.5 155.5 0 0 1 17.086-23.6c1.277-1.432 2.663-2.698 4.66-2.854 2.686 1.588 2.828 3.963 2.217 6.492-.675 2.793-1.51 5.549-2.363 8.655 2.465-.477 4.742-.876 6.997-1.373 1.349-.297 2.757-.703 3.742.543 1.098 1.387.805 2.958-.03 4.401-1.791 3.095-3.616 6.17-5.439 9.246-3.643 6.148-7.254 12.315-10.96 18.426a74 74 0 0 1-4.876 7.165c-.759.972-2.08 1.51-3.147 2.241zM100.065 37.38c2.477-1.588 4.566-3.104 6.812-4.332 10.728-5.88 21.983-6.68 33.499-2.854 15.096 5.016 21.08 20.105 19.767 32.01-1.131 10.263-6.215 18.533-13.552 25.532-2.645 2.523-6.08 3.754-9.517 4.83-7.309 2.289-14.905 3.019-22.462 3.846-17.984 1.97-36.065 1.935-54.127 2.222-8.656.138-17.288 0-25.74-2.166-2.49-.638-4.97-1.36-7.383-2.242-10.609-3.872-18.054-11.019-22.077-21.59-6.326-16.628-5.418-32.855 4.238-47.86C17.574 12.267 29.14 3.568 44.011 1.036c18.853-3.212 34.7 2.994 46.822 17.958 4.35 5.363 7.239 11.522 9.232 18.386m-38.77 51.365c5.381-.197 10.775-.288 16.153-.602 14.565-.854 29.118-1.941 43.691-2.629a35.6 35.6 0 0 0 15.358-4.292c8.401-4.475 12.536-11.587 12.92-20.914.419-10.107-5.054-18.115-14.118-20.817a33.1 33.1 0 0 0-16.651-.445c-6.006 1.294-10.915 4.57-15.196 8.831-1.903 1.897-3.614 3.988-5.522 5.882-1.325 1.313-2.909 1.998-4.892 1.322-1.963-.67-2.842-2.155-3.156-3.985a5.5 5.5 0 0 1 .405-2.594c1.338-3.8.787-7.483-.483-11.164A41.1 41.1 0 0 0 81.3 22.997c-9.79-10.77-22.13-14.24-36.28-12.34-16.951 5.169-28.938 15.367-33.257 33.08a42.3 42.3 0 0 0-.282 18.006c2.284 12.034 8.401 20.816 20.803 24.218 1.402.385 2.801.788 4.218 1.116 8.175 1.864 16.474 1.882 24.793 1.668"/></g><defs><clipPath id="a"><path fill="#fff" d="M.924.026h159.49v156.865H.924z"/></clipPath></defs></svg>