<svg xmlns="http://www.w3.org/2000/svg" width="102" height="150" fill="none" viewBox="0 0 102 150"><g fill="#000" clip-path="url(#a)"><path d="M45.965 35.756A106.7 106.7 0 0 1 19.24 32.68c-4.598-1.18-8.975-2.953-12.64-6.08C-1.263 19.891-.794 9.61 7.61 3.637c1.693-1.203 3.522-2.035 5.663-1.459 2.114.57 2.541 2.249.925 3.728-1.399 1.28-3.094 2.283-4.32 3.7-4.037 4.665-3.304 9.412 1.878 12.795 4.027 2.625 8.598 3.84 13.254 4.664a115.3 115.3 0 0 0 29.539 1.092c7.731-.627 15.45-1.43 22.893-3.663a44.5 44.5 0 0 0 10.094-4.42 5.94 5.94 0 0 0 2.35-8.204 9 9 0 0 0-2.226-2.438c-1.282-1.08-2.702-1.995-4.016-3.04-1.528-1.214-1.493-2.34.185-3.447a7.81 7.81 0 0 1 7.08-.88c7.606 2.517 10.955 9.887 7.802 17.267-1.716 4.019-4.805 6.709-8.607 8.648-5.668 2.892-11.823 4.205-18.01 5.327-3.531.641-7.102 1.13-10.677 1.444-5.14.452-10.302.68-15.453 1.005M43.07 52.937c-2.575-.178-6.17-.286-9.725-.734a10 10 0 0 1-4.278-1.728c-2.014-1.406-1.908-3.206.153-4.6a7.2 7.2 0 0 1 3.084-1.182 66 66 0 0 1 7.707-.466c11.923.063 23.751-.769 35.392-3.5 7.541-1.772 14.98-3.85 21.754-7.774.29-.168.604-.298.902-.451 1.129-.58 2.429-.615 2.966.5a3.63 3.63 0 0 1-.125 3.072 10.24 10.24 0 0 1-3.371 3.203 90 90 0 0 1-11.047 5.634c-13.605 5.355-27.84 7.59-43.411 8.026m7.486 26.613c-6.704-.483-13.413-.914-20.109-1.489a15.2 15.2 0 0 1-4.177-1.2 2.61 2.61 0 0 1-1.724-3.25c.4-1.663 1.706-1.904 3.166-1.75 3.348.351 6.695 1.036 10.032 1 7.285-.077 14.57-.495 21.856-.817 8.313-.367 16.496-1.711 24.649-3.306 3.034-.59 4.87.174 5.382 2.011.501 1.796-.753 3.32-3.735 4.371-7.068 2.494-14.466 3.08-21.856 3.503-4.472.254-8.97.046-13.455.046zm4.557-13.083c-14.302-1-27.985-1.736-41.256-5.49A51 51 0 0 1 7.3 58.424a9.9 9.9 0 0 1-2.486-1.7c-1.922-1.703-2.463-3.657-1.494-5.01.86-1.202 2.349-.823 4.835.236a61 61 0 0 0 10.454 3.51c9.991 2.25 20.215 2.669 30.388 3.441 3.13.238 6.258.54 9.38.874.892.11 1.768.325 2.61.64 1.39.502 2.254 1.474 2.158 3.04a2.553 2.553 0 0 1-2.33 2.5c-2.092.304-4.218.387-5.701.513m-6.864 38.601c-1.162-.053-3.18-.096-5.188-.256a13.4 13.4 0 0 1-2.95-.59c-1.444-.46-2.826-1.194-2.657-2.981.165-1.745 1.622-2.297 3.112-2.537a19 19 0 0 1 3.02-.145c8.863-.011 17.689-.377 26.377-2.397 1.569-.364 3.463-.912 4.394 1.178.637 1.427-.365 2.88-2.877 3.881-7.177 2.858-14.701 3.825-23.23 3.847m-5.094-13.864c-6.232-.644-12.47-1.228-18.69-1.97a20.3 20.3 0 0 1-4.818-1.384 5.17 5.17 0 0 1-2.418-1.706 3.28 3.28 0 0 1-.315-2.682c.22-.51 1.623-.97 2.277-.761 10.147 3.227 20.64 2.138 31.005 2.635a11.1 11.1 0 0 1 3.61.565c.78.319 1.858 1.354 1.794 1.962a3.6 3.6 0 0 1-1.747 2.442c-1.04.519-2.388.515-3.61.554-2.35.076-4.705.022-7.059.022zm5.123 23.842c-6.765-.585-12.708-1.026-18.263-3.406a9 9 0 0 1-3.347-2.11 3.54 3.54 0 0 1-.439-3.02c.23-.605 1.6-.815 2.488-1.115.337-.05.681.006.985.16 6.61 2.564 13.607 2.589 20.522 3.16.88.072 1.969.059 2.56.559a4.24 4.24 0 0 1 1.509 2.691 2.92 2.92 0 0 1-1.587 2.232c-1.446.42-2.928.704-4.427.849m.989 11.141c-1.463-.096-3.378-.136-5.267-.381a7.5 7.5 0 0 1-2.822-.972c-2.297-1.378-2.297-3.065.155-4.162a17.4 17.4 0 0 1 5.192-1.121c6.01-.644 12.033-1.168 18.05-1.757 1.239-.121 2.56-.447 3.163 1.083.549 1.396-.253 2.385-1.282 3.17-3.25 2.484-7.136 3.161-11.033 3.709-1.884.265-3.805.275-6.156.431m3.428 15.752c-2.06-.427-3.494-.453-4.628-1.05-.83-.437-1.753-1.631-1.74-2.475.011-.844 1.024-2.251 1.792-2.399a76 76 0 0 1 9.95-1.181 2.73 2.73 0 0 1 2.11 1.641c.14.911-.329 2.485-1.023 2.853a57 57 0 0 1-6.461 2.611m-34.26-93.614c-2.448-.54-5.326-1.231-7.482-3.336a3.85 3.85 0 0 1-.812-2.975 2.256 2.256 0 0 1 2.868-1.724 54 54 0 0 1 7.417 2.1 3.033 3.033 0 0 1 2.035 3.498c-.246 1.453-1.719 2.415-4.026 2.437m28.267 80.598c1.675 0 3.352-.042 5.025.013 1.324.044 2.46.478 2.575 2.05.113 1.541-.994 2.172-2.2 2.554a6.2 6.2 0 0 1-2.315.224c-2.444-.2-4.886-.451-7.317-.774a4.1 4.1 0 0 1-2.166-.801 3.35 3.35 0 0 1-1.043-2.187c0-.382 1.105-1.04 1.749-1.091 1.886-.147 3.791-.052 5.69-.052zm29.054-65.331c-1.43-.21-2.225-.11-2.722-.45-.751-.512-1.635-1.253-1.816-2.044a2.45 2.45 0 0 1 1.157-2.1 45 45 0 0 1 7.75-1.951c.756-.111 2.02.87 2.48 1.676a2.167 2.167 0 0 1-1.189 3.085 59 59 0 0 1-5.66 1.784m-27.407 79.708c1.484.329 3.566.747 5.623 1.265 1.24.312 2.08 1.302 1.683 2.475a3.75 3.75 0 0 1-2.12 2.19c-2.486.678-4.857-.196-7.107-1.285-1.221-.591-1.925-1.553-1.605-2.983.267-1.196 1.204-1.706 3.526-1.662m18.06-52.94c-1.653-.127-2.622 0-3.413-.32-.736-.294-1.753-1.025-1.798-1.626-.06-.81.535-2.259 1.127-2.422a38.5 38.5 0 0 1 7.504-1.28c.63-.044 1.84 1.167 1.903 1.881.081.902-.498 2.373-1.22 2.729-1.446.711-3.184.831-4.103 1.038m-4.197 23.454c-1.951-.036-3.129-.942-3.065-2.358.066-1.444 1.832-2.611 3.83-2.481 1.451.093 2.71.559 2.862 2.246.143 1.582-1.394 2.632-3.627 2.593m-31.397-11.644c-1.926-.112-3.504-1.493-3.389-2.968a2.716 2.716 0 0 1 2.802-2.32c1.886.02 3.783 1.706 3.503 3.229-.287 1.562-1.387 2.161-2.916 2.059"/></g><defs><clipPath id="a"><path fill="#fff" d="M.893.964h100.42v148.989H.893z"/></clipPath></defs></svg>