<svg xmlns="http://www.w3.org/2000/svg" width="148" height="149" fill="none" viewBox="0 0 148 149"><path fill="#000" d="M50.86 26.956c1.444-3.672 2.637-6.98 4.03-10.201C58.525 8.354 68.534-.154 80.418.937c5.775.53 10.348 3.407 14.417 7.23 4.105 3.858 6.471 8.791 8.264 14.035.3.876.575 1.76.951 2.916 1.071.066 2.174.15 3.281.19 5.266.193 10.531.357 15.795.576a7.4 7.4 0 0 1 2.413.484c2.035.82 2.876 2.498 1.935 4.488a6.43 6.43 0 0 0-.279 4.778c5.435 19.986 8.341 40.471 12.004 60.81 1.74 9.66 3.872 19.248 5.687 28.897.875 4.664 1.505 9.38 2.082 14.092.491 4.02-1.497 6.56-5.559 7.139a56 56 0 0 1-7.718.567q-52.179.09-104.358.118c-6.201.012-12.401.389-18.603.426a20 20 0 0 1-5.791-.883c-3.366-1.013-4.778-3.441-4.13-6.937 1.26-6.809 2.652-13.592 3.956-20.393 3.075-16.033 6.011-32.095 9.24-48.097 1.757-8.707 4.007-17.316 6.02-25.972.912-3.928 1.761-7.872 2.685-11.797 1.087-4.614 1.896-5.12 6.506-5.323 4.328-.19 8.64-.722 12.964-1.007 2.874-.192 5.76-.217 8.681-.318m86.132 110.063c-1.074-4.572-2.072-8.467-2.898-12.398-2.148-10.218-4.471-20.407-6.264-30.689-2.964-17-5.553-34.058-8.336-51.086-.459-2.831-1.096-5.634-1.728-8.842-4.135.423-8.038-.703-12.281-.262.184 1.575.285 2.793.474 4a14.5 14.5 0 0 1-1.706 8.991 3.76 3.76 0 0 1-4.106 2.178 3.85 3.85 0 0 1-3.347-3.223 17 17 0 0 1-.257-1.53c-.456-3.454-.905-6.91-1.371-10.467H58.005c-.343 2.917-.656 5.656-.99 8.392-.198 1.634-.334 3.282-.676 4.89a2.975 2.975 0 0 1-2.8 2.52c-1.71.117-2.691-.989-3.145-2.48a19.5 19.5 0 0 1-.868-4.223c-.145-2.06-.003-4.14-.053-6.21a20 20 0 0 0-.37-2.465c-6.131.008-12.01-.4-18.197.879-6.836 34.476-13.678 68.992-20.6 103.908 1.009 0 2.106.044 3.2-.008 8.053-.376 16.103-.876 24.16-1.136 9.927-.319 19.86-.575 29.791-.626 21.85-.114 43.702-.083 65.553-.11 1.217-.005 2.433-.003 3.982-.003M93.945 25.669a21.4 21.4 0 0 0-7.147-12.733c-4.181-3.413-8.774-4.003-13.685-2.184-7.154 2.652-10.68 8.335-12.653 15.55z"/></svg>