<svg xmlns="http://www.w3.org/2000/svg" width="161" height="152" fill="none" viewBox="0 0 161 152"><path fill="#000" d="M156.437 32c-3.752-7.585-7.633-15.425-13.382-22.072-4.213-4.872-8.518-7.302-13.546-7.65a134 134 0 0 1-4.028-.358c-2.316-.23-4.711-.467-7.085-.486l-1.991-.016c-17.564-.143-35.727-.29-53.59-.154-5.351.04-10.778.408-16.027.763a520 520 0 0 1-8.207.513c-6.76.351-11.84 2.963-15.516 7.989q-6.15 8.406-12.348 16.777-3.504 4.747-7.003 9.495c-1.607 2.183-3.117 4.923-2.136 8.684a14.4 14.4 0 0 1 .211 4.217 45 45 0 0 0-.052 1.64c-.019 2.83-.058 5.66-.096 8.49-.073 5.382-.148 10.947-.085 16.423.066 5.718.215 11.53.36 17.15.146 5.619.296 11.443.36 17.164.034 2.901-.078 5.862-.186 8.729-.113 2.985-.23 6.071-.184 9.113.078 5.128 1.74 17.217 15.455 18.734.596.066 1.182.183 1.807.307a17 17 0 0 0 2.554.374q25.85 1.181 51.703 2.311l12.543.554h.03a.67.67 0 0 0 .674-.661l.005-.226q5.473 0 10.948.006c10.108.008 20.559.016 30.839-.032 3.654-.018 7.412-.209 11.49-.585 11.608-1.069 19.532-9.602 19.716-21.233.41-25.848.751-52.365 1.015-78.813.041-4.189.084-8.52-2.061-12.756a539 539 0 0 1-2.187-4.392m-59.901 72.873-28.36 1.109-3.426-62.018h31.786zM8.549 61.937c.081-2.637.162-5.275.214-7.912.04-2.053.03-4.118.02-6.301q-.008-1.253-.01-2.582l49.117-1.234.102.276q.144.32.197.668.255 8.088.49 16.175c.305 10.258.621 20.864.999 31.295.196 5.436.647 10.947 1.083 16.277l.127 1.556c.262 3.208 1.955 4.576 5.543 4.5 1.956-.053 3.938-.19 5.852-.321a164 164 0 0 1 4.918-.29c4.555-.177 9.188-.322 13.67-.459l7.538-.243c4.244-.141 6.139-1.903 6.541-6.083.381-3.821.57-7.66.568-11.501-.043-11.983-.144-24.165-.242-35.946l-.11-13.586a200 200 0 0 1 0-2.052v-.475h47.469q0 1.671.012 3.282c.013 2.776.024 5.399-.023 8.041q-.15 8.118-.336 16.236-.197 8.887-.365 17.776a3887 3887 0 0 0-.285 18.697 7752 7752 0 0 1-.284 18.693c-.165 9.259-4.922 14.494-13.763 15.139a405 405 0 0 1-29.9 1.092 4389 4389 0 0 1-71.41-.705 144 144 0 0 1-18.64-1.892c-5.348-.803-7.438-2.93-8.282-8.428a61 61 0 0 1-.491-8.412l-.117-7.68c-.196-12.884-.405-26.207-.469-39.31-.024-4.763.124-9.606.267-14.29zm3.42-23.792q3.238-4.098 6.487-8.186c4.255-5.36 8.654-10.903 12.93-16.396 1.993-2.56 4.755-3.094 7.194-3.281 7.022-.532 14.564-1.077 22.136-1.467q14.55-.75 28.802-.748c12.378 0 24.535.424 36.358 1.272a15.3 15.3 0 0 1 12.16 6.808 118.4 118.4 0 0 1 11.11 19.543z"/></svg>