<svg xmlns="http://www.w3.org/2000/svg" width="156" height="126" fill="none" viewBox="0 0 156 126"><path fill="#000" d="m150.121 46.621-.485-.23a31 31 0 0 0-4.391-1.78c-3.763-1.079-7.613-2.104-11.337-3.095q-2.115-.555-4.229-1.126c-.853-.23-1.706-.453-2.657-.709l-1.996-.524.006-4.984c0-1.76.014-3.527.021-5.288.027-3.898.054-7.924-.021-11.88-.121-6.183-3.729-11.046-9.663-12.995l-.329-.114a14 14 0 0 0-2.785-.722l-3.015-.344c-5.132-.59-10.435-1.2-15.666-1.598-2.626-.202-5.329-.197-7.945-.189-1.269.007-2.53.014-3.797-.007A838 838 0 0 1 73.63.881C68.997.787 64.245.684 59.508.684q-2.124 0-4.242.027c-4.667.075-9.422.364-14.014.648-2.88.175-5.862.364-8.795.492-6.788.32-13.53 1.29-20.132 2.9A15.54 15.54 0 0 0 .718 19.92c.156 7.951.156 16.038.156 23.86q0 4.746.013 9.49c.006 1.841-.02 3.683-.04 5.524C.8 62.61.752 66.555.975 70.41c.519 9.037 2.488 13.4 12.787 15.343a41 41 0 0 0 2.4.357c.52.066 1.046.136 1.565.216 1.154.175 2.297.365 3.535.56l2.184.358.041.532c.027.324.06.607.087.857.074.443.093.894.055 1.342-.574 4.377 1.287 7.446 5.698 9.385 1.37.6 2.725 1.228 4.087 1.855a84 84 0 0 0 11.654 4.694c12.767 3.682 25.872 7.007 38.544 10.224l2.064.525c11.25 2.853 22.506 5.49 32.022 7.689 5.287 1.227 8.976.694 11.971-1.713a27.6 27.6 0 0 0 5.753-6.198 40 40 0 0 0 3.898-8.357c2.38-6.65 4.721-13.44 6.987-20.01q1.97-5.725 3.966-11.451c2.643-7.595 4.194-13.968 4.862-20.065.508-4.597-1.318-8.22-5.014-9.932M11.203 15.005c1.181-1.228 3.136-1.781 4.195-1.997a148 148 0 0 1 18.054-2.28c18.237-1.443 36.244-1.335 56.2-1.072 7.405.101 14.649.317 21.857 1.888 4.14.904 5.739 2.752 5.887 6.826.061 1.51.047 3.049.034 4.668-.007.782-.014 1.598-.014 2.46v.689l-.681-.013a3408 3408 0 0 1-16.746-.243c-12.848-.21-24.973-.385-37.39-.394-12.43.013-25.109.236-37.363.451q-8.245.153-16.537.277l-.506.007-.148-.486c-1.165-3.822-.134-7.356 3.158-10.781m-3.25 18.35h.674q6.515-.04 12.955-.101c9.632-.08 19.585-.161 29.339-.121 8.423.047 16.982.242 25.257.431 3.478.075 6.953.155 10.427.223l13.92.284q6.17.13 12.328.256c.736.013 1.463.013 2.286.006l1.969-.006v5.348h-.674q-11.765.02-23.523-.014c-27.578-.047-56.086-.1-84.25 1.207l-.708.035zm19.389 46.36c-1.82-.108-3.649-.222-5.476-.328a60 60 0 0 1-6.98-.957l-1.727-.303c-2.482-.418-3.96-1.997-4.155-4.431-.06-.756-.135-1.51-.202-2.267-.169-1.787-.344-3.635-.378-5.469-.06-3.798-.047-7.54-.033-11.5q.009-2.447.006-4.97v-.62l.614-.054c.418-.04.816-.08 1.194-.131q1.144-.15 2.297-.183c1.915-.02 3.831-.013 5.739-.013 2.132 0 4.256 0 6.38-.027 3.595-.047 7.183-.115 10.778-.182 6.61-.132 13.455-.263 20.185-.243 13.354.04 26.93.189 40.06.324q8.58.09 17.152.175c.742.007 1.484.007 2.293.007l1.787-.007s.223 3.082.229 3.44c.131 6.764.5 13.61-.971 21.237-.957 4.964-2.077 6.05-7.061 6.799q-.548.069-1.099.074-8.346.09-16.699.209c-12.976.175-26.377.357-39.602.357h-1.916c-7.476-.012-15.07-.478-22.415-.936m108.88 5.787c-.034.257-.048.5-.066.728a6.2 6.2 0 0 1-.222 1.505c-2.199 6.919-4.364 13.697-6.617 20.502a22 22 0 0 1-1.915 4.08c-1.39 2.408-2.502 3.379-4.458 3.379a11.8 11.8 0 0 1-2.65-.394c-3.568-.869-7.136-1.76-10.704-2.643q-3.299-.83-6.603-1.641a4182 4182 0 0 0-13.892-3.413c-10.65-2.611-21.66-5.308-32.467-8.067-7.224-1.84-14.662-3.74-21.447-7.285-1.99-1.039-2.124-1.288-2.084-3.825l.013-.607.607-.053a64 64 0 0 1 11.776.175c.328.027.656.081.978.135q.645.12 1.301.148 5.058.112 10.124.243c8.37.216 17.022.431 25.52.371 8.868-.066 18-.546 27.132-1.41 5.26-.499 9.078-2.778 11.337-6.764l.27-.48 14.126 4.771zm5.854-15.539-2.712 8.12-14.5-3.986-.853-.344c.528-2.182.408-3.992.752-6.002.209-1.207.405-4.754.405-4.754l17.056 6.326zm2.576-8.532-.695-.149a144 144 0 0 1-17.67-4.957l-.445-.155v-9.294l20.071 6.724z"/><path fill="#000" d="M99.937 54.869c-1.585-.46-3.001-.033-4.511.419-.446.131-.898.27-1.35.384-.208.054-.424.108-.64.168-1.194.325-2.543.695-3.622.243a11 11 0 0 0-4.332-.87 19.7 19.7 0 0 0-6.326 1.282 9.45 9.45 0 0 0-6.137 6.953 9.09 9.09 0 0 0 2.407 8.572c3.656 3.582 8.12 4.337 13.266 2.252a6.56 6.56 0 0 1 4.958-.087c1.476.499 3.662 1.133 5.544.897 4.725-.586 8.187-4.802 8.228-10.022v-.08a10.39 10.39 0 0 0-7.485-10.111M85.612 66.638a2.2 2.2 0 0 1-1.652.56 8 8 0 0 1-1.125-.14 2.536 2.536 0 0 1-2.1-2.504 2.54 2.54 0 0 1 3.014-2.494l.3.114a3.19 3.19 0 0 1 2.064 2.809 2.13 2.13 0 0 1-.501 1.655m13.476-1.302a3.85 3.85 0 0 1-2.341 1.275 2.04 2.04 0 0 1-1.116-.297 2.32 2.32 0 0 1-.93-1.814 2.24 2.24 0 0 1 .525-1.838 2.11 2.11 0 0 1 1.74-.607 2.27 2.27 0 0 1 2.358 2.139c.022.394-.059.786-.234 1.139zM58.19 18.687c.074 1.538-.998 2.05-2.948 2.59l-.14.04q-.497.153-1.013.203c-.964.02-9.813.317-11.617.074-.689-.094-1.72-.23-2.118-.634-.823-.836-.722-1.855-.823-2.664-.122-1.011.755-1.64 1.673-1.808 3.23-.586 5.935-1.139 9.334-1.139 1.596-.007 3.19.13 4.761.411 1.812.324 2.811 1.342 2.89 2.927m-27.529.776c.007.836-.215 2.306-1.747 2.697q-2.19.511-4.423.776-2.055.08-4.108-.065c-1.875-.197-3.494-.358-5.139-.601-1.754-.256-2.779-1.174-2.738-2.461.04-1.221.992-2.1 2.556-2.34 3.911-.6 12.483-.92 13.354-.608l.512.189a2.35 2.35 0 0 1 1.733 2.413"/></svg>