<svg xmlns="http://www.w3.org/2000/svg" width="158" height="145" fill="none" viewBox="0 0 158 145"><path fill="#000" d="m44.573 51.843 46.469-2.75c.254-1.855.52-3.703.758-5.554 2.085-16.241 16.193-27.833 28.525-29.608 13.528-1.947 30.049 2.69 35.294 19.154a27.67 27.67 0 0 1 .858 14.269c-1.03 4.963-2.52 9.787-5.275 14.096-3.652 5.71-8.685 9.686-15.358 11.223-1.848.426-2.599 1.273-3.004 2.996-1.383 5.889-2.742 11.79-4.397 17.606a58 58 0 0 1-3.672 9.31c-1.029 2.126-3.293 2.589-5.493 2.625-2.131.034-4.266-.137-6.398-.181q-26.439-.549-52.881-1.077c-.545-.011-1.092.046-2.178.096l4.053 14.805c1.247 0 2.564.008 3.877 0 17.745-.131 35.491-.293 53.236-.349 2.115.024 4.215.343 6.241.947a4.109 4.109 0 0 1 .11 7.963 67 67 0 0 1-6.76 1.51c2.943 6.123 2.606 10.229-1.1 12.87-3.186 2.27-7.66 2.166-10.304-.243-3.355-3.056-3.289-7.424.337-12.968H79.284c1.838 2.845 3.862 5.356 2.6 8.522a10.2 10.2 0 0 1-2.785 4.04 8.16 8.16 0 0 1-10.536-.298c-3.307-2.916-3.368-6.448-.204-12.435-2.888-.28-5.783-.471-8.647-.867-2.533-.351-4.033-1.717-4.878-4.369-1.758-5.524-4.401-10.784-5.927-16.358-5.143-18.797-9.967-37.681-14.894-56.537-2.435-9.32-4.894-18.636-7.179-27.993a4.27 4.27 0 0 0-2.516-3.227q-6.396-2.99-12.775-6.02C9.12 11.883 6.65 10.788 4.345 9.42a7.6 7.6 0 0 1-2.701-2.856A3.887 3.887 0 0 1 4.449.893a6.9 6.9 0 0 1 3.603.34q10.734 4.374 21.372 8.987c3.221 1.402 5.447 3.595 4.678 7.582-.023.56.083 1.116.308 1.629q4.77 15.405 9.565 30.803c.135.416.307.823.598 1.61M124.02 73.55c-1.206-.22-2.297-.4-3.383-.618-3.511-.706-7.094-1.172-10.511-2.195-6.493-1.945-12.177-5.288-15.769-11.277-1.115-1.857-2.397-2.267-4.353-2.213-11.33.308-22.663.51-33.998.779-3.195.076-6.388.252-10.013.4l9.695 36.846h61.868c2.21-7.415 4.282-14.378 6.466-21.722zm3.104-8.774c9.293 0 15.222-3.762 18.686-12.284a40 40 0 0 0 1.635-5.108c2.721-10.603-2.11-20.17-12.49-23.502-4.838-1.553-10.063-2.086-15.161-2.55a10.3 10.3 0 0 0-6.289 1.73C104.791 29.1 99.6 37.149 100.001 48.216c.149 4.13 1.636 7.522 4.945 9.801a27.5 27.5 0 0 0 8.039 3.995c4.618 1.272 9.418 1.877 14.141 2.764z"/><path fill="#000" d="M123.294 45.295c-2.802 0-5.604.02-8.406-.011a11.5 11.5 0 0 1-2.659-.266c-2.209-.555-3.342-1.8-3.443-3.591-.108-1.904 1.075-3.544 3.295-4.083a32.4 32.4 0 0 1 5.321-.708 703 703 0 0 1 15.096-.952 17 17 0 0 1 4.335.273 3.99 3.99 0 0 1 3.371 3.713 3.82 3.82 0 0 1-2.374 4.084 21 21 0 0 1-5.8 1.402c-2.895.231-5.823.06-8.737.06z"/></svg>