<svg xmlns="http://www.w3.org/2000/svg" width="158" height="145" fill="none" viewBox="0 0 158 145"><path fill="#000" d="M139.276 51.333a13.4 13.4 0 0 0-2.203-2.363 434 434 0 0 0-4.671-4.134l-1.364-1.194q.19-.205.378-.4c.6-.64 1.221-1.3 1.785-1.998l.509-.63c1.393-1.718 2.972-3.663 4.362-5.636a3.22 3.22 0 0 0-.328-4.287 3.324 3.324 0 0 0-4.267-.107c-.932.673-1.8 1.43-2.593 2.26a340 340 0 0 0-4.057 4.148l-.141.146q-.582.604-1.172 1.21-.791-.657-1.559-1.302c-1.597-1.338-3.248-2.722-4.933-4.034a21.7 21.7 0 0 0-3.61-2.147 2.906 2.906 0 0 0-3.686.919 2.75 2.75 0 0 0-.009 3.568 18 18 0 0 0 1.99 2.08l.385.365c1.284 1.22 2.575 2.433 3.872 3.653l2.244 2.109-.089.109c-.292.357-.526.64-.769.888-.59.608-1.194 1.205-1.819 1.827-1.054 1.05-2.363 2.35-3.544 3.651a10.2 10.2 0 0 0-2.223 3.42 3.6 3.6 0 0 0 .671 3.74 3.47 3.47 0 0 0 2.56 1.058 4.4 4.4 0 0 0 1.22-.178 8 8 0 0 0 2.874-1.686 20 20 0 0 0 1.885-1.933c.263-.298.529-.591.806-.885l3.861-4.07 1.969 2.071c1.229 1.29 2.417 2.538 3.604 3.772l.289.303a11.7 11.7 0 0 0 1.67 1.54c1.881 1.339 4.214 1.259 5.677-.198a4.41 4.41 0 0 0 .426-5.655"/><path fill="#000" d="M44.832 52.044 91.3 49.295c.254-1.856.52-3.703.758-5.555 2.086-16.24 16.194-27.834 28.525-29.608 13.528-1.947 30.049 2.69 35.294 19.154a27.65 27.65 0 0 1 .858 14.269c-1.03 4.963-2.52 9.787-5.275 14.095-3.653 5.71-8.686 9.687-15.358 11.224-1.848.426-2.598 1.273-3.003 2.996-1.383 5.889-2.743 11.79-4.397 17.606a58 58 0 0 1-3.672 9.31c-1.029 2.126-3.293 2.589-5.493 2.625-2.131.034-4.267-.137-6.398-.181q-26.44-.548-52.882-1.077c-.545-.011-1.092.046-2.178.096l4.053 14.805c1.248 0 2.564.008 3.878 0 17.745-.132 35.49-.293 53.236-.349 2.114.024 4.215.343 6.241.947a4.113 4.113 0 0 1 2.318 6.471 4.1 4.1 0 0 1-2.208 1.492 67 67 0 0 1-6.76 1.51c2.942 6.122 2.606 10.229-1.101 12.869-3.186 2.27-7.659 2.166-10.304-.243-3.355-3.056-3.289-7.424.338-12.968H79.548c1.838 2.846 3.863 5.356 2.6 8.522a10.2 10.2 0 0 1-2.785 4.041 8.16 8.16 0 0 1-10.535-.298c-3.308-2.916-3.37-6.449-.205-12.435-2.888-.281-5.783-.471-8.648-.868-2.533-.351-4.032-1.716-4.877-4.369-1.758-5.523-4.401-10.784-5.926-16.358-5.145-18.796-9.968-37.681-14.895-56.536-2.435-9.32-4.894-18.636-7.179-27.994a4.28 4.28 0 0 0-2.516-3.226q-6.396-2.99-12.774-6.021c-2.425-1.158-4.894-2.253-7.199-3.62a7.6 7.6 0 0 1-2.702-2.856 3.887 3.887 0 0 1 2.806-5.672 6.9 6.9 0 0 1 3.603.34q10.734 4.374 21.37 8.987c3.223 1.403 5.448 3.595 4.68 7.582a3.66 3.66 0 0 0 .308 1.629q4.77 15.405 9.564 30.803c.13.417.302.824.594 1.61M124.28 73.75c-1.207-.219-2.298-.399-3.384-.617-3.51-.707-7.093-1.172-10.51-2.195-6.493-1.945-12.177-5.288-15.77-11.277-1.115-1.857-2.396-2.266-4.352-2.213-11.33.308-22.664.51-33.995.78-3.196.075-6.388.25-10.013.398l9.695 36.847h61.867zm3.103-8.773c9.294 0 15.222-3.763 18.686-12.284a40 40 0 0 0 1.635-5.108c2.721-10.603-2.109-20.17-12.489-23.502-4.838-1.552-10.063-2.086-15.161-2.55a10.3 10.3 0 0 0-6.289 1.73c-8.714 6.039-13.906 14.087-13.504 25.154.15 4.13 1.636 7.522 4.945 9.801a27.5 27.5 0 0 0 8.039 3.995c4.616 1.272 9.416 1.877 14.138 2.767z"/></svg>