<svg xmlns="http://www.w3.org/2000/svg" width="157" height="102" fill="none" viewBox="0 0 157 102"><path fill="#000" d="M126.632 67.184 32.68 69.887c.37 7.463.776 14.727 1.058 21.996a26.6 26.6 0 0 1-.394 6.013 4.11 4.11 0 0 1-4.062 3.401 4.316 4.316 0 0 1-3.945-3.579 18 18 0 0 1-.179-4.018c.247-6.731.55-13.46.814-20.19.048-1.216.008-2.435.008-3.909-3.596-.355-6.92-.59-10.214-1.043a35 35 0 0 1-6.886-1.474c-6.96-2.463-10.045-8.638-7.617-15.62 2.65-7.626 7.683-12.817 16.014-14.154 1.425-.23 2.839-.533 3.924-.74.432-9.474.826-18.749 1.294-28.02.122-2.433 1.038-3.429 3.484-3.776 2.106-.3 4.249-.38 6.378-.474q12.614-.555 25.23-1.05c1.232-.081 2.47-.05 3.696.096 3.413.5 5.236 2.215 5.604 5.672.627 5.914 1.032 11.852 1.534 17.78.236 2.775.484 5.548.74 8.485h13.75c.084-.953.174-1.812.23-2.674.519-7.728.98-15.461 1.562-23.184.362-4.811 2.363-6.715 7.204-7.071 3.024-.222 6.052-.426 9.082-.525q13.807-.443 27.616-.78c4.413-.102 5.858 1 6.798 5.288.527 2.297.826 4.64.893 6.997.117 6.817.041 13.636.041 20.464 2.54.341 4.882.525 7.167.985 8.849 1.793 14.983 11.324 12.728 19.493-.969 3.511-3.165 5.841-6.301 7.46-4.559 2.357-9.536 3.202-14.514 4.05-.646.11-1.299.19-2.038.297 0 1.82.005 3.473 0 5.126-.036 8.414 0 16.829-.152 25.24-.062 3.347-1.669 5.3-3.918 5.482-2.363.191-4.55-1.789-4.631-5.185-.112-4.693.343-9.405.67-14.101.353-5.118.843-10.236 1.284-15.461M81.775 43.152l-.017-.582c-21.2.596-42.4 1.247-63.6 1.722a6.86 6.86 0 0 0-5.94 3.089 23.3 23.3 0 0 0-2.838 5.308c-1.444 4.02-.272 5.874 3.782 7.385 3.429 1.277 6.86.687 10.318.616 26.037-.533 52.077-.907 78.109-1.624 10.645-.294 21.285-1.139 31.898-2.093 3.853-.347 7.691-1.504 11.39-2.733 3.347-1.11 3.843-3.074 2.49-6.39-1.428-3.5-3.979-5.352-7.701-5.523-4.483-.204-8.977-.495-13.455-.397-14.818.322-29.627.801-44.436 1.222M126.81 8.807h-7.325c.239 3.13.556 5.918.642 8.713.125 4.046-1.56 6.068-5.513 6.691-2.214.35-4.458.519-6.695.715-5.52.484-6.694-.779-6.398-6.415.163-3.1.029-6.214.029-9.535H91.116l1.226 26.179 34.468-1.266zm-75.198.667c.233 2.91.741 5.908.646 8.89-.12 3.748-2.01 5.41-5.737 5.693-1.453.11-2.914.154-4.371.149-4.685-.015-5.742-1.185-5.413-5.841.21-2.97.373-5.945.559-8.962h-7.841l.612 26.566 29.361-.714.877-25.784zm54.359-.459 1.181 9.165 6.375-.525.747-8.641zm-64.077 8.879 3.466-.339c.338-2.827.652-5.448.98-8.204H41.2z"/><path fill="#000" d="M127.333 50.083a5.005 5.005 0 0 1-4.968 4.92 4.25 4.25 0 0 1-4.283-4.278c.082-2.302 2.769-5.166 4.914-5.24 2.395-.082 4.341 1.98 4.337 4.598M52.021 56.73a4.55 4.55 0 0 1-4.715-4.638c-.052-2.482 1.29-4.228 3.298-4.295 3.505-.118 5.67 1.488 5.752 4.266a4.513 4.513 0 0 1-4.335 4.667m-20.553-4.284a4.58 4.58 0 0 1-4.606 4.36 4.463 4.463 0 0 1-4.437-4.498c.055-2.588 2.138-4.073 5.536-3.947 2.065.073 3.571 1.828 3.507 4.085m68.983-5.952a4.25 4.25 0 0 1 4.201 4.018 4.12 4.12 0 0 1-3.985 4.187 4.02 4.02 0 0 1-4.276-4.193 3.84 3.84 0 0 1 4.06-4.012m-24.064 1.651c2.617-.034 4.165 1.336 4.149 3.675a4.04 4.04 0 0 1-2.546 3.691 4 4 0 0 1-1.549.284 4.183 4.183 0 0 1-4.127-3.996c-.1-2.392 1.269-3.62 4.073-3.654"/></svg>