<svg xmlns="http://www.w3.org/2000/svg" width="155" height="137" fill="none" viewBox="0 0 155 137"><path fill="#000" d="M88.017 135.422c-28.595-.362-49.143-.565-69.688-.934a52.4 52.4 0 0 1-10.659-1.327c-5.228-1.195-7.416-3.993-7.416-9.334Q.27 101.262.57 78.698c.161-10.885.57-21.767.909-32.65.116-3.728 1.712-5.47 5.492-5.865 2.332-.242 4.923.389 6.982-.424 2.046-.806 3.458-3.09 5.347-4.45C33.806 24.874 49.123 15.738 64.77 7.137c1.866-1.026 3.741-2.049 5.524-3.21C76.336-.013 82.806-.642 89.6 1.383a21.7 21.7 0 0 1 4.625 1.977 200 200 0 0 1 25.516 17.494c2.973 2.393 5.955 4.792 8.744 7.39a140 140 0 0 1 8.931 9.087 4.97 4.97 0 0 0 4.355 1.893c2.127-.111 4.266-.074 6.398 0 2.96.101 4.274 1.143 4.905 4.07.305 1.653.488 3.328.545 5.01.446 7.05 1.284 14.11 1.192 21.154-.24 18.18-.845 36.361-1.414 54.534-.228 7.294-3.368 10.242-10.785 10.392-20.877.422-41.756.795-54.596 1.037M7.914 46.675v80.078a32 32 0 0 0 4.14.722c5.833.239 11.67.518 17.507.534 19.88.052 39.763.143 59.642-.058 15.944-.162 31.884-.698 47.825-1.143 2.531-.071 5.054-.538 7.978-.867.636-26.779 3.234-53.27 1.531-80.093zm64.104-34.917c-10.632 4.606-44.326 25.203-46.45 28.485l101.6-.96.21-.781c-11.42-10.502-23.447-20.204-36.93-28.21-2.244 6.805-3.736 8.24-8.45 8.377-5.292.156-7.873-1.6-9.98-6.91zm10.603-1.126c.014-1.753-.93-2.805-2.521-2.81-1.471-.007-2.29.918-2.307 2.594-.015 1.518 1.081 2.531 2.774 2.584 1.666.053 2.004-1.029 2.054-2.368"/><path fill="#000" d="m75.192 91.857-14.386.933c-.115 1.242-.197 2.319-.317 3.391-.37 3.336-.598 6.699-1.188 9.996-.382 2.129-1.641 2.933-3.232 2.696-1.845-.274-2.36-1.748-2.35-3.207a78 78 0 0 1 .529-8.706c1.027-8.675 2.156-17.336 3.266-26a9.38 9.38 0 0 1 13.155-7.32c3.97 1.805 6.53 5.008 8.382 8.84 2.377 4.922 3.276 10.23 3.756 15.595.418 4.683.57 9.392.8 14.091.185 3.771-1.43 6.096-4.183 6.125-2.737.028-4.295-2.252-4.242-6.07.048-3.325.01-6.654.01-10.364m-.263-7.11q-.075-1.271-.288-2.527c-.427-1.844-.68-3.784-1.46-5.475a20.6 20.6 0 0 0-3.675-5.869c-2.72-2.766-6.315-1.823-7.08 1.979-.845 4.195-.905 8.549-1.343 13.218zM36.467 65.778c1.594.417 3.153.955 4.666 1.607 1.706.877 2.056 2.588 1.723 4.374-.358 1.925-2.1 2.737-3.416 1.379a4.39 4.39 0 0 0-4.546-1.327c-2.334.525-4.572 1.37-5.961 3.473-3.357 5.087-1.282 9.32 3.832 10.098 2.002.261 3.983.67 5.925 1.222a35 35 0 0 1 6.86 2.668c4.603 2.578 6.283 7.196 4.452 12.103-2.297 6.154-8.39 12.039-17.189 10.278a39.7 39.7 0 0 1-7.679-2.323 12.6 12.6 0 0 1-3.922-3.078c-1.075-1.138-1.359-2.871-.348-4.031a5.52 5.52 0 0 1 3.474-1.477c1.152-.093 2.367.543 3.55.878 2.369.673 4.703 1.502 7.107 2.007a8.18 8.18 0 0 0 9.158-4.66c1.02-2.208.78-3.756-1.374-4.84a55.4 55.4 0 0 0-7.522-2.797c-1.162-.386-2.419-.477-3.615-.775-4.705-1.17-8.285-3.699-9.123-8.737-.909-5.447.953-9.993 5.579-13.15a17.9 17.9 0 0 1 8.37-2.892m88.924 3.562 1.36 13.55c1.641 0 3.17-.076 4.689.022 1.518.099 2.937.465 3.166 2.357a3.04 3.04 0 0 1-2.142 3.419c-1.538.557-3.216.73-5.309 1.17l.984 13.426c2.917-.166 5.472-.394 8.029-.427 1.317-.018 2.793.001 3.91.568a4.47 4.47 0 0 1 2.035 2.722c.316 1.421-.691 2.553-2.062 3.094a7.9 7.9 0 0 1-2.292.472c-3.807.267-7.609.569-11.421.697-3.443.116-4.847-1.459-4.953-4.878-.35-11.314-.775-22.626-1.16-33.939a38 38 0 0 1-.027-4.701c.197-2.17 1.28-3.255 3.463-3.387 4.029-.244 8.068-.445 12.102-.44 3.15.003 4.791 1.197 4.877 3.06.09 1.982-1.673 3.262-4.951 3.378-2.013.072-4.034-.115-6.052-.157-1.31-.031-2.627-.006-4.246-.006M99.74 103.16c3.774 0 7.237-.044 10.699.021a17.4 17.4 0 0 1 4.316.496 2.94 2.94 0 0 1 2.239 2.967 2.94 2.94 0 0 1-.729 1.833 2.94 2.94 0 0 1-1.722.961c-1.319.259-2.66.384-4.004.374a665 665 0 0 1-12.784-.218c-4.126-.101-5.632-1.583-5.812-5.709-.263-6.047-.424-12.1-.765-18.144-.296-5.255-.784-10.501-1.181-15.749-.085-1.115-.36-2.28-.14-3.336.176-.847.881-2.112 1.509-2.213a3.59 3.59 0 0 1 2.858 1.027 6.9 6.9 0 0 1 1.282 3.39q1.436 9.81 2.677 19.648c.582 4.657 1 9.333 1.558 14.652"/></svg>