<svg xmlns="http://www.w3.org/2000/svg" width="145" height="140" fill="none" viewBox="0 0 145 140"><path fill="#000" d="M4.125 7.798q.781.444 1.622.755 1.855.665 3.707 1.335c3.455 1.247 7.028 2.539 10.575 3.722 4.616 1.539 9.34 2.997 13.91 4.407l1.825.563a4.34 4.34 0 0 1 3.308 3.716c.368 2.029.788 4.08 1.195 6.063.367 1.794.747 3.648 1.086 5.475q.795 4.279 1.62 8.555c1.449 7.58 2.947 15.42 4.116 23.169.657 4.331 1.05 8.782 1.439 13.089.352 3.932.716 7.998 1.274 11.978l.148 1.055c.712 5.054 1.384 9.825 1.317 14.833-.124 9.364 3.604 13.297 13.3 14.028 7.396.558 14.84.752 22.263.752 8.682 0 17.327-.262 25.822-.525 6.891-.211 14.024-.43 21.033-.503h.174c.9.03 1.8-.057 2.678-.259l.437-.12a13.4 13.4 0 0 0 3.807-1.463 5.62 5.62 0 0 0 2.699-4.915 5.4 5.4 0 0 0-2.91-4.529 12.14 12.14 0 0 0-5.79-1.355c-5.316.089-10.713.249-15.934.402-6.814.201-13.859.407-20.785.459-7.773.059-15.68-.112-23.329-.28a2692 2692 0 0 0-8.992-.184 12.5 12.5 0 0 1-1.753-.213q-.379-.064-.821-.132l-2.424-12.5 2.133-.206c1.865-.181 3.579-.348 5.295-.496l9.95-.854c12.573-1.083 25.575-2.202 38.365-3.258 4.948-.41 8.243-2.783 10.076-7.258l.571-1.403a75 75 0 0 1 3.781-8.33c3.872-6.934 6.71-14.412 9.452-21.646l.708-1.863c1.538-4.041 3.295-9.431 3.231-15.292-.054-4.826-2.244-7.154-7.103-7.548a24 24 0 0 0-2.078-.054q-8.193.036-16.384.057c-13.741.043-27.951.088-41.927.257-5.486.066-11.053.378-16.438.681-2.602.146-5.204.293-7.807.412-.565.025-1.148.018-1.764.012l-.443-.005q-.262-1.1-.517-2.182a309 309 0 0 0-1.424-5.867c-1.297-5.06-4.212-8.196-8.91-9.588-7.067-2.093-14.22-4.344-21.133-6.52Q13.364 2.65 8.35 1.085a9.3 9.3 0 0 0-2.14-.38C4.611.602 2.41.748 1.778 3.243c-.483 1.921.282 3.41 2.347 4.555M51.87 35.094q1.089-.052 2.151-.109c2.11-.11 4.104-.214 6.12-.22 4.403-.012 8.88.009 13.21.03q5.514.027 11.027.033 9.264-.006 18.529-.035 12.449-.032 24.899-.036c1.76 0 3.565.127 5.478.258q1.057.076 2.195.146c-.286.97-.546 1.916-.8 2.837a52.5 52.5 0 0 1-2.246 6.918c-2.428 5.61-5.072 11.245-7.627 16.696q-1.44 3.07-2.871 6.146c-1.24 2.672-2.49 5.34-3.845 8.231l-1.87 3.991-56.892 5.393c-.85-15.047-3.227-31.07-7.458-50.279m71.391 103.637a9.5 9.5 0 0 0 6.675-2.802 8.02 8.02 0 0 0 2.428-5.704c-.034-4.498-4.345-8.636-9.045-8.681h-.087a8.86 8.86 0 0 0-8.88 8.626 8.15 8.15 0 0 0 2.363 5.915 9.04 9.04 0 0 0 6.515 2.647zm-53.738.645h.066a8.66 8.66 0 0 0 8.532-8.293c.062-4.778-4.187-9.38-8.74-9.467a8.4 8.4 0 0 0-5.848 2.494 9.35 9.35 0 0 0-2.926 6.507 8.53 8.53 0 0 0 2.61 6.007 9.04 9.04 0 0 0 6.306 2.752"/></svg>