<svg xmlns="http://www.w3.org/2000/svg" width="168" height="165" fill="none" viewBox="0 0 168 165"><path fill="#000" d="M166.481 33.522c-.212-5.108-.717-10.28-1.206-15.282-.242-2.47-.492-5.024-.702-7.535-.525-6.263-3.428-9.43-8.875-9.68h-.031l-7.482.004q-.897.091-1.792.193c-1.253.14-2.549.284-3.817.355q-5.813.322-11.627.618c-8.641.449-17.577.914-26.358 1.533-2.026.142-5.783.68-8.162 2.673l-3.38 2.828c-9.074 7.583-18.457 15.424-26.996 23.856C52.735 46.238 39.478 59.895 26.657 73.1A9012 9012 0 0 1 10.38 89.825a9 9 0 0 0-.43.48c-.228.308-.51.572-.833.778-3.431 1.69-5.079 4.78-6.672 7.768l-.356.665a8.275 8.275 0 0 0 .807 9.548c12.33 15.909 24.62 31.27 39.392 44.318 4.492 3.965 9.736 7.096 14.274 9.636a9.73 9.73 0 0 0 4.712 1.47c2.31 0 4.2-1.288 6.351-3.378a766 766 0 0 0 5.46-5.369c4.024-3.975 8.185-8.084 12.417-11.964 9.976-9.15 20.166-18.408 30.019-27.36 9.018-8.195 18.342-16.667 27.482-25.036 5.31-4.862 10.574-9.947 15.665-14.865q2.168-2.095 4.343-4.189c2.718-2.613 4.011-5.5 3.951-8.825-.065-3.52-.089-7.102-.116-10.567-.047-6.363-.097-12.947-.365-19.413M158.08 59.98a7.49 7.49 0 0 1-2.583 6.038 19894 19894 0 0 0-50.919 47.167 10328 10328 0 0 0-26.562 24.816L63.97 151.145c-.695.649-1.409 1.279-2.28 2.049l-1.116.984c-1.029-.716-2.088-1.414-3.117-2.093a60.6 60.6 0 0 1-7.403-5.439c-14.876-13.483-27.672-28.996-38.226-42.392-1.091-1.385-1.228-2.571-.443-3.849l.296-.48a23.3 23.3 0 0 1 3.093-4.302q5.628-5.667 11.251-11.34c16.92-17.06 34.416-34.702 51.832-51.838 3.958-3.895 8.358-7.494 12.614-10.974 2.757-2.251 5.6-4.58 8.312-6.974 2.936-2.593 6.386-2.773 10.039-2.964q.656-.034 1.307-.073c10.917-.683 22.033-1.181 32.781-1.668q4.97-.224 9.937-.452.163-.008.328-.007c.49 0 1.014.045 1.692.104q.456.042 1.003.085.32 4.514.661 8.955c.567 7.555 1.103 14.692 1.461 21.987.197 3.951.15 7.99.107 11.895-.025 2.498-.054 5.08-.019 7.621"/><path fill="#000" d="M124.597 24.171h-.262a15.5 15.5 0 0 0-10.809 4.582 17.75 17.75 0 0 0-5.36 12.47c-.078 9.378 7.686 16.883 17.674 17.087q.231.005.459.005a18.65 18.65 0 0 0 13.132-4.994 16.95 16.95 0 0 0 5.061-12.092c.131-9.83-8.052-16.845-19.895-17.058m-7.084 12.202c.583-1.456 1.099-2.598 1.998-2.95a1.8 1.8 0 0 1 .67-.12 4.3 4.3 0 0 1 1.786.494.675.675 0 0 0 .963-.617v-.047q.863.275 1.732.538a39 39 0 0 1 5.678 2.061c3.493 1.701 3.708 4.83 3.272 7.154-.57 3.05-2.328 4.722-5.532 5.261-4.403.742-7.494-.193-9.73-2.943-1.973-2.422-2.245-5.312-.837-8.833z"/></svg>