<svg xmlns="http://www.w3.org/2000/svg" width="196" height="124" fill="none" viewBox="0 0 196 124"><path fill="#000" d="M146.406 69.306c-3.46-.53-4.371-1.926-4.681-5.372-.413-4.574-1.128-9.123-1.712-13.678a26 26 0 0 1-.36-3.002c-.017-1.773 1.288-3.916 2.854-4.131 3.551-.49 7.256-1.07 10.013 2.155a490 490 0 0 1 8.157 9.836 60 60 0 0 1 3.83 5.12c2.77 4.288.435 9.104-4.667 9.607-4.485.096-8.971-.082-13.434-.535m.138-21.009-.752.43c1.099 4.722 2.197 9.444 3.348 14.38l8.062-.376c-3.72-5.346-6.683-10.265-10.658-14.434"/><path fill="#000" d="M194.857 87.583c-.98-7.59 2.494-14.528-3.008-19.997-6.267-5.506-13.201-12.934-19.053-19.275-6.58-7.102-13.145-14.228-20.523-20.658-5.408-4.759-13.743-.32-20.374-.525C124.712.978 121.725.29 95.364.488 70.701.7 49.272 3.29 25.494 5.345 3.912 7.812.768 5.936 1.487 29.922c.083 23.201.072 43.146.632 65.675-.07 17.559 20.675 13.372 32.71 14.953 1.872 16.691 26.275 16.676 31.176 2.117 26.898-2.08 53.295-.841 80.149-5.287 3.019 15.924 27.842 15.949 30.046-.405 19.104-1.248 19.265 1.102 18.658-19.392M8.977 79.018C8.796 59.578 7.304 39.14 8.02 19.5c.358-4.52.75-4.95 5.295-5.71 8.946-1.556 15.83-1.9 24.367-2.753 25.7-2.034 48.963-5.65 75.807-3.116 14.213 1.575 15.562 59.28 16.072 69.325-41.212-.094-79.453 3.835-120.062 5.476a10.2 10.2 0 0 1-.52-3.704m47.717 34.692c-9.689 10.169-23.335-4.576-12.903-11.311 1.927-.452 4.145-.611 6.273-.91 5.774.853 11.98 6.781 6.63 12.221m71.54-12.349c-9.472 1.203-49.887 3.019-61.756 3.873-4.853-15.406-25.814-13.4-30.29-1.255-7.019-.55-14.082-.332-21.028-1.47-7.773-.722-6.113-9.064-5.753-14.689 40.874-.776 79.322-4.11 120.594-3.74-.589 4.357 4.333 15.992-1.765 17.281zm38.593 7.203c-5.763 7.766-19.281-.895-11.37-9.254 1.618-1.626 6.049-1.005 7.823-.132 2.716 2.106 5.32 6.39 3.547 9.386m8.309-7.843c-3.067-8.413-15.728-12.428-22.505-6.94-1.014.796-3.723 2.756-4.988 6.038-.709 1.431-9.852 2.764-9.725-.755-.836-22.775-1.888-44.395-4.377-66.56 4.817.19 12.613-1.886 16.015 2.212 4.747 4.863 9.833 10.211 15.99 16.84 6.62 7.95 15.272 14.966 20.753 23.695.532 6.376.877 16.757 1.341 23.524z"/></svg>