<svg xmlns="http://www.w3.org/2000/svg" width="160" height="152" fill="none" viewBox="0 0 160 152"><path fill="#000" d="M138.184 97.808c.91 7.727 1.772 14.84 2.568 21.96.136 1.214-.069 2.462.017 3.685.304 4.29-2.078 6.7-5.739 8.103-8.785 3.368-17.524 6.88-26.424 9.92-9.746 3.328-19.633 6.257-29.508 9.193a10.25 10.25 0 0 1-5.24.065c-17.261-4.486-34.296-9.679-50.734-16.679a55 55 0 0 1-7.56-3.609 9.1 9.1 0 0 1-3.03-3.742c-.55-1.144-.512-2.632-.515-3.968-.02-8.648-.04-17.297.093-25.943a3.135 3.135 0 0 0-1.765-3.217A39 39 0 0 1 4.788 89.8C1.23 86.796.703 83.244 3.208 79.316a28 28 0 0 1 3.471-4.093c3.326-3.478 6.707-6.898 10.177-10.456-3.889-3.485-7.565-6.772-11.232-10.071a31 31 0 0 1-2.94-2.766C.202 49.024.53 46.154 3.57 43.797c1.596-1.237 3.282-2.363 4.899-3.57 12.498-9.343 24.969-18.722 37.5-28.019a86 86 0 0 1 7.648-4.9c3.16-1.86 6.142-1.553 8.988.884 3.498 2.993 7.107 5.856 10.687 8.75.95.77 1.97 1.45 3.168 2.324 1.598-1.814 3.129-3.569 4.68-5.305q4.604-5.15 9.225-10.284c2.888-3.212 4.837-3.85 8.588-1.866 6.832 3.614 13.698 7.228 20.194 11.395 11.993 7.693 23.731 15.783 35.57 23.716q.98.66 1.864 1.44c2.891 2.547 3.216 5.217.726 8.239-4.003 4.867-8.324 9.431-13.6 12.981-.363.245-.685.55-1.279 1.031 3.622 3.812 7.144 7.543 10.698 11.245 1.247 1.296 2.647 2.446 3.831 3.791 3.126 3.553 3.077 7.05-.111 10.527a26.9 26.9 0 0 1-8.827 6.606c-3.46 1.56-6.776 3.45-9.835 5.026M129.5 62.202c-1.391-.831-2.313-1.4-3.252-1.94-11.556-6.655-23.093-13.344-34.684-19.937-4.087-2.324-8.373-4.3-12.446-6.648-2.194-1.264-3.834-.848-5.813.46-12.063 7.983-24.192 15.865-36.312 23.76-3.07 2-6.186 3.93-9.53 6.049.81.525 1.251.858 1.735 1.115 14.474 7.627 28.995 15.167 43.398 22.925 3.209 1.728 5.899 2.173 8.76-.368a12.7 12.7 0 0 1 2.625-1.485q20.096-10.539 40.194-21.069c1.659-.87 3.3-1.773 5.325-2.862M81.69 25.775c18.508 9.888 35.753 21.025 54.348 29.624l11.689-11.814q-.586-.623-1.247-1.165c-10.977-7.384-21.903-14.847-32.97-22.092-4.68-3.064-9.656-5.676-14.505-8.476-1.51-.873-2.794-.854-4.154.575-4.251 4.454-8.635 8.776-13.162 13.348M19.831 99.52c.802 8.54 1.535 16.234 2.236 23.932a2.55 2.55 0 0 0 1.969 2.408c.958.309 1.875.741 2.822 1.095 13.98 5.229 28.382 9.051 42.808 12.787q1.245.215 2.506.257V105.92c-2.166 2.378-3.794 4.383-5.65 6.153a37.4 37.4 0 0 1-6.191 5.125c-3.002 1.819-6.347 2.15-9.583.319a6029 6029 0 0 1-25.433-14.469c-1.636-.935-3.174-2.033-5.485-3.529m111.473 1.969c-1.667.745-2.489 1.069-3.272 1.469-8.279 4.225-16.605 8.37-24.802 12.748-2.844 1.519-5.376 1.54-7.837-.333-4.013-3.055-7.916-6.251-11.862-9.393-.82-.653-1.62-1.329-2.587-2.123.646 12.456 1.272 24.502 1.904 36.71.814-.214 1.575-.363 2.297-.613 4.655-1.611 9.33-3.171 13.946-4.888 9.546-3.551 19.059-7.185 28.582-10.799 1.258-.477 2.428-.924 2.507-2.697.289-6.486.714-12.965 1.124-20.086zM9.778 83.704l47.057 26.277 13.863-12.93-48.815-27.906zm76.083 11.687c4.115 3.197 7.99 6.07 11.698 9.144 1.874 1.553 3.417 1.822 5.678.617 13.745-7.324 27.575-14.49 41.371-21.72.959-.503 1.87-1.096 2.731-1.604l-10.961-14.869zm-29.329-79.49c-15.495 9.518-29.01 21.473-43.264 31.374L24.293 58.79 70.07 27.837z"/></svg>