<svg xmlns="http://www.w3.org/2000/svg" width="142" height="175" fill="none" viewBox="0 0 142 175"><g fill="#000" clip-path="url(#a)"><path d="M141.035 101.153c.116 13.697.298 27.395.316 41.092.008 5.946-.448 11.893-.467 17.84-.025 8.37-6.329 13.568-14.02 13.74-17.511.394-35.028.745-52.54.685-16.17-.056-32.339-.591-48.504-1.09a113 113 0 0 1-13.047-1.401c-4.965-.735-9.885-6.612-10.21-12.011-.25-4.14-.46-8.288-.518-12.435q-.447-32.845-.8-65.692-.357-30.825-.69-61.65A23.7 23.7 0 0 1 3.551 8.627a10.6 10.6 0 0 1 9.54-5.882c6.282-.217 12.578-.215 18.848-.634 21.11-1.413 42.218-.28 63.327-.143a15.5 15.5 0 0 1 11.37 4.617c6.826 6.497 14.158 12.462 21.244 18.689 2.613 2.297 5.032 4.82 7.703 7.043 2.832 2.358 3.893 5.333 3.949 8.883q.276 17.853.637 35.7c.157 8.085.355 16.17.535 24.253zM93.527 10.357c-1.986-.155-3.647-.373-5.312-.402a14268 14268 0 0 0-42.433-.647c-6.394-.088-12.79-.128-19.184-.167-3.25-.02-6.506-.122-9.746.048-4.517.237-5.908 1.545-6.723 5.991a43.8 43.8 0 0 0-.567 12.734 68 68 0 0 1 .402 7.39q.103 59.445.155 118.889-.033 1.18.091 2.354c.685 5.112 3.379 8.509 9.182 8.738 21.665.857 43.328.862 65 .495 10.889-.185 21.779-.277 32.669-.401 2.691-.031 5.388.071 8.073-.058 4.687-.224 7.032-2.576 6.985-7.17-.05-4.82-.422-9.636-.502-14.457-.096-5.836.099-11.679-.065-17.512-.404-14.361-1.1-28.715-1.375-43.077-.221-11.56.004-23.127.02-34.69 0-.862-.091-1.724-.14-2.603a8 8 0 0 0-1.167-.174c-6.847.138-13.692.353-20.539.394a26 26 0 0 1-6.326-.733c-4.22-1.042-5.546-2.676-5.992-7.011-.402-3.906-.663-7.825-1.014-11.736-.468-5.243-.964-10.484-1.492-16.195m12.111 27.553 20.132-1.247-22.943-20.826-.504.291c1.091 7.166 2.181 14.331 3.317 21.782z"/><path d="M69.907 93.538c12.121-.343 24.242-.71 36.361-1.004a33.4 33.4 0 0 1 6.033.39c2.07.327 2.97 1.432 2.995 3.054.026 1.729-1.05 3.045-3.14 3.33-2.775.41-5.573.65-8.379.722-16.394.238-32.79.459-49.185.539-7.4.037-14.804-.206-22.202-.451a10.7 10.7 0 0 1-4.504-1.126 3.62 3.62 0 0 1-1.452-2.702c-.047-1.289 1.165-1.783 2.394-1.84.896-.044 1.794-.03 2.69-.046l38.39-.676zM68 69.775c-7.574.24-14.868.566-22.166.674-5.385.08-10.775-.083-16.16-.226-1.816-.049-2.942-1.164-2.977-2.588-.038-1.535.919-2.494 2.822-2.68 1.339-.13 2.691-.153 4.037-.187 9.315-.233 18.632-.426 27.946-.689 13.472-.38 26.941-.81 40.412-1.213 1.796-.053 3.594-.11 5.39-.083 3.006.043 4.459.984 4.594 2.87.136 1.919-1.213 3.256-4.098 3.479-4.473.348-8.965.568-13.451.615-8.874.094-17.75.028-26.35.028m5.961 15.347c-14.12.078-28.255.781-42.343-.697a11.3 11.3 0 0 1-3.263-.714 2.28 2.28 0 0 1-1.257-1.646 2.24 2.24 0 0 1 1.366-1.585c1.099-.207 2.22-.27 3.334-.189 9.64-.037 19.284.078 28.92-.125 15.352-.322 30.699-.86 46.048-1.287a27 27 0 0 1 4.029.14c1.747.218 2.806 1.354 2.84 2.792s-.99 2.625-2.691 2.973c-.774.12-1.557.164-2.34.135q-14.803.11-29.605.202c-1.68.012-3.36.001-5.039.001m-3.204 26.999c3.369 0 6.738-.053 10.107.022a30.6 30.6 0 0 1 4.993.508 2.84 2.84 0 0 1 2.415 2.851 3.04 3.04 0 0 1-2.316 3.305c-1.38.476-2.826.727-4.285.744-7.845-.359-15.686-.853-23.524-1.329a5.4 5.4 0 0 1-1.618-.422c-1.26-.499-2.047-1.365-1.931-2.822a2.44 2.44 0 0 1 2.06-2.344 16.7 16.7 0 0 1 3.317-.418c3.594-.051 7.189-.018 10.783-.018z"/></g><defs><clipPath id="a"><path fill="#fff" d="M.363.794h141.113v173.93H.363z"/></clipPath></defs></svg>