<svg xmlns="http://www.w3.org/2000/svg" width="142" height="174" fill="none" viewBox="0 0 142 174"><g fill="#000" clip-path="url(#a)"><path d="M54.256 173.886a33 33 0 0 0-3.282-.44c-8.19-.301-16.386-.449-24.57-.879-4.698-.247-9.397-.764-14.051-1.46-4.965-.741-9.845-6.683-10.114-12.08-.262-5.263-.476-10.532-.544-15.8q-.49-37.72-.88-75.441C.654 53.079.6 38.372.362 23.666.293 19.38 0 15.079 1.769 11.081A25.1 25.1 0 0 1 5.782 4.58c1.747-1.964 4.34-2.665 7.033-2.737 6.282-.17 12.577-.198 18.843-.619C52.764-.19 73.861.947 94.966 1.084a15.5 15.5 0 0 1 11.361 4.626c6.823 6.497 14.155 12.456 21.237 18.683 2.696 2.371 5.185 4.982 7.941 7.276 2.661 2.215 3.61 5.032 3.684 8.31.208 9.538.386 19.077.621 28.616.377 15.263.939 30.52 1.139 45.788.146 11.106-.164 22.219-.276 33.329-.038 3.817-.156 7.633-.131 11.449.066 8.825-6.925 13.671-14.298 13.797-13.465.229-26.933.328-40.4.51a28 28 0 0 0-3.28.419zM93.198 9.456c-2.12-.16-3.792-.371-5.468-.398a15156 15156 0 0 0-42.77-.622 2709 2709 0 0 0-18.848-.19c-3.249-.023-6.507-.122-9.746.065-4.343.254-5.899 1.529-6.48 5.814a90 90 0 0 0-.676 11.716c-.016 4.371.42 8.742.449 13.115q.145 21.218.13 42.438.027 36.036.019 72.072a15.6 15.6 0 0 0 .355 3.672c1.194 4.888 3.956 7.088 8.401 7.191 6.285.143 12.567.635 18.849.613 22.568-.077 45.135-.318 67.702-.474 6.509-.045 13.021.101 19.527-.048 4.923-.114 7.22-2.495 7.166-7.324-.113-10.546-.346-21.09-.552-31.636-.062-3.142-.182-6.282-.298-9.423-.369-9.87-.942-19.737-1.076-29.61-.177-13.02-.008-26.047-.004-39.07a22 22 0 0 0-.179-2.178c-7.371 0-14.434.051-21.495-.032-2.129 0-4.253-.233-6.333-.696-4.38-1.038-5.73-2.699-6.18-7.22-.389-3.907-.65-7.826-1.001-11.737-.47-5.227-.972-10.454-1.492-16.039m9.451 5.604-.642.225c1.09 7.165 2.182 14.33 3.264 21.431 3.646.381 17.215-.626 19.58-1.476z"/><path d="M69.104 90.495q-17.175 0-34.35-.013a30 30 0 0 1-4.696-.32c-2.525-.41-3.647-1.57-3.496-3.312.138-1.59 1.287-2.392 3.79-2.495 2.243-.09 4.49-.038 6.734-.124 15.252-.58 30.499-1.327 45.755-1.718 9.422-.242 18.856.02 28.288.119 3.047.032 4.749 1.911 3.626 4.093a5 5 0 0 1-3.025 2.298 46.7 46.7 0 0 1-9.282 1.272c-11.112.146-22.227.057-33.342.057zm-42.114 17.68c-.615-3.909.18-4.943 3.748-5.16 5.037-.308 10.082-.65 15.126-.666a8323 8323 0 0 1 60.585.022c2.239.069 4.474.252 6.694.55a2.9 2.9 0 0 1 2.815 2.834c.137 1.438-.775 2.634-2.517 3.135a11.8 11.8 0 0 1-3.315.427c-14.582-.121-29.164-.3-43.747-.426-10.435-.091-20.871-.094-31.307-.208-2.663-.03-5.324-.328-8.081-.508m1.279 16.523c-.8-2.726-.65-3.529 1.135-4.135a14 14 0 0 1 4.602-.727c13.915.15 27.834.279 41.744.625 10.995.273 21.982.837 32.973 1.282.898.005 1.794.087 2.679.242a3.4 3.4 0 0 1-.026 6.736 14.7 14.7 0 0 1-3.354.173c-6.615-.257-13.233-.485-19.843-.857-11.426-.642-22.845-1.436-34.272-2.061-6.05-.328-12.112-.41-18.165-.67-2.453-.107-4.9-.394-7.473-.608m72.972 21.223c-2.231-.098-4.463-.155-6.694-.315a21 21 0 0 1-2.948-.537 2.18 2.18 0 0 1-1.874-2.408 2.43 2.43 0 0 1 2.27-2.486 84 84 0 0 1 5.336-.478 450 450 0 0 1 10.038-.525 14.6 14.6 0 0 1 3 .232c1.838.315 2.757 1.247 2.87 2.748a3.05 3.05 0 0 1-2.363 3.252c-1.74.385-3.509.623-5.289.713-1.444.11-2.899.021-4.35.021zM32.986 66.554c2.577 0 5.154-.012 7.73.007.782.006 1.697-.143 2.31.204a4.33 4.33 0 0 1 1.89 2.026 2.025 2.025 0 0 1-1.353 2.703 9.5 9.5 0 0 1-3.252.56c-5.037-.158-10.073-.413-15.106-.676a12 12 0 0 1-2.293-.476c-1.097-.28-2-1.002-1.616-2.119a4.3 4.3 0 0 1 1.969-1.918c.515-.296 1.312-.117 1.985-.12 2.579-.008 5.157 0 7.736 0z"/></g><defs><clipPath id="a"><path fill="#fff" d="M.095.01h141.113v173.93H.095z"/></clipPath></defs></svg>