<svg xmlns="http://www.w3.org/2000/svg" width="142" height="174" fill="none" viewBox="0 0 142 174"><g fill="#000" clip-path="url(#a)"><path d="M141.131 92.192c.18 16.504.42 33.008.507 49.512.031 5.834-.427 11.668-.46 17.503-.045 8.369-6.511 13.469-14.129 13.634-15.601.338-31.209.698-46.812.621-18.078-.089-36.156-.567-54.23-1.045a103 103 0 0 1-13.045-1.414c-4.962-.772-9.835-6.704-10.1-12.103-.263-5.377-.475-10.759-.545-16.142q-.489-37.563-.879-75.126c-.16-14.711-.222-29.424-.447-44.134-.066-4.17-.367-8.353 1.32-12.268a25.6 25.6 0 0 1 3.647-6.354c1.863-2.22 4.613-3.061 7.552-3.142 6.06-.167 12.13-.206 18.176-.606C53.021-.28 74.353.82 95.687.978c4.537.034 7.988 1.516 11.335 4.697 6.832 6.493 14.164 12.456 21.248 18.685 2.697 2.372 5.199 4.968 7.936 7.286 2.525 2.14 3.506 4.833 3.601 8.003.167 5.61.433 11.224.512 16.832.166 11.903.239 23.81.351 35.713zM93.829 9.362c-1.983-.156-3.641-.374-5.303-.403q-21.216-.355-42.434-.646c-6.394-.089-12.788-.128-19.183-.168-3.25-.02-6.506-.122-9.747.047-4.52.236-5.917 1.542-6.73 5.983a43.7 43.7 0 0 0-.568 12.734 69 69 0 0 1 .403 7.39q.102 59.445.154 118.89-.03 1.18.09 2.353c.68 5.108 3.374 8.518 9.175 8.747 21.665.853 43.329.862 65 .495 10.889-.185 21.779-.277 32.669-.401 2.691-.03 5.388.07 8.073-.058 4.691-.224 7.042-2.573 7-7.161-.084-8.974-.297-17.947-.475-26.919-.092-4.601-.188-9.203-.345-13.803-.369-10.88-.955-21.757-1.115-32.64-.183-12.235.004-24.474.018-36.71 0-.752-.095-1.503-.148-2.272a8 8 0 0 0-1.159-.179c-6.847.138-13.692.353-20.539.394a26 26 0 0 1-6.327-.73c-4.223-1.041-5.552-2.673-5.999-7.005-.402-3.905-.663-7.826-1.014-11.737-.472-5.24-.968-10.482-1.496-16.2zm31.397 26.385.155-.708-22.237-20.178-.511.328 3.307 21.717z"/><path d="M22.387 38.947c0-3.249-.088-6.499.021-9.744.145-4.279 1.396-5.533 5.705-5.811 6.03-.39 12.064-.7 18.097-1.04 2.714-.153 4.685 1.181 5.294 4.104.552 2.968.94 5.965 1.16 8.977.372 3.226.57 6.47.59 9.718a25 25 0 0 1-1.154 6.524c-.67 2.285-2.56 3.394-4.866 3.464-5.933.182-11.873.413-17.804.305-5.547-.102-6.604-1.303-6.998-6.76-.121-1.675-.21-3.355-.256-5.033-.043-1.567-.01-3.136-.01-4.703zm7.679 8.11c2.591.848 9.157.61 13.258-.465v-16.97c-3.544-.788-11.98-.723-14.5.136zm39.14 31.563c13.34.269 26.684.513 40.024.845 1.449.055 2.876.378 4.208.952a3.27 3.27 0 0 1 1.533 1.295 3.27 3.27 0 0 1 .486 1.946 3.15 3.15 0 0 1-2.238 3.075c-1.825.49-3.706.735-5.596.73-10.427-.235-20.85-.705-31.276-.88-9.531-.16-19.067-.029-28.6-.066-5.832-.023-11.665-.07-17.494-.222a23.6 23.6 0 0 1-4.613-.803 2.344 2.344 0 0 1-1.896-2.45 2.384 2.384 0 0 1 1.808-2.53 13.5 13.5 0 0 1 3.291-.532q20.178-.543 40.358-1.018zM23.317 99.106c.795-2.497 2.705-2.804 4.644-2.933 4.144-.274 8.291-.616 12.441-.677q33.352-.49 66.707-.834a18.5 18.5 0 0 1 4.66.47 3.676 3.676 0 0 1 .224 7.153 16 16 0 0 1-4.272.712c-5.279.032-10.558-.046-15.836-.132q-29.14-.488-58.283-1.037c-2.46-.048-4.922-.372-7.372-.666-1.52-.188-1.51-.272-2.913-2.056m52.125-26.217c-9.545 0-19.09-.094-28.633.04-4.37.062-8.73.596-13.101.866-2.128.131-4.267.237-6.393.197-2.055-.041-3.207-.89-3.336-2.166-.132-1.324.787-2.35 2.87-2.63 5.671-.76 11.344-1.651 17.046-2 20.18-1.236 40.39-1.51 60.607-1.352a38 38 0 0 1 5.372.317c1.995.303 3.031 1.51 3 3.055s-1.088 2.697-3.09 2.93c-2.452.294-4.918.45-7.387.472-8.986.053-17.97.02-26.956.02zm24.359 63.34c-3.028 0-6.056.045-9.083-.012-2.809-.053-4.193-1.031-4.215-2.817s1.325-2.732 4.138-2.917c5.595-.365 11.189-.756 16.787-1.067a20.6 20.6 0 0 1 4.346.197 2.884 2.884 0 0 1 2.595 2.696c.168 1.618-.424 2.987-1.931 3.572a13.7 13.7 0 0 1-4.232.88c-2.796.131-5.603.039-8.405.039z"/></g><defs><clipPath id="a"><path fill="#fff" d="M.588.01H141.7v173.93H.588z"/></clipPath></defs></svg>