<svg xmlns="http://www.w3.org/2000/svg" width="142" height="175" fill="none" viewBox="0 0 142 175"><g fill="#000" clip-path="url(#a)"><path d="M141.351 100.752c.116 13.698.299 27.395.318 41.092.009 5.946-.451 11.892-.466 17.839-.02 8.369-6.293 13.592-13.999 13.763-18.297.403-36.6.756-54.9.701-15.494-.046-30.99-.615-46.48-1.12a112 112 0 0 1-12.71-1.379c-4.956-.734-9.901-6.606-10.23-11.99-.253-4.141-.464-8.289-.52-12.436q-.447-32.846-.8-65.692-.356-30.826-.69-61.651A23.75 23.75 0 0 1 3.858 8.273a10.6 10.6 0 0 1 9.529-5.9c5.945-.214 11.903-.234 17.838-.619 21.559-1.4 43.116-.328 64.674-.16 4.443.035 7.776 1.527 11.034 4.607 6.849 6.475 14.164 12.455 21.248 18.684 2.697 2.372 5.185 4.989 7.945 7.277 2.776 2.301 3.656 5.25 3.715 8.642q.31 17.513.64 35.026c.162 8.31.356 16.618.535 24.927zM93.843 9.976c-2.001-.155-3.662-.372-5.325-.4q-21.216-.354-42.433-.645c-6.394-.088-12.79-.132-19.184-.169-3.25-.02-6.506-.122-9.746.05-4.51.24-5.899 1.549-6.711 6.004a43.8 43.8 0 0 0-.563 12.733c.267 2.454.401 4.922.401 7.391q.103 59.445.154 118.889-.031 1.18.092 2.354c.696 5.119 3.388 8.495 9.196 8.725 21.553.853 43.104.856 64.663.501 11.001-.182 22.004-.281 33.006-.409 2.691-.031 5.388.071 8.073-.058 4.68-.225 7.019-2.58 6.971-7.184-.052-4.933-.42-9.861-.503-14.794-.097-5.724.097-11.454-.066-17.175-.406-14.361-1.1-28.715-1.378-43.078-.221-11.558.004-23.126.02-34.689 0-.86-.094-1.722-.145-2.596a8.5 8.5 0 0 0-1.177-.167c-6.846.138-13.692.354-20.538.394a26 26 0 0 1-6.326-.735c-4.214-1.045-5.534-2.68-5.98-7.023-.4-3.906-.662-7.826-1.012-11.736-.465-5.239-.962-10.481-1.49-16.183m12.102 27.57 20.135-1.261-23.553-21.393z"/><path d="M44.718 38.061c4.823 0 9.648-.025 14.47.008 3.404.024 4.636.985 5.377 4.337.318 1.535.492 3.097.519 4.666.103 3.65-1.379 5.508-4.931 5.955a94 94 0 0 1-9.392.721c-4.827.125-9.658.006-14.485.077a46 46 0 0 0-6.703.45c-5.215.853-7.824-3.46-7.706-7.09.098-1.793.302-3.579.61-5.348a4.1 4.1 0 0 1 3.442-3.667 31 31 0 0 1 5.329-.666c4.488-.093 8.979-.03 13.47-.03zm10.73 7.215.078-.787c-9.016.321-18.032-1.359-27.218-.115v2.667c1.04-.06 1.914-.072 2.778-.167 2.11-.235 4.208-.632 6.322-.74 4.815-.244 9.636-.339 14.454-.524 1.198-.052 2.391-.22 3.586-.334m30.499 93.233c-8.073 0-16.146.021-24.215-.017-1.9.026-3.799-.098-5.68-.371-2.026-.332-3.084-1.536-3.079-2.987.007-1.4 1.172-2.756 3.085-3.075a52 52 0 0 1 7.679-.834q23.365-.425 46.731-.656c1.678-.01 3.351.186 4.981.582 2.051.492 2.966 1.789 2.907 3.554-.066 1.842-1.313 3.093-3.489 3.43a13 13 0 0 1-2.012.108q-13.455.01-26.91.004zm-1.925-27.95c-8.972 0-17.944.014-26.916-.015a21.5 21.5 0 0 1-4.007-.354c-1.137-.22-2.107-.869-2.226-2.194-.131-1.473.798-2.298 2.007-2.769a8 8 0 0 1 2.301-.413c5.925-.423 11.845-1.021 17.777-1.181 12.78-.348 25.565-.478 38.347-.661a12.7 12.7 0 0 1 3.316.394c2.253.582 3.23 1.832 3.136 3.734-.087 1.756-1.077 2.916-3.161 3.358a19.7 19.7 0 0 1-3.996.377c-8.861.031-17.721.016-26.582.016zm.958-26.918H56.02c-.674 0-1.354.11-2.02.047-1.16-.113-2.256-.415-2.45-1.834a2.3 2.3 0 0 1 1.61-2.654 25 25 0 0 1 5.53-1.287 433 433 0 0 1 43.393-1.418c3.817.061 7.635.041 11.452.067q1.18-.03 2.355.068c2.643.304 4.371 1.903 4.281 3.9-.087 1.908-1.718 3.328-4.226 3.58q-1.514.123-3.029.04c-6.282-.218-12.563-.493-18.845-.675-3.028-.089-6.06-.016-9.091-.016zm-53.407 64.685a32 32 0 0 1-3.21-.268c-7.22-1.283-10.321-7.715-6.86-14.177 3.516-6.571 8.776-8.401 15.67-5.444 4.56 1.954 6.881 6.022 6.133 10.746-.853 5.399-4.07 8.541-9.254 9.027-.777.071-1.56.074-2.479.116m-3.942-8.808c2.363 1.541 4.857 1.396 7.334.611 1.313-4.752-.792-6.671-6.194-5.924-1.208 1.489-1.947 3.125-1.136 5.316zm14.666-58.921c0 .112.004.224 0 .336-.161 3.993-1.015 7.746-5.115 9.467-4.572 1.92-9.094 1.534-12.962-1.768-3.372-2.88-4.357-6.58-3.18-10.946 1.542-5.71 3.705-7.549 9.878-7.927 5.388-.328 9.203 1.802 10.745 6.213a29 29 0 0 1 .845 4.59zM27.443 76.95c-1.431 2.676-1.434 4.227-.066 5.913 1.633 2.01 3.98 2.453 7.28 1.378 1.483-2.856 1.684-5.172.23-6.492-2.253-2.05-4.872-1.786-7.444-.799m3.883 41.592c-1.6-.253-2.713-.37-3.798-.61-4.838-1.071-7.846-4.493-7.745-8.753.124-5.138 3.063-8.643 7.984-9.747 4.507-1.012 8.422-.056 11.716 3.197 4.74 4.681 3.387 12.034-2.776 14.592-1.816.754-3.862.962-5.381 1.321m-4.027-13.285c-.765 1.753-1.641 3.593.09 4.936 1.023.794 2.697.947 4.094 1.003 1.431.057 2.966-.213 3.488-1.988-1.133-3.515-2.046-4.014-7.672-3.948z"/></g><defs><clipPath id="a"><path fill="#fff" d="M.855.574h141.113v173.93H.855z"/></clipPath></defs></svg>