<svg xmlns="http://www.w3.org/2000/svg" width="142" height="174" fill="none" viewBox="0 0 142 174"><g fill="#000" clip-path="url(#a)"><path d="M140.732 92.47c.181 16.278.424 32.56.508 48.841.03 5.945-.426 11.891-.472 17.839-.065 8.37-6.612 13.414-14.194 13.568-15.377.314-30.76.686-46.14.608-18.304-.095-36.606-.568-54.905-1.038a111 111 0 0 1-12.712-1.363c-5.132-.728-10.177-6.629-10.362-12.221-.465-14.135-1-28.271-1.155-42.412-.343-31.11-.41-62.22-.742-93.327-.051-4.78.07-9.408 2.046-13.829 1.48-3.308 3.6-5.985 7.267-6.974a18 18 0 0 1 3.974-.566c5.721-.226 11.456-.216 17.165-.591C52.457-.4 73.902.677 95.348.855a15.17 15.17 0 0 1 11.074 4.506c6.832 6.491 14.155 12.465 21.24 18.693 2.614 2.297 5.025 4.831 7.712 7.033 3.071 2.518 4.003 5.731 4.058 9.517.233 16.057.558 32.112.844 48.167.022 1.234 0 2.468 0 3.703zM93.424 9.254c-1.944-.159-3.599-.387-5.257-.415q-21.217-.36-42.434-.652c-6.394-.088-12.79-.124-19.184-.163-3.25-.02-6.506-.123-9.747.042-4.633.236-5.993 1.58-6.826 6.273a43.1 43.1 0 0 0-.481 12.732c.22 1.782.335 3.577.344 5.373q.114 60.12.188 120.236-.06 1.517.112 3.024c.808 5.12 3.507 8.226 9.093 8.451 21.663.875 43.328.871 65 .505 10.888-.185 21.778-.279 32.668-.403 2.691-.031 5.388.071 8.073-.056 4.838-.229 7.096-2.56 7.051-7.454-.078-8.524-.298-17.047-.471-25.571-.102-4.938-.187-9.877-.351-14.813-.366-10.993-.952-21.982-1.123-32.978-.186-12.01 0-24.022.011-36.037 0-.866-.079-1.733-.123-2.63a6.6 6.6 0 0 0-1.128-.204c-6.846.137-13.692.354-20.539.394a26.3 26.3 0 0 1-6.328-.722c-4.246-1.033-5.55-2.663-6.044-6.97-.14-1.226-.147-2.466-.263-3.695-.721-7.919-1.46-15.844-2.241-24.267m31.406 26.364.139-.711-22.228-20.168-.512.335 3.306 21.71z"/><path d="M108 128.48c-3.587-3.255-6.96-6.333-10.353-9.386-1.247-1.124-2.564-2.174-3.802-3.309a9.8 9.8 0 0 1-1.527-1.782c-1.188-1.792-1.127-3.727.082-4.937a3.67 3.67 0 0 1 4.917-.082c3.793 2.967 7.545 5.993 11.191 9.137 2.287 1.974 4.346 4.212 6.519 6.32 3.043 2.953 3.262 5.447.111 8.315-5.054 4.599-10.35 8.927-15.567 13.347a34 34 0 0 1-3.74 2.85c-2.144 1.356-4.464 1.041-5.723-.62-1.247-1.649-.825-3.922 1.194-5.624 4.373-3.684 8.806-7.296 13.189-10.965 1.098-.925 2.103-1.95 3.509-3.264m-74.726.301c5.023 2.917 9.666 5.608 14.301 8.309a25 25 0 0 1 3.135 1.932c1.494 1.204 1.853 2.661 1.258 4.166-.67 1.694-2.027 2.517-4.03 2.256a7.3 7.3 0 0 1-2.53-.818c-6.263-3.479-12.544-6.923-18.721-10.547-3.236-1.898-3.555-4.726-1.152-7.614.499-.599 1.106-1.107 1.658-1.663 5.525-5.562 11.071-11.1 16.558-16.699 1.931-1.969 3.526-2.522 4.878-1.405 1.372 1.132 1.472 2.948-.307 5.098-3.712 4.485-7.634 8.797-11.486 13.165-1.03 1.165-2.121 2.278-3.562 3.82m46.55-25.544c2.94-.609 4.065.039 4.07 2.642a32 32 0 0 1-.733 5.986c-1.584 8.276-4.422 16.172-7.45 24.002-1.17 3.027-2.261 6.096-3.67 9.011a11.4 11.4 0 0 1-3.117 3.754c-1.1.883-2.614.656-3.74-.28a3.15 3.15 0 0 1-1.07-3.632 36 36 0 0 1 1.904-4.284c5.275-10.283 9.79-20.858 12.412-32.16.328-1.417.633-2.84.968-4.255q.172-.414.426-.784"/></g><defs><clipPath id="a"><path fill="#fff" d="M.349.01h141.113v173.93H.349z"/></clipPath></defs></svg>