<svg xmlns="http://www.w3.org/2000/svg" width="142" height="175" fill="none" viewBox="0 0 142 175"><g fill="#000" clip-path="url(#a)"><path d="M140.801 92.626c.179 16.504.419 33.008.506 49.512.03 5.834-.427 11.668-.46 17.503-.049 8.368-6.531 13.455-14.142 13.62-15.602.334-31.21.698-46.812.62-18.079-.089-36.157-.571-54.23-1.043-4.26-.217-8.505-.67-12.714-1.359-5.133-.711-10.221-6.585-10.41-12.174-.474-14.134-1.005-28.271-1.161-42.411-.342-31.11-.41-62.221-.74-93.328C.587 18.79.69 14.158 2.663 9.733 4.137 6.426 6.231 3.727 9.9 2.73a18 18 0 0 1 3.97-.585c5.72-.229 11.453-.247 17.165-.586C50.797.384 70.555.812 90.317 1.473c2.804.094 5.612.235 8.414.163a7.62 7.62 0 0 1 5.448 2.236c10.162 9.017 20.252 18.115 30.523 27.008 3.544 3.07 4.783 6.636 4.83 11.224.174 16.842.638 33.682.993 50.522zm-10.625-47.384a12 12 0 0 0-1.345-.178c-6.957.138-13.914.328-20.876.403a23.4 23.4 0 0 1-5.004-.53c-5.15-1.08-6.574-2.716-7.027-7.924-.59-6.817-1.123-13.64-1.726-20.457-.197-2.207-.531-4.398-.817-6.715-1.34-.131-2.442-.321-3.545-.342q-22.053-.405-44.113-.764c-6.506-.102-13.013-.15-19.52-.187-3.249-.019-6.508-.112-9.745.103-4.172.277-5.533 1.536-6.3 5.654a45 45 0 0 0-.718 12.058c.334 4.021.482 8.067.51 12.102q.136 19.871.12 39.743.03 37.72.043 75.441c-.05 1.569.149 3.136.59 4.642 1.668 4.956 4.024 6.118 7.68 6.297 2.242.109 4.488.191 6.733.206 19.982.136 39.964.317 59.946.353 10.89.019 21.78-.219 32.67-.336 2.579-.028 5.165.072 7.737-.076 4.256-.244 6.656-2.679 6.614-6.852-.048-4.595-.394-9.189-.506-13.784-.266-10.994-.258-21.999-.743-32.982-.93-21.1-.775-42.203-.663-63.307.008-.778.005-1.555.005-2.568m-28.017-30.564 3.471 22.676 20.103-1.268z"/><path d="M44.747 122.501c-.902 2.255-1.517 4.05-2.324 5.755-2.153 4.547-5.83 5.115-9.33 1.491-1.636-1.693-3.238-3.418-4.866-5.119-.053-.056-.216-.007-.609-.007 0 1.055.004 2.117 0 3.179-.018 3.927 0 7.854-.092 11.779a6.9 6.9 0 0 1-.671 2.567 3.17 3.17 0 0 1-3.278 1.888 3.374 3.374 0 0 1-3.326-2.373 7.7 7.7 0 0 1-.435-2.308c-.102-5.827-.193-11.655-.197-17.483.002-1.685.163-3.365.481-5.019a7.6 7.6 0 0 1 1.267-3.025c1.368-1.856 2.643-2.265 4.649-1.107 2.698 1.557 5.208 3.446 7.75 5.262q1.37 1.109 2.599 2.37c1.505-2.879 2.869-5.542 4.286-8.177a20 20 0 0 1 1.946-3.138c2.31-2.864 5.882-2.786 7.933.249a13.8 13.8 0 0 1 1.915 4.266c1.811 7.164 3.602 14.337 5.139 21.563a11.7 11.7 0 0 1-.46 5.59c-.88 2.882-4.035 3.734-6.132 1.575a13 13 0 0 1-3.126-5.405c-1.242-4.53-2.026-9.181-3.119-14.373m55.126-1.084h5.699q.264-2.308.756-4.579c.582-2.203 2.039-3.383 3.971-3.503 2.096-.131 3.651.984 4.49 3.285.241.624.395 1.276.46 1.941.443 5.806.933 11.61 1.223 17.424a26 26 0 0 1-.567 5.968c-.348 1.879-1.868 2.827-3.622 3.024a3.85 3.85 0 0 1-4.134-2.293 27.3 27.3 0 0 1-1.648-5.422c-.404-1.951-.53-3.96-.822-6.295h-7.04a20.6 20.6 0 0 1-3.348-.027c-3.17-.529-4.91-3.15-3.905-6.148a62.4 62.4 0 0 0 2.815-14.459c.178-2.019 1.223-3.161 2.761-3.258 1.502-.096 2.852.908 3.191 2.869.274 1.879.364 3.781.269 5.677-.041 1.777-.325 3.548-.55 5.796m-27.795 11.031c-.197 2.83-.263 5.293-.578 7.723-.288 2.222-1.611 3.534-3.297 3.676-1.785.154-3.348-1.116-3.897-3.447a17.7 17.7 0 0 1-.47-4.327c.139-7.513.363-15.023.559-22.534.049-1.893.393-3.573 2.564-4.223a4.3 4.3 0 0 0 1.316-1.019c3.854-3.322 8.091-3.61 12.508-1.384 3.942 1.986 6.313 6.931 5.807 11.664-.62 5.794-5.759 11.682-11.52 13.182-.963.255-1.944.45-2.992.689m-.651-8.138a10.48 10.48 0 0 0 6.483-3.795c2.049-2.509 2.15-5.559.328-7.635-1.788-2.034-4.492-2.091-7.268-.262 0 2.878-.035 5.644.019 8.407q.13 1.653.438 3.283z"/></g><defs><clipPath id="a"><path fill="#fff" d="M.005.574h141.769v173.93H.004z"/></clipPath></defs></svg>