<svg xmlns="http://www.w3.org/2000/svg" width="142" height="175" fill="none" viewBox="0 0 142 175"><g fill="#000" clip-path="url(#a)"><path d="M141.02 93.076c.18 16.277.425 32.56.508 48.84.031 5.945-.426 11.892-.471 17.839-.062 8.365-6.591 13.422-14.183 13.579-15.265.315-30.536.684-45.801.601-18.528-.1-37.055-.578-55.578-1.05-4.149-.21-8.281-.658-12.377-1.344-5.132-.731-10.185-6.621-10.37-12.213-.468-14.134-1.003-28.272-1.158-42.411-.343-31.11-.41-62.22-.742-93.331-.05-4.78.066-9.409 2.044-13.83 1.477-3.307 3.593-5.99 7.26-6.98 1.3-.336 2.632-.528 3.973-.57 5.721-.227 11.453-.244 17.166-.584C51.053.446 70.81.88 90.573 1.538c2.805.093 5.612.224 8.414.165a7.28 7.28 0 0 1 5.177 2.045q13.856 12.3 27.698 24.612c1.342 1.194 2.608 2.483 4.023 3.583 2.945 2.289 3.775 5.401 3.831 8.922.205 13.137.466 26.272.668 39.408.065 4.266.01 8.532.01 12.799zM93.713 9.871c-1.938-.159-3.594-.388-5.25-.417q-21.218-.36-42.434-.652c-6.395-.088-12.79-.124-19.185-.163-3.248-.02-6.504-.123-9.746.042-4.635.235-5.998 1.579-6.826 6.268a43 43 0 0 0-.483 12.734c.22 1.782.335 3.576.345 5.372q.112 60.12.187 120.237c-.04 1.009-.003 2.02.111 3.024.806 5.12 3.504 8.23 9.09 8.455 21.664.874 43.328.87 64.999.505 11.001-.186 22.004-.276 33.006-.401 2.691-.03 5.39.076 8.073-.069 4.42-.238 6.756-2.661 6.707-7.102-.055-4.932-.42-9.861-.502-14.793-.096-5.724.099-11.455-.066-17.176-.404-14.249-1.099-28.49-1.371-42.74-.222-11.671 0-23.35.011-35.027 0-.942-.114-1.884-.148-2.403-7.496 0-14.566.054-21.634-.032a28.5 28.5 0 0 1-6.329-.722c-4.248-1.033-5.554-2.661-6.048-6.968-.14-1.224-.148-2.465-.262-3.694-.725-7.928-1.461-15.854-2.245-24.278m12.098 27.516c5.458-.31 10.602-.596 15.746-.898 1.211-.071 2.419-.197 4.359-.361l-22.863-20.75-.519.38z"/><path d="M111.037 128.213c-.208-2.816-1.904-3.568-3.52-4.339-.802-.383-1.73-.502-2.539-.875a3.64 3.64 0 0 1-2.318-3.724 3.586 3.586 0 0 1 3.157-3.036c2.207-.397 4.43-.704 6.65-1.026 1.777-.258 3.458.074 4.514 1.593 1.107 1.592.656 3.191-.571 4.605a2.6 2.6 0 0 0-.289.647q.144.461.34.903c2.76 5.489.44 10.864-5.937 12.937-9.906 3.22-22.082-2.526-21.439-15.818.406-8.352 4.32-14.985 11.683-19.296a17.3 17.3 0 0 1 4.035-1.627 3.26 3.26 0 0 1 3.76.974c.292.361.503.78.62 1.229.272 1.017-.489 1.71-1.559 2.226a26.3 26.3 0 0 0-5.435 3.265 17.83 17.83 0 0 0-6.49 12.864c-.517 7.305 5.759 12.278 12.525 10.026a17.4 17.4 0 0 0 2.813-1.528m-37.91-2.607c1.42-5.439 2.626-10.077 3.84-14.711.542-2.061 1.057-4.13 1.684-6.165a19 19 0 0 1 1.41-3.406c.754-1.399 1.964-2.191 3.623-1.812 1.72.394 2.257 1.735 2.27 3.306a13 13 0 0 1-.268 3.347 2696 2696 0 0 1-6.767 25.701 15 15 0 0 1-1.241 3.12c-1.641 3.081-4.944 3.463-7.105.734a28 28 0 0 1-3.227-5.116 1165 1165 0 0 1-10.21-21.593 18.6 18.6 0 0 1-1.283-4.511c-.249-1.394.119-2.708 1.571-3.388 1.26-.591 2.739-.119 3.823 1.309a16.4 16.4 0 0 1 1.517 2.614 6183 6183 0 0 1 9.133 18.384c.242.487.533.951 1.23 2.187M44.99 103.998c-5.58.435-8.016 2.511-8.699 7.581.962.464 2.025 1.001 3.108 1.495 2.039.93 4.135 1.747 6.123 2.775a14.06 14.06 0 0 1 5.833 5.44c3.85 6.609-.085 14.475-7.698 15.331-4.397.495-8.146-1.115-11.54-3.732a2.5 2.5 0 0 1-1.022-1.285c-.15-.926-.358-2.141.098-2.78s1.674-.864 2.593-.974c.598-.072 1.252.415 1.894.607q2.23.755 4.523 1.282c2.932.563 5.316-.345 6.202-2.194.84-1.756-.235-4.201-2.764-5.897a27.5 27.5 0 0 0-3.852-2.034c-1.73-.798-3.554-1.398-5.246-2.263-4.053-2.074-5.36-5.746-3.531-9.905 1.444-3.281 3.615-6.049 7.018-7.356a11.7 11.7 0 0 1 5.524-.644c2.458.328 2.87 1.942 1.435 4.553"/></g><defs><clipPath id="a"><path fill="#fff" d="M.706.574H141.82v173.93H.706z"/></clipPath></defs></svg>