<svg xmlns="http://www.w3.org/2000/svg" width="142" height="190" fill="none" viewBox="0 0 142 190"><g clip-path="url(#a)"><path fill="#000" d="M25.456 17.31c.346-1.136.562-1.877.797-2.613a20.56 20.56 0 0 1 24.97-13.434c3.265.919 5.903 2.735 7.418 5.88 1.45 3.019 2.84 6.06 4.297 9.18q.623.129 1.257.177 15.323.329 30.645.631c.673.014 1.35.044 2.02 0 4.103-.255 7.119 1.55 10.1 4.32 6.983 6.49 14.332 12.585 21.493 18.884 2.694 2.37 5.185 4.98 7.942 7.268 2.773 2.297 3.656 5.24 3.723 8.628.192 9.754.37 19.51.611 29.262.369 14.913.934 29.822 1.131 44.736.146 11.096-.157 22.198-.269 33.298-.039 3.925-.14 7.85-.148 11.775-.019 8.428-6.765 13.355-14.228 13.496-15.147.285-30.298.672-45.445.591-18.633-.102-37.264-.574-55.892-1.041a106 106 0 0 1-12.371-1.344c-5.129-.736-10.169-6.626-10.353-12.209-.466-14.117-1.001-28.236-1.156-42.358-.342-31.07-.41-62.142-.74-93.212-.051-4.77.065-9.39 2.018-13.817 1.52-3.442 3.774-6.124 7.543-7.128a20 20 0 0 1 3.992-.483c3.463-.195 6.932-.323 10.645-.488m-.702 6.925c-2.498 0-4.713-.088-6.92.017-4.9.234-6.319 1.514-7.16 6.297a43.7 43.7 0 0 0-.525 12.394c.266 2.453.401 4.92.404 7.387q.102 59.418.156 118.835-.033 1.179.091 2.353c.681 5.105 3.376 8.503 9.185 8.73 21.672.857 43.344.86 65.022.491 10.896-.186 21.791-.275 32.682-.398 2.691-.031 5.39.072 8.076-.059 4.668-.227 6.995-2.585 6.945-7.208-.055-5.155-.413-10.305-.503-15.461-.096-5.497.094-10.999-.066-16.494-.408-14.242-1.101-28.476-1.371-42.72-.222-11.666.003-23.34.016-35.011 0-.853-.12-1.706-.184-2.565q-.604-.09-1.212-.12c-6.961.137-13.923.413-20.883.357a31 31 0 0 1-7.56-1.322c-2.516-.668-3.88-2.538-4.163-5.15-.085-.78-.209-1.557-.275-2.34-.577-6.815-1.123-13.634-1.73-20.448-.186-2.088-.53-4.162-.85-6.602l-29.876-.68c0 1.263.01 2.136 0 3.01-.058 4.594.066 9.204-.233 13.785a37.5 37.5 0 0 1-3.931 14.506c-1.596 3.17-4.015 5.381-7.704 5.84-4.88.614-9.275-1.464-11.572-5.83a25.8 25.8 0 0 1-2.306-6.61c-1.212-5.702-.328-11.389.603-17.041a8.4 8.4 0 0 1 1.022-2.815 3.94 3.94 0 0 1 4.297-1.976 3.7 3.7 0 0 1 3.225 3.028c.176 1.21.204 2.435.082 3.65-.154 4.36-.427 8.718-.47 13.08a11 11 0 0 0 .93 3.878c.509 1.321 1.538 1.872 3.173 1.066 3.658-8.77 2.723-18.086 2.74-27.28-3.675-.76-17.606-.464-20.27.393-.675 7.895-1.293 15.83-2.06 23.75a93 93 0 0 1-1.51 9.967c-.494 2.363-2.294 3.658-3.972 3.365-1.657-.29-2.64-1.707-2.704-4.115-.04-1.567.07-3.14.135-4.709.402-9.627.808-19.26 1.226-29.225m100.763 27.574.143-.715-22.224-20.145-.513.335 3.305 21.69zM52.49 16.405c-.743-1.897-1.258-3.488-1.991-4.97a4.26 4.26 0 0 0-1.746-1.899c-5.427-2.598-12.778 1.218-14.176 7.483z"/></g><defs><clipPath id="a"><path fill="#fff" d="M.855.259h141.113V189.94H.855z"/></clipPath></defs></svg>