<svg xmlns="http://www.w3.org/2000/svg" width="142" height="174" fill="none" viewBox="0 0 142 174"><g fill="#000" clip-path="url(#a)"><path d="M140.569 100.113c.114 13.686.293 27.37.31 41.058.007 5.942-.445 11.88-.468 17.826-.031 8.41-6.432 13.53-14.045 13.704-16.163.368-32.332.716-48.496.643-17.518-.078-35.035-.571-52.547-1.054-4.373-.202-8.73-.671-13.047-1.402-4.97-.746-9.864-6.625-10.184-12.021-.246-4.138-.46-8.283-.516-12.426Q1.14 115.474.798 84.507.418 51.855.09 19.2A23.4 23.4 0 0 1 3.269 7.32a10.34 10.34 0 0 1 9.046-5.532c6.393-.272 12.804-.238 19.185-.666C52.61-.292 73.718.853 94.827.98a15.5 15.5 0 0 1 11.361 4.634c6.826 6.49 14.158 12.451 21.245 18.673 2.613 2.297 5.03 4.817 7.702 7.037 2.837 2.359 3.872 5.342 3.928 8.885q.271 17.163.626 34.326.25 12.79.538 25.579zM93.055 9.445c-1.357-.147-2.244-.312-3.134-.328q-22.392-.415-44.785-.793c-6.394-.103-12.79-.142-19.184-.182-3.249-.02-6.507-.119-9.746.072-4.341.255-5.9 1.525-6.468 5.818a98 98 0 0 0-.653 12.042c-.03 3.693.389 7.39.418 11.085.083 10.32.077 20.641.086 30.961q.035 42.57.08 85.138a17.7 17.7 0 0 0 .613 4.64c1.106 3.991 3.363 5.812 7.471 6.12 2.35.176 4.712.224 7.07.238 20.205.124 40.411.28 60.617.313 10.778.018 21.556-.191 32.334-.296 2.355-.023 4.715.056 7.063-.073 4.473-.244 6.859-2.626 6.811-6.998-.059-5.378-.407-10.751-.502-16.128-.096-5.495.096-10.997-.073-16.488-.385-12.555-1.116-25.101-1.329-37.658-.228-13.232-.018-26.472-.015-39.708a21 21 0 0 0-.181-2.17c-7.38 0-14.443.052-21.503-.031a29 29 0 0 1-6.333-.699c-4.377-1.039-5.724-2.7-6.17-7.22-.386-3.903-.65-7.82-1-11.727-.474-5.228-.975-10.452-1.487-15.928M125.31 35.66l-22.906-20.768-.542.394 3.319 21.615z"/><path d="M64.217 149.244c-7.03.174-18.034.5-29.04.687a75 75 0 0 1-10.739-.448c-3.957-.508-4.895-1.957-4.872-5.843.106-17.727.16-35.455.295-53.183.03-3.922.375-7.84.453-11.764.046-2.357 1.134-3.96 3.318-4.466 3.15-.73 6.367-1.497 9.576-1.61 16.273-.58 32.55-1.13 48.832-1.333 10.89-.136 21.787.328 32.681.525a30 30 0 0 1 2.02.084c4.931.411 4.942.59 6.463 5.347 1.666 5.205 2.119 10.574 2.319 15.933a315 315 0 0 1-1.772 49.742c-.401 3.3-1.735 4.868-5.059 5.255-4.229.564-8.484.906-12.749 1.024-12.582.134-25.165.05-41.726.05m16.737-30.645c3.861-3.927 7.945-7.935 11.853-12.107 2.644-2.823 5.552-3.512 9.116-2.082a36.8 36.8 0 0 1 12.198 7.613c.741.722 1.536 1.388 2.773 2.5.657-12.383 1.067-23.993.285-35.584a6.5 6.5 0 0 0-1.247-.317c-8.532-.02-17.07-.059-25.603-.025q-29.652.114-59.304.313a54 54 0 0 0-5.672.656c.182 9.714 1.291 19.17 1.559 28.659.262 9.435.495 18.87.755 28.863 2.488-3.391 4.685-6.343 6.838-9.324 6.186-8.69 12.89-17 20.073-24.883 2.691-2.91 5.046-3.253 8.31-1.024a37 37 0 0 1 4.372 3.676c4.574 4.315 9.1 8.676 13.694 13.066m-49.47 24.566c2.064 0 3.407.065 4.742-.012 5.368-.317 10.728-.822 16.1-.993 10.417-.332 20.84-.481 31.26-.721 1.25-.028 2.5-.132 4.173-.224-8.653-11.895-18.225-22.112-28.805-32.148zm84.839-2.254c.25-.505.44-1.039.564-1.589-.112-4.135-.197-8.266-.445-12.39a3.85 3.85 0 0 0-1.221-2.245c-3.068-2.941-6.133-5.898-9.377-8.64a19 19 0 0 0-8.042-3.949l-13.134 11.823 12.602 16.99z"/><path d="M87.718 95.245c.003 2.985-2.77 5.632-5.932 5.663-3.114.03-6.291-2.678-6.235-5.312.066-2.954 3.423-6.205 6.406-6.198a6.073 6.073 0 0 1 5.76 5.847"/></g><defs><clipPath id="a"><path fill="#fff" d="M.081.01h141.113v173.93H.081z"/></clipPath></defs></svg>