<svg xmlns="http://www.w3.org/2000/svg" width="142" height="175" fill="none" viewBox="0 0 142 175"><g fill="#000" clip-path="url(#a)"><path d="M140.545 93.269c.18 16.28.423 32.559.506 48.839.03 5.946-.423 11.893-.473 17.84-.069 8.38-6.655 13.399-14.212 13.55-15.265.304-30.535.679-45.8.599-18.417-.096-36.832-.564-55.243-1.033a110 110 0 0 1-12.713-1.365c-5.13-.734-10.16-6.647-10.342-12.237-.46-14.135-.999-28.273-1.154-42.412C.772 85.94.704 54.83.37 23.722c-.05-4.78.066-9.413 2.06-13.825C3.807 6.84 5.688 4.2 9.074 3.17a19 19 0 0 1 4.606-.787c5.719-.254 11.452-.253 17.165-.59C50.607.61 70.366 1.054 90.128 1.71c2.804.093 5.612.222 8.414.164a7.28 7.28 0 0 1 5.17 2.065q13.854 12.3 27.693 24.616c1.342 1.194 2.607 2.485 4.023 3.582 2.953 2.29 3.752 5.417 3.807 8.932.213 13.474.476 26.946.686 40.42.062 3.927.01 7.858.01 11.787zm-47.31-83.244c-1.954-.158-3.61-.383-5.269-.412q-21.217-.359-42.433-.65c-6.395-.09-12.79-.126-19.185-.165-3.248-.02-6.504-.124-9.745.042-4.629.239-5.989 1.584-6.815 6.283a43.6 43.6 0 0 0-.52 12.4 66 66 0 0 1 .398 7.054q.104 59.614.161 119.226-.045 1.349.122 2.688c.823 5.124 3.518 8.216 9.105 8.441 21.664.874 43.328.87 65 .503 10.888-.184 21.779-.277 32.669-.402 2.691-.03 5.388.072 8.073-.056 4.831-.23 7.088-2.56 7.04-7.463-.078-8.525-.298-17.048-.471-25.571-.101-4.938-.186-9.877-.352-14.814-.364-10.88-.953-21.758-1.119-32.641-.186-12.122-.004-24.25.009-36.374 0-.866-.082-1.732-.127-2.626a7 7 0 0 0-1.135-.197c-6.847.138-13.692.346-20.539.401a26.2 26.2 0 0 1-6.001-.648c-4.558-1.042-5.945-2.712-6.401-7.39-.371-3.795-.633-7.602-.972-11.402-.466-5.244-.961-10.488-1.493-16.227m12.1 27.55 20.135-1.253-23.553-21.4 3.42 22.656z"/><path d="M37.156 72.879c.209 1.386.49 2.705.582 4.038a9.1 9.1 0 0 1-.21 2.96 3.5 3.5 0 0 1-3.413 2.711 3.77 3.77 0 0 1-3.376-2.842 15.7 15.7 0 0 1-.252-3.003c-.039-.992-.008-1.987-.008-3.142-1.416-.318-2.73-.525-3.99-.919a31.7 31.7 0 0 1-5.03-1.838c-1.941-.984-2.64-2.814-2.049-4.47.539-1.51 2.057-2.34 4.128-2.15 1.9.173 3.788.554 5.688.617a21.8 21.8 0 0 0 4.998-.378 8.4 8.4 0 0 0 2.976-1.477 3.16 3.16 0 0 0 1.395-3.526 3.04 3.04 0 0 0-2.656-2.27 12 12 0 0 0-3.003-.115c-1.454.104-2.894.417-4.348.517-5.154.353-8.971-3.185-8.753-8.355.214-5.101 2.487-9.015 7.372-11.104.613-.263 1.24-.497 1.982-.793.207-1.378.416-2.804.635-4.227.21-1.366.9-2.29 2.357-2.44a2.763 2.763 0 0 1 3.13 2.001q.617 2.251.982 4.555c4.762 2.13 5.175 2.772 3.75 6.408a25 25 0 0 0-2.757-.294c-1.994-.007-4.056-.218-5.968.207-3.498.776-4.722 2.94-4.266 7.187.788 0 1.62.039 2.45-.007 2.235-.125 4.479-.496 6.7-.388 4.632.227 8.716 3.309 9.962 7.333 1.422 4.594-.01 8.442-3.487 11.506-1.57 1.383-3.496 2.364-5.52 3.698m29.317 46.164q17.182 0 34.363.016c1.345-.03 2.688.097 4.004.379 1.747.425 2.76 1.738 2.575 3.07a3.026 3.026 0 0 1-2.625 2.701 26.5 26.5 0 0 1-4.674.543q-32.177.059-64.353.022c-1.904 0-3.812-.202-5.71-.386-.768-.075-1.698-.143-2.226-.596-.695-.595-1.502-1.596-1.451-2.369.05-.755 1.007-1.619 1.772-2.1.597-.376 1.514-.309 2.291-.324q18.018-.332 36.033-.632zm-41.522-9.683c-.669-2.499.066-3.485 1.898-3.672 2.676-.275 5.35-.591 8.034-.747 21.056-1.207 42.117-2.227 63.217-2.061 2.24.011 4.476.203 6.685.573 2.08.358 2.969 1.563 2.795 3.141-.168 1.523-1.383 2.534-3.353 2.669-1.116.076-2.243 0-3.365.01q-35.854.226-71.707.439c-1.403.007-2.808-.23-4.204-.352m.638-15.934c-.201-2.852-.07-3.067 1.828-3.343a9 9 0 0 1 1.008-.054c8.749-.237 17.498-.454 26.245-.713 14.02-.416 28.04-.879 42.062-1.274 2.351-.066 4.711.077 7.064.173a2.674 2.674 0 0 1 2.803 2.399c.188 1.224-.807 2.302-2.518 2.65-1.106.191-2.226.28-3.348.262-9.092.1-18.185.131-27.277.268-11.223.166-22.442.446-33.665.603-3.478.048-6.957-.092-10.43-.256a27.5 27.5 0 0 1-3.773-.715m15.125 50.23c-2.92 0-5.841.014-8.761-.009-.786.016-1.57-.055-2.34-.214-1.353-.324-2.318-1.326-2.08-2.64.17-.934 1.082-1.837 1.867-2.517.43-.375 1.28-.314 1.948-.364 5.706-.435 11.412-.871 17.123-1.255a24 24 0 0 1 4.033.059 2.8 2.8 0 0 1 2.547 2.339c.332 1.466-.066 2.813-1.402 3.47-1.2.59-2.506.936-3.84 1.016-3.026.145-6.062.047-9.094.047z"/></g><defs><clipPath id="a"><path fill="#fff" d="M.363.574h141.113v173.93H.363z"/></clipPath></defs></svg>