<svg xmlns="http://www.w3.org/2000/svg" width="142" height="175" fill="none" viewBox="0 0 142 175"><g fill="#000" clip-path="url(#a)"><path d="M140.752 92.915c.179 16.504.42 33.008.506 49.513.031 5.833-.427 11.667-.459 17.502-.046 8.37-6.514 13.468-14.13 13.632-15.602.338-31.21.699-46.812.621-18.078-.09-36.157-.566-54.23-1.044a103 103 0 0 1-13.046-1.416c-4.962-.773-9.834-6.703-10.099-12.102-.262-5.378-.475-10.76-.545-16.142a28667 28667 0 0 1-.878-75.128C.9 53.64.837 38.928.612 24.218c-.066-4.17-.367-8.353 1.32-12.268A25.6 25.6 0 0 1 5.58 5.597c1.864-2.22 4.614-3.061 7.554-3.142 6.06-.166 12.13-.205 18.176-.605 21.335-1.41 42.666-.308 64-.15 4.538.034 7.988 1.517 11.335 4.698 6.832 6.492 14.164 12.456 21.248 18.685 2.697 2.371 5.199 4.967 7.936 7.286 2.525 2.14 3.505 4.833 3.6 8.003.167 5.611.433 11.22.512 16.832.166 11.904.239 23.809.351 35.713zM93.45 10.102c-1.939-.158-3.595-.387-5.254-.416q-21.218-.358-42.434-.652c-6.394-.089-12.79-.124-19.184-.163-3.25-.02-6.505-.123-9.746.042-4.635.236-5.997 1.58-6.826 6.27a43.1 43.1 0 0 0-.483 12.733c.22 1.782.336 3.576.346 5.372q.111 60.12.187 120.236a20 20 0 0 0 .111 3.024c.806 5.12 3.505 8.229 9.09 8.455 21.664.874 43.329.869 65 .504 11.001-.185 22.004-.275 33.006-.401 2.691-.031 5.389.076 8.073-.065 4.419-.239 6.755-2.662 6.705-7.103-.053-4.932-.418-9.862-.501-14.794-.096-5.724.098-11.454-.066-17.175-.403-14.249-1.098-28.49-1.37-42.74-.223-11.672 0-23.35.01-35.027 0-.941-.114-1.883-.155-2.503-3.898 0-7.373-.013-10.849.004-3.593.017-7.189.153-10.778.066a30 30 0 0 1-6.33-.722c-4.248-1.033-5.552-2.663-6.047-6.969-.14-1.225-.147-2.465-.262-3.694-.723-7.931-1.462-15.858-2.243-24.282m12.103 27.544 19.362-1.193.295-.652c-7.662-6.52-14.864-13.55-22.939-19.795 1.073 7.068 2.144 14.137 3.282 21.64"/><path d="m64.558 110.884 19.444-18.51a17 17 0 0 0-2.177-.247c-14.813.544-29.628 1.075-44.439 1.692-3.36.14-6.705.644-10.064.868a18 18 0 0 1-3.989-.244 2.12 2.12 0 0 1-1.478-.765 2.1 2.1 0 0 1-.465-1.598 4.5 4.5 0 0 1 1.335-2.827 7 7 0 0 1 3.462-1.09c10.505-.94 21.003-2.002 31.53-2.625 9.411-.556 18.853-.61 28.282-.861 2.015-.054 4.033-.008 6.498-.008 3.18-3.15 6.585-6.564 10.042-9.924 2.257-2.197 3.648-2.475 5.996-1.151a7.3 7.3 0 0 1 1.934 1.822c2.32 2.887 4.595 5.808 6.877 8.729 2.741 3.51 2.363 5.895-1.008 8.972-6.202 5.662-12.29 11.447-19.014 17.732 5.528-.204 10.154-.384 14.781-.537a15.6 15.6 0 0 1 2.68.099 2.806 2.806 0 0 1 2.582 2.674c.174 1.501-.413 2.848-1.82 3.255-1.932.558-3.924.88-5.933.956-6.276.23-12.56.296-19.224.432-4.138 4.382-8.305 8.907-12.622 13.283a11 11 0 0 1-3.944 2.413c-3.362 1.247-6.94 1.963-10.203 3.41-5.227 2.319-10.662 2.197-16.156 2.254-6.4.066-12.799.376-19.196.514-1.346.04-2.69-.09-4.004-.386a2.7 2.7 0 0 1-2.278-2.917 2.85 2.85 0 0 1 2.444-2.822 18 18 0 0 1 3.348-.225c9.429-.238 18.858-.455 28.288-.704.876-.023 1.748-.218 2.761-.351 1.12-4.599 1.116-9.152 1.09-14.193h-3.742c-9.324.018-18.647.066-27.97.027a16.5 16.5 0 0 1-4.266-.677 2.45 2.45 0 0 1-1.813-2.861 2.33 2.33 0 0 1 .696-1.503 2.33 2.33 0 0 1 1.519-.656 40 40 0 0 1 4.67-.591q13.8-.483 27.606-.848c2.679-.074 5.369-.011 7.94-.011m30.705-21.637c-9.606 9.195-19.512 17.499-28.63 26.902l10.116 8.073c8.574-8.853 16.943-17.495 25.359-26.188zm5.42-3.83 7.323 6.856 4.362-4.092-6.425-9.132zm-36.36 34.998c.077 3.376-.601 6.144.176 8.912 3.795-.577 4.988-1.017 6.845-2.53zm5.672-50.385c-9.534.46-19.064.99-28.6 1.362-5.16.201-10.332.14-15.498.182a6.7 6.7 0 0 1-1.67-.17 2.67 2.67 0 0 1-2.218-2.606 2.725 2.725 0 0 1 2.363-2.83 13 13 0 0 1 2.01-.155c13.221-.807 26.44-1.665 39.665-2.398 7.399-.409 14.81-.59 22.214-.912 7.292-.319 14.58-.71 21.871-1.018a41 41 0 0 1 6.381.049c2.391.272 3.522 1.556 3.501 3.365-.021 1.844-1.141 2.954-3.564 3.255-2.339.292-4.695.51-7.05.596q-19.696.722-39.397 1.367z"/></g><defs><clipPath id="a"><path fill="#fff" d="M.408.574H141.52v173.93H.408z"/></clipPath></defs></svg>