<svg xmlns="http://www.w3.org/2000/svg" width="142" height="174" fill="none" viewBox="0 0 142 174"><g fill="#000" clip-path="url(#a)"><path d="M140.776 92.26c.186 16.379.435 32.757.525 49.136.033 5.941-.422 11.881-.471 17.826-.069 8.401-6.687 13.392-14.208 13.541-15.265.301-30.536.677-45.801.598-18.416-.096-36.83-.562-55.242-1.029a110 110 0 0 1-12.713-1.365c-5.13-.733-10.163-6.636-10.347-12.223-.463-14.124-.998-28.248-1.153-42.376-.342-31.083-.41-62.17-.743-93.252-.05-4.776.078-9.4 2.053-13.816 1.48-3.306 3.615-5.957 7.275-6.967a15 15 0 0 1 3.303-.525C37.605.77 61.955-.156 86.334.993q6.221.295 12.456.28a7.46 7.46 0 0 1 5.17 2.064q13.855 12.288 27.694 24.595c1.342 1.192 2.606 2.484 4.023 3.58 2.957 2.287 3.754 5.41 3.806 8.925.212 13.35.474 26.7.682 40.05.061 3.925.009 7.852.009 11.778zM93.428 9.473c-1.95-.172-3.712-.436-5.478-.466q-21.217-.357-42.433-.634a2297 2297 0 0 0-19.184-.183c-3.25-.02-6.507-.118-9.746.079-4.32.262-5.681 1.561-6.482 5.854a43.3 43.3 0 0 0-.557 13.055c.245 2.117.368 4.247.368 6.378q.104 59.73.167 119.463a17 17 0 0 0 .154 3.019c.936 5.09 3.62 7.942 8.999 8.161 21.888.899 43.778.885 65.672.493 10.777-.197 21.555-.263 32.333-.381 2.691-.03 5.388.075 8.073-.065 4.445-.233 6.809-2.643 6.76-7.042-.051-4.816-.421-9.628-.499-14.444-.098-5.944.096-11.894-.071-17.834-.398-14.125-1.096-28.243-1.365-42.37-.222-11.662 0-23.33.011-34.997 0-.952-.103-1.904-.136-2.458-7.459 0-14.526.06-21.593-.035a31.7 31.7 0 0 1-6.658-.788c-3.529-.817-5.547-3.014-5.809-6.834-.459-6.71-1.106-13.406-1.706-20.105-.22-2.55-.525-5.091-.82-7.866m31.369 26.32.289-.671-22.931-20.804 3.436 22.616z"/><path d="M94.922 98.527c0 7.066.013 14.132-.012 21.2a11.1 11.1 0 0 1-.312 3.658c-.826 2.28-.873 4.576-.88 6.939-.008 3.728-1.69 5.163-5.465 5.108a14.8 14.8 0 0 1-7.636-2.256c-5.362-3.266-10.676-6.614-16.105-9.766-5.715-3.319-11.516-6.498-17.343-9.618a7.1 7.1 0 0 0-3.505-.663c-3.922.172-7.832.642-11.754.772-4.847.16-6.589-1.515-6.398-6.408.286-7.391.52-14.808 1.386-22.143.559-4.74 3.359-8.591 8.485-8.03 6.367.696 11.496-1.817 16.614-5.096 7.667-4.912 15.991-8.591 24.332-12.208a242 242 0 0 0 8.86-4.057c3.796-1.823 6.321-.78 7.27 3.341a46.5 46.5 0 0 1 1.039 7.646c.624 10.519 1.14 21.045 1.698 31.57zm-10.054-34.13C78.046 65.99 53.504 77.625 48.06 81.786v24.471c13.6 4.637 25.15 12.907 37.504 19.388 0-3.525.01-6.855 0-10.185-.045-14.23-.071-28.461-.17-42.692-.023-2.78-.342-5.556-.526-8.37M33.871 85.694l-.754 20.661 7.003-.663v-22.25zm88.907 10.25c-.191 9.839-2.526 18.605-7.251 26.71a12 12 0 0 1-1.784 2.414 3.54 3.54 0 0 1-4.048.753 3.06 3.06 0 0 1-1.988-3.513c.24-1.426.646-2.82 1.209-4.152 2.347-5.818 4.493-11.691 5.554-17.906 1.534-8.985-.422-17.583-2.874-26.129a3 3 0 0 0-.136-.307c-.953-2.143-1.753-4.372-4.021-5.601a2.04 2.04 0 0 1-1.084-1.25 2.03 2.03 0 0 1 .202-1.641 3.83 3.83 0 0 1 2.334-1.488 4.42 4.42 0 0 1 4.498 1.707c1.619 2.114 3.38 4.266 4.366 6.694a65.5 65.5 0 0 1 5.023 23.71"/><path d="M110.066 91.848c.146 4.923-1 9.461-2.649 13.888a12 12 0 0 1-1.575 2.935 2.75 2.75 0 0 1-3.316.931 2.46 2.46 0 0 1-1.647-2.649c.071-1.113.256-2.215.552-3.289.752-3.036 1.628-6.039 2.336-9.087 1.204-5.175.01-9.967-2.529-14.505-.49-.876-1.209-1.695-1.423-2.632-.174-.76-.025-2.043.477-2.4a3.1 3.1 0 0 1 2.719-.296 8.8 8.8 0 0 1 2.879 2.706 22.38 22.38 0 0 1 4.176 14.398"/></g><defs><clipPath id="a"><path fill="#fff" d="M.603.01h141.113v173.93H.603z"/></clipPath></defs></svg>