<svg xmlns="http://www.w3.org/2000/svg" width="78" height="125" fill="none" viewBox="0 0 78 125"><g clip-path="url(#a)"><path fill="#000" d="m44.428 77.156.758 17.265c3.15-.317 5.922-.617 8.697-.864a19.6 19.6 0 0 1 3.675-.131c1.838.186 3.145 1.177 3.466 3.113a3.74 3.74 0 0 1-2.631 4.2 16 16 0 0 1-4.302.562c-2.677.083-5.36.024-8.283.024 0 1.352-.04 2.424.007 3.493.18 4.149.459 8.295.547 12.445.007 1.449-.22 2.89-.674 4.266a3.41 3.41 0 0 1-3.553 2.555 3.49 3.49 0 0 1-3.286-2.48 13 13 0 0 1-.806-3.579c-.277-4.255-.445-8.518-.631-12.779-.048-1.101-.006-2.205-.006-3.821-1.468 0-2.65.038-3.829-.008-2.69-.102-5.398-.095-8.064-.419-2.067-.251-3.128-1.667-3.053-3.393.078-1.797 1.145-2.74 3.479-2.787 3.578-.071 7.16-.019 11.109-.019.207-5.823.405-11.376.617-17.288-1.208-.145-2.5-.356-3.802-.448C16.457 75.835 5.4 64.986 1.816 48.5a40.86 40.86 0 0 1 5.555-31.602 22 22 0 0 1 4.191-4.797A42.47 42.47 0 0 1 35.2 1.755c9.52-1.067 18.59.21 26.837 5.29 4.2 2.591 6.973 6.659 9.34 10.86 7.861 13.96 7.924 28.289 1.068 42.561-4.363 9.083-12.292 13.676-21.933 15.598-1.868.369-3.746.673-6.084 1.092M34.522 9.29c-4.413-.61-9.527 1.896-14.505 4.784a22.86 22.86 0 0 0-8.927 9.368c-5.47 10.39-4.55 20.818-.232 31.19 3.494 8.396 9.976 13.37 18.874 15.125 8.128 1.601 16.108.762 23.891-1.89 4.873-1.659 8.773-4.778 10.973-9.42 6.287-13.262 5.874-26.25-2.425-38.628a18.67 18.67 0 0 0-8.022-7.008c-5.733-2.478-11.744-3.673-19.627-3.524z"/></g><defs><clipPath id="a"><path fill="#fff" d="M.422.942H77.87v123.392H.422z"/></clipPath></defs></svg>