<svg xmlns="http://www.w3.org/2000/svg" width="135" height="136" fill="none" viewBox="0 0 135 136"><g clip-path="url(#a)"><path fill="#000" d="M124.797 45.477 99.569 70.39c1.961 3.775 4.127 7.204 5.598 10.909 5.054 12.727 4.151 25.296-1.973 37.43a26.2 26.2 0 0 1-14.863 13.017 51.46 51.46 0 0 1-30.488 1.854c-13.287-3.289-20.986-12.296-24.421-25.238-.686-2.583-1.105-5.237-1.67-7.971-1.838-.418-3.597-.745-5.312-1.216C13.374 95.58 5.81 86.733 2.377 73.94-.787 62.155.67 51.026 7.135 40.635a20 20 0 0 1 3.363-4.18A43.9 43.9 0 0 1 31.42 25.691a44.94 44.94 0 0 1 21.944.901c3.508.978 6.813 2.684 9.456 3.755l23.115-22.39c-3.437 0-6.438.023-9.438-.012a15.5 15.5 0 0 1-3.347-.279 3.031 3.031 0 0 1 0-5.89 11.5 11.5 0 0 1 2.67-.239c6.621-.15 13.243-.273 19.866-.418 3.074-.066 4.654.984 5.196 4.069.912 5.19 1.655 10.412 2.332 15.64.393 3.018-1.559 5.518-4.063 5.555-2.35.034-4.223-2.177-4.258-5.131a93 93 0 0 0-.41-9.91c-9.31 7.692-17.367 16.483-26.168 24.924 4.848 6.941 8.17 14.435 8.914 23.074 5.998 1.266 12.077 2.088 16.565 5.83l22.836-22.321a16 16 0 0 0-2.166-.38c-2.691-.09-5.393-.083-8.087-.178-3.076-.11-4.616-1.268-4.542-3.313.072-2.003 1.635-3.019 4.778-3.07 1.575-.024 3.146.029 4.719-.007 5.05-.116 10.099-.23 15.148-.394 3.289-.108 4.857.891 5.433 4.17q1.39 7.95 2.349 15.976a4.46 4.46 0 0 1-.867 3.357 4.45 4.45 0 0 1-3.015 1.714c-2.276.184-4.191-1.743-4.451-4.546a17 17 0 0 1 .094-2.013c.032-1.12.113-2.246.047-3.362-.099-1.664-.306-3.321-.468-4.981zM68.13 59.108c.101-.4.161-.81.18-1.221a28 28 0 0 0-.651-3.299c-3.24-10.643-9.009-18.61-20.835-20.893-9.451-1.826-18.428-1.707-26.823 3.675-3.666 2.35-6.727 5.185-8.73 9.12C4.774 59.272 6.52 71.569 13.93 83.204c3.943 6.192 10.234 9.153 17.773 10.09 2.886-21.3 16.001-31.734 36.427-34.186m9.136 9.114c-.273 1.344-.5 2.42-.71 3.5-2.95 15.161-10.881 25.16-27.357 27.85-3.398.556-6.83.899-10.77 1.407 1.162 3.89 1.95 7.635 3.384 11.113 3.458 8.393 9.82 13.488 18.732 15.297 8.24 1.673 16.332.838 24.222-1.875 4.867-1.673 8.747-4.832 10.927-9.481 6.229-13.286 5.829-26.293-2.56-38.628-3.665-5.394-8.953-8.324-15.868-9.183m-8.857-.991c-17.343-1.259-30.104 13.105-29.486 26.227 17.921.437 28.644-7.814 29.486-26.227"/></g><defs><clipPath id="a"><path fill="#fff" d="M.504.69h133.893v134.55H.504z"/></clipPath></defs></svg>