<svg xmlns="http://www.w3.org/2000/svg" width="102" height="147" fill="none" viewBox="0 0 102 147"><g clip-path="url(#a)"><path fill="#000" d="M93.54 11.852 68.752 34.634c1.955 3.704 3.93 6.858 5.352 10.245 5.312 12.647 4.601 25.228-1.313 37.45-4.398 9.083-12.238 13.733-21.876 15.692-1.961.399-3.938.726-6.187 1.137l.722 17.143c2.523-.19 4.726-.365 6.931-.52 1.892-.131 3.807-.459 5.673-.302a3.4 3.4 0 0 1 3.282 3.26 3.63 3.63 0 0 1-2.566 3.923c-1.39.418-2.835.628-4.286.62-2.78.091-5.566.027-8.512.027.22 4.529.45 8.663.61 12.798.104 1.794.09 3.591-.044 5.382-.256 2.704-1.73 4.404-3.685 4.572-2.117.183-3.933-1.359-4.323-4.287-.473-3.555-.603-7.159-.765-10.747-.111-2.437-.022-4.883-.022-7.756-3.503 0-6.512.044-9.517-.023a11 11 0 0 1-3.307-.507 2.987 2.987 0 0 1-2.156-3.401c.216-1.739 1.364-2.511 3.03-2.533 3.145-.041 6.29-.027 9.436-.054.556-.006 1.111-.097 2.1-.188.197-5.544.4-11.092.616-17.068-1.158-.14-2.436-.355-3.724-.445C16.49 97.818 5.527 86.694 2.04 70.214q-3.566-16.86 5.611-31.269a26.8 26.8 0 0 1 5.98-6.31 42.2 42.2 0 0 1 20.8-8.774c10.506-1.457 20.268.394 29.367 5.842L87.93 7.493c-1.471 0-2.543-.023-3.614.004-2.69.066-5.387.17-8.08.237-1.61.039-3.055-.394-3.117-2.272-.054-1.609 1.125-2.317 2.635-2.494.67-.08 1.33-.218 2-.29C83.335 2.066 88.903 1.342 94.492.9c4.636-.368 5.749.748 6.069 5.46.259 3.807.451 7.62.65 11.43.064.783.048 1.57-.045 2.348a3.936 3.936 0 0 1-3.854 3.53 3.874 3.874 0 0 1-3.527-3.514 12.8 12.8 0 0 1 .127-2.666c.131-1.772.284-3.544.427-5.316zM37.89 31.214c-9.067.63-12.258 1.581-17.62 4.837a23.7 23.7 0 0 0-8.908 9.392c-5.416 10.268-4.54 20.602-.356 30.886 3.42 8.4 9.79 13.515 18.7 15.341 8.353 1.712 16.55.861 24.533-1.949a18 18 0 0 0 10.651-9.308c6.273-13.269 5.86-26.253-2.449-38.628a18.65 18.65 0 0 0-8.03-6.999c-5.732-2.467-11.743-3.679-16.522-3.573z"/></g><defs><clipPath id="a"><path fill="#fff" d="M.7.784h101.077v145.707H.7z"/></clipPath></defs></svg>