<svg xmlns="http://www.w3.org/2000/svg" width="120" height="125" fill="none" viewBox="0 0 120 125"><g clip-path="url(#a)"><path fill="#000" d="M79.23 101.967H45.79c0 1.405-.04 2.473.007 3.537.18 4.035.452 8.069.557 12.106a14 14 0 0 1-.515 4.304c-.51 1.706-1.687 2.953-3.676 2.888a3.585 3.585 0 0 1-3.434-2.754 15 15 0 0 1-.718-3.598c-.329-5.251-.57-10.505-.871-16.297-1.626 0-3.252.041-4.876-.01-2.13-.066-4.274-.089-6.384-.349-2.298-.284-3.485-1.602-3.433-3.422.053-1.878 1.204-2.804 3.765-2.843 3.468-.052 6.937-.013 10.813-.013l.629-17.285c-1.182-.143-2.475-.355-3.774-.446C16.218 76.543 5.23 65.45 1.743 48.93a40.8 40.8 0 0 1 5.593-31.269 22.6 22.6 0 0 1 4.428-5.029 43.7 43.7 0 0 1 22.36-10.055c8.605-1.313 16.725.156 24.669 3.282 1.27.499 2.27.998 3.749.248C72.568 1.025 83.04.367 93.926 2.878a27.07 27.07 0 0 1 17.065 11.613c9.826 14.566 10.694 29.91 3.413 45.664-4.287 9.272-12.274 13.975-22.04 15.941-1.868.376-3.752.672-6.1 1.088l.674 17.28c3.25-.323 6.118-.635 8.992-.88a18 18 0 0 1 3.667-.058 3.42 3.42 0 0 1 3.195 2.983 3.46 3.46 0 0 1-2.254 4.069 14.9 14.9 0 0 1-4.582.762c-2.773.115-5.554.032-8.488.032.22 4.443.442 8.462.605 12.485.107 1.792.11 3.589.007 5.382-.222 2.908-1.695 4.722-3.741 4.889-2.2.181-4.017-1.521-4.373-4.631-.422-3.676-.55-7.385-.718-11.084-.096-2.105-.018-4.22-.018-6.446M53.979 68.545C39.277 50.43 38.723 31.92 52.179 12.69c-2.014-.57-3.899-1.23-5.836-1.633-8.653-1.8-17.053-1.71-25.02 2.924-4.816 2.8-8.576 6.389-10.895 11.507C5.155 37.11 6.878 48.253 12.79 59.02a21.67 21.67 0 0 0 11.88 9.976c9.708 3.56 19.374 2.632 29.309-.453m13.52.009q1.088.466 2.22.808c9 2.223 17.825 1.393 26.45-1.758a18.65 18.65 0 0 0 10.146-8.926c6.084-11.224 6.017-27.856-2.608-39.192-2.952-4-7.165-6.89-11.96-8.204a53.1 53.1 0 0 0-16.951-1.85c-2.979.131-5.453 1.116-8.091 2.324C81.089 29.04 80.228 53.743 67.5 68.55zm-9.04-51.85c-13.16 10.454-11.85 39.753 1.92 47.685 10.3-8.256 12.68-35.317-1.92-47.69zm20.72 77.363v-16.47q-.495-.178-1.018-.242a47 47 0 0 1-16.018-3.514c-.853-.366-2.124.015-3.135.29-3.234.884-6.426 1.922-9.658 2.814-1.582.436-3.216.683-4.956 1.04l.776 16.081z"/></g><defs><clipPath id="a"><path fill="#fff" d="M.41.942h119.454V124.99H.41z"/></clipPath></defs></svg>