<svg xmlns="http://www.w3.org/2000/svg" width="104" height="101" fill="none" viewBox="0 0 104 101"><g clip-path="url(#a)"><path fill="#000" d="M93.96 10.86 68.709 35.792c1.9 3.638 3.975 6.972 5.448 10.554 5.215 12.681 4.337 25.244-1.616 37.43a26.1 26.1 0 0 1-14.68 13.22 51.3 51.3 0 0 1-31.116 1.935C13.763 95.651 6.169 86.802 2.657 74.18-.679 62.199.754 50.842 7.372 40.246a19 19 0 0 1 3.165-3.911A43.6 43.6 0 0 1 31.41 25.49a44.9 44.9 0 0 1 21.936.82c3.512.99 6.838 2.634 9.946 3.862L85.935 8.257a18 18 0 0 0-2.325-.4c-2.469-.083-4.94-.087-7.41-.153-3.663-.099-5.29-1.156-5.208-3.341.08-2.132 1.706-3.052 5.453-3.07 1.347-.007 2.695.028 4.043 0 5.047-.119 10.095-.231 15.142-.395 3.289-.108 4.866.891 5.438 4.162a298 298 0 0 1 2.349 15.97 4.46 4.46 0 0 1-.856 3.358 4.45 4.45 0 0 1-3.007 1.725c-2.275.197-4.2-1.722-4.467-4.522q-.015-1.009.09-2.012c.033-1.12.116-2.246.05-3.361-.097-1.668-.305-3.328-.465-4.989zM34.983 32.302c-3.71-.493-8.642 1.472-13.442 4.052A24.54 24.54 0 0 0 10.613 47.83c-4.711 9.99-3.67 19.897.346 29.686 3.446 8.397 9.853 13.466 18.76 15.267 8.24 1.668 16.33.831 24.22-1.885a18.32 18.32 0 0 0 11.086-9.779c5.906-12.946 5.585-25.652-2.346-37.783-2.053-3.14-4.68-5.82-8.145-7.369-5.599-2.501-11.52-3.652-19.554-3.665z"/></g><defs><clipPath id="a"><path fill="#fff" d="M.498.755h103.045v99.763H.498z"/></clipPath></defs></svg>