<svg xmlns="http://www.w3.org/2000/svg" width="105" height="101" fill="none" viewBox="0 0 105 101"><g clip-path="url(#a)"><path fill="#000" d="m64.507 30.373 5.99-5.645c-1.092-1.39-2.06-2.567-2.965-3.79-.796-1.076-1.877-2.117-2.176-3.335a5.03 5.03 0 0 1 .591-3.692c.911-1.293 2.618-1.306 3.961-.43a45 45 0 0 1 3.926 3.142c.678.56 1.33 1.154 1.928 1.676L85.825 7.87c-.694-.037-1.846-.12-3-.16-2.804-.096-5.62-.05-8.41-.296a2.95 2.95 0 0 1-2.665-2.027 3 3 0 0 1-.138-1.17 3.016 3.016 0 0 1 2.787-2.903 22.5 22.5 0 0 1 3.02-.131C83.697 1.048 89.98.944 96.26.778c3.157-.083 4.829.889 5.352 3.863a298 298 0 0 1 2.404 16.297 4.43 4.43 0 0 1-.871 3.354A4.45 4.45 0 0 1 100.132 26c-2.275.18-4.187-1.744-4.448-4.546-.06-.662.108-1.342.09-2.011a66 66 0 0 0-.642-8.533c-4.941 3.967-9.307 8.37-14.154 13.286 1.217.95 2.432 1.64 3.293 2.641a10.7 10.7 0 0 1 2.21 3.685 3.893 3.893 0 0 1-5.071 4.86c-1.416-.498-2.665-1.578-3.864-2.55a22 22 0 0 1-2.338-2.616l-5.615 6.377c-.01-.018.344.64.755 1.26 8.906 13.483 10.02 27.782 4.25 42.68-3.363 8.686-9.642 14.454-18.568 17.224a53.1 53.1 0 0 1-26.275 1.605C15.335 96.534 6.866 87.442 3.133 73.53-.03 61.748 1.459 50.63 7.917 40.25a20 20 0 0 1 3.372-4.17 43.9 43.9 0 0 1 20.915-10.74 44.94 44.94 0 0 1 21.93.904c3.508.979 6.81 2.685 10.373 4.129m-25.168 63.45c3.798-.661 8.377-1.2 12.82-2.292 7.553-1.856 12.453-6.766 15.064-14.062 2.77-7.736 3.289-15.669 1.077-23.504-3.027-10.724-9.192-18.508-20.99-20.7-9.33-1.733-18.208-1.563-26.5 3.734a24.97 24.97 0 0 0-9.065 9.693c-5.1 9.822-4.371 19.727-.623 29.65 3.347 8.856 9.733 14.384 19.066 16.278 2.736.558 5.548.743 9.151 1.203"/></g><defs><clipPath id="a"><path fill="#fff" d="M.927.471h103.7v100.42H.928z"/></clipPath></defs></svg>