<svg xmlns="http://www.w3.org/2000/svg" width="164" height="125" fill="none" viewBox="0 0 164 125"><path fill="#000" d="M19.233 89.083c-1.899.338-3.49.673-5.096.899C7.07 90.976 1.52 86.569.481 79.529c-1.51-10.222 6.251-21.415 13.66-24.49 2.507-1.04 5.438-1.06 8.895-1.672 9.213-21.205 26.726-31.574 50.506-33.018l1.06-11.808c-1.027-.421-2.259-.581-2.922-1.28-.967-1.018-2.08-2.42-2.084-3.663C69.592 2.53 70.922.71 71.897.535c2.7-.481 5.645-.812 8.264-.21 3.344.769 3.824 3.428 1.694 6.16a3 3 0 0 0-.809 1.658c.178 3.473.481 6.938.716 10.036 6.26.559 12.243.86 18.16 1.663 19.351 2.63 32.166 13.509 39.155 31.548.117.3.256.595.401.884q.107.151.249.27c3.216 0 6.52-.434 9.666.09 6.745 1.124 11.785 4.766 13.46 11.714 1.675 6.947-.991 12.714-6.094 17.296-5.017 4.505-11.138 5.745-17.766 4.896a3.1 3.1 0 0 0-.634.717c-7.41 17.434-21.156 27.658-38.593 33.401a79.3 79.3 0 0 1-46.791.981c-16.933-4.681-29.173-14.457-33.742-32.556m55.132 26.95c3.59-.305 7.204-.443 10.764-.943 14.283-2.007 26.921-7.462 36.615-18.475 17.015-19.327 12.78-54.503-16.898-64.26-10.99-3.609-22.46-5.83-34.123-5.082-13.054.838-24.44 5.824-32.861 16.153-7.81 9.576-11.256 20.943-11.539 33.121-.41 17.675 8.205 29.685 24.858 35.548a73.1 73.1 0 0 0 23.181 3.937zM20.021 60.376a2.8 2.8 0 0 0-.839.01C12.764 62.276 6.455 73.293 8.09 79.682c.496 1.938 1.723 3.09 3.67 3.127 2.117.042 4.24-.22 5.79-.314l2.468-22.12zM141.736 77.21a14.63 14.63 0 0 0 9.569-3.781c3.569-3.239 3.991-8.147.919-10.977-2.982-2.746-6.557-3.537-10.488-2.737z"/><path fill="#000" d="M84.808 82.025c1.594.294 3.364.257 4.725.985a5.2 5.2 0 0 1 2.527 3.235c.274 1.864-1.343 2.822-3.119 3.054a6.8 6.8 0 0 1-2.574-.15 9.33 9.33 0 0 0-8.846 1.924c-1.35 1.109-2.931 1.948-4.288.305-1.201-1.454-.65-3.143.549-4.443a14.4 14.4 0 0 1 11.026-4.91M57.719 52.511c3.71.128 6.031 2.777 5.83 6.653-.16 3.09-2.64 5.58-5.429 5.451-3.15-.145-5.648-3.294-5.513-6.957.137-3.713 1.678-5.266 5.112-5.147m35.856 4.822c-.007-3.097 1.181-4.5 3.85-4.547 3.448-.062 5.614 1.903 5.535 5.02-.069 2.686-2.18 4.962-4.66 5.022-2.833.07-4.718-2.126-4.725-5.495"/></svg>