<svg xmlns="http://www.w3.org/2000/svg" width="99" height="156" fill="none" viewBox="0 0 99 156"><path fill="#000" d="M64.792 120.208c2.127 0 3.657-.094 5.17.021 2.63.197 3.959 1.452 4.255 4.095.135 1.632.174 3.272.117 4.909q-.057 9.168-.157 18.335c-.056 5.065-1.983 6.519-7.097 6.577-9.284.104-18.562.618-27.845.927-3.166.105-6.339.222-9.502.127-3.1-.092-4.73-1.686-4.664-4.726.165-7.641.354-15.288.827-22.915.32-5.149 1.157-5.71 6.432-6.164a5.4 5.4 0 0 0 1.073-.372l-3.189-13.068a6 6 0 0 0-1.659-.197c-5.747 1.054-9.126-2.297-12.054-6.453-5.688-8.073-8.691-17.333-11.607-26.605C1.288 63.24-.462 51.5.596 39.475a50.2 50.2 0 0 1 6.498-20.783c5.008-8.714 12.63-14.086 22.362-16.334C42.203-.585 55.042-.96 67.772 2.3c11.442 2.93 19.821 9.841 24.825 20.632 8.208 17.713 8.148 35.726 1.58 53.842A96.6 96.6 0 0 1 87.412 92c-2.626 4.568-6.035 8.737-9.488 12.746-1.021 1.186-3.366 1.725-5.094 1.707-3.395-.038-4.812 1.433-5.412 4.62-.559 2.973-1.655 5.844-2.626 9.135M54.759 6.465c1.945 5.29 4.248 10.254 5.602 15.465 5.559 21.397 5.443 43.213 4.26 65.074-.228 4.2-.645 8.393-1.015 13.097 3.661-.368 7.03-.236 10.028-1.226 1.297-.428 1.83-3.17 2.714-4.856.1-.193.248-.362.346-.554 3.166-6.203 6.765-12.228 9.396-18.65 5.022-12.26 6.858-25.017 3.68-38.122-1.648-6.796-3.604-13.487-8.426-18.93-7.111-8.032-16.475-10.551-26.585-11.3zm.406 93.791q.33-1.102.538-2.232c.771-8.148 1.75-16.284 2.232-24.45.93-15.064.154-30.185-2.316-45.074-1.199-7.133-2.935-14.092-6.774-20.381-.99-1.621-2.225-1.795-3.834-1.776-1.629.018-2.69.61-3.208 2.2-1.014 3.102-2.326 6.128-3.085 9.288a154.3 154.3 0 0 0-2.937 57.252c1.042 7.665 2.857 15.227 4.347 22.828.228 1.163.399 2.389 2.122 2.363 4.25-.059 8.502-.02 12.915-.02zM36.898 7.52c-11.709 1.52-20.265 7.115-24.89 18.15-4.17 9.95-4.902 20.268-3.453 30.855a131.3 131.3 0 0 0 13.372 42.887 3.36 3.36 0 0 0 2.42 1.623c2.924-.037 5.842-.432 9.024-.715-6.6-31.211-7.234-62.047 3.527-92.802zm30.676 119.315H30.829l1.022 22.043 34.285-1.247zM40.1 120.797c5.721 0 11.145.025 16.567-.039a2.05 2.05 0 0 0 1.568-.873c1.766-4.015 3.42-8.078 5.112-12.143H35.261c1.644 4.513 3.125 8.59 4.62 12.662.108.291.312.549.22.39z"/></svg>