<svg xmlns="http://www.w3.org/2000/svg" width="149" height="147" fill="none" viewBox="0 0 149 147"><path fill="#000" d="M19.68 54.234c0-2.538-.102-4.398.03-6.236.126-1.772-.74-2.228-2.298-2.396a80 80 0 0 1-9.398-1.329c-4.576-1.06-6.968-3.641-7.007-8.27-.072-8.4.294-16.808.554-25.21.072-2.355 1.213-4.348 3.398-5.225 2.895-1.163 5.914-2.626 8.936-2.766C36.717 1.742 59.547.767 82.385.189c14.637-.37 29.295-.112 43.942.065a70.3 70.3 0 0 1 12.039 1.323c5.478 1.028 7.725 3.513 8.471 8.98 1.039 7.606 1.469 15.25.101 22.862-1.316 7.329-4.932 10.59-12.35 11.315-2.282.223-4.583.24-6.876.35-3.26.158-3.354.288-2.707 4.045 1.001.082 2.067.18 3.134.254 2.29.156 4.59.218 6.871.46 9.144.973 11.735 3.26 12.544 12.355.611 6.301.706 12.642.282 18.959-.617 8.142-4.455 11.63-12.522 12.514-4.225.463-8.477.68-12.995 1.03.104 1.964.197 3.759.311 5.892 1.116.11 2.166.197 3.216.318 4.229.499 8.493.81 12.675 1.575 3.988.728 6.751 3.18 7.428 7.336 1.344 8.24 1.819 16.53.27 24.795-1.292 6.902-4.992 10.384-12.073 10.764-9.057.486-18.132.58-27.202.697-24.923.32-49.847.64-74.772.787-6.438.038-12.883-.525-19.321-.883a27.5 27.5 0 0 1-4.529-.71c-5.586-1.262-7.976-3.761-8.024-9.527-.066-7.967.337-15.939.59-23.906.085-2.619 1.297-4.775 3.742-5.71 3.604-1.384 7.345-2.411 11.71-3.807l.694-5.018c-2.642-.409-5.009-.674-7.329-1.156-5.228-1.087-7.726-3.641-7.871-8.964-.22-8.072-.034-16.16.044-24.24.026-2.613 1.197-4.801 3.636-5.777a70 70 0 0 1 9.254-2.874c1.413-.348 2.985-.06 4.912-.06m54.931 33.19v-.446c3.711 0 7.425.09 11.133-.015q23.423-.667 46.842-1.444c4.753-.16 5.932-1.081 6.097-5.803.21-5.982-.092-11.984-.196-17.976-.037-2.048-.965-3.225-3.173-3.314-2.069-.084-4.127-.466-6.196-.542-25.916-.965-51.763.471-77.605 2.192a2984 2984 0 0 1-41.203 2.459c-2.19.119-2.517 1.235-2.407 2.97.425 6.76.866 13.513 1.247 20.272.131 2.34 1.429 3.282 3.601 3.306 9.714.105 19.436.494 29.142.217 10.915-.314 21.812-1.225 32.718-1.876m-4.75 21.233-.014.435c-7.416.393-14.833.853-22.257 1.161q-18.99.788-37.987 1.379c-2.276.065-2.806 1.125-2.725 3.063.262 6.33.472 12.661.744 18.99.162 3.782.48 4.385 4.424 4.575 9.377.454 18.77.927 28.157.803 18.68-.248 37.354-.947 56.033-1.352 11.689-.254 23.384-.268 35.074-.478 4.38-.078 5.664-1.032 5.917-5.288.36-6.085.219-12.201.259-18.304.014-2.051-.944-3.243-3.113-3.417-2.394-.192-4.773-.717-7.165-.757-19.116-.318-38.232-.552-57.347-.81m.047-100.762-.011.51c-6.33.315-12.657.675-18.989.937-13.425.557-26.85 1.12-40.28 1.535-2.25.07-3.232.692-3.127 2.983.282 6.22.48 12.442.737 18.663.177 4.282.428 4.837 4.67 5.041 9.272.447 18.561.887 27.835.76 18.136-.246 36.265-.941 54.399-1.336 12.236-.267 24.477-.306 36.714-.514 4.539-.076 5.731-.966 6.029-5.52.376-5.758.359-11.552.255-17.327-.066-3.494-.454-3.706-4.039-4.263a38 38 0 0 0-5.208-.567q-29.491-.49-58.985-.902m43.105 86.693-87.79 3.027.863 5.312 86.599-2.931zm-84.37-41.222 85.791-4.73q.224-.621.32-1.274a16 16 0 0 0-.193-2.21l-86.899 1.07c.237 2.362.412 4.2.616 6.038q.132.571.364 1.106z"/><path fill="#000" d="M47.335 76.985c-6.146.29-14.108.68-22.073 1.03-1.413.061-2.982.314-4.205-.187-1.103-.452-2.372-1.727-2.551-2.808-.142-.853 1.072-2.498 2.024-2.837a21.8 21.8 0 0 1 6.411-1.133q23.736-.927 47.479-1.666a26.3 26.3 0 0 1 4.565.307c1.784.257 3.14 1.247 3.22 3.155s-1.239 3.085-2.96 3.408c-2.249.432-4.53.666-6.82.7-7.755.081-15.511.03-25.09.03m81.501-1.157a4.2 4.2 0 0 1-4.1-4.217c.093-2.511 1.8-4.373 3.974-4.332a4.59 4.59 0 0 1 4.331 4.453 4.16 4.16 0 0 1-4.205 4.096m-14.013.444a4.21 4.21 0 0 1-4.201-4.131c-.023-2.314 1.453-3.645 4.025-3.628 2.657.017 4.325 1.539 4.241 3.873a4.086 4.086 0 0 1-4.065 3.886m-16.528-7.204a4.03 4.03 0 0 1 3.873 3.664 3.526 3.526 0 0 1-3.807 3.55 3.64 3.64 0 0 1-3.458-3.63 3.4 3.4 0 0 1 3.392-3.584m-50.111 58.388H24.298a37 37 0 0 1-3.925-.084c-1.792-.193-3.167-1.063-3.249-3.044-.075-1.834 1.173-2.81 2.782-3.134a32 32 0 0 1 5.836-.739q24.058-.363 48.119-.575c1.407-.014 2.996-.079 4.174.52 1.188.604 2.702 1.991 2.724 3.063.023 1.084-1.407 2.556-2.566 3.21-1.144.644-2.744.629-4.145.638-8.621.05-17.242.025-25.86.025zm79.144-8.488a4.51 4.51 0 0 1 4.463 4.339 4.17 4.17 0 0 1-3.845 4.162 4.175 4.175 0 0 1-4.384-3.95c-.075-2.446 1.619-4.49 3.766-4.551m-17.922 4.53c-.032-2.288 1.5-3.703 3.98-3.676 2.625.032 4.308 1.569 4.24 3.884a4.056 4.056 0 0 1-4.023 3.887 4.2 4.2 0 0 1-2.934-1.192 4.2 4.2 0 0 1-1.263-2.903m-12.021 3.727a3.597 3.597 0 0 1-3.708-3.651 3.46 3.46 0 0 1 3.43-3.545 4.08 4.08 0 0 1 3.786 3.734 3.436 3.436 0 0 1-3.508 3.462M49.039 26.667H25.476c-1.312 0-2.62.05-3.928 0-1.908-.074-3.568-.735-3.772-2.864-.227-2.377 1.54-3.216 3.487-3.545a39 39 0 0 1 5.857-.6 8088 8088 0 0 1 45.174-.576c2.065-.02 4.23-.055 6.163.53a5.07 5.07 0 0 1 2.993 2.913c.525 1.801-.959 3.039-2.685 3.49a17 17 0 0 1-4.19.553c-8.513.05-17.025.025-25.536.025zm79.411.036a4.12 4.12 0 0 1-3.924-2.464 4.1 4.1 0 0 1-.342-1.594c-.006-2.463 1.738-4.457 3.888-4.448a4.586 4.586 0 0 1 4.332 4.155 4.1 4.1 0 0 1-1.059 3.01 4.1 4.1 0 0 1-2.895 1.34m-14.16.122a4.13 4.13 0 0 1-3.891-2.436 4.1 4.1 0 0 1-.361-1.571c-.065-2.32 1.419-3.738 3.908-3.727 2.643.011 4.335 1.51 4.306 3.813a3.994 3.994 0 0 1-3.962 3.92m-16.637-.327a3.57 3.57 0 0 1-3.313-4.012c.276-1.93 1.345-3.187 3.435-3.154a3.91 3.91 0 0 1 3.735 4.065 3.506 3.506 0 0 1-3.857 3.1"/></svg>