<svg xmlns="http://www.w3.org/2000/svg" width="1200" height="720" viewBox="0 0 1200 720"><defs><style>.ink,.thin{fill:none;stroke:#000;stroke-width:8;stroke-linecap:round;stroke-linejoin:round}.thin{stroke-width:5}.label{font-family:&quot;Arial&quot;,&quot;Helvetica&quot;,sans-serif;font-weight:700;font-size:16px;fill:#000}</style></defs><path d="M85 105q5-35 40-35h950q40 0 45 35l5 505q0 40-37 40H125q-35 0-40-40Z" class="ink"/><path d="M95 110q7-25 33-27h940q32 1 40 29l3 492q1 31-25 34H128q-26-1-32-30Zm15 30h980m-980 70h980" class="thin"/><path d="M150 175c0-20 15-35 35-35s35 15 35 35-15 35-35 35-35-15-35-35m100-33h130v66H250Z" class="ink"/><path d="M255 160h120m-120 15h120m-120 15h120" class="thin"/><text x="430" y="178" style="font-family:&quot;Arial&quot;,&quot;Helvetica&quot;,sans-serif;font-weight:800;font-size:44px;fill:#000">REINO DE ESPAÑA</text><text x="430" y="205" style="font-family:&quot;Arial&quot;,&quot;Helvetica&quot;,sans-serif;font-weight:700;font-size:20px;letter-spacing:1px;fill:#000">DOCUMENTO NACIONAL DE IDENTIDAD</text><path d="M995 150q45-5 85 10 25 12 10 38-20 32-70 22-35-8-35-35t10-35" class="ink"/><path d="M1005 170q35-10 70 2m-70 23q35 10 73-5" class="thin"/><path d="M120 245h265v365H120Z" class="ink"/><path d="M135 260h235v335H135Z" class="thin"/><path d="M250 305c-45 0-75 40-75 90 0 55 35 100 75 100s75-45 75-100c0-50-30-90-75-90m-65 280c10-50 40-65 65-65s55 15 65 65" class="ink"/><path d="M205 420q45 25 90 0" class="thin"/><text x="430" y="242" class="label">DNI</text><path d="M480 250h560" class="thin"/><text x="430" y="282" class="label">APELLIDO</text><path d="M520 290h300" class="thin"/><text x="430" y="327" class="label">NOMBRE</text><path d="M520 335h300" class="thin"/><text x="430" y="387" class="label">SEXO</text><path d="M485 395h75" class="thin"/><text x="610" y="387" class="label">NACIONALIDAD</text><path d="M740 395h80" class="thin"/><text x="870" y="387" class="label">NACIMIENTO</text><path d="M980 395h60" class="thin"/><text x="430" y="442" class="label">EMISIÓN</text><path d="M510 450h50" class="thin"/><text x="610" y="442" class="label">VALIDEZ</text><path d="M680 450h60" class="thin"/><path d="M915 430h125v55H915Z" class="ink"/><path d="M930 458h95" class="thin"/><text x="430" y="502" class="label">NUM SOPORTE</text><path d="M560 510h60" class="thin"/><path d="M470 555h270v65H470Z" class="ink"/><path d="M490 590h230" class="thin"/><path d="M865 535h210v85H865Z" class="ink"/><path d="M885 580h170m-635 62h460m-420 18h380" class="thin"/></svg>