<svg xmlns="http://www.w3.org/2000/svg" width="165" height="147" fill="none" viewBox="0 0 165 147"><g fill="#000" clip-path="url(#a)"><path d="M163.823 89.403c-.568-13.534-1.144-25.365-1.763-36.157-.425-7.402-1.031-17.14-1.953-26.83-1.342-14.149-12.78-24.389-27.815-24.904-11.098-.38-22.387-.539-33.305-.693h-.102c-3.12-.043-6.292-.017-9.359.01C84.49.87 79.283.915 74.188.646 62.612.037 50.346.546 34.425 2.299c-10.361 1.14-18.157 4.17-24.54 9.539-5.26 4.425-7.823 9.556-7.837 15.688a168 168 0 0 1-.118 5.947c-.066 1.736-.186 3.508-.3 5.221a85 85 0 0 0-.264 11.057q.147 2.313.3 4.626c.79 12.03 1.607 24.47.777 36.743-.342 5.07-.249 10.242-.158 15.243l.02 1.086c.15 8.567 1.41 16.1 3.85 23.027 2.633 7.472 7.742 12.015 15.187 13.503a89.5 89.5 0 0 0 13.983 1.761c8.766.357 17.682.554 26.305.746q5.22.115 10.44.242h.014a.57.57 0 0 0 .325-.108h9.709l3.67.006c14.481.03 29.472.058 44.1-2.223 5.102-.795 11.06-1.907 16.579-4.114 11.078-4.43 17.056-12.599 17.767-24.279.455-7.508.112-15.063-.223-22.37zM11.859 81.216c-.182-7.821-.58-16.254-1.25-26.532-.53-8.105-.854-18.79 1.386-29.617a1.2 1.2 0 0 0 .065-.46c-.517-6.083 3.847-8.465 8.466-10.987l.161-.088c4.484-2.448 9.446-3.302 14.145-3.96a231 231 0 0 1 32.275-1.943c4.49 0 8.922.074 13.264.164 7.906.166 15.945.274 23.717.377 6.785.09 13.798.185 20.696.317 3.197.039 6.386.31 9.543.812 11.348 1.882 17.624 9.224 18.15 21.233.432 9.865.829 19.899 1.213 29.601q.433 10.906.882 21.813c.11 2.63.26 5.3.406 7.883.229 4.042.466 8.224.549 12.33.099 4.857-.173 9.843-.456 14.531-.417 6.825-4.409 11.674-11.863 14.41a70.3 70.3 0 0 1-14.081 3.346c-16.16 2.396-32.742 2.29-48.784 2.188l-2.107-.013q-1.268-.007-2.532 0h-1.147a.67.67 0 0 0-.535.27q-5.239-.133-10.478-.259c-10.282-.253-20.913-.513-31.364-.854a52.4 52.4 0 0 1-8.005-1.108l-.463-.088c-4.409-.842-7.359-3.55-8.767-8.056a73.6 73.6 0 0 1-3.175-21.725c-.023-3.368.025-6.79.071-10.102.058-4.418.122-8.987.018-13.483"/><path d="M53.663 64.324a19 19 0 0 0 3.213-2.195q.344-.274.693-.543l10.057-7.77q5.901-4.566 11.808-9.124a6 6 0 0 1 .84-.511q-.111 2.226-.224 4.394a882 882 0 0 0-.547 11.62 11944 11944 0 0 0-1.641 45.093c-.036 1.367.06 2.736.29 4.085.438 2.747 2.107 3.325 3.431 3.325h.003c2.106 0 3.433-1.286 3.645-3.523q.08-.863.166-1.728c.234-2.372.475-4.824.507-7.253.146-11.164.256-22.515.363-33.492q.086-8.812.177-17.625.022-.671.127-1.333l.053.049c.572.524 1.047.96 1.502 1.412 6.157 6.123 13.457 11.323 22.316 15.898l.252.13a10.5 10.5 0 0 0 2.322.978 3.3 3.3 0 0 0 1.54-.093 6 6 0 0 1 .515-.099.68.68 0 0 0 .453-.273.68.68 0 0 0 .113-.515 6 6 0 0 1-.075-.612 2.9 2.9 0 0 0-.535-1.726 10.2 10.2 0 0 0-1.633-1.399 12 12 0 0 1-1.201-.971 2676 2676 0 0 1-9.066-8.858 5470 5470 0 0 0-11.65-11.37 36 36 0 0 0-5.412-4.581c-3.068-1.967-5.734-1.658-8.638 1a387 387 0 0 1-8.955 7.925q-3.639 3.13-7.302 6.23a1919 1919 0 0 0-7.888 6.734 14.3 14.3 0 0 0-2.809 3.073c-.496.789-.556 2.396.083 3.083a3.12 3.12 0 0 0 3.107.565"/></g><defs><clipPath id="a"><path fill="#fff" d="M.777 0h164v147h-164z"/></clipPath></defs></svg>