<svg xmlns="http://www.w3.org/2000/svg" width="165" height="147" fill="none" viewBox="0 0 165 147"><g fill="#000" clip-path="url(#a)"><path d="M163.637 89.624c-.568-13.544-1.144-25.372-1.763-36.159-.424-7.397-1.029-17.132-1.953-26.829-1.342-14.15-12.78-24.39-27.815-24.904-11.128-.381-22.452-.54-33.407-.695-3.124-.043-6.296-.016-9.364.01-5.034.042-10.24.087-15.333-.182C62.433.259 50.166.765 34.24 2.517c-10.362 1.14-18.157 4.171-24.54 9.54-5.26 4.424-7.825 9.555-7.838 15.687a169 169 0 0 1-.119 5.949c-.065 1.736-.185 3.51-.3 5.227a85 85 0 0 0-.26 11.05q.146 2.304.299 4.608c.79 12.036 1.608 24.479.78 36.76-.341 5.066-.248 10.232-.158 15.224l.02 1.105c.152 8.57 1.411 16.102 3.851 23.027 2.632 7.471 7.741 12.016 15.187 13.504a89.5 89.5 0 0 0 13.982 1.76c8.748.356 17.646.554 26.251.745q5.249.118 10.496.244h.012a.57.57 0 0 0 .326-.109h9.708l3.67.006c14.492.03 29.472.059 44.1-2.222 5.1-.796 11.059-1.907 16.58-4.115 11.078-4.431 17.056-12.599 17.767-24.279.455-7.508.112-15.065-.223-22.374q-.1-2.115-.193-4.23M11.672 81.436c-.182-7.839-.579-16.27-1.25-26.532-.53-8.104-.853-18.788 1.386-29.617a1.2 1.2 0 0 0 .066-.46c-.517-6.083 3.846-8.466 8.466-10.988l.16-.087c4.482-2.447 9.445-3.302 14.145-3.96A231 231 0 0 1 66.91 7.847c4.495 0 8.928.075 13.276.165 7.906.166 15.945.274 23.717.377 6.784.091 13.797.185 20.696.317 3.196.039 6.386.31 9.543.812 11.348 1.881 17.625 9.224 18.15 21.232.432 9.858.829 19.88 1.212 29.577q.433 10.919.882 21.838c.11 2.624.26 5.29.406 7.867.229 4.047.466 8.232.549 12.345.1 4.871-.171 9.849-.455 14.531-.417 6.826-4.409 11.675-11.862 14.412a70.5 70.5 0 0 1-14.081 3.345c-16.156 2.396-32.74 2.289-48.774 2.188l-2.118-.015c-.832-.005-1.663 0-2.495 0h-1.184a.67.67 0 0 0-.537.27q-5.272-.133-10.543-.258c-10.26-.251-20.87-.51-31.299-.851a52.4 52.4 0 0 1-7.988-1.101l-.48-.092c-4.41-.842-7.36-3.55-8.768-8.056a73.6 73.6 0 0 1-3.174-21.725c-.024-3.364.025-6.788.07-10.102.056-4.424.121-8.991.018-13.49z"/><path d="M47.758 90.1a5197 5197 0 0 1 5.41 4.909c6.794 6.167 13.82 12.544 20.815 18.724a7.4 7.4 0 0 0 4.925 2.012 7.55 7.55 0 0 0 5.064-2.115 26.8 26.8 0 0 0 5.002-5.987c5.233-8.726 10.393-17.69 15.383-26.36l.678-1.177a5.6 5.6 0 0 0 .566-1.969c.043-.27.084-.542.145-.802a.66.66 0 0 0-.267-.697l-.731-.51a.67.67 0 0 0-.75-.013c-.288.187-.586.362-.887.537-.713.384-1.383.846-1.994 1.377a93.8 93.8 0 0 0-14.698 17.344 59 59 0 0 1-1.344 1.948v-1.566l-.03-10.792q-.065-23.988-.149-47.977a26 26 0 0 0-.35-4.054 3.65 3.65 0 0 0-1.39-2.522 2.17 2.17 0 0 0-1.766-.27c-1.103.276-1.953 1.454-2.709 2.687a3.9 3.9 0 0 0-.39 2.036q.001.279-.013.545-.19 3.336-.398 6.67c-.325 5.31-.66 10.796-.846 16.203-.34 9.914-.608 19.996-.866 29.745q-.186 7.03-.381 14.059a10 10 0 0 1-.105 1.049l-.033-.024a25 25 0 0 1-1.394-1.057q-4.396-3.69-8.785-7.382-5.932-4.987-11.87-9.97a27 27 0 0 1-.593-.518 6.3 6.3 0 0 0-2.641-1.69 5.58 5.58 0 0 0-4.194.684c-1.437 1.075-1.534 2.958-.248 4.798.53.774 1.145 1.486 1.834 2.125"/></g><defs><clipPath id="a"><path fill="#fff" d="M.777 0h164v147h-164z"/></clipPath></defs></svg>