<svg xmlns="http://www.w3.org/2000/svg" width="92" height="101" fill="none" viewBox="0 0 92 101"><g fill="#000" clip-path="url(#a)"><path d="M90.915 80.484c-.358-20.386-.684-41.112-1-61.161l-.073-4.597c-.022-1.45-.023-2.9-.024-4.35 0-1.733 0-3.524-.042-5.288-.09-4.018-1.132-4.264-4.73-4.493C80.84.324 77.89 2.278 75.79 4.01A411 411 0 0 0 62.4 15.545c-8.82 7.946-17.597 17.143-27.625 28.94l-.343.41c-1.134 1.36-2.114 2.539-3.891 2.432a.665.665 0 0 0-.65.404c-1.159 2.706-.098 4.561 1.092 6.02q.846 1.037 1.69 2.088a95 95 0 0 0 7.233 8.308c5.25 5.163 10.801 10.043 15.535 14.135 7.292 6.3 14.552 12.299 20.694 17.336a29 29 0 0 0 6.491 4.298 6.7 6.7 0 0 0 2.682.583 5.9 5.9 0 0 0 3.37-1.056 6.8 6.8 0 0 0 2.184-2.674 6.75 6.75 0 0 0 .58-3.399c-.285-4.736-.458-8.954-.527-12.886M82.07 11.92a3250 3250 0 0 1-.79 71.17c-2.04-1.653-4.037-3.287-6.007-4.9-5.216-4.274-10.144-8.307-15.292-12.184-5.209-3.922-10.674-7.7-15.96-11.354q-3.156-2.182-6.314-4.385.83-.582 1.662-1.159C47.794 43.27 54.272 38.12 59.754 32.9c5.854-5.575 11.836-11.214 17.62-16.668l2.936-2.767c.533-.503 1.1-.985 1.755-1.543zM11.938 26.102c-.115-4.766-.48-9.598-.835-14.27a803 803 0 0 1-.342-4.638 18.5 18.5 0 0 0-.695-3.714 3.48 3.48 0 0 0-1.287-2.011A3.5 3.5 0 0 0 6.495.756h-.02a3.44 3.44 0 0 0-2.305.707A3.42 3.42 0 0 0 2.9 3.507a32 32 0 0 0-.839 6.027c-.24 7.932-.424 15.866-.571 22.241l-.13 5.444v.033c.109 4.378.177 8.342.242 12.175.138 8.033.256 14.971.708 21.89.369 5.65 1.153 11.356 1.912 16.874.353 2.575.72 5.236 1.04 7.854.208 1.71 1.016 2.578 2.405 2.578h.029c.99-.01 2.218-.464 2.452-2.578.268-2.42.606-4.886.934-7.27.83-5.25 1.336-10.544 1.515-15.855.168-13.518-.174-27.261-.506-40.552z"/></g><defs><clipPath id="a"><path fill="#fff" d="M.777 0h91v101h-91z"/></clipPath></defs></svg>