<svg xmlns="http://www.w3.org/2000/svg" width="158" height="161" fill="none" viewBox="0 0 158 161"><g clip-path="url(#a)"><path fill="#000" d="M7.337 141.913q12.632-.407 25.265-.841 8.494-.288 16.988-.571a71 71 0 0 1 3.049-.014c.283 0 .567.005.849.006l.115.639c.124.687.227 1.252.307 1.821 1.083 7.706 5.474 13.023 13.049 15.8a28.1 28.1 0 0 0 9.75 1.714 33.5 33.5 0 0 0 9-1.284c7.36-2.047 12.099-6.795 14.089-14.109.333-1.223.638-2.457.963-3.762q.174-.709.361-1.453l.409-.03q.661-.066 1.324-.065 11 .156 21.999.324l13.623.201q1.688.025 3.378.057c3.045.056 6.194.113 9.291.081 3.902-.041 5.112-1.934 5.799-4.974.794-3.516-.983-5.6-2.618-7.024-7.896-6.864-12.789-15.43-14.961-26.187-2.758-13.658-5.774-27.761-9.222-43.117-4.379-19.503-15.229-33.217-32.249-40.76a102 102 0 0 0-3.586-1.482q-.645-.256-1.3-.52 0-.232.003-.46A35 35 0 0 0 93 14.065C92.72 7.235 88.514 2.047 82.027.527 76.335-.806 70.504 2.362 67.52 8.415a34.4 34.4 0 0 0-1.85 5.007c-.222.711-.45 1.444-.702 2.188l-.205.065c-.48.153-1.065.34-1.657.502-8.544 2.318-15.42 5.9-21.02 10.947-13.32 12.003-21.124 27.196-23.197 45.16-.691 5.987-.836 12.124-.977 18.059-.075 3.212-.153 6.535-.318 9.79-.251 4.976-.645 10.26-1.204 16.153-.51 5.367-2.895 10.346-7.735 16.153a6.8 6.8 0 0 1-2.17 1.454c-.4.204-.811.414-1.2.65a15 15 0 0 1-1.08.578 7.8 7.8 0 0 0-2.373 1.587c-.894.988-1.217 2.051-.909 2.995.317.975 1.248 1.672 2.621 1.966 1.25.232 2.523.314 3.792.244m84.095-1.628c-.255 5.789-3.114 9.471-8.514 10.949-5.876 1.606-10.924 1.338-15.436-.824-3.97-1.902-6.085-5.044-6.794-10.125zm-75.023-6.243c6.979-8.072 8.267-17.74 8.618-26.989.145-3.802.214-7.668.282-11.406.087-4.854.177-9.873.432-14.794 1.033-19.95 8.005-35.521 21.315-47.605 6.858-6.228 15.674-9.893 26.198-10.888a47 47 0 0 1 4.456-.213c9.991 0 19.179 3.285 27.378 9.798 8.297 6.592 13.774 15.773 16.28 27.286 2.641 12.13 5.19 24.936 8.032 40.302 2.567 13.895 6.95 23.751 14.135 31.701-46.948-.667-88.563.251-127.126 2.808m62.87-126.04c2.98.214 4.805 2.726 4.755 6.466H72.642c.697-3.614 3.752-6.686 6.636-6.466"/></g><defs><clipPath id="a"><path fill="#fff" d="M.777 0h157v161h-157z"/></clipPath></defs></svg>