<svg xmlns="http://www.w3.org/2000/svg" width="92" height="155" fill="none" viewBox="0 0 92 155"><g clip-path="url(#a)"><path fill="#000" d="M6.604 56.828A472 472 0 0 0 20.23 67.689c2.92 2.246 5.844 4.39 8.941 6.66l3.445 2.529q-.965.69-1.899 1.352c-1.873 1.33-3.642 2.586-5.38 3.92-6.052 4.642-12.105 9.38-17.96 13.963a9.8 9.8 0 0 0-2.022 2.01 5.09 5.09 0 0 0 .373 6.363 5.064 5.064 0 0 0 6.027 1.052 14 14 0 0 0 2.581-1.811q3.29-2.703 6.571-5.42c3.343-2.763 6.799-5.62 10.217-8.405 1.066-.867 2.178-1.647 3.47-2.55l.905-.637c.004.57.007 1.013-.01 1.454-.09 2.523-.2 5.045-.313 7.569-.237 5.374-.483 10.932-.508 16.408-.043 9.443.121 19.041.28 28.322l.11 6.627c.015 1.404.258 2.795.72 4.122a5.3 5.3 0 0 0 1.332 2.109 5.4 5.4 0 0 0 2.151 1.281c.483.147.985.221 1.49.221a5.4 5.4 0 0 0 3.192-1.068 97 97 0 0 0 6.826-5.458q1.791-1.576 3.59-3.146c4.611-4.033 9.378-8.202 13.867-12.517 6.708-6.449 13.725-13.511 21.455-21.591 1.493-1.561 2.184-3.265 1.995-4.929-.196-1.715-1.297-3.281-3.187-4.531a1837 1837 0 0 0-6.166-4.056c-4.306-2.826-8.76-5.75-13.093-8.69-3.933-2.667-7.784-5.384-11.862-8.259a4043 4043 0 0 0-4.88-3.437q2.008-1.617 3.918-3.14c3.208-2.564 6.238-4.987 9.21-7.484l2.186-1.836c6.595-5.54 13.416-11.268 19.938-17.114 1.923-1.724 2.814-3.373 2.719-5.05-.1-1.771-1.309-3.463-3.702-5.172-12.62-9.015-27.213-20.094-39.777-33.94l-.131-.143a8.8 8.8 0 0 0-1.42-1.348C43.359.459 41.194.026 39.168.669c-2.495.792-2.593 3.145-2.665 4.863l-.008.195c-.15 3.485-.222 7.188-.231 12.006q-.024 12.098-.023 24.198-.004 10.207-.016 20.415c0 .7-.065 1.423-.151 2.335l-.051.55-5.469-3.863c-6.475-4.575-12.658-8.945-18.847-13.302q-.341-.241-.682-.487a19.7 19.7 0 0 0-3.358-2.086 4.5 4.5 0 0 0-2.89-.328 4.47 4.47 0 0 0-2.48 1.507 4.39 4.39 0 0 0-.137 5.447 29.3 29.3 0 0 0 4.445 4.709m39.182 80.716c-.044-11.048.196-21.97.428-32.548.142-6.42.287-13.05.366-19.606l31.459 22.171c-8.232 8.788-17.088 16.599-26.455 24.858q-2.88 2.541-5.798 5.125m-.358-122.582C56.6 26.03 66.878 34.856 77.61 42.6q-2.445 2.056-4.859 4.109c-8.492 7.198-16.53 14.008-25.616 20.055z"/></g><defs><clipPath id="a"><path fill="#fff" d="M.777 0h91v155h-91z"/></clipPath></defs></svg>