<svg xmlns="http://www.w3.org/2000/svg" width="118" height="155" fill="none" viewBox="0 0 118 155"><g clip-path="url(#a)"><path fill="#000" d="M56.078 107.382a24.4 24.4 0 0 1-2.27 3.092 11069 11069 0 0 1-37.593 36.879 46.6 46.6 0 0 1-6.945 5.69c-4.228 2.755-7.565 1.092-8.269-3.929a28.5 28.5 0 0 1-.083-3.99c.047-31.296.013-62.592.195-93.888.07-12.31.556-24.62 1.008-36.925.204-2.653.657-5.28 1.352-7.848.737-3.206 1.625-4.067 5.005-4.338C15.348 1.573 22.231.94 29.116.847 54.25.51 79.39.403 104.527.15a26.4 26.4 0 0 1 9.702 1.956 4.12 4.12 0 0 1 2.795 3.446c.238 1.532.342 3.082.311 4.632-1.66 43.152-2.475 86.31-1.263 129.492a65 65 0 0 1-.859 10.172c-.333 2.52-2.73 4.004-5.494 3.632a11.48 11.48 0 0 1-7.154-3.92c-13.861-15.464-30.797-27.527-46.487-42.178M108.63 7.754l-98.131.71c-.13 1.145-.25 1.786-.265 2.43-.15 6.762-.442 13.527-.396 20.288q.363 53.1.875 106.2c.007.694.1 1.387.188 2.554 1.192-1.108 2.011-1.824 2.779-2.589a60401 60401 0 0 0 36.784-36.745c4.472-4.479 7.31-4.596 11.998-.48 5.929 5.204 11.953 10.301 17.857 15.534 8.395 7.44 16.717 14.963 25.08 22.44q.825.612 1.717 1.122c-2.465-44.013.241-87.465 1.514-131.464"/></g><defs><clipPath id="a"><path fill="#fff" d="M.777 0h117v155h-117z"/></clipPath></defs></svg>