<svg xmlns="http://www.w3.org/2000/svg" width="164" height="147" fill="none" viewBox="0 0 164 147"><g fill="#000" clip-path="url(#a)"><path d="M70.225 82.574c-1.1.154-1.837 1.165-2.486 2.06-.17.232-.332.459-.494.652-2.323 2.791-4.607 5.644-7.025 8.663l-2.58 3.217-3.478-3.058c-3.362-2.96-6.538-5.755-9.782-8.549l-.163-.14a16.7 16.7 0 0 0-4.316-2.993c-1.095-.453-3.453.081-3.962 1.13-.465.958-.154 2.189.119 3.275q.097.368.17.713a1.6 1.6 0 0 0 .85.943q.175.102.33.229c4.166 4.07 8.327 8.144 12.54 12.269l2.487 2.436-2.973 3.691c-3.062 3.8-6.226 7.729-9.367 11.568-.833 1.017-2.09 2.553-.787 4.338a2.97 2.97 0 0 0 2.45 1.29 4.2 4.2 0 0 0 2.338-.8 18 18 0 0 0 3.74-3.513c2.524-3.088 4.948-6.162 7.514-9.417l2.556-3.238.486.354c.707.518 1.375 1.002 2.1 1.432l1.552.922c3.974 2.362 8.083 4.805 12.204 7.077.791.347 1.66.483 2.52.394.36 0 .7-.007 1.017.019a.67.67 0 0 0 .547-.212.67.67 0 0 0 .167-.561 10 10 0 0 1-.092-1.054c-.05-.944-.102-1.921-.698-2.59a77 77 0 0 0-7.57-7.468 62 62 0 0 0-5.353-3.93 186 186 0 0 1-1.874-1.285q1.102-1.6 2.17-3.145c2.129-3.079 4.14-5.988 6.126-8.952.13-.194.285-.402.442-.614.855-1.153 2.285-3.083.362-4.585a2.35 2.35 0 0 0-1.787-.568M32.209 44.878c.185.129.366.259.534.388a2.55 2.55 0 0 0 1.719.313q.166-.008.321-.012a1684 1684 0 0 0 6.926-.116l5.052-.089c.795-.012 1.59-.008 2.393-.005h.584c.17.94.325 1.862.484 2.771.441 2.58.858 5.017 1.487 7.46.448 1.742 1.18 4.587 3.753 4.587q.275 0 .545-.04c3.16-.45 2.954-4.054 2.867-5.593-.13-2.32-.441-4.633-.769-7.081-.118-.872-.237-1.765-.353-2.688l.336-.05c.676-.104 1.321-.204 1.97-.28q1.377-.16 2.759-.302c1.812-.194 3.687-.389 5.524-.676 1.21-.19 4.04-.633 3.901-3.652-.136-2.967-2.738-3.026-4.294-3.061-.974-.019-1.955 0-2.904.018-.591.011-1.182.024-1.774.026-1.753.006-3.5.005-5.352.004h-1.91q-.147-1.095-.29-2.195c-.288-2.195-.585-4.464-.931-6.694-.044-.285-.072-.59-.102-.9-.147-1.569-.37-3.938-3.144-3.945h-.01a3.07 3.07 0 0 0-2.263.791c-.885.891-.87 2.251-.856 3.451.004.33.008.648-.01.941-.142 2.331-.113 4.638-.083 7.08q.017 1.243.024 2.526-.183.019-.37.041c-.753.082-1.572.172-2.392.233q-3.945.288-7.89.557l-4.384.306a3.97 3.97 0 0 0-2.93 1.281 2.5 2.5 0 0 0-.439 2.057c.197 1.066 1.297 1.853 2.27 2.547m66.799-1.719c.209.011.455.025.707.025q.182 0 .369-.011 3.368-.214 6.737-.414c6.274-.381 12.761-.773 19.135-1.295a20.4 20.4 0 0 0 5.27-1.42c.408-.15.814-.3 1.219-.44.724-.254 1.745-1.376 1.542-2.178a2.94 2.94 0 0 0-1.883-2.02c-1.636-.318-3.261-.493-4.693-.647q-.707-.074-1.317-.147a.6.6 0 0 0-.14 0c-1.299.112-2.529.216-3.719.315-2.489.207-4.841.404-7.163.638-6.012.607-11.987 1.265-16.52 1.77-1.124.125-3.755.417-3.465 3.18.255 2.441 2.46 2.563 3.921 2.643m33.38 56.298a11.8 11.8 0 0 0-4.481-.362c-10.815 1.036-19.85 1.972-28.43 2.942a3.9 3.9 0 0 0-2.027 1.179 9 9 0 0 1-.696.578.66.66 0 0 0-.281.52.67.67 0 0 0 .245.538q.348.297.662.63c.5.655 1.21 1.118 2.013 1.309 1.772.143 3.55.181 5.325.115q.749-.015 1.498-.022a.7.7 0 0 0 .13.158.67.67 0 0 0 .495.163l5.416-.471q8.552-.745 17.103-1.511a9.1 9.1 0 0 0 3.139-.713c.7-.343 2.181-1.438 2.03-2.452a3.62 3.62 0 0 0-2.141-2.601M101.315 95.3a6 6 0 0 0 1.601.186c.382 0 .764-.022 1.14-.043.26-.015.527-.03.787-.036q.152.069.317.06 2.09-.122 4.179-.235c3.191-.176 6.491-.358 9.735-.582 4.037-.282 7.987-.577 11.927-1.084a3.8 3.8 0 0 0 2.014-1.302q.32-.33.674-.626a.65.65 0 0 0 .251-.496.66.66 0 0 0-.214-.513c-.233-.215-.458-.444-.683-.672a8.7 8.7 0 0 0-1.918-1.6 3.7 3.7 0 0 0-2.195-.188 12 12 0 0 1-.469.048l-1.684.134c-4.758.378-9.676.769-14.515 1.207-3.001.272-6.953.656-10.897 1.211a3.3 3.3 0 0 0-1.697 1.058q-.258.255-.542.484a.664.664 0 0 0-.064 1.002q.282.288.535.603a3.7 3.7 0 0 0 1.718 1.383"/><path d="M20.823 144.103a89 89 0 0 0 13.952 1.761c8.73.356 17.608.553 26.195.744q5.237.118 10.473.244h.017a.66.66 0 0 0 .365-.108h9.643l3.68.006c14.45.028 29.396.057 43.986-2.223 5.09-.796 11.036-1.906 16.544-4.115 11.055-4.43 17.021-12.598 17.729-24.279.455-7.512.111-15.077-.223-22.39q-.097-2.107-.188-4.215c-.576-13.76-1.134-25.25-1.759-36.158-.423-7.397-1.026-17.132-1.945-26.83-1.339-14.148-12.753-24.39-27.756-24.903-11.104-.381-22.404-.54-33.335-.694C95.089.9 91.922.926 88.86.952c-5.026.042-10.222.085-15.305-.183C62.01.162 49.77.67 33.878 2.423 23.539 3.563 15.759 6.593 9.39 11.96c-5.25 4.425-7.808 9.557-7.82 15.69a170 170 0 0 1-.119 5.948c-.064 1.737-.185 3.512-.3 5.228a85 85 0 0 0-.26 11.05q.146 2.303.299 4.607c.789 12.036 1.604 24.482.776 36.761-.341 5.06-.248 10.219-.159 15.209l.02 1.12c.151 8.567 1.408 16.099 3.843 23.026 2.624 7.473 7.723 12.017 15.153 13.505m-.816-130.357.159-.086c4.47-2.448 9.423-3.303 14.113-3.961a230 230 0 0 1 32.199-1.943c4.486 0 8.908.074 13.245.165 7.874.165 15.88.273 23.622.376 6.784.09 13.799.185 20.697.317 3.19.038 6.373.31 9.523.813 11.324 1.88 17.586 9.223 18.111 21.232.43 9.865.827 19.898 1.212 29.601q.43 10.906.878 21.813c.109 2.63.259 5.301.405 7.884.229 4.042.465 8.224.548 12.329.099 4.87-.172 9.849-.455 14.531-.415 6.825-4.399 11.674-11.836 14.41a70 70 0 0 1-14.052 3.346c-16.122 2.396-32.668 2.292-48.669 2.188l-2.114-.014q-1.245-.006-2.488 0h-1.183a.67.67 0 0 0-.536.27q-5.26-.134-10.52-.259c-10.239-.25-20.825-.51-31.232-.851a52 52 0 0 1-7.98-1.106l-.47-.09c-4.4-.838-7.343-3.549-8.75-8.056a73.7 73.7 0 0 1-3.166-21.725c-.024-3.364.025-6.789.07-10.102.062-4.418.126-8.987.023-13.484-.182-7.82-.579-16.254-1.248-26.532-.53-8.104-.852-18.789 1.383-29.616a1.2 1.2 0 0 0 .065-.462c-.522-6.084 3.835-8.468 8.446-10.99z"/></g><defs><clipPath id="a"><path fill="#fff" d="M.777 0h163v147h-163z"/></clipPath></defs></svg>