<svg xmlns="http://www.w3.org/2000/svg" width="164" height="146" fill="none" viewBox="0 0 164 146"><g fill="#000" clip-path="url(#a)"><path d="M51.358 51.81a652 652 0 0 1 2.79-3.544c2.382-3.016 4.845-6.137 7.166-9.285 2.998-4.07 2.794-5.948-1.04-9.56a20 20 0 0 0-.992-.862c-.258-.218-.522-.436-.776-.664l-2.999-2.713a1343 1343 0 0 1-8.771-7.979q-3.314-3.048-6.603-6.12c-2.928-2.725-5.956-5.544-8.964-8.284-3.364-3.069-5.29-3.064-8.574.022a1764 1764 0 0 0-9.344 8.86q-4.1 3.903-8.211 7.792a11.88 11.88 0 0 0-3.79 8.755c.024 2.577.351 5.143.975 7.644 1.587 6.824 4.991 12.942 8.284 18.863l.815 1.469c8.544 15.428 17.788 27.736 28.27 37.629 1.94 1.83 3.777 3.855 5.556 5.814a79 79 0 0 0 7.65 7.687c7.977 6.663 16.732 13.431 26.764 20.692 8.258 5.977 15.524 10.302 22.858 13.613a41.4 41.4 0 0 0 17.116 3.867c2.534 0 5.062-.258 7.544-.768l.392-.08c3.769-.769 7.667-1.565 10.947-4.189 1.628-1.303 3.405-2.5 5.123-3.658.901-.607 1.802-1.215 2.688-1.84.794-.559 1.606-1.098 2.419-1.638a44 44 0 0 0 5.684-4.232c4.92-4.563 3.889-7.722.445-11.639-3.764-4.282-7.438-8.78-10.996-13.128a1818 1818 0 0 0-4.255-5.187 529 529 0 0 1-3.334-4.075c-2.134-2.624-4.34-5.337-6.591-7.941-4.279-4.95-6.091-5.11-11.402-1-3.671 2.842-7.374 5.762-10.96 8.587q-3.387 2.67-6.781 5.332a45 45 0 0 1-2.084 1.508l-.432.3a2750 2750 0 0 1-4.14-4.328C79.77 82.858 65.268 67.694 49.413 54.17q.245-.29.469-.56c.55-.66 1.024-1.224 1.476-1.8m-9.174 4.315a37493 37493 0 0 1 29.479 31.659l13.871 14.905c.582.627 1.175 1.245 1.768 1.862.994 1.034 2.022 2.11 2.98 3.201 3.087 3.517 6.644 3.959 11.898 1.476a23.6 23.6 0 0 0 4.611-3.166c.475-.385.949-.768 1.429-1.137 3.663-2.808 7.309-5.635 11.029-8.516l4.075-3.157 24.907 30.368c-1.277.889-2.556 1.812-3.799 2.709a107 107 0 0 1-10.771 7.126c-2.957 1.626-6.69 2.145-10.26 2.539-7.568.835-14.451-.452-20.47-3.816l-1.164-.653c-5.964-3.333-12.13-6.779-17.788-10.723a262 262 0 0 1-22.506-17.323 140 140 0 0 1-9.989-9.967c-2.251-2.402-4.578-4.886-6.985-7.212-6.2-5.985-12.05-13.221-18.405-22.774-5.641-8.476-9.961-17.36-13.444-24.93-1.324-2.88-2.617-6.304-2.174-9.869a7.37 7.37 0 0 1 1.377-3.84c3.851-4.367 7.886-8.707 11.788-12.905q1.666-1.791 3.33-3.587c8.79 9.927 18.382 19.257 27.478 27.88a59.7 59.7 0 0 1-10.083 10.736c-.238.193-.483.377-.727.563q-.72.526-1.378 1.129c-2.569 2.43-2.592 4.721-.077 7.42zm86.835-42.4C115.969 5.19 100.415.898 80.072.223 72.35-.084 60.085 2.407 53.146 4.874a13 13 0 0 0-3.358 1.777c-1.469 1.09-1.894 2.596-1.136 4.031.85 1.61 2.282 1.187 3.137.936q.25-.077.496-.137c9.58-2.235 16.987-3.23 24-3.23h.1c7.7.046 15.37.953 22.868 2.705 17.81 4.033 31.719 12.58 42.522 26.13 9.735 12.21 13.329 26.06 10.988 42.344a45.8 45.8 0 0 1-3.221 11.578c-1.073 2.519-1.204 4.627-.412 6.625a3.97 3.97 0 0 0 2.257 2.498c.317.11.652.167.988.166a4.4 4.4 0 0 0 2.15-.646c1.828-1.041 3.135-2.685 4.113-5.174 5.908-15.027 6.217-29.87.918-44.118-5.434-14.611-15.708-26.935-30.537-36.634"/><path d="M126.261 74.718c.666.904 1.691 2.024 3.226 2.024q.4 0 .789-.094c1.955-.458 2.31-2.376 2.481-3.298.8-4.396.241-8.93-1.603-13-1.476-3.373-2.905-6.311-4.371-8.983-4.244-7.738-8.728-13.093-14.108-16.851-11.047-7.718-20.44-11.421-30.454-12.008-4.786-.28-8.595.328-11.984 1.914-2.187 1.026-2.13 2.561-1.9 3.386.487 1.756 2.134 1.688 3.118 1.644.726-.03 1.5-.095 2.363-.193 1.304-.153 2.608-.316 3.912-.48l1.621-.202c5.156.056 10.456 1.356 16.677 4.083 11.075 4.858 18.73 11.684 23.401 20.867.769 1.51 1.483 3.085 2.175 4.609.481 1.06.962 2.12 1.464 3.169a15 15 0 0 1 1.699 7.965 7.8 7.8 0 0 0 1.494 5.448"/></g><defs><clipPath id="a"><path fill="#fff" d="M.777 0h163v146h-163z"/></clipPath></defs></svg>