<svg xmlns="http://www.w3.org/2000/svg" width="184" height="141" fill="none" viewBox="0 0 184 141"><g fill="#000" clip-path="url(#a)"><path d="M182.942 88.54c-.038-3.378-.077-6.868-.173-10.301q-.054-1.935-.09-3.871c-.086-4.209-.175-8.56-.628-12.813-.451-4.236-1.077-8.518-1.68-12.659-.625-4.288-1.272-8.716-1.724-13.088-1.07-10.331-8.552-20.998-22.505-20.044-4.866.23-9.74.154-14.596-.23-2.496-.143-5.076-.293-7.615-.354-1.687-.041-2.852-.763-4.023-2.491-1.464-2.158-3.018-4.3-4.522-6.372q-.931-1.285-1.858-2.572c-1.657-2.31-3.894-3.271-7.223-3.13-10.962.475-20.86.775-30.259.914-4.786.075-9.67-.244-14.236-.595-5.295-.401-9.35 1.358-12.733 5.554a67.4 67.4 0 0 1-6.911 7.018c-.824.758-1.646 1.515-2.453 2.284-.448.37-.947.675-1.48.905l-.26.13-.13-.455c-.212-.756-.389-1.39-.584-2.021-1.665-5.473-4.62-7.622-10.118-7.467-3.793.117-7.523.45-10.99.792a8.13 8.13 0 0 0-4.656 1.8 8.15 8.15 0 0 0-2.73 4.184 38 38 0 0 0-1.028 4.808c-.11.642-.22 1.296-.347 1.963l-.324.13a25 25 0 0 0-1.892.817c-6.004 2.984-9.529 6.543-11.097 11.2-1.146 3.408-1.381 7.148-1.466 10.685-.401 16.844-.71 33.972-1.007 50.535l-.226 12.476c-.22 11.969 3.169 20.598 10.666 27.164 2.725 2.383 5.183 4.17 8.335 5.142 5.84 1.802 11.753 2.09 17.549 2.09 1.374 0 2.74-.016 4.1-.032 31.25-.371 58.592-.751 83.591-1.161 11.626-.195 22.082-.527 31.962-1.025a35.7 35.7 0 0 0 10.224-2.053c8.89-3.219 16.763-16.364 15.899-26.54-.602-7.074-.684-14.314-.762-21.317M11.693 39.28c-.06-5.346 1.155-8.513 7.96-10.982 4.075-1.48 8.617-2.014 13.01-2.526 1.267-.149 2.532-.297 3.785-.466 2.18-.295 4.429-.444 6.603-.589 2.072-.138 4.214-.28 6.315-.548.98-.125 3.445-.576 5.156-2.06A141 141 0 0 0 65.1 11.929c1.823-1.95 3.488-2.754 5.73-2.754h.085c10.659.096 20.572.098 30.306.005 4.756-.045 9.447-.39 13.003-.68a4.55 4.55 0 0 1 4.504 2.115c2.438 3.49 4.409 6.36 6.202 9.036a7.85 7.85 0 0 0 6.635 3.714c3.254.111 6.506.247 9.759.384 4.976.208 10.124.423 15.185.541 7.705.18 12.102 3.732 13.071 10.554.418 2.94.872 5.923 1.311 8.808 1.969 12.93 4.005 26.298 3.319 39.72-.345 6.749-.092 13.626.152 20.278.092 2.542.189 5.172.25 7.752.184 7.729-4.932 15.421-11.406 17.15a41.7 41.7 0 0 1-9.723 1.117c-13.316.284-26.679.421-39.601.554-4.424.045-8.922.032-13.273.021q-3.016-.007-6.032-.01a.6.6 0 0 0-.256.05.64.64 0 0 0-.257.188q-6.79.077-13.583.161c-13.274.159-27 .325-40.501.42a99 99 0 0 1-10.878-.65c-8.055-.852-15.445-7.872-16.473-15.651a177 177 0 0 1-1.263-18.855c-.174-7.302-.106-14.739-.04-21.93l.03-3.36c.031-3.795.1-7.656.168-11.39.122-6.534.244-13.29.17-19.937m13-20.373c.301-3.378.98-3.978 4.074-4.282 1.803-.176 3.652-.27 5.44-.363q.9-.047 1.799-.096a23 23 0 0 1 1.242-.046c1.87 0 2.265.546 2.596 3.52z"/><path d="M72.8 102.653a39.4 39.4 0 0 0 17.002 3.301q.974.047 1.953.047c8.281 0 16.563-2.548 25.249-7.76a23.5 23.5 0 0 0 5.841-5.199c4.951-5.952 7.52-13.455 7.852-22.937a40.07 40.07 0 0 0-7.815-25.64 34.8 34.8 0 0 0-10.22-9.086 34.8 34.8 0 0 0-12.925-4.446c-5.657-.828-11.917.36-17.292 1.634-15.013 3.558-24.06 12.422-26.89 26.346-.902 4.43-1.791 9.64-1.554 14.691.664 14.033 6.989 23.807 18.8 29.049m47.668-32.092.085.016c-.228 1.023-.43 2.06-.627 3.067a41.7 41.7 0 0 1-2.212 8.288c-1.388 3.26-3.595 6.154-5.906 7.74-9.614 6.6-20.095 8.672-31.155 6.162-11.973-2.716-18.736-12.41-17.651-25.304a98 98 0 0 1 2.265-13.335c1.79-7.828 11.445-16.842 21.266-16.842h.166l.584.006c5.54.054 10.772.106 15.845 2.154 9.987 4.032 15.477 11.6 16.784 23.137.083.95.099 1.906.046 2.859-.015.465-.029.931-.029 1.394a.67.67 0 0 0 .539.657m19.288-22.651c1.7.171 3.429.295 5.1.416q1.104.08 2.207.163h.036a.67.67 0 0 0 .379-.135q.498 0 .998.006c.979.007 1.991.014 2.995-.013 4.808-.135 7.193-2.256 7.733-6.877a50 50 0 0 0 .333-7.413c-.169-5.29-2.192-7.449-6.982-7.449h-.018c-4.393.006-8.826.78-13.118 1.53l-1.74.303c-2.318.397-3.816 2.425-3.816 5.167a77 77 0 0 0 .6 9.343c.345 2.848 2.275 4.654 5.293 4.959m1.51-13.71c.577-.658 1.892-.91 4.522-.856q.318.012.632.058c.223.029.446.057.67.065 2.23.098 3.576.158 3.988.623s.309 1.803.14 4.023c-.105 1.378-.174 2.29-.445 2.534-.27.245-1.206.253-2.617.254h-6.827l-.112-.7c-.103-.643-.17-1.06-.231-1.48-.374-2.557-.293-3.868.28-4.52z"/></g><defs><clipPath id="a"><path fill="#fff" d="M.777 0h183v141h-183z"/></clipPath></defs></svg>