<svg xmlns="http://www.w3.org/2000/svg" width="153" height="129" fill="none" viewBox="0 0 153 129"><g fill="#000" clip-path="url(#a)"><path d="M73.254 126.878c-16.15.619-31.922 1.282-47.7 1.788-4.435.143-8.886-.176-13.33-.286a9 9 0 0 1-.997-.079c-8.477-1.205-12.264-6.963-8.81-14.79a208 208 0 0 1 11.855-22.376c13.691-22.93 27.607-45.722 41.472-68.548 2.657-4.375 5.468-8.656 8.193-12.99.469-.746 1.123-1.498 1.246-2.318.928-6.234 8.858-8.796 14.444-5.74a17.9 17.9 0 0 1 5.252 4.518c5.182 6.544 10.36 13.108 15.167 19.93 13.852 19.66 27.542 39.439 41.253 59.199 4.324 6.23 8.358 12.631 10.317 20.097.798 3.041 1.35 6.073.659 9.234-.969 4.43-3.435 7.605-7.902 8.526a81.4 81.4 0 0 1-13.176 1.748c-16.55.652-33.111 1.043-49.667 1.564-2.887.094-5.77.363-8.276.523m-63.002-8.172c2.11 1.31 4.051 1.089 5.873 1.026 14.879-.511 29.758-1.027 44.626-1.694 14.986-.67 29.962-1.535 44.945-2.27 9.767-.478 19.541-.834 29.307-1.339 2.055-.106 4.092-.622 6.616-1.028-.464-2.355-.688-4.319-1.248-6.181-1.658-5.515-4.774-10.281-8.055-14.92-12.089-17.08-24.136-34.191-36.392-51.15-6.514-9.014-13.414-17.748-20.175-26.582a30 30 0 0 0-2.624-2.708c-2 .391-2.565 1.798-3.269 3.03-2.426 4.252-4.793 8.535-7.248 12.77a42351 42351 0 0 1-33.002 56.836c-5.315 9.131-10.729 18.204-16.022 27.347-1.25 2.171-2.198 4.508-3.332 6.862z"/><path d="M69.797 58.962c0-4.114-.069-8.229.035-12.34.07-1.55.332-3.084.78-4.568a2.38 2.38 0 0 1 1.022-1.495 2.36 2.36 0 0 1 1.776-.337 4.22 4.22 0 0 1 2.483 1.832 8.5 8.5 0 0 1 .74 3.54q.763 12.645 1.398 25.298a11.5 11.5 0 0 1-.455 3.924A3.88 3.88 0 0 1 76.11 77a3.87 3.87 0 0 1-2.517.747 3.8 3.8 0 0 1-2.328-.802 3.8 3.8 0 0 1-1.35-2.065 14.8 14.8 0 0 1-.614-3.909c-.077-4.001-.028-8.005-.028-12.007zm8.901 31.265a3.9 3.9 0 0 1-1.183 2.811 3.87 3.87 0 0 1-2.84 1.091 4.23 4.23 0 0 1-2.763-1.311 4.25 4.25 0 0 1-1.163-2.835c.04-2.224 2.107-4.39 4.17-4.374s3.801 2.143 3.779 4.618"/></g><defs><clipPath id="a"><path fill="#fff" d="M.777 0h152v129h-152z"/></clipPath></defs></svg>