<svg xmlns="http://www.w3.org/2000/svg" width="104" height="121" fill="none" viewBox="0 0 104 121"><g clip-path="url(#a)"><path fill="#000" d="M55.38 55.397c4.043 0 7.803-.054 11.559.029a11.4 11.4 0 0 1 3.883.656c2.957 1.167 3.255 3.939.762 5.978a6.64 6.64 0 0 1-4.65 1.431q-4.817-.183-9.635-.31c-.528-.016-1.058.06-1.49.087v27.789c1.512.117 2.68.26 3.85.29 11.52.322 23.044.566 34.56.985a25 25 0 0 1 6.773 1.328c1.716.565 2.481 2.288 2.368 4.047a4.04 4.04 0 0 1-.801 2.348 4 4 0 0 1-2.021 1.428 10.6 10.6 0 0 1-3.233.612q-6.314-.033-12.627-.277c-8.192-.313-16.381-.693-24.573-1.031-1.087-.045-2.178-.006-3.468-.006 0 1.731-.11 3.252.023 4.758.255 2.876.768 5.734.93 8.614a9.6 9.6 0 0 1-.673 4.19 3.16 3.16 0 0 1-.968 1.347 3.13 3.13 0 0 1-1.514.667 3.1 3.1 0 0 1-1.642-.194 3.16 3.16 0 0 1-1.318-1.005 11.75 11.75 0 0 1-2.276-4.717c-.682-3.137-.96-6.364-1.37-9.557-.184-1.419-.283-2.848-.44-4.477-1.134-.094-2.09-.23-3.045-.246-12.41-.199-24.82-.372-37.228-.585a11.6 11.6 0 0 1-3.258-.426 3.47 3.47 0 0 1-1.92-1.252 3.5 3.5 0 0 1-.728-2.178 3.7 3.7 0 0 1 .893-2.29 3.67 3.67 0 0 1 2.127-1.216 41.6 41.6 0 0 1 6.276-.64c10.966-.245 21.934-.415 32.902-.605 1.093-.019 2.187 0 3.712 0l-.717-28.103c-2.25 0-4.322.006-6.395 0-2.437-.01-4.883.09-7.31-.081-2.227-.156-3.49-1.412-3.654-3.196-.183-1.983.912-3.425 3.255-3.93a21 21 0 0 1 3.961-.288c3.293-.073 6.586-.097 10.17-.144 0-1.573.024-2.77 0-3.968-.318-14.472.269-28.917 1.303-43.347.105-1.666.33-3.321.67-4.955.378-1.73 1.533-2.58 3.034-2.51 1.604.075 2.391 1.073 2.6 2.537q.293 1.977.313 3.976c.057 9.791.014 19.581.136 29.374.072 5.783.385 11.564.602 17.344q.101.868.292 1.719"/></g><defs><clipPath id="a"><path fill="#fff" d="M.777 0h103v121h-103z"/></clipPath></defs></svg>