<svg xmlns="http://www.w3.org/2000/svg" width="94" height="73" fill="none" viewBox="0 0 94 73"><g fill="#000" clip-path="url(#a)"><path d="M13.908 72.39c-2.829 0-5.056.066-7.277-.027a13.3 13.3 0 0 1-3.584-.617C1.345 71.184.594 69.942.864 68.48a2.71 2.71 0 0 1 2.781-2.384 891 891 0 0 0 8.654-.614c6.763-.507 13.518-1.06 20.281-1.525 8.985-.618 17.97-1.268 26.963-1.72 7.553-.378 15.117-.575 22.678-.671 2.215.073 4.417.38 6.568.912 1.34.27 2.513.972 2.62 2.617.101 1.558-.743 2.498-2.033 3.14a18.3 18.3 0 0 1-8.058 1.832c-5.008.054-10.015.02-15.016.18q-17.84.568-35.675 1.295c-5.775.23-11.547.582-16.719.849m32.356-46.455c-12.08.516-25.194 1.077-38.306 1.633-.78.033-1.56.079-2.334.037-1.337-.073-2.361-.63-2.695-2.044a2.824 2.824 0 0 1 1.477-3.382 8.8 8.8 0 0 1 3.16-.939c7.19-.694 14.38-1.7 21.588-1.868 18.905-.44 37.818-.522 56.729-.687 1.66.03 3.312.247 4.924.644a3.01 3.01 0 0 1 2.384 2.898 2.944 2.944 0 0 1-1.976 3.177 14.6 14.6 0 0 1-4.523.804c-5.007.004-10.01-.228-15.017-.26-8.123-.05-16.245-.013-25.411-.013m.723 22.317c-4.214 0-8.428.042-12.64-.02a32 32 0 0 1-4.952-.465c-1.536-.268-2.637-1.173-2.753-2.883-.1-1.49 1-2.847 2.737-3.324a8.7 8.7 0 0 1 1.975-.222c9.755-.346 19.504-.71 29.258-.982 1.327.001 2.643.232 3.89.684a3.92 3.92 0 0 1 2.732 3.47c.159 1.495-.933 3.113-2.731 3.788a9.9 9.9 0 0 1-3.548.635c-4.657-.062-9.312-.255-13.969-.4zM49.25 7.658c-4.89-.144-9.783-.261-14.672-.457a18 18 0 0 1-3.61-.574A2.78 2.78 0 0 1 29.3 5.564a2.8 2.8 0 0 1-.543-1.905 3.05 3.05 0 0 1 2.36-2.915A10.5 10.5 0 0 1 33.76.506c9.565-.162 19.13-.33 28.695-.43 1.442.024 2.877.196 4.284.511a3.165 3.165 0 0 1 2.667 3.022 3.2 3.2 0 0 1-1.972 3.538c-1.44.562-2.964.873-4.508.92-4.553.116-9.116.042-13.674.042z"/></g><defs><clipPath id="a"><path fill="#fff" d="M.777 0h93v73h-93z"/></clipPath></defs></svg>