<svg xmlns="http://www.w3.org/2000/svg" width="163" height="137" fill="none" viewBox="0 0 163 137"><g clip-path="url(#a)"><path fill="#000" d="M12.039 97.716c6.429 4.779 14.074 7.302 22.725 7.496 8.706.199 17.56.267 26.121.333q5.4.04 10.803.093c.724.007 1.447.006 2.203.003h.486l1.31 20.514-2.895-1.494c-3.553-1.833-6.91-3.564-10.259-5.331q-.168-.09-.332-.182c-.883-.492-2.09-1.163-3.444.082a.66.66 0 0 0-.211.423c-.207 2.113 1.009 3.539 2.082 4.797.225.264.454.527.661.795 3.005 3.838 7.056 6.443 10.974 8.962l1.056.679a10.26 10.26 0 0 0 5.59 1.705 9.75 9.75 0 0 0 6.544-2.556c1.384-1.239 2.827-2.469 4.22-3.659 2.257-1.926 4.591-3.918 6.765-6.016a47.5 47.5 0 0 0 4.316-5.01c.567-.724 1.123-1.434 1.685-2.107.075-.09.125-.2.143-.315a.64.64 0 0 0-.035-.345c-.8-2.103-2.039-2.011-3.146-1.646a27.9 27.9 0 0 0-9.15 5.077c-1.838 1.521-3.739 3.022-5.751 4.611l-1.784 1.41c.102-2.876.065-5.677.023-8.401-.138-4.001-.039-8.006.298-11.995l.224-.033q.52-.09 1.047-.117c3.731-.099 7.534-.075 11.21-.051 7.337.045 14.919.095 22.385-.822 2.875-.352 5.846-.453 8.718-.544 1.48-.049 3.01-.099 4.516-.184 12.175-.682 21.476-6.724 27.644-17.956 3.997-7.277 4.683-15 1.985-22.337-3.556-9.67-10.303-16.836-20.063-21.3a50.3 50.3 0 0 0-21.348-4.686h-.232l-.004-.044c-.033-.34-.058-.604-.072-.869-.72-14.176-7.135-24.427-19.064-30.46-15.91-8.047-31.888-7.907-47.495.417-11.07 5.904-17.861 15.452-20.184 28.38a55 55 0 0 0-.635 6.102c-.05.763-.1 1.525-.163 2.28-.236.065-.429.121-.625.16C15.87 46.533 6.235 55.67 2.246 70.735c-2.775 10.46.8 20.293 9.794 26.981m71.804-9.435c.2-6.71.39-13.05.519-19.51a64 64 0 0 0-.443-7.687c-.314-3.029-2.035-3.674-3.424-3.683h-.024c-1.175 0-3.162.481-3.456 3.654-.539 5.834-.944 11.712-1.303 17.197-.194 3.01-.357 6.07-.513 9.029-.114 2.176-.228 4.353-.358 6.527q-.071.847-.247 1.68l-.075.394q-.727.002-1.437.01c-1.403.01-2.726.022-4.057-.02l-7.233-.22c-9.392-.286-19.105-.582-28.65-.97a25.34 25.34 0 0 1-13.69-4.354c-6.396-4.372-8.86-10.3-7.323-17.618 2.55-12.135 10.073-19.904 22.362-23.097 2.885-.749 4.216-2.166 4.593-4.893a42 42 0 0 1 .398-2.245c.108-.55.216-1.099.308-1.65C42.752 23.013 56.73 11.67 75.13 11.67q1.906 0 3.876.164c5.007.4 9.89 1.754 14.385 3.987 4.588 2.293 8.019 5.373 10.2 9.156l.184.319c3.102 5.377 6.309 10.937 6.75 17.405.171 2.496 2.23 4.145 5.093 4.095a45.13 45.13 0 0 1 22.551 5.79 26.57 26.57 0 0 1 10.74 10.954c3.257 6.037 2.942 12.149-.934 18.164a21.8 21.8 0 0 1-6.85 6.976 21.86 21.86 0 0 1-9.22 3.285c-2.729.365-5.529.625-8.235.876-3.596.333-7.312.678-10.938 1.275-6.64 1.093-13.445 1.163-20.023 1.228-2.759.028-5.611.055-8.419.158a3.4 3.4 0 0 1-.656-.094q.102-3.591.209-7.124z"/></g><defs><clipPath id="a"><path fill="#fff" d="M.777 0h162v137h-162z"/></clipPath></defs></svg>