<svg xmlns="http://www.w3.org/2000/svg" width="159" height="156" fill="none" viewBox="0 0 159 156"><g clip-path="url(#a)"><path fill="#000" d="M7.952 35.425c3.715.073 7.49.051 11.14.03q2.448-.013 4.893-.019h6.918l.041.54c.059.758.115 1.477.148 2.196l.445 9.302q1.32 27.723 2.625 55.445c.121 2.6.209 5.252.293 7.815.06 1.82.12 3.645.195 5.467.185 4.67 2.165 6.603 6.833 6.674 1.184.017 2.391.065 3.56.114 1.567.065 3.177.13 4.79.121q24.238-.107 48.477-.251l17.625-.097c.935-.006 1.868-.004 2.816 0h.759l.038.53c.041.562.071.971.083 1.38q.096 3.25.184 6.5c.143 5.168.291 10.513.489 15.768.034 1.616.32 3.217.848 4.745a5.84 5.84 0 0 0 5.371 3.757q.12.001.241-.005a5.67 5.67 0 0 0 5.339-4.537c.286-1.64.383-3.306.29-4.968v-.113c-.072-3.943-.164-7.887-.255-11.83q-.117-5.05-.222-10.099c.022-.276.088-.547.195-.803l.011-.032h4.248c4.521 0 8.973 0 13.431-.007h.532c.972.032 1.945-.022 2.908-.161 3.03-.53 5.164-2.735 5.075-5.246-.084-2.387-2.233-4.294-5.226-4.637a63 63 0 0 0-6.735-.296c-3.446-.028-6.845-.023-10.44-.017q-1.899 0-3.841.004l-.044-.494c-.045-.494-.076-.825-.085-1.157q-.277-9.183-.546-18.366c-.465-15.765-.945-32.066-1.486-48.1a111 111 0 0 0-1.271-12.966c-.586-3.875-2.268-5.373-6.417-5.72l-.521-.047a18 18 0 0 0-1.528-.101q-18.735-.206-37.47-.407-19.985-.215-39.968-.434c-.546-.006-1.111-.05-1.71-.096l-.35-.028q0-1.996.01-3.957c.014-3.865.027-7.516-.045-11.235a23 23 0 0 0-.8-5.725c-.66-2.368-2.463-3.61-4.701-3.246-2.575.42-2.724 2.526-2.833 4.064l-.005.078c-.26 3.62-.494 7.241-.73 10.864q-.207 3.192-.42 6.382c-.058.864-.14 1.728-.22 2.6l-.06.646-.418.028c-.54.037-.965.065-1.39.079q-3.258.101-6.517.186c-4.757.13-9.675.267-14.512.477-3.993.173-6.536 2-6.636 4.768a3.8 3.8 0 0 0 1.014 2.85c1.07 1.137 2.934 1.736 5.537 1.787m109.867-.32c.963 6.478 2.315 68.699 1.668 77.246l-73.38 1.385-5.067-78.661c15.1-.503 30.202-.308 44.815-.119 10.49.136 21.334.274 31.964.15z"/></g><defs><clipPath id="a"><path fill="#fff" d="M.777 0h158v156h-158z"/></clipPath></defs></svg>