<svg xmlns="http://www.w3.org/2000/svg" width="145" height="117" fill="none" viewBox="0 0 145 117"><g clip-path="url(#a)"><path fill="#000" d="M29.375 35.449c10.423 5.005 20.562 9.525 30.342 14.72 4.54 2.41 7.991 2.214 12.459-.208 20.856-11.304 41.919-22.23 62.912-33.28a25 25 0 0 1 3.308-1.553 4.19 4.19 0 0 1 5.277 1.65 4.206 4.206 0 0 1-.936 5.46 12.5 12.5 0 0 1-2.744 1.852 17592 17592 0 0 1-39.841 20.689c-7.383 3.823-14.784 7.612-22.173 11.425-.77.398-1.513.854-2.594 1.467 1.073.617 1.853 1.126 2.683 1.536q26.4 13.038 52.807 26.065a28 28 0 0 1 4.586 2.668c1.723 1.314 2.189 3.146 1.569 4.711-.672 1.696-2.427 2.687-4.682 2.245a21 21 0 0 1-5.005-1.711c-9.989-4.815-19.989-9.613-29.894-14.598-9.71-4.885-19.316-9.976-28.953-15.003-1.427-.744-2.671-1.232-4.339-.35-10.783 5.7-21.622 11.294-32.437 16.934q-.481.35-.884.788c1.114.574 2.076 1.045 3.012 1.554 7.99 4.329 10.985 12.618 7.534 20.995-1.427 3.461-3.55 6.468-6.761 8.456-6.02 3.725-12.513 5.695-19.639 4.299-7.157-1.402-13.314-8.32-14.03-15.555a6.9 6.9 0 0 1 .145-2.309c1.492-5.98 4.186-11.289 9.362-14.865a126 126 0 0 1 11.092-6.704c11.567-6.346 23.193-12.585 35.122-19.045a24 24 0 0 0-2.216-1.45q-18.033-8.97-36.088-17.882a47 47 0 0 0-4.947-1.933c-6.094-2.177-9.889-6.55-11.924-12.561a11.03 11.03 0 0 1-.21-6.24c.787-3.4 2.354-6.57 4.577-9.257a22.4 22.4 0 0 1 8.229-6.224 22.37 22.37 0 0 1 20.042 1c8.064 4.497 10.878 13.382 6.851 21.751a18.75 18.75 0 0 1-8.339 8.78c-.962.516-1.935 1.001-3.273 1.683m-10.22 72.298c1.32-.095 2.217-.082 3.084-.235 4.346-.767 8.403-2.087 10.884-6.164 2.518-4.138 1.86-8.489-1.695-11.314-7.172-5.701-16.365-3.342-20.423 4.748-3.114 6.207 1.886 13.708 8.15 12.965m.88-79.489q1.165-.025 2.32-.19c4.222-.775 8.181-2.054 10.656-5.968 3.013-4.765 1.816-9.704-3.061-12.48a14.7 14.7 0 0 0-7.943-2.04c-7.621.325-10.716 4.22-11.926 11.748-.8 4.982 3.986 9.032 9.953 8.93"/></g><defs><clipPath id="a"><path fill="#fff" d="M.777 0h144v117h-144z"/></clipPath></defs></svg>