<svg xmlns="http://www.w3.org/2000/svg" width="154" height="155" fill="none" viewBox="0 0 154 155"><g fill="#000" clip-path="url(#a)"><path d="m147.754 8.648.699-.135a61 61 0 0 0 2.293-.474 3.64 3.64 0 0 0 2.918-3.432A3.646 3.646 0 0 0 151.019.96a16.4 16.4 0 0 0-4.754-.683c-4.042.097-8.149.24-12.123.379-5.397.186-10.977.38-16.463.464-24.816.38-51.924.728-82.874 1.062-6.848.075-13.805-.097-19.943-.248-1.956-.048-3.95-.207-5.879-.361a193 193 0 0 0-3.713-.269c-2.645-.15-3.668 1.297-4.055 2.542-.579 1.862.251 3.635 2.164 4.63q.848.422 1.74.744l.363.14q0 1.875.008 3.73c.007 2.91.015 5.918-.014 8.859-.08 8.12-.26 16.378-.436 24.363-.496 22.561-1.009 45.89.713 68.846.288 3.847 1.53 5.201 5.105 5.574 3.003.343 6.024.501 9.047.473 8.703-.189 17.549-.445 26.104-.693q5.245-.154 10.494-.301c.495-.014.992-.012 1.63-.008l-.615.755c-.915 1.12-1.705 2.086-2.439 3.103-4.544 6.291-9.695 13.425-14.703 20.556a16.3 16.3 0 0 0-2.01 4.376 4.21 4.21 0 0 0 1.649 4.852 4.05 4.05 0 0 0 2.438.794 4.93 4.93 0 0 0 3.01-1.079 12.7 12.7 0 0 0 2.188-2.264c6.534-8.412 13.055-16.835 19.669-25.377l4.74-6.123 17.978-.588 3.566 5.695c2.936 4.695 5.823 9.312 8.721 13.923q.756 1.202 1.504 2.407c1.761 2.827 3.582 5.749 5.52 8.531a13.7 13.7 0 0 0 4.043 3.748 4.72 4.72 0 0 0 5.775-.42 5.04 5.04 0 0 0 1.443-5.892 23.3 23.3 0 0 0-2.239-4.201 3129 3129 0 0 0-10.592-15.72q-2.61-3.86-5.216-7.722a3 3 0 0 1-.202-.359c.295-.033.562-.059.82-.065q4.824-.093 9.648-.172c7.42-.13 15.094-.259 22.64-.471a48 48 0 0 0 5.64-.614 87 87 0 0 1 2.967-.41c2.549-.291 4.113-1.877 4.649-4.714a19.3 19.3 0 0 0 .221-3.619v-.148q-.013-6.896-.01-13.794c0-11.85-.004-24.103-.149-36.155-.13-10.787-.406-21.752-.671-32.355q-.186-7.455-.36-14.91a86 86 0 0 1-.007-2.438zM16.438 111.194l-.048-.014-.041-.25a12 12 0 0 1-.175-1.427q-.186-4.767-.404-9.534c-.332-7.548-.675-15.353-.794-23.028-.176-11.33-.242-22.854-.304-33.998-.04-7.18-.083-14.605-.154-21.907-.024-2.482-.19-4.957-.366-7.579-.07-1.028-.14-2.08-.204-3.167 33.215 1.1 66.89.39 99.464-.303 8.233-.174 16.737-.354 25.133-.503v98.581c-41.329-.591-82.259.489-121.655 3.215a2.3 2.3 0 0 1-.452-.086"/><path d="M129.763 30.076a9.16 9.16 0 0 0 2.139-4.044 4.25 4.25 0 0 0-2.528-5.067 4.24 4.24 0 0 0-2.026-.276 7.9 7.9 0 0 0-3.654 1.393 39 39 0 0 0-4.061 3.382l-.335.306q-14.644 13.346-29.332 26.769l-8.801 8.035-.021-.01c-3.33-3.835-7.398-6.856-11.333-9.776-1.954-1.45-3.975-2.95-5.868-4.524-2.624-2.18-4.575-2.242-7.455-.233a24 24 0 0 0-4.263 3.898c-2.807 3.2-5.625 6.485-8.35 9.66a2235 2235 0 0 1-6.656 7.721 948 948 0 0 1-6.282 7.148 989 989 0 0 0-8.202 9.368 14.4 14.4 0 0 0-2.704 4.418 4.26 4.26 0 0 0 .798 3.624 2.66 2.66 0 0 0 2.08.952 4.05 4.05 0 0 0 2.14-.679 7.4 7.4 0 0 0 1.4-1.167l2.334-2.45c8.195-8.59 16.668-17.472 24.975-26.236 1.38-1.456 2.73-2.99 4.16-4.614l1.75-1.986q1.517 1.595 2.996 3.159c2.975 3.141 5.786 6.11 8.702 9.06a21.3 21.3 0 0 0 4.592 3.54c2.31 1.308 4.515 1.318 6.377.03a52 52 0 0 0 4.308-3.222l4.279-3.663c9.288-7.951 18.891-16.173 28.262-24.347 3.789-3.309 7.324-6.846 10.579-10.17"/></g><defs><clipPath id="a"><path fill="#fff" d="M.777 0h153v155h-153z"/></clipPath></defs></svg>