<svg xmlns="http://www.w3.org/2000/svg" width="159" height="157" fill="none" viewBox="0 0 159 157"><g fill="#000" clip-path="url(#a)"><path d="M35.017 132.618c.85-.058 1.7-.13 2.55-.201 1.765-.147 3.588-.3 5.37-.315 4.077-.039 8.227.029 12.24.092l3.088.047q.4.025.784.136a40 40 0 0 1-6.334 12.656c-1.402 1.917-2.752 2.596-4.67 2.345a11.6 11.6 0 0 0-3.864.213 3.49 3.49 0 0 0-2.822 3.127c-.115.974.155 2.332 2.095 3.265a8.8 8.8 0 0 0 2.72.87q1.098.136 2.195.28c2.757.359 5.608.729 8.436.834 4.135.153 8.337.196 12.402.237 2.43.024 4.859.049 7.287.096a9.6 9.6 0 0 1 1.794.273c.305.065.609.13.91.184q.057.01.114.01h16.023a.6.6 0 0 0 .174-.024c.202-.055.404-.122.605-.189a4 4 0 0 1 1.054-.26c.921-.038 1.868-.041 2.782-.045a44 44 0 0 0 4.931-.205 17.5 17.5 0 0 0 5.917-1.641 3.4 3.4 0 0 0 2.081-2.842 3.47 3.47 0 0 0-1.958-3.008 10.3 10.3 0 0 0-3.667-1.162 14 14 0 0 0-2.624-.073q-.328.012-.657.02c-.617-1.634-1.316-3.216-1.995-4.75-1.357-3.069-2.644-5.98-3.328-9.278h2.812c2.991 0 5.836-.006 8.683.015.73.006 1.484.071 2.211.131.47.04.94.08 1.411.106.642.036 1.285.087 1.928.137q2.383.237 4.777.163c3.519-.191 7.028-.608 10.296-1.031 3.351-.434 7.196-1.059 10.426-3.003 11.573-6.971 17.287-16.924 16.973-29.585-.191-7.744-.218-15.625-.244-23.247l-.013-3.713c-.012-3.106.022-6.267.054-9.325.066-5.99.131-12.182-.145-18.27a164 164 0 0 0-2.512-21.161c-1.375-7.827-4.568-13.536-9.76-17.453A33.2 33.2 0 0 0 122.678.24c-7.355.508-14.089.847-20.588 1.036-6.67.196-13.46.17-20.027.144-9.614-.035-19.556-.073-29.34.575-4.06.269-8.208.36-12.22.45-3.635.08-7.395.163-11.091.378-7.105.413-13.22 2.685-18.177 6.753a24.7 24.7 0 0 0-6.286 7.365 24.7 24.7 0 0 0-2.975 9.22c-.459 4.531-.67 9.084-.63 13.638l-.004.38c-.019 1.862.108 3.742.23 5.56.097 1.448.194 2.945.222 4.41.223 12.997.42 26.746.624 43.27q-.01 1.126-.156 2.245a20 20 0 0 0-.164 2.376c.012 1.224.08 2.46.146 3.656.078 1.412.16 2.872.144 4.299-.057 5.215 1.673 10.238 5.141 14.93 6.333 8.554 15.583 12.496 27.49 11.692m114.454-57.57.004 6.817c.006 6.79.013 13.81-.036 20.716a16 16 0 0 1-.693 4.371 28.1 28.1 0 0 1-5.087 9.718c-3.521 4.355-8.346 6.956-14.752 7.952-3.565.554-7.327.969-11.504 1.268a19 19 0 0 1-3.349-.166c-.724-.077-1.473-.157-2.218-.186-2.831-.11-5.664-.192-8.496-.274-5.404-.157-10.994-.319-16.472-.677-7.958-.521-16.002-.652-23.956-.652-3.98 0-7.939.034-11.852.065-5.875.049-11.95.097-17.92.036-4.396-.045-7.905-.742-11.043-2.196a18.65 18.65 0 0 1-6.106-4.383 18.7 18.7 0 0 1-3.884-6.441c-1.722-4.661-2.304-8.925-1.78-13.037q.188-1.811.125-3.631-.007-.558-.008-1.112.01-4.532.027-9.065c.027-8.06.055-16.394-.004-24.592-.024-3.208-.136-6.463-.244-9.612-.13-3.713-.26-7.551-.246-11.32a36.95 36.95 0 0 1 3.59-16.052c2.524-5.233 7.088-8.503 13.573-9.719 3.812-.716 7.601-1.1 10.806-1.384 13.966-1.232 28.219-1.35 41.998-1.465q4.63-.039 9.263-.09 6.573-.079 13.146-.144c6.95-.072 14.136-.147 21.205-.253 4.937-.088 9.778 1.472 15.249 4.865 3.138 1.945 5.332 5.159 6.521 9.55.951 3.518 1.64 7.179 2.305 10.722l.353 1.873c.443 2.326.822 4.886 1.158 7.83a50 50 0 0 1 .303 5.568q.036 9.171.017 18.344v6.64a1 1 0 0 0 .007.115zm-86.067 70.747a47 47 0 0 0 2.31-5.472 44 44 0 0 0 1.31-5.698c.124-.678.25-1.362.39-2.051l22.52.391c.374 5.283 2.01 9.952 3.815 14.228h-31c.214-.465.435-.932.655-1.398"/><path d="M126.331 34.015c-1.485-.977-2.85-.033-3.506.42a20 20 0 0 0-3.412 2.83c-3.146 3.439-6.295 6.98-9.34 10.403l-2.388 2.682a7761 7761 0 0 0-5.933 6.669 7672 7672 0 0 1-11.92 13.37c-.716.801-1.506 1.548-2.341 2.34q-.403.38-.815.776-.866-.648-1.695-1.278c-1.516-1.148-2.948-2.231-4.442-3.257l-.61-.418c-4.103-2.816-8.346-5.729-12.626-8.437-3.966-2.507-6.366-2.15-9.519 1.425a194 194 0 0 1-4.69 5.105q-5.562 5.88-11.13 11.752a24204 24204 0 0 0-15.078 15.928 32 32 0 0 0-2.366 2.866 2.67 2.67 0 0 0 .366 3.852 2.7 2.7 0 0 0 1.852.797 3.07 3.07 0 0 0 2.02-.875c1.164-1.035 2.266-2.161 3.352-3.27q4.52-4.62 9.038-9.243 8.918-9.126 17.853-18.234c.984-1.001 2.066-1.954 3.112-2.874q.555-.487 1.105-.977l.376.226c.488.291.91.543 1.296.826l3.72 2.714c4.656 3.396 9.47 6.906 14.167 10.41 3.552 2.65 5.928 2.605 9.077-.183a56 56 0 0 0 4.742-4.74c7.768-8.75 14.279-16.118 20.807-23.636a154 154 0 0 0 7.477-9.358 19.8 19.8 0 0 0 2.427-4.84c.596-1.597.241-2.973-.976-3.771"/></g><defs><clipPath id="a"><path fill="#fff" d="M.777 0h158v157h-158z"/></clipPath></defs></svg>