<svg xmlns="http://www.w3.org/2000/svg" width="153" height="145" fill="none" viewBox="0 0 153 145"><g fill="#000" clip-path="url(#a)"><path d="M138.702 12.246c-5.333.732-9.762 1.305-14.179 1.96-2.978.443-5.934 1.037-8.911 1.49a9.3 9.3 0 0 1-3.184.085c-1.313-.27-2.474-1.143-2.45-2.604a4.32 4.32 0 0 1 1.043-2.852 8.5 8.5 0 0 1 3.395-1.726c2.268-.66 4.6-1.1 6.907-1.624l22.013-5.019c5.644-1.294 8.918.807 9.265 6.574.309 5.147.07 10.334-.07 15.5-.139 5.165-.416 10.323-.717 15.48a35 35 0 0 1-.684 4.034c-1.8.397-2.504-.453-2.804-1.513-.817-2.894-1.537-5.818-2.218-8.748-.582-2.497-1.051-5.019-1.706-8.187-1.34 1.384-2.471 2.29-3.28 3.427-7.739 10.882-15.401 21.818-23.134 32.705a764 764 0 0 1-11.037 15.143 35 35 0 0 1-4.678 5.322c-2.885 2.553-6.14 2.654-9.513.461-1.798-1.168-3.41-2.623-5.11-3.948-5.083-3.959-10.24-7.807-16.223-10.994a41 41 0 0 0-3.137 3.19 9824 9824 0 0 0-25.566 32.5c-3.73 4.739-7.425 9.507-11.275 14.147a23.3 23.3 0 0 1-4.736 4.311c-2.172 1.485-3.27.966-5.798-2.254a21.6 21.6 0 0 1 1.58-3.237 23170 23170 0 0 1 38.973-55.522c5.494-7.785 8.473-8.545 16.716-3.955 4.88 2.72 9.49 5.923 14.207 8.93 1.255.8 2.462 1.674 3.995 2.723z"/><path d="M144.14 142.413c-.074-.27-.12-.547-.163-.803-.115-.671-.223-1.304-.757-1.563a24 24 0 0 0-4.311-1.571c-9.791-2.627-19.986-3.203-29.592-3.568q-2.872-.11-5.743-.223c-16.974-.668-34.528-1.359-51.827-.285-10.123.627-20.423 1.157-30.384 1.669l-8.324.43q-.999.027-1.99-.104l-.521-.052q-.068-.252-.135-.475a3.4 3.4 0 0 1-.205-1.048q.522-6.806 1.081-13.61c.561-6.942 1.141-14.121 1.642-21.188 1.803-25.45 1.962-47.887.487-68.59A142 142 0 0 0 8.575 3.977a9 9 0 0 0-1.164-2.341c-.19-.303-.378-.602-.541-.901L6.605.249l-.52.186c-2.542.91-2.532 2.81-2.523 4.198v.304q-.054 15.524-.078 31.046c-.004 2.495.009 4.99.021 7.484.025 4.964.051 10.098-.065 15.14-.337 14.9-.78 29.286-1.324 46.541-.254 8.056-.587 16.313-.99 24.54-.167 3.409-.147 7.904 1.504 12.444l.065.175.148.114c3.14 2.444 6.315 2.454 8.868 2.441q4.94 0 9.883-.023 5.724-.017 11.449-.023 36.63.008 73.262.037h4.309q2.986 0 5.977.026c2.069.012 4.175.025 6.29.025 2.162 0 4.334-.013 6.489-.054a82.5 82.5 0 0 0 14.272-1.637l.683-.129z"/></g><defs><clipPath id="a"><path fill="#fff" d="M.777 0h152v145h-152z"/></clipPath></defs></svg>