<svg xmlns="http://www.w3.org/2000/svg" width="120" height="141" fill="none" viewBox="0 0 120 141"><g fill="#000" clip-path="url(#a)"><path d="M11.544 32.282c-2.187-.351-3.996-.56-5.766-.946C2.61 30.646.988 29.11.95 26.938c-.04-2.28 1.645-4.229 4.926-4.646 4.685-.596 9.43-.763 14.154-1 2.554-.13 5.12-.023 8.078-.023-.429-1.977-.736-3.518-1.1-5.044A12.6 12.6 0 0 1 28.15 7.16C30.155 3.31 33.21.967 37.57.82A821 821 0 0 1 61.465.372c5.275-.025 10.551.22 15.827.346.753.018 1.51.015 2.26.07 5.381.398 8.824 3.16 10.062 8.433.56 2.387.631 4.892.882 7.349.13 1.268.167 2.544.26 4.01q1.302.195 2.62.24c5.812-.165 11.622-.407 17.435-.534a15.7 15.7 0 0 1 4.451.448 5.59 5.59 0 0 1 4.303 5.084 6.08 6.08 0 0 1-3.045 6.288c-.902.55-1.892.956-3.014 1.514 0 3.134-.107 6.243.018 9.342.737 18.386 1.752 36.77 1.069 55.177-.247 6.657-.698 13.334-1.608 19.926-.505 3.662-1.981 7.231-3.323 10.724a11.96 11.96 0 0 1-7.495 7.139 60 60 0 0 1-9.661 2.441 80 80 0 0 1-9.018.637c-11.722.583-23.44 1.273-35.169 1.653a86.7 86.7 0 0 1-14.806-.639c-12.626-1.777-19.489-8.735-21.487-21.372a71 71 0 0 1-.985-10.59 7269 7269 0 0 1-.145-61.013c.007-4.827.412-9.656.647-14.763m9.669.786c.582 10.039 1.013 59.188 2.176 73.987.343 4.364 1.348 8.686 2.208 12.997.857 4.296 3.76 6.794 7.922 7.467 4.657.752 9.393 1.477 14.088 1.442 11.733-.087 23.467-.491 35.19-1.022 4.488-.203 8.954-1.046 13.415-1.701a3.89 3.89 0 0 0 3.333-3.117c.618-2.496 1.417-4.981 1.712-7.519 1.693-14.581 1.345-29.216.897-43.845-.352-11.505-.762-23.007-1.151-34.51-.036-1.035-.107-2.074-.155-2.979-27.446-.4-51.957-.796-79.633-1.2zm17.268-12.03c13.529.49 26.79.468 40.136-.155v-8.945c-13.494-.453-26.738-.939-40.137.373z"/><path d="M82.213 77.758c-.141-6.947-.472-13.988-.792-20.798l-.006-.13q-.172-3.703-.34-7.407a10 10 0 0 0-.481-2.536c-.593-1.876-1.931-2.864-3.663-2.7-1.05.086-2.856.626-3.178 3.26q-.077.713-.077 1.428c-.104 8.564-.886 36.875-.893 37.164-.147 6.806-.298 13.84-.401 20.82-.054 1.922.12 3.844.517 5.724a4.31 4.31 0 0 0 4.308 3.493q.18 0 .36-.013a4.226 4.226 0 0 0 4.07-3.657 41 41 0 0 0 .582-6.256l.035-4.814c.056-7.724.118-15.71-.041-23.578M47.601 44.64h-.003a3.98 3.98 0 0 0-3.286 1.71 8.1 8.1 0 0 0-1.027 3.64c-.11 1.73-.225 3.46-.343 5.231-.404 6.094-.823 12.395-1.003 18.614-.259 8.844-.346 17.831-.433 26.523q-.04 3.99-.085 7.98c-.002 1.089.15 2.173.453 3.219.705 2.501 2.403 4.054 4.43 4.054h.064c2.124-.036 3.82-1.713 4.322-4.272.247-1.354.351-2.73.311-4.105-.112-7.063-.25-14.124-.381-20.833l-.118-6.065.135-7.204c.148-7.804.286-15.18.398-22.593a9.3 9.3 0 0 0-.541-3.657 3.87 3.87 0 0 0-2.893-2.242"/></g><defs><clipPath id="a"><path fill="#fff" d="M.777 0h119v141h-119z"/></clipPath></defs></svg>