<svg xmlns="http://www.w3.org/2000/svg" width="182" height="155" fill="none" viewBox="0 0 182 155"><g clip-path="url(#a)"><path fill="#000" d="M5.308 58.816c1.166 1.455 2.372 2.957 3.465 4.473 16.324 22.638 34.512 44.769 52.101 66.169 5.865 7.135 11.928 14.512 17.833 21.798 1.887 2.33 3.65 3.498 5.555 3.676q.258.024.517.024c1.712 0 3.517-.785 5.628-2.438a80.4 80.4 0 0 0 9.999-9.625c24.051-26.779 47.395-52.928 67.058-74.977 2.19-2.456 4.335-4.998 6.411-7.456 1.89-2.24 3.845-4.555 5.823-6.793 2.27-2.57 2.377-5.134.318-7.62a54 54 0 0 0-3.857-4.16 2632 2632 0 0 0-9.431-9.181 4876 4876 0 0 1-9.566-9.316c-1.308-1.28-2.611-2.606-3.872-3.888-1.493-1.518-3.037-3.09-4.608-4.604-4.904-4.728-9.006-8.582-12.908-12.133-1.004-.86-2.28-1.465-3.679-1.749a26.5 26.5 0 0 0-5.218-.406C120.253.584 113.629.59 108.08.592h-4.938l-14.39.564c-13.05.51-25.377.995-37.569 1.437-2.856.103-5.993.486-7.05 3.744a2 2 0 0 1-.507.561 9 9 0 0 0-.24.22q-1.968 1.875-3.928 3.755c-3.24 3.104-6.591 6.313-9.944 9.427A291 291 0 0 0 4.358 46.859a18.1 18.1 0 0 0-2.69 4.812 3.2 3.2 0 0 0-.172 1.498c.062.504.243.992.534 1.437 1.05 1.432 2.183 2.844 3.278 4.21m156.799-1.79-.097.12c-.598.741-1.114 1.381-1.687 1.998q-3.46 3.725-6.961 7.426c-4.497 4.777-9.148 9.716-13.576 14.67-10.401 11.635-20.891 23.516-31.035 35.007q-6.35 7.194-12.706 14.382-.262.299-.523.586a187 187 0 0 1 1.654-3.963l8.517-19.645a36565 36565 0 0 0 19.343-44.688 31 31 0 0 0 1.332-4.138c.152-.564.311-1.147.488-1.755zm-47.555-.016-30.407 72.683c-2.438-8.376-5.171-16.75-7.828-24.87-4.996-15.287-10.16-31.086-13.405-47.153zM98.08 9.652c5.31-.166 10.665-.155 15.859-.148 5.208.009 10.593.018 15.923-.148l33.809 37.741-39.434.674-.495.009zM64.11 48.497c7.148-12.237 16.233-22.593 26.48-33.764l18.546 32.926zm-14.341 9.445c4.078 16.777 9.727 33.394 15.192 49.468 1.588 4.669 3.22 9.467 4.804 14.246-11.73-13.1-22.492-26.979-32.922-40.43-5.932-7.652-12.06-15.554-18.308-23.24 5.39-.517 23.993-.57 31.234-.045M72.623 10.21l7.256-.057a10 10 0 0 1 .733.026c-9.829 10.976-20.716 23.835-27.85 38.51H13.908q.35-.495.785-.942A8015 8015 0 0 1 39.85 22.97c2.054-2.015 4.18-4.046 6.23-6.01q2.882-2.757 5.742-5.53a3.1 3.1 0 0 1 1.184-.842c.472-.195.995-.29 1.522-.276 6.033 0 12.165-.053 18.096-.101"/></g><defs><clipPath id="a"><path fill="#fff" d="M.777 0h181v155h-181z"/></clipPath></defs></svg>