<svg xmlns="http://www.w3.org/2000/svg" width="139" height="164" fill="none" viewBox="0 0 139 164"><g fill="#000" clip-path="url(#a)"><path d="M1.72 81.032q0-21.601.01-43.203a67.8 67.8 0 0 1 2.258-17.99 29.4 29.4 0 0 1 3.673-8.261c3.729-5.77 9.02-9.27 15.854-9.758C33.71 1.094 43.93.57 54.148.34s20.457-.134 30.68.088c6.807.148 13.606.752 20.404 1.188a9.44 9.44 0 0 1 5.225 2.004c9.326 7.186 18.131 14.927 25.538 24.147a9.57 9.57 0 0 1 2.304 6.24q-.245 46.044-.389 92.089a92 92 0 0 1-1.656 15.798 16.8 16.8 0 0 1-2.397 6.298c-5.079 7.599-11.986 12.446-21.316 13.428a314 314 0 0 1-61.249.556c-7.915-.713-15.93-.672-23.634-2.911a73.4 73.4 0 0 1-11.705-4.205c-8.066-3.93-12.717-10.645-13.923-19.494a106 106 0 0 1-.723-13.603c-.087-13.643-.031-27.291-.031-40.932zm10.979.927c-1.102 15.866-1.115 31.75-1.143 47.633.056 2.267.27 4.528.64 6.766 1.112 8.001 5.81 12.874 13.397 15.168.723.218 1.46.4 2.203.545 5.191 1.016 10.35 2.185 15.68 2.321 10.958.278 21.917.958 32.872.904 11.334-.056 22.682-.527 33.989-1.304 8.764-.602 14.436-5.834 17.039-14.29 1.59-5.16 1.634-10.431 1.634-15.729q0-37.446-.013-74.892c0-3.02-.11-6.042-.219-9.061a3.25 3.25 0 0 0-2.896-2.917c-5.665-.195-11.338-.248-16.993-.588a27.4 27.4 0 0 1-6.582-1.409 4.37 4.37 0 0 1-2.804-3.326 21.4 21.4 0 0 1-.499-4.494c-.04-4.911.026-9.823.037-14.734a3.27 3.27 0 0 0-2.824-2.962c-.375-.032-.746-.148-1.12-.153-18.145-.255-36.289-.536-54.435-.72a65 65 0 0 0-10.18.577 56.7 56.7 0 0 0-9.862 2.45c-3.37 1.148-5.663 3.694-7.04 6.978a16.46 16.46 0 0 0-1.38 8.837c.582 3.737.9 7.51.952 11.291-.046 14.368-.286 28.739-.454 43.109m96.777-64.198a36.3 36.3 0 0 0-.639 8.686c-.2 1.301 1.324 2.224 2.235 2.224 3.193 0 5.921-.03 8.876-.103.185-.004.471-.434.51-.697.072-.364.01-.741-.176-1.062-2.756-3.526-5.844-6.709-9.718-9.03-.253-.153-.757-.35-1.088-.018"/><path d="M68.281 98.976c7.547-.15 15.096-.379 22.64-.417 3.386-.018 6.78.285 10.16.569a8.7 8.7 0 0 1 3.231.937c.525.213.975.575 1.295 1.043a2.9 2.9 0 0 1 .506 1.584c-.02.959-1.024 2.367-1.871 2.528a26.3 26.3 0 0 1-4.414.767c-16.98.321-33.963.634-50.946.802-3.77-.062-7.534-.337-11.273-.824-1.077-.112-2.103-.749-3.145-1.167-.917-.366-1.645-1.929-1.2-2.839.318-.648.7-1.627 1.225-1.754a30 30 0 0 1 6.618-1.098c9.057-.118 18.118-.048 27.176-.048z"/></g><defs><clipPath id="a"><path fill="#fff" d="M.777 0h138v164h-138z"/></clipPath></defs></svg>