<svg xmlns="http://www.w3.org/2000/svg" width="139" height="164" fill="none" viewBox="0 0 139 164"><g fill="#000" clip-path="url(#a)"><path d="M138.217 84.046c0 14.78.045 29.559-.03 44.339a85 85 0 0 1-.694 11.329c-1.003 7.138-4.732 12.692-10.745 16.7a31.65 31.65 0 0 1-14.792 5.387 324.7 324.7 0 0 1-60.407.37c-7.958-.693-15.999-.717-23.744-2.917a76 76 0 0 1-11.782-4.152c-7.314-3.459-11.733-9.345-13.451-17.294a62 62 0 0 1-1.658-13.497q.186-38.086.26-76.176c.084-7.58.67-15.146 1.755-22.65a38.8 38.8 0 0 1 2.603-9.84C9.076 7.293 15.356 2.243 24.666 1.702 34.92 1.106 45.184.57 55.451.342 64.96.126 74.482.2 83.991.427c7.22.174 14.43.778 21.643 1.216a9.8 9.8 0 0 1 5.259 1.957 152 152 0 0 1 25.039 23.163c2.129 2.438 2.718 5.202 2.669 8.397-.265 16.293-.367 32.588-.527 48.883zm-63.163 71.527c9.524-.346 20.156-.713 30.789-1.132a69 69 0 0 0 6.811-.592 17 17 0 0 0 9.125-4.32c3.822-3.418 6.379-7.564 6.834-12.69.435-4.892.567-9.816.708-14.729.26-9.075.446-18.15.628-27.225.083-4.16.464-8.358.05-12.473-1.03-10.205-.638-20.419-.673-30.628a416 416 0 0 0-.181-11.344c-.056-1.865-1.73-3.315-3.84-3.386-4.937-.168-9.879-.209-14.812-.45a47 47 0 0 1-6.753-.901c-1.992-.39-4.076-2.846-4.301-4.85a43 43 0 0 1-.326-4.517c-.027-4.538.03-9.075.025-13.613a3.43 3.43 0 0 0-.866-2.01 3.45 3.45 0 0 0-1.91-1.08c-1.135-.103-2.27-.233-3.407-.252-14.06-.242-28.12-.518-42.18-.667-5.697-.06-11.397.172-17.096.276-4.192.103-8.332.95-12.225 2.502-5.433 2.115-8.518 6.165-9.025 11.988a40 40 0 0 0 .056 5.668c.69 12.482.439 24.964.192 37.454-.383 19.296-.599 38.597-.755 57.896-.07 4.54.189 9.079.775 13.582a14.5 14.5 0 0 0 2.675 6.821 14.6 14.6 0 0 0 5.676 4.656 34.7 34.7 0 0 0 7.493 2.593 87.3 87.3 0 0 0 16.905 2.352c9.5.269 18.993.677 29.608 1.071m39.472-126.504c1.822-.096 3.32-.075 4.769-.3.536-.084 1.048-.693 1.432-1.173a1.13 1.13 0 0 0-.158-1.012 37.7 37.7 0 0 0-9.711-8.909 2.1 2.1 0 0 0-1.652.458c-.137 2.917-.206 5.844-.095 8.761a2.24 2.24 0 0 0 1.376 1.564c1.329.3 2.68.503 4.039.61"/><path d="M69.001 56.371c11.026.152 22.052.284 33.077.47 2.661.017 5.319.174 7.963.47 1.482.287 2.927.741 4.306 1.352 1.141.42 2.457 2.484 2.418 3.616-.038 1.108-1.562 3.134-2.572 3.53-3.601 1.41-7.376 1.689-11.184 1.745-7.605.11-15.212.394-22.812.259-9.878-.178-19.75-.682-29.624-1.075a1288 1288 0 0 1-18.227-.832 8.3 8.3 0 0 1-5.25-1.928 3.65 3.65 0 0 1-1.453-2.926c.065-1.303 1.253-3.278 2.408-3.488a32.5 32.5 0 0 1 5.592-.764c11.787-.07 23.575-.035 35.362-.035zm3.557 28.482c-10.484-.273-20.747-.48-31.004-.84a85 85 0 0 1-10.185-1.017 11.7 11.7 0 0 1-4.073-1.823 2.515 2.515 0 0 1-.74-2.932c.142-.333.353-.632.62-.877a7.1 7.1 0 0 1 3.037-1.36 63 63 0 0 1 7.935-.643c15.586-.147 31.177-.468 46.758-.215 9.101.148 18.188 1.243 27.278 1.957a8.8 8.8 0 0 1 2.148.72c1.011.365 2.391 2.763 1.926 3.724s-1.124 2.075-2.006 2.525c-3.125 1.592-6.604 1.645-10.025 1.632-10.636-.042-21.296.762-31.669-.851m-2.039 10.088c11.036.15 22.074.28 33.11.464 2.281.014 4.56.17 6.822.468 1.077.153 2.097.828 3.1 1.348 1.08.56 2.17 2.912 1.641 3.905-.509.953-1.254 2.039-2.174 2.457a11.5 11.5 0 0 1-4.39.921c-9.512.238-19.027.524-28.54.5s-19.036-.203-28.536-.677c-6.828-.341-13.632-1.236-20.434-1.997a5.8 5.8 0 0 1-3.048-1.345 6.65 6.65 0 0 1-1.558-2.83c-.235-.705 1.154-2.513 1.852-2.601a58 58 0 0 1 6.755-.728c11.799-.072 23.599-.033 35.398-.033zm-12.141 28.647c-7.924-.286-15.85-.546-23.771-.875a13.5 13.5 0 0 1-7.476-2.274 4.35 4.35 0 0 1-1.863-3.846c.026-1.318 1.421-2.931 2.624-3.402 3.262-1.279 6.658-1.203 10.059-1.057 9.807.419 19.623.728 29.418 1.35 6.017.382 12.004 1.241 18 1.929q1.105.236 2.152.66c.673.201 2.046 1.989 1.758 2.664-.413.972-.911 2.175-1.742 2.647a10.1 10.1 0 0 1-4.254 1.238c-5.65.364-11.31.584-16.97.778-2.64.093-5.287.017-7.93.017zM43.153 45.444c-3.688-.231-7.876-.367-12.025-.815a19.8 19.8 0 0 1-5.418-1.62 3.01 3.01 0 0 1-1.81-2.654c-.092-1.267 1.224-3.226 2.363-3.51q.539-.186 1.1-.297c9.088-.957 18.187-1.378 27.3-.347a6.8 6.8 0 0 1 2.16.663 4.66 4.66 0 0 1 1.748 1.38c.461.594.771 1.29.903 2.03.222 1.123-1.14 3.216-2.32 3.609a14.6 14.6 0 0 1-3.255.937c-3.41.284-6.831.41-10.746.624"/></g><defs><clipPath id="a"><path fill="#fff" d="M.777 0h138v164h-138z"/></clipPath></defs></svg>