<svg xmlns="http://www.w3.org/2000/svg" width="158" height="146" fill="none" viewBox="0 0 158 146"><g fill="#000" clip-path="url(#a)"><path d="M70.54 108.42a45 45 0 0 0-3.75-2.533l-.278-.162c-3.308-1.925-6.73-3.917-10.19-5.709-.89-.46-1.785-.97-2.65-1.464-2.372-1.353-4.825-2.752-7.637-3.424a.66.66 0 0 0-.679.236l-1.337 1.688a.66.66 0 0 0-.083.686c.092.202.169.407.244.607.156.5.399.967.719 1.381 7.29 8.471 16.219 16.045 28.948 24.559.776.492 1.59.928 2.43 1.301a8.4 8.4 0 0 0 3.61.889 6.98 6.98 0 0 0 4.56-1.77q.404-.337.816-.667c.59-.473 1.2-.964 1.76-1.51a724 724 0 0 1 4.66-4.492c4.136-3.97 8.412-8.075 12.412-12.314a89 89 0 0 0 6.898-8.666c.706-.97 1.412-1.94 2.13-2.895l.08-.106c.415-.541 1.384-1.808-.045-3.29a.67.67 0 0 0-.447-.203c-2.42-.12-4.032 1.292-5.587 2.666a17 17 0 0 1-1.853 1.492 69 69 0 0 0-6.962 5.476l-.401.345c-1.124.965-2.21 1.999-3.26 2.999-1.002.955-2.04 1.943-3.1 2.859-.728.629-1.414 1.327-2.075 2.002a20 20 0 0 1-4.228 3.562l-.026-.209a11 11 0 0 1-.135-1.684q.155-5.432.338-10.865c.187-5.785.381-11.766.51-17.653q.059-2.761.124-5.524c.382-16.474.776-33.502-.72-50.24-.537-6.008-1.447-12.07-2.327-17.936l-.37-2.469a7.1 7.1 0 0 0-1.21-2.583A39 39 0 0 1 80.232.778a.667.667 0 0 0-1.2.06c-1.519 3.603-1.568 6.707-1.611 9.446-.015.957-.03 1.861-.1 2.76a269 269 0 0 1-.422 4.63c-.189 1.947-.383 3.96-.519 5.948-.195 2.864-.317 5.778-.433 8.595l-.115 2.682-.041.938c-.15 3.388-.304 6.89-.418 10.34a640 640 0 0 0-.25 10.623c-.044 2.584-.066 5.172-.088 7.759l-.032 3.523a896 896 0 0 1-.043 3.516 603 603 0 0 0-.064 7.77c.003 3.335.024 7.283.147 11.297.05 1.662.148 3.344.244 4.974.108 1.844.218 3.747.26 5.621.025 1.128.117 2.279.207 3.391.272 2.379.286 4.781.042 7.163a39 39 0 0 1-5.256-3.394"/><path d="M154.191 82.857a3.56 3.56 0 0 0-2.953-.222.67.67 0 0 0-.428.362c-1.733 3.747-2.215 23.979-2.566 38.751-.138 5.771-.249 10.43-.402 12.683-.812.077-1.578.158-2.309.236-1.816.193-3.386.359-4.965.396-6.315.151-13.783.303-21.286.303h-.111q-7.423 0-14.848.02c-15.607.028-31.747.06-47.612-.226-9.35-.169-18.856-.768-28.05-1.348-3.866-.244-7.863-.496-11.798-.71a19 19 0 0 1-2.168-.293c-.26-.044-.525-.089-.805-.133q-.078-.513-.16-1.015a28 28 0 0 1-.375-2.99c-.162-3.105-.296-6.211-.431-9.319-.235-5.413-.478-11.011-.868-16.511-.416-5.865-1.007-15.714-1.322-21.06a4 4 0 0 0-1.22-2.66 4.057 4.057 0 0 0-5.53-.063 4.03 4.03 0 0 0-1.306 2.701c-.64 9.957-2.054 34.616-1.355 48.521l.045.956c.023 2.146.27 4.285.734 6.381.964 3.71 3.192 5.374 7.45 5.564 3.38.152 6.758.331 10.136.51 5.385.285 10.957.581 16.443.755 12.029.388 22.92.608 33.296.683q6.938.05 13.875.128c8.29.086 16.701.174 25.155.174 11.393 0 22.867-.159 34.23-.691a57 57 0 0 0 7.357-.685c3.877-.689 6.055-3.07 6.297-6.886.094-1.489.216-3.097.34-4.722.167-2.204.341-4.483.449-6.566-.078-14.44-1.527-39.144-1.806-41.082a2.66 2.66 0 0 0-1.133-1.942"/></g><defs><clipPath id="a"><path fill="#fff" d="M.777 0h157v146h-157z"/></clipPath></defs></svg>