<svg xmlns="http://www.w3.org/2000/svg" width="161" height="115" fill="none" viewBox="0 0 161 115"><g clip-path="url(#a)"><path fill="#000" d="M155.16 38.278q-.445-1.126-.898-2.248c-3.023-7.484-6.449-15.967-12.131-22.93-4.71-5.775-10.794-11.77-20.201-12.444-2.113-.15-4.414-.201-7.035-.153q-3.117.059-6.234.108c-7.114.118-14.47.24-21.7.532l-2.614.105C72.89 1.706 61.043 2.18 49.42 3.1c-12.033.953-21.012 6.22-26.688 15.654C16.023 29.906 9.47 41.208 3.947 50.79a16.6 16.6 0 0 0-2.057 5.8C.3 67.909 1.836 79.21 3.322 90.14c.265 1.956.531 3.91.777 5.866.82 6.44 4.687 11.096 11.494 13.841.412.166.833.307 1.254.447.319.107.638.213.95.331 7.379 2.791 15.223 3.069 22.142 3.314 10.421.37 21.045.546 30.419.702 3.76.064 7.39.122 10.833.194h.03c4.203-.098 8.197-.181 12.043-.263 8.773-.184 17.058-.358 25.19-.646a132 132 0 0 0 16.295-1.397c4.833-.782 10.953-2.32 15.427-7.309 4.581-5.104 7.043-9.932 7.747-15.186.156-1.17.328-2.34.5-3.51.465-3.165.945-6.438 1.117-9.687.174-3.291.222-6.639.268-9.876.056-3.933.114-8 .4-11.975.282-3.93-.871-7.04-2.158-9.813-1.047-2.254-1.984-4.614-2.89-6.894m-21.285-19.672a40 40 0 0 1 2.986 4.277c3.771 6.15 6.311 12.744 8.998 19.725.798 2.072 1.62 4.208 2.48 6.337l-1.33.102c-1.463.114-2.844.222-4.211.272q-9.562.35-19.124.678-9.871.345-19.741.7c-5.107.186-6.533 1.362-7.624 6.296-.376 1.703-.797 3.43-1.205 5.1l-.168.688c-.899 3.687-3.17 6.09-6.942 7.348-7.515 2.501-14.72 1.551-22.03-2.903-4.52-2.755-7.222-6.311-8.26-10.87-.945-4.16-2.32-5.383-6.432-5.383q-.39 0-.812.014l-36.79 1.22 2.157-3.687q2.034-3.477 4.075-6.952a2184 2184 0 0 0 9.299-15.95c4.39-7.623 11.251-12.065 20.398-13.198 4.568-.565 8.687-1.042 12.836-1.163 7.617-.224 15.365-.399 22.857-.569 10.483-.237 21.323-.482 31.982-.863 6.48-.226 11.451 2.394 16.601 8.781m-82.56 48.172a15.38 15.38 0 0 0 6.68 7.752c10.093 5.74 20.47 7.527 30.85 5.307 8.96-1.917 15.276-9.134 16.892-19.309.057-.36.097-.72.148-1.19q.015-.145.034-.307c14.053-.921 28.414-1.208 42.309-1.486l1.374-.027.01.038q.119.316.149.65v.829c.007 9.477.015 19.275-1.432 28.835a21.7 21.7 0 0 1-5.589 11.722c-2.664 2.876-6.553 4.458-11.891 4.839-9.66.689-20.882 1.431-31.814 1.527-19.324.171-39.11.079-58.813-.275-5.821-.104-12.682-.528-19.433-2.87-5.454-1.893-7.946-5.04-8.08-10.2-.056-2.155-.216-4.337-.372-6.446-.093-1.276-.187-2.553-.258-3.829-.354-6.267-.68-12.385-.972-18.188-.044-.86-.033-1.717-.021-2.626q.002-.32.008-.646l37.545-1.35c.26.71.506 1.401.748 2.078.648 1.798 1.254 3.493 1.928 5.171"/></g><defs><clipPath id="a"><path fill="#fff" d="M.777 0h160v115h-160z"/></clipPath></defs></svg>