<svg xmlns="http://www.w3.org/2000/svg" width="128" height="117" fill="none" viewBox="0 0 128 117"><g clip-path="url(#a)"><path fill="#000" d="M64.68 116.306c-10.318.6-16.775-.64-27.103-1.011a9.47 9.47 0 0 1-5.42-2.318C20.834 101.882 12.173 88.684 3.359 75.651.086 70.814.966 66.871 5.539 63.03 24.265 47.294 53.747 21.734 72.708 5.913a30 30 0 0 1 1.456-1.127C82.86-1.391 85.496-1.2 91.79 7.136c5.974 7.917 11.572 16.115 17.474 24.088 4.069 5.494 8.365 10.824 12.577 16.214.948 1.213 2.094 2.286 2.931 3.566 3.902 5.965 3.305 10.12-2.077 14.81C111.85 75.267 90.137 94.789 79.3 104.25c-1.359 1.183-10.99 11.844-14.618 12.056m50.123-55.75C103.955 43.27 92.031 26.83 81.424 9.927c-11.579 9.18-31.89 28.063-42.88 36.778l41.893 44.458c8.048-7.016 26.717-23.937 34.366-30.607M70.756 99.884C57.32 84.564 46.216 67.19 31.196 52.92l-19.93 17.424C17.887 79.99 23.64 89.56 30.57 98.188c9.903 12.329 5.118 9.638 20.955 11.029 4.36.384 11.336-.637 11.336-.637s5.768-4.63 7.895-8.696"/></g><defs><clipPath id="a"><path fill="#fff" d="M.777 0h127v117h-127z"/></clipPath></defs></svg>