<svg xmlns="http://www.w3.org/2000/svg" width="106" height="99" fill="none" viewBox="0 0 106 99"><g clip-path="url(#a)"><path fill="#000" d="M102.46 41.44q-.6-.477-1.247-.89l-.43-.287C84.14 28.934 70.116 17.898 57.909 6.524c-1.631-1.52-3.45-3.132-5.725-5.073C50.746.223 49.574.16 48.845.329c-.713.162-1.71.7-2.427 2.34a7.9 7.9 0 0 0-.498 2.577l-.039.476q-.037.563.032 1.124.05.421.034.845a7268 7268 0 0 1-1.944 25.634q-.063.633-.205 1.255l-.07-.079c-.579-.628-1.077-1.171-1.617-1.684Q27.817 19.24 13.501 5.685a11 11 0 0 0-6.942-3.057c-1.685-.138-2.986-.074-3.863.68-.721.62-1.074 1.612-1.18 3.32-.181 2.938-.24 5.951-.174 8.956.371 16.836 1.026 36.737 3.07 56.685.89 8.683 2.568 15.534 5.283 21.56.265.579.398 1.208.389 1.843-.036.986.024 2.362.955 2.913.256.15.549.227.846.223a4.3 4.3 0 0 0 1.991-.688l.607-.352a57 57 0 0 0 8.62-5.706C31.91 84.54 38.27 78.292 43.72 71.799c.287-.342.595-.673.966-1.068.051.59.096 1.08.157 1.568q.42 3.31.843 6.617.56 4.365 1.11 8.73c.125.99.313 2.486 2.35 2.748q.139.015.275-.024a.7.7 0 0 0 .243-.128q.136-.106.283-.193c.47-.226.833-.624 1.013-1.11.501-2.053 2.123-2.807 4-3.68l.278-.129c14.04-6.56 27.336-14.999 40.651-25.795a66 66 0 0 0 5.908-5.433 14.7 14.7 0 0 0 2.729-3.967c1.428-3.08.655-6.256-2.066-8.494m-11.43 4.625-.115.069q-.802.456-1.544.998a932 932 0 0 0-5.769 4.426c-3.446 2.656-7.01 5.4-10.565 8.026A143 143 0 0 0 55.491 74.87a32 32 0 0 1-1.306 1.254l-.664-61.006a223.7 223.7 0 0 0 37.51 30.948M38.822 63.362c-3.541 3.813-7.25 7.6-10.835 11.26l-1.102 1.127a1515 1515 0 0 1-8.88 8.97l-2.84 2.859c-.793-22.93-2.21-46.263-4.324-71.214q.552.545 1.107 1.085a2237 2237 0 0 1 6.035 5.893c5.086 4.976 10.345 10.12 15.62 15.075a74 74 0 0 0 7.742 6.063l1.22.871c.472.29.865.693 1.14 1.172s.423 1.019.433 1.57l.02.278c.595 8.603.595 8.603-5.334 14.99z"/></g><defs><clipPath id="a"><path fill="#fff" d="M.777 0h105v99h-105z"/></clipPath></defs></svg>