<svg xmlns="http://www.w3.org/2000/svg" width="106" height="99" fill="none" viewBox="0 0 106 99"><g clip-path="url(#a)"><path fill="#000" d="M104.095 3.307c-.884-.754-2.192-.817-3.888-.68a11.12 11.12 0 0 0-6.984 3.057 33460 33460 0 0 0-28.79 27.133 36 36 0 0 0-1.697 1.761 10 10 0 0 1-.205-1.254A6928 6928 0 0 1 60.574 7.69q-.016-.424.035-.846.07-.56.032-1.123l-.04-.476a7.9 7.9 0 0 0-.501-2.577c-.721-1.64-1.726-2.178-2.441-2.34-.734-.166-1.913-.105-3.36 1.121-2.29 1.943-4.12 3.555-5.76 5.074C36.251 17.9 22.141 28.935 5.398 40.26l-.424.282q-.656.416-1.264.897C.972 43.678.195 46.853 1.632 49.933a14.7 14.7 0 0 0 2.746 3.965 67 67 0 0 0 5.945 5.434c13.399 10.8 26.778 19.236 40.903 25.796l.28.128c1.89.873 3.521 1.627 4.026 3.68.18.485.546.883 1.018 1.11q.148.087.285.193a.68.68 0 0 0 .521.151c2.05-.263 2.238-1.758 2.363-2.748q.555-4.392 1.125-8.784.423-3.279.843-6.562c.066-.489.108-.978.16-1.568.372.396.682.728.97 1.068 5.413 6.408 12.007 12.846 20.747 20.263a57.7 57.7 0 0 0 8.68 5.712l.6.346a4.3 4.3 0 0 0 2.003.687c.3.004.595-.073.853-.222.936-.551.996-1.928.96-2.913a4.26 4.26 0 0 1 .394-1.844c2.732-6.026 4.42-12.876 5.316-21.56 2.055-19.946 2.715-39.846 3.089-56.684.065-3.006.007-6.019-.176-8.956-.108-1.705-.463-2.698-1.188-3.318m-8.198 13.056c-2.127 24.953-3.553 48.286-4.35 71.214l-2.824-2.822c-2.95-2.946-6-5.993-8.968-9.006l-1.068-1.086c-3.622-3.674-7.367-7.473-10.943-11.302-5.968-6.388-5.968-6.388-5.37-14.99l.02-.278a3.2 3.2 0 0 1 .435-1.57c.276-.48.671-.883 1.148-1.172l1.239-.879a74 74 0 0 0 7.778-6.055c5.313-4.958 10.607-10.106 15.727-15.084q3.03-2.945 6.066-5.883zm-42.943-1.25-.668 61.011a36 36 0 0 1-1.314-1.255 144 144 0 0 0-17.655-15.285c-3.584-2.628-7.174-5.376-10.645-8.035a2027 2027 0 0 0-5.792-4.416 17 17 0 0 0-1.56-1.004l-.11-.064a224.7 224.7 0 0 0 37.744-30.952"/></g><defs><clipPath id="a"><path fill="#fff" d="M.777 0h105v99h-105z"/></clipPath></defs></svg>