<svg xmlns="http://www.w3.org/2000/svg" width="159" height="141" fill="none" viewBox="0 0 159 141"><g fill="#000" clip-path="url(#a)"><path d="M136.193.382c2.727.303 5.46.557 8.179.917 8.824 1.17 13.203 6.056 13.553 15.051.564 14.502.194 28.98-.432 43.481-.557 12.923-.064 25.89-.163 38.836-.051 6.634-.037 13.3-.671 19.892-1.354 14.1-9.333 21.406-23.418 21.922-3.413.125-6.836.029-10.251.025-17.632-.019-35.263.025-52.894-.081-15.099-.091-30.199-.241-45.291-.621a60.2 60.2 0 0 1-12.387-1.807c-6.062-1.454-9.566-5.62-10.612-11.771a32 32 0 0 1-.504-5.938c.288-14.608.71-29.213.973-43.821.163-9.075.154-18.154.13-27.23a39 39 0 0 0-.666-5.264c-.725-5.113 1.072-9.102 5.91-10.916a50 50 0 0 1 13.384-3.276c12.511-.99 25.066-1.566 37.614-2.003 7.816-.271 15.65.01 23.475.041 1.066.005 2.133 0 3.254 0 0-3.003-.065-5.633.017-8.259.084-2.762.177-5.535.494-8.277.645-5.6 2.91-8.297 8.43-9.021 5.998-.786 12.071-.981 18.114-1.376 3.504-.228 7.017-.341 10.525-.506zM96.092 12.76c0 4.025-.034 7.77.014 11.514.025 1.99.306 3.98.272 5.968-.07 4.076-1.42 5.838-5.364 6.758a32 32 0 0 1-7.145.986c-7.826-.006-15.653-.208-23.48-.387a312 312 0 0 0-37.652 1.364 64 64 0 0 0-9.39 1.76c-2.903.734-3.204 1.255-3.308 4.123-.081 2.209-.032 4.428.02 6.64.293 12.726.7 25.45.884 38.178.164 11.401.02 22.807.154 34.206.049 4.174 1.37 5.591 5.472 6.053 5.14.579 10.309 1.228 15.469 1.256 19.403.105 38.808-.053 58.211-.065 9.59-.007 19.177.093 28.766.138 5.512.026 11.028.221 16.534.009 6.153-.236 9.276-2.818 10.785-8.808a36.2 36.2 0 0 0 1.104-8.524c.05-7.748-.258-15.498-.266-23.247q-.014-16.268.214-32.534c.111-8.413.477-16.822.538-25.235.036-4.978-.231-9.962-.49-14.938-.24-4.63-.741-5.08-5.201-5.494-1.096-.102-2.2-.231-3.299-.23q-19.514.025-39.027.106-1.918.101-3.814.403z"/><path d="M80.934 86.39c-6.962 0-13.926.07-20.885-.042a29.4 29.4 0 0 1-6.316-.918 3.76 3.76 0 0 1-2.258-1.37 3.8 3.8 0 0 1-.808-2.529c-.043-2.014.754-3.508 2.657-4.22a12.4 12.4 0 0 1 3.584-.98q23.253-1.215 46.514-2.289c.892-.045 1.787.025 2.662.208 2.838.611 4.837 3.096 4.695 5.725a5.45 5.45 0 0 1-1.44 3.415 5.37 5.37 0 0 1-3.279 1.685c-4.248.5-8.537.715-12.815.863-4.1.138-8.207.03-12.311.03z"/></g><defs><clipPath id="a"><path fill="#fff" d="M.777 0h158v141h-158z"/></clipPath></defs></svg>