<svg xmlns="http://www.w3.org/2000/svg" width="91" height="101" fill="none" viewBox="0 0 91 101"><g fill="#000" clip-path="url(#a)"><path d="M3.74 99.447a5.83 5.83 0 0 0 3.356 1.054 6.6 6.6 0 0 0 2.672-.583 29 29 0 0 0 6.466-4.298c6.11-5.03 13.338-11.024 20.613-17.334 4.716-4.09 10.242-8.968 15.475-14.136a95 95 0 0 0 7.205-8.308q.84-1.047 1.683-2.088c1.185-1.458 2.242-3.312 1.09-6.02a.66.66 0 0 0-.648-.404c-1.772.102-2.746-1.075-3.876-2.432l-.342-.41c-9.987-11.796-18.732-20.992-27.518-28.94A405 405 0 0 0 16.578 4.012C14.487 2.28 11.548.323 7.356.597c-3.583.23-4.62.476-4.71 4.494-.04 1.765-.042 3.557-.043 5.291 0 1.449 0 2.898-.024 4.347l-.065 4.208C2.198 39.11 1.872 59.97 1.512 80.484a302 302 0 0 1-.526 12.884 6.77 6.77 0 0 0 2.753 6.079m8.335-85.98 3.1 2.934c5.703 5.4 11.602 10.982 17.377 16.501 5.463 5.223 11.914 10.372 20.305 16.208q.83.577 1.655 1.16a913 913 0 0 1-6.288 4.383c-5.265 3.655-10.71 7.433-15.899 11.355-5.127 3.877-10.036 7.912-15.234 12.185-1.962 1.613-3.95 3.247-5.983 4.899-.518-23.308-.773-46.62-.786-71.17l.006.005a43 43 0 0 1 1.747 1.536zm68.958 75.307c.324 2.386.664 4.853.931 7.275.233 2.114 1.457 2.569 2.442 2.577h.031c1.38 0 2.184-.867 2.392-2.577a480 480 0 0 1 1.036-7.85c.755-5.52 1.536-11.227 1.904-16.879.45-6.915.568-13.85.705-21.878.065-3.837.133-7.804.242-12.187v-.033l-.13-5.433c-.147-6.378-.329-14.315-.57-22.251a32 32 0 0 0-.836-6.028A3.42 3.42 0 0 0 85.62.76h-.02a3.48 3.48 0 0 0-3.558 2.724 18.6 18.6 0 0 0-.691 3.713c-.108 1.55-.226 3.1-.343 4.65-.352 4.67-.716 9.497-.83 14.26l-.154 6.28c-.33 13.285-.671 27.024-.504 40.537.18 5.31.684 10.603 1.513 15.85"/></g><defs><clipPath id="a"><path fill="#fff" d="M.777 0h90v101h-90z"/></clipPath></defs></svg>