<svg xmlns="http://www.w3.org/2000/svg" width="161" height="154" fill="none" viewBox="0 0 161 154"><g clip-path="url(#a)"><path fill="#000" d="M13.965 26.393c-.62.008-1.24-.004-1.86-.015a34 34 0 0 0-3.502.057c-4.356.363-6.13 2.178-6.33 6.474-.3 6.484-.558 13.077-.808 19.453l-.278 7.057c-.02.465-.016.932.008 1.39.314 5.942 2.545 8.39 8.527 9.355.51.082 1.027.14 1.547.194 1.77.194 3.444.381 4.97 1.556.039.796.085 1.595.129 2.394.11 1.908.226 3.883.244 5.82q.122 13.56.217 27.117.113 14.988.245 29.976c0 3.119.167 6.236.498 9.338.503 4.293 1.741 5.519 6.02 5.966l1.554.165c4.12.508 8.262.809 12.413.899q6.528.03 13.02.031c11.35 0 22.576-.07 33.513-.21 5.875-.075 11.844-.283 17.616-.485 4.243-.148 8.631-.302 12.946-.4 4.182-.097 8.438-.121 12.555-.145 3.066-.018 6.237-.036 9.356-.084 3.554-.054 5.507-1.698 6.138-5.177.165-1.054.25-2.119.251-3.185.015-.507.028-1.013.061-1.518q.388-6.052.802-12.1c.593-8.837 1.206-17.975 1.7-26.97.158-2.884.461-5.828.754-8.67.868-8.432 1.765-17.142-.856-25.948q.325-.07.627-.14a18 18 0 0 1 2.132-.388c.883-.083 1.794-.13 2.674-.171 1.304-.065 2.653-.13 3.977-.324 3.547-.517 5.576-2.742 5.868-6.426a17.4 17.4 0 0 0-.054-2.601l-.01-.149c-.578-8.194-1.166-16.387-1.755-24.677l-.502-7.037a.664.664 0 0 0-.574-.612 54 54 0 0 1-1.141-.17c-.786-.121-1.528-.236-2.288-.282q-3.668-.224-7.337-.428c-4.331-.248-8.81-.504-13.208-.811a7.7 7.7 0 0 1-2.158-.623l-.472-.182q.297-.647.583-1.24a28 28 0 0 0 1.463-3.474 14.18 14.18 0 0 0-.822-11.07 14.38 14.38 0 0 0-8.834-6.954 20.5 20.5 0 0 0-9.49-.552c-9.03 1.584-17.166 5.706-24.875 12.6a162 162 0 0 0-2.964 2.74q-.486.459-1.009.946c-.24-.388-.47-.755-.69-1.11-.7-1.13-1.305-2.104-1.948-3.07a21.94 21.94 0 0 0-7.985-7.347C65.767.466 56.298.052 46.48 3.947a15.56 15.56 0 0 0-6.908 5.62c-3.61 5.059-3.465 9.268.489 14.073q.811.94 1.721 1.785.283.278.625.61l-5.396.069c-8.156.102-15.601.2-23.047.289M27.27 78.078c-.084-1.495-.219-2.976-.36-4.538q-.07-.762-.14-1.549.263-.048.506-.096a9 9 0 0 1 1.643-.225 26591 26591 0 0 1 41.13-.017h8.092c-.003 3.721-.036 7.4-.068 10.966-.077 8.64-.15 16.8.17 25.054.32 8.272 1.02 16.342 1.76 24.887.3 3.463.61 7.039.889 10.605q-.516.152-.987.302a8.4 8.4 0 0 1-2.332.517c-15.153.112-30.084.16-47.84.194h-.008a8.3 8.3 0 0 1-1.64-.238 23 23 0 0 0-.643-.13q-.05-.511-.104-1.01a27 27 0 0 1-.203-2.948q.085-13.854.194-27.708.099-13.365.186-26.73c.015-2.486-.115-4.984-.245-7.336m39.259-42.447c1.184-.01 2.37-.048 3.552-.086 2.284-.073 4.64-.148 6.9 0 .743 4.663 1.078 18.073.603 24.552-3.295.813-6.774.758-10.144.701-1.8-.028-3.662-.059-5.495.041-4.993.27-10.092.308-15.022.344l-3.97.034c-4.624.043-9.406.089-14.087-.125-1.274-.059-2.575-.08-3.832-.1-4.05-.065-8.235-.134-12.572-1.438l-1.085-23.528a31.3 31.3 0 0 1 7.085.117c1.191.113 2.424.23 3.64.263 3.557.096 7.25.146 11.287.153 3.575.004 7.422-.006 11.293-.126 1.895-.059 3.817-.173 5.674-.283 1.615-.096 3.285-.194 4.923-.26 3.79-.142 7.574-.229 11.25-.258zM50.617 25.254 46.51 19.52c.323-3.535 2.038-5.586 5.541-6.634 5.182-1.553 9.962-1.58 14.602-.09 5.264 1.692 8.624 5.241 11.115 11.797zm39.747-1.465a40.25 40.25 0 0 1 22.979-13.337c3.228-.663 6.897-.88 9.729 2.492.622 6.316.62 6.52-1.18 10.585q-.276.046-.563.1-1.028.22-2.078.266c-9.091.13-18.656.23-28.437.295a3 3 0 0 1-.277-.24zm-3.02 83.535c.225-8.263.173-16.356.119-24.924-.023-3.528-.045-7.079-.048-10.663 6.607-.791 46.298-2.608 52.911-2.43q-.195.913-.397 1.823c-.415 1.873-.842 3.808-1.09 5.747-.903 7.118-1.604 13.097-2.097 19.144-.57 7.015-1.015 14.154-1.445 21.059q-.19 3.044-.383 6.089-.274 4.32-.522 8.642c-.194 3.3-.388 6.596-.603 9.892a3.5 3.5 0 0 1-.341 1.043q-.076.175-.153.363H85.481c.195-3.546.407-7.067.618-10.57.5-8.276 1.016-16.834 1.245-25.214zm61.908-75.06a.55.55 0 0 1 .091.229c-.178 7.535-.364 15.07-.557 22.825l-.048 1.955q-.52.103-1.023.211c-.97.23-1.956.392-2.949.485a873 873 0 0 1-56.128 2.006c-.94-5.2-1.228-18.556-.518-24.426 3.848-.858 7.903-.947 11.834-1.036 1.066-.023 2.132-.046 3.195-.085 2.435-.086 4.918-.1 7.32-.114 2.601-.015 5.291-.03 7.937-.138 5.336-.215 10.567-.611 15.902-1.035 3.512-.277 7.022-.616 10.415-.944l4.054-.388q.125.116.221.202.137.115.254.252z"/></g><defs><clipPath id="a"><path fill="#fff" d="M.777 0h160v154h-160z"/></clipPath></defs></svg>