<svg xmlns="http://www.w3.org/2000/svg" width="186" height="171" fill="none" viewBox="0 0 186 171"><g clip-path="url(#a)"><path fill="#000" d="M185.696 74.219c-.321-18.996-8.037-35.209-22.952-48.185-11.96-10.416-26.647-18.003-43.643-22.557C112.524 1.719 105.574.214 98.304.214a47.7 47.7 0 0 0-11.353 1.333c-17.062 4.178-29.575 9.005-40.56 15.668-16.43 9.966-26.861 19.866-33.825 32.106C3.154 65.844-.274 82.9 2.087 101.46c1.395 10.927 5.403 21.709 12.62 33.929 5.69 9.628 12.987 16.537 22.312 21.112 4.902 2.414 9.725 4.748 14.72 6.876 13.227 5.636 26.795 7.917 43.997 7.393 1.074-.146 2.388-.305 3.882-.484 3.989-.478 9.452-1.127 14.767-2.089 14.855-2.678 27.021-7.22 37.195-13.884a47.4 47.4 0 0 0 9.231-7.758 89.4 89.4 0 0 0 12.853-18.659c8.43-16.108 12.365-33.666 12.032-53.677M32.336 36.398c12.827-11.644 26.755-19.74 42.576-24.746l2.741-.868-2.08 1.976c-9.726 9.27-16.03 20.82-20.438 29.844l-.18.378-.427-.006c-5.436-.053-17.389-3.037-22.051-5.504l-.834-.444zM8.651 84.665c1.54-15.456 7.257-29.175 17.476-41.932l.28-.345 25.48 7.526-.247.663a160.7 160.7 0 0 0-8.544 33.67l-.08.564-34.439.596zm12.44 48.616-.307-.471C12.273 119.595 8.21 106.155 8.37 91.727l.006-.657h33.258l.767 33.147zm29.649 22.12c-9.4-4.137-19.117-8.414-26.095-17.08l-.493-.611.686-.377c6.237-3.495 12.674-5.53 18.143-7.062l.727-.199.114.736c1.594 9.906 4.322 17.531 8.578 23.989l1.24 1.877zm34.984 8.002-.593.046q-1.655.14-3.276.14a64 64 0 0 1-13.28-1.672 3.32 3.32 0 0 1-1.9-1.511l-.962-1.558c-2.531-4.118-5.082-6.265-7.603-12.632-2.512-6.345-4.53-12.4-5.183-17.955l-.065-.591.58-.129a188 188 0 0 1 32.918-4.522l.727-.04zm1.668-47.032-35.345 5.066-.093-.656c-1.462-10.171-1.234-20.529-.821-29.32l.027-.63h37.292zm1.267-32.337H52.093l.065-.723c.94-10.025 3.355-20.403 7.377-31.727l.174-.485 28.95 2.301zm.213-37.417-26.58-1.613.38-.869C69.61 28.197 78.42 16.81 90.414 8.322l1.154-.816zm31.45-33.67c10.865 3.195 24.826 8.235 36.485 18.971l.701.645-1.721.875c-5.51 2.805-10.71 5.451-16.995 6.433l-.441.073-.233-.388a307 307 0 0 1-2.715-4.535c-4.409-7.413-8.965-15.085-15.708-20.94l-2.302-1.996zM97.69 14.319c.08-1.651.16-3.315.234-4.98l.046-.96.888.377c13.159 5.63 22.558 15.576 30.475 32.252l.367.774-3.101.577c-9.785 1.837-19.03 3.574-28.886 3.892l-.674.02-.013-.67c-.31-10.498.164-20.594.665-31.283zm-.779 39.314 36.156-5.451.2.464c4.296 9.654 6.324 20.462 6.197 33.038v.636l-42.556 1.585zm-.407 36.932 42.856-1.346-.02.71a175 175 0 0 1-3.181 28.207l-.114.577-40.56-2.892zm15.889 70.802c-4.403.71-8.818 1.307-13.487 1.936-1.595.219-3.215.438-4.877.664l-.793.112 1.794-41.342.614-.02c11.273-.425 22.892.445 37.666 2.811l.807.13-.287.756q-.452 1.191-.893 2.374c-2.597 6.929-5.765 13.056-9.032 19.407-3.591 6.982-10.311 12.979-11.514 13.171zm48.885-27.802c-6.53 12.532-17.789 18.108-28.975 22.272l-1.848.69 1.047-1.665c4.896-7.743 8.091-16.185 11.473-25.123l.894-2.366 17.776 5.489zm15.881-44.983c-1.18 14.137-4.608 25.979-10.778 37.265l-.248.457-20.11-5.238 3.449-32.272 27.747-.954zm.354-8.275-.074.564-28.02.982-.081-.597c-.24-1.807-.454-3.634-.667-5.405-.466-4.004-.954-8.135-1.787-12.1-.827-3.906-1.994-7.665-3.236-11.644-.526-1.71-1.08-3.474-1.594-5.245l-.166-.57 20.697-8.533.307.225c9.39 6.935 16.494 27.511 14.62 42.322z"/></g><defs><clipPath id="a"><path fill="#fff" d="M.777 0h185v171h-185z"/></clipPath></defs></svg>