<svg xmlns="http://www.w3.org/2000/svg" width="159" height="157" fill="none" viewBox="0 0 159 157"><g clip-path="url(#a)"><path fill="#000" d="M1.215 83.913a.67.67 0 0 0 .26.531l.164 9.587c.189 11.14.385 22.656.608 33.984-.006 1.828.193 3.65.591 5.434 3.628 14.491 16.18 23.006 31.981 21.719 4.633-.38 8.75-.535 12.583-.467 13.134.227 26.486.521 39.398.801q8.825.195 17.65.381c.91.017 1.84 0 2.737-.014a37 37 0 0 1 4.865.123c2.403.276 4.82.413 7.238.413a70 70 0 0 0 14.841-1.648c13.689-2.953 24.466-16.824 24.025-30.922-.219-6.988-.336-14.633-.36-23.372-.017-6.051.007-12.206.03-18.159.044-11.566.089-23.528-.155-35.289-.167-8.133-1.403-16.172-2.589-22.964-1.431-8.197-5.207-14.298-11.217-18.135-6.39-4.08-12.07-5.869-17.894-5.652-1.812.069-3.646.212-5.419.35-2.149.167-4.371.34-6.55.381-8.378.16-16.9.24-25.14.317-18.78.177-38.198.36-57.283 1.486-4.04.213-8.038.923-11.905 2.112C9.951 7.97 2.24 17.5 1.738 27.07l-.13 2.407c-.175 3.157-.358 6.422-.37 9.641a7072 7072 0 0 0-.03 32.538q.006 6.126.007 12.257m65.67-73.569q4.437-.097 8.875-.203h.087c.278 0 .58.032.955.07l.158.017c-1.673 22.084-1.755 44.27-1.69 63.43l-64.985 1.397-.077-.877c-.084-.952-.157-1.774-.163-2.6a2334 2334 0 0 1-.05-10.897c-.021-6.505-.044-13.231-.147-19.848a43.8 43.8 0 0 1 2.562-15.735c2.158-6.021 6.211-9.817 12.387-11.603 6.377-1.844 13.075-2.162 19.554-2.469l.087-.004c7.472-.355 15.083-.519 22.444-.678zM10.154 120.872v-.445c.008-7.852.053-15.834.098-23.556l.05-9.19q-.001-.44-.01-.883c-.01-.493-.019-.96.005-1.425.083-1.609.482-2.085 1.885-2.085q.15-.002.313.007c.824.035 1.672.134 2.491.232q1.582.217 3.18.253c5.97.021 12.353-.01 20.69-.104a6939 6939 0 0 0 20.862-.267q6.747-.091 13.496-.178.66-.001 1.318.065l.375.029-.574 63.026-.305.027c-.559.049-1.04.093-1.518.094l-6.143.015c-11.217.029-22.813.056-34.223.051-5.471 0-10.028-1.454-13.933-4.43-4.096-3.127-6.602-7.644-7.653-13.811a44 44 0 0 1-.408-7.425zm76.399-37.616c.971 0 1.83.003 2.69 0a9975 9975 0 0 1 12.478-.079c11.007-.065 22.389-.13 33.584-.275 3.256-.042 6.464-.26 9.86-.492 1.342-.092 2.703-.184 4.089-.267v2.29l.036 11.784q.042 14.331.114 28.668c.052 8.524-7.142 18.312-15.396 20.946a56.3 56.3 0 0 1-18.531 2.499c-7.038-.169-14.195-.521-21.115-.856q-3.935-.196-7.871-.376a49 49 0 0 1-2.67-.216l-.64-.065c2.062-22.42 2.39-44.657 2.422-63.562zm62.84-18.07c-.04 2.811-.081 5.717-.07 8.551h-63.44l-2.092-63.523.353-.061a10 10 0 0 1 1.601-.2q5.05-.058 10.1-.13c9.363-.131 19.052-.261 28.566-.18a23.6 23.6 0 0 1 16.433 6.7 15.26 15.26 0 0 1 3.759 6.173 116 116 0 0 1 3.158 13.187c1.908 9.74 1.767 19.778 1.629 29.483z"/></g><defs><clipPath id="a"><path fill="#fff" d="M.777 0h158v157h-158z"/></clipPath></defs></svg>