<svg xmlns="http://www.w3.org/2000/svg" width="158" height="157" fill="none" viewBox="0 0 158 157"><g clip-path="url(#a)"><path fill="#000" d="M1.538 102.414c.194 8.006.39 16.286.47 24.426.053 5.58 1.278 10.276 3.746 14.358 5.06 8.371 12.202 12.97 21.215 13.666 2.794.159 5.595.15 8.388-.025 1.619-.069 3.293-.141 4.93-.142 5.065 0 10.457.053 16.965.184 12.342.247 24.57.528 35.947.796 6.142.144 12.283.304 19.106.483l9.958.26h.016a1 1 0 0 0 .094-.006c.649-.093 1.45-.189 2.364-.298 2.445-.291 5.794-.692 9.052-1.375 13.527-2.833 24.229-16.586 23.856-30.656a919 919 0 0 1-.344-24.038c-.003-7.16.039-14.44.08-21.48.036-6.106.072-12.42.079-18.631 0-1.285-.112-2.58-.22-3.83a32 32 0 0 1-.181-4.799c.599-9.433-.892-18.73-2.335-26.705-1.246-6.883-3.784-12.014-7.759-15.69-6.334-5.854-13.699-8.729-21.889-8.59-1.959.037-3.937.201-5.85.36-1.894.157-3.853.32-5.774.356-8.447.16-17.038.245-25.347.326-18.65.184-37.935.375-56.89 1.433-2.36.078-4.711.341-7.03.788-12.232 2.641-19.722 9.79-22.26 21.249a32.4 32.4 0 0 0-.481 7.256c.007.736.013 1.47.004 2.2q-.065 5.505-.157 11.01c-.157 10.304-.319 20.959-.235 31.44.07 8.56.28 17.26.482 25.674m147.186-45.099V94.46l-37.634.797-1.147-37.318zm-37.758 48.465q2.704-.025 5.362-.04c4.597-.028 8.939-.056 13.372-.166 4.448-.11 8.811-.299 13.429-.498q2.748-.12 5.547-.235l.018.122q.137.792.162 1.597c.011 1.889.065 3.814.117 5.673.216 4.432.155 8.873-.185 13.297-.916 9.26-5.553 15.923-13.781 19.804-4.547 2.145-18.741 3.909-24.041 2.619zm32.972-83.92a96 96 0 0 1 2.754 10.554c.633 3.183 1.088 6.468 1.527 9.642q.195 1.425.4 2.848.134 1.088.156 2.185.008.242.019.488l-39.494.798-1.724-38.987c1.946.065 3.872.114 5.741.158 5.125.12 9.96.236 14.797.782 2.969.333 5.918 1.885 8.77 3.387l.497.26a13.3 13.3 0 0 1 4.067 3.283 13.3 13.3 0 0 1 2.491 4.602zM60.26 49.664l-.097-.586a12 12 0 0 1-.23-1.88 3272 3272 0 0 1-.128-13.03q-.066-7.19-.146-14.377c-.028-2.185-.119-4.365-.214-6.673a657 657 0 0 1-.108-2.69l41.353-.737.549 38.932zm.086 74.05c.226-5.538.46-11.257.537-16.962 13.157-1.003 26.038-.977 39.669-.951l1.622.004-.808 41.818-41.56-1.407c-.07-7.467.24-15.108.541-22.505zm.714-27.283-.512-37.362c4.39-.582 34.649-1.245 41.03-.643.594 9.09.589 18.05.584 27.526 0 3.01 0 6.034.015 9.073zM47.714 10.928c.75 0 1.51.013 2.29.027q.975.02 1.97.028c.464 1.25.318 2.588.164 3.999a23 23 0 0 0-.149 1.783c-.24 6.97-.523 14.06-.796 20.915q-.194 4.883-.384 9.764a40 40 0 0 0-.012 1.889c0 .195.005.395.006.61-14.125.617-27.536.969-40.948 1.075q-.03-1.356-.069-2.702c-.216-8.038-.42-15.63 2.365-23.047C14.476 19.08 18.6 15.229 24.76 13.49c5.514-1.557 11.284-1.915 16.868-2.262 1.14-.071 2.28-.142 3.419-.222.884-.06 1.767-.08 2.668-.08M10.209 99.802V59.165h40.733c.548 12.443.568 24.972.06 38.26zm-.094 8.316v-.591H50.98l-1.438 39.178c-2.224-.051-4.436-.068-6.581-.085-5.407-.044-10.515-.084-15.64-.617-7.285-.757-12.651-5.039-15.52-12.387a30 30 0 0 1-1.917-12.494c.13-2.568.16-5.178.187-7.702.01-1.003.02-2.007.039-3.01.01-.739.008-1.475.008-2.294z"/></g><defs><clipPath id="a"><path fill="#fff" d="M.777 0h157v157h-157z"/></clipPath></defs></svg>