<svg xmlns="http://www.w3.org/2000/svg" width="159" height="156" fill="none" viewBox="0 0 159 156"><g clip-path="url(#a)"><path fill="#000" d="M158.344 106.168c-.561-10.185-1.141-20.717-1.895-31.065a116.5 116.5 0 0 0-6.819-31.892 66.8 66.8 0 0 0-12.454-21.328C125.838 9.08 110.998 1.849 93.069.387c-11.901-.97-23.382 1.519-33.043 4.078C42.644 9.075 28.63 18.712 18.375 33.11 7.762 48.006 2.103 65.28 1.555 84.44a693 693 0 0 1-.156 4.626c-.18 5.03-.364 10.227-.155 15.341.19 4.628.792 9.302 1.375 13.822.201 1.56.402 3.12.587 4.68.344 2.897 2.292 4.739 5.483 5.187q1.737.209 3.485.209c.83.016 1.687.033 2.513.104q1.251.139 2.475.435.356.078.719.154.052.856.108 1.657c.097 1.424.188 2.769.195 4.09.019 3.91 1.118 7.824 3.46 12.316 2.966 5.691 8.04 8.71 14.67 8.733h.078c6.954 0 12.13-3.183 14.973-9.208 2.53-5.363 3.658-9.575 3.658-13.658a238 238 0 0 0-1.047-24.592c-1.003-9.5-7.962-15.613-17.75-15.613h-.162c-5.428.037-10.019 1.846-13.274 5.231-3.283 3.415-4.925 8.127-4.746 13.629.015.468.045.939.074 1.413.13 2.007.247 3.911-.687 5.802-.4-.029-.8-.043-1.189-.057-1.722-.064-3.352-.118-4.819-1.369-.35-11.711.182-23.578.756-34.735a90 90 0 0 1 5.832-27.602C23.385 41.02 31.614 30.544 43.17 23.01c15.719-10.245 33.284-12.262 48.395-12.88 25.781 2.735 41.85 15.432 49.124 38.819a123.4 123.4 0 0 1 5.086 29.199l.137 2.184c.367 5.798.745 11.794.96 17.692.033.898.089 1.799.147 2.704a36.2 36.2 0 0 1-.11 8.125l-6.17 1.528-.161-.33a3.9 3.9 0 0 1-.41-1.036c-.814-5.799-4.079-10.247-10.581-14.424a17.6 17.6 0 0 0-19.692 1.095c-3.711 2.957-5.995 7.427-6.605 12.924a78 78 0 0 0-.231 11.383 412 412 0 0 1 .115 3.53c.066 5.258.419 10.509 1.06 15.729 1.301 9.182 7.516 15.006 17.051 15.98 6.202.631 11.184-1.634 14.409-6.558 4.191-6.401 5.601-12.329 4.311-18.121a16.2 16.2 0 0 1 .536-9.092c1.031.007 2.043.031 3.044.056 2.477.113 4.957.069 7.428-.129 5.55-.566 7.987-3.475 7.67-9.158zM44.547 122.729c-.026.597-.05 1.183-.05 1.752q0 .089.023.174a18.7 18.7 0 0 1-1.455 13.816l-.195.389a14.4 14.4 0 0 1-1.37 2.376 7.65 7.65 0 0 1-6.696 3.023 7.33 7.33 0 0 1-5.939-3.971 11.9 11.9 0 0 1-1.436-4.721 706 706 0 0 1-.945-23.138c-.111-4.511 2.196-7.417 6.493-8.18.715-.131 1.44-.199 2.166-.204 3.428 0 5.751 1.742 7.068 5.282a51 51 0 0 1 2.235 9.468c.166 1.305.2 2.623.1 3.934m84.05-6.233c.018.762.013 1.532.008 2.304a26.6 26.6 0 0 0 .588 7.086c1.247 4.596-.576 8.47-2.339 12.214-1.31 2.783-3.049 3.992-5.485 3.803-3.626-.28-5.796-1.638-6.82-4.276a21 21 0 0 1-1.603-6.176c-.51-9.066-.764-16.418-.798-23.139-.008-1.664.995-3.354 2.752-4.638a9.1 9.1 0 0 1 5.26-1.764 6.7 6.7 0 0 1 2.08.314 21.2 21.2 0 0 1 4.311 2.208c.647.392 1.313.795 2.028 1.197 0 1.178-.007 2.302-.012 3.388-.014 2.6-.026 5.058.029 7.479z"/></g><defs><clipPath id="a"><path fill="#fff" d="M.777 0h158v156h-158z"/></clipPath></defs></svg>