<svg xmlns="http://www.w3.org/2000/svg" width="143" height="131" fill="none" viewBox="0 0 143 131"><g clip-path="url(#a)"><path fill="#000" d="m67.396 125.449.723.22c2.661.805 5.174 1.564 6.83 4.892a.67.67 0 0 0 .419.346.68.68 0 0 0 .535-.086c1.221-.803 2.371-1.53 3.463-2.221 2.289-1.448 4.265-2.697 6.155-4.153a112.8 112.8 0 0 0 18.439-17.482c7.196-8.701 14.637-17.7 21.642-27.118 4.384-5.897 8.121-12.48 11.28-18.184a45.9 45.9 0 0 0 5.514-18.746c.857-10.81-1.689-20.553-7.568-28.96C128.286 4.603 119.585.047 108.986.398 97.029.8 86.513 5.415 77.73 14.114q-.64.663-1.18 1.412c-.683.899-1.331 1.753-2.306 2.091C63.997 7.541 56.165 3.6 44.447 2.589 32.42 1.552 22.685 5.457 15.507 14.19A83.7 83.7 0 0 0 6.19 28.125C.575 38.74-.596 50.033 2.718 61.689a83.9 83.9 0 0 0 14.507 28.636c13.246 17.063 30.127 28.882 50.17 35.124M17.79 30.135a82 82 0 0 1 5.133-8.476c4.47-6.587 10.77-9.911 18.758-9.911q1.485 0 3.047.153c10.67 1.047 19.23 5.794 25.441 14.107.746.999 1.56 1.923 2.276 2.738.291.332.566.644.808.93.1.12.24.2.393.225 2.88.502 4.045-1.006 4.91-2.454 4.987-8.354 12.75-13.34 24.433-15.691a28.6 28.6 0 0 1 8.375-.213c4.425.422 8.221 2.618 11.284 6.525a28.46 28.46 0 0 1 5.934 15.612 36.1 36.1 0 0 1-3.455 19.127 115 115 0 0 1-7.386 13.311c-5.108 7.599-10.564 15.153-15.838 22.459l-1.834 2.541c-3.928 5.447-7.99 10.936-11.918 16.245a5145 5145 0 0 0-4.249 5.749c-.61.827-1.246 1.638-1.919 2.497l-.676.865c-1.884-.782-3.719-1.547-5.518-2.294a2115 2115 0 0 1-12.332-5.152 89.1 89.1 0 0 1-29.762-20.267c-8.67-9.008-14.68-18.645-18.371-29.463-3.365-9.867-2.56-19.407 2.466-29.163"/></g><defs><clipPath id="a"><path fill="#fff" d="M.777 0h142v131h-142z"/></clipPath></defs></svg>