<svg xmlns="http://www.w3.org/2000/svg" width="162" height="158" fill="none" viewBox="0 0 162 158"><g clip-path="url(#a)"><path fill="#000" d="M151.246 50.981a100 100 0 0 0-7.893-7.887 295 295 0 0 1-2.837-2.654 1302 1302 0 0 0-7.769-7.343c-4.126-3.884-8.392-7.9-12.523-11.916-5.259-5.11-12.339-11.673-20.526-17.121C94.133.354 88.284-.55 82.314 1.36c-2.95.944-6.05 2.016-8.668 3.795C65.928 10.4 59.32 15.201 53.442 19.832c-7.15 5.635-14.342 11.46-21.297 17.092-5.518 4.47-11.225 9.09-16.874 13.59-5.778 4.6-9.362 9.707-10.955 15.611A54.7 54.7 0 0 0 2.309 79.03c-.1 4.47.026 9.01.148 13.401.103 3.7.21 7.527.18 11.283a418 418 0 0 0-.013 3.041c-.012 5.57-.024 11.331-1.05 16.768-1.947 10.321 2.013 18.917 11.765 25.553 7.103 4.831 15.4 5.809 23.423 6.755a285 285 0 0 0 33.67 1.875c5.802 0 11.852-.144 18.228-.429l11.036-.427c9.284-.36 19.136-.741 28.985-1.128a62.9 62.9 0 0 0 17.818-3.138c5.596-1.882 9.673-5.488 11.779-10.427 2.049-4.797 3.105-8.947 3.226-12.69a450 450 0 0 0-1.979-58.038c-.788-8.105-3.573-14.983-8.279-20.448m-91.901 93.082c.134-1.431.26-2.783.295-4.132q.224-9.158.416-18.317.189-8.682.393-17.361c.095-3.885.235-6.852.459-9.623.338-4.216 1.8-5.917 5.794-6.75a82 82 0 0 1 13.374-1.879c3.6-.13 7.293.023 10.86.174 2.203.093 4.48.19 6.726.218 2.03.026 3.033.91 3.351 2.965.26 1.68.571 3.381.872 5.027a78 78 0 0 1 1.537 11.687c.26 9.034.21 17.915.157 27.318q-.03 5.397-.042 10.896c-14.787 1.067-29.303 1.469-44.325 1.243.043-.505.089-.989.133-1.466m55.495-36.534c-.545-6.509-1.995-13.028-3.398-19.333l-.443-2c-1.284-5.812-5.158-9.27-11.202-9.997-14.683-1.77-25.882-1.477-36.311.952C54.439 79.26 49.7 84.686 49 93.745c-.431 5.58-.381 11.277-.333 16.786.014 1.531.027 3.061.03 4.589.015 5.767.086 11.627.154 17.295q.06 5.032.11 10.063c.006.61-.05 1.241-.116 1.972l-.054.616c-7.413-.344-13.651-.882-19.796-2.295-2.958-.679-6.353-1.535-9.219-3.094-5.209-2.833-7.641-6.73-7.437-11.914.17-4.287.218-8.878.149-14.035-.13-9.711-.325-19.584-.512-29.13l-.09-4.545c-.108-5.507.967-10.107 3.286-14.061 1.19-2.031 2.498-4.138 4.216-5.63 8.78-7.623 16.776-14.354 24.446-20.583 8.332-6.762 18.053-14.602 27.988-22.003 3.495-2.604 7.466-4.581 12.359-6.749a10.5 10.5 0 0 1 4.294-.956c2.376 0 4.754.885 7.186 2.661 6.84 4.999 12.934 11.02 18.827 16.844 1.565 1.547 3.13 3.095 4.712 4.626q2.226 2.157 4.447 4.32c5.123 4.98 10.419 10.13 15.752 15.066a27.6 27.6 0 0 1 8.981 17.54c.871 7.62 1.617 14.5 1.928 21.527.432 9.729.665 20.41.715 32.653a43 43 0 0 1-1.358 10.022 7.54 7.54 0 0 1-6.264 6.039c-.923.179-1.846.374-2.768.569a58 58 0 0 1-7.282 1.221c-4.071.325-8.14.455-12.449.596-1.645.054-3.318.108-5.029.174q-.05-1.31-.102-2.545c-.086-2.134-.169-4.148-.213-6.151a538 538 0 0 1-.102-8.659c-.045-6.252-.086-12.716-.617-19.045"/></g><defs><clipPath id="a"><path fill="#fff" d="M.777 0h161v158h-161z"/></clipPath></defs></svg>