<svg xmlns="http://www.w3.org/2000/svg" width="155" height="151" fill="none" viewBox="0 0 155 151"><path fill="#000" d="M80.111 59.045a.67.67 0 0 0-.512-.251c-2.19.043-3.532 1.074-3.989 3.065a48 48 0 0 0-1.132 6.192 389 389 0 0 0-1.687 49.759c.08 2.365.372 5.099 1.931 7.453a4.8 4.8 0 0 0 1.788 1.393c.312.174.634.354.942.56a.624.624 0 0 0 .82-.112c.266-.308.547-.587.824-.857a4.5 4.5 0 0 0 1.382-1.898l.09-.328c.63-2.301 1.281-4.679 1.305-7.073.143-14.451.177-29.143.21-43.352l.023-9.2a8.6 8.6 0 0 0-.326-2.97 6 6 0 0 0-1.225-1.848 9 9 0 0 1-.444-.533m5.178-12.329c1.933-3.696 1.556-7.534-1.093-11.103-2.812-3.787-6.484-4.683-10.915-2.663a.63.63 0 0 0-.316.329q-.34.81-.686 1.6c-1.275 2.924-2.475 5.687-2.11 8.954.413 3.693 2.753 6.402 6.106 7.068a9 9 0 0 0 1.722.172 8.15 8.15 0 0 0 7.292-4.357m-7.493-6.04-.12 1.782c-.374-.326-.632-.596-.639-.75-.006-.188.29-.552.76-1.033"/><path fill="#000" d="M3.39 55.015c-6.803 26.789-.845 50.421 17.72 70.252.483.512.977 1.024 1.469 1.518 9.973 9.99 22.395 16.159 32.237 20.452 4.225 1.848 25.901 4.092 31.766 3.217 34.854-5.214 57.791-24.908 65.779-57.855a84.4 84.4 0 0 0 2.263-19.698c.038-15.624-6.529-33.788-20.071-47.392a272 272 0 0 1-4.127-3.51c-2.913-2.51-5.925-5.107-9.075-7.323C97.283-2.294 72.276-2.389 47.028 6.61 24.168 14.75 9.488 31.04 3.39 55.015M47.127 14.63c22.152-9.223 44.38-10.85 66.059 2.962 3.964 2.529 14.532 11.085 16.196 12.37l.107.08.088.098c8.458 8.985 18.143 25.414 17.929 42.302a86.4 86.4 0 0 1-2.905 21.384c-5.507 20.051-18.672 34.665-40.249 44.66-21.935 10.522-53.392-.115-61.761-5.65a97.9 97.9 0 0 1-23.93-23.303c-10.327-14.647-12.644-35.7-7.095-54.945A62.4 62.4 0 0 1 24.85 30.594a62.3 62.3 0 0 1 22.275-15.965"/></svg>