<svg xmlns="http://www.w3.org/2000/svg" width="111" height="121" fill="none" viewBox="0 0 111 121"><g fill="#000" clip-path="url(#a)"><path d="M4.158 54.761q.195-24.2.408-48.404c.038-1.218.168-2.432.388-3.63a2.44 2.44 0 0 1 .8-1.618A2.4 2.4 0 0 1 7.44.491c1.504-.05 2.66.674 2.967 2.147.396 1.961.663 3.947.802 5.943 1.998 26.123 1.31 52.268.655 78.416-.194 7.788-.281 15.574-1.378 23.303a30.4 30.4 0 0 1-.841 4.583c-.385 1.389-1 2.702-1.82 3.885-1.85 2.493-4.884 2.086-6-.778a7.4 7.4 0 0 1-.543-3.559c1.38-9.611 1.5-19.292 1.747-28.966.259-10.236.47-20.472.704-30.706zm61.805 45.979c-8.29.398-16.577.862-24.87 1.17-4.529.169-9.071.093-13.607.078a10.6 10.6 0 0 1-2.62-.381 3.75 3.75 0 0 1-2.096-1.257 3.8 3.8 0 0 1-.884-2.288 3.83 3.83 0 0 1 .818-2.32 3.8 3.8 0 0 1 2.055-1.336 11.7 11.7 0 0 1 2.626-.29q27.528-1.196 55.057-2.369a2821 2821 0 0 1 21.563-.855c1.21-.072 2.423.032 3.603.31.88.181 1.67.664 2.236 1.367.564.702.87 1.58.863 2.483a4 4 0 0 1-.726 2.36 3.96 3.96 0 0 1-1.972 1.475c-.93.344-1.902.564-2.889.654-2.645.231-5.297.434-7.95.514-10.4.309-20.8.565-31.2.842zM47.566 56.922c5.203 0 10.405-.035 15.606.026 1.211.021 2.413.214 3.57.573.772.239 1.456.7 1.97 1.325a4.167 4.167 0 0 1-1.15 6.255 8.6 8.6 0 0 1-4.07 1.058c-10.841-.217-21.677-.56-32.517-.892a13.4 13.4 0 0 1-2.948-.415 3.5 3.5 0 0 1-1.973-1.149 3.53 3.53 0 0 1-.853-2.126 3.5 3.5 0 0 1 .575-2.065 3.47 3.47 0 0 1 1.668-1.337c1.02-.42 2.1-.67 3.2-.74 5.637-.267 11.279-.44 16.92-.65z"/></g><defs><clipPath id="a"><path fill="#fff" d="M.777 0h110v121h-110z"/></clipPath></defs></svg>