<svg xmlns="http://www.w3.org/2000/svg" width="92" height="75" fill="none" viewBox="0 0 92 75"><g fill="#000" clip-path="url(#a)"><path d="M47.162 66.032q18.826-.646 37.652-1.276a16.7 16.7 0 0 1 3.32.224c2.151.364 3.402 1.638 3.504 3.396.1 1.703-.78 3.02-2.715 3.727a13.5 13.5 0 0 1-3.555.826c-3.987.297-7.982.632-11.977.665-18.004.146-36.01.15-54.014.303-4.875.042-9.75.407-14.62.668-1.721.092-2.813-.487-3.386-1.99-.66-1.73-.093-3.785 1.658-4.515a14.9 14.9 0 0 1 5.135-1.123c10.107-.324 20.215-.532 30.328-.745 2.887-.061 5.776-.01 8.664-.01zM13.456 30.056c-2.643 0-5.094.129-7.525-.036-2.374-.16-3.607-1.344-3.668-3.077-.052-1.516 1.062-3.022 3.107-3.362 3.386-.565 6.825-.831 10.25-1.156 21.51-2.047 43.103-1.785 64.669-2.256 1.667-.038 3.333.11 4.967.44 2.05.42 3.102 1.691 3.167 3.34.065 1.707-.805 2.974-2.877 3.564-1.61.421-3.26.675-4.923.758-2.217.155-4.446.163-6.67.172-20.243.082-40.492-.116-60.497 1.613m9.314 21.143c-5.443-.201-10.888-.375-16.33-.616-2.739-.121-3.64-.823-3.82-2.72-.187-1.96.914-3.349 3.258-3.934a12 12 0 0 1 2.64-.272c9.892-.242 19.784-.503 29.677-.652a16.8 16.8 0 0 1 4.868.763c.667.22 1.25.64 1.67 1.203a3.4 3.4 0 0 1 .112 3.91 3.43 3.43 0 0 1-1.6 1.296c-1.64.635-3.375 1-5.134 1.08-5.11.138-10.225.049-15.34.049zM19.23 8.076c-3.548.18-7.096.395-10.647.518a7.4 7.4 0 0 1-3.24-.366 3.73 3.73 0 0 1-1.74-2.158 2.23 2.23 0 0 1 .228-1.623 2.25 2.25 0 0 1 1.276-1.035 10.8 10.8 0 0 1 3.205-.8Q21.585 1.515 34.866.545a15.7 15.7 0 0 1 4.283.316 3.03 3.03 0 0 1 1.69.989 2.998 2.998 0 0 1-1.407 4.83 13.4 13.4 0 0 1-3.234.643c-5.65.354-11.303.639-16.956.948z"/></g><defs><clipPath id="a"><path fill="#fff" d="M.777 0h91v75h-91z"/></clipPath></defs></svg>