<svg xmlns="http://www.w3.org/2000/svg" width="143" height="107" fill="none" viewBox="0 0 143 107"><g fill="#000" clip-path="url(#a)"><path d="M46.309 14.643a9.8 9.8 0 0 0 3.916 1.559c2.452.31 4.92.475 7.392.493q5.997.117 11.993.262c10.183.234 20.687.475 31.066.475q1.145 0 2.288-.004c8.182-.03 16.489-.49 24.524-.937q3.732-.208 7.461-.403c1.09-.108 2.159-.36 3.181-.75.578-.189 1.172-.387 1.847-.568a.67.67 0 0 0 .442-.392.65.65 0 0 0-.044-.585c-1.721-2.87-3.867-3.148-5.591-3.372a20 20 0 0 1-.725-.104c-10.298-1.728-19.607-3.163-29.227-3.204-3.226-.013-6.45-.045-9.677-.076-4.917-.049-10.001-.094-15.003-.08-9.17.034-18.372.163-27.352.386-2.051.036-4.08.436-5.988 1.182a3.3 3.3 0 0 0-1.379 1.119 3.23 3.23 0 0 0-.586 1.665c-.084.635.007 1.28.264 1.868a3.54 3.54 0 0 0 1.198 1.466m95.952 43.121c-.217-.612-.422-1.19-.973-1.418a14.5 14.5 0 0 0-4.021-1.067c-2.823-.28-5.646-.587-8.468-.894-7.23-.788-14.704-1.602-22.088-1.91-13.777-.573-27.795-.826-41.35-1.07q-6.665-.12-13.328-.251a13.1 13.1 0 0 0-4.795.68c-.57.28-1.077.673-1.487 1.156a4.6 4.6 0 0 0-.895 1.648 3.27 3.27 0 0 0 .236 2.42 3.32 3.32 0 0 0 1.848 1.601 23.2 23.2 0 0 0 5.924 1.488c7.583.592 15.3 1.064 22.763 1.52l2.513.153c8.241.505 16.22.758 24.021.758 10.257 0 20.207-.438 30.028-1.314q.762-.066 1.531-.122c2.79-.21 5.675-.427 8.509-1.773a.66.66 0 0 0 .317-.877 8 8 0 0 1-.285-.728m-3.178 36.252c-.243-.072-.47-.154-.687-.23a5.4 5.4 0 0 0-1.486-.38 967 967 0 0 1-7.338-.515c-6.1-.442-12.407-.902-18.629-1.06-18.048-.46-36.403-.682-54.151-.898l-2.52-.03a13.1 13.1 0 0 0-5.39 1.127c-.6.268-1.115.695-1.486 1.233a3.5 3.5 0 0 0-.616 1.819 3.8 3.8 0 0 0 .39 2.012 3.84 3.84 0 0 0 1.381 1.525 8.6 8.6 0 0 0 3.33 1.232l1.373.184c3.08.47 6.183.775 9.295.914 5.519.146 11.128.203 16.554.258 3.754.038 7.635.077 11.45.145q1.754.032 3.502.032c12.85 0 25.57-1.218 36.477-2.437l1.247-.137c1.773-.194 3.606-.392 5.399-.7 1.829-.312 2.628-1.504 2.374-3.544a.66.66 0 0 0-.469-.55M11.977 85.481c-5.244-.45-8.359 2.826-10.714 6.081a.66.66 0 0 0-.113.509c.104.549.206 1.058.302 1.54.195.961.359 1.793.487 2.634a12.2 12.2 0 0 0 2.037 5.353 12.3 12.3 0 0 0 4.272 3.855c1.65.86 3.487 1.307 5.352 1.302a12.96 12.96 0 0 0 5.561-1.289 9.6 9.6 0 0 0 3.354-2.404 9.5 9.5 0 0 0 2.024-3.574 9.2 9.2 0 0 0 .084-3.98 9.2 9.2 0 0 0-1.613-3.646 14.1 14.1 0 0 0-4.75-4.49 14.3 14.3 0 0 0-6.284-1.89m.976-60.325q.471.035.933.034c2.477.06 4.899-.729 6.855-2.234a10.6 10.6 0 0 0 3.873-6.026c1.173-5.066-.312-9.62-4.293-13.172C16.516.368 11.982-.288 7.205 1.866q-1.486.71-2.874 1.594c-.487.296-1 .609-1.563.932a.67.67 0 0 0-.33.515 106 106 0 0 1-.333 3.228 41 41 0 0 0-.398 6.469c.256 5.655 4.985 10.092 11.245 10.553M11.155 7.633a7.1 7.1 0 0 1 2.652 1.47 7 7 0 0 1 1.782 2.437c.816 1.713.73 3.057-.27 4.228-.794.929-1.94 1.166-3.61.745a3.67 3.67 0 0 1-1.96-1.095 3.6 3.6 0 0 1-.94-2.022c-.376-2.334.37-4.173 2.346-5.763m4.815 37.913h-.079C7.935 45.624 3.226 49.85 2.97 57.138a9.35 9.35 0 0 0 .61 3.734 9.4 9.4 0 0 0 2.042 3.198 11.6 11.6 0 0 0 3.862 2.518 11.7 11.7 0 0 0 4.55.82h.072a11.7 11.7 0 0 0 4.547-.835 11.65 11.65 0 0 0 3.859-2.523 10.2 10.2 0 0 0 2.258-3.418c.512-1.279.758-2.646.722-4.021-.137-6.121-4.4-11.065-9.522-11.065M14.888 57.19H11.82c-.768-1.87-.383-3.166 1.32-4.448 1.484.826 2.315 1.974 1.748 4.448"/></g><defs><clipPath id="a"><path fill="#fff" d="M.777 0h142v107h-142z"/></clipPath></defs></svg>