<svg xmlns="http://www.w3.org/2000/svg" width="38" height="141" fill="none" viewBox="0 0 38 141"><g clip-path="url(#a)"><path fill="#000" d="M16.599 33.433c-1.048-.325-1.798-.508-2.513-.786a40 40 0 0 1-5.517-2.261C2.044 26.648-.33 20.063 2.132 12.978 5.3 3.86 13.272-.875 22.774.752c1.746.299 3.472.722 5.203 1.104 4.16.919 6.816 3.48 8.185 7.477a21.75 21.75 0 0 1 .221 13.739 12.46 12.46 0 0 1-8.193 8.533c-1.452.514-2.94.927-4.69 1.473 0 .715-.004 1.46 0 2.21q.28 45.663.535 91.328c.014 3.099-.332 6.204-.584 9.3a9.4 9.4 0 0 1-.634 2.557 3.36 3.36 0 0 1-3.644 2.308 3.26 3.26 0 0 1-3.144-2.534 15.4 15.4 0 0 1-.59-3.924q.18-41.998.467-83.996c.037-4.88.454-9.758.688-14.638.032-.658.005-1.317.005-2.256m12.68-16.404c0-.554.035-1.11-.006-1.662-.274-3.692-1.856-6.318-5.751-7.086-2.493-.491-4.961-1.145-7.473-1.494a4.36 4.36 0 0 0-2.731.739c-2.622 1.723-4.04 4.34-4.893 7.291-1.162 4.02-.022 6.966 3.61 8.983a14.33 14.33 0 0 0 10.906 1.394c4.939-1.264 6.393-3.008 6.338-8.165"/></g><defs><clipPath id="a"><path fill="#fff" d="M.777 0h37v141h-37z"/></clipPath></defs></svg>