<svg xmlns="http://www.w3.org/2000/svg" width="147" height="156" fill="none" viewBox="0 0 147 156"><g fill="#000" clip-path="url(#a)"><path d="M24.313 80.746c2.872.194 5.794.314 8.619.431l2.71.114.87.038c3.425.15 6.969.307 10.457.42 3.199.105 6.689.186 10.67.251 2.595.042 5.195.065 7.794.088l3.539.032q1.745.017 3.489.041c2.571.033 5.233.061 7.847.066 3.36-.004 7.336-.024 11.348-.147 1.67-.052 3.36-.15 4.996-.245 1.851-.106 3.764-.216 5.642-.258 1.134-.025 2.289-.118 3.406-.207a33.6 33.6 0 0 1 7.196-.043 39 39 0 0 1-3.406 5.244 44 44 0 0 0-2.547 3.742l-.151.26c-1.938 3.307-3.942 6.727-5.744 10.188a75 75 0 0 1-1.47 2.642c-1.363 2.367-2.766 4.813-3.44 7.619a.66.66 0 0 0 .236.679l1.697 1.333a.67.67 0 0 0 .689.084c.203-.093.408-.169.61-.244.5-.156.97-.399 1.387-.718 8.509-7.274 16.116-16.181 24.667-28.882q.744-1.164 1.307-2.425c1.436-3.013 1.138-5.756-.885-8.152q-.339-.404-.67-.815c-.476-.588-.968-1.196-1.516-1.755a949 949 0 0 1-4.527-4.661c-3.982-4.121-8.1-8.383-12.354-12.37a89 89 0 0 0-8.701-6.878c-.974-.707-1.947-1.412-2.911-2.13l-.106-.079c-.544-.415-1.817-1.384-3.306.045a.67.67 0 0 0-.203.445c-.126 2.42 1.297 4.024 2.678 5.575q.814.871 1.498 1.849a69 69 0 0 0 5.499 6.943l.349.404c.969 1.121 2.007 2.2 3.011 3.252.959 1 1.952 2.036 2.87 3.092.633.727 1.335 1.411 2.012 2.072a20 20 0 0 1 3.579 4.22l-.21.025q-.84.132-1.692.133-5.457-.153-10.915-.337c-5.81-.186-11.818-.38-17.73-.507q-2.775-.06-5.55-.124c-16.546-.38-33.65-.774-50.462.719-6.035.534-12.128 1.442-18.02 2.32l-2.475.368a7.2 7.2 0 0 0-2.596 1.21c-.567.35-1.21.747-2.029 1.192a.67.67 0 0 0-.227.966.67.67 0 0 0 .288.232c3.617 1.516 6.736 1.565 9.487 1.608.962.015 1.87.03 2.772.1 1.557.123 3.11.273 4.665.422 1.95.184 3.967.378 5.96.513"/><path d="M145.279 7.247c-.692-3.87-3.085-6.042-6.916-6.283-1.493-.094-3.102-.216-4.73-.339-2.218-.168-4.512-.34-6.608-.449C112.517.255 87.706 1.7 85.761 1.978a2.69 2.69 0 0 0-1.947 1.13 3.52 3.52 0 0 0-.223 2.947.66.66 0 0 0 .364.427c3.763 1.728 24.085 2.21 38.924 2.56 5.796.137 10.475.249 12.737.401.078.809.159 1.57.237 2.3.195 1.812.36 3.381.399 4.958.15 6.303.305 13.757.304 21.238q0 7.47.02 14.94c.03 15.569.064 31.667-.226 47.49-.17 9.329-.772 18.815-1.355 27.987a1407 1407 0 0 0-.714 11.771 19 19 0 0 1-.292 2.164l-.136.804q-.514.077-1.017.159-1.493.267-3.005.374c-3.121.162-6.245.297-9.368.431-5.435.234-11.056.477-16.577.866-5.905.416-15.788 1.005-21.154 1.319a4.04 4.04 0 0 0-2.697 1.252 4.023 4.023 0 0 0-.014 5.519 4.04 4.04 0 0 0 2.69 1.266c8.097.518 25.876 1.542 39.769 1.542 3.26 0 6.31-.057 8.967-.189l.961-.045a31.3 31.3 0 0 0 6.409-.734c3.726-.96 5.397-3.183 5.589-7.433.153-3.376.333-6.751.512-10.126.287-5.373.584-10.923.759-16.393.385-12.019.61-22.886.685-33.221q.05-6.92.13-13.844c.202-19.418.411-39.5-.519-59.252a57 57 0 0 0-.694-7.34"/></g><defs><clipPath id="a"><path fill="#fff" d="M.777 0h146v156h-146z"/></clipPath></defs></svg>