<svg xmlns="http://www.w3.org/2000/svg" width="141" height="156" fill="none" viewBox="0 0 141 156"><g fill="#000" clip-path="url(#a)"><path d="M40.824 73.195q-6.017.314-12.033.608-.344.015-.69.023-1.026 0-2.038.167c-2.143.414-3.226 1.619-2.974 3.297.153 1.01 1.01 2.665 2.159 3.014a28.5 28.5 0 0 0 7.26 1.32c4.327.146 8.967.126 14.597-.061q23.199-.772 46.396-1.601l25.014-.873c.968-.035 1.956-.028 3.205-.018l.768.005q-.931.955-1.8 1.841c-1.987 2.033-3.704 3.788-5.419 5.616a403 403 0 0 0-4.815 5.257 1159 1159 0 0 1-3.237 3.56c-1.749 1.9-3.511 3.788-5.26 5.661l-2.322 2.487a.665.665 0 0 0-.094.777l1.185 2.112a.655.655 0 0 0 .803.3c.215-.078.43-.142.637-.203.5-.118.977-.317 1.413-.587a360 360 0 0 0 33.351-26.26 16.4 16.4 0 0 0 2.749-3.073c1.727-2.548 1.323-5.308-1.082-7.374a15 15 0 0 0-1.953-1.35l-3.816-2.361a6494 6494 0 0 0-23.541-14.532 10.3 10.3 0 0 0-3.853-1.661 4.1 4.1 0 0 0-3.415 1.44c-.629.915-.795 2.848-.091 3.792a18.4 18.4 0 0 0 4.395 4.252c2.76 1.863 5.612 3.685 8.365 5.446a466 466 0 0 1 7.181 4.652c.452.302.938.567 1.406.824a7.95 7.95 0 0 1 2.962 2.294c-.764-.07-1.519-.147-2.267-.223a67 67 0 0 0-7.226-.47l-1.899.015c-15.21.12-30.937.242-46.401.671-9.211.257-18.57.744-27.62 1.216"/><path d="M61.695 1.977C59.759 1.7 35.092.254 20.63.177c-2.046.107-4.327.28-6.532.447-1.619.123-3.22.245-4.703.34-3.81.24-6.189 2.412-6.878 6.282a57 57 0 0 0-.684 7.34c-.926 19.75-.717 39.827-.516 59.245q.072 6.926.129 13.852c.075 10.335.297 21.202.68 33.221.175 5.472.47 11.027.755 16.4.178 3.373.357 6.746.509 10.12.193 4.249 1.853 6.473 5.556 7.433 2.094.464 4.23.71 6.373.733l.955.045c2.645.129 5.672.189 8.916.189 13.813 0 31.49-1.024 39.54-1.541a4 4 0 0 0 2.676-1.266 4.037 4.037 0 0 0-.015-5.519 4 4 0 0 0-2.681-1.253c-5.338-.315-15.167-.906-21.033-1.318-5.49-.389-11.078-.633-16.482-.867-3.105-.134-6.21-.268-9.314-.431a28 28 0 0 1-2.987-.374q-.5-.082-1.012-.159-.068-.42-.135-.806a19 19 0 0 1-.29-2.161c-.217-3.921-.468-7.906-.71-11.76-.58-9.176-1.179-18.665-1.347-27.998-.286-15.817-.258-31.908-.225-47.47q.014-7.48.019-14.96c0-7.497.153-14.943.303-21.239.037-1.577.204-3.144.396-4.959.077-.728.158-1.489.235-2.298 2.25-.153 6.903-.265 12.664-.401 14.754-.351 34.96-.833 38.702-2.561a.66.66 0 0 0 .36-.426 3.55 3.55 0 0 0-.221-2.947 2.67 2.67 0 0 0-1.938-1.133"/></g><defs><clipPath id="a"><path fill="#fff" d="M.777 0h140v156h-140z"/></clipPath></defs></svg>