<svg xmlns="http://www.w3.org/2000/svg" width="160" height="168" fill="none" viewBox="0 0 160 168"><g clip-path="url(#a)"><path fill="#000" d="M153.548 63.998a19 19 0 0 1-2.39-1.9 2942 2942 0 0 1-7.326-6.631c-5.37-4.88-10.928-9.918-16.446-14.817a6.23 6.23 0 0 1-2.229-4.792 63 63 0 0 0-1.185-10.465c-.71-3.213-1.976-4.206-5.652-4.426-1.125-.073-2.281-.08-3.401-.086a69 69 0 0 1-2.611-.04 13 13 0 0 1-1.715-.214q-.35-.062-.669-.113a.31.31 0 0 1-.248-.167.3.3 0 0 1-.042-.148.3.3 0 0 1 .029-.152c.368-.806.75-1.58 1.124-2.34a32.4 32.4 0 0 0 2.056-4.758c1.118-3.626-.429-6.959-4.04-8.692a12.4 12.4 0 0 0-8.23-.966c-4.399.933-8.223 3.048-12.608 5.919a.34.34 0 0 1-.368 0c-4.6-3-9.113-3.126-13.412-.367a.335.335 0 0 1-.396-.02 99 99 0 0 1-2.02-1.713 54 54 0 0 0-4.279-3.433C64.37 1.504 61.564.452 58.82.452c-.784.001-1.565.086-2.33.252-3.944.854-7.266 3.827-8.879 7.946-1.46 3.72-1.206 7.531.683 10.21q.331.517.542 1.093c.094.214.196.448.315.714a.34.34 0 0 1-.117.415.35.35 0 0 1-.144.058q-1.706.23-3.342.427c-2.377.3-4.62.58-6.85 1.006-4.646.9-5.243 1.613-5.27 6.366-.02 3.126 0 6.306.02 9.378q.02 1.969.028 3.938c.006 1.447-.094 2.74-1.393 3.84-5.98 5.078-11.892 10.258-16.378 14.197l-.114.1c-3.496 3.073-7.103 6.245-10.5 9.524-.95.92-2.02 2.373-2.162 3.693l-.066.567C2.2 80.154 1.51 86.34 1.436 92.419c-.214 17.254-.248 35.225-.1 54.94.02 3.153.977 6.426 1.815 9.319 1.56 5.352 5.47 8.618 11.31 9.444 4.713.729 9.467 1.17 14.234 1.32 8.545.14 17.243.12 25.646.1 3.16-.014 6.328 0 9.482-.02l1.098.006c1.828 0 3.723.008 5.578-.079 2.772-.134 5.55-.294 8.323-.454 4.922-.287 10.004-.58 15.02-.707 4.874-.126 9.836-.113 14.636-.106 3.536.006 7.198.013 10.794-.034 1.514-.02 3.034-.033 4.547-.047 5.96-.046 12.113-.099 18.133-.592 8.59-.707 12.434-3.94 14.182-11.918a78 78 0 0 0 1.767-13.427c.356-8.772.496-17.703.636-26.342l.101-6.245c.047-2.586.054-5.219.06-7.765.007-3.02.014-6.145.081-9.218.054-2.326.187-4.692.308-6.978.127-2.393.26-4.865.308-7.292.112-5.647-1.796-9.68-5.847-12.326m-28.11 22.767c1.259-5.319 1.165-10.824 1.065-16.143-.014-.987-.034-1.966-.047-2.946-.02-2.666-.201-5.379-.368-8.005-.094-1.413-.181-2.82-.255-4.232-.033-.754-.027-1.5-.013-2.286 0-.36.006-.734.006-1.114q.001-.086.041-.162a.35.35 0 0 1 .113-.124.35.35 0 0 1 .322-.02c3.013 1.413 14.838 12.19 21.447 19.549.06.07.092.16.087.253a.34.34 0 0 1-.13.234l-21.314 16.28a.32.32 0 0 1-.201.074.37.37 0 0 1-.308-.195 5 5 0 0 0-.248-.493.92.92 0 0 1-.199-.669zM87.74 19.352c3.975-4.67 8.752-8.984 16.693-8.984h.301a.35.35 0 0 1 .274.147.34.34 0 0 1 .034.306 18.2 18.2 0 0 1-5.972 7.906 7.02 7.02 0 0 1-4.708 1.556 24 24 0 0 1-2.745-.213 18 18 0 0 0-3.59-.167.35.35 0 0 1-.325-.18.33.33 0 0 1-.037-.19.33.33 0 0 1 .075-.18m-3.04 8.426c3.435-1.207 21.052-.68 31.417.953a.33.33 0 0 1 .282.324v1.652c.006 1.28.013 2.507-.007 3.74-.014.66-.061 1.333-.108 2.046q-.041.51-.073 1.08a.34.34 0 0 1-.334.313H85.67a.335.335 0 0 1-.334-.3l-.857-9.465a.34.34 0 0 1 .22-.342zm.542 19.582a.34.34 0 0 1 .207-.3c2.364-.94 24.843-1.26 30.448-.433a.33.33 0 0 1 .281.3 306 306 0 0 1 .87 36.145.33.33 0 0 1-.221.3c-2.685.954-18.506 1.967-27.564 1.967a47 47 0 0 1-5.216-.207.34.34 0 0 1-.295-.347zM54.99 10.855c.917-2.08 2.122-2.766 4.285-2.433a7.6 7.6 0 0 1 2.92 1.02c4.48 2.859 7.526 6.051 9.609 10.05a.33.33 0 0 1 0 .314.34.34 0 0 1-.268.173 68 68 0 0 0-3.094.34 40 40 0 0 1-4.882.407c-.462 0-.917-.013-1.372-.053-3.04-.253-5.739-1.752-7.032-3.92a6.24 6.24 0 0 1-.166-5.897zM40.358 28.778c6.175-1.407 30.836-2.327 36.655-1.374a.34.34 0 0 1 .281.325v9.624a.34.34 0 0 1-.247.32c-1.394.374-9.476.56-17.705.56-8.317 0-16.787-.187-18.615-.574a.326.326 0 0 1-.267-.306l-.362-8.238a.32.32 0 0 1 .26-.336zm1.253 22.068q-.01-2.709-.014-5.505a.35.35 0 0 1 .108-.24.4.4 0 0 1 .247-.094l34.612 1.48a.336.336 0 0 1 .322.34l-.838 38.152a.31.31 0 0 1-.113.24.34.34 0 0 1-.22.087c-.015 0-.021 0-.028-.007-4.151-.36-8.364-.394-12.442-.42-6.923-.053-14.087-.107-21.178-1.807a.32.32 0 0 1-.248-.259c-.087-.48-.2-.94-.308-1.4a12 12 0 0 1-.442-2.926c.04-2.599.148-5.238.255-7.791s.214-5.2.254-7.792c.066-3.978.053-7.905.033-12.057M12.972 72.955l19.479-16.61a.34.34 0 0 1 .476.038.33.33 0 0 1 .073.155c.08.413.16.767.234 1.08.145.503.224 1.023.235 1.546-.074 2.3-.168 4.6-.255 6.899-.154 3.832-.314 7.791-.381 11.684a23.6 23.6 0 0 0 .71 6.472 8.34 8.34 0 0 0 2.115 3.927 8.4 8.4 0 0 0 3.844 2.285 42.8 42.8 0 0 0 8.711 1.78c6.448.413 13.017.58 19.372.746l1.982.047 5.122.14c7.078.2 14.401.393 21.595.34 4.044-.027 8.162-.34 12.146-.64 2.016-.153 4.098-.314 6.154-.434.931-.053 1.841-.04 3.006-.026.603.006 1.266.013 2.03.013a.34.34 0 0 1 .322.427.33.33 0 0 1-.109.166 349 349 0 0 1-42.264 29.44.3.3 0 0 1-.174.047.25.25 0 0 1-.141-.033c-13.586-6.422-59.287-41.264-64.342-49.056a.326.326 0 0 1 .06-.432zm-2.216 73.304a.2.2 0 0 1-.087-.013.33.33 0 0 1-.166-.098.33.33 0 0 1-.081-.175c-.034-.26-.08-.519-.121-.767a9.7 9.7 0 0 1-.188-1.646q-.02-4.281-.013-8.552c.007-4.392.007-8.931-.047-13.397-.094-7.545-.22-15.216-.348-22.638q-.12-6.628-.22-13.244c-.014-.733.033-1.473.08-2.186q.032-.498.053-1.006a.32.32 0 0 1 .2-.287.34.34 0 0 1 .35.047l30.647 25.288a.34.34 0 0 1 .053.466l-29.85 38.076a.34.34 0 0 1-.262.134zm134.45 11.058a.36.36 0 0 1-.107.139.36.36 0 0 1-.161.068c-.67.079-1.279.166-1.848.253-1.034.179-2.08.286-3.128.319-4.513.021-9.033.014-13.554.007-7.727-.013-15.716-.026-23.57.1-6.227.107-12.562.427-18.682.74-2.772.14-5.55.28-8.323.4l-.187.007c-.161.006-.322.02-.49.02q-5.232.1-10.478.233c-7.506.18-15.254.36-22.915.36h-2.028c-5.712-.027-11.51-.48-17.115-.92-1.52-.12-3.04-.24-4.553-.347a17 17 0 0 1-3.355-.739 33 33 0 0 0-1.7-.48.3.3 0 0 1-.132-.06.3.3 0 0 1-.09-.114.33.33 0 0 1-.006-.286c1.89-4.199 30.326-39.172 35.388-43.504a.35.35 0 0 1 .415-.02c.602.44 1.212.893 1.824 1.346 1.353 1.006 2.746 2.04 4.179 3.006a1652 1652 0 0 0 10.613 7.079c3.128 2.079 6.261 4.151 9.375 6.245 2.437 1.633 4.54.706 6.45-.533q8.319-5.38 16.634-10.751l8.316-5.373c.703-.459 1.406-.919 2.197-1.439l1.131-.747a.35.35 0 0 1 .449.074l35.402 44.583a.33.33 0 0 1 .048.335zm5.604-69.62a22 22 0 0 0-.261 4.18c.195 3.107.093 6.28-.007 9.345l-.054 1.66a189 189 0 0 1-.254 5.278c-.1 1.747-.208 3.553-.26 5.326-.054 1.881-.054 3.792-.06 5.644 0 1.639 0 3.332-.041 4.999-.04 1.766-.12 3.559-.195 5.292a254 254 0 0 0-.201 5.659c-.047 2.446-.034 4.945-.02 7.358 0 1.08.006 2.159.006 3.239a.34.34 0 0 1-.241.32l-.912.267a1 1 0 0 1-.094.013.35.35 0 0 1-.248-.107c-6.777-7.111-12.977-14.93-18.977-22.495-4.191-5.292-8.523-10.758-13.063-15.996a.3.3 0 0 1-.066-.119.3.3 0 0 1-.014-.135.35.35 0 0 1 .133-.226l34.311-26.294a.33.33 0 0 1 .314-.047.33.33 0 0 1 .215.24 18.8 18.8 0 0 1-.012 6.6z"/></g><defs><clipPath id="a"><path fill="#fff" d="M.777 0h159v168h-159z"/></clipPath></defs></svg>