<svg xmlns="http://www.w3.org/2000/svg" width="159" height="156" fill="none" viewBox="0 0 159 156"><g fill="#000" clip-path="url(#a)"><path d="M83.048.41h55.829c1.44 0 2.879-.049 4.319-.065 7.718-.082 12.76 4.401 13.566 12.104.115 1.1.117 2.211.129 3.318.17 12.282.308 24.565.5 36.846.268 17.05.604 34.1.855 51.15.184 12.544-1.5 24.959-2.854 37.388-.509 4.673-3.715 7.639-7.355 10.153a9.7 9.7 0 0 1-2.654 1.346c-5.381 1.609-10.659 3.431-16.463 3.335q-47.022-.788-94.048-1.256c-3.86-.002-7.716.195-11.554.591-8.103.748-14.82-1.743-19.968-8.138a9.92 9.92 0 0 1-2.239-6.462q.216-19.257.501-38.509c.31-18.822.69-37.642 1.008-56.464.152-8.968-.17-17.964.453-26.897.579-8.286 5.17-13.464 12.35-15.376C21.442 1.87 27.497 1.998 33.54 1.81c16.498-.518 33.005-.724 49.508-1.054zm-.42 43.566q.05.371.143.733c4.419 13.32 8.882 26.625 13.214 39.974.534 1.643 1.605 2.174 2.933 2.797 8.816 4.14 17.608 8.332 26.408 12.504.685.324 1.382.622 1.912.859.333-.123.465-.129.533-.202 6.281-6.554 12.579-13.09 18.797-19.704.637-.74.995-1.68 1.012-2.657-.065-6.642.048-13.308-.484-19.919a223 223 0 0 1-.08-29.87 68.3 68.3 0 0 0-.723-13.188c-.543-3.905-1.088-4.704-4.831-5.04-1.752-.156-3.496-.51-5.245-.552-3.875-.094-7.76.064-11.63-.104a5.9 5.9 0 0 0-4.44 1.72c-12.423 10.852-24.88 21.661-37.52 32.65zM46.647 9.734c-5.008 0-9.865-.02-14.723.007-2.544.015-5.106-.064-7.63.195-8.97.915-13.229 5.725-12.651 15.4.816 13.682 1.07 27.416 1.045 41.126-.025 13.163-.718 26.324-1.101 39.486-.023.797.095 1.598.15 2.451l55.3-36.028c-5.918-21.118-12.962-41.688-20.39-62.64zm22.947 72.503c-.472.223-.578.262-.67.32q-28.38 17.793-56.767 35.572a2.57 2.57 0 0 0-1.312 2.454c.019 5.199-.182 10.408.07 15.596.24 4.974 3.067 8.739 7.273 9.548a76 76 0 0 0 13.793 1.697c18.373.114 36.749-.08 55.123-.172.93-.004 1.86-.124 2.999-.204-8.494-21.212-13.51-43.195-20.509-64.815zm31.216 15.238-.825.565 16.869 49.432c5.733 0 11.385.21 17.009-.088 2.86-.241 5.67-.896 8.341-1.947 2.942-1.069 5.162-3.188 5.353-6.561q.43-7.599.441-15.211c0-.681-1.036-1.581-1.802-2.007-4.154-2.314-8.371-4.516-12.57-6.748a52159 52159 0 0 0-32.816-17.439zM54.867 10.033c.29.936.466 1.655.732 2.34 2.438 6.286 5.006 12.525 7.317 18.857 5.496 15.05 10.141 30.364 14.46 45.798 4.344 15.527 9.2 30.914 14 46.309 2.493 7.994 5.35 15.874 8.006 23.698h7.209C89.011 101.996 76.565 55.53 60.837 10.033zm24.806 25.473 31.061-25.672H69.939l9.734 25.668zm68.499 76.51V91.141l-.63-.202-12.221 14.288z"/><path d="M118.987 58.193q1.098.432 2.122 1.014 9.439 5.836 18.844 11.725c2.59 1.613 3.199 3.814 1.722 6.473-.443.765-.96 1.485-1.544 2.15-2.927 3.453-5.854 6.908-8.843 10.307-.719.817-1.722 1.377-2.512 2.137-2.099 2.023-4.339 1.872-6.666.512a1184 1184 0 0 1-9.694-5.74c-2.083-1.25-4.19-2.472-6.193-3.843-3.254-2.229-3.98-5.36-1.773-8.555 3.326-4.815 6.85-9.494 10.321-14.21a4.46 4.46 0 0 1 4.216-1.97m-.123 7.56-8.936 11.085 14.547 8.08 9.168-10.384zm-68.75-14.527c1.354.832 3.025 1.406 4.012 2.563a41.5 41.5 0 0 1 4.865 7.055 8.54 8.54 0 0 1-2.348 10.686 111 111 0 0 1-10.466 6.954c-3.616 2.105-6.64.97-8.339-2.907-1.283-2.926-2.364-5.901-4.727-8.244-1.16-1.151-.959-2.682.438-4.143a39 39 0 0 1 4.504-3.878 269 269 0 0 1 8.525-6.27 30 30 0 0 1 3.536-1.816m-6.286 19.012 7.917-5.078-3.108-4.273-8.11 5.138zm-4.182 35.015c2.493-.167 4.034.6 4.92 2.076 1.923 3.211 3.937 6.428 5.326 9.879 1.37 3.404-.63 6.461-3 8.525a78.6 78.6 0 0 1-11.126 7.78c-3.065 1.848-5.504 1.086-7.36-1.928-1.91-3.107-3.683-6.304-5.378-9.534-1.455-2.775-.95-5.403 1.392-7.493a30 30 0 0 1 4.022-2.917 291 291 0 0 1 8.801-5.329 18 18 0 0 1 2.403-1.059m-.486 8.803-9.626 5.074 4.812 5.79 7.539-4.905z"/></g><defs><clipPath id="a"><path fill="#fff" d="M.777 0h158v156h-158z"/></clipPath></defs></svg>