<svg xmlns="http://www.w3.org/2000/svg" width="158" height="156" fill="none" viewBox="0 0 158 156"><g fill="#000" clip-path="url(#a)"><path d="M106.987 153.403a43.6 43.6 0 0 0 6.358.785q1.783.092 3.564.19c5.377.291 10.936.59 16.414.622h.856c5.096 0 10.402-.256 15.783-.762 5.021-.472 6.366-1.896 6.537-6.923.367-10.725.634-21.632.892-32.179l.143-5.809a13 13 0 0 0-.332-3.133c-.554-2.478-2.192-4.03-4.379-4.147a4.74 4.74 0 0 0-3.09.938 4.75 4.75 0 0 0-1.776 2.702 21.4 21.4 0 0 0-.749 5.419c-.065 5.303-.063 10.692-.061 15.905v16.817l-.324.08q-.385.116-.784.157-2.047.09-4.095.195c-3.661.178-7.446.362-11.166.418-4.087.065-8.243.044-12.265.025-2.456-.012-4.912-.024-7.365-.017a20.3 20.3 0 0 0-4.107.296c-2.347.495-3.847 2.109-3.914 4.212-.034 1.276.413 3.509 3.86 4.209m-63.427-8.631c-7.007-.103-14.13-.13-21.02-.156l-6.618-.028c-1.115-.004-2.23-.004-3.431 0h-1.176q-.033-.334-.065-.622c-.065-.625-.118-1.118-.134-1.592q-.24-6.909-.471-13.816-.318-9.416-.645-18.834a30 30 0 0 0-.372-4.403 3.3 3.3 0 0 0-1.028-1.994 3.3 3.3 0 0 0-2.062-.878c-1.731-.138-3.05.767-3.698 2.547a8.3 8.3 0 0 0-.431 2.117l-.079.892c-.15 1.678-.306 3.413-.352 5.135a7757 7757 0 0 0-.886 35.668c-.084 3.745 2.122 6.143 6.051 6.581q1.923.178 3.854.145.6-.001 1.201.006l5.77.07c8.69.106 17.674.215 26.513.26h.041a10.8 10.8 0 0 0 4.06-.903 4.84 4.84 0 0 0 2.362-1.761 4.86 4.86 0 0 0-2.32-7.404 14.7 14.7 0 0 0-5.065-1.03M5.742 55.685h.104c2.181 0 3.917-1.652 4.546-4.334a10.4 10.4 0 0 0 .227-2.126q.017-.877.04-1.755c.046-1.84.094-3.74.024-5.617q-.294-7.917-.643-15.832-.244-5.751-.477-11.505c-.046-1.174-.035-2.362-.022-3.619q.006-.601.01-1.227.83-.007 1.616-.018c1.492-.022 2.907-.042 4.292.036 9.786.552 18.018.715 26.39-.3a11.8 11.8 0 0 0 4.32-1.338 3.62 3.62 0 0 0 1.885-3.12 3.71 3.71 0 0 0-1.856-3.23A9.1 9.1 0 0 0 42.471.593Q40.396.442 38.32.534c-.415.01-.83.022-1.245.028q-8.865.13-17.73.264L5.787 1.03c-2.222.033-3.504 1.074-3.915 3.185-.322 1.566-.5 3.16-.529 4.759a7643 7643 0 0 0-.26 37.03c-.04 1.703.05 3.406.27 5.095.426 2.815 2.066 4.53 4.39 4.586m140.918-39.09c-.176 2.167-.359 4.408-.489 6.619l-.177 2.931c-.302 4.933-.612 10.032-.68 15.06a13.96 13.96 0 0 0 1.543 6.338 3.99 3.99 0 0 0 3.417 2.347h.053a4.1 4.1 0 0 0 3.504-2.3 15.8 15.8 0 0 0 1.86-6.221c.953-11.566.351-23.3-.231-34.645l-.07-1.382c-.13-2.49-1.441-4.094-3.8-4.643a20.8 20.8 0 0 0-5.42-.657c-9.311.3-19.134.688-30.913 1.222a13.7 13.7 0 0 0-4.062.915 3.32 3.32 0 0 0-2.174 3.6 2.98 2.98 0 0 0 2.907 2.99q.594.065 1.186.139c1.031.125 2.097.254 3.164.285 2.444.072 4.927.11 7.331.149 1.661.026 3.32.051 4.98.088 4.322.095 8.643.202 13.125.312l5.299.13q.002.314.008.597c.011.694.019 1.243-.019 1.78a592 592 0 0 1-.342 4.346"/></g><defs><clipPath id="a"><path fill="#fff" d="M.777 0h157v156h-157z"/></clipPath></defs></svg>