<svg xmlns="http://www.w3.org/2000/svg" width="158" height="139" fill="none" viewBox="0 0 158 139"><g clip-path="url(#a)"><path fill="#000" d="M8.007 93.138c4.225 3.908 9.648 6.022 16.581 6.463 3.648.231 7.358.2 10.948.172 1.593-.013 3.186-.024 4.779-.016.524.003 1.048 0 1.535 0h.163l.021.047c.037.083.07.144.08.141q-.195 4.527-.395 9.056c-.253 5.75-.516 11.696-.74 17.546a44.5 44.5 0 0 0 .252 5.712 4.51 4.51 0 0 0 2.929 3.816 31.6 31.6 0 0 0 12.878 2.509 47 47 0 0 0 4.797-.256c2.82-.287 3.478-1.604 3.76-4.092a138 138 0 0 0 .036-29.719c-.136-1.299-.233-2.601-.346-4.106q-.042-.571-.09-1.18l2.298 1.258c2.175 1.19 4.23 2.314 6.226 3.457 5.064 2.898 10.167 5.932 15.101 8.864 10.489 6.235 21.335 12.677 32.464 18.234.724.36 1.441.739 2.155 1.116 3.659 1.934 7.441 3.929 12.182 3.578 3.323-.25 4.772-.755 4.674-4.541a124 124 0 0 0-.147-3.334c-.093-1.737-.187-3.532-.157-5.285.195-11.171.471-22.088.716-31.29.042-1.559.184-3.14.321-4.67q.073-.796.139-1.585a18.58 18.58 0 0 0 10.709-5.181 18.48 18.48 0 0 0 5.349-10.603c.729-5.176.165-9.223-1.775-12.731-3.203-5.798-8.937-8.217-14.163-9.974v-.536c0-.7.006-1.374-.005-2.048q-.088-5.678-.186-11.358c-.154-9.044-.312-18.396-.387-27.592-.021-2.433-1-3.638-1.819-4.222-1.229-.877-3.018-1.019-4.908-.39-.73.27-1.43.614-2.088 1.028-.228.133-.456.266-.685.39q-.99.544-1.974 1.104c-1.16.655-2.359 1.333-3.56 1.94q-5.285 2.67-10.595 5.291c-7.112 3.531-14.466 7.182-21.591 10.982-8.395 4.478-17.15 9.548-26.019 15.07-.36.223-.716.454-1.067.676-2.811 1.802-5.238 3.361-8.622 2.154a3.2 3.2 0 0 0-1.31-.093q-.14.011-.277.018c-1.498.07-2.997.122-4.499.174-3.46.122-7.036.247-10.544.585-7.852.758-13.734 1.977-19.072 3.951-7.874 2.912-12.975 6.893-16.052 12.53a36.96 36.96 0 0 0-4.652 21.21c.428 4.86 1.564 11.037 6.632 15.73m48.986 5.008v32.749h-6.84l-.913-31.283zM14.08 57.828c2.428-3.883 6.45-6.738 11.623-8.259a90 90 0 0 1 13.225-2.943c4.588-.627 9.148-1.012 13.976-1.419 1.828-.154 3.675-.31 5.547-.481l-.664 44.793-.6.087q-1.282.214-2.58.272c-3.14.07-6.323.282-9.402.488-6.733.446-13.696.908-20.527-.095l-.15-.022c-1.343-.195-2.735-.4-4.054-.723-5.567-1.355-8.872-4.677-10.107-10.16a27.8 27.8 0 0 1 3.716-21.538zm53.21-13.244c7.616-5.347 57.017-30.15 66.083-33.235.511 25.961.131 52.376-.232 77.93-.171 11.882-.346 24.157-.433 36.316-8.319-4.345-16.522-8.974-24.464-13.458-13.297-7.505-27.042-15.264-41.25-21.603.812-17.884.907-32.509.299-45.95zm74.11 30.918V53.814c4.784 1.412 7.894 6.158 7.649 11.842-.209 4.887-3.377 8.902-7.646 9.844z"/></g><defs><clipPath id="a"><path fill="#fff" d="M.777 0h157v139h-157z"/></clipPath></defs></svg>