<svg xmlns="http://www.w3.org/2000/svg" width="117" height="83" fill="none" viewBox="0 0 117 83"><g fill="#000" clip-path="url(#a)"><path d="M.864 77.034c-.292 1.889 1.257 4.044 3.382 4.706a13.4 13.4 0 0 0 3.43.595q1.458.054 2.916.122c2.275.1 4.605.204 6.934.204q1.406.002 2.802-.057c4.53-.195 9.13-.486 13.579-.766 5.328-.335 10.837-.682 16.257-.87 14.109-.488 28.272-2.43 41.969-4.308l1.777-.244c3.21-.439 6.531-.894 9.769-1.537q.215-.041.441-.078c1.301-.222 3.266-.556 3.772-3.544a.666.666 0 0 0-.474-.752 19 19 0 0 1-.954-.307 7.3 7.3 0 0 0-1.908-.465l-2.064-.122c-4.762-.282-9.686-.572-14.538-.702a387 387 0 0 0-41.226 1.072c-8.834.713-17.829 1.297-26.528 1.862q-6.61.43-13.22.875c-.941.042-1.873.202-2.774.479a4.71 4.71 0 0 0-3.342 3.837m2.359-33.921a3.74 3.74 0 0 0 2.028 3.441 9.1 9.1 0 0 0 3.415.911c1.574.097 3.226.18 4.903.18q1.232.002 2.472-.068c4.925-.283 9.924-.617 14.761-.94 9.055-.605 18.418-1.232 27.633-1.548 12.543-.432 25.154-1.973 37.35-3.464q4.795-.584 9.585-1.152c.255-.03.512-.053.774-.077 1.869-.172 4.196-.386 6.571-2.931a.66.66 0 0 0 .155-.279.66.66 0 0 0-.132-.604.66.66 0 0 0-.257-.188c-4.338-1.786-8.09-2.03-11.87-2.14l-3.3-.096c-10.449-.304-21.252-.618-31.92-.208-17.935.691-35.497 2.438-54.951 4.48-1.829.2-3.611.705-5.273 1.495a3.5 3.5 0 0 0-1.944 3.188M6.914 9.307a11.4 11.4 0 0 0 4.035 1.112q1.153.085 2.308.177c3.554.274 7.218.558 10.849.558q.42.001.842-.005c6.863-.086 13.838-.246 20.583-.401 8.95-.205 18.205-.417 27.304-.46 13.026-.06 26.111-1.55 38.767-2.99l.406-.046a6.6 6.6 0 0 0 2.248-.886c.46-.243.983-.518 1.624-.815a.667.667 0 0 0 .014-1.205 32 32 0 0 1-1.708-.913 7 7 0 0 0-2.544-1.06l-2.487-.3C104.324 1.49 99.329.883 94.387.677c-26.63-1.113-53.67-.068-79.82.943l-4.693.18c-.71.029-1.415.129-2.104.3a3.77 3.77 0 0 0-3.046 3.263 3.7 3.7 0 0 0 2.19 3.944"/></g><defs><clipPath id="a"><path fill="#fff" d="M.777 0h116v83h-116z"/></clipPath></defs></svg>