<svg xmlns="http://www.w3.org/2000/svg" width="105" height="19" fill="none" viewBox="0 0 105 19"><g fill="#000" clip-path="url(#a)"><path d="M50.876 18.686a8.47 8.47 0 0 0 6.041-2.548 7.9 7.9 0 0 0 2.29-5.779c-.125-4.278-4.141-8.375-8.427-8.596a6.43 6.43 0 0 0-4.67 1.9 10.1 10.1 0 0 0-3.083 7.126 7.77 7.77 0 0 0 2.159 5.615 7.9 7.9 0 0 0 5.67 2.282zm39.095-4.906a7.74 7.74 0 0 0 5.202 1.867 10 10 0 0 0 2.016-.212 8.97 8.97 0 0 0 6.41-4.772 6.33 6.33 0 0 0-.539-6.376c-1.897-3-6.12-4.481-9.615-3.375-3.516 1.114-5.958 4.946-5.807 9.111.004.117.04.231.101.331.12.193.245.446.387.727a8.8 8.8 0 0 0 1.845 2.7M7.593 18.43q.429.053.86.053a7.36 7.36 0 0 0 4.58-1.646 8.27 8.27 0 0 0 3.06-5.573c.442-4.154-2.333-8.136-6.058-8.696a7.2 7.2 0 0 0-5.494 1.507 8.97 8.97 0 0 0-3.39 6.099 7.3 7.3 0 0 0 1.477 5.492 7.3 7.3 0 0 0 4.965 2.763"/></g><defs><clipPath id="a"><path fill="#fff" d="M.777 0h104v19h-104z"/></clipPath></defs></svg>