<svg xmlns="http://www.w3.org/2000/svg" width="158" height="133" fill="none" viewBox="0 0 158 133"><g fill="#000" clip-path="url(#a)"><path d="M8.055 128.783c4.42 2.569 9.43 3.817 15.32 3.817h.041q16-.016 32.004-.003l15.947.003c14.898 0 30.021-.013 44.958-.077a240 240 0 0 0 25.718-1.188c8.94-1.006 12.725-5.156 13.063-14.322a5398 5398 0 0 0 2.07-67.258c.195-7.99-4.92-13.67-13.029-14.465a98 98 0 0 0-9.404-.48c-5.241.012-15.863.055-27.417.1-16.14.066-34.318.139-41.876.147.474-.774.923-1.5 1.35-2.186 1.225-1.97 2.28-3.673 3.227-5.432a535 535 0 0 1 1.934-3.552 137 137 0 0 0 6.837-13.666c.982-2.398.518-6.277-.993-8.303C76.559.248 72.544.125 70.245.682A47.3 47.3 0 0 0 58.933 5.07c-9.975 5.422-20.065 11.025-29.826 16.443-6.58 3.651-13.386 7.432-20.094 11.121-4.697 2.583-6.8 6.498-6.816 12.694C2.16 59.55 1.94 74.014 1.73 87.997q-.13 8.649-.25 17.296c-.015 1.181-.042 2.362-.069 3.543-.073 3.215-.15 6.539.018 9.809.216 4.298 2.447 7.708 6.627 10.138M59.373 20.552c-2.806 4.72-5.707 9.602-8.6 14.376q-.22.364-.449.727c-1.392 2.232-2.97 4.76-1.293 7.907 1.855 3.478 5.248 3.955 8.338 3.933q20.982-.045 41.965-.125 17.122-.058 34.246-.107c1.255-.005 2.521.06 3.755.12 1.395.069 2.836.14 4.264.119 2.345-.065 3.388 1.052 3.61 3.75q.03.296.025.593l-.513 18.53q-.547 19.716-1.087 39.431c-.07 2.585-.099 5.281-.084 8.019.013 2.636-.904 3.637-3.387 3.691-4.626.103-9.321.276-13.864.444-5.745.211-11.686.431-17.524.507-18.566.244-35.401.326-51.47.25-11.538-.055-23.99-.32-38.07-.813-6.388-.223-7.941-1.86-7.914-8.339.03-7.673-.053-50.428-.686-64.325-.139-3.019.5-4.28 2.847-5.62 10.806-6.178 21.74-12.55 32.312-18.712q7.216-4.205 14.436-8.402a15.5 15.5 0 0 1 1.88-.874l.26-.108q-1.502 2.512-2.997 5.028"/><path d="M42.268 74.398h-.065a7.22 7.22 0 0 0-4.946 2.378 8.13 8.13 0 0 0-2.323 5.748c.116 3.892 3.364 6.817 7.564 6.817h.037c3.942-.017 6.978-2.626 7.063-6.07.056-2.281-1.619-5.014-3.304-6.705-.81-.814-2.404-2.168-4.026-2.168m66.166 16.691.203.004a6.16 6.16 0 0 0 4.283-1.778 5.9 5.9 0 0 0 1.347-1.963 5.9 5.9 0 0 0 .468-2.335c-.052-3.465-4.355-7.172-8.373-7.217a5.57 5.57 0 0 0-3.863 1.713 5.58 5.58 0 0 0-1.552 3.934c-.051 3.72 3.657 7.507 7.487 7.642m-33.1-1.345h.14a8.2 8.2 0 0 0 5.618-2.595 5.9 5.9 0 0 0 1.771-4.186 5.93 5.93 0 0 0-1.954-4.124 6.85 6.85 0 0 0-4.869-1.804 7.05 7.05 0 0 0-4.99 2.21 6.36 6.36 0 0 0-1.651 4.645 6.08 6.08 0 0 0 1.807 4.105 6.07 6.07 0 0 0 4.128 1.749"/></g><defs><clipPath id="a"><path fill="#fff" d="M.777 0h157v133h-157z"/></clipPath></defs></svg>