<svg xmlns="http://www.w3.org/2000/svg" width="158" height="141" fill="none" viewBox="0 0 158 141"><g fill="#000" clip-path="url(#a)"><path d="M25.344 106.878c2.439 1.666 2.758 2.877 1.484 5.633-2.664 5.769-5.738 12.606-8.332 19.597-.69 1.862-.74 5.499.755 6.959 1.223 1.195 3.299 1.359 5.306 1.517.593.047 1.154.091 1.681.16q.129.018.258.017a4.6 4.6 0 0 0 2.05-.705l.26-.136q3.3-1.702 6.607-3.394c6.29-3.225 12.796-6.563 19.13-9.967l.059-.031c7.622-4.094 14.815-7.962 23.648-6.262.368.059.743.074 1.115.043a8 8 0 0 1 .354-.012c20.984-.191 37.154-4.535 50.887-13.671 21.034-13.994 30.478-34.02 25.911-54.944-4.228-19.373-12.564-31.427-27.029-39.083C114.782 4.816 98.21.345 82.826.007h-.017C63.821.082 47.956 3.202 32.886 9.83 14.616 17.861 4.599 29.4 2.262 45.106a70.2 70.2 0 0 0-.357 19.307c2.53 19.528 10.197 33.418 23.44 42.465m6.432 15.79c1.27-4.52 2.47-8.789 3.964-12.879 2.346-6.41-1.116-10.011-4.39-12.433-4.982-3.682-10.02-7.92-13.138-13.945-8.052-15.558-9.147-30.133-3.352-44.558 3.143-7.822 9.524-13.63 20.081-18.279 14.571-6.416 29.074-9.623 43.412-9.623a100.1 100.1 0 0 1 41.338 9.137c14.97 6.727 23.272 17.822 26.127 34.918 2.346 14.028-1.552 25.713-12.259 36.77-9.534 9.846-22.389 15.64-40.455 18.234-9.105 1.307-19.875 2.39-30.714.51-1.353-.229-2.867.616-4.09 1.3A4812 4812 0 0 0 36 124.425l-5.628 3.193c.49-1.699.953-3.345 1.404-4.95"/><path d="M50.473 69.712h.09a7.7 7.7 0 0 0 5.48-2.32 6.5 6.5 0 0 0 1.832-4.77 7.25 7.25 0 0 0-2.172-4.722 7.3 7.3 0 0 0-4.779-2.067A7.22 7.22 0 0 0 45.814 58a7.6 7.6 0 0 0-2.353 5.34 6.1 6.1 0 0 0 1.812 4.379 7.3 7.3 0 0 0 5.2 1.993m30.853 1.802h.065a6.7 6.7 0 0 0 4.704-1.976 6.9 6.9 0 0 0 2.101-4.827c.015-1.82-.994-3.97-2.635-5.611a6.5 6.5 0 0 0-4.33-2.144h-.02c-3.365.02-6.715 3.7-6.764 7.429a7.02 7.02 0 0 0 2.013 5.047 6.87 6.87 0 0 0 4.866 2.082m29.371-.754h.043a6.9 6.9 0 0 0 4.485-1.892 6.86 6.86 0 0 0 2.108-4.38 6.27 6.27 0 0 0-1.931-4.353 9.42 9.42 0 0 0-6.216-3.083 4.47 4.47 0 0 0-3.267 1.324 7.23 7.23 0 0 0-2.05 5.199 7.02 7.02 0 0 0 1.932 4.993 7.06 7.06 0 0 0 4.896 2.192"/></g><defs><clipPath id="a"><path fill="#fff" d="M.777 0h157v141h-157z"/></clipPath></defs></svg>