<svg xmlns="http://www.w3.org/2000/svg" width="163" height="158" fill="none" viewBox="0 0 163 158"><g fill="#000" clip-path="url(#a)"><path d="M159.647 47.504a11.6 11.6 0 0 0-4.072-1.026c-11.369-.41-23.558-.799-38.363-1.223-2.184-.065-4.37-.046-6.681-.03-.922.007-1.866.014-2.842.016q-.056-.432-.115-.845c-.131-.922-.25-1.793-.281-2.646q-.333-8.908-.643-17.823-.293-8.253-.595-16.507a19.5 19.5 0 0 0-.455-3.753c-.496-2.102-1.814-3.197-3.675-3.113-1.926.097-3.183 1.315-3.448 3.343a69 69 0 0 1-.13.938 29 29 0 0 0-.344 3.441c-.23 11.822-.494 25.821-.697 40.014-.044 3.075.547 5.12 1.86 6.437 1.352 1.356 3.408 1.95 6.682 1.906 9.257-.106 19.748-.226 30.026-.147 3.508.027 7.079.186 10.531.34 2.668.118 5.423.24 8.139.303h.256a14.7 14.7 0 0 0 4.517-.767 4.81 4.81 0 0 0 3.113-4.318 4.8 4.8 0 0 0-2.782-4.538zm-140.466 60.12a2651 2651 0 0 0 19.41-.781q5.64-.24 11.283-.471.863-.008 1.722.085l.495.043v2.785q.023 3.929.052 7.856.058 8.416.093 16.828c.008 2.648-.01 5.296-.027 7.943-.016 2.465-.033 4.93-.029 7.396a16 16 0 0 0 .336 3.791c.674 2.739 3.029 4.771 5.509 4.771h.108c2.565-.061 4.75-2.134 5.309-5.039.17-1.039.21-2.096.119-3.145q-.316-4.97-.661-9.937c-.41-6.011-.832-12.228-1.155-18.344-.159-3.016-.2-6.096-.239-9.074-.035-2.708-.072-5.509-.195-8.265-.125-2.734-.716-4.435-1.908-5.515-1.193-1.08-2.97-1.502-5.744-1.345q-19.49 1.073-38.971 2.204l-4.354.25c-.208.011-.426.012-.645.013a4.3 4.3 0 0 0-2.286.431c-.605.381-2.065 1.42-2.558 2.849-.548 1.589.272 3.175 2.091 4.041a6.3 6.3 0 0 0 2.54.506q.957.026 1.913.056c2.55.079 5.191.162 7.792.068M9.844 58.708h.348q6.53 0 13.06-.036c10.398-.043 21.145-.088 31.712.126l.407.004c5.089 0 7.305-2.039 7.625-6.957.429-6.621.65-13.363.865-19.882l.036-1.111c.282-8.567.45-15.658.53-22.313a12.5 12.5 0 0 0-.911-5.112 3.79 3.79 0 0 0-3.004-2.34 3.96 3.96 0 0 0-3.554 1.652 11.3 11.3 0 0 0-1.83 4.152c-1.293 5.455-1.196 11.035-1.106 16.43.031 1.85.065 3.763.041 5.636-.065 4.83-.249 9.576-.447 14.601q-.117 3.01-.23 6.078l-.629.077q-.668.098-1.342.125-8.595.156-17.194.303-9.424.165-18.85.334l-1.626.028c-2.649.042-5.39.086-8.082.278-3.513.249-4.262 2.167-4.273 3.732-.008 1.243.512 3.41 4.1 3.971 1.443.186 2.9.26 4.354.224m144.561 35.247a9.4 9.4 0 0 0-1.436-.015 862 862 0 0 1-5.962.298c-4.607.222-9.369.455-14.05.807-6.311.479-12.713 1.048-18.908 1.6q-5.342.475-10.685.934c-4.223.358-5.943 2.123-6.13 6.294-.06 1.32-.09 2.66-.118 3.956-.025 1.128-.05 2.256-.095 3.381q-.221 5.675-.452 11.348c-.28 6.983-.57 14.205-.826 21.309a31 31 0 0 0 .276 5.439c.427 3.034 1.896 4.877 3.86 4.877.07 0 .141 0 .212-.008 2.882-.189 3.156-3.876 3.247-5.088q.503-6.734.97-13.471.52-7.398 1.068-14.793c.245-3.251.545-6.464.862-9.866.13-1.378.26-2.776.39-4.203a700 700 0 0 0 5.367-.52c4.267-.421 8.297-.82 12.381-1.082 6.411-.41 12.937-.725 19.249-1.03q4.198-.203 8.393-.413c.277-.014.555-.02.834-.027.754.005 1.507-.06 2.249-.195 2.756-.58 4.47-2.629 4.266-5.097-.201-2.42-2.148-4.166-4.962-4.435"/></g><defs><clipPath id="a"><path fill="#fff" d="M.777 0h162v158h-162z"/></clipPath></defs></svg>