<svg xmlns="http://www.w3.org/2000/svg" width="160" height="157" fill="none" viewBox="0 0 160 157"><g clip-path="url(#a)"><path fill="#000" d="M141.983 55.321c-2.024-2.197-4.565-3.93-7.024-5.605q-.733-.5-1.458-1.001c-.614-.426-1.428-.318-2.363-.195a16 16 0 0 1-1.432.145.664.664 0 0 0-.544 1.009c.624 1.038 1.199 2.024 1.748 2.965 1.153 1.973 2.242 3.838 3.428 5.587 1.083 1.598 2.272 3.15 3.424 4.65.843 1.103 1.716 2.239 2.535 3.38.593.827 1.263 1.608 1.911 2.363a17.6 17.6 0 0 1 3.075 4.412l-.184.137c-.141.107-.318.239-.342.255-17.021.386-35.074.772-58.524 1.251-.04-.023-.1-.065-.142-.093l-.122-.082a3 3 0 0 1-.318-.244V62.138l-.003-32.668q0-2.673-.017-5.345c-.011-2.656-.024-5.312-.014-7.94a2.6 2.6 0 0 1 .254-.413l.07-.102c.382.26.766.51 1.15.763 1.21.797 2.46 1.621 3.598 2.522 5.073 4.016 10.853 6.942 16.443 9.775 1.467.743 2.933 1.486 4.389 2.248a3.3 3.3 0 0 0 2.596.373 2.84 2.84 0 0 0 1.646-1.573.7.7 0 0 0 .065-.235c.004-.053.015-.107.024-.16a1.4 1.4 0 0 0-.025-.795l-.111-.292a7.3 7.3 0 0 0-.775-1.63C107.826 16.42 98.042 8.85 88.528 2.196c-3.562-2.492-7.14-2.385-10.625.315-.414.32-.836.632-1.258.942-.824.608-1.676 1.233-2.466 1.934a386 386 0 0 1-3.231 2.836c-3.224 2.815-6.559 5.726-9.638 8.806-3.57 3.568-6.944 7.429-10.21 11.163l-1.903 2.174-.186.207c-.714.79-2.049 2.26-.365 4.286a.67.67 0 0 0 .703.213c2.572-.766 4.619-2.392 6.598-3.964.915-.727 1.861-1.477 2.83-2.117 2.667-1.757 5.239-3.73 7.724-5.639q.977-.75 1.956-1.497c1.087-.825 2.097-1.697 3.166-2.62a50 50 0 0 1 5.175-4.073l.095.399c.147.484.228.986.24 1.492-.336 6.135-.567 12.376-.79 18.41-.48 12.928-.974 26.29-2.532 39.28-6.579 1.563-25.745 2.725-52.847 3.198q-1.741 0-3.472-.178l-1.138-.091q.323-.502.614-.962a30 30 0 0 1 1.996-2.903c4.117-5.036 6.685-10.934 8.846-16.557a8.6 8.6 0 0 0 .389-2.824c.017-.53.037-1.129.095-1.784a.666.666 0 0 0-.939-.667c-.535.242-1.023.426-1.455.589a5.7 5.7 0 0 0-2.103 1.113A201 201 0 0 0 4.19 75.554C.404 80.533.453 83.868 4.376 88.3c4.977 5.62 9.5 10.362 13.827 14.493 1.935 1.847 4.367 3.171 6.72 4.452q.6.324 1.19.651a3.3 3.3 0 0 0 2.579.431 3.5 3.5 0 0 0 1.999-1.875.67.67 0 0 0-.027-.664c-.407-.645-.815-1.321-1.233-2.011a58 58 0 0 0-3.252-4.988c-1.085-1.44-2.304-2.797-3.483-4.11-.869-.968-1.767-1.968-2.596-2.984-.53-.649-1.122-1.264-1.694-1.857a14.2 14.2 0 0 1-3.1-4.105l.126-.03c.367-.11.747-.173 1.13-.186 11.842.304 23.843-.253 35.45-.794 5.85-.272 11.9-.554 17.851-.721q1.251.004 2.487.202.379.05.775.1c-.198 3.785-.428 7.607-.65 11.31-.92 15.269-1.87 31.043-.69 47.247q-.706-.482-1.337-.917c-1.427-.982-2.657-1.829-3.927-2.563-7.781-4.49-15.724-8.987-22.558-12.85-1.155-.652-2.1-.802-2.893-.454-.77.336-1.308 1.128-1.598 2.353a.67.67 0 0 0 .11.546c.137.187.273.389.412.595q.512.798 1.143 1.506a161 161 0 0 0 26.166 22.804c2.626 1.822 5.216 2.733 7.804 2.733a13.6 13.6 0 0 0 7.741-2.69c5.088-3.503 10.48-7.279 15.569-11.521A67 67 0 0 0 105.63 135c.67-.763 1.339-1.525 2.016-2.275a6.6 6.6 0 0 0 1.127-2.075c.121-.303.241-.609.381-.899a.67.67 0 0 0-.209-.828c-1.939-1.411-3.429-.709-4.673.059q-7.458 4.607-14.921 9.201l-8.325 5.125c.159-1.84.318-3.643.475-5.421.435-4.944.843-9.612 1.189-14.328.244-3.356.434-6.769.618-10.069.18-3.237.367-6.585.604-9.87.194-2.715.234-5.475.272-8.145a95 95 0 0 1 .662-11.822c.194-.076.373-.153.543-.223.325-.168.676-.28 1.038-.333 18.734-.422 37.238-.81 59.258-1.26h.004v.095l.014.289q-.704.757-1.439 1.552c-1.295 1.4-2.633 2.847-4.01 4.275-4.643 4.814-8.253 10.38-11.463 15.675-.491.812-.953 1.769-.653 2.719a2.52 2.52 0 0 0 1.521 1.492.64.64 0 0 0 .396.043c.13-.024.259-.038.389-.053a2.7 2.7 0 0 0 1.12-.299c9.833-5.857 17.697-13.75 24.73-21.409 3.771-4.105 3.894-9.058.339-13.589-4.999-6.37-9.792-12.033-14.651-17.306"/></g><defs><clipPath id="a"><path fill="#fff" d="M.777 0h159v157h-159z"/></clipPath></defs></svg>