<svg xmlns="http://www.w3.org/2000/svg" width="130" height="149" fill="none" viewBox="0 0 130 149"><g clip-path="url(#a)"><path fill="#000" d="M27.66 32.764a.7.7 0 0 0-.06.216q-.036.302-.083.648a16 16 0 0 0-.176 1.855q-.307 16.551-.602 33.104-.29 16.016-.583 32.033c-.024 1.332-.1 2.663-.173 3.951l-.071 1.284c-10.89 4.291-19.197 12.403-23.418 22.884-1.16 2.881-2.134 6.02-1.408 9.447a13.33 13.33 0 0 0 6.482 8.88 14.47 14.47 0 0 0 7.236 1.909 15.3 15.3 0 0 0 4.745-.759c4.957-1.62 8.78-4.907 11.687-10.056a36.46 36.46 0 0 0 4.59-17.491q.155-8.739.353-17.478c.25-11.699.51-23.796.583-35.696.034-5.317-.25-10.713-.525-15.932a485 485 0 0 1-.428-9.32 17 17 0 0 0-.187-1.813c-.206-1.482-.401-2.885.351-4.331 25.68-7.235 51.994-16.142 80.405-27.218.061 1.973-.015 3.817-.088 5.608a121 121 0 0 0-.097 2.98q-.084 5.146-.182 10.29c-.187 10.134-.379 20.611-.368 30.919.006 5.871.248 11.834.482 17.6.13 3.167.26 6.441.354 9.661a33 33 0 0 1-.145 3.499q-.053.68-.096 1.36l-1.611 1.017c-1.342.845-2.61 1.645-3.869 2.481A51.6 51.6 0 0 0 95.2 110.85c-4.103 6.797-4.317 13.609-.637 20.247 4 7.217 11.475 9.787 19.038 6.543a21.96 21.96 0 0 0 8.995-7.196c3.112-4.171 4.998-9.151 5.93-15.673 1.232-8.605 1.005-17.306.623-24.683q-.29-5.61-.603-11.22c-.464-8.503-.943-17.296-1.291-25.947-.396-9.86-.691-19.888-.976-29.591q-.2-6.797-.41-13.592l-.027-.946c-.032-1.231-.065-2.497-.199-3.749-.235-2.219-1.431-3.811-3.282-4.368a.66.66 0 0 0-.349-.01c-1.201.293-2.308.556-3.349.803-2.126.504-3.961.938-5.797 1.446A2725 2725 0 0 0 96.841 7.42l-6.362 1.8A836 836 0 0 0 35.99 26.618c-3.05 1.093-6.504 2.33-8.33 6.146m-1.364 81.2c.26.596.435 1.225.518 1.87a28.97 28.97 0 0 1-4.418 17.262 10.9 10.9 0 0 1-5.072 4.474c-1.855.784-3.32.548-4.599-.748-.81-2.254 0-4.276.988-6.316 2.086-4.327 7.989-12.142 12.535-16.669q.023.064.048.127m83.798 11.5c-1.145.953-2.279 1.332-3.279 1.102-1.054-.247-1.959-1.157-2.613-2.631a7.84 7.84 0 0 1-.335-5.98l.124-.366q.318-1.037.803-2.008c2.795-5.187 6.798-9.486 11.433-14.464l.07-.077c.628 8.117-.208 14.364-2.669 20.096a12.7 12.7 0 0 1-3.534 4.328"/></g><defs><clipPath id="a"><path fill="#fff" d="M.777 0h129v149h-129z"/></clipPath></defs></svg>