<svg xmlns="http://www.w3.org/2000/svg" width="155" height="154" fill="none" viewBox="0 0 155 154"><g clip-path="url(#a)"><path fill="#000" d="M42.995 92.7c-1.56-.73-3.172-1.487-4.687-2.32a6.5 6.5 0 0 0-2.9-.548C24.365 89.52 15.363 93.644 8.6 102.083c-6.273 7.826-8.597 17.201-6.906 27.863 2.082 13.143 10.557 21.624 23.25 23.268 1.493.193 2.996.29 4.5.289a41.7 41.7 0 0 0 15.739-3.308c13.507-5.459 21.23-20.395 17.964-34.741a22.7 22.7 0 0 1-.532-4.475c-.301-12.135-.566-24.473-.822-36.405l-.033-1.559c-.024-1.11-.017-2.238-.01-3.329l.005-1.07c24.933-9.589 51.501-18.5 81.175-27.227l.909 27.989q-.45-.076-.879-.141a7.7 7.7 0 0 1-2.565-.673c-7.329-4.135-15.74-5.172-25.705-3.17-10.939 2.194-18.376 7.868-22.101 16.862-6.03 14.555-4.186 28.558 5.334 40.482 7.33 9.183 16.96 12.791 27.857 10.437 8.725-1.884 16.115-6.52 21.963-13.775a26.5 26.5 0 0 0 5.3-11.333 60.8 60.8 0 0 0-.367-25.724 17.2 17.2 0 0 1-.543-4.094c.085-3.325.218-6.709.347-9.98.22-5.566.447-11.322.445-16.99 0-10.952-.236-22.084-.461-32.85q-.082-3.903-.161-7.805a46 46 0 0 0-.692-6.38c-.378-2.335-1.671-3.697-3.545-3.737L147.73.5c-2.473-.055-5.028-.111-7.403.54a480 480 0 0 0-22.339 6.738c-8.392 2.746-16.822 5.819-24.975 8.791C81.197 20.876 68.98 25.33 56.68 28.861A5.4 5.4 0 0 0 54 30.232l-.119.139c-1 1.17-2.135 2.488-2.34 3.976a48 48 0 0 0-.364 9.418c.77 12.978 1.614 26.169 2.431 38.922l1.04 16.265c.03.498.025 1.003.016 1.533-3.184-3.807-7.492-5.828-11.669-7.785m8.466 17.3c3.841 5.523 4.725 13.144 2.304 19.884a19.92 19.92 0 0 1-13.382 12.719c-2.519.706-5.144 1.243-7.683 1.761-1.165.238-2.332.476-3.494.731-10.559-.507-17.26-6.408-18.871-16.623-1.848-11.707 2.503-27.02 20.846-31.65a10.6 10.6 0 0 1 2.603-.343 8.43 8.43 0 0 1 4.808 1.494c5.768 3.872 9.857 7.693 12.869 12.027m11.942-51.546c-.747.292-1.495.585-2.248.85-.049-.003-.105-.015-.174-.026l-.85-20.24L142.884 9.27v25.976c-28.363 4.234-54.73 13.563-79.01 23.024zM144.218 90.9q.01.628.012 1.255a.67.67 0 0 0 .46.634c-.144 1.234-.26 2.484-.375 3.698a63 63 0 0 1-1.345 9.338c-2.545 10.212-15.328 18.864-25.807 17.465-6.27-.836-11.363-4.603-14.728-10.895-4.747-8.872-5.386-17.856-1.901-26.707a18.52 18.52 0 0 1 9.292-10.247 32.7 32.7 0 0 1 14.355-3.544 27.8 27.8 0 0 1 8.729 1.41c5.889 1.936 11.842 5.212 11.332 14.82-.048.93-.035 1.866-.022 2.776z"/></g><defs><clipPath id="a"><path fill="#fff" d="M.777 0h154v154h-154z"/></clipPath></defs></svg>