<svg xmlns="http://www.w3.org/2000/svg" width="141" height="156" fill="none" viewBox="0 0 141 156"><g clip-path="url(#a)"><path fill="#000" d="M11.407 151.273a22.08 22.08 0 0 0 13.192 4.529 24.35 24.35 0 0 0 10.36-2.454c7.43-3.483 11.216-9.759 11.253-18.656q.005-.966.014-1.933.015-1.38.017-2.76v-14.067q0-18.087.012-36.172.002-.38.043-.758c.949-.381 1.877-.732 2.775-1.071a50 50 0 0 0 6.013-2.57c10.258-5.497 20.664-11.124 30.73-16.565 9.831-5.315 19.999-10.811 30.015-16.182 3.004-1.61 6.049-3.017 9.274-4.507 1.173-.542 2.354-1.087 3.541-1.647v55.025q-.464-.381-.913-.753a38 38 0 0 0-4.098-3.096c-5.742-3.573-11.737-3.68-17.333-.31-7.364 4.434-11.731 11.4-12.63 20.144-1.106 10.792 4.804 19.433 14.71 21.502 9.568 1.998 18.71-.821 25.07-7.741 5.925-6.442 8.289-15.149 6.17-22.724a10.5 10.5 0 0 1-.228-2.806v-.673q-.102-13.259-.2-26.518-.21-28.29-.452-56.58a28 28 0 0 0-.808-7.13c-.423-1.513-1.77-3.407-3.211-3.83-2.912-.855-6.379-1.46-10.007.522-8.668 4.735-17.977 9.546-27.667 14.3C75.35 26.437 58.275 35.9 43.326 45.57c-1.174.76-2.49 2.532-2.573 4.073a3407 3407 0 0 0-2.185 48.504c-.141 3.696-.106 7.406-.07 11.334.015 1.567.03 3.179.035 4.842l-1.023-.407c-1.027-.407-1.769-.701-2.496-1.032a53 53 0 0 1-2.3-1.138 27.3 27.3 0 0 0-4.686-2.056c-8.624-2.545-15.53-1.007-20.526 4.569a25.6 25.6 0 0 0-4.962 9.055 25.8 25.8 0 0 0-1.001 10.304 25.7 25.7 0 0 0 3.124 9.858 25.4 25.4 0 0 0 6.737 7.793zm27.13-20c.008.456.014.889-.01 1.319-.507 8.676-4.333 13.12-12.406 14.418-6.477 1.033-13.28-3.346-15.822-10.201-2.215-5.969-1.415-11.871 2.377-17.543 1.868-2.794 4.613-4.148 8.507-4.148a21.5 21.5 0 0 1 9.686 2.368c6.242 3.068 8.68 7.205 7.671 13.023a1 1 0 0 0-.01.116q.001.323.008.648m8-59.322V50.243l82.627-41.639v17.107zm82.747 39.969c-1.387 3.519-4.602 5.403-7.056 6.363-2.009.784-4.142 1.392-6.206 1.978-.896.255-1.794.509-2.685.779-7.409-.591-12.081-5.733-11.639-12.829.144-2.814.897-5.56 2.207-8.045a19.1 19.1 0 0 1 5.372-6.338 9.6 9.6 0 0 1 6.014-2.249 9.4 9.4 0 0 1 4.178 1.018c6.762 3.333 9.838 7.408 9.969 13.213.014.57.057 1.155.1 1.744.113 1.542.23 3.137-.254 4.366"/></g><defs><clipPath id="a"><path fill="#fff" d="M.777 0h140v156h-140z"/></clipPath></defs></svg>