<svg xmlns="http://www.w3.org/2000/svg" width="158" height="127" fill="none" viewBox="0 0 158 127"><g fill="#000" clip-path="url(#a)"><path d="M6.182 100.18a15.5 15.5 0 0 0 4.118.564c6.12-.029 13.312-.371 20.381-2.662q.842.561 1.64 1.103c1.315.889 2.558 1.729 3.85 2.514 15.506 9.402 32.094 16.573 50.613 24.314.523.238 1.087.37 1.66.392.388.006.77-.095 1.103-.294.696-.424 1.08-1.25 1.174-2.538.025-.687.123-1.37.293-2.036 3.468-11.447 5.473-20.915 6.308-29.797.32-3.404.71-6.864 1.088-10.21.67-5.921 1.362-12.045 1.686-18.097.895-16.64-.259-33.5-1.374-49.804l-.41-6.076a19.2 19.2 0 0 0-.77-4.374 3.8 3.8 0 0 0-1.946-2.44 4.17 4.17 0 0 0-3.39.107c-.935.386-1.904.745-2.841 1.096-.903.337-1.806.674-2.698 1.036q-1.798.727-3.602 1.436c-3.18 1.256-6.462 2.555-9.598 4.054-4.81 2.3-9.76 4.92-14.712 7.788-7.58 4.39-14.977 8.779-22.81 13.427q-4.691 2.783-9.48 5.618a13 13 0 0 0-1.226.012c-1.557.098-3.12.182-4.681.267-3.918.213-7.97.433-11.938.849-3.668.383-5.54 2.288-6.069 6.177a32 32 0 0 0-.241 3.702q-.3 15.531-.589 31.062l-.305 16.193a6.38 6.38 0 0 0 1.19 4.156 6.45 6.45 0 0 0 3.576 2.461m79.175 16.106c.064.59.1 1.184.145 1.877-6.78-5.24-14.395-11.017-22.72-15.36-5.812-3.03-11.627-6.124-17.25-9.108q-3.47-1.843-6.86-3.64c.046-2.602.109-5.166.17-7.705.15-6.102.292-11.866.195-17.728-.093-5.877-.419-11.64-.762-17.74-.143-2.545-.288-5.113-.417-7.715q.552-.4 1.14-.74 6.21-3.495 12.427-6.978c9.593-5.38 19.512-10.943 29.222-16.498a72 72 0 0 0 6.65-4.489c.733-.534 1.482-1.081 2.25-1.627q.047.547.035 1.096-.267 6.862-.511 13.726c-.417 11.415-.848 23.218-1.441 34.812-.596 11.669-1.457 24.344-2.707 39.888a95 95 0 0 0 .434 17.928zm-55.21-27.979-.076.046c-.24.18-.518.308-.813.37-4.756.046-9.597.034-14.279.021l-2.65-.007a2 2 0 0 1-.319-.064l-.037-.01-.046-.263q-.157-.781-.194-1.577-.13-6.101-.24-12.203-.163-8.602-.352-17.206c-.05-2.162-.176-4.355-.297-6.474a317 317 0 0 1-.2-3.763c-.03-.634-.022-1.283-.014-1.968l.004-.426 18.482-1.096c-.746 13.344-1.168 28.986 1.03 44.62zm125.511-11.14c-3.01-3.525-6.124-7.06-9.137-10.478l-2.19-2.488a38 38 0 0 0-1.344-1.433l1.34-1.452a917 917 0 0 0 3.547-3.854q.946-1.032 1.903-2.058c1.598-1.72 3.252-3.498 4.779-5.34 2.445-2.946 2.796-5.646.964-7.404-1.057-1.014-3.413-2.177-7.325 1.444-.673.624-1.329 1.267-1.985 1.91q-.56.549-1.124 1.095l-9.615 9.236q-.194-.15-.389-.294c-.529-.4-.985-.746-1.413-1.117q-2.617-2.27-5.226-4.55a2373 2373 0 0 0-8.045-6.986 25.5 25.5 0 0 0-3.791-2.862 4.844 4.844 0 0 0-6.033.656c-1.358 1.477-1.453 3.603-.255 5.687a15.5 15.5 0 0 0 2.211 3.078c2.691 2.808 6.261 6.5 10.001 10.155 1.117 1.092 2.33 2.086 3.613 3.14q.615.502 1.255 1.03l-.161.122q-.724.499-1.336 1.13c-4.858 5.373-9.774 10.856-14.532 16.16l-.963 1.074a2.6 2.6 0 0 0-.694 1.001 2.56 2.56 0 0 0-.155 1.206c.146.716.718 1.3 1.751 1.789a.67.67 0 0 0 .594-.01c8.266-4.278 15.236-10.238 22.794-17.023l1.195.845c5.713 4.038 11.314 7.994 16.912 11.958q.155.118.292.257c.272.305.627.524 1.022.63l.098.02c.846.163 1.901.367 2.578-.144a2.83 2.83 0 0 0 .73-2.76 10.3 10.3 0 0 0-1.866-3.37"/></g><defs><clipPath id="a"><path fill="#fff" d="M.777 0h157v127h-157z"/></clipPath></defs></svg>