<svg xmlns="http://www.w3.org/2000/svg" width="103" height="150" fill="none" viewBox="0 0 103 150"><g clip-path="url(#a)"><path fill="#000" d="M101.064 135.696c-1.14-5.548-2.32-11.285-3.96-16.798-6.466-21.748-14.262-46.954-24.987-70.89-2.686-5.993-5.074-12.251-7.385-18.304-1.032-2.697-2.094-5.487-3.172-8.22a1213 1213 0 0 1-2.325-5.932c-1.302-3.33-2.646-6.775-4.002-10.152-1.522-3.792-4.19-5.374-8.152-4.835a.66.66 0 0 0-.468.299c-.237.369-.494.736-.754 1.104a16.2 16.2 0 0 0-1.672 2.764l-.76 1.727a101 101 0 0 0-4.01 10.033c-3.233 10.15-5.986 19.324-8.414 28.043q-1.392 4.996-2.776 10c-6.88 24.852-13.993 50.552-23.36 75.077-1.092 2.862-1.908 5.866-2.697 8.772l-.226.829a12.8 12.8 0 0 0 .071 7.616 4.65 4.65 0 0 0 2.643 2.888c.47.184.97.279 1.475.279a4.45 4.45 0 0 0 2.144-.57 29 29 0 0 0 3.971-2.799l.424-.336q6.49-5.12 12.969-10.256 8.863-7.013 17.739-14.015c1.258-.991 2.582-1.91 3.987-2.883q.852-.588 1.743-1.215 1.25.723 2.473 1.414c2.032 1.154 3.951 2.244 5.815 3.456a885 885 0 0 1 17.079 11.411c7.373 5.038 15.534 8.465 22.605 11.282.762.272 1.55.468 2.35.585.51.094 1.097.203 1.793.355a.67.67 0 0 0 .534-.116.66.66 0 0 0 .267-.48c.055-.661.135-1.228.204-1.728a7 7 0 0 0 .078-2.467c-.431-1.978-.837-3.958-1.244-5.938m-14.06-8.406a53 53 0 0 1-1.813-1.283 489 489 0 0 1-4.842-3.698c-3.428-2.641-6.972-5.371-10.608-7.857-4.407-3-9-5.714-13.75-8.125-5.37-2.727-10.163-1.811-15.087 2.898-5.75 5.5-11.952 10.731-17.95 15.789a1480 1480 0 0 0-7.066 5.997q-.272.13-.569.177l-.021.005-.034-.181a3 3 0 0 1-.077-.553c10.418-28.034 17.86-56.277 25.738-86.177 2.417-9.176 4.912-18.646 7.488-28.043a65 65 0 0 1 3.522 11.228c.592 2.403 1.151 4.676 1.914 6.942q1.073 3.187 2.134 6.376c1.375 4.12 2.796 8.382 4.24 12.559 1.282 3.701 2.624 7.45 3.922 11.073q1.389 3.874 2.762 7.753a1284 1284 0 0 1 2.831 8.128c1.22 3.522 2.482 7.161 3.754 10.733a1373 1373 0 0 0 6.843 18.776c1.586 4.248 3.222 8.507 4.954 13.01.557 1.458 1.129 2.945 1.715 4.473"/></g><defs><clipPath id="a"><path fill="#fff" d="M.777 0h102v150h-102z"/></clipPath></defs></svg>