<svg xmlns="http://www.w3.org/2000/svg" width="155" height="155" fill="none" viewBox="0 0 155 155"><g fill="#000" clip-path="url(#a)"><path d="M1.77 75.94c0-14.49.039-28.981-.025-43.468-.017-4.117-.375-8.233-.502-12.352C.91 9.245 8.364 1.262 19.937 1.035 44.059.56 68.179-.478 92.315.346c2.554.087 5.12-.092 7.672.02 1.546.062 3.08.314 4.566.752a3.16 3.16 0 0 1 2.277 3.002c.096 1.473-.433 2.78-1.754 3.332a21.2 21.2 0 0 1-5.084 1.385c-1.55.147-3.11.15-4.662.009-20.122-.865-40.253-.763-60.381-.4-5.435.127-10.858.559-16.245 1.295-3.37.444-6.456 1.968-7.762 5.528a12.6 12.6 0 0 0-.938 4.508c.153 5.897.512 11.788.801 17.681.098 2.004.292 4.005.314 6.008.204 18.279.478 36.557.528 54.837.032 11.367-.347 22.734-.41 34.102a83 83 0 0 0 .714 8.972c.208 2.011 1.323 3.241 3.42 3.452.663.065 1.319.293 1.978.293 6.218.005 12.439.077 18.654-.065 7.892-.181 15.779-.737 23.67-.792 19.24-.13 38.483-.114 57.724-.06 5.446.016 10.89.378 16.336.555a8.93 8.93 0 0 0 5.671-1.563 8.97 8.97 0 0 0 3.478-4.754 7.1 7.1 0 0 0 .352-2.26c-.074-5.898-.569-11.816-.231-17.687 1.173-20.38 1.165-40.773 1.158-61.17 0-2.117.03-4.237.153-6.35a16 16 0 0 1 .58-3.619 3.25 3.25 0 0 1 2.902-2.414c1.565-.183 3.007.219 3.676 1.693a13.5 13.5 0 0 1 1.255 4.439c.491 6.776.832 13.564 1.209 20.35 1.181 21.296-.025 42.563-.65 63.838a24.6 24.6 0 0 1-1.227 6.533 14.7 14.7 0 0 1-3.347 5.907 14.6 14.6 0 0 1-5.643 3.764 35 35 0 0 1-13.024 2.386c-14.344-.037-28.689.009-43.033-.009-5.449-.006-10.9-.225-16.346-.13-12.894.23-25.785.62-38.678.886-5.225.107-10.458.228-15.676.043-8.295-.294-13.557-5.775-13.666-14.189-.28-21.504-.465-43.008-.689-64.512z"/><path d="M61.857 92.567a16 16 0 0 1 .599-2.869c1.653-4.599 3.314-9.2 5.166-13.72a17.5 17.5 0 0 1 2.853-4.49c18.926-22.499 38.16-44.722 59.05-65.442q1.28-1.319 2.72-2.46c2.716-2.071 5.544-2.137 8.264-.054a50 50 0 0 1 4.704 4.24c2.606 2.585 5.124 5.257 7.699 7.872 2.295 2.33 1.748 5.263-.02 7.204-1.423 1.563-2.95 3.028-4.455 4.513-17.511 17.283-35.195 34.395-52.438 51.942a72 72 0 0 1-16.719 12.92c-3.016 1.659-6.118 3.161-9.2 4.697-.793.405-1.627.725-2.486.956-3.727.962-5.858-.75-5.737-5.308m23.89-13.252 45.405-47.102-6.881-10.326c-15.581 16.81-30.914 33.35-46.474 50.14l7.948 7.288zm44.152-62.62 8.272 8.363 6.39-5.687-7.944-9.333zM73.791 78.67l-2.074 4.827 2.518 2.817 3.842-2.243z"/></g><defs><clipPath id="a"><path fill="#fff" d="M.777 0h154v155h-154z"/></clipPath></defs></svg>