<svg xmlns="http://www.w3.org/2000/svg" width="64" height="153" fill="none" viewBox="0 0 64 153"><g clip-path="url(#a)"><path fill="#000" d="M55.495 77.265c.574-14.481.669-28.961-.46-43.414a83 83 0 0 0-2.325-14.478C50.16 9.6 42.73 4.817 32.74 6.285a40.8 40.8 0 0 0-9.057 2.483 15 15 0 0 0-5.504 3.797 14.9 14.9 0 0 0-3.29 5.795 76.7 76.7 0 0 0-3.145 13.282c-2.304 17.118-3.907 34.3-3.42 51.605.24 8.46.583 16.917.835 25.377a23 23 0 0 1-.281 3.639 2.45 2.45 0 0 1-.815 1.619 2.5 2.5 0 0 1-1.71.627 2.72 2.72 0 0 1-1.767-.469 2.7 2.7 0 0 1-1.066-1.474 8 8 0 0 1-.365-1.962C1.572 94.742.46 78.849 1.733 62.923c.922-11.532 2.16-23.048 3.61-34.527a54 54 0 0 1 3.253-12.552c2.727-7.06 7.948-11.837 15.399-13.766A64.3 64.3 0 0 1 35.568.11a22.8 22.8 0 0 1 13.321 3.434 22.5 22.5 0 0 1 8.86 10.45 59.4 59.4 0 0 1 3.574 13.838c1.952 13.37 2.191 26.844 1.717 40.333-.552 15.694-.969 31.395-1.697 47.081-.304 6.546-1.26 13.062-1.927 19.592q-.074.665-.246 1.312c-2.69 10.372-9.765 15.981-20.622 16.263-2.016.121-4.04.028-6.037-.278-8.869-1.688-14.7-6.499-15.587-17.448-.778-9.626-.508-19.359-.294-29.038.281-12.802.845-25.601 1.505-38.39.452-8.77.4-17.636 2.807-26.177a39 39 0 0 1 4.043-9.462c2.882-4.78 7.613-6.212 13.865-4.563 3.34.88 4.974 3.4 5.503 6.538.87 5.154 1.722 10.33 2.173 15.532 1.205 13.897.716 27.82.32 41.74-.184 6.454-.05 12.918-.086 19.378.032.997-.058 1.994-.269 2.969a3.76 3.76 0 0 1-1.408 2.134 3.81 3.81 0 0 1-4.831-.221 3.76 3.76 0 0 1-1.203-2.255 16.6 16.6 0 0 1-.085-2.995c.2-16.038.65-32.077.517-48.113-.07-8.437-1.138-16.868-1.806-25.297-.11-1.389 0-3.023-1.887-3.516-1.625-.424-3.332.36-4.463 2.25a31.2 31.2 0 0 0-4.258 14.283c-.813 13.672-1.457 27.352-2.051 41.035a1326 1326 0 0 0-.95 29.381c-.092 4.004.11 8.019.27 12.025.356 8.873 5.518 13.394 14.445 12.71.783-.06 1.564-.165 2.34-.287 5.619-.884 9.723-3.625 10.697-9.486a144 144 0 0 0 1.903-15.886c.751-13.888 1.205-27.802 1.774-41.71"/></g><defs><clipPath id="a"><path fill="#fff" d="M.777 0h63v153h-63z"/></clipPath></defs></svg>