<svg xmlns="http://www.w3.org/2000/svg" width="135" height="160" fill="none" viewBox="0 0 135 160"><g clip-path="url(#a)"><path fill="#000" d="M36.768 8.822c.407-4.43 3.018-6.566 7.117-6.865C52.113 1.36 60.347.784 68.588.453c6.189-.246 12.395-.01 18.59-.156 5.138-.123 9.198 1.26 10.659 6.48 4.77 0 9.296-.062 13.819.011 12.624.21 20.509 7.037 21.412 19.57.883 12.237 1.245 24.536 1.197 36.806-.065 16.792-.659 33.584-1.179 50.37-.19 6.132-.693 12.261-1.279 18.37-1.162 12.09-12.946 27.11-30.709 27.116-24.67.009-49.338.431-74.01.59a36 36 0 0 1-7.364-.905c-11.96-2.449-18.668-10.627-18.667-22.822 0-13.723.111-27.45.19-41.175.104-18.226-.043-36.46.486-54.674.176-6.042 1.683-12.151 3.335-18.02C7.553 13.181 12.49 9.502 21.916 8.88c4.815-.32 9.674-.058 14.852-.058m.86 5.488c-6.427.738-12.261 1.302-18.061 2.115-2.854.4-5.165 2.179-5.826 4.927-1.67 6.942-4.233 13.983-4.185 20.97.223 32.162 1.161 64.316-.447 96.472-.31 6.199 3.392 11.208 9.522 12.707a54.5 54.5 0 0 0 12.519 1.702c11.668.061 23.34-.215 35.007-.506 12.588-.314 25.182-.627 37.752-1.318 3.371-.185 7.301-.918 9.863-2.849 5.731-4.316 10.262-9.824 10.754-17.545.326-5.103.954-10.194 1.091-15.299.386-14.438.732-28.88.823-43.323.092-14.532.079-29.071-.339-43.594-.174-6.054-2.344-12-9.06-13.556-5.499-1.272-11.358-1.007-17.252-1.437.087 1.265.117 1.87.171 2.47.497 5.52-1.302 8.23-6.642 9.817-1.751.62-3.57 1.03-5.418 1.22-14.124.687-28.25 1.342-42.382 1.805-3.818.123-5.984-2.49-6.452-6.504-.303-2.606-.889-5.18-1.439-8.274zm32.583-8.314-.04-.484q-11.706.931-23.413 1.857c-2.405.185-3.192 1.365-2.642 3.693A30.3 30.3 0 0 1 45.12 17.1c.07 2.461 1.25 3.172 3.491 3.158 7.432-.045 14.87.177 22.293-.069 6.377-.21 12.734-.984 19.107-1.381 2.634-.164 3.04-1.465 2.535-3.67A42 42 0 0 1 91.54 9.4c-.222-2.543-1.408-3.507-4.003-3.446-5.772.137-11.551.042-17.327.042"/></g><defs><clipPath id="a"><path fill="#fff" d="M.777 0h134v160h-134z"/></clipPath></defs></svg>