<svg xmlns="http://www.w3.org/2000/svg" width="72" height="104" fill="none" viewBox="0 0 72 104"><g fill="#000" clip-path="url(#a)"><path d="M12.008 8.371a21.6 21.6 0 0 0-.68-4.728 4.04 4.04 0 0 0-1.45-2.319A4.05 4.05 0 0 0 7.279.458C5.325.534 3.957 1.733 3.425 3.832a28 28 0 0 0-.711 5.378q-.165 3.198-.343 6.398c-.362 6.624-.737 13.475-.87 20.222-.279 14.005-.326 28.12-.333 41.289a94 94 0 0 0 2.897 22.548 6.3 6.3 0 0 0 1.423 2.339c.326.405.668.825 1.014 1.318a.67.67 0 0 0 .549.286h.015a.67.67 0 0 0 .55-.311c.35-.553.622-.939.825-1.227.309-.344.52-.764.61-1.216.65-6.868 1.195-12.935 1.668-18.552 1.345-15.961 1.441-32.21 1.534-47.926q.032-5.335.078-10.671c.045-4.651-.118-9.374-.275-13.942zm56.928-4.58c-.436-1.13-2.447-1.599-3.428-1.599-1.016 0-2.248 1.176-2.505 2.101a23.6 23.6 0 0 0-.79 5.375l-.285 7.085c-.486 12.067-.99 24.545-1.33 36.823-.253 9.132-.515 18.574.946 28.026.869 5.622 2.072 11.171 3.242 16.329l.036.161c.294 1.323.787 3.536 4.25 3.565h.006a.67.67 0 0 0 .67-.667c0-1.448-.012-2.872-.023-4.279-.025-3.151-.05-6.13.052-9.142.087-2.58.255-5.206.419-7.746.187-2.904.38-5.907.456-8.87.252-10.237.55-23.725.626-37.283.038-6.902-.139-14.31-.54-22.651a24 24 0 0 0-1.802-7.228"/></g><defs><clipPath id="a"><path fill="#fff" d="M.777 0h71v104h-71z"/></clipPath></defs></svg>