<svg xmlns="http://www.w3.org/2000/svg" width="155" height="153" fill="none" viewBox="0 0 155 153"><g clip-path="url(#a)"><path fill="#000" d="M153.697 1.191c-2.256-1.625-4.679-1.171-6.813-.774-.475.089-.948.178-1.416.243a318 318 0 0 0-58.376 13.798 1867 1867 0 0 1-34.114 11.294c-4.158 1.33-6.84 3.76-8.444 7.648-4.938 11.961-7.896 22.299-9.318 32.53a72 72 0 0 0-.24 2.012A31.7 31.7 0 0 1 34 73.538l-1.329-1.28c-1.391-1.343-2.706-2.612-4.056-3.8-2.61-2.294-4.404-2.453-7.387-.645a15 15 0 0 0-2.803 2.05A1881 1881 0 0 0 2.87 85.338a6.04 6.04 0 0 0-1.804 2.78 6 6 0 0 0-.06 3.307q.035.166.146.296c1.13 1.318 2.278 2.704 3.456 4.125 2.73 3.292 5.547 6.69 8.65 9.899 9.682 10.019 20.381 20.832 33.663 34.03 3.13 3.11 6.47 6.104 9.7 8.998 1.488 1.335 2.977 2.67 4.451 4.02a.67.67 0 0 0 .455.175h4.004a.67.67 0 0 0 .617-.409 5 5 0 0 0 .154-.452q.053-.226.163-.43 4.058-3.543 8.136-7.066 4.965-4.299 9.914-8.619c1.777-1.557 3.627-3.55 3.87-6.524a.7.7 0 0 0-.004-.145c-.371-2.647-2.135-4.27-3.842-5.841-1.287-1.186-2.509-2.312-3.171-3.845l.318-.162a14 14 0 0 1 1.547-.71q4.814-1.716 9.642-3.401c6.928-2.43 14.093-4.943 21.076-7.592 4.094-1.553 7.986-3.761 11.748-5.895l.2-.113c3.034-1.721 4.939-4.573 5.665-8.474a116 116 0 0 1 2.225-9.61 20578 20578 0 0 1 20.213-72.729c1.052-3.75 1.029-6.668-.071-9.464a.67.67 0 0 0-.234-.295M90.212 76.046a7.16 7.16 0 0 1-5.293-.428 7.1 7.1 0 0 1-3.522-3.95c-1.504-3.793-.056-7.272 3.69-8.866a19.6 19.6 0 0 1 6.13-1.477q.393-.029.762-.029a5.2 5.2 0 0 1 3.643 1.19c1.002.926 1.505 2.392 1.498 4.357-.015 3.981-3.113 8.108-6.908 9.205zm42.598-59.131c-2.122 2.054-4.127 3.994-6.051 6.085-2.015 2.195-4.127 4.372-6.17 6.48-2.809 2.901-5.718 5.901-8.427 8.99-3.236 3.683-6.229 7.452-9.398 11.441-1.291 1.624-2.593 3.264-3.924 4.913l-.685-.205c-.829-.248-1.689-.507-2.547-.731a22.34 22.34 0 0 0-14.124 1.106c-7.1 2.816-10.827 9.152-9.728 16.535a17.65 17.65 0 0 0 3.12 7.858 17.8 17.8 0 0 0 6.426 5.53 16.58 16.58 0 0 0 15.465-.452 19.9 19.9 0 0 0 8.592-8.606c2.945-5.841 2.713-10.968-.711-15.674a10 10 0 0 0-.307-.396 3.5 3.5 0 0 1-.751-1.33q-.048-.137-.102-.271.001-.057-.005-.115a1.2 1.2 0 0 1 0-.243.65.65 0 0 1 .137-.274c13.038-12.917 26.083-25.827 39.637-39.242q-.146 1.053-.436 2.075a6822 6822 0 0 1-5.458 17.648c-2.963 9.55-6.026 19.427-8.981 29.16a315 315 0 0 0-4.841 17.927 12.9 12.9 0 0 1-2.536 5.374 13 13 0 0 1-4.685 3.683 368 368 0 0 1-9.581 4.588c-2.99 1.377-6.108 2.64-9.12 3.863-7.538 3.056-15.327 6.214-22.04 11.491L40.648 79.581c.041-.467.065-.91.089-1.33a9.4 9.4 0 0 1 .346-2.513A7619 7619 0 0 1 52.475 43.32l3.003-8.506c5.307-1.83 10.67-3.732 15.86-5.571 22.2-7.872 45.136-16.005 69.483-20.548-2.656 3.037-5.373 5.666-8.012 8.219zM77.412 128.884l-14.346 13.725c-9.032-7.037-47.774-44.749-53.221-51.808 3.355-5.018 10.16-12.495 14.272-15.687l.106.065q.506.285.938.673a50909 50909 0 0 1 45.814 45.36l.794.781c2.08 2.04 4.225 4.146 5.643 6.891"/></g><defs><clipPath id="a"><path fill="#fff" d="M.777 0h154v153h-154z"/></clipPath></defs></svg>