<svg xmlns="http://www.w3.org/2000/svg" width="151" height="143" fill="none" viewBox="0 0 151 143"><g clip-path="url(#a)"><path fill="#000" d="M.83 137.349q.117-.86.321-1.704c2.031-7.181 4.125-14.345 6.087-21.545a6.18 6.18 0 0 1 2.905-3.994 10 10 0 0 0 1.998-1.561c23.353-23.743 48.258-45.817 72.81-68.274 10.303-9.425 20.243-19.248 30.51-28.715 3.898-3.594 8.192-6.77 12.417-9.99 2.286-1.743 3.657-1.743 5.777.012 4.926 4.076 9.821 8.202 14.547 12.507 3.079 2.805 3.128 5.884.217 8.885-4.152 4.28-8.51 8.358-12.781 12.522-.457.446-.933.874-1.369 1.345-15.475 16.829-32.392 32.168-49.176 47.63-12.075 11.124-24.57 21.793-36.83 32.717-3.503 3.12-6.871 6.392-10.26 9.638a41.8 41.8 0 0 1-17.427 10.193c-5.003 1.458-9.931 3.183-14.96 4.544-3.193.869-4.968-.792-4.787-4.21m116.213-117.54c-2.111 1.75-4.127 3.316-6.025 5.014a166715 166715 0 0 0-69.616 62.284 262 262 0 0 0-22.236 22.524c-.886 1.008-1.686 2.093-2.58 3.213l3.502 3.813c35.229-30.099 68.234-62.415 103.934-92.494zM28.194 125.813c15.596-11.089 95.71-85.877 102.199-95.424l-2.427-2.871c-.863.673-1.556 1.154-2.185 1.713-21.092 18.8-42.234 37.543-63.244 56.436C50.013 96.93 37.84 108.591 24.44 118.84q-.741.49-1.536.883zm94.472-112.115 12.697 11.792 7.655-6.56-11.876-11.68zM11.078 118.152c-.644 2.786-1.166 4.734-1.512 6.713-.11.712.03 1.439.393 2.06 1.152 1.774 2.456 3.449 3.805 5.305l6.42-2.523z"/></g><defs><clipPath id="a"><path fill="#fff" d="M.777 0h150v142.308h-150z"/></clipPath></defs></svg>