<svg xmlns="http://www.w3.org/2000/svg" width="150" height="137" fill="none" viewBox="0 0 150 137"><g fill="#000" clip-path="url(#a)"><path d="M33.258 126.793q1.366.165 2.741.144 2.514.01 5.027.008h5.934a.67.67 0 0 0 .621-.427q.482-.027.963.019c3.304.389 5.641-.679 7.151-3.271a6.5 6.5 0 0 1 1.36-1.454c.294-.26.584-.516.854-.788 1.059-1.082 2.138-2.148 3.214-3.214 2.363-2.337 4.806-4.752 7.022-7.308 15.166-17.49 32.187-36.14 52.035-57.018q4.37-4.597 8.746-9.19a6788 6788 0 0 0 18.307-19.273c1.619-1.712 2.404-3.61 2.275-5.488-.129-1.902-1.188-3.704-3.061-5.213a442 442 0 0 0-4.827-3.808 1042 1042 0 0 1-3.279-2.575q-1.416-1.12-2.817-2.26c-1.71-1.382-3.478-2.81-5.266-4.156-2.512-1.891-4.017-1.842-6.438.212a13 13 0 0 0-.895.863l-.332.339-7.716 7.69a23194 23194 0 0 1-16.101 16.038A752 752 0 0 0 35.71 98.012a18.7 18.7 0 0 0-3.503 7.378c-.805 3.454-1.767 6.938-2.696 10.308q-.523 1.898-1.04 3.796a5.9 5.9 0 0 0 .55 4.9 5.8 5.8 0 0 0 4.238 2.399m14.511-7.691-5.675.813-4.659-5.93 1.113-6.363zm63.382-93.887 11.626 14.245L52.1 115.946l-10.956-13.815a902 902 0 0 1 70.01-76.913zm4.501-4.675 12.253-11.613 12.778 12.048a87 87 0 0 1-6.764 7.342c-2 2.013-4.061 4.086-6.021 6.373zM1.296 106.414c.257.771.584 1.518.977 2.229 2.619 4.422 3.337 8.173 2.332 12.159a18.4 18.4 0 0 0-.384 4.336c-.004.477-.008.953-.026 1.428a6.74 6.74 0 0 0 2.588 5.84 25.7 25.7 0 0 0 6.328 3.797 9.2 9.2 0 0 0 3.206.585 10.87 10.87 0 0 0 6.997-2.849c1.208-1.018 2.419-2.522 1.037-5.138a.666.666 0 0 0-.863-.295q-.658.299-1.282.59c-.898.417-1.749.81-2.607 1.163-2.486 1.014-4.838.593-7.406-1.324-1.76-1.316-1.652-2.903-1.261-5.361l.019-.124c.553-2.931.846-5.906.878-8.889-.104-5.256-4.73-9.842-10.316-10.226a.68.68 0 0 0-.583.275.68.68 0 0 0-.076.644c.162.401.306.789.442 1.16"/></g><defs><clipPath id="a"><path fill="#fff" d="M.777 0h149v137h-149z"/></clipPath></defs></svg>