<svg xmlns="http://www.w3.org/2000/svg" width="102" height="167" fill="none" viewBox="0 0 102 167"><g fill="#000" clip-path="url(#a)"><path d="M101.184 92.93c0 15.725.028 31.451-.023 47.177a78 78 0 0 1-.562 9.67 13.1 13.1 0 0 1-1.8 5.434c-2.913 4.415-7.38 7.974-12.732 9.092a74 74 0 0 1-13.098 1.772c-14.872.381-29.753.491-44.632.595-3.005.021-6.018-.409-9.022-.688-8.376-.777-12.748-6.245-15.06-13.552-1.152-3.647-1.37-7.606-1.85-11.444C.72 127.58 1.086 114.11 1.257 100.647q.21-16.64.352-33.28c.094-12.71-.005-25.423.263-38.128A58.7 58.7 0 0 1 3.57 16.492C5.477 8.779 10.85 4.81 18.582 3.253c17.953-3.616 36.03-3.13 54.141-2.18 6.41.336 12.154 2.625 17.497 6.091a18.6 18.6 0 0 1 7.828 10.408 49 49 0 0 1 1.89 10.768 1126 1126 0 0 1 1.286 34.539c.205 10.013.043 20.033.043 30.05zm-88.601 39.108a693 693 0 0 1 79.447-2.444c.077-1.35.183-2.403.19-3.457.164-25.524-.324-51.695-.187-77.222a25.5 25.5 0 0 0-.259-3.855c-.862-5.851-1.061-11.059-2.057-16.887a59 59 0 0 0-1.859-7.47 9.05 9.05 0 0 0-5.296-5.719 29 29 0 0 0-11.557-2.679c-4.204-.077-8.416-.027-12.612-.222-12.664-.59-25.186.536-37.663 2.645-3.972.67-6.142 2.824-6.982 6.553a27 27 0 0 0-.647 4.467c-.154 2.794-.209 5.596-.228 8.394q-.244 35.537-.461 71.077c-.046 6.892-.145 13.783-.162 20.675 0 1.904.201 3.809.333 6.144m79 4.991-78.634.927c.514 4.92.274 9.456 1.671 13.771 1.073 3.314 3.371 5.428 7.117 5.491 1.4.024 2.799.135 4.198.141 4.527.016 9.052.007 13.578 0 12.177-.018 24.356.051 36.53-.119a40 40 0 0 0 9.536-1.36c2.869-.756 5.577-2.566 5.9-5.741.423-4.135.105-8.344.105-13.109z"/><path d="M59.234 146.565c-.01 3.453-3.28 6.455-7.111 6.527a6.2 6.2 0 0 1-6.367-6.303 7.087 7.087 0 0 1 6.813-6.857c3.36-.043 6.672 3.255 6.665 6.633"/></g><defs><clipPath id="a"><path fill="#fff" d="M.777 0h101v167h-101z"/></clipPath></defs></svg>