<svg xmlns="http://www.w3.org/2000/svg" width="157" height="156" fill="none" viewBox="0 0 157 156"><g fill="#000" clip-path="url(#a)"><path d="M52.382 53.28c2.76 2.553 6.137 3.691 10.956 3.691a.4.4 0 0 0 .07 0c.147-.014.33-.027.535-.041a27 27 0 0 0 2.03-.202 15.9 15.9 0 0 0 5.988-2.077 15.9 15.9 0 0 0 4.706-4.26 15.65 15.65 0 0 0 2.513-5.687 15.7 15.7 0 0 0 .102-6.221c-.806-4.707-3.043-7.715-6.638-8.937a18.52 18.52 0 0 0-14.96 1.383 17.5 17.5 0 0 0-5.567 4.804 17.6 17.6 0 0 0-3.12 6.673c-.983 4.227.155 7.888 3.385 10.874m13.297-16.495h.391c2.176 0 3.894.268 4.726 2.457a6.36 6.36 0 0 1-1.764 6.866c-2.357 2.149-7.395 2.722-10.169 1.16-1.776-1-2.317-2.245-1.868-4.294.916-4.185 3.675-6.15 8.684-6.189"/><path d="M33.878 154.127c1.6-.065 3.257-.13 4.866-.13 9.831.049 18.816.147 27.467.3 13.852.244 27.995.544 42.03.891 1.146.062 2.285.222 3.404.477.55.109 1.101.217 1.649.305a1 1 0 0 0 .105.009h6.623a1 1 0 0 0 .097-.008c1.328-.195 2.66-.373 3.992-.549 2.88-.38 5.859-.773 8.754-1.388 13.297-2.821 23.962-16.487 23.774-30.466-.126-9.348-.101-18.856-.077-28.052.017-6.6.033-13.422-.004-20.134-.036-6.136-.253-12.37-.462-18.395l-.134-3.871a699 699 0 0 1-.13-4.355c-.129-4.777-.265-9.716-.734-14.553a87 87 0 0 0-2.654-14.098C148.91 6.98 136.391.81 125.556.525c-3.097-.081-6.232.138-9.265.35-2.282.16-4.64.325-6.951.36-6.289.091-12.687.13-18.87.168-8.14.05-16.557.102-24.835.274l-1.246.027c-11.867.247-24.139.501-36.165 1.438-12.966 1.01-21.562 7.242-25.55 18.525a17.4 17.4 0 0 0-1.16 5.368l-.065 5.432c-.198 15.867-.402 32.275-.354 48.415.02 7.247.264 14.61.5 21.731.129 3.992.268 8.118.363 12.176.105 4.42.142 8.136-.018 11.901-.582 13.661 11.288 26.771 24.9 27.506 2.35.126 4.734.027 7.038-.069M9.508 38.631a34.66 34.66 0 0 1 3.957-16.575c2.444-4.537 6.044-7.366 10.411-8.181 6.912-1.29 13.68-2.464 20.497-2.649 17.322-.47 34.941-.746 51.978-1.013q12.885-.202 25.77-.427c4.596-.086 9.149 1.27 14.352 4.263 5.679 3.264 7.489 9.151 8.511 14.48 2.146 11.19 3.094 20.572 2.985 29.522q-.066 5.294-.097 10.615c-.244-.225-.481-.46-.736-.672-3.36-2.802-6.816-5.6-10.159-8.304-4.029-3.26-8.195-6.63-12.216-10.032-5.247-4.435-8.309-4.322-13.108.487a25285 25285 0 0 1-34.38 34.348L64.51 97.233l-.226-.187c-.417-.344-.755-.622-1.095-.897q-2.676-2.165-5.344-4.34c-4.336-3.532-8.827-7.183-13.306-10.699-3.249-2.55-5.574-2.515-8.576.123a7639 7639 0 0 0-26.336 23.29c-.088-20.354-.153-42.893-.119-65.892m1.008 74.064q2.525-2.13 5.039-4.273c3.168-2.693 6.443-5.478 9.7-8.169 3.487-2.884 7.092-5.78 10.578-8.58q2.154-1.732 4.325-3.482l5.761 4.662c4.973 4.02 9.67 7.816 14.43 11.733 3.771 3.105 6.062 2.99 9.428-.464 1.129-1.159 2.239-2.336 3.348-3.51 1.453-1.542 2.954-3.135 4.472-4.652a24621 24621 0 0 1 34.447-34.34l4.926-4.904c.475-.475.987-.931 1.398-1.3l.039-.034q3.156 2.48 6.267 4.94c6.203 4.898 12.062 9.526 18.14 14.135a18.8 18.8 0 0 0 5.016 2.476c-.038 12.214.006 24.425.051 36.367q.023 5.448.039 10.895c.028 8.8-7.029 18.435-15.412 21.038a57.3 57.3 0 0 1-19.369 2.409c-8.912-.368-17.974-.799-26.734-1.215l-10.942-.52h-.03l-9.85-.004q-7.958-.005-15.913-.005-8.633 0-17.267.013h-.069c-6.53 0-11.427-1.648-15.406-5.181-4.88-4.336-7.172-10.275-7.216-18.692l-.043-8.645c.285-.228.57-.465.847-.698"/></g><defs><clipPath id="a"><path fill="#fff" d="M.777 0h156v156h-156z"/></clipPath></defs></svg>