<svg xmlns="http://www.w3.org/2000/svg" width="105" height="122" fill="none" viewBox="0 0 105 122"><g clip-path="url(#a)"><path fill="#000" d="M100.079 47.789a18 18 0 0 0-1.622-1.294c-1.673-1.187-3.356-2.432-4.984-3.634a137 137 0 0 0-11.409-7.86C65.024 24.892 45.785 15.624 23.246 6.666c-3.471-1.38-6.993-2.7-10.725-4.098A1477 1477 0 0 1 6.907.455a.67.67 0 0 0-.82.297c-.195.347-.43.698-.656 1.039a6.9 6.9 0 0 0-1.247 2.566 83 83 0 0 0-1.293 10.637q-.15 3.604-.305 7.208c-.539 12.674-1.097 25.78-1.3 38.676-.195 12.349-.145 24.903-.098 37.045q.03 7.428.043 14.856v.174c-.038 1.312.04 2.624.234 3.922a5.7 5.7 0 0 0 2.829 4.187c.756.4 1.6.606 2.454.6a6.6 6.6 0 0 0 2.656-.584 15 15 0 0 0 2.444-1.454c.341-.234.683-.467 1.03-.685q3.144-1.974 6.28-3.959c4.586-2.893 9.326-5.884 14.02-8.773q10.006-6.16 20.035-12.285A6785 6785 0 0 0 78.59 78.343c7.915-4.89 15.015-11 21.609-16.837 2.695-2.385 3.954-4.522 3.965-6.727.01-2.25-1.289-4.47-4.085-6.99M11.075 10.495l.166.065c.59.2 1.154.475 1.675.818 6.815 5.042 14.06 9.178 22.84 13.836 12.934 6.864 23.75 12.676 34.5 18.738 3.813 2.15 7.51 4.68 11.087 7.13 1.3.891 2.606 1.783 3.917 2.66a29 29 0 0 1 2.489 1.96c.349.295.721.61 1.129.947a56 56 0 0 1-9.779 8.716c-5.915 4.114-11.721 8.111-17.708 11.762-12.828 7.825-25.944 15.666-38.628 23.25l-9.869 5.905c-.467.25-.962.446-1.474.584l-.065.019c-1.008-10.243-1.23-82.374-.28-96.39"/></g><defs><clipPath id="a"><path fill="#fff" d="M.777 0h104v122h-104z"/></clipPath></defs></svg>