<svg xmlns="http://www.w3.org/2000/svg" width="149" height="160" fill="none" viewBox="0 0 149 160"><g clip-path="url(#a)"><path fill="#000" d="M97.647 131.953c-.3 1.956-.496 3.498-.776 5.024-1.004 5.472-3.519 10.297-6.667 14.774-2.608 3.707-6.44 5.761-10.779 6.76-10.592 2.438-19.996-.254-28.367-6.932a15.74 15.74 0 0 1-5.182-7.637c-1.41-4.446-2.75-8.934-2.759-13.678 0-.424-.092-.849-.186-1.66-1.688 0-3.32-.018-4.95.003-7.458.093-14.881-.205-22.18-1.917a44 44 0 0 1-4.803-1.323c-5.883-2.113-9.563-6.15-9.737-12.56-.175-6.331.028-12.677.23-19.01.137-4.336.584-8.66.843-12.99.746-12.441 1.428-24.885 2.233-37.32a42 42 0 0 1 1.145-6.559c.916-4.032 3.393-6.805 7.388-7.793a58 58 0 0 1 10.785-1.836c5.761-.307 11.549-.096 17.325-.104h2.921c.801-6.02 2.475-11.602 6.72-16.05 3-3.146 6.049-6.245 10.087-8.065A28.5 28.5 0 0 1 72.578.579c7.53-.047 14.606 1.516 20.262 6.948 5.48 5.264 8.127 12.044 9.685 19.403 1.292 0 2.384.011 3.475 0 8.102-.096 16.206-.37 24.305-.254 10.51.151 14.202 6.064 14.722 14.492.225 3.642.13 7.306.189 10.96q.017.494.101.983c.536 3.556.231 3.977-3.376 4.293a18.4 18.4 0 0 0-7.545 2.42c-6.209 3.512-9.049 9.314-10.553 15.886a25 25 0 0 0-.344 7.237c.233 3.272 2.333 5.42 5.095 6.959a18.04 18.04 0 0 0 9.595 2.276c1.444-.052 2.889-.225 4.327-.17 1.103.019 2.197.217 3.238.585 2.278.878 3.181 2.936 2.059 5.1a9.45 9.45 0 0 0-.845 4.474c-.106 5.894-.3 11.786-.533 17.676a19 19 0 0 1-.635 3.606c-.871 3.665-3.141 6.184-6.726 7.159a33.4 33.4 0 0 1-8.173 1.291c-9.886.149-19.776.057-29.665.056zm36.952-80.025c0-3.648.005-6.975-.006-10.303 0-.666-.044-1.335-.108-2-.288-3.005-.697-3.528-3.792-4.032-2.843-.464-5.709-.868-8.58-1.065a151.4 151.4 0 0 0-23.966.05c-2.337.211-2.902-.164-3.593-2.495-.598-2.016-.966-4.097-1.454-6.15-1.134-4.753-3.168-9.012-6.96-12.228-5.626-4.776-12.218-4.673-18.937-3.508-1.533.257-2.997.83-4.3 1.68-5.27 3.577-9.564 7.96-10.95 14.518-.275 1.301-.657 2.585-.99 3.877-.55 2.138-1.746 3.5-4.089 3.739-5.402.55-10.796 1.17-16.192 1.784-3.52.399-7.096.56-10.543 1.306-6.34 1.374-5.583 1.424-6.264 6.864-1.024 8.158-1.577 16.382-2.132 24.59a770 770 0 0 0-1.282 24.998c-.207 5.779-.21 11.571-.108 17.353.075 4.213.961 5.142 5.104 6.113a32.3 32.3 0 0 0 5.564.983c6.314.345 12.637.53 18.954.794a38 38 0 0 1 4.972.342c3.772.665 4.984 2.321 5.032 6.173 0 4.68.818 9.323 2.415 13.72.874 2.336 2.047 4.481 4.07 5.983 6.16 4.564 12.918 6.725 20.635 5.069a10.09 10.09 0 0 0 7.027-5.082c2.364-4.116 3.375-8.575 4.367-13.18 1.662-7.723 3.462-9.541 10.666-9.807.888-.033 1.776-.104 2.661-.102 9.104.019 18.206.06 27.31.069 2.077 0 4.2.331 6.529-.65l1.693-19.906c-.594-.08-1.128-.156-1.663-.224a29.7 29.7 0 0 1-12.182-4.163c-6.232-3.896-9.351-9.707-8.684-16.879 1.189-12.777 6.531-23.016 19.306-27.921q.254-.127.47-.31"/></g><defs><clipPath id="a"><path fill="#fff" d="M.777 0h148v160h-148z"/></clipPath></defs></svg>