<svg xmlns="http://www.w3.org/2000/svg" width="71" height="134" fill="none" viewBox="0 0 71 134"><g fill="#000" clip-path="url(#a)"><path d="M2.516 19.415c2.348 1.443 3.857-.251 4.959-1.49l.104-.119c3.405-3.822 7.946-6.159 14.724-7.58 10.43-2.185 19.245-.474 26.952 5.232 9.65 7.147 14.789 22.151 6.262 33.93a40.3 40.3 0 0 1-8.038 8.092c-3.837 2.97-7.924 5.764-11.876 8.467-1.562 1.069-3.126 2.137-4.678 3.219a30.53 30.53 0 0 0-12.758 18.677c-.751 3.277-1.219 6.583-1.712 10.083-.226 1.597-.454 3.226-.72 4.895a.7.7 0 0 0 0 .195c.083.586.151 1.205.223 1.847a33 33 0 0 0 .82 5.004c.59 2.191 2.43 3.538 4.92 3.601h.17a5.15 5.15 0 0 0 4.96-3.269 19 19 0 0 0 1.226-4.983c.23-1.821.406-3.668.578-5.458.235-2.453.478-4.989.857-7.452a19.8 19.8 0 0 1 2.689-7.562 19.7 19.7 0 0 1 5.465-5.863c1.27-.924 2.558-1.826 3.846-2.728 2.406-1.684 4.895-3.425 7.228-5.3l.556-.447c4.097-3.29 8.332-6.693 12.014-10.538A31 31 0 0 0 70.03 40.35c.96-14.061-4.48-25.194-16.169-33.09-13.057-8.819-27.33-9.343-43.627-1.595a19.4 19.4 0 0 0-8.214 7.681c-1.454 2.395-1.242 4.997.497 6.07m21.306 99.301c-2.265-.009-4.083.61-5.332 1.857-1.262 1.257-1.903 3.077-1.906 5.411a8.46 8.46 0 0 0 2.44 6.041 6.67 6.67 0 0 0 4.674 1.96h.174c3.717-.1 7.203-3.807 7.314-7.777a7.18 7.18 0 0 0-2.024-5.215 7.4 7.4 0 0 0-2.44-1.685 7.4 7.4 0 0 0-2.9-.592"/></g><defs><clipPath id="a"><path fill="#fff" d="M.777 0h70v134h-70z"/></clipPath></defs></svg>