<svg xmlns="http://www.w3.org/2000/svg" width="86" height="124" fill="none" viewBox="0 0 86 124"><g fill="#000" clip-path="url(#a)"><path d="M66.941 6.8A49.23 49.23 0 0 0 41.411.546a57.3 57.3 0 0 0-22.693 3.935c-6.697 2.686-11.6 6.322-14.986 11.114a15.1 15.1 0 0 0-2.31 5.68c-.45 2.287.37 3.955 2.254 4.577 2.182.72 3.562-.694 4.73-2.33l.416-.583c1.296-1.831 2.636-3.724 4.327-4.985a36.6 36.6 0 0 1 8.47-4.674c6.457-2.516 13.598-3.324 22.474-2.538 6.147.544 11.338 1.971 15.87 4.364 6.477 3.418 10.606 7.757 12.622 13.262 2.854 7.8 1.28 14.059-4.68 18.602a97 97 0 0 1-10.646 6.722l-.172.098c-1.783 1.021-3.678 1.933-5.512 2.815-1.288.62-2.62 1.263-3.912 1.94-8.87 4.651-14.969 10.794-18.644 18.778a23.6 23.6 0 0 0-1.977 6.142 12.1 12.1 0 0 0 .205 4.893 12 12 0 0 0 2.132 4.401c.998 1.333 2.027 1.619 2.714 1.623h.02a3.1 3.1 0 0 0 2.436-1.359q.797-1.025 1.61-2.041c1.425-1.797 2.898-3.655 4.193-5.603 4.046-6.095 9.55-11.071 17.318-15.662a162 162 0 0 0 13.962-8.98 44 44 0 0 0 8.43-8.14c5.111-6.535 6.802-13.996 5.024-22.176-2.203-10.115-8.307-18.06-18.145-23.62M30.033 123.356q.827.124 1.663.123a12.7 12.7 0 0 0 7.476-2.548 12.88 12.88 0 0 0 4.566-6.489c.486-1.97.516-4.026.087-6.01a13.3 13.3 0 0 0-2.557-5.429 9.9 9.9 0 0 0-3.655-3.07 9.85 9.85 0 0 0-4.652-1.002c-2.137.007-2.487.156-6.002 2.228a12.4 12.4 0 0 0-5.412 6.138 12.5 12.5 0 0 0-.429 8.202c1.31 4.523 4.311 7.166 8.915 7.857m1.46-17.27c.193.26.386.504.573.745a8.2 8.2 0 0 1 1.37 2.137 6.25 6.25 0 0 1 .24 3.409 2.33 2.33 0 0 1-1.146 1.271 3.5 3.5 0 0 1-2.37.534c-.426-.115-1.72-.467-1.632-3.025.094-2.735.962-4.24 2.966-5.075z"/></g><defs><clipPath id="a"><path fill="#fff" d="M.777 0h85v124h-85z"/></clipPath></defs></svg>