<svg xmlns="http://www.w3.org/2000/svg" width="112" height="121" fill="none" viewBox="0 0 112 121"><g fill="#000" clip-path="url(#a)"><path d="M109.081 56.395c.412 14.461.812 30.37 1.356 46.276.131 3.768.805 7.515 1.085 11.283a9.7 9.7 0 0 1-.441 3.9c-1.102 3.064-4.327 3.499-6.194.792a11.1 11.1 0 0 1-1.869-4.565c-.784-5.61-1.74-11.246-1.862-16.89-.457-21.25-.789-42.51-.795-63.766 0-9.107.894-18.215 1.425-27.322.068-1.223.28-2.434.63-3.608a2.7 2.7 0 0 1 1.04-1.488 2.7 2.7 0 0 1 1.751-.496c1.401 0 2.385.67 2.62 2.082a27.5 27.5 0 0 1 .442 4.294c.065 9.682.011 19.366.138 29.048.083 6.335.408 12.674.674 20.46m-63.157 44.629c-12.722-.465-25.444-.911-38.164-1.42a14 14 0 0 1-3.912-.73 3.9 3.9 0 0 1-1.99-1.477 3.88 3.88 0 0 1-.694-2.373 3.73 3.73 0 0 1 .782-2.343 3.75 3.75 0 0 1 2.078-1.346 12.9 12.9 0 0 1 3.946-.42q9.711.303 19.416.751 24.765 1.119 49.528 2.273c2.9.13 5.81.078 8.707.224a9.5 9.5 0 0 1 3.216.704 3.21 3.21 0 0 1 1.924 3.253 3.37 3.37 0 0 1-.633 2.056 3.4 3.4 0 0 1-1.747 1.262 14.4 14.4 0 0 1-4.288.585c-8.705-.179-17.41-.429-26.114-.703-4.017-.13-8.03-.362-12.045-.548zm19.519-44.207c5.469.202 10.939.362 16.404.637a10.2 10.2 0 0 1 3.536.846 3.255 3.255 0 0 1 2.027 3.513 3.3 3.3 0 0 1-.835 1.977c-.49.548-1.15.92-1.874 1.057a20 20 0 0 1-3.31.436c-2.454.102-4.913.092-7.369.164-8.145.239-16.29.54-24.437.7a11.1 11.1 0 0 1-4.51-.81 4.2 4.2 0 0 1-1.901-1.695 4.175 4.175 0 0 1 .408-4.827 4.2 4.2 0 0 1 2.16-1.353c1.067-.31 2.17-.48 3.28-.504 5.472-.05 10.945-.023 16.418-.023z"/></g><defs><clipPath id="a"><path fill="#fff" d="M.777 0h111v121h-111z"/></clipPath></defs></svg>