<svg xmlns="http://www.w3.org/2000/svg" width="91" height="74" fill="none" viewBox="0 0 91 74"><g fill="#000" clip-path="url(#a)"><path d="M44.759 65.583c9.944.15 19.176.262 28.408.44q5.436.105 10.87.468c1.422.076 2.826.36 4.167.844a3.577 3.577 0 0 1 2.186 4.556c-.593 1.887-1.607 2.212-4.151 2.011-3.83-.3-7.678-.455-11.52-.481-18.247-.125-36.495-.15-54.742-.295-4.17-.033-8.344-.335-12.504-.658a14.1 14.1 0 0 1-4.115-1.048 3.31 3.31 0 0 1-2.304-3.595 3.56 3.56 0 0 1 2.918-3.16 16.5 16.5 0 0 1 3.93-.333c12.522.401 25.044.844 36.857 1.251M36.456 19.93c14.836.853 29.691.975 44.457 2.779 1.197.146 2.435.02 3.617.23 1.171.208 2.53.402 3.372 1.115a4.5 4.5 0 0 1 1.385 3.06 2.444 2.444 0 0 1-2.264 2.46c-1.743.21-3.498.294-5.253.254-5.383-.232-10.758-.733-16.142-.847-17.376-.37-34.755-.604-52.135-.92a41 41 0 0 1-4.92-.43 8.6 8.6 0 0 1-2.491-.797 3.12 3.12 0 0 1-1.854-3.217c.077-1.357.765-2.455 2-2.754a28 28 0 0 1 6.136-.894c8.033-.097 16.063-.038 24.092-.038M68.847 50.94c-4.95 0-9.896.071-14.841-.043a15.8 15.8 0 0 1-4.793-.912 3.47 3.47 0 0 1-2.433-3.399 3.48 3.48 0 0 1 2.594-3.279 13 13 0 0 1 3.85-.649q15.337.262 30.67.697a9 9 0 0 1 3.18.708 3.156 3.156 0 0 1 1.962 3.754c-.286 1.597-.99 2.266-3.047 2.365-5.71.275-11.426.45-17.139.662zm3.357-42.837c-5.48-.31-10.963-.584-16.44-.955a11.6 11.6 0 0 1-3.483-.814 2.433 2.433 0 0 1-1.635-2.905A4.28 4.28 0 0 1 52.493.984a7.25 7.25 0 0 1 3.5-.579c3.73.138 7.458.386 11.175.67q8.043.62 16.076 1.372c1.092.1 2.166.343 3.195.72a2.65 2.65 0 0 1 1.73 2.713 2.65 2.65 0 0 1-2.16 2.383c-.965.183-1.951.237-2.933.16-3.621-.147-7.24-.348-10.86-.528z"/></g><defs><clipPath id="a"><path fill="#fff" d="M.777 0h90v74h-90z"/></clipPath></defs></svg>