<svg xmlns="http://www.w3.org/2000/svg" width="118" height="110" fill="none" viewBox="0 0 118 110"><g fill="#000" clip-path="url(#a)"><path d="M106.698 94.572c.512-18.506-3.714-35.976-12.126-52.425a99.2 99.2 0 0 0-21.754-28.739c-3.02-2.73-6.53-4.925-9.823-7.353-.625-.46-1.514-.725-1.885-1.324-.541-.865-1.179-2.094-.927-2.906A3.09 3.09 0 0 1 62.6.133c1.832.076 3.925.275 5.404 1.215 4.38 2.787 8.855 5.585 12.688 9.041 16.533 14.91 26.878 33.595 32.663 54.867a115.9 115.9 0 0 1 3.916 35.82 19.7 19.7 0 0 1-.88 5.199 4.93 4.93 0 0 1-1.916 2.651 4.97 4.97 0 0 1-3.16.879c-2.191-.195-3.957-1.831-4.48-4.296a13.2 13.2 0 0 1-.13-2.638c-.016-2.766-.007-5.533-.007-8.299m-15.235 5.619a33 33 0 0 1-.034 4.295 5.2 5.2 0 0 1-1.492 3.091 5.24 5.24 0 0 1-3.1 1.494c-2.106.194-4.198-1.198-5.005-3.593a15 15 0 0 1-.642-3.889c-.65-11.429-2.546-22.579-6.72-33.327-6.776-17.445-18.925-30.199-34.593-39.982-.937-.583-2.042-1.085-2.675-1.92-.597-.787-1.15-2.145-.855-2.924a3.88 3.88 0 0 1 2.525-2.153 7.5 7.5 0 0 1 4.14.677 58 58 0 0 1 6.93 3.933c7.378 4.788 14.403 10.04 20.034 16.865A90.26 90.26 0 0 1 89.31 84.413c.965 5.212 1.56 10.491 2.325 15.739zm-73.12 6.55a17.7 17.7 0 0 1-10.282-2.969c-5.77-3.746-8.033-9.955-5.98-16.477a21.7 21.7 0 0 1 7.257-10.53 12.8 12.8 0 0 1 11.265-2.662c2.164.472 4.378.73 6.534 1.237 6.078 1.43 8.943 4.48 9.806 10.642a19.9 19.9 0 0 1-2.49 13.129c-3.1 5.275-8.101 7.653-16.11 7.63m11.025-17.3c-.045-4.323-1.223-5.91-5.42-7.187-1.697-.518-3.434-.906-5.134-1.42-4.427-1.338-5.105-1.15-7.681 2.691a19.6 19.6 0 0 0-1.993 3.806c-2.226 5.748.217 10.358 6.264 11.777a16.2 16.2 0 0 0 4.615.465c6.266-.392 9.412-3.873 9.349-10.132m23.864 7.224a37.8 37.8 0 0 0-7.481-23.223c-5.042-6.87-10.92-12.811-18.55-16.827-1.755-.924-3.644-1.603-5.481-2.37-2.188-.915-3.049-2.224-2.582-3.99.426-1.611 1.726-2.548 3.922-2.246 2.094.23 4.14.776 6.07 1.618 18.698 8.87 30.601 22.966 33.579 43.797.3 1.966.477 3.948.53 5.935a10.3 10.3 0 0 1-.609 3.547 4.37 4.37 0 0 1-1.639 2.243 4.4 4.4 0 0 1-2.665.811 4.3 4.3 0 0 1-2.668-.822 4.26 4.26 0 0 1-1.592-2.285c-.522-2.003-.578-4.122-.834-6.188"/></g><defs><clipPath id="a"><path fill="#fff" d="M.777 0h117v110h-117z"/></clipPath></defs></svg>