<svg xmlns="http://www.w3.org/2000/svg" width="158" height="156" fill="none" viewBox="0 0 158 156"><g fill="#000" clip-path="url(#a)"><path d="M106.71 153.225c2.097.415 4.222.677 6.358.782q1.782.09 3.564.189c5.377.289 10.936.587 16.414.618h.856c5.096 0 10.402-.254 15.783-.758 5.021-.47 6.365-1.888 6.537-6.894.366-10.68.633-21.542.892-32.045l.142-5.786a13 13 0 0 0-.332-3.12c-.554-2.467-2.191-4.013-4.379-4.129a4.75 4.75 0 0 0-3.09.934 4.74 4.74 0 0 0-1.776 2.69 21.4 21.4 0 0 0-.749 5.397c-.065 5.281-.062 10.648-.06 15.839v16.747l-.324.08a4 4 0 0 1-.784.156q-2.048.091-4.095.194c-3.661.177-7.447.362-11.166.418-4.087.064-8.244.043-12.266.024a952 952 0 0 0-7.364-.017 20.3 20.3 0 0 0-4.107.295c-2.347.492-3.847 2.1-3.914 4.194-.034 1.271.413 3.495 3.86 4.192m-63.428-8.596c-7.007-.103-14.13-.13-21.02-.156q-3.31-.012-6.617-.027c-1.116-.004-2.23-.004-3.432 0h-1.175l-.065-.62c-.065-.622-.118-1.113-.134-1.585q-.24-6.88-.472-13.759-.317-9.376-.644-18.756a30 30 0 0 0-.373-4.384 3.3 3.3 0 0 0-1.028-1.986 3.3 3.3 0 0 0-2.062-.875c-1.73-.137-3.049.764-3.698 2.537a8.2 8.2 0 0 0-.43 2.108l-.08.889c-.15 1.67-.305 3.399-.351 5.113a7694 7694 0 0 0-.887 35.52c-.084 3.729 2.122 6.118 6.052 6.554a35 35 0 0 0 3.853.145q.601-.001 1.202.005l5.77.07c8.689.105 17.673.214 26.512.259h.041a10.9 10.9 0 0 0 4.061-.899 4.84 4.84 0 0 0 3.27-4.548 4.83 4.83 0 0 0-.882-2.803 4.85 4.85 0 0 0-2.346-1.776 14.8 14.8 0 0 0-5.065-1.026M5.464 55.912h.105c2.18 0 3.917-1.645 4.546-4.316.149-.696.224-1.406.227-2.117q.017-.875.04-1.748c.046-1.831.093-3.724.024-5.593q-.294-7.884-.644-15.767-.242-5.727-.477-11.457c-.046-1.17-.034-2.352-.02-3.604l.01-1.222q.829-.006 1.615-.018c1.492-.022 2.907-.041 4.292.036 9.786.55 18.018.713 26.39-.299a11.8 11.8 0 0 0 4.32-1.332 3.62 3.62 0 0 0 1.885-3.107 3.68 3.68 0 0 0-1.856-3.216 9.1 9.1 0 0 0-3.727-1.104A36 36 0 0 0 38.042.99c-.416.01-.83.022-1.245.028q-8.865.13-17.73.263l-13.559.203c-2.222.033-3.503 1.069-3.914 3.171-.322 1.56-.5 3.147-.529 4.74a7580 7580 0 0 0-.26 36.876c-.04 1.696.05 3.392.27 5.074.426 2.803 2.065 4.51 4.39 4.567m140.919-38.927c-.177 2.158-.36 4.39-.49 6.591l-.177 2.92c-.301 4.911-.612 9.99-.679 14.996.006 2.197.535 4.36 1.542 6.313a3.99 3.99 0 0 0 3.417 2.337h.054a4.1 4.1 0 0 0 3.503-2.29 15.7 15.7 0 0 0 1.86-6.196c.954-11.518.352-23.203-.23-34.501l-.071-1.376c-.13-2.48-1.441-4.078-3.8-4.625a20.8 20.8 0 0 0-5.42-.654c-9.311.299-19.133.686-30.912 1.218a13.8 13.8 0 0 0-4.062.91 3.304 3.304 0 0 0-2.175 3.585 2.98 2.98 0 0 0 2.908 2.978q.594.065 1.185.139c1.032.124 2.098.253 3.165.284 2.444.071 4.926.11 7.331.147 1.66.026 3.319.052 4.98.089 4.321.094 8.642.2 13.124.31l5.299.13q.001.314.009.594c.01.692.018 1.238-.02 1.772-.106 1.44-.224 2.885-.341 4.33m-35.347 61.921a11.1 11.1 0 0 0 3.455-.647c2.967-1.032 3.406-3.108 3.252-4.666-.208-2.103-1.833-3.663-4.139-3.973a26 26 0 0 0-4.433-.108q-14.085.476-28.167.983l-8.45.3a.66.66 0 0 0-.435.181l-6.748.105-32.427.507c-.164.007-.336-.008-.51-.016a3 3 0 0 0-1.8.28c-.996.642-2.064 1.44-2.436 2.505-.536 1.532.312 3 2.112 3.652a10 10 0 0 0 2.44.517c1.033.096 2.067.21 3.102.324 2.577.332 5.17.522 7.768.57h.136c21.659-.084 43.68-.29 64.975-.49z"/></g><defs><clipPath id="a"><path fill="#fff" d="M.777 0h157v156h-157z"/></clipPath></defs></svg>