<svg xmlns="http://www.w3.org/2000/svg" width="160" height="154" fill="none" viewBox="0 0 160 154"><g clip-path="url(#a)"><path fill="#000" d="M36.73 101.022c10.874 1.881 21.718 1.033 33.156-2.593a77 77 0 0 0 18.91-8.81 985 985 0 0 1 3.285 3.688c2.66 2.997 5.18 5.828 7.813 8.669 12.87 13.885 26.833 27.088 40.337 39.856q3.681 3.483 7.359 6.969a35 35 0 0 0 6.295 4.598 3.6 3.6 0 0 0 1.817.428 4.4 4.4 0 0 0 1.919-.405 2.75 2.75 0 0 0 1.376-1.626 3.35 3.35 0 0 0-.228-2.533 34.8 34.8 0 0 0-3.894-6.338 105 105 0 0 0-7.807-8.344c-6.408-6.234-12.949-12.542-19.275-18.644q-6.58-6.344-13.15-12.699c-4.522-4.378-8.925-8.68-13.586-13.24l-5.73-5.598.249-.275c.362-.398.643-.707.942-.999 7.285-7.093 11.28-15.967 11.872-26.373 1.03-18.07-5.029-33.41-18.004-45.599A38.4 38.4 0 0 0 67.018.554a60.9 60.9 0 0 0-25.25 2.884c-12.454 4.259-23.026 12.428-31.42 24.283C3.115 37.935.216 49.268 1.73 61.405c.989 7.92 4.176 15.424 10.335 24.335 5.82 8.418 13.886 13.416 24.664 15.282m12.879-88.264c2.897-.247 5.893-.502 8.834-.6q.749-.024 1.482-.024c13.409 0 23.713 6.116 30.642 18.195 6.201 10.809 7.956 21.167 5.364 31.667a26.5 26.5 0 0 1-5.185 10.757 40.2 40.2 0 0 1-11.227 9.485 68.1 68.1 0 0 1-32.073 8.946c-1.08-.12-2.163-.227-3.245-.333-2.386-.234-4.853-.476-7.243-.868a24.27 24.27 0 0 1-15.154-8.652 47.5 47.5 0 0 1-9.814-18.84 36.23 36.23 0 0 1 2.142-24.13c3.864-8.629 8.996-14.995 15.69-19.462 5.357-3.574 10.24-5.412 15.367-5.783 1.474-.106 2.946-.232 4.417-.358z"/></g><defs><clipPath id="a"><path fill="#fff" d="M.777 0h159v154h-159z"/></clipPath></defs></svg>