<svg xmlns="http://www.w3.org/2000/svg" width="142" height="164" fill="none" viewBox="0 0 142 164"><path fill="#000" d="m141.712 143.936-.358-.039.358-.019a50 50 0 0 1-.053-1.161q-.154-5.67-.317-11.339c-.275-9.686-.558-19.7-.774-29.617-.093-4.235-.072-8.547-.045-12.716.011-1.933.022-3.865.022-5.797v-1.31l-.28-.004.225-8.615q.318-12.252.629-24.503l.091-3.624c.143-5.637.294-11.466.358-17.205.019-1.725-.059-3.46-.137-5.182-.067-1.501-.135-3.053-.132-4.563.009-4.443-2.842-6.63-4.988-7.889a44.9 44.9 0 0 0-12.876-4.85C108.191 1.969 92.591.888 79.34.297a221 221 0 0 0-28.666.376 160.5 160.5 0 0 0-29.238 5.04c-6.11 1.677-11.049 4.073-15.093 7.322-3.246 2.608-4.703 5.63-4.455 9.24.045.993.026 1.99-.056 2.98-.029.479-.057.956-.072 1.432-.106 3.052-.238 6.105-.37 9.174-.287 6.681-.588 13.59-.608 20.428-.039 13.829.157 27.871.346 41.452l.11 7.992c.17 12.833.4 24.43.703 35.453a37 37 0 0 0 .581 4.958c.17 1.042.346 2.12.453 3.174.085.828.405 1.615.924 2.269a4.4 4.4 0 0 0 2.007 1.422c6.501 2.87 13.533 5.739 20.901 7.294a181.2 181.2 0 0 0 37.79 3.692c4.122 0 8.426-.114 12.789-.339a261 261 0 0 0 35.913-4.635c7.553-1.452 16.422-3.523 24.935-7.867 2.415-1.232 3.541-2.971 3.543-5.475-.005-.59-.036-1.175-.065-1.743m-17.24-118.18c-6.777 3.236-14.352 5.253-23.155 6.17-8.078.842-17.594 1.655-26.958 1.31l-2.42-.088c-13.423-.482-27.303-.98-40.556-4.269-5.015-1.244-10.034-2.937-14.886-4.575l-.175-.059a642 642 0 0 0-5.075-1.691l-.197-.064c-1.687-.546-2.404-.9-2.477-1.68-.066-.702.51-1.169 1.808-2.033q.29-.192.56-.38c4.977-3.535 10.763-5.223 15.766-6.409A170.6 170.6 0 0 1 66.55 7.493c2.502 0 5.061.048 7.603.142 17.031.623 30.017 1.976 42.106 4.385a92 92 0 0 1 11.776 3.307 22.6 22.6 0 0 1 3.956 1.994l.118.07q.43.254.881.511c-1.797 3.476-4.438 5.907-8.517 7.854M7.637 34.965h.358l-.011-6.582.936.383c1.914.785 3.744 1.534 5.582 2.258 9.428 3.714 19.927 6.17 33.042 7.729 14.577 1.733 29.131 1.69 41.445 1.42 10.672-.235 23.19-1.146 35.134-6.126 2.709-1.13 5.252-2.418 7.942-3.783l.378-.19q.673-.342 1.354-.684c.005.694 0 1.382-.022 2.075-.094 2.754-.197 5.511-.301 8.305-.2 5.378-.407 10.94-.545 16.415-.05 2.042-.527 3.007-1.821 3.684-.815.426-1.59.914-2.353 1.394a17.3 17.3 0 0 1-3.713 1.945c-14.63 4.732-28.13 7.542-41.271 8.59-18.738 1.496-38.393-.687-60.088-6.683-3.258-.9-6.534-1.948-9.7-2.96l-.13-.042q-1.458-.465-2.919-.928c-2.186-.69-3.026-1.89-2.997-4.285.088-7.27.071-14.38.058-21.905l-.358-.032zm124.49 49.293-.008 1.12q-.058 7.886-.108 15.776v.24c-.009 1.651-.015 2.844-.312 3.228-.343.443-1.891.833-3.255 1.178-7.518 1.9-16.038 4.052-24.469 5.643a176 176 0 0 1-41.435 2.641c-10.838-.516-25.078-1.486-39.113-4.432a111 111 0 0 1-10.715-3.018 300 300 0 0 0-4.19-1.308l-.613-37.593c43.816 16.256 84.488 17.054 124.294 2.444q.02.377.019.738-.042 6.672-.094 13.343zm-96.811 35.749a288 288 0 0 0 40.357 2.849 189.5 189.5 0 0 0 41.516-5.014c3.665-.852 7.264-1.741 11.129-2.691l3.749-.923.832 29.549a49.6 49.6 0 0 1-13.192 4.835c-11.349 2.232-20.075 3.788-28.294 5.045a178.5 178.5 0 0 1-32.748 1.916c-13.452-.437-29.205-1.585-44.068-6.775a30 30 0 0 1-3.175-1.271 20 20 0 0 1-1.833-1.065q-.181-.116-.368-.232l-.598-33.185c7.45 3.341 15.695 5.49 26.694 6.962z"/></svg>