<svg xmlns="http://www.w3.org/2000/svg" width="146" height="155" fill="none" viewBox="0 0 146 155"><g fill="#000" clip-path="url(#a)"><path d="M145.091 50.111c.288 18.63-4.3 36.107-12.99 52.531-5.71 10.791-12.549 20.784-21.369 29.284a133.8 133.8 0 0 1-26.806 20.302 38 38 0 0 1-5.15 2.328 5.01 5.01 0 0 1-5.547-1.036 7 7 0 0 0-2.867-1.506c-17.992-4.619-32.077-14.951-43.061-29.694C15.77 106.844 8.242 89.475 4.05 70.705 2.14 62.137.65 53.435.909 44.572a64.5 64.5 0 0 1 2.623-17.114 12.4 12.4 0 0 1 1.535-3.296c.732-1.08 1.926-1.663 3.215-1.05 5.178 2.467 10.785 2.559 16.301 2.815 11.471.533 22.316-2.207 32.494-7.375 6.564-3.333 12.009-8.033 15.28-14.866q.338-.766.78-1.475c1.59-2.37 4.628-2.57 6.09-.181 5.447 8.908 13.729 14.295 22.757 18.843 8.843 4.455 18.202 5.504 27.911 4.513q3.316-.34 6.645-.521c3.062-.168 4.315.614 5.63 3.609a35.5 35.5 0 0 1 2.892 12.621c.15 2.998.03 6.01.03 9.016m-67.69-38.353c-.478.502-.885.865-1.216 1.288a40.5 40.5 0 0 1-12.673 10.701c-16.107 8.733-33.17 10.885-51.025 6.852-.818-.185-1.647-.318-2.65-.51a60.2 60.2 0 0 0-.58 18.52 151 151 0 0 0 3.432 19.026 133.65 133.65 0 0 0 22.766 48.936c10.195 13.651 23.358 22.986 40.067 27.008 1.115.269 2.06.456 3.156-.226 9.472-5.904 18.453-12.444 26.18-20.553 10.815-11.351 18.661-24.613 24.261-39.187 5.759-14.984 7.596-30.596 6.639-46.57a31 31 0 0 0-.701-3.734c-11.06 2.8-21.533 1.472-31.595-2.715-10.063-4.188-19.079-10.03-26.06-18.836"/><path d="M68.92 99.318c1.87-2.176 3.382-3.948 4.908-5.712a284 284 0 0 1 26.482-26.873 16.5 16.5 0 0 1 3.239-2.326 4.57 4.57 0 0 1 5.483.934c1.19 1.36 1.347 3.404.223 5.296a15 15 0 0 1-2.259 2.874c-3.757 3.803-7.658 7.467-11.335 11.345-6.282 6.624-12.457 13.35-18.634 20.072-4.95 5.388-7.067 5.75-13.122 1.65a450 450 0 0 1-14.986-10.599 69 69 0 0 1-5.716-5.115 7 7 0 0 1-1.25-1.555c-.972-1.648-.872-3.428.236-4.652a3.59 3.59 0 0 1 4.284-.9c1.388.691 2.7 1.523 3.919 2.483 6.091 4.286 12.168 8.588 18.529 13.078"/></g><defs><clipPath id="a"><path fill="#fff" d="M.777 0h145v155h-145z"/></clipPath></defs></svg>