<svg xmlns="http://www.w3.org/2000/svg" width="162" height="125" fill="none" viewBox="0 0 162 125"><g fill="#000" clip-path="url(#a)"><path d="M143.636 3.217a8.6 8.6 0 0 0-2.503-2.06 14 14 0 0 1-.93-.613.68.68 0 0 0-.541-.118c-1.725.37-2.935 1.12-3.598 2.226a4.63 4.63 0 0 0-.303 3.736 48.8 48.8 0 0 0 3.722 9.327c7.312 13.718 9.768 29.429 7.511 48.03a86.6 86.6 0 0 1-11.865 34.66c-1.214 2.008-2.304 4.122-3.357 6.167a160 160 0 0 1-2.001 3.804c-1.298 2.371-2.646 4.745-4.071 7.257-.656 1.158-1.333 2.353-2.037 3.603a.662.662 0 0 0 .381.961l.352.11c1.8.563 2.764.864 3.549.864a4.3 4.3 0 0 0 2.249-.814c5.829-3.412 9.961-6.792 13.005-10.636 9.652-12.189 15.108-23.36 17.171-35.158a88.3 88.3 0 0 0 1.133-15.36c-.013-6.572-.026-13.368-1.015-19.936-2.171-14.41-9.737-26.31-16.852-36.05M38.214 121.214a11.3 11.3 0 0 0-1.895-2.092c-4.333-3.379-7.828-7.906-10.687-13.84a518 518 0 0 1-4.22-9.01c-4.98-10.875-6.98-22.635-6.11-35.951 1.158-17.742 4.453-33.337 10.073-47.675a18.3 18.3 0 0 0 1.265-4.618 3.94 3.94 0 0 0-1.802-3.787 3.88 3.88 0 0 0-4.168.016 11.4 11.4 0 0 0-3.915 3.915 120 120 0 0 0-6.661 13.06c-3.792 9.156-6.315 19.308-8.18 32.922-2.257 16.468.832 32.54 9.446 49.133 3.78 7.282 8.818 13.026 14.973 17.074a53.3 53.3 0 0 0 9.023 4.428c.165.067.342.102.52.101a4.6 4.6 0 0 0 1.865-.655c.412-.208.839-.422 1.298-.6a.67.67 0 0 0 .41-.77.7.7 0 0 0-.14-.28 39 39 0 0 1-1.095-1.371m37.691-35.86a1 1 0 0 0 .103.007c10.693-.025 18.338-3.432 24.06-10.723 4.313-5.495 5.594-11.58 3.807-18.088-2.421-8.813-12.729-17.127-22.058-17.791C65.674 37.615 55.86 49.431 54.497 61.7c-1.209 10.881 4.917 19.795 15.606 22.708 1.6.403 3.23.68 4.873.832.385.043.703.08.93.114m13.01-17.95c-4.444 4.875-10.097 6.648-16.809 5.27-4.262-.874-6.561-3.57-7.029-8.24a16.07 16.07 0 0 1 3.105-11.346 16.14 16.14 0 0 1 10.01-6.213c.987-.153 1.986-.22 2.985-.2.373-.004.73-.006 1.065-.02 5.488 2.36 7.474 6.366 8.801 10.346 1.308 3.92.592 7.42-2.127 10.403"/><path d="M114.645 80.06c-.804 3.327-1.636 6.767-2.406 10.163a5.06 5.06 0 0 0 .237 2.345c.109.433.222.88.31 1.39a.67.67 0 0 0 .863.52c4.835-1.572 7.232-4.538 9.101-7.51 7.752-12.324 10.147-25.278 7.116-38.502a57.3 57.3 0 0 0-7.672-17.774 22.4 22.4 0 0 0-3.469-4.17c-1.179-1.132-3.116-1.62-4.545-.363a6.83 6.83 0 0 0-2.035 3.631c-.081 1.05.123 2.1.591 3.044q.096.241.18.476a118 118 0 0 0 1.521 3.867c.311.766.622 1.532.924 2.3 3.536 9.021 4.365 18.082 2.462 26.933-.978 4.566-2.095 9.184-3.178 13.65M49.467 39.225a30.4 30.4 0 0 0 2.145-3.757 2.81 2.81 0 0 0-.393-2.79 3.02 3.02 0 0 0-2.648-1.338c-1.213.111-2.574.323-3.5 1.089-1.892 1.56-3.849 3.173-5.228 5.199-8.09 11.892-11.244 24.945-9.376 38.795.766 5.675 3.61 10.77 8.456 15.143 1.671 1.508 3.872 3.038 6.962 3.038a11.7 11.7 0 0 0 4.264-.873.68.68 0 0 0 .382-.387.66.66 0 0 0-.033-.541c-.576-1.101-1.094-2.15-1.587-3.144a59 59 0 0 0-3.08-5.693c-3.16-4.922-4.688-10.57-4.669-17.271a49.86 49.86 0 0 1 7.761-26.61q.274-.43.544-.86"/></g><defs><clipPath id="a"><path fill="#fff" d="M.777 0h161v125h-161z"/></clipPath></defs></svg>