<svg xmlns="http://www.w3.org/2000/svg" width="144" height="175" fill="none" viewBox="0 0 144 175"><g fill="#000" clip-path="url(#a)"><path d="M2.716 83.556a.67.67 0 0 0-.4.597q-.146 6.123-.278 12.25c-.21 9.43-.426 19.181-.719 28.768a86.8 86.8 0 0 0 3.262 26.547c3.095 11.002 10.082 17.371 21.358 19.469 4.948.829 9.937 1.394 14.945 1.691 1.774.137 3.548.273 5.321.434 10.647.965 21.125 1.263 31.98 1.263 6.527 0 13.19-.108 20.102-.241a111 111 0 0 0 16.031-1.249c12.052-2.005 20.053-8.848 23.78-20.33 2.627-8.096 3.38-16.313 4.039-25.445.34-4.749.715-10.268.824-15.685l.078-3.725c.195-9.058.394-18.425.236-27.638-.163-9.498-.614-19.149-1.049-28.48q-.161-3.431-.318-6.863c-.052-1.171-.092-2.35-.13-3.528a92 92 0 0 0-.996-12.5C138.105 13.394 125.861 1.806 111.007.71l-.249-.018c-1.995-.147-4.058-.299-6.1-.299h-.026Q87.485.402 70.338.432q-17.385.025-34.77.04C28.31.475 21.35 2.404 14.288 6.368a16.7 16.7 0 0 0-4.816 3.916c-4.346 5.46-6.74 12.25-7.12 20.184-.175 3.678-.017 7.416.135 11.034.097 2.29.195 4.658.21 6.98.05 8.408.039 16.96.029 25.23q-.007 4.922-.01 9.844m9.742-13.68c-.089-2.918-.18-5.936-.166-8.897.011-2.227.232-4.506.446-6.71.114-1.175.228-2.35.313-3.524.061-.856.1-1.712.137-2.57.054-1.226.11-2.494.24-3.724.163-1.525.301-3.057.44-4.59.29-4.088.815-8.157 1.572-12.185 1.593-7.632 9.073-13.904 17.03-14.28 9.127-.428 18.19-.698 26.953-.958 3.568-.106 7.06-.21 10.446-.322h37.314a24.3 24.3 0 0 1 11.55 2.76c6.776 3.545 10.855 9.128 12.123 16.595a94 94 0 0 1 1.105 12.853l.224 7.564c.438 14.676.891 29.85 1 44.774.047 6.534-.363 13.192-.759 19.632-.156 2.55-.314 5.101-.444 7.651-.329 6.424-.701 13.33-1.196 20.305-.352 4.973-1.441 11.28-6.776 15.932a17.2 17.2 0 0 1-8.662 3.908 85 85 0 0 1-12.805 1.432l-1.988.033c-10.941.196-22.255.391-33.35-.023-12.409-.465-25.617-1.138-38.679-3.766a30 30 0 0 1-3.155-.796c-4.834-1.547-7.872-4.571-9.287-9.245-2.916-9.634-4.23-18.582-4.017-27.354.374-15.378.468-30.633.56-45.387.015-3.039-.078-6.123-.169-9.107"/><path d="M49.157 147.302c7.948 3.578 15.41 5.371 22.812 5.486h.01l.072-.004c.986-.107 1.977-.188 2.97-.269a52 52 0 0 0 6.668-.838c7.146-1.533 12.385-3.928 16.492-7.54a39 39 0 0 0 10.277-13.753c6.066-14.052 6.448-25.902 1.199-37.284a26.7 26.7 0 0 0-6.624-8.96c-5.754-5.108-12.76-8.403-22.049-10.37A21.33 21.33 0 0 0 68.17 74.9a35 35 0 0 1-5.228 1.77c-9.309 2.238-16.696 7.241-21.958 14.872a48.5 48.5 0 0 0-4.582 8.626c-2.5 5.855-5.252 13.652-4.338 21.997 1.355 12.349 6.946 20.571 17.093 25.137m-6.729-33.217a46.3 46.3 0 0 1 5.688-15.294 31.47 31.47 0 0 1 16.377-13.847 17.8 17.8 0 0 1 4.895-.836c.78-.065 1.585-.126 2.371-.232 4.391.05 8.848.95 14.441 2.911a27.5 27.5 0 0 1 10.716 7.167 12 12 0 0 1 2.02 3.502c3.538 8.041 2.451 16.199.921 23.121a30.5 30.5 0 0 1-6.085 13.148c-3.366 4.149-7.86 6.722-13.739 7.871-9.96 1.943-19.937.116-29.653-5.429-4.334-2.472-6.025-6.712-7.509-11.205-1.04-3.151-1.184-6.708-.443-10.877m29.804-55.5a21 21 0 0 0 4.94-.614c8.798-2.12 13.948-7.528 15.745-16.537 1.22-6.107-.858-11.019-6.35-15.014-5.216-3.797-11.036-3.685-16.043-3.072-9.05 1.106-16.48 10.083-16.57 20.022a10.22 10.22 0 0 0 2.833 7.83c4.96 4.973 9.962 7.386 15.445 7.385M63.11 40.572A11.9 11.9 0 0 1 66.643 33H68.5c2.741 0 5.301 0 7.865.004q.24 0 .47.065c2.832.829 4.44 1.839 5.064 3.178.598 1.284.374 3.025-.704 5.479a10.12 10.12 0 0 1-7.351 5.743 10.61 10.61 0 0 1-9.518-2.83c-.995-.954-1.358-2.169-1.213-4.065z"/></g><defs><clipPath id="a"><path fill="#fff" d="M.777 0h143v175h-143z"/></clipPath></defs></svg>