<svg xmlns="http://www.w3.org/2000/svg" width="120" height="126" fill="none" viewBox="0 0 120 126"><g fill="#000" clip-path="url(#a)"><path d="m44.727 16.845.54-10.089c-1.722 0-3.245.059-4.762-.013-2.4-.113-3.29-.768-3.408-2.343-.125-1.672.93-2.721 3.227-3.053a34 34 0 0 1 3.66-.258Q57.655.622 71.326.184a6.8 6.8 0 0 1 1.648.14c1.95.422 3.056 1.68 3.039 3.388a3.45 3.45 0 0 1-.887 2.275 3.5 3.5 0 0 1-2.178 1.124c-1.515.25-3.071.248-4.838.375v8.84c9.704.954 17.892 5.535 26.15 11.042 1.997-1.623 4.114-3.188 6.048-4.948 5.606-5.095 8.7-4.73 12.797.953a36.5 36.5 0 0 0 3.405 3.642c3.145 3.286 3.225 5.838.136 9.246-2.077 2.29-4.28 4.47-6.488 6.763 1.455 2.63 2.926 5.203 4.317 7.819 7.929 14.908 6.794 37.089-6.043 51.534-10.688 12.029-23.804 19.288-39.524 22.228-14.905 2.786-29.204.599-43-5.337-9.61-4.135-16.22-11.445-19.848-20.931-7.3-19.088-6.095-37.869 3.624-55.992 3.724-6.944 9.545-11.889 15.931-16.202a107 107 0 0 1 11.503-6.655c2.33-1.181 4.968-1.751 7.61-2.643M11.44 74.59a56.2 56.2 0 0 0 2.866 17.8c3.398 10.016 9.661 17.294 20.015 20.607 23.256 7.441 44.404 3.844 62.729-12.548 13.626-12.188 16.417-30.246 7.49-46.124-7.138-12.698-17.905-21.24-31.635-26.057a49.8 49.8 0 0 0-19.71-2.603c-7.969.496-15.086 3.554-21.832 7.539A36.7 36.7 0 0 0 15.74 51.167c-3.052 7.3-3.968 14.89-4.3 23.423m41-67.304.505 8.471h7.39l1.271-8.471zm59.897 24.281-5.116-5.673-6.191 6.53 4.131 4.552z"/><path d="M62.826 68.391c4.543.12 8.857.212 13.168.362a18.2 18.2 0 0 1 3.95.426c.779.146 1.48.555 1.989 1.158.508.602.79 1.361.799 2.147a3.66 3.66 0 0 1-.762 2.329 3.7 3.7 0 0 1-2.064 1.336c-1.169.357-2.388.52-3.61.485-5.997-.294-11.988-.698-17.982-1.058-2.636-.158-3.91-1.214-4.203-3.753-.1-1.212-.069-2.43.09-3.634q1.134-11.044 2.342-22.079.221-1.81.667-3.577c.343-1.432 1.227-2.355 2.788-2.391 1.756-.04 2.646 1.011 2.943 2.584a18 18 0 0 1 .39 3.612c-.13 6.406-.332 12.812-.503 19.218-.02.767-.002 1.534-.002 2.835"/></g><defs><clipPath id="a"><path fill="#fff" d="M.777 0h119v126h-119z"/></clipPath></defs></svg>