<svg xmlns="http://www.w3.org/2000/svg" width="175" height="140" fill="none" viewBox="0 0 175 140"><g clip-path="url(#a)"><path fill="#000" d="M174.294 75.754c.075-13.44-.344-25.196-1.281-35.937-1.312-15.037-9.674-23.321-24.18-23.963-6.16-.272-12.431-.064-18.495.13-2.757.09-5.608.184-8.409.23-.906.016-1.806.01-2.583.007h-.416c-.316-.904-.619-1.786-.917-2.65-.729-2.118-1.423-4.121-2.18-6.106l-.083-.298a7.55 7.55 0 0 0-2.125-3.59c-1.907-2.217-4.541-3.294-7.885-3.21-4.539.12-9.156.204-13.622.285-6.841.124-13.916.253-20.872.51-3.736.137-5.78.789-7.104 2.451a5.56 5.56 0 0 0-2.064 2.157 30 30 0 0 0-2.803 11.249h-1.123c-1.785 0-3.433-.005-5.081.005-1.975.011-3.95.011-5.926.012-4.807 0-9.778 0-14.666.165a47.6 47.6 0 0 0-17.28 3.937C7.512 24.443 3.67 29.874 3.452 37.734c-.148 5.341-.355 10.772-.555 16.023-.173 4.552-.353 9.258-.493 13.89-.075 2.491-.08 5.025-.084 7.475-.008 4.305-.016 8.758-.411 13.088-1 10.957-.824 19.749.556 27.668 1.247 7.155 4.592 12.938 9.676 16.723a27.84 27.84 0 0 0 16.072 5.725q4.562.13 9.125.281c7.557.243 15.37.494 23.062.554 16.297.13 31.58.195 46.253.195q10.085 0 19.823-.04c7.337-.03 15.266-.369 24.242-1.038 11.32-.842 19.012-7.064 22.24-17.999a41.3 41.3 0 0 0 1.741-11.278c.032-5.559-.086-11.207-.2-16.669-.118-5.436-.238-11.054-.204-16.578m-9.486 17.69q.089 7.936.186 15.873a25.1 25.1 0 0 1-2.806 11.842c-1.724 3.37-4.269 5.371-7.584 5.942a69 69 0 0 1-11.053 1.3c-13.139.098-26.5.083-39.423.071q-7.003-.007-14.004-.01-7.157 0-14.31.005c-11.52.009-23.43.019-35.143-.046a124 124 0 0 1-13.167-.797c-8.12-.915-13.888-6.583-15.428-15.161-1.711-9.527-1.515-19.302-1.326-28.752q.05-2.475.089-4.945.06-4.178.177-8.382c1.737.343 3.498.553 5.267.63 4.224.141 8.517.13 12.67.118 1.977-.004 3.955-.01 5.93 0 .769.005 1.527.049 2.404.1l.727.04q-.002 1.19-.009 2.32c-.01 2.075-.02 4.033.021 5.995.087 4.19 1.822 6.187 5.798 6.676 3.76.41 7.539.602 11.32.575h.134c7.279 0 10.026-2.805 10.117-10.305.016-1.323.012-2.647.008-3.996V71.29h48.6v.468c-.005.807-.01 1.556.012 2.3.04 1.366.08 2.504.199 3.684.446 4.439 2.393 6.328 6.727 6.521 3.457.154 7.161.13 11.006-.08 3.757-.202 6.033-2.32 6.58-6.126.237-1.65.34-3.337.448-5.12.04-.658.081-1.337.129-2.046l5.417.003c5.342.004 10.568.008 15.792-.017a41 41 0 0 0 4.22-.194c.103 7.648.189 15.278.275 22.762M77.484 9.334c4.473-.166 9.01-.228 13.462-.273 4.71.116 9.55.232 14.323.307q.6-.002 1.185.124c.453.486.745 1.1.833 1.759a29 29 0 0 0 1.176 3.845q.134.847.293 1.692H68.258c1.636-7.173 1.744-7.177 9.23-7.454zm52.674 61.95-.073.623a22 22 0 0 1-.501 3.083 1.77 1.77 0 0 1-.883.963c-1.954.21-3.926.304-6.012.403q-.828.038-1.681.082l-.583-5.154zm-74.162.072v6.194h-10.03l-.814-5.872c2.11-.77 7.222-.927 10.847-.322zM163.64 61.07q-.326.025-.652.04c-1.135.046-2.269.101-3.405.156-2.463.12-5.012.242-7.513.275q-17.446.232-34.893.43-15.572.185-31.142.382-29.856.388-59.711.817l-15.1.211c.162-4.828.35-9.638.538-14.367q.147-3.72.29-7.437c.358-9.438 2.083-11.644 10.856-13.88a70.6 70.6 0 0 1 16.534-2.238c11.583-.141 23.362-.121 34.755-.103 9.279.015 18.874.032 28.312-.04 5.369-.04 10.814-.285 16.082-.522 4.19-.189 8.522-.384 12.78-.473 5.839-.124 11.878-.251 17.798.365 8.681.903 12.678 4.945 13.796 13.95a143 143 0 0 1 1.281 14.825q.072 3.774.134 7.567c-.247.009-.495.026-.737.042z"/></g><defs><clipPath id="a"><path fill="#fff" d="M.777 0h174v140h-174z"/></clipPath></defs></svg>