<svg xmlns="http://www.w3.org/2000/svg" width="78" height="77" fill="none" viewBox="0 0 78 77"><g fill="#000" clip-path="url(#a)"><path d="m76.592 40.446-.043-.078a6.1 6.1 0 0 0-1.205-1.42 9 9 0 0 1-.815-.856 2.486 2.486 0 0 1-.15-3.269c1.225-1.862 1.915-3.243 1.57-4.372-.344-1.129-1.609-1.842-3.683-2.702-1.637-.679-2.438-1.278-2.677-2.003-.24-.725.043-1.675.939-3.191.722-1.223.882-2.375.461-3.328-.42-.954-1.366-1.598-2.74-1.874a36 36 0 0 0-1.888-.31 22 22 0 0 1-2.937-.567 2.7 2.7 0 0 1-1.722-1.134 2.74 2.74 0 0 1-.43-2.028c.224-2.4.309-3.688-.363-4.44-.689-.77-1.993-.817-4.642-.844-3.548-.034-5.617-1.318-6.71-4.162-.704-1.831-1.446-2.757-2.406-3.001-.986-.253-2.141.247-3.732 1.617-2.162 1.86-2.825 1.814-4.737-.318-1.257-1.4-2.043-2.088-2.84-1.984-.78.105-1.347.954-2.118 2.484-.97 1.918-1.812 2.675-3.983 1.784-1.235-.505-2.225-.578-3.024-.22-.8.356-1.398 1.127-1.867 2.414-1.34 3.688-2.014 4.176-5.932 4.14-1.398 0-3.17.318-4.064 1.24-1.385 1.425-.344 2.87.491 4.035q.192.262.364.515.036.164.041.333.014.186.044.469c-.218.123-.442.257-.671.392q-1.064.682-2.242 1.138c-.718.218-1.457.36-2.206.424-.439.055-.894.11-1.338.196-1.389.266-2.268.765-2.687 1.524-.433.784-.383 1.811.158 3.225 1.054 2.753.83 3.41-1.715 5.017a17 17 0 0 1-.592.352 10 10 0 0 0-1.126.718c-1.064.826-1.63 1.743-1.636 2.65a2.93 2.93 0 0 0 1.3 2.294c1.59 1.274 1.23 2.409.498 3.996a7.6 7.6 0 0 1-.791 1.24q-.35.462-.651.96c-.784 1.343-1.022 2.414-.751 3.363.27.95 1.054 1.746 2.459 2.48.315.164.627.336.97.522l.34.186c-.096.511-.216 1.028-.33 1.53-.55 2.387-1.12 4.856.666 7.204l.086.114.142.016c4.559.49 5.519 1.697 5.138 6.46q-.011.116-.025.233-.03.227-.037.457a3.27 3.27 0 0 0 1.004 2.714 3.13 3.13 0 0 0 2.782.391c3.498-.826 4.293-.508 6.077 2.427 1.85 3.042 2.314 3.365 5.311 1.67 1.897-1.071 3.509-.907 5.071.516.95.907 1.84 1.878 2.663 2.904.994 1.181 1.702 1.666 2.443 1.666h.017c.75-.008 1.46-.509 2.45-1.732 1.84-2.275 3.734-2.859 6.33-1.948 1.002.39 1.964.875 2.876 1.447l.596.346c1.634.935 2.884 1.154 3.826.673.913-.468 1.456-1.557 1.659-3.328.194-1.711.517-3.466 2.105-4.507q.108.007.205.009.161-.007.316.036c2.028.96 3.307 1.39 4.24.914.922-.47 1.327-1.714 1.753-3.847.284-1.425.776-2.345 1.505-2.806.75-.478 1.835-.527 3.32-.154 1.543.392 2.777.191 3.47-.56.453-.49.878-1.436.324-3.142-1.147-3.553.25-5.704 2.876-8.023 1.74-1.535 2.85-3.907 3.624-5.8.39-.944-.383-2.354-1.004-3.487M14.684 24.998a10.2 10.2 0 0 0 3.25-1.604 11.4 11.4 0 0 0 3.307-4.582l.074-.199c.493-1.328.79-2.13 2.28-2.5 1.91-.476 3.165-1.867 4.381-3.21.421-.467.857-.95 1.312-1.383.915-.871 2.261-1.285 3.688-1.723q1.213-.344 2.373-.84c.51-.293.944-.702 1.27-1.193q.195-.252.42-.515c2.827 1.805 5.42 2.106 8.113.94 2.406 3.785 6.336 4.9 9.932 5.454.47 4.437 2.948 7.346 7.565 8.884.027 3.315.578 6.987 4.111 9.44a1.37 1.37 0 0 1 .429 1.05c-1.387 5.392 1.39 9.367 4.115 12.262-4.19 2.134-6.328 5.512-6.36 10.05a9.96 9.96 0 0 0-4.79 2.094 10.1 10.1 0 0 0-3.09 4.242c-3.947.13-6.61 2.446-8.123 7.075-4.431-1.153-9.04-1.605-12.954 2.258-2.129-2.319-4.62-4.564-7.966-4.564a8.9 8.9 0 0 0-3.344.701c-1.683-2.617-4.07-5.541-7.72-5.85l-5.382-8.875a8.33 8.33 0 0 0 .418-5.119 8.28 8.28 0 0 0-2.66-4.379q.001-1.25-.005-2.422c-.007-2.212-.013-4.302.034-6.355a3.9 3.9 0 0 1 .582-1.598c.882-1.625 1.787-3.237 2.818-5.075l1.243-2.218a11 11 0 0 1 .68-.246"/><path d="M39.785 60.352h.38c8.082 0 13.896-3.785 17.283-11.25C60.19 43.055 59.83 36.895 59.21 32.2a13.77 13.77 0 0 0-2.532-6.646 13.6 13.6 0 0 0-5.498-4.467 35 35 0 0 0-6.735-2.095c-1.003-.24-2.041-.488-3.041-.769l-.324-.09-.188.689-.376-.004c-.46-.005-.92-.011-1.376.009-11.567.486-21.014 7.863-23.506 18.356-1.38 5.808-.446 10.427 2.854 14.116 5.33 5.962 12.296 8.922 21.297 9.052M21.817 40.687c.342-5.771 3.29-10.298 8.526-13.091 2.915-1.555 6.277-3.03 9.972-3.03 1.165-.001 2.326.15 3.453.448 5.795 1.533 9.566 6.382 10.084 12.974.331 4.412-.9 8.8-3.475 12.382-2.35 3.413-5.76 4.973-11.389 5.212-.93-.187-1.87-.35-2.81-.511a46 46 0 0 1-6.146-1.352c-6.182-1.966-8.638-5.864-8.215-13.032"/></g><defs><clipPath id="a"><path fill="#fff" d="M.777 0h77v77h-77z"/></clipPath></defs></svg>