<svg xmlns="http://www.w3.org/2000/svg" width="107" height="96" fill="none" viewBox="0 0 107 96"><g fill="#000" clip-path="url(#a)"><path d="M59.883 28.203a39 39 0 0 0-5.139-1.011 84 84 0 0 1-2.357-.378l-.032-.005h-.032c-11.405.193-20.296 7.946-21.614 18.859-1.133 9.365 2.87 16.459 10.982 19.462a33.4 33.4 0 0 0 11.641 2.186 29 29 0 0 0 4.154-.295c5.252-.755 9.234-3.3 11.837-7.567a30.4 30.4 0 0 0 3.36-7.595c2.896-10.51-2.607-20.68-12.8-23.656m4.042 29.5c-2.503 3.362-6.147 4.923-11.134 4.764-.711-.106-1.43-.2-2.147-.295-1.54-.203-3.133-.412-4.668-.736-7.205-1.518-10.05-5.476-9.82-13.663.136-4.858 1.953-8.9 5.252-11.69 3.749-3.17 9.279-4.614 14.795-3.862 6.505.888 10.765 5.75 11.397 13.008.392 4.47-.92 8.925-3.675 12.474M26.809 68.65c-.545-.486-2.152-.044-2.738.478a427 427 0 0 0-11.427 10.583 6.7 6.7 0 0 0-1.24 1.875c-.097.193-.182.367-.259.496l-.04.065-.007.078c-.12 1.453.13 2.417.755 2.95.384.305.866.462 1.357.44a4.4 4.4 0 0 0 1.048-.142 3.5 3.5 0 0 0 1.649-.738 838 838 0 0 0 11.136-11.301 2.9 2.9 0 0 0 .81-2.048c-.088-.9-.339-2.107-1.045-2.735m27.039 6.439a1.86 1.86 0 0 0-1.616-.212c-.916.258-1.815 1.633-1.949 2.595-.285 2.051-.406 4.153-.524 6.185-.046.79-.091 1.58-.147 2.368l-.008.337.179.01c-.003.497-.014.995-.024 1.494a38 38 0 0 0 .064 4.142 4.2 4.2 0 0 0 1.38 3.002 2.54 2.54 0 0 0 1.599.56 3 3 0 0 0 .395-.03c1.857-.26 2.78-1.554 2.671-3.736a473 473 0 0 0-.946-14.468 2.95 2.95 0 0 0-1.074-2.247m30.484 1.217c-2.497-2.766-5.08-5.627-7.678-8.39a3.7 3.7 0 0 0-1.422-.812c-.157-.06-.3-.114-.412-.17l-.078-.039-.086.004a2.7 2.7 0 0 0-2.377 1.442 2.8 2.8 0 0 0 .357 2.864c1.918 2.694 4.044 5.302 6.1 7.823.685.838 1.37 1.679 2.046 2.522.311.436.77.744 1.293.867.206.018.43.047.66.075q.687.1 1.38.119a1.65 1.65 0 0 0 1.273-.4c.56-.63.607-1.638.653-2.612.014-.287.027-.571.053-.837a1.55 1.55 0 0 0-.54-1.107zM21.384 49.4a2.42 2.42 0 0 0 .472-1.894c-.258-2.184-2.18-2.161-3.57-2.145h-.105c-1.44.015-2.865.12-4.518.24-.752.056-1.55.114-2.412.168-.551 0-1.149-.012-1.781-.024a50 50 0 0 0-5.83.12c-1.034.101-2.644 1.26-2.816 2.26a1.63 1.63 0 0 0 .273 1.337c.53.674 1.592.799 2.544.863.81.055 1.616.137 2.426.218 1.364.137 2.775.279 4.171.287h.395c2.368 0 4.982-.116 8.182-.364a3.55 3.55 0 0 0 2.569-1.065M50.235 3.286c.012 2.816.065 5.676.113 8.44l.053 2.992q-.002.184-.02.381c-.072.369-.022.751.144 1.088.152.231.301.486.453.745.548.934 1.115 1.901 1.967 2.163a2.5 2.5 0 0 0 .736.118 1.95 1.95 0 0 0 .987-.262c.912-.523 1.348-1.685 1.552-2.567.198-.984.313-1.982.346-2.985q.03-.536.071-1.068l.42-.13-.065-.296q-.28-1.306-.545-2.617c-.467-2.29-.95-4.657-1.631-6.932a3.71 3.71 0 0 0-2.844-2.19A1.72 1.72 0 0 0 50.73.6c-.551.557-.525 1.476-.503 2.288q.007.21.008.397m23.895 24.4a5.81 5.81 0 0 0 4.482-2.094c2.646-2.785 5.236-5.707 7.74-8.533l1.74-1.96a4.66 4.66 0 0 0 1.1-1.794c.102-.372.279-1.785-.318-2.093a3.4 3.4 0 0 0-2.262-.09 2.63 2.63 0 0 0-1.134.855 8 8 0 0 1-.258.272 625 625 0 0 1-2.642 2.606c-2.521 2.479-5.127 5.042-7.599 7.653a12.5 12.5 0 0 0-1.81 2.807 39 39 0 0 1-.941 1.7l-.24.401.46.092a8.7 8.7 0 0 0 1.682.178m30.45 17.794a11.3 11.3 0 0 0-2.816-.41c-3.327.095-6.704.289-9.97.475q-1.78.102-3.559.2c-.08.003-.166 0-.253 0a1.3 1.3 0 0 0-.917.206c-.175.157-.372.314-.572.474-.702.56-1.427 1.14-1.543 1.882a1.59 1.59 0 0 0 .327 1.353 2.8 2.8 0 0 0 2.18.709h.088c1.299-.017 2.598-.018 3.898-.02 2.948-.005 5.997-.009 8.99-.187 2.075-.123 4.403-.681 5.934-3.883l.187-.391-.428-.078a34 34 0 0 1-1.546-.33M30.713 30.712l.38.222.11-.426c.847-3.303.81-4.137-1.537-6.273-2.909-2.648-6.136-5.377-9.86-8.344a3.35 3.35 0 0 0-1.961-.466 8 8 0 0 1-.869-.065l-.397-.06.014.4a7 7 0 0 1-.039.855c-.06.721-.12 1.467.274 1.933 3.218 3.8 7.705 8.623 13.885 12.224"/></g><defs><clipPath id="a"><path fill="#fff" d="M.777 0h106v96h-106z"/></clipPath></defs></svg>