<svg xmlns="http://www.w3.org/2000/svg" width="117" height="110" fill="none" viewBox="0 0 117 110"><g fill="#000" clip-path="url(#a)"><path d="M114.064 44.648a3.04 3.04 0 0 0 1.315-.657c.376-.322.666-.732.842-1.192a3.3 3.3 0 0 0 .107-1.613 3.3 3.3 0 0 0-.678-1.47 13.5 13.5 0 0 0-2.346-2.276l-.093-.077c-3.259-2.69-4.263-5.854-3.056-9.713.223-.714.456-1.453.617-2.2.331-1.505.138-2.748-.557-3.597-.695-.85-1.844-1.287-3.402-1.287h-.029q-1.13.023-2.253.16c-.686.074-1.395.15-2.085.158-5.175.08-9.385-3.222-10.186-8-.074-.436-.125-.876-.177-1.314a29 29 0 0 0-.174-1.304c-.306-1.858-.878-2.96-1.799-3.456s-2.205-.386-4.013.382a31 31 0 0 1-6.195 2.101 8.6 8.6 0 0 1-3.484-.114 8.6 8.6 0 0 1-3.145-1.484 6 6 0 0 1-1.702-1.812 5.9 5.9 0 0 1-.818-2.337c-.116-1.473-.54-2.41-1.298-2.863-.734-.44-1.718-.391-3.008.15a7.7 7.7 0 0 0-2.554 2.195c-4.53 5.184-9.865 5.661-15.018 1.342a6 6 0 0 1-.178-.158 4 4 0 0 0-.346-.291c-1.303-.927-2.643-1.228-3.78-.846a4.05 4.05 0 0 0-1.556 1.13 4 4 0 0 0-.85 1.714c-.135.45-.248.904-.362 1.36-.148.599-.301 1.218-.506 1.8-1.087 3.102-3.063 4.544-6.138 4.493a12.7 12.7 0 0 1-3.435-.716 32 32 0 0 0-1.597-.454l-4.982-1.235.06.479c.073.589.13 1.087.173 1.527q.087 1.031.288 2.049c.765 3.446-.488 6.03-3.623 7.474a16.2 16.2 0 0 1-8.642 1.222 8.7 8.7 0 0 0-3.709.292 2.55 2.55 0 0 0-1.109.598 2.5 2.5 0 0 0-.677 1.053 2.76 2.76 0 0 0 .068 1.344c.133.436.372.833.696 1.157q.347.39.75.72.368.3.683.654c2.09 2.476 2.846 5.244 2.127 7.793s-2.816 4.532-5.9 5.584q-.415.139-.837.265c-.815.213-1.6.526-2.337.931a3.2 3.2 0 0 0-1.096 1.104 3.2 3.2 0 0 0-.446 1.48c-.033.47.053.94.25 1.37.197.428.498.802.877 1.088.841.53 1.782.89 2.766 1.055l.12.03c3.276.783 4.27 2.236 3.794 5.554a10.35 10.35 0 0 1-1.396 3.91 10.5 10.5 0 0 1-2.827 3.063c-2.28 1.733-2.978 4.157-3.655 6.497l-.136.474a2.14 2.14 0 0 0 .378 2.252c.6.57 1.647.668 2.875.267a4.1 4.1 0 0 1 2.051-.236c3.2.73 5.223 1.92 6.18 3.64.878 1.574.863 3.579-.046 6.127a28 28 0 0 1-1.54 3.345c-.381.745-.777 1.515-1.12 2.295-.833 1.894-.544 3.486.838 4.602 1.394 1.129 3.02 1.072 4.7-.166q.26-.192.517-.392a9 9 0 0 1 1.61-1.07c1.746-.818 3.19-.991 4.292-.518 1.083.465 1.916 1.59 2.477 3.345 1.033 3.225 1.406 5.934-.126 8.667-.341.61-.165 1.429.006 2.22q.114.477.173.965l.034.35.352-.055c.294-.046.593-.078.892-.109a8 8 0 0 0 2.119-.423 4.4 4.4 0 0 0 1.255-.892 5 5 0 0 1 .9-.698 75 75 0 0 0 1.57-.881 24 24 0 0 1 4.88-2.326c6.09-1.82 9.81.075 12.055 6.138q.056.156.105.314a4.1 4.1 0 0 0 1.145 1.869c.545.509 1.22.864 1.953 1.026q.317.057.642.057a4.3 4.3 0 0 0 2.876-1.198 9 9 0 0 0 .936-1.029c.2-.247.402-.493.622-.722 3.754-3.911 6.898-4.274 11.6-1.336 2.132 1.332 3.512 1.755 4.606 1.406 1.25-.397 2.032-1.775 2.89-3.87a13.7 13.7 0 0 1 6.033-6.926c3.034-1.782 5.927-1.785 9.105-.012a3.27 3.27 0 0 0 3.128.193c.594-.35 1.09-.84 1.445-1.426a4.1 4.1 0 0 0 .584-1.932q.063-.657.046-1.316-.001-.346.005-.691a8.9 8.9 0 0 1 .76-3.88 9 9 0 0 1 2.368-3.184 9.15 9.15 0 0 1 3.523-1.874 9.2 9.2 0 0 1 3.997-.203 4.35 4.35 0 0 0 1.853-.064 4.3 4.3 0 0 0 1.652-.83 3.54 3.54 0 0 0 .842-1.305c.179-.49.247-1.015.196-1.535a27 27 0 0 0-1.296-6.792c-1.244-4.1-.308-6.907 3.034-9.098 1.971-1.292 2.909-2.529 2.868-3.782-.039-1.243-1.034-2.406-3.045-3.556-1.981-1.133-3.598-2.248-3.323-4.417.297-2.317 1.023-4.804 4.185-5.619m-7.011 12.713c-5.224 5.373-6.22 11.064-3.037 17.377-7.774.86-12.643 5.371-14.863 13.775-7.482-.307-13.085 3.004-17.156 10.103-6.997-5.301-13.86-2.324-18.514.522-3.79-4.453-8.054-5.9-12.215-5.9-3.115.094-6.19.716-9.092 1.84-.35-.795-.684-1.613-1.01-2.407a39.6 39.6 0 0 0-2.9-6.071c-1.88-3-5.321-3.346-8.738-3.595 1.238-8.1-1.74-13.16-9.104-15.448 4.574-5.648 8.287-12.466 2.601-20.464 5.404-4.932 6.769-10.789 4.06-17.418 6.163-1.146 12.474-3.512 13.656-11.761 3.825.833 7.017.707 10.017-.381 3.793-1.38 5.488-4.503 6.517-7.188 2.717 1.5 6.31 2.92 10.507 1.504a20.94 20.94 0 0 0 9.085-5.75c4.508 8.05 10.779 8.708 19.37 7.046 1.62 8.76 7.46 13.48 17.369 14.03-.912 6.27.652 11.098 4.66 14.358-.375.802-.756 1.573-1.128 2.328a44 44 0 0 0-2.363 5.367c-1.042 3.086.447 5.733 2.278 8.133"/><path d="M75.188 22.584a56.3 56.3 0 0 0-11.795-2.353c-9.21-1.061-20.156 3.157-27.874 10.75a34.24 34.24 0 0 0-8.474 13.173 33.9 33.9 0 0 0-1.683 15.517c1.272 11.06 7.234 18.726 17.726 22.788a57.2 57.2 0 0 0 20.742 3.694q.656 0 1.314-.013c4.966-.097 9.132-1.039 12.735-2.883 10.688-5.467 16.427-14.752 18.072-29.23v-.049c-.66-16.998-7.066-26.68-20.763-31.394m9.87 39.586c-1.72 4.47-3.487 8.018-6.524 10.815-4.198 3.867-9.464 5.772-16.096 5.822a291 291 0 0 0-4.117-.644c-2.954-.45-6.007-.912-8.96-1.565-15.922-3.524-19.188-16.64-16.938-27.738 1.873-9.237 9.142-20.063 23.927-22.743a22.4 22.4 0 0 1 3.997-.38 17.5 17.5 0 0 1 8.341 2.081 23 23 0 0 0 2.754 1.287 22.8 22.8 0 0 1 7.756 4.656 22.4 22.4 0 0 1 5.287 7.284 28.13 28.13 0 0 1 .572 21.125"/></g><defs><clipPath id="a"><path fill="#fff" d="M.777 0h116v110h-116z"/></clipPath></defs></svg>