<svg xmlns="http://www.w3.org/2000/svg" width="162" height="145" fill="none" viewBox="0 0 162 145"><g fill="#000" clip-path="url(#a)"><path d="M115.221 1.459a.66.66 0 0 0-.1.841c7.523 11.717 17.598 22.013 31.657 32.347-1.967.004-3.934.02-5.902.038-4.84.04-9.847.082-14.758-.071-34.073-1.063-69.94.35-112.88 4.448a49 49 0 0 0-5.018.673c-2.056.414-3.311 1.885-3.135 3.658.183 1.787 1.332 2.887 3.235 3.097q.567.063 1.136.135 1.781.26 3.58.287c7.03-.044 14.209-.136 21.338-.272 27.066-.517 51.156-.995 73.639-1.457q8.176-.169 16.351-.392 6.145-.158 12.291-.303c1.55-.035 3.116-.027 4.772-.017.437 0 .881.006 1.335.007l-.018.028c-.359.602-.679 1.139-.996 1.678l-4.334 7.38c-5.193 8.845-10.563 17.99-15.788 27.021a9.4 9.4 0 0 0-1.214 4.406 3.9 3.9 0 0 0 1.996 3.536 4.06 4.06 0 0 0 4.251-.37 9 9 0 0 0 2.214-2.316 180 180 0 0 0 4.436-6.662c1.684-2.644 3.347-5.3 5.01-7.957 5.869-9.378 11.938-19.075 18.867-27.959a49 49 0 0 0 2.897-4.142 7.47 7.47 0 0 0 1.269-3.933 6.33 6.33 0 0 0-2.322-4.704 35 35 0 0 0-3.839-2.907c-.612-.421-1.227-.842-1.824-1.281a786 786 0 0 0-4.238-3.091c-3.542-2.577-7.205-5.243-10.736-7.947-1.334-1.022-2.622-2.172-3.866-3.284-1.281-1.144-2.605-2.326-4-3.39-3.501-2.671-7.192-5.15-10.377-7.264-.773-.513-2.825-1.876-4.929.139M39.856 69.936l.429-.36c.882-.742 2.216-1.865 1.19-4.024a.66.66 0 0 0-.465-.366c-.178-.037-.365-.087-.56-.138a7.7 7.7 0 0 0-1.65-.302c-2.87-.12-5.678.862-7.847 2.742l-.101.086c-3.32 2.815-6.752 5.725-9.628 9.062a703 703 0 0 0-3.49 4.098c-4.125 4.877-8.39 9.921-13.19 14.316a14.7 14.7 0 0 0-2.45 2.932c-1.846 2.917-1.45 5.781 1.146 8.285l1.081 1.04c2.152 2.071 4.378 4.207 6.415 6.436a856 856 0 0 1 7.646 8.507c2.945 3.305 5.99 6.723 9.047 10.033 2.993 3.237 6.25 6.314 9.398 9.29l.339.32a15 15 0 0 0 3.726 2.503c1.35.661 2.76.153 3.682-1.323 1.08-1.73-.263-2.963-.767-3.427q-.528-.485-1.064-.964a38 38 0 0 1-3.62-3.566c-6.806-8.06-13.664-16.308-20.297-24.285l-2.29-2.755q-.166-.222-.267-.481l4.499.248c3.863.214 7.62.422 11.375.624q4.722.254 9.442.534c7.26.421 14.768.856 22.163 1.116 12 .423 23.999.629 37.315.835 17.68.274 32.079.417 45.314.448a16.1 16.1 0 0 0 6.632-1.576 3.54 3.54 0 0 0 2.125-2.733q.029-.215.028-.432a3.83 3.83 0 0 0-1.442-2.905 10 10 0 0 0-4.728-2.223 69 69 0 0 0-9.383-.563q-19.857-.135-39.713-.232-20.12-.108-40.24-.235c-8.742-.06-17.63-.17-26.228-.278q-6.539-.08-13.078-.157a237 237 0 0 0-3.283-.005h-.264a147.7 147.7 0 0 0 19.281-26.2c.864-1.492 2.343-2.73 3.772-3.925"/></g><defs><clipPath id="a"><path fill="#fff" d="M.777 0h161v145h-161z"/></clipPath></defs></svg>