<svg xmlns="http://www.w3.org/2000/svg" width="175" height="143" fill="none" viewBox="0 0 175 143"><g clip-path="url(#a)"><path fill="#000" d="M174.473 73.542c0-1.796-.053-3.627-.106-5.35q-.245-8.006-.497-16.014-.357-11.475-.707-22.953l-.094-3.107c-.199-6.511-.404-13.243-.517-19.864a5.15 5.15 0 0 0-.678-2.726 5.1 5.1 0 0 0-2.009-1.954 10.8 10.8 0 0 0-4.347-1.199 103 103 0 0 0-9.35-.2c-15.533.37-30.832.78-45.473 1.212-2.824.084-5.676.395-8.434.696l-.194.022c-2.096.228-3.304 1.495-3.493 3.654q-.206 2.31-.425 4.618c-.397 4.248-.809 8.641-1.038 12.979-.501 9.458-.932 19.078-1.349 28.382q-.286 6.442-.582 12.884a10 10 0 0 1-.123 1.035l-.023.159-16.042.888q-.031-.095-.06-.176a2.3 2.3 0 0 1-.144-.497q-.434-9.036-.857-18.07-.537-11.432-1.088-22.862a1598 1598 0 0 0-1.074-19.964C75.603 2.4 74.64 1.258 71.956.618a15 15 0 0 0-3.433-.413C67.16.198 65.793.18 64.43.163c-4.001-.05-8.14-.1-12.207.097-5.998.29-12.09.65-17.982.996-8.116.48-16.507.975-24.764 1.293-5.11.195-7.618 2.535-8.378 7.808q-.225 1.366-.251 2.749 0 4.42-.028 8.84C.786 29.323.75 36.95.925 44.452c.135 5.856.396 11.803.647 17.554.312 7.123.634 14.487.721 21.728.142 11.715.034 23.632-.07 35.156q-.064 7.075-.112 14.148c-.026 4.607 1.14 5.915 5.667 6.361.414.042.83.054 1.247.065.259.008.513.015.769.03 1.681.099 3.363.183 5.045.266 3.666.182 7.457.37 11.16.732 11.89 1.162 23.998 1.404 35.712 1.637 3.585.071 7.17.142 10.754.239q.342.01.715.011.692.006 1.38-.078a4.5 4.5 0 0 0 3.16-1.616 4.2 4.2 0 0 0 .667-3.24c-1.056-7.241-.66-14.634-.277-21.784.124-2.305.251-4.688.329-7.033.09-2.755.217-5.557.34-8.267.362-7.995.736-16.255.24-24.422a5.3 5.3 0 0 1 .162-1.314l.05-.257 15.614-.693.048.231q.099.397.13.804.143 4.688.262 9.377c.169 6.317.344 12.849.62 19.271.372 8.677.997 17.704 1.5 24.96.177 2.47.543 4.923 1.092 7.336.744 3.298 2.099 3.852 5.056 3.9q10.524.18 21.044.397 5.572.112 11.143.22 1 .019 2.006.042c2.07.047 4.207.096 6.317.059 5.659-.102 11.41-.246 16.972-.386l5.898-.143q1.213 0 2.419-.127c3.418-.422 4.407-1.384 4.813-4.68.24-2.013.356-4.038.347-6.065.013-18.35-.006-37.007-.024-55.049zm-55.845-.529a5.3 5.3 0 0 1-.625.962 231 231 0 0 1-3.152 3.439 468 468 0 0 0-2.021 2.186c-2.005 2.193-2.285 4.579-.733 6.224a3.5 3.5 0 0 0 2.54 1.16h.054c1.27 0 2.605-.663 3.864-1.922 1.035-1.033 2-2.153 2.933-3.235l.223-.26q1.864-2.158 3.711-4.333 1.603-1.879 3.21-3.75c1.334-1.55 1.896-2.852 1.769-4.1-.13-1.23-.914-2.365-2.48-3.569-3.892-2.99-7.868-6.01-11.712-8.928l-2.567-1.95c-1.958-1.487-3.546-1.56-4.718-.21-1.172 1.348-1.023 3.188.382 4.815a30 30 0 0 0 2.976 2.86l.701.616.374.325a12.6 12.6 0 0 1 1.696 1.69l-11.102.432c-.605-5.977.305-49.305 1.18-55.803l60.153-1.149.031.196q.149.798.185 1.609.496 25.486.954 50.976.136 7.616.259 15.232.18 11.046.388 22.088c.084 4.29.203 8.655.319 12.874.101 3.705.203 7.405.283 11.108.047 2.175.035 4.338.023 6.627q-.008 1.272-.011 2.588h-62.006l-2.358-58.159a124 124 0 0 1 15.281-.639zM10.48 103.923l-.015-3.946c-.029-8.327-.059-16.938-.35-25.403-.203-5.86-.523-11.81-.832-17.564C8.73 46.74 8.159 36.125 8.24 25.667c.027-3.542.074-7.085.123-10.744l.058-4.545c8.95.043 17.946-.394 26.65-.816 11.134-.537 22.64-1.094 33.987-.641l.97 57.826q-1.293.086-2.562.178c-2.328.167-4.527.325-6.756.39-2.832.082-5.715.116-8.503.148-2.434.03-4.951.058-7.429.12a12.7 12.7 0 0 0-4.102.658 3.28 3.28 0 0 0-1.794 2.45c-.106.925.957 2.055 1.697 2.337a11.9 11.9 0 0 0 3.762.714c6.564.223 13.239.398 19.694.567l2.535.065c.89.023 1.77.017 2.788.011l.996-.005.073.953c.085 1.052.163 2.044.163 3.028q0 9.249-.014 18.498-.017 13.249-.008 26.499c.006 2.574.114 5.116.23 7.807q.066 1.548.129 3.148c-20.615.134-41.208-1.247-60.57-2.676v-2.719q.022-3.9.056-7.804c.043-5.636.089-11.459.066-17.191"/></g><defs><clipPath id="a"><path fill="#fff" d="M.777 0h174v143h-174z"/></clipPath></defs></svg>