<svg xmlns="http://www.w3.org/2000/svg" width="175" height="178" fill="none" viewBox="0 0 175 178"><g fill="#000" clip-path="url(#a)"><path d="M172.628 58.367c-.538-2.188-1.651-3.869-3.131-4.732a4.73 4.73 0 0 0-3.757-.447c-2.006.573-4.255 2.35-3.577 7.565.531 4.08.971 8.25 1.397 12.278q.273 2.579.552 5.156c-.681 11.434-1.435 21.742-3.747 32.007-3.02 13.408-9.26 26.047-18.545 37.563-7.532 9.341-17.155 15.13-29.422 17.696a96.9 96.9 0 0 1-30.844 1.209c-8.356-.957-18.154-2.479-27.462-6.508-10.776-4.664-18.403-10.172-24.005-17.335a94.7 94.7 0 0 1-17.375-36.037 69.3 69.3 0 0 1-1.682-25.531c1.577-12.568 5.846-24.92 13.433-38.872a42.7 42.7 0 0 1 10.622-12.798c10.57-8.595 21.037-14.497 32.001-18.046 7.797-2.524 16.403-3.317 26.318-2.424 6.59.593 12.993 2.566 19.185 4.476 1.387.427 2.775.854 4.166 1.268l.64.195c1.185.405 2.408.688 3.649.845.824.073 2.533-.386 2.859-1.364a3.99 3.99 0 0 0-.552-3.314 8 8 0 0 0-3.157-2.354c-4.139-1.725-7.883-3.26-11.788-4.565A71.3 71.3 0 0 0 85.344.595a73.47 73.47 0 0 0-35.83 9.68A266 266 0 0 0 38.612 16.7c-9.717 6.07-16.778 13.178-21.586 21.733-5.771 10.264-9.758 19.723-12.19 28.916C1.955 78.248.92 86.746 1.479 94.9c.97 14.116 5.45 28.093 13.697 42.728a75.4 75.4 0 0 0 10.781 14.942c8.76 9.29 19.858 15.862 33.922 20.089a115.6 115.6 0 0 0 33.343 4.924c4.861-.001 9.718-.305 14.542-.909 18.93-2.367 33.506-10.6 44.553-25.17 8.841-11.658 14.697-23.325 17.903-35.665 3.654-14.068 5.011-29.39 4.149-46.843a55 55 0 0 0-1.74-10.629"/><path d="M101.249 33.685c.776.081 1.552.164 2.328.237.697.065 2.555.24 3.176-1.575a2.85 2.85 0 0 0-1.506-3.63 16.5 16.5 0 0 0-3.87-1.392 57.9 57.9 0 0 0-18.686-.862c-11.63 1.372-21.394 4.396-29.852 9.244-11.237 6.44-18.188 14.663-21.252 25.14-.469 1.607-1.1 3.222-1.657 4.647a65.96 65.96 0 0 0-3.44 37.673c1.805 8.924 4.034 16.127 9.038 22.283 11.492 14.132 24.56 22.105 39.95 24.377 3.32.489 6.729.653 10.02.811 1.498.072 3.048.147 4.565.251h.061a76.9 76.9 0 0 0 34.11-8.774 28.8 28.8 0 0 0 6.914-4.843c6.498-6.414 10.593-12.495 12.886-19.135.462-1.339 1.073-2.669 1.664-3.955q.273-.592.54-1.185c5.296-11.783 5.248-24.666-.146-39.384a9.4 9.4 0 0 0-2.069-3.31 4.88 4.88 0 0 0-4.773-1.512 4.7 4.7 0 0 0-2.111 1.395 4.7 4.7 0 0 0-1.086 2.29c-.362 1.545-.094 3.265.142 4.782l.054.342c.275 1.79.608 3.597.93 5.346.547 2.968 1.113 6.038 1.402 9.07a31.7 31.7 0 0 1-1.948 14.763 134 134 0 0 1-5.465 12.415c-3.357 6.496-7.031 10.752-11.567 13.382-3.552 2.062-7.563 3.528-11.442 4.945l-1.528.561c-6.857 2.528-14.234 2.533-21.41 2.537h-.056c-11.036 0-19.441-2.448-26.446-7.703-1.141-.857-2.341-1.659-3.501-2.434-1.285-.859-2.613-1.746-3.846-2.699-6.683-5.164-11.05-10.979-13.349-17.784-2.706-8.004-5.539-18.62-3.413-29.776a100 100 0 0 1 2.603-9.898c.63-2.098 1.279-4.267 1.828-6.428 2.242-8.826 7.676-15.663 16.614-20.9 12.057-7.065 25.536-10.347 40.028-9.776 1.851.073 3.738.272 5.566.464"/><path d="M69.903 65.41a45.3 45.3 0 0 1 9.263-4.04c3.33-.995 6.833-1.668 10.22-2.319q1.311-.25 2.618-.51c1.109-.22 2.786-.553 2.82-2.522.026-1.545-.995-2.582-2.73-2.773a19 19 0 0 0-2.748-.109c-6.159.233-12.354 1.67-19.495 4.527a25.98 25.98 0 0 0-14.15 13.126c-5.16 10.634-5.467 22.008-.906 33.805 1.284 3.321 3.215 7.56 6.786 10.899 8.002 7.48 17.736 11.271 28.936 11.271.53 0 1.063.015 1.596.032.49.016.988.033 1.488.033q.896.007 1.787-.098c7.804-.968 13.914-3.595 18.68-8.033 8.948-8.332 12.994-19.49 12.031-33.163-.136-1.928-1.081-3.833-1.913-5.513-.752-1.516-2.473-2.674-4.189-1.826a5.4 5.4 0 0 0-2.377 3.158 9 9 0 0 0-.226 2.807c.012.46.023.894 0 1.318-.058 1.044-.083 2.107-.109 3.135a45 45 0 0 1-.546 7.055c-2.297 12.261-9.178 19.46-20.45 21.399-7.94 1.364-15.755-.121-23.22-4.417-2.88-1.657-5.807-3.615-7.714-6.703-5.573-9.025-6.95-18.633-4.094-28.558 1.613-5.617 4.524-9.649 8.642-11.982"/><path d="M145.799 23.715q.144-.756.299-1.512a38 38 0 0 0 .76-4.776c.211-2.842-1.1-3.851-3.284-4.56a5.01 5.01 0 0 0-4.986.96 5089 5089 0 0 0-18.539 15.628c-2.2 1.865-2.976 4.253-2.426 7.513.352 2.095.571 4.26.781 6.352.162 1.591.328 3.236.552 4.85.175 1.27-.182 2.13-1.315 3.173l-.506.466c-3.128 2.88-6.362 5.857-9.401 8.937-5.411 5.482-10.867 11.099-16.148 16.53q-3.76 3.872-7.529 7.74c-1.795 1.841-1.418 3.26-.784 4.125a2.55 2.55 0 0 0 2.116 1.134 4.14 4.14 0 0 0 2.35-.875 32 32 0 0 0 3.334-2.866 17722 17722 0 0 0 18.134-17.215l9.819-9.327c.989-.937 1.695-1.39 2.95-1.338 5.357.16 10.802.157 16.068.151q2.242-.003 4.486 0h.012a6.1 6.1 0 0 0 4.851-2.2c4.269-4.894 8.688-9.803 12.826-14.379 2.033-2.247 3.792-4.589 3.004-8.52-.712-3.534-1.188-5.097-5.147-5.12-2.067-.003-4.163.107-6.188.223-1.147.065-2.294.13-3.442.173-.926.034-1.844.026-2.91.017l-.81-.006q.125-.61.248-1.197c.294-1.417.571-2.747.825-4.081m9.562 12.993.16.011-11.081 14.084h-18.596q-.082-.283-.172-.574a9.8 9.8 0 0 1-.517-2.383c-.082-2.15-.078-4.346-.075-6.47 0-1.274.004-2.548-.011-3.82-.016-1.257.167-2.26 1.103-3.072 3.502-3.037 6.992-6.09 10.696-9.33l3.127-2.734a13 13 0 0 1-.11 1.178c-.15.963-.317 1.924-.485 2.885-.317 1.829-.647 3.72-.846 5.605-.176 1.661.056 2.793.729 3.556.674.764 1.738 1.127 3.369 1.157 2.383.045 4.804-.023 7.143-.087 1.268-.035 2.537-.07 3.805-.087.52-.002 1.037.033 1.76.083z"/></g><defs><clipPath id="a"><path fill="#fff" d="M.777 0h174v178h-174z"/></clipPath></defs></svg>