<svg xmlns="http://www.w3.org/2000/svg" width="172" height="139" fill="none" viewBox="0 0 172 139"><g fill="#000" clip-path="url(#a)"><path d="M2.842 126.816a27 27 0 0 0 1.312 6.94c1.18 3.736 2.59 4.371 6.23 4.387l3.436.014c10.702.044 21.77.086 32.651.073a28 28 0 0 0 3.2-.246 23.5 23.5 0 0 1 3.36-.234c1.76.043 3.56.184 5.298.32 2.123.166 4.313.338 6.486.338h.417c27.18-.287 49.164-.6 69.182-.988 6.993-.137 12.074-3.03 15.534-8.848 7.587-12.763 13.478-27.173 19.1-46.724a81 81 0 0 0 1.936-9.642c.229-1.452.468-2.953.737-4.417a1 1 0 0 0 .011-.121v-4.663a.7.7 0 0 0-.037-.22c-.309-.887-.581-1.822-.845-2.728a25.7 25.7 0 0 0-2.319-6.016c-3.291-5.51-8.836-8.69-16.037-9.198-6.787-.478-13.705-.605-20.391-.73q-2.543-.045-5.084-.098c-3.405-.073-6.871-.054-10.22-.037q-1.936.01-3.872.016c2.171-5.65 3.523-11.938 4.374-20.336.501-4.942.828-11.426-1.113-17.756-1.373-4.475-3.533-5.969-8.251-5.722a12.73 12.73 0 0 0-8.496 3.592q-.793.78-1.596 1.55a77.6 77.6 0 0 0-7.827 8.358c-3.015 3.94-5.83 8.124-8.554 12.172-1.192 1.77-2.383 3.542-3.593 5.297-5.679 8.231-12.411 14.225-20.59 18.317a5.45 5.45 0 0 1-4.2.433c-5.983-1.545-11.05-1.92-15.948-1.182-3.776.57-7.658.922-11.413 1.26q-2.172.194-4.342.407c-1.54.152-3.081.288-4.623.424-2.485.218-5.054.444-7.579.741-4.61.542-6.465 2.292-7.35 6.936l-.082.418a13.4 13.4 0 0 0-.316 2.325c-.03 1.716-.074 3.431-.118 5.147-.114 4.54-.234 9.233-.11 13.853.444 16.474 1.08 32.795 1.642 46.588m45.09-71.091c-.14 12.177.715 24.396 1.544 36.217.826 11.787 1.678 23.968 1.526 35.991H13.238l-.008-.076a24 24 0 0 1-.128-1.474L11.94 99.059l-1.097-25.874a377 377 0 0 1-.097-2.457c-.102-2.692-.207-5.477-.456-8.21-.174-1.916.4-2.679 2.194-2.914q3.241-.425 6.478-.875c4.105-.563 8.35-1.144 12.532-1.628 3.89-.448 7.865-.779 11.71-1.099q2.034-.168 4.07-.343.333-.008.66.066zm61.725-32.991c-.407 5.832-1.892 12.022-4.674 19.48-.894 2.397-1.6 5.054-.718 8.245a.67.67 0 0 0 .6.487q.776.05 1.568.107c1.154.083 2.347.168 3.54.195 3.397.065 6.795.11 10.195.154 7.504.097 15.263.195 22.878.547a41.1 41.1 0 0 1 11.999 2.494c4.722 1.718 7 5.349 6.769 10.788-.356 8.383-2.421 17.11-6.5 27.463-2.7 6.852-5.749 14.102-9.89 23.513a50 50 0 0 1-3.265 5.883q-.562.91-1.113 1.825c-1.83 3.065-4.687 4.799-8.491 5.154-5.159.481-11.164.998-17.118 1.047-13.224.108-26.671.091-39.677.073q-6.147-.008-12.295-.012c-.726 0-1.47-.065-2.13-.127l-.272-.024-5.743-73.898c.964-.431 1.92-.844 2.863-1.253 2.362-1.023 4.593-1.988 6.775-3.15 8.754-4.668 16.108-12.06 23.147-23.265 3.802-6.052 8.543-13.022 14.869-18.836a13.4 13.4 0 0 1 4.141-2.7c1.11-.424 1.577-.36 1.773-.232.267.172.436.714.491 1.566.413 4.814.506 9.65.278 14.476"/><path d="M31.67 58.272a1 1 0 0 0-.105.007c-7.84 1.169-12.615 5.597-12.777 11.85-.158 6.17 4.874 11.167 11.456 11.378a12.03 12.03 0 0 0 8.656-3.283 10.6 10.6 0 0 0 2.436-3.403 10.7 10.7 0 0 0 .936-4.087 13.2 13.2 0 0 0-3.783-9.125c-2.034-2.12-4.456-3.306-6.818-3.337m.44 13.212c-.886 1.025-2.142 1.13-3.73.312-1.366-.703-1.828-1.715-1.373-3.01.273-.67.616-1.309 1.022-1.906q.227-.364.484-.79c.298.19.588.365.866.534.81.44 1.562.98 2.242 1.604.656.67 1.591 1.987.49 3.256"/></g><defs><clipPath id="a"><path fill="#fff" d="M.777 0h171v139h-171z"/></clipPath></defs></svg>