<svg xmlns="http://www.w3.org/2000/svg" width="160" height="142" fill="none" viewBox="0 0 160 142"><g clip-path="url(#a)"><path fill="#000" d="M151.755 101.493c-1.327.041-2.687.029-4.002.02a262 262 0 0 0-1.539-.009c-.033-.486-.066-.936-.096-1.364a65 65 0 0 1-.162-2.754 1151 1151 0 0 0-.211-6.702c-.195-6.013-.403-12.23-.412-18.342-.008-4.327-.177-4.885-4.546-5.08-.562-.025-1.126-.036-1.687-.048q-3.465.006-6.929 0c-14.832-.004-30.18-.01-45.245 1.325a17 17 0 0 1-1.966.026l-.674-.014-1.736-29.694.794-.058a36 36 0 0 1 2.227-.124c1.043-.015 2.077-.012 3.115-.01 1.505.005 3.058.01 4.588-.043 4.086-.14 5.57-1.503 5.669-5.207.274-10.422.301-19.023.089-27.06-.058-2.17-.59-3.688-1.63-4.64C96.258.663 94.467.248 91.776.411c-7.668.456-15.24.977-22.338 1.476l-.692.049a51 51 0 0 0-6.289.692c-1.873.365-2.892 1.669-2.872 3.67.038 3.745.04 7.553.042 11.235 0 4.86.006 9.885.093 14.827.085 4.82.964 5.383 5.412 6.103q1.177.177 2.367.221c2.328.107 4.655.203 7.042.302l2.393.1v29.828q-.324.048-.651.1-.964.174-1.942.236-23.043 1.034-46.084 2.027c-1.275.055-2.55.086-3.825.117-1.064.026-2.128.051-3.193.092-2.384.09-3.727.53-4.488 1.474-.739.916-.89 2.319-.491 4.546.092.515.195 1.029.3 1.542.18.887.367 1.805.483 2.711a105 105 0 0 1 .686 20.288q-1.524 0-3.001-.005c-2.44-.005-4.806-.011-7.173.012-3.641.037-5.153 1.382-5.576 4.965a126.2 126.2 0 0 0-.116 27.753c.271 2.638 1.439 3.872 4.029 4.26 1.348.174 2.71.218 4.065.13q6.534-.301 13.066-.629 6.995-.346 13.99-.672c2.585-.118 4.405-.813 5.563-2.125s1.614-3.191 1.409-5.751c-.207-2.578-.514-5.966-1.055-9.318-.895-5.553-1.798-10.502-2.758-15.131-.632-3.051-1.999-4.183-4.891-4.029-2.379.125-4.792.097-7.13.069-.902-.011-1.801-.022-2.691-.024l-2.806-24.21 55.36-1.612v24.231c-.484.032-.939.066-1.374.094-1.077.074-2.032.14-2.988.18-1.506.065-3.013.12-4.52.176-2.68.1-5.45.202-8.176.356-1.34.076-2.382.62-2.788 1.457a1.94 1.94 0 0 0 .26 2.019c1.034 1.477 1.002 2.981.97 4.574-.008.326-.015.66-.012.991.016 2.279.01 4.559 0 6.839-.013 4.008-.026 8.152.099 12.227a26 26 0 0 0 .877 5.202c.16.663.318 1.326.457 1.989.678 3.277 3.42 3.98 5.422 4.224q1.131.112 2.268.078c.26 0 .518-.004.779 0l1.034.006q13.194.09 26.392.165c.911.02 1.823-.039 2.725-.179 1.739-.301 2.972-1.016 3.664-2.125.705-1.127.805-2.586.297-4.337a12 12 0 0 1-.343-3.126 815 815 0 0 1-.09-7.973c-.045-5.486-.09-11.158-.376-16.729-.27-5.257-2.295-6.098-7.06-6.062-2.253.014-4.504.011-6.917.007H85.42l-1.449-24.998 56.041-1.438-1.238 27.809h-2.129c-1.639-.004-3.14-.008-4.639.007-1.012.012-2.026.01-3.034.011-2.642-.005-5.352 0-8.019.202-3.465.266-4.53 1.515-4.381 5.14.122 2.975.241 5.241.387 7.348q.167 2.403.326 4.809c.313 4.763.638 9.688 1.114 14.519.487 4.94 2.633 6.952 7.651 7.176l5.562.249q10.246.46 20.494.894.248.01.495.01c.865.004 1.728-.095 2.57-.293 2.128-.521 3.287-1.629 3.445-3.304.338-3.582.568-7.15.681-10.602.082-2.467.071-4.975.06-7.4-.005-1.1-.01-2.201-.006-3.301.003-.902.024-1.804.044-2.708.045-1.969.091-4.004-.052-6.001-.344-4.753-2.686-6.797-7.588-6.651m-87.396 4.634h30.929v27.744l-29.225.919zm-57.287 1.111h26c.307 2.214.689 4.472 1.058 6.66.917 5.427 1.865 11.037 1.904 17.001l-27.838 1.678c-1.366-7.301-1.704-14.917-1.124-25.339M92.844 8.416a6633 6633 0 0 1-.586 18.63l-.15 4.69-.196.013c-8.635.606-17.564 1.237-26.473 1.147l-1.217-26.34h28.446l.066.543q.107.655.11 1.317m59.051 99.52v26.087h-26.948l-3.089-27.496a213 213 0 0 1 30.037 1.409"/></g><defs><clipPath id="a"><path fill="#fff" d="M.777 0h159v142h-159z"/></clipPath></defs></svg>