<svg xmlns="http://www.w3.org/2000/svg" width="159" height="74" fill="none" viewBox="0 0 159 74"><g fill="#000" clip-path="url(#a)"><path d="M52.317 73.287a64.6 64.6 0 0 0 10.387-1.795q1.062-.246 2.122-.482a4.04 4.04 0 0 0 1.93-1.443c.294-.318.598-.649.952-.969a.667.667 0 0 0-.123-1.076 53 53 0 0 1-1.496-.877 16 16 0 0 0-2.505-1.32c-5.639-2.138-11.626-2.596-17.255-2.766-8.922-.273-16.013-1.867-22.317-5.016C13.198 52.14 9.107 41.997 13.07 30.409c3.148-9.209 9.038-15.233 17.507-17.904 4.972-1.569 10.174-2.748 15.205-3.887 1.59-.361 3.18-.722 4.767-1.094 1.586-.373 3.23-.612 4.824-.844.747-.109 1.496-.218 2.232-.34a.67.67 0 0 0 .504-.393c.646-1.49.768-2.658.374-3.575a2.7 2.7 0 0 0-1.647-1.46 15.3 15.3 0 0 0-4.738-.826c-7.004-.231-13.812 1.39-20.395 2.953l-1.467.347c-14.004 3.304-23.32 12.388-27.688 27-3.094 10.348-.937 19.957 6.411 28.561 4.302 5.038 9.961 8.036 14.93 10.304 7.466 3.405 15.26 4.253 22.084 4.253a106 106 0 0 0 6.344-.217M156.013 23.78c-3.836-11.137-10.783-17.657-21.242-19.94A147.4 147.4 0 0 0 108.947.445a52 52 0 0 0-8.678.631q-1.014.133-2.025.256c-1.957.233-2.984 1.627-2.747 3.727.013.118.058.23.13.325 1.422 1.893 3.511 1.841 5.35 1.8.372-.009.744-.018 1.109-.01 11.223.218 21.798 2.614 30.663 4.93 7.375 1.926 12.069 6.836 14.351 15.01.445 1.592.755 3.232.976 4.48 1.259 7.13.118 13.42-3.298 18.188-3.377 4.714-8.953 7.888-15.699 8.938l-1.803.28c-4.385.676-8.919 1.376-13.322 2.364q-.788.176-1.58.347c-4.472.974-9.096 1.978-14.264 5.232a.67.67 0 0 0-.31.612.66.66 0 0 0 .395.561 62 62 0 0 1 2.27 1.067c.961.528 1.981.938 3.04 1.223a58.4 58.4 0 0 0 12.609 1.341 79 79 0 0 0 20.013-2.786c13.493-3.531 23.57-17.892 22.463-32.014a53.5 53.5 0 0 0-2.577-13.167"/><path d="M43.36 32.05c-.29.008-.585 0-.883-.01a7 7 0 0 0-2.64.265 8.8 8.8 0 0 0-2.327 1.506c-.367.293-.765.611-1.218.938a.67.67 0 0 0-.042 1.05c.41.348.767.694 1.081 1a5.5 5.5 0 0 0 1.994 1.46c1.55.455 3.153.706 4.768.745 8.756.455 17.007.687 24.886.687a324 324 0 0 0 41.826-2.531 8.4 8.4 0 0 0 2.283-.792 53 53 0 0 1 2.067-.875.667.667 0 0 0-.041-1.256 67 67 0 0 1-2.07-.7 6.4 6.4 0 0 0-1.681-.46c-2.707-.19-5.462-.418-8.128-.638-6.496-.537-13.213-1.091-19.836-1.15-9.415-.087-18.987.187-28.238.45-3.932.113-7.867.224-11.8.31"/></g><defs><clipPath id="a"><path fill="#fff" d="M.777 0h158v74h-158z"/></clipPath></defs></svg>