<svg xmlns="http://www.w3.org/2000/svg" width="157" height="142" fill="none" viewBox="0 0 157 142"><g fill="#000" clip-path="url(#a)"><path d="m79.913 18.89 1.84 1.815c2.032 2.008 3.788 3.741 5.617 5.47 1.73 1.64 3.518 3.274 5.247 4.854q1.787 1.633 3.566 3.276a1124 1124 0 0 1 5.669 5.318l2.48 2.335a.66.66 0 0 0 .776.094l2.112-1.196a.67.67 0 0 0 .299-.811 11 11 0 0 1-.202-.644 4.9 4.9 0 0 0-.587-1.425A363 363 0 0 0 80.469 4.304a16.5 16.5 0 0 0-3.072-2.776C74.85-.215 72.09.192 70.022 2.622a15 15 0 0 0-1.354 1.979l-2.437 3.977A6435 6435 0 0 0 51.78 32.213a10.4 10.4 0 0 0-1.66 3.89 4.2 4.2 0 0 0 .312 1.896c.25.599.635 1.13 1.126 1.552.917.636 2.848.803 3.793.092a18.5 18.5 0 0 0 4.252-4.437c1.866-2.791 3.69-5.672 5.454-8.458 1.508-2.382 3.068-4.847 4.644-7.238.302-.456.568-.947.824-1.42a8 8 0 0 1 2.293-2.99c-.07.771-.147 1.534-.222 2.288a68 68 0 0 0-.47 7.295l.015 2.002c.12 15.329.243 31.18.671 46.764.256 9.29.743 18.725 1.214 27.85q.316 6.095.61 12.189.015.349.023.699c0 .688.056 1.376.168 2.056.374 1.954 1.392 3.038 2.827 3.038q.236 0 .468-.036c1.011-.155 2.666-1.02 3.014-2.18a29 29 0 0 0 1.322-7.328c.144-4.378.125-9.062-.065-14.74q-.777-23.533-1.608-47.067-.436-12.514-.867-25.029c-.033-.977-.025-1.973-.016-3.231q.01-.377.01-.78"/><path d="M151.003 73.41a4 4 0 0 0-2.707 1.129 4.04 4.04 0 0 0-1.217 2.681c-.251 4.33-.886 15.07-1.318 21.236-.389 5.54-.631 11.181-.866 16.635-.134 3.137-.269 6.273-.431 9.408a29 29 0 0 1-.374 3.013q-.081.507-.16 1.026l-.799.134q-1.075.209-2.167.295c-3.92.218-7.905.471-11.757.716-9.178.586-18.667 1.19-28.001 1.36-15.82.288-31.912.258-47.476.228q-7.422-.015-14.845-.02h-.11c-7.486 0-14.937-.154-21.238-.306-1.577-.038-3.144-.205-4.959-.399-.728-.078-1.488-.16-2.299-.238-.153-2.272-.263-6.97-.4-12.788-.351-14.895-.832-35.295-2.56-39.073a.67.67 0 0 0-.427-.364 3.52 3.52 0 0 0-2.947.223 2.69 2.69 0 0 0-1.13 1.954c-.279 1.954-1.725 26.867-1.802 41.461.108 2.063.28 4.363.447 6.585.124 1.638.246 3.258.34 4.756.24 3.847 2.414 6.248 6.283 6.944 2.429.39 4.88.62 7.34.69 11.34.537 22.785.696 34.153.696 8.435 0 16.83-.089 25.099-.175q6.92-.072 13.843-.13c10.317-.075 21.184-.3 33.222-.687 5.463-.176 11.011-.473 16.377-.76 3.381-.181 6.762-.362 10.143-.516 4.249-.195 6.473-1.87 7.433-5.611.463-2.111.709-4.266.733-6.429l.044-.968c.698-14.019-.712-38.883-1.351-48.923a4.07 4.07 0 0 0-1.305-2.72 4.02 4.02 0 0 0-2.811-1.063"/></g><defs><clipPath id="a"><path fill="#fff" d="M.777 0h156v142h-156z"/></clipPath></defs></svg>