<svg xmlns="http://www.w3.org/2000/svg" width="158" height="151" fill="none" viewBox="0 0 158 151"><g fill="#000" clip-path="url(#a)"><path d="M121.325 108.081c2.562-2.644 5.087-5.294 7.667-7.889a23.6 23.6 0 0 1 3.251-2.842c1.557-1.074 3.22-.961 4.293.045a3.194 3.194 0 0 1 .285 4.278c-1.975 2.814-4.162 5.482-6.322 8.161-1.032 1.28-2.206 2.447-3.496 3.869 3.041 2.684 5.88 5.149 8.666 7.672a16.6 16.6 0 0 1 2.718 2.91 4.73 4.73 0 0 1-.428 6.127c-1.536 1.53-4.011 1.644-6.105.147a18 18 0 0 1-2.409-2.285c-2.606-2.718-5.19-5.457-8.032-8.449-2.026 2.139-3.913 4.126-5.793 6.118a47 47 0 0 1-3.444 3.621 9.5 9.5 0 0 1-3.368 2.004c-3.187.921-5.649-1.594-4.564-4.737a12.7 12.7 0 0 1 2.699-4.131c2.235-2.473 4.659-4.768 6.987-7.156.536-.549.998-1.171 1.793-2.113-2.931-2.766-5.825-5.478-8.694-8.215a28.5 28.5 0 0 1-2.997-3.087 2.6 2.6 0 0 1-.004-3.405c.933-1.147 2.197-1.623 3.557-.943a27 27 0 0 1 4.554 2.72c3.049 2.379 5.976 4.916 9.186 7.58"/><path d="M112.411 80.1c4.26-.222 8.272-.948 12.169-.55 17.612 1.804 30.765 15.296 32.554 32.98 1.61 15.916-6.289 29.011-21.144 34.799-11.066 4.313-22.23 4.995-33.385.267-7.75-3.284-13.77-8.442-17.215-16.319-.172-.391-.415-.755-.673-1.219-3.263.176-6.46.356-9.66.521-17.619.9-35.235 1.855-52.858 2.654-4.759.216-9.537-.015-14.309-.112a12 12 0 0 1-3.26-.543c-3.125-.966-4.163-3.132-3.067-6.192A109.8 109.8 0 0 1 22.88 90.11c11.436-12.887 25.39-21.015 42.688-22.794 11.833-1.217 23.198.776 34.125 5.402a62 62 0 0 1 6.93 3.212 67 67 0 0 1 5.788 4.17m-8.776 4.638c-9.221-4.154-18.137-7.58-28.011-8.036-13.739-.636-26.17 2.832-37.03 11.32-11.67 9.122-20.22 20.84-27.132 33.838q-.45 1.001-.762 2.055c6.27.569 68.722-3.705 72.667-4.963.097-.463.244-.992.317-1.529a54.4 54.4 0 0 1 6.43-18.83 23.1 23.1 0 0 1 4.075-5.212c2.903-2.869 6.013-5.527 9.446-8.644m15.402 54.471a37.25 37.25 0 0 0 15.462-3.473 19.5 19.5 0 0 0 8.819-7.857c4.769-8.08 3.851-21.148-2.184-28.33-4.808-5.724-10.817-9.677-18.399-10.302-8.794-.727-16.268 2.395-21.348 9.698-5.088 7.318-6.315 15.791-5.38 24.551a14.2 14.2 0 0 0 4.984 9.178c5.144 4.592 11.259 6.496 18.046 6.535M67.66 59.572c-7.542-.31-14.93-1.88-21.423-6.503-7.335-5.221-13.126-14.936-8.58-27.066a38 38 0 0 1 4.617-8.807 86.6 86.6 0 0 1 8.66-10.124c7.071-7.16 19.138-8.935 27.66-3.69 11.178 6.879 17.674 17.207 18.95 30.243.759 7.739-2.676 14.331-8.804 19.251-6.079 4.88-13.232 6.522-21.08 6.696m-1.012-9.865c4.718-.12 9.305-.687 13.416-3.226 5.592-3.453 7.846-9.136 6.17-15.483-1.31-4.96-4.003-9.127-7.467-12.808-3.45-3.667-7.488-6.144-12.74-6.303-5.784-.176-10.161 2.939-14.19 6.33-2.952 2.486-4.74 6.092-5.945 9.872-2.67 8.384.251 15.202 8.192 19.005 3.984 1.912 8.246 2.431 12.564 2.613"/></g><defs><clipPath id="a"><path fill="#fff" d="M.777 0h157v151h-157z"/></clipPath></defs></svg>