<svg xmlns="http://www.w3.org/2000/svg" width="154" height="139" fill="none" viewBox="0 0 154 139"><g fill="#000" clip-path="url(#a)"><path d="M95.544 138.156c-14.193 0-28.386-.069-42.578.022-11.41.073-22.815.403-34.224.482-3.21 0-6.415-.241-9.59-.717-6.836-.981-9.557-5.021-7.28-11.539a63 63 0 0 1 6.067-12.468c10.488-16.794 25.748-27.7 44.036-34.725a88.7 88.7 0 0 1 31.147-6.115c15.948-.138 30.63 3.9 43.168 14.395a80.1 80.1 0 0 1 20.542 25.732c1.388 2.767 2.953 5.47 4.065 8.346a36 36 0 0 1 2.224 8.259c.548 4.242-1.821 7.054-6.066 7.588a75 75 0 0 1-8.934.668c-14.192.065-28.385.031-42.577.031zm46.626-10.353a5 5 0 0 0-.013-1.357c-4.521-11.712-10.767-22.297-20.418-30.589-7.445-6.396-15.796-11-25.717-12.248-11.431-1.438-22.759-1.136-33.932 2.004-21.138 5.942-38.004 17.638-49.554 36.493-1.314 2.145-2.357 4.454-3.565 6.756q.552.302 1.145.509c3.955.867 7.899.357 11.887.135 8.288-.464 16.6-.663 24.903-.706 27.163-.139 54.327-.129 81.491-.258 4.522-.024 9.036-.474 13.775-.739zM80.054.454c10.935-.266 20.071 4.94 27.007 14.404 1.635 2.23 3.608 4.302 4.802 6.75 2.669 5.469 4.879 11.088 3.461 17.471-1.332 5.995-3.068 11.767-6.937 16.68-6.881 8.728-15.653 14.124-26.864 15.466-10.091 1.208-19.687-.283-28.646-5.02C43.65 61.326 38.4 53.432 36.494 43.289c-2.869-15.27 5.138-28.964 17.773-36.245C61.912 2.637 70.168.415 80.054.454m23.96 31.022c.501-3.85-1.043-6.924-3.436-9.725-.934-1.093-1.778-2.266-2.75-3.323-3.517-3.826-7.528-6.853-12.864-7.654a38.44 38.44 0 0 0-22.067 2.886c-8.634 3.96-15.075 10-16.559 20.042-1.73 11.714 4.329 22.197 15.106 25.658a46.9 46.9 0 0 0 19.986 1.734c9.171-1.048 19.967-10.453 21.426-20.107.476-3.157.777-6.342 1.158-9.515z"/></g><defs><clipPath id="a"><path fill="#fff" d="M.777 0h153v139h-153z"/></clipPath></defs></svg>