<svg xmlns="http://www.w3.org/2000/svg" width="157" height="151" fill="none" viewBox="0 0 157 151"><g fill="#000" clip-path="url(#a)"><path d="M111.851 80.037c4.25-.223 8.252-.945 12.141-.548 17.572 1.795 30.696 15.23 32.481 32.838 1.607 15.847-6.275 28.886-21.096 34.649-11.042 4.294-22.18 4.974-33.31.267-7.733-3.271-13.74-8.407-17.177-16.25-.172-.389-.414-.752-.67-1.213-3.257.175-6.448.354-9.64.518-17.579.896-35.155 1.847-52.739 2.643-4.748.215-9.518-.016-14.277-.112a12 12 0 0 1-3.253-.541c-3.118-.961-4.153-3.118-3.06-6.165a109.3 109.3 0 0 1 21.27-36.12C33.93 77.17 47.853 69.078 65.112 67.307c11.807-1.212 23.147.773 34.048 5.379a62 62 0 0 1 6.914 3.198 66 66 0 0 1 5.776 4.153m-8.756 4.616c-9.201-4.136-18.098-7.546-27.95-8-13.707-.634-26.11 2.819-36.946 11.27-11.644 9.084-20.174 20.751-27.071 33.694a16 16 0 0 0-.76 2.045c6.256.567 68.568-3.688 72.503-4.941.098-.461.245-.988.317-1.523a54.1 54.1 0 0 1 6.416-18.748 23 23 0 0 1 4.065-5.19c2.897-2.854 6-5.504 9.426-8.607m15.367 54.238a37.2 37.2 0 0 0 15.427-3.459 19.4 19.4 0 0 0 8.799-7.823c4.758-8.045 3.843-21.056-2.179-28.208-4.798-5.699-10.793-9.635-18.357-10.258-8.775-.723-16.232 2.385-21.3 9.66-5.077 7.287-6.301 15.723-5.368 24.446a14.12 14.12 0 0 0 4.972 9.138c5.133 4.57 11.234 6.466 18.006 6.504M67.2 59.595c-7.526-.309-14.896-1.872-21.375-6.475-7.319-5.199-13.096-14.872-8.56-26.95a37.7 37.7 0 0 1 4.605-8.77 86 86 0 0 1 8.64-10.081C57.567.19 69.607-1.576 78.11 3.647c11.152 6.848 17.634 17.132 18.908 30.113.756 7.704-2.67 14.269-8.786 19.168-6.064 4.858-13.201 6.494-21.032 6.667m-1.01-9.823c4.708-.118 9.285-.683 13.386-3.211 5.58-3.439 7.832-9.097 6.157-15.417-1.307-4.94-3.994-9.088-7.45-12.753-3.443-3.651-7.471-6.118-12.713-6.277-5.77-.175-10.138 2.926-14.158 6.304-2.945 2.475-4.73 6.065-5.93 9.83-2.665 8.347.25 15.136 8.173 18.923 3.974 1.903 8.227 2.42 12.535 2.6z"/><path d="M120.589 117.762c-4.312 0-8.624.043-12.934-.026a18.3 18.3 0 0 1-3.912-.564 2.326 2.326 0 0 1-1.898-2.398 2.45 2.45 0 0 1 1.645-2.597 7.8 7.8 0 0 1 2.22-.604q14.4-.747 28.805-1.408a6.6 6.6 0 0 1 1.648.129 3.55 3.55 0 0 1 2.908 3.524 3.34 3.34 0 0 1-2.923 3.139c-2.63.307-5.287.442-7.936.53-2.539.085-5.083.018-7.625.018z"/></g><defs><clipPath id="a"><path fill="#fff" d="M.777 0h156v151h-156z"/></clipPath></defs></svg>