<svg xmlns="http://www.w3.org/2000/svg" width="154" height="143" fill="none" viewBox="0 0 154 143"><g fill="#000" clip-path="url(#a)"><path d="M84.344.117c16.393.349 28.46 7.583 35.839 22.31 3.927 7.836 7.552 15.825 11.489 23.656a68 68 0 0 0 5.511 9.05c3.132 4.364 1.15 10.738-4.046 11.903a80 80 0 0 1-9.514 1.383c-7.15.715-14.312 1.314-21.47 1.96q-.328.065-.661.047c-4.242-.71-7.91 1.043-11.763 2.428a41 41 0 0 1-18.316 2.004c-7.52-.771-14.543-2.73-21.015-6.703-.953-.585-2.307-.556-3.488-.719-6.146-.845-12.097.742-18.122 1.458-1.983.22-3.979.3-5.973.242-3.97-.085-6.782-4.165-4.508-7.8 5.332-8.52 8.356-18.139 12.86-27.05 5.273-10.437 12.68-18.978 22.568-25.26A55 55 0 0 1 76.097.99c2.736-.373 5.497-.586 8.247-.872M46.677 39.064c-1.62 9.372 4.488 19.839 13.7 23.224a44.4 44.4 0 0 0 17.934 2.604c9.714-.532 16.912-5.4 22.08-13.43a18.2 18.2 0 0 0 2.815-9.794c-10.515-3.51-19.938-8.12-24.464-19.731-8.088 11.393-19.78 14.905-32.065 17.127m49.095 102.894c-14.303 0-28.608-.068-42.91.023-11.52.074-23.038.4-34.555.485a59.5 59.5 0 0 1-8.925-.715c-6.836-.991-9.58-5.045-7.314-11.586a63.6 63.6 0 0 1 6.059-12.539C18.535 100.834 33.67 89.835 51.85 82.844a88.2 88.2 0 0 1 28.482-6.04c12.5-.476 24.514 1.044 35.66 7.153 9.905 5.43 17.9 12.963 24.543 22.062 4.756 6.515 8.034 13.808 11.372 21.065a21 21 0 0 1 1.426 6.137c.566 4.567-1.802 7.552-6.375 8.029-3.409.356-6.843.631-10.267.65-13.638.072-27.276.029-40.915.029zm-86.446-9.215q.52.227 1.063.389c3.955.891 7.901.343 11.888.119 8.067-.455 16.156-.661 24.237-.703 26.721-.138 53.443-.129 80.164-.249 4.867-.022 9.733-.38 14.599-.615a3.4 3.4 0 0 0 1.06-.407c.046-.413.152-.66.084-.841-4.543-12.155-11.043-23.018-21.034-31.49-5.807-4.926-12.214-8.895-19.704-10.71a76.5 76.5 0 0 0-34.28-.298c-20.462 4.355-37.525 14.396-50.226 31.32-3.119 4.154-6.027 8.471-7.851 13.481z"/></g><defs><clipPath id="a"><path fill="#fff" d="M.777 0h153v143h-153z"/></clipPath></defs></svg>