<svg xmlns="http://www.w3.org/2000/svg" width="154" height="128" fill="none" viewBox="0 0 154 128"><g fill="#000" clip-path="url(#a)"><path d="M1.406 94.03c-.08 3.502 1.674 6.034 4.814 6.945a14.7 14.7 0 0 0 4.049.546h.048c5.616-.015 12.96-.33 20.122-2.632q1.3.825 2.582 1.651c2.009 1.289 4.085 2.622 6.166 3.862 14.12 8.419 29.398 14.987 44.175 21.341l2.829 1.216q.291.135.599.229c.351.108.717.165 1.085.169.483.013.959-.123 1.363-.39.337-.254.612-.583.803-.961a2.8 2.8 0 0 0 .303-1.22c.028-.288.04-.585.05-.875a6.3 6.3 0 0 1 .178-1.515 169.7 169.7 0 0 0 6.307-30.019l.439-3.878c1.189-10.454 2.418-21.264 2.54-32.022.16-13.991-.737-28.15-1.605-41.844q-.226-3.56-.447-7.121a19.4 19.4 0 0 0-.683-4.077 4 4 0 0 0-.705-1.577 4 4 0 0 0-1.3-1.13 4.14 4.14 0 0 0-3.458.148c-.925.396-1.886.765-2.816 1.121-.795.304-1.59.61-2.376.935-1.247.516-2.498 1.023-3.749 1.53-3.292 1.335-6.703 2.715-9.98 4.255-3.8 1.785-7.739 3.879-12.042 6.403-10.688 6.267-21.122 12.416-31.286 18.737a10.37 10.37 0 0 1-5.688 1.767c-4.145.072-8.276.36-12.272.638-7.73.538-9.033 3.332-9.162 9.811a116 116 0 0 0-.007 3.184c.008 1.048.015 2.098-.006 3.147a14513 14513 0 0 1-.87 41.625m27.017-27.688q.026 1.308.05 2.618c.113 6.477.232 13.168 1.67 20.18H11.857l-.018-.11a11.5 11.5 0 0 1-.185-1.6q-.133-6.8-.252-13.6-.16-9.02-.341-18.039c-.033-1.537-.135-3.09-.234-4.591-.065-1.023-.135-2.045-.182-3.069a43 43 0 0 1-.017-2.432q.002-.293.006-.584l18.168-1.096c-.046 2.068-.109 4.144-.171 6.225-.16 5.27-.322 10.718-.208 16.098m56.446 50.489c.065.706.13 1.411.21 2.325l.006.074c-11.75-10.189-25.065-17.132-37.96-23.853a741 741 0 0 1-8.664-4.563c.046-2.642.109-5.243.172-7.813.149-6.154.29-11.968.197-17.868-.093-5.924-.416-11.735-.758-17.887-.144-2.565-.288-5.155-.416-7.78q.541-.401 1.121-.742 6.184-3.526 12.376-7.038c9.542-5.421 19.409-11.026 29.067-16.621a73 73 0 0 0 6.65-4.549 277 277 0 0 1 2.26-1.652l-.151 2.274c-.166 2.474-.323 4.808-.41 7.143q-.114 2.983-.233 5.968c-.311 7.977-.633 16.226-.8 24.346-.316 15.477-1.323 32.212-3.079 51.162-.54 5.837-.093 11.635.412 17.074m50.954-105.126c-1.709-2.6-3.734-2.716-5.06-1.95-1.073.616-2.029 2.046-.495 5.358a1346 1346 0 0 0 2.368 5.081q1.28 2.734 2.551 5.472a78.3 78.3 0 0 1 7.155 26.628 68.3 68.3 0 0 1-4.673 31.048 217 217 0 0 1-15.235 31.188c-.452.754-.779 2.288-.194 3.09a2.86 2.86 0 0 0 2.191.878c.301.007.6-.045.881-.153 1.95-.827 3.673-1.614 5.032-2.881a72 72 0 0 0 7.792-8.282c4.095-5.289 6.986-11.417 9.595-17.241a67 67 0 0 0 5.746-24.976v-.014a84.9 84.9 0 0 0-9.54-39.833c-2.513-4.757-5.385-9.257-8.114-13.413"/><path d="M106.942 102.399a3.45 3.45 0 0 0 1.808.455 4 4 0 0 0 1.541-.286 22.7 22.7 0 0 0 8.755-6.383c4.362-5.3 7.42-10.485 9.347-15.854a35.3 35.3 0 0 0 2.084-12.633c-.232-11.99-4.374-23.131-12.661-34.07a13.8 13.8 0 0 0-2.179-2.254c-1.715-1.424-4.042-1.657-5.409-.538-1.318 1.08-1.619 3.126-.75 5.093.415.936.912 1.838 1.393 2.71q.32.577.63 1.158c5.068 9.57 7.317 17.811 7.079 25.936v.028a39.74 39.74 0 0 1-5.079 19.777c-1.672 3.104-3.276 6.303-4.827 9.4q-.98 1.958-1.966 3.909c-.459.903-1.312 2.586.234 3.552"/></g><defs><clipPath id="a"><path fill="#fff" d="M.777 0h153v128h-153z"/></clipPath></defs></svg>