<svg xmlns="http://www.w3.org/2000/svg" width="132" height="127" fill="none" viewBox="0 0 132 127"><g fill="#000" clip-path="url(#a)"><path d="M98.387 7.101a19 19 0 0 0-.69-4.065 4 4 0 0 0-.712-1.573A4 4 0 0 0 95.672.336a4.23 4.23 0 0 0-3.49.148c-.934.395-1.905.762-2.844 1.117-.802.305-1.604.608-2.398.933-1.259.515-2.522 1.02-3.786 1.526-3.327 1.331-6.767 2.708-10.074 4.243-3.833 1.779-7.81 3.867-12.157 6.386-10.78 6.243-21.307 12.37-31.586 18.684a10.56 10.56 0 0 1-5.743 1.763c-4.182.072-8.354.359-12.388.636-7.805.538-9.12 3.323-9.25 9.781a112 112 0 0 0-.007 3.175c.007 1.046.016 2.093-.006 3.139-.261 12.765-.55 27.23-.88 41.514-.08 3.491 1.692 6.016 4.861 6.924a15.2 15.2 0 0 0 4.135.546c5.67-.015 13.086-.331 20.316-2.626q1.316.825 2.616 1.652c2.024 1.284 4.117 2.611 6.214 3.847 14.257 8.395 29.683 14.946 44.601 21.281l2.853 1.213q.296.135.606.228c.355.108.725.165 1.096.17.488.011.967-.124 1.375-.389.34-.255.617-.583.811-.96.194-.376.298-.792.306-1.215.028-.288.04-.58.051-.872a6.2 6.2 0 0 1 .179-1.512 167.5 167.5 0 0 0 6.368-29.937l.444-3.88c1.2-10.421 2.439-21.196 2.563-31.922.162-13.95-.744-28.07-1.62-41.724q-.228-3.55-.451-7.104M85.325 116.12l.216 2.374v.017c-11.858-10.16-25.304-17.084-38.322-23.786-2.882-1.484-5.857-3.015-8.747-4.55.046-2.64.11-5.237.173-7.805.15-6.133.293-11.926.2-17.809-.095-5.909-.421-11.703-.766-17.838-.145-2.558-.29-5.141-.42-7.759q.547-.4 1.132-.74a7352 7352 0 0 1 12.52-7.033c9.624-5.401 19.577-10.986 29.32-16.56a74 74 0 0 0 6.713-4.537q1.11-.807 2.278-1.646-.075 1.167-.152 2.282c-.167 2.462-.326 4.787-.414 7.108q-.114 2.977-.233 5.957c-.315 7.953-.64 16.178-.808 24.273-.32 15.44-1.337 32.129-3.11 51.021-.542 5.826-.09 11.609.42 17.031M28.339 65.768q.027 1.301.05 2.605c.115 6.462.234 13.136 1.687 20.13h-18.46l-.02-.11a11 11 0 0 1-.185-1.596q-.137-6.832-.257-13.665-.161-8.943-.342-17.884c-.034-1.532-.137-3.081-.238-4.579-.065-1.02-.135-2.04-.183-3.06a43 43 0 0 1-.017-2.426l.005-.583 18.343-1.093c-.046 2.064-.11 4.134-.173 6.211-.16 5.253-.325 10.687-.21 16.05m88.049-34.871c-1.733-1.422-4.081-1.654-5.461-.537-1.33 1.077-1.635 3.117-.757 5.078.418.934.921 1.833 1.406 2.703q.322.575.636 1.155c5.116 9.544 7.387 17.762 7.146 25.865v.028a39.25 39.25 0 0 1-5.128 19.722c-1.685 3.09-3.302 6.278-4.866 9.36a1367 1367 0 0 1-1.992 3.912c-.463.901-1.325 2.579.237 3.544.555.314 1.186.47 1.825.454a4.1 4.1 0 0 0 1.555-.285 22.96 22.96 0 0 0 8.839-6.367c4.403-5.284 7.49-10.455 9.435-15.81a34.7 34.7 0 0 0 2.104-12.599c-.234-11.955-4.415-23.067-12.782-33.975a13.8 13.8 0 0 0-2.197-2.248"/></g><defs><clipPath id="a"><path fill="#fff" d="M.777 0h131v127h-131z"/></clipPath></defs></svg>