<svg xmlns="http://www.w3.org/2000/svg" width="106" height="155" fill="none" viewBox="0 0 106 155"><g clip-path="url(#a)"><path fill="#000" d="M29.98 99.672c-4.01 11.578-8.223 23.305-12.297 34.646q-2.285 6.362-4.564 12.723c-.86 2.408-1.542 5.135 1.284 7.04a4.73 4.73 0 0 0 2.67.899c1.77 0 3.306-1.169 4.635-2.443a637 637 0 0 1 7.667-7.169c5.639-5.216 11.472-10.609 16.737-16.362 9.13-9.976 18.077-20.418 26.729-30.516q5.164-6.025 10.346-12.033a6517 6517 0 0 0 16.696-19.39l3.444-4.008c1.682-1.958 3.072-4.16 1.863-6.998-1.179-2.766-3.63-3.204-6.1-3.266q-7.663-.19-15.323-.41-5.3-.15-10.597-.292c-.942-.025-1.876-.018-2.954-.012l-.801.005.278-.817c.344-1.012.641-1.886.973-2.734q2.323-5.977 4.656-11.952c3.046-7.814 6.2-15.893 9.263-23.854a48.6 48.6 0 0 0 2.11-7.063 3.96 3.96 0 0 0-.454-3.198 3.67 3.67 0 0 0-2.664-1.431 83 83 0 0 1-1.894-.28 33 33 0 0 0-5.048-.52h-.055C68.858.263 61.008.35 53.417.434Q46.702.51 39.985.572c-6.08.051-6.912.656-8.91 6.467-.203.59-.426 1.216-.685 1.808l-4.984 11.409A10619 10619 0 0 1 9.426 56.75c-1.041 2.364-2.179 4.74-3.279 7.036-1.246 2.603-2.535 5.296-3.694 7.995-1.588 3.69-1.821 6.093-.755 7.796s3.315 2.54 7.308 2.74l4.887.242q4.698.23 9.394.474c2.622.14 5.242.299 8.014.465l3.176.19c-.434 1.59-.842 3.171-1.244 4.706-1.022 3.923-1.988 7.628-3.253 11.278m30.25-46.447c-.438 2.189-.25 3.701.583 4.761.834 1.06 2.235 1.581 4.423 1.671 6.143.253 12.39.405 18.43.553q3.594.087 7.187.182h.157q.501 0 .997.074c-6.553 7.556-12.984 15.39-19.209 22.975-13.554 16.516-27.55 33.571-43.451 48.477q.941-2.837 1.897-5.669c2.074-6.166 4.214-12.541 6.059-18.894 1.559-5.371 2.8-10.92 4.001-16.288.467-2.084.933-4.167 1.418-6.245.214-1.02.319-2.061.313-3.104.065-5.103-1.634-6.852-6.736-6.928-5.54-.082-11.171-.107-16.618-.129q-3.34-.014-6.68-.033c-.451 0-.9-.003-1.398-.003H9.618q2.214-4.72 4.435-9.395c9.296-19.638 18.08-38.192 24.344-57.95h39.908l-.151.485c-.214.689-.368 1.187-.564 1.661a9479 9479 0 0 1-5.182 12.58c-3.305 8.023-6.727 16.317-10.058 24.49a37 37 0 0 0-2.12 6.729"/></g><defs><clipPath id="a"><path fill="#fff" d="M.777 0h105v155h-105z"/></clipPath></defs></svg>