<svg xmlns="http://www.w3.org/2000/svg" width="159" height="154" fill="none" viewBox="0 0 159 154"><g fill="#000" clip-path="url(#a)"><path d="M154.779 142.458c-2.515-2.954-5.304-5.902-8.523-9.013a18149 18149 0 0 0-37.088-35.708l-9.797-9.415a322 322 0 0 0-3.307-3.12l-1.059-.992.033-.065q.075-.16.173-.306c.35-.398.725-.792 1.114-1.17 7.256-7.07 11.223-15.919 11.791-26.307.984-17.988-5.132-33.246-18.178-45.352A38.48 38.48 0 0 0 66.819.584a61.3 61.3 0 0 0-25.624 2.91c-12.4 4.248-22.552 12.002-31.035 23.71C2.624 37.604-.365 49.087 1.277 61.33c1.147 8.555 4.718 16.588 11.237 25.281 4.502 6.005 10.137 10.129 16.746 12.26a56.6 56.6 0 0 0 16.255 2.729c14.044.294 27.82-3.467 40.986-11.14.571-.334 1.146-.663 1.715-.988l.303-.174a927 927 0 0 1 3.199 3.584c2.563 2.88 4.985 5.599 7.52 8.317 12.977 13.917 27.053 27.154 40.665 39.955l7.589 7.148a37.4 37.4 0 0 0 5.058 3.792l.926.619a4.25 4.25 0 0 0 2.282.75 2.44 2.44 0 0 0 1.985-.933c.75-.953 1.235-2.82.74-3.978a24.3 24.3 0 0 0-3.704-6.095M53.347 12.266q2.146-.235 4.287-.476c19.807-.676 31.627 12.857 36.08 25.743 3.088 8.941 3.721 16.512 1.993 23.827a27.76 27.76 0 0 1-6.966 13.022c-4.885 5.177-11.037 9.013-19.36 12.072a63.2 63.2 0 0 1-30.82 3.52c-8.218-1.094-14.434-4.76-19.006-11.21-4.257-6.005-6.833-11.328-8.11-16.752a36.6 36.6 0 0 1 1.456-21.908c4.5-11.681 12.338-20.117 23.3-25.07 1.955-.884 4.26-1.2 6.488-1.505l.099-.013c3.508-.48 7.093-.872 10.56-1.25z"/><path d="M24.17 48.46c-1.846.203-2.95 1.436-2.815 3.145.094 1.17.733 2.568 3.245 2.569 4.19 0 8.379.003 12.549.003h10.66q3.82-.13 7.607-.247c6.632-.211 13.495-.43 20.21-.744a31 31 0 0 0 5.804-1.03q.578-.14 1.155-.277a3.07 3.07 0 0 0 1.986-1.394 2.35 2.35 0 0 0 .195-1.915 3.9 3.9 0 0 0-2.466-2.274 15.2 15.2 0 0 0-4.483-.304c-2.34.107-4.717.25-7.015.387-2.825.169-5.746.343-8.618.455-5.167.199-10.424.364-15.507.525-4.495.142-8.991.283-13.486.449a125 125 0 0 0-9.021.653"/></g><defs><clipPath id="a"><path fill="#fff" d="M.777 0h158v154h-158z"/></clipPath></defs></svg>