<svg xmlns="http://www.w3.org/2000/svg" width="163" height="161" fill="none" viewBox="0 0 163 161"><g fill="#000" clip-path="url(#a)"><path d="M12.312 160.489c2.448-.035 4.897-.045 7.346-.055 5.657-.022 11.505-.046 17.248-.389a134 134 0 0 0 14.168-1.883q1.814-.311 3.629-.607c.722-.117 1.258-.641 1.937-1.303.324-.318.693-.678 1.132-1.039a.67.67 0 0 0 .222-.677.67.67 0 0 0-.515-.492 53 53 0 0 1-1.517-.33 11.4 11.4 0 0 0-1.93-.338q-7.283-.394-14.565-.77-10.292-.538-20.584-1.104-.36-.017-.72.004c-.894.033-1.519.055-1.953-.867q2.078-1.997 4.173-4.025c3.314-3.203 6.739-6.514 10.177-9.738 13.042-12.238 25.603-25.007 37.329-37.954a21.7 21.7 0 0 0 3.576-4.96 3.56 3.56 0 0 0 .209-2.998 4.12 4.12 0 0 0-2.69-2.16.65.65 0 0 0-.355-.016c-3.593.82-6.126 3.326-8.574 5.75q-.6.598-1.206 1.18c-3.516 3.376-7.114 6.782-10.594 10.078-11.875 11.247-24.155 22.879-35.388 35.195a9 9 0 0 0-.347.415c-.467.585-.774.974-1.51.816-.06-1.467-.093-2.968-.126-4.424a99 99 0 0 0-.702-11.45c-.157-1.127-.28-2.296-.4-3.427-.475-4.468-.965-9.088-3.607-13.178a.666.666 0 0 0-.874-.226c-.277.148-.533.259-.749.353-.518.225-.968.42-1.087.914-2.583 10.752-2.448 21.813-2.32 32.513q.032 2.332.05 4.664c.022 3.286.188 6.47 1.943 9.291a.7.7 0 0 0 .102.13c2.812 2.726 6.247 3.116 8.71 3.116q.18-.007.362-.009M142.52 14.64a25152 25152 0 0 1-26.423 25.547q-9.998 9.66-19.991 19.324l-.065.061c-2.029 1.964-4.127 3.994-6.013 6.168a5.06 5.06 0 0 0-.897 2.33c-.099.454-.2.92-.352 1.428a.667.667 0 0 0 .588.856c.518.04 1.025.125 1.511.208a10 10 0 0 0 1.62.195 2.43 2.43 0 0 0 1.214-.279 21.3 21.3 0 0 0 4.135-3.323l.587-.557q15.049-14.138 30.083-28.29l21.793-20.497c.111-.104.219-.216.33-.325.555-.568.919-.94 1.715-.714.023 1.396.038 2.805.054 4.224.038 3.588.077 7.3.254 10.978q.051 1.088.096 2.18c.199 4.763.406 9.69 1.896 14.553a.66.66 0 0 0 .67.47c2.872-.145 3.362-1.878 3.686-3.024l.074-.256c3.116-10.548 4.139-22.28 3.124-35.864C161.698 3.18 158.58.21 151.787.096a192 192 0 0 0-21.333.54 96 96 0 0 0-13.196 2.531c-1.265.304-2.528.608-3.793.897a3.76 3.76 0 0 0-1.823 1.422c-.259.298-.528.607-.832.897a.666.666 0 0 0 .136 1.067c2.836 1.57 5.435 1.73 7.949 1.883q.61.036 1.217.082c1.204.092 2.407.201 3.61.309 1.859.168 3.781.342 5.682.454 2.028.116 4.089.156 6.082.195q1.286.023 2.571.055a31 31 0 0 0 3.183-.147 23 23 0 0 1 5.342-.007c-.358.393-.696.77-1.022 1.133-1.092 1.21-2.037 2.26-3.04 3.233"/></g><defs><clipPath id="a"><path fill="#fff" d="M.777 0h162v161h-162z"/></clipPath></defs></svg>