<svg xmlns="http://www.w3.org/2000/svg" width="159" height="154" fill="none" viewBox="0 0 159 154"><g fill="#000" clip-path="url(#a)"><path d="M14.558 89.024a32.03 32.03 0 0 0 14.79 9.83 58.1 58.1 0 0 0 16.523 2.698c8.24.187 16.519-1.197 25.319-4.224a79.7 79.7 0 0 0 17.151-8.276q.193.39.465.729c9.843 11.761 20.584 22.512 29.796 31.481 9.318 9.07 18.922 18.142 27.96 26.657a40 40 0 0 0 4.516 3.509c.454.321.913.641 1.364.968a4.5 4.5 0 0 0 2.59.963 3.08 3.08 0 0 0 1.914-.675c1.494-1.158 1.786-3.042.743-4.801l-.529-.9a28.4 28.4 0 0 0-3.834-5.51 960 960 0 0 0-20.224-20.293c-7.87-7.672-15.913-15.43-23.691-22.931a11869 11869 0 0 1-12.692-12.255c-.559-.541-1.08-1.134-1.584-1.708l-.37-.42.2-.223c.29-.325.583-.645.89-.948 7.264-7.069 11.243-15.908 11.825-26.27 1.012-18.006-5.042-33.28-17.992-45.397A38.36 38.36 0 0 0 66.363.493a60.8 60.8 0 0 0-25.19 2.888c-12.318 4.216-22.798 12.264-31.146 23.92C2.58 37.695-.355 49.076 1.294 61.128c1.34 9.855 5.682 18.98 13.264 27.897m38.982-76.82q1.981-.187 3.963-.369c19.706-.772 31.448 12.774 35.868 25.702 3.02 8.837 3.66 16.304 2.016 23.509a27.86 27.86 0 0 1-7.046 13.324 44.5 44.5 0 0 1-14.435 10.04c-12.077 5.419-23.816 7.195-35.888 5.427-7.74-1.133-13.622-4.543-17.983-10.425-4.483-6.043-7.305-11.786-8.627-17.548a36.65 36.65 0 0 1 2.213-23.718c3.86-8.596 8.982-14.935 15.657-19.379 5.302-3.53 10.175-5.362 15.337-5.767 2.979-.236 6.002-.52 8.925-.796"/><path d="M20.916 50.648a2.84 2.84 0 0 0 .555 2.042 2.82 2.82 0 0 0 1.812 1.085c1.23.316 2.495.471 3.764.462 4.862-.187 9.802-.43 14.579-.666l4.679-.229c.802-.039 1.604-.082 2.51-.13l.82-.043.032.282c.053.462.092.8.121 1.141q.187 2.145.37 4.289a877 877 0 0 0 .988 10.985 7.1 7.1 0 0 0 1.016 3.48 5.77 5.77 0 0 0 3.221 2.17q.246.049.496.05c1.313 0 2.45-1.031 2.86-2.665.349-1.232.508-2.511.472-3.792-.17-2.581-.43-5.194-.683-7.72q-.145-1.463-.286-2.925l-.566-5.919.242-.027c.446-.052.787-.09 1.128-.125l4.755-.472c4.296-.424 8.738-.863 13.103-1.339a7.4 7.4 0 0 0 3.432-1.05 3.82 3.82 0 0 0 1.485-3.054c-.122-1.054-1.152-2.102-2.057-2.63a5.54 5.54 0 0 0-2.954-.46c-3.037.116-6.638.272-10.305.548-2.344.176-4.641.41-7.072.66l-2.543.26-.032-.478a171 171 0 0 1-.116-1.833l-.266-4.743q-.266-4.785-.545-9.57c-.109-1.82-1.06-2.959-2.678-3.214a2.5 2.5 0 0 0-1.894.473 3.86 3.86 0 0 0-1.417 2.6 28 28 0 0 0-.22 4.085c-.016 3.361-.013 6.723-.01 10.175v3.406q-1.43.155-2.794.306c-2.367.26-4.602.509-6.842.715-5.458.498-11.017.955-16.211 1.374-2.25.183-2.847 1.458-2.95 2.496"/></g><defs><clipPath id="a"><path fill="#fff" d="M.777 0h158v154h-158z"/></clipPath></defs></svg>