<svg xmlns="http://www.w3.org/2000/svg" width="183" height="165" fill="none" viewBox="0 0 183 165"><g fill="#000" clip-path="url(#a)"><path d="M96.079 92.722A52.65 52.65 0 0 0 79.014 77.48q.009-.163.013-.286c.003-.083.004-.164.01-.222a319 319 0 0 1 3.376-4.898 61.63 61.63 0 0 0 11.542-36.377c-.056-13.165-5.21-22.512-15.76-28.57A46.9 46.9 0 0 0 57.544.819c-12.683-.853-25.466.203-37.831 1.226q-2.978.246-5.953.485C2.709 3.402 2.126 3.996 1.303 15.24.718 23.227.719 31.38.72 39.262l-.004 8.291C.702 65.438.688 83.931.982 102.118c.197 12.094.637 24.384 1.064 36.269q.29 8.118.562 16.236c.01.316.005.633 0 .95q-.033.905.065 1.805c.533 4.103 2.49 6.11 6.543 6.712a21 21 0 0 0 3.143.202c.568 0 1.128-.014 1.676-.03q3.45-.102 6.902-.197c8.331-.238 16.946-.484 25.417-.848l.328-.014c9.158-.394 18.628-.804 27.911-1.63 15.036-1.339 25.15-10.417 30.061-26.979 4.217-14.247 1.334-28.334-8.575-41.872M61.773 72.87c-3.09-.569-6.333-.381-9.469-.197-.698.04-1.394.081-2.086.113-9.701.454-19.358.957-29.582 1.49-3.7.198-7.462.39-11.313.592.262-8.802-.06-17.582-.374-26.08-.46-12.494-.939-25.406.5-38.265q1.125-.07 2.228-.142c2.016-.131 3.92-.253 5.857-.338 2.545-.112 5.09-.238 7.635-.365 6.754-.334 13.738-.68 20.603-.737 5.459-.047 11.058.662 15.992 1.285 6.24.788 12.053 3.87 17.767 9.416 3.337 3.238 4.842 7.695 4.882 14.448A52.26 52.26 0 0 1 71.72 68.94c-2.944 3.5-5.917 4.667-9.948 3.93M10.55 82.677a14.4 14.4 0 0 1 2.896-.478c4.785-.095 9.654-.137 14.364-.176 8.978-.075 18.26-.153 27.377-.616 22.447-1.153 38.605 17.124 41.253 35.446 1.496 10.354-1.256 19.619-8.183 27.536a17.64 17.64 0 0 1-10.43 6.12l-.827.141a78 78 0 0 1-9.741 1.237c-15.636.625-31.541 1.124-46.923 1.607l-2.853.089a33 33 0 0 1-3.617-.159 158 158 0 0 0-1.67-.123l-2.822-70.36c.409-.088.798-.178 1.176-.262zm145.317 17.161a32.82 32.82 0 0 0-26.491 8.491 32.34 32.34 0 0 0-9.969 25.521 25 25 0 0 0 8.9 18.086c5.865 5.076 14.138 7.647 22.36 7.647 7.508 0 14.975-2.145 20.523-6.486a17.4 17.4 0 0 0 4.733-5.864c.657-1.318-.191-3.917-1.303-4.896-1.08-.948-3.019-.895-4.759-.774-.953.065-1.783.904-2.452 1.575l-.131.131c-6.163 6.17-13.914 7.919-25.128 5.659-8.453-1.702-13.566-8.243-13.778-17.562h6.48c5.251-.003 10.344-.005 15.437.005q4.311.01 8.621.041c5.568.034 11.324.07 16.985.014 4.881-.047 6.329-1.43 6.462-6.162.182-6.531-1.702-11.712-5.76-15.843-5.336-5.428-12.116-8.56-20.73-9.583m17.402 23.477-43.76.859c4.024-10.668 11.502-16.381 21.327-16.381a27 27 0 0 1 3.267.201c11.585 1.399 18.029 6.552 19.166 15.321m-2.699-41.947c-.394.009-.691-.006-.911.018-3.348.29-6.584.569-9.736.838-8.583.737-16.691 1.431-24.717 2.208a20.1 20.1 0 0 0-6.667 1.746 3.41 3.41 0 0 0-1.969 3.197 3.75 3.75 0 0 0 2.337 3.338 9.6 9.6 0 0 0 3.604.639q.319 0 .597-.014c12.87-.605 25.949-1.288 38.598-1.948l1.327-.07a13.8 13.8 0 0 0 3.234-.42c2.678-.793 4.114-2.634 3.938-5.054-.185-2.549-1.961-4.244-4.635-4.423-1.903-.131-3.841-.085-5-.055"/></g><defs><clipPath id="a"><path fill="#fff" d="M.131.047h182.462v164.741H.131z"/></clipPath></defs></svg>