<svg xmlns="http://www.w3.org/2000/svg" width="183" height="178" fill="none" viewBox="0 0 183 178"><g clip-path="url(#a)"><path fill="#000" d="M9.891 131.302c5.841 13.772 13.668 22.656 24.625 27.96a533 533 0 0 1 4.463 2.194c3.689 1.828 7.504 3.717 11.36 5.356 16.525 7.022 31.344 10.447 45.59 10.447 5.105 0 10.2-.443 15.227-1.326 25.208-4.413 44.519-16.965 57.399-37.306 6.825-10.785 10.943-23.153 12.951-38.92 3.023-23.749-3.393-46.444-19.069-67.456-10.626-14.242-26.071-23.646-47.216-28.747C103.134.585 90.136.003 75.484 1.72 59.076 3.643 45.182 9.556 33.01 19.798a117.5 117.5 0 0 0-22.96 25.697C2.896 56.487.14 69.164.84 87.878c-1.175 12.506 1.617 25.901 9.051 43.424M132.633 19.296c15.612 8.139 26.734 20.27 33.057 36.066q.47 1.173.944 2.343c2.739 6.772 5.558 13.757 6.26 21.195a31.7 31.7 0 0 0-6.089-.807c-10.208-.57-20.895.353-33.628 2.902-4.822.965-9.714 2.096-14.44 3.19a1853 1853 0 0 1-6.082 1.395l-12.438-21.71q.448-.482.88-.959c.837-.919 1.628-1.781 2.481-2.577 9.911-9.232 17.499-21.113 23.877-37.387a17.7 17.7 0 0 0 1.104-5.645 96 96 0 0 1 4.074 1.993m.171 139.325c-.041-1.532-.182-3.054-.34-4.51-2.1-19.272-6.284-35.928-12.799-50.92a44 44 0 0 1-1.585-4.556q-.237-.78-.481-1.544c10.29-4.422 36.833-8.139 49.942-5.825q.403.073.807.152a14 14 0 0 0 3.329.37q.721-.038 1.425-.205c-.497 16.802-4.121 29.845-11.381 41.341a67.83 67.83 0 0 1-28.917 25.697m-99.45-11.897c-6.32-3.912-11.293-9.78-14.78-17.444-7.043-15.472-10.1-29.041-9.62-42.703.171-1.923.315-3.85.46-5.776l.014-.184q1.237.495 2.521.856c24.872 7.003 49.41 4.407 72.938-7.719a1091 1091 0 0 0 4.498-2.334l1.842-.958c4.197 6.629 7.557 12.476 10.178 19.047l-1.51.678a138 138 0 0 0-3.8 1.75c-1.642.797-3.296 1.576-4.947 2.355-3.974 1.872-8.083 3.806-11.99 5.981a116 116 0 0 0-40.057 36.755 68 68 0 0 0-5.32 9.955zm7.581 4.272a211 211 0 0 0 1.676-2.629c1.334-2.115 2.713-4.3 4.236-6.306 13.914-18.316 32.574-31.964 55.469-40.562a22 22 0 0 1 2.888-.787q.529-.12 1.088-.253c5.41 13.833 10.953 28.135 12.983 43.306q.25 1.86.491 3.721c.615 4.695 1.252 9.549 2.065 14.299.055.319.126.625.204.923a89 89 0 0 1-11.016 2.516c-23.032 3.779-46.06-.84-70.162-14.111zm76.041-133.534-.057.21c-2.123 7.87-5.946 15.584-12.393 25.006a55.2 55.2 0 0 1-11.011 11.83q-1.195-1.558-2.344-3.065c-1.925-2.523-3.744-4.907-5.627-7.286-9.458-11.945-17.462-20.412-25.951-27.463a22 22 0 0 0-2.44-1.742A71 71 0 0 1 72.15 10.87c17.022-2.72 32.358-1.878 46.464 2.59a11.5 11.5 0 0 0-1.638 4.001m-67.52 2.078c2.055 2.113 4.211 4.189 6.297 6.197 2.834 2.73 5.765 5.55 8.461 8.485a189.3 189.3 0 0 1 20.77 26.992q-.787.514-1.468.966c-1.137.753-2.12 1.404-3.116 1.948-20.37 11.096-42.59 14.15-66.04 9.08-1.478-.321-2.864-.595-4.227-.78.158-1.521.328-3.04.548-4.542 1.276-8.823 4.124-15.759 8.71-21.2 5.106-6.061 11.11-13.04 17.748-19.155a64.5 64.5 0 0 1 11.789-8.633q.242.339.528.642"/></g><defs><clipPath id="a"><path fill="#fff" d="M.007.484H182.47v177.21H.007z"/></clipPath></defs></svg>