<svg xmlns="http://www.w3.org/2000/svg" width="102" height="146" fill="none" viewBox="0 0 102 146"><path fill="#000" d="M83.133 36.334c2.216-.269 4.5-.376 6.71-.48q1.324-.06 2.65-.132c3.8-.221 6.315-2.276 6.9-5.635 1.607-9.208 1.652-16.725.146-23.657-.753-3.463-3.032-5.273-6.387-5.112-3.326.163-6.724.262-10.01.358-8.454.245-17.196.498-25.632 1.874-15.055 2.455-24.48 11.96-26.547 26.768a115 115 0 0 0-.812 12.944c-.043 1.72-.087 3.498-.162 5.239-.057 1.304-.043 2.63-.028 4.032q.008.736.012 1.526c-1.39.047-2.726.092-4.024.132-3.296.106-6.408.206-9.485.354l-1.352.062a74 74 0 0 0-8.11.663c-3.84.599-5.264 2.17-5.448 6.003-.29 6.104-.586 13.199-.419 20.224.143 5.973 2.806 8.467 9.194 8.607 2.625.057 5.288-.02 7.863-.096 1.622-.048 3.3-.098 4.946-.112q1.476 0 2.944.162c.262.023.525.046.775.066l.174.45q.151.316.21.662c.058 13.956.115 28.832.126 43.772.006 7.162 1.736 9.008 8.818 9.404 5.788.324 11.682.37 17.379.414l2.18.017h.57c8.311 0 9.99-1.696 11.008-10.498q.296-2.379.336-4.775c.08-8.926.132-17.997.183-26.772l.016-2.868c.01-1.775.008-3.55.005-5.49v-2.325c1.539 0 3.005.004 4.42.006 3.479.006 6.757.01 9.977-.014 4.684-.036 8.073-2.314 9.546-6.413 2.207-6.145 4.322-12.88 6.467-20.587.554-1.99.337-3.719-.628-5-.995-1.321-2.674-2.03-4.857-2.047-3.863-.032-7.796.113-11.593.253-1.98.073-3.96.145-5.938.197-1.47.037-2.97.028-4.421.017l-1.491-.008q-.132-.508-.247-.919a13 13 0 0 1-.41-1.8 14.7 14.7 0 0 1-.143-3.207c.954-9.378 2.103-14.754 14.59-16.26m2.846 32.672-3.493 12.37-3.698.062c-2.93.047-5.795.094-8.663.15-11.594.231-13.123 1.68-13.636 12.923-.348 7.622-.39 15.379-.43 22.88a1342 1342 0 0 1-.073 9.48 359 359 0 0 0-.01 5.461l.006 2.171c-5.378.95-10.231.621-15.359.273l-1.723-.114q-.07-.43-.141-.84a18 18 0 0 1-.314-2.49q-.228-7.897-.423-15.795c-.225-8.729-.456-17.754-.764-26.63-.257-7.476-2.008-9.031-9.877-8.815-3.681.105-7.325.31-11.181.525q-2.257.129-4.598.253V65.29q.54-.075 1.072-.152a32 32 0 0 1 3.437-.376c2.007-.075 4.052-.109 6.03-.14 2.889-.047 5.869-.096 8.803-.274 7.391-.447 8.795-1.909 8.83-9.194.01-2.132-.004-4.266-.018-6.396-.021-3.425-.044-6.965.04-10.44.1-2.224.34-4.44.716-6.634l.189-1.277c1.391-9.554 7.345-15.44 18.203-17.995l.725-.174c1.227-.35 2.49-.56 3.763-.63 6.327-.058 12.565-.05 19.17-.043q3.12.004 6.302.005c1.2 4.756.553 9.673-.3 13.932q-1.304.231-2.61.459c-2.202.383-4.48.78-6.715 1.235-12.263 2.494-17.841 8.61-19.254 21.101q-.116 1.023-.236 2.046c-.387 3.3-.788 6.712-.853 10.09-.114 5.873 1.918 8.04 7.766 8.281 3.316.137 6.685.075 9.941.015 1.802-.033 3.664-.065 5.493-.065a24 24 0 0 1 2.784.218c.346.038.709.08 1.1.122z"/></svg>