<svg xmlns="http://www.w3.org/2000/svg" width="183" height="157" fill="none" viewBox="0 0 183 157"><g fill="#000" clip-path="url(#a)"><path d="M119.34 1.87C97.216-1.323 75.64.518 55.216 7.347c-18.025 6.027-31.943 16.6-41.367 31.43C5.286 52.255-2.858 68.74 1.672 88.833c2.575 11.42 6.367 23.398 16.583 33.711l-.996 5.07c-.885 4.509-1.773 9.043-2.68 13.574-.194.968-.437 1.955-.672 2.91a36 36 0 0 0-1.087 5.728c-.197 2.475.558 4.483 2.118 5.653a5.3 5.3 0 0 0 3.249 1.029 8.3 8.3 0 0 0 2.932-.581 19 19 0 0 0 2.595-1.297 28 28 0 0 1 1.641-.88q3.307-1.575 6.624-3.132c3.614-1.702 7.35-3.462 11.007-5.245a6.66 6.66 0 0 1 5.848-.135 66.6 66.6 0 0 0 11.731 3.32c21.358 3.965 43.397 2.467 65.507-4.451 16.917-5.294 30.156-13.11 40.471-23.895 10.085-10.545 15.33-22.513 16.035-36.577 1.058-21.139-5.796-40.07-20.953-57.874-11.454-13.454-25.68-21.492-42.285-23.89M24.007 114.038a42.3 42.3 0 0 1-9.93-19.963 130 130 0 0 1-2.487-17.886 29.8 29.8 0 0 1 1.279-11.01c8.093-24.264 22.787-39.868 44.924-47.704a119.4 119.4 0 0 1 40.282-6.906c7.749.022 15.483.69 23.121 1.997 10.844 1.822 20.654 7.268 29.157 16.187 16.119 16.906 23.138 35.263 21.456 56.117-.834 10.352-5.086 19.382-12.995 27.606-7.773 8.081-17.512 14.171-29.772 18.616-22.752 8.25-45.588 10.108-67.87 5.514a40 40 0 0 1-9.823-3.655c-3.841-1.936-7.994-3.112-12.33 1.348-3.621 3.723-8.357 5.761-14.134 7.889.249-1.794.485-3.519.715-5.194.606-4.411 1.177-8.577 1.794-12.677.58-3.843-.466-7.013-3.387-10.278z"/><path d="M37.425 102.413c.312.005.623-.044.919-.146 2.406-.878 4.585-2.44 6.507-3.817 5.71-4.09 11.493-8.28 17.084-12.333q5.65-4.095 11.308-8.18c1.284-.927 2.625-1.822 4.183-2.859a565 565 0 0 0 2.1-1.403q.238.378.456.737a16 16 0 0 0 1.65 2.363l2.748 3.066c4.403 4.918 8.957 10.003 13.592 14.864 4.71 4.937 6.992 5.024 12.208.466 4.633-4.049 9.183-7.985 13.914-11.626 3.746-2.887 7.629-5.73 11.383-8.481 3.368-2.469 6.849-5.02 10.228-7.597a18.45 18.45 0 0 0 5.141-5.52c.846-1.53.474-4.208-.426-5.58-.812-1.239-3.601-1.556-4.992-1.105a23.8 23.8 0 0 0-6.656 3.529c-8.667 6.34-17.15 12.643-26.132 19.316l-8.598 6.384-.631-.56c-.706-.62-1.371-1.207-1.969-1.845a876 876 0 0 1-5.591-6.038c-2.66-2.888-5.408-5.87-8.156-8.765-4.505-4.747-7.852-5.155-13.273-1.616a40 40 0 0 0-2.231 1.59 43571 43571 0 0 0-34.892 26.446c-.215.164-.44.328-.665.488a8.5 8.5 0 0 0-2.494 2.358c-.513.863-1.398 3.427-.434 4.354a5.96 5.96 0 0 0 3.719 1.51"/></g><defs><clipPath id="a"><path fill="#fff" d="M.342.024h182.462V156.89H.342z"/></clipPath></defs></svg>