<svg xmlns="http://www.w3.org/2000/svg" width="173" height="169" fill="none" viewBox="0 0 173 169"><g clip-path="url(#a)"><path fill="#000" d="M162.043 76.775a34 34 0 0 0-3.497-.178c-3.82.05-7.639.095-11.507.14-11.915.14-24.235.283-36.352.582-4.554.22-9.085.777-13.557 1.668-3.42.6-5.355 2.93-5.048 6.079.271 2.802 2.313 4.612 5.462 4.843 3.959.292 8.04.247 11.555.181q11.593-.219 23.184-.48l1.484-.032q10.234-.222 20.468-.427c1.247-.026 2.499.054 4.084.153l.22.014 1.239.074c-1.051 24.784-10.593 42.412-29.15 53.878-19.881 12.283-41.529 16.73-64.342 13.219-15.101-2.326-27.193-9.416-35.94-21.076-11.842-15.782-18.1-32.914-18.6-50.92-.824-29.558 13.258-52.476 39.648-64.533 10.194-4.655 18.841-7.29 27.215-8.29 23.37-2.794 42.279 2.65 57.798 16.652.163.147.323.299.515.482.518.527 1.088 1 1.701 1.411 2.545 1.606 5.169 1.407 7.2-.549 2.186-2.1 2.44-4.966.649-7.295a28.4 28.4 0 0 0-5.576-5.364A83.64 83.64 0 0 0 95.925.402C72.714-1.166 50.907 5.265 31.102 19.526 15.351 30.87 5.608 46.82 2.151 66.936c-3.424 19.92-.111 39.979 9.845 59.622 5.027 9.915 10.628 17.692 17.125 23.777 12.587 11.791 28.404 17.746 48.353 18.202.775.017 1.546.026 2.322.026 14.454 0 28.89-3.072 44.129-9.39 15.351-6.367 27.268-15.897 35.418-28.335 7.961-12.145 12.142-26.76 12.433-43.438.135-7.674-1.958-9.959-9.733-10.625"/></g><defs><clipPath id="a"><path fill="#fff" d="M.466.078h171.961v168.68H.467z"/></clipPath></defs></svg>