<svg xmlns="http://www.w3.org/2000/svg" width="108" height="140" fill="none" viewBox="0 0 108 140"><g clip-path="url(#a)"><path fill="#000" d="M95.59 20.86A45.62 45.62 0 0 0 71.94 3.183c-10.295-3.455-21.52-3.37-32.46.245a59.43 59.43 0 0 0-27.334 19.034C2.833 34.058-.587 47.928 1.69 64.872a35.3 35.3 0 0 0 2.404 7.967l.305.788a3.4 3.4 0 0 0 1.796 1.954 2.97 2.97 0 0 0 2.39-.103c1.822-.82 1.514-2.41 1.313-3.463q-.046-.232-.085-.463a176 176 0 0 0-.641-3.589 64 64 0 0 1-1.203-8.578C6.823 35.258 21.507 15.705 45.38 9.575c16.714-4.294 30.745-.092 41.709 12.48a55 55 0 0 1 11.594 22.597 34.67 34.67 0 0 1-22.882 41.78 70.6 70.6 0 0 1-12 2.757 42 42 0 0 1-6.957.156 143 143 0 0 0-2.517-.066l.107-.618c.143-.828.268-1.546.41-2.26 1.847-9.327 3.755-20.203 2.996-31.242a42.3 42.3 0 0 0-2.52-12.297c-1.385-3.584-3.61-5.913-6.427-6.737-2.926-.853-6.21-.029-9.498 2.386-4.1 3.012-6.864 6.391-8.454 10.34-1.706 4.232-3.467 8.608-4.482 13.107-3.202 14.177 2.307 26.29 15.114 33.233q.3.19.55.445l.051.048a648 648 0 0 0-.998 3.9c-.788 3.102-1.603 6.308-2.506 9.41-1.127 3.867-2.326 7.785-3.485 11.575-1.064 3.478-2.166 7.07-3.205 10.618-1.032 3.509.084 6.477 2.773 7.386a5 5 0 0 0 1.623.281c2.232 0 4.1-1.676 5.172-4.741.722-2.062 1.358-4.187 1.973-6.242l.252-.84q3.063-10.21 6.107-20.408l2.395-8.013a228 228 0 0 1 3.95-.22 94 94 0 0 0 9.904-.844c14.067-2.205 23.82-7.11 30.69-15.436 8.131-9.853 11.569-20.281 10.511-31.887-.885-9.666-4.615-18.994-11.74-29.363M48.322 54.092c-.285 6.487-.836 13.369-1.686 21.038-.306 2.765-.868 5.453-1.464 8.298-.207.99-.415 1.983-.612 2.983-7.071-3.518-11.408-11.975-9.946-19.651.975-5.12 2.904-10.19 4.636-14.538 1.201-3.02 3.544-5.454 6.967-7.25a15.65 15.65 0 0 1 2.105 9.12"/></g><defs><clipPath id="a"><path fill="#fff" d="M.934.554h106.983v138.487H.934z"/></clipPath></defs></svg>