<svg xmlns="http://www.w3.org/2000/svg" width="76" height="123" fill="none" viewBox="0 0 76 123"><g clip-path="url(#a)"><path fill="#000" d="M11.854 69.333c0 4.332.057 8.483-.016 12.63-.077 4.377-.17 28.448-.48 32.81a12.95 12.95 0 0 1-1.371 5.135c-1.617 2.976-5.331 3-7.089.1a10.1 10.1 0 0 1-1.283-4.12c-.344-3.459-.701-26.64-.603-30.105.54-19.197 1.12-38.395 1.903-57.583.224-5.479 1.131-10.934 1.838-16.386.165-1.562.59-3.086 1.258-4.508.565-1.115 1.558-2.378 2.658-2.8 17.246-6.62 34.06-5.071 50.407 3.076a29.83 29.83 0 0 1 12.632 11.315c4.669 7.758 4.777 15.516-.25 23.125-4.49 6.797-10.599 11.894-17.71 15.733-12.832 6.928-26.491 10.973-41.156 11.297a3 3 0 0 0-.738.281m-.215-10.78c2.944-.398 5.49-.793 8.05-1.08a82.8 82.8 0 0 0 29.913-9.56A40.2 40.2 0 0 0 63.18 36.575c3.265-4.375 3.242-8.901.548-13.499-2.034-3.472-5.022-5.99-8.404-8.073-11.744-7.24-24.542-8.73-37.903-6.743-5.212.775-5.73 1.504-5.768 6.79-.099 13.682-.124 27.368-.168 41.048-.002.765.094 1.532.154 2.455"/></g><defs><clipPath id="a"><path fill="#fff" d="M.706.086h74.823v122.08H.706z"/></clipPath></defs></svg>