<svg xmlns="http://www.w3.org/2000/svg" width="160" height="147" fill="none" viewBox="0 0 160 147"><g clip-path="url(#a)"><path fill="#000" d="M153.473 106.27q-.986-.706-1.956-1.419a630 630 0 0 0-1.859-1.35c-11.471-8.247-17.054-20.084-18.081-38.347l3.251-2.464a1761 1761 0 0 0 9.675-7.365l.575-.44a25.4 25.4 0 0 0 3.692-3.215c2.221-2.495 2.297-5.82.176-7.902-1.969-1.93-4.579-2.162-7.168-.636a15.7 15.7 0 0 0-2.46 1.924c-.281.25-.56.501-.847.74l-8.562 7.133-.152-.832c-.328-1.816-.59-3.251-.998-4.707-.48-1.723-.919-3.513-1.345-5.245l-.025-.1c-1.111-4.53-2.26-9.216-4.274-13.48-6.34-13.43-17.13-22.59-31.203-26.49C74.467-2.76 54.824 5.08 44.142 21.14c-6.497 9.773-8.573 20.66-9.653 29.053-.222 1.722-.449 3.445-.722 5.521l-.102.77-1.362-1.313a681 681 0 0 0-6.391-6.11l-.328-.31a19.8 19.8 0 0 0-3.532-2.85 5.84 5.84 0 0 0-7.779 1.356 5.485 5.485 0 0 0 .197 7.224 30.5 30.5 0 0 0 4.092 3.838 1699 1699 0 0 0 10.112 8.28l3.294 2.685c-.131 11.307-3.054 22.34-8.236 31.101-4.438 7.503-10.401 11.607-18.231 12.545-1.043.124-4.015-.311-4.731 2.638-1.209 4.978.489 6.65 5.644 9.154 4.024 1.953 8.252 3.592 12.374 5.19 2.28.884 4.636 1.798 6.918 2.752 1.478.617 2.965 1.326 3.832 2.323 4.377 5.021 7.842 5.968 13.73 3.751 1.445-.545 2.833-1.223 4.198-1.891l.811-.394c4.29-2.078 8.046-1.716 11.82 1.14a53.6 53.6 0 0 0 11.31 6.57 26.8 26.8 0 0 0 10.413 2.277h.005a22.34 22.34 0 0 0 13.812-4.916c.71-.544 1.431-1.077 2.2-1.645q.786-.58 1.568-1.166a20.97 20.97 0 0 1 16.775-4.081c.59.097 1.19.206 1.788.314l.117-.646-.032.661c2.325.515 4.703.754 7.084.712 3.917-.216 6.691-1.094 8.245-2.608 2.062-2.008 3.006-6.315 5.662-6.957 6.255-1.51 13.895-.073 17.524-6.778 3.83-7.076 3.541-8.296-3.095-13.061m-4.876 8.892c-4.736 5.032-12.384-.375-16.88 4.121-1.453 1.453-.162 6.438-4.027 7.162-1.302.243-5.851.313-6.993-.146-9.276-3.733-18.181-2.275-27.213 4.457-.844.628-1.56 1.21-2.19 1.776-5.688 5.132-11.9 5.767-18.987 1.94l-.806-.433a53 53 0 0 1-6.543-3.93c-3.483-2.59-7.122-3.903-10.817-3.903-3.35.081-6.627.997-9.533 2.667-4.818 2.605-5.775 1.685-8.273-.263-3.7-2.883-4.977-4.201-7.745-4.879a145 145 0 0 1-10.256-2.918 38 38 0 0 1-4.003-1.653l-.372-.17c9.934-4.069 17.046-11.918 21.729-23.979 3.144-8.1 4.388-16.563 5.482-25.244l.438-3.484c1.087-8.69 2.212-17.677 3.884-26.385 1.408-7.336 5.213-14.12 11.307-20.163C67.441 9.18 87.212 4.822 102.888 17.529c9.268 7.512 14.669 17.638 16.513 30.959 1.095 7.918 2.161 15.979 3.192 23.775l.561 4.24c2.015 15.218 9.625 27.463 22.619 36.395.783.539 1.532 1.171 2.398 1.903z"/></g><defs><clipPath id="a"><path fill="#fff" d="M.035.616h159.49V146.98H.035z"/></clipPath></defs></svg>