<svg xmlns="http://www.w3.org/2000/svg" width="178" height="176" fill="none" viewBox="0 0 178 176"><g fill="#000" clip-path="url(#a)"><path d="M28.808 73.329c.247.072.506.1.764.08.155.01.313.022.472.022a2 2 0 0 0 .718-.115 8 8 0 0 0 1.911-1.067c11.646-8.567 25.32-13.802 40.641-15.555a151 151 0 0 1 16.02-1.2c20.198-.14 36.952 1.273 52.967 8.711a9 9 0 0 0 2.055.715 5.746 5.746 0 0 0 6.651-3.733c.889-2.612-.045-4.906-2.626-6.462a11.2 11.2 0 0 0-2.761-1.062c-.381-.11-.761-.217-1.132-.343-23.88-8.076-48.962-9.743-76.68-5.095A80.8 80.8 0 0 0 33.6 62.218a31.5 31.5 0 0 0-6.135 6.32 3.05 3.05 0 0 0-.645 2.63 3.32 3.32 0 0 0 1.987 2.16M136.57 89.541c-.443-.16-.877-.314-1.323-.44-22.524-6.314-44.785-7.75-66.169-4.267-7.863 1.282-15.596 3.49-22.227 5.459-3.011.894-5.735 2.723-8.37 4.49l-.582.395a5.28 5.28 0 0 0-1.915 4.014c.02.968.643 1.82 1.247 2.643.235.322.478.656.669.974a.68.68 0 0 0 .58.328q.136.001.262-.052c1.599-.67 3.072-1.333 4.496-1.975a63 63 0 0 1 8.09-3.224 135.4 135.4 0 0 1 56.269-4.38 168 168 0 0 1 17.158 3.524c2.954.714 6.002 1.452 9.022 2.092 3.938.832 6.771-.317 7.573-3.078.572-1.97.208-4.697-4.78-6.503m-12.675 33.467a24 24 0 0 0-4.904-2.532c-18.027-6.534-34.381-7.626-50.001-3.336-5.373 1.475-10.54 3.82-15.096 5.889-1.695.768-3.02 2.398-4.184 3.835l-.34.42a3.08 3.08 0 0 0 .102 3.329 4.72 4.72 0 0 0 3.095 1.453q.129 0 .258-.013a7.7 7.7 0 0 0 2.57-.919q.635-.332 1.301-.591c1.122-.405 2.24-.828 3.358-1.251a91 91 0 0 1 8.643-2.94c13.822-3.676 28.007-2.949 43.37 2.217 1.855.624 3.713 1.158 5.863 1.777 1.06.304 2.183.627 3.398.988a.67.67 0 0 0 .565-.085c.252-.167.59-.345.943-.533a7.4 7.4 0 0 0 2.87-2.207c1.197-1.83.487-3.99-1.811-5.501"/><path d="M176.853 80.643a92.57 92.57 0 0 0-20.551-48.407c-9.385-11.514-19.478-19.722-30.86-25.08a65.8 65.8 0 0 0-28.47-6.52 71 71 0 0 0-9.058.591c-12.499 1.62-25.169 5.247-39.858 11.42C28.185 21.002 14.354 35.36 6.946 55.31a96.4 96.4 0 0 0-5.854 42.997c1.561 16.392 5.506 29.099 12.41 39.971 9.977 15.696 22.543 26.035 38.424 31.593 9.628 3.374 20.225 5.068 33.342 5.335 7.719 0 14.904-.933 21.856-1.838l1.317-.17c15.172-1.962 28.055-7.437 39.393-16.725 10.953-8.984 18.798-20.034 23.312-32.836 5.426-15.399 7.29-29.467 5.707-42.993m-17.909 48.897c-8.585 17.384-23.023 28.788-42.93 33.894-2.391.615-4.863 1.058-7.475 1.525-1.295.229-2.65.473-4.069.747-6.194.932-14.55 1.074-19.152 1.074-2.05 0-3.36-.031-3.397-.031-12.093-.147-22.498-2.198-31.8-6.275-12.396-5.432-22.305-14.601-30.283-28.026-4.818-8.095-7.876-17.679-9.613-30.157a92 92 0 0 1 5.662-46.933c6.253-15.86 17.501-27.895 33.428-35.76 3.675-1.82 18.626-6.201 22.556-7a110 110 0 0 1 16.777-2.02c22.297-.534 31.104 3.056 44.721 13.454 14.261 10.886 24.311 24.57 29.876 40.666 7.562 21.922 6.119 43.739-4.301 64.838z"/></g><defs><clipPath id="a"><path fill="#fff" d="M.314.177h177.211v175.242H.315z"/></clipPath></defs></svg>