<svg xmlns="http://www.w3.org/2000/svg" width="161" height="160" fill="none" viewBox="0 0 161 160"><g fill="#000" clip-path="url(#a)"><path d="M160.354 97.518c.016-6.315.035-13.474-.004-20.319-.035-6.2-.255-12.49-.469-18.574l-.136-3.928c-.049-1.461-.089-2.925-.131-4.397-.131-4.829-.268-9.822-.747-14.739a88.4 88.4 0 0 0-2.71-14.345C152.481 7.615 139.117 1.177 128.252.95c-4.217-.084-8.571.181-12.415.414-2.535.154-5.157.313-7.757.386-3.681.102-7.433.131-11.105.16-3.162.025-6.432.05-9.7.124q-4.771.11-9.544.215l-1.931.043c-14.94.331-30.389.673-45.58 1.188-14.298.484-25.86 9.819-28.113 22.7-.886 5.069-.913 10.286-.863 15.631.156 16.381.39 33.038.616 49.147l.007.492q.166 11.765.323 23.529l.032 2.255c.057 3.972.116 8.08 0 12.1-.394 13.772 11.776 27.158 25.535 28.084 2.537.125 5.078.113 7.614-.037l.258-.01c1.503-.062 3.05-.124 4.583-.113 10.188.054 19.296.153 27.842.304 14.164.248 28.5.551 42.61.899 1.129.063 2.249.221 3.351.472.561.11 1.122.22 1.678.309q.109.018.219.018h6.716q.1 0 .197-.015a268 268 0 0 1 4.064-.556c2.924-.386 5.949-.784 8.9-1.407 13.783-2.912 24.836-17.013 24.641-31.433-.125-9.495-.1-19.07-.076-28.332m-10.149 17.679v.171l.041 11.128c.027 8.614-6.914 18.045-15.156 20.593a57.6 57.6 0 0 1-19.413 2.403c-9.159-.377-18.312-.811-27.157-1.23l-11.122-.525-25.318-.009q-9.17 0-18.3.014h-.132c-6.403 0-11.207-1.611-15.11-5.064-4.791-4.242-7.046-10.079-7.088-18.374-.131-24.801-.254-54.201-.208-84.218a34.2 34.2 0 0 1 3.933-16.417c2.379-4.397 5.867-7.134 10.087-7.917 6.983-1.299 13.818-2.478 20.679-2.663 17.54-.475 35.383-.753 52.638-1.022h.163q13.014-.201 26.027-.429c4.529-.092 9.041 1.259 14.205 4.216 5.52 3.164 7.294 8.936 8.3 14.166 2.166 11.253 3.124 20.682 3.013 29.674-.222 18.501-.15 37.311-.085 55.501z"/><path d="M123.359 45.743a21 21 0 0 0-3.947-.131q-6.221.307-12.441.648l-1.233.066q-4.057.217-8.113.427c-3.102.16-6.204.305-9.367.452l-3.134.147-.007-.072c-.074-.8-.138-1.492-.137-2.157q.005-4.068.038-8.147c.017-2.88.035-5.758.038-8.635v-.328a9 9 0 0 0-.445-3.466 4.1 4.1 0 0 0-3.106-2.28 4.2 4.2 0 0 0-3.408 1.655 7.3 7.3 0 0 0-1.133 3.478c-.646 6.13-1.093 10.875-1.452 15.383-.112 1.414-.084 2.843-.055 4.236l.003.154.01.59-.11.016q-.844.141-1.697.197-11.805.46-23.613.893l-3.552.132a10 10 0 0 1-.87-.023l-.099-.005a5.8 5.8 0 0 0-2.866.338 6.47 6.47 0 0 0-3.278 3.324 3.74 3.74 0 0 0 .205 2.99 4.3 4.3 0 0 0 2.72 2.1c1.623.453 3.298.691 4.983.708 2.739.018 5.606-.044 7.908-.088 1.845-.036 3.69-.072 5.534-.085 3.507-.026 7.1-.02 10.574-.014l3.614.005c0 .375 0 .736.006 1.096q.1 5.77.162 11.546c.116 9.424.236 19.165.657 28.748a96.5 96.5 0 0 0 2.743 18.101c1.632 6.923 5.18 12.116 10.547 15.436a33.58 33.58 0 0 0 22.003 5.156c5.925-.667 10.267-2.777 13.272-6.452 2.302-2.816 2.662-5.986.894-7.889-2.636-2.838-5.455-1.195-7.318-.109l-.096.055c-4.266 2.485-8.172 3.486-12.298 3.15-9.058-.731-14.157-4.898-16.535-13.512a39 39 0 0 1-1.154-5.049c-2.37-17.22-2.509-35.107-2.626-50.912a15 15 0 0 1 1.628-.19q17.935-.73 35.872-1.419c3.159-.119 5.237-1.938 5.424-4.747.184-2.853-1.722-5.072-4.745-5.517"/></g><defs><clipPath id="a"><path fill="#fff" d="M.624.709H160.77v158.834H.624z"/></clipPath></defs></svg>