<svg xmlns="http://www.w3.org/2000/svg" width="160" height="161" fill="none" viewBox="0 0 160 161"><g fill="#000" clip-path="url(#a)"><path d="M30.766 138.19c.019 1.08.028 2.163.038 3.245.029 3.143.058 6.392.315 9.583.59 7.339 2.625 9.243 9.905 9.261h.745c3.668 0 7.379-.061 10.976-.12s7.296-.121 10.954-.121c.312 0 .618-.009.934 0 3.554 0 6.126-1.382 7.865-4.225a80 80 0 0 0 4.229-7.722c1.533-3.259 2.97-6.542 4.493-10.016q.9-2.053 1.843-4.194l7.362-.542c5.734-.424 11.304-.835 16.873-1.242q2.403-.176 4.802-.362c4.364-.335 8.875-.68 13.314-.892 3.047-.146 5.258-1.169 6.957-3.223q3.885-4.698 7.778-9.385c5.054-6.097 10.286-12.405 15.394-18.634a16.23 16.23 0 0 0 3.7-11.012c-.214-12.659-.362-25.532-.505-37.981q-.16-14.003-.35-28.003a184 184 0 0 0-.762-14.17c-.439-4.762-2.125-6.445-6.943-6.915a37 37 0 0 0-4.38-.08 84 84 0 0 1-1.74.026q-13.759.026-27.516.066c-26.741.071-54.392.144-81.587.026-6.683-.046-10.57 1.94-13.482 6.789a35.4 35.4 0 0 1-4.469 5.54 78 78 0 0 0-2.354 2.631 1771 1771 0 0 0-5.567 6.65 5381 5381 0 0 1-4.372 5.226 16.2 16.2 0 0 0-3.868 11.622c.263 6.055.197 12.237.131 18.215l-.028 2.608q-.14 13.863-.329 27.727-.153 12.05-.29 24.1c-.04 3.849-.054 7.321.197 10.825.385 5.369 1.593 6.554 6.805 6.665 2.941.062 5.917-.071 8.795-.201 2.196-.098 4.468-.201 6.695-.214a26 26 0 0 0 1.747-.088c1.962-.145 3.815-.279 5.682.973q0 1.005-.007 2.029c-.001 1.806-.009 3.674.02 5.535m-17.56-18.099q-.565-.036-1.214-.071c-.095-.979-.204-1.947-.312-2.903a68 68 0 0 1-.557-7.113c-.087-11.176-.138-22.54-.187-33.53a9984 9984 0 0 0-.205-35.829 10.3 10.3 0 0 1 2.393-7.002q3.46-4.2 6.95-8.373c3.507-4.208 7.133-8.558 10.64-12.887 1.409-1.74 3.176-1.737 5.207-1.735l10.32-.02a8818 8818 0 0 1 35.161-.025c18.027.037 36.355.12 54.079.202l7.208.033c1.165.006 2.363.071 3.625.14l1.465.078q.073.514.152 1.01.267 1.471.316 2.965.066 11.99.105 23.982c.059 15.315.119 31.154.277 46.731.042 4.135-1.023 7.22-3.453 10a2109 2109 0 0 0-20.225 23.466c-1.394 1.644-2.936 2.372-5.322 2.513-5.287.31-10.657.68-15.85 1.038-7.132.492-14.505 1-21.763 1.361-4.231.21-6.585 1.867-8.128 5.719-1.51 3.769-3.282 7.518-4.997 11.143a394 394 0 0 0-2.782 5.972c-1.28 2.835-3.127 3.932-6.206 3.659-4.047-.357-8.138-.519-12.47-.689-1.726-.066-3.5-.139-5.342-.224l-.412-5.53c-.354-4.741-.693-9.273-1.023-13.805a45 45 0 0 1-.084-1.824c-.033-.955-.066-1.942-.19-2.917-.586-4.594-1.692-5.598-6.23-5.66-3.966-.055-7.993.033-11.888.116-2.1.045-4.205.09-6.308.115-.84.006-1.688-.04-2.75-.106"/><path d="M26.716 104.322c.115 2.918 1.807 4.716 4.765 5.061 1.452.169 2.926.193 4.353.216.806.012 1.612.025 2.416.065 1.465.07 2.93.167 4.594.277l1.928.125c0 .948-.009 1.856-.015 2.736-.017 2.293-.032 4.459.038 6.594.021.637.034 1.276.047 1.917-.031 2.54.189 5.077.656 7.574.5 2.245 1.712 3.815 3.41 4.422a4.7 4.7 0 0 0 1.564.262 7.1 7.1 0 0 0 4.295-1.678 12 12 0 0 0 2.01-2.019c1.039-1.322 2.14-2.646 3.205-3.927 2.636-3.17 5.362-6.447 7.442-10.05 2.29-3.968 5.021-5.49 9.677-5.391 5.659.106 11.41.066 16.971.023 3.932-.03 7.997-.06 11.993-.037 3.24.018 6.967-.201 9.837-3.065 4.95-4.945 9.733-9.845 14.163-14.409 3.315-3.413 4.803-7.596 4.551-12.794-.132-2.77-.147-5.601-.16-8.335-.013-3.006-.027-6.115-.201-9.172-.722-12.722-1.469-23.178-2.344-32.905-.449-4.988-2.711-7.145-8.069-7.692a28 28 0 0 0-3.96-.024l-.844.034q-37.698 1.325-75.4 2.675l-.313.012c-3.001.108-6.104.219-9.147.535-4.032.418-5.104 1.45-5.731 5.517q-.135 1.004-.138 2.018-.008.372-.023.744-.329 7.425-.672 14.849c-.576 12.56-1.174 25.548-1.594 38.33-.131 3.897.126 7.853.37 11.683.122 1.909.248 3.888.326 5.829m9.733-4.935.875-65.7c9.941-1.324 72.808-1.702 85.409-.502.1 1.13.216 2.27.332 3.42.297 2.923.604 5.945.667 8.938.156 7.289.231 14.702.304 21.873.053 5.186.107 10.554.191 15.83.047 2.934-.768 4.805-2.812 6.456-2.53 2.042-4.877 4.252-7.595 6.81-1.178 1.108-2.42 2.277-3.768 3.518-3.097.09-6.314.208-9.617.328-8.714.32-17.721.656-26.865.578-6.638-.059-10.816 2.356-13.62 7.81-1.024 1.995-2.145 3.922-4.413 5.552l-.107-1.487c-.117-1.657-.22-3.085-.362-4.524-.498-5.013-1.726-6.367-6.568-7.232-2.699-.484-5.451-.83-8.364-1.197a417 417 0 0 1-3.687-.47"/><path d="M98.126 68.062c-.007 2 .15 3.998.47 5.972a4.76 4.76 0 0 0 1.915 3.103 3.35 3.35 0 0 0 1.87.566q.393 0 .779-.085a6.06 6.06 0 0 0 3.727-3.242c.761-1.78.757-3.904.669-5.556a534 534 0 0 0-1.323-18.813 15.5 15.5 0 0 0-1.444-5.381 2.87 2.87 0 0 0-2.756-1.532 3.17 3.17 0 0 0-2.881 1.812 11.4 11.4 0 0 0-.773 4.135c-.066 2.416-.055 4.868-.043 7.24q.007 1.17.01 2.34a.66.66 0 0 0-.257.53q-.002 1.219-.01 2.435c-.013 1.853-.024 3.767.027 5.655zM67.729 78.743h.013c2.863 0 4.5-2.166 4.866-6.44q.04-.381.022-.767l-.315-5.226c-.343-5.732-.7-11.659-1.08-17.487-.18-2.74-1.52-4.266-3.775-4.292-2.271-.047-3.663 1.51-3.887 4.223-.238 2.888-.374 5.72-.505 8.46q-.074 1.576-.151 3.038v.036c0 1.365-.017 2.677-.034 3.95-.036 2.777-.071 5.4.081 8.014.254 4.362 1.813 6.486 4.765 6.49"/></g><defs><clipPath id="a"><path fill="#fff" d="M.444.9h158.834v159.49H.444z"/></clipPath></defs></svg>