<svg xmlns="http://www.w3.org/2000/svg" width="124" height="104" fill="none" viewBox="0 0 124 104"><g clip-path="url(#a)"><path fill="#000" d="M58.224 20.724c-2.075 2.027-3.826 3.563-5.374 5.282A62 62 0 0 0 41.93 43.29c-6.958 16.318-12.06 33.26-16.612 50.377-.4 1.51-.487 3.11-.95 4.595a5.19 5.19 0 0 1-4.974 3.825 5.26 5.26 0 0 1-5.161-3.588 14.7 14.7 0 0 1-.699-2.592 17328 17328 0 0 1-6.34-35.104C5.142 49.324 3.025 37.855 1.14 26.348c-.595-3.636-.554-7.38-.747-11.08a17.4 17.4 0 0 1 .214-2.68 3.15 3.15 0 0 1 2.726-2.995c1.457-.284 2.895.69 3.522 2.494.386 1.287.693 2.598.919 3.923q3.717 17.25 7.43 34.5a3172 3172 0 0 0 4.406 20.037c.238 1.073.553 2.129 1.018 3.892 2.043-6.19 3.821-11.726 5.7-17.228 3.042-8.914 6.289-17.743 11.026-25.943a61.8 61.8 0 0 1 14.768-17.332c1.746-1.412 3.432-2.899 5.191-4.294 3.34-2.647 6.849-1.963 8.467 1.986a45.3 45.3 0 0 1 2.316 8.744c3.044 16.097 5.995 32.212 8.986 48.319.184.984.43 1.963.821 3.724.518-1.746.838-2.763 1.123-3.79 4.418-15.922 9.564-31.55 18.034-45.888 3.844-6.51 8.107-12.697 13.666-17.853a31.2 31.2 0 0 1 6.058-4.149c1.979-1.106 3.95-.537 5.551 1 1.426 1.371 1.745 3.528.598 5.613a20.9 20.9 0 0 1-3.494 4.91c-11.486 11.185-18.308 25.104-23.632 39.909-5.095 14.167-8.557 28.795-12.11 43.395q-.447 1.967-1.136 3.862a5.99 5.99 0 0 1-5.638 4.097 5.87 5.87 0 0 1-5.852-4.267 66 66 0 0 1-2.237-9.143c-3.825-22.463-8.28-44.832-10.203-67.583-.026-.336-.143-.658-.407-1.804"/></g><defs><clipPath id="a"><path fill="#fff" d="M.323.123h123.392v103.701H.323z"/></clipPath></defs></svg>