<svg xmlns="http://www.w3.org/2000/svg" width="81" height="116" fill="none" viewBox="0 0 81 116"><g clip-path="url(#a)"><path fill="#000" d="M78.482 1.056A4.06 4.06 0 0 0 74.429.68a6.2 6.2 0 0 0-2.523 2.143A7373 7373 0 0 0 48.57 35.78c-1.799 2.554-3.544 5.134-5.4 7.865a1794 1794 0 0 1-2.2 3.24 296 296 0 0 0-1.365-1.616c-1.247-1.47-2.428-2.859-3.485-4.291-2.96-4.004-5.944-8.093-8.83-12.048-2.835-3.885-5.766-7.902-8.673-11.835A545 545 0 0 0 8.395 3.7C6.705 1.558 4.403.948 2.533 2.151.715 3.318.44 5.62 1.81 8.157a43 43 0 0 0 3.262 5.206c3.484 4.692 6.925 9.542 10.253 14.232 6.376 8.986 12.968 18.278 20.17 26.901a5.3 5.3 0 0 1 1.356 3.523q.056 2.593.1 5.185c.122 6.695.248 13.615.695 20.408.505 7.688 1.444 15.161 2.536 23.435a13 13 0 0 0 2.389 5.8c.424.6.983 1.092 1.632 1.437.65.344 1.37.53 2.106.545q.315 0 .626-.046a4.76 4.76 0 0 0 3.73-3.216c.561-1.573.744-3.254.535-4.91-2.389-17.867-3.363-35.878-3.946-49.574a6.87 6.87 0 0 1 1.238-4.332 842 842 0 0 0 4.358-6.629c2.317-3.544 4.714-7.21 7.138-10.764 3.072-4.505 6.235-9.057 9.291-13.464 2.916-4.201 5.932-8.546 8.865-12.841a10.1 10.1 0 0 0 1.747-4.251 3.94 3.94 0 0 0-1.41-3.746"/></g><defs><clipPath id="a"><path fill="#fff" d="M.415.216h80.073v114.859H.415z"/></clipPath></defs></svg>