<svg xmlns="http://www.w3.org/2000/svg" width="180" height="146" fill="none" viewBox="0 0 180 146"><g fill="#000" clip-path="url(#a)"><path d="M178.624 73.933q-.192-3.75-.373-7.501-.323-6.877-.63-13.756c-.397-8.775-.808-17.848-1.263-26.77a24.03 24.03 0 0 0-6.911-16.092c-5.168-5.261-11.908-7.869-20.61-7.972-19.114-.228-41.742-.49-64.652-.722-4.049-.042-8.165-.028-12.143-.016q-3.356.01-6.716.012-4.817-.005-9.633-.04c-7.22-.041-14.68-.085-22.02.055-6.513.124-11.911 1.44-16.5 4.025C7.72 10.479 2.689 18.246 2.22 28.243c-.255 5.447-.343 10.992-.427 16.353l-.028 1.772q-.155 9.536-.28 19.073c-.16 11.441-.325 23.272-.576 34.905-.154 7.119.205 15.476 4.031 23.479 3.277 6.854 7.571 11.305 13.514 14.005a68.6 68.6 0 0 0 16.505 4.973c9.99 1.787 20.239 1.99 30.15 2.186l.811.016c1.663.033 3.361.165 5.003.292.774.059 1.547.119 2.32.17h67.433l.075-.005c1.219-.138 2.44-.257 3.661-.377 2.64-.259 5.371-.525 8.035-.985 14.228-2.449 23.735-11.794 25.433-24.997a198.4 198.4 0 0 0 1.292-33.576c-.154-3.866-.354-7.794-.549-11.594m-10.667 11.289c-.108 10.901-.739 21.881-1.433 33.107-.621 10.06-9.34 14.394-16.618 15.049-2.914.262-5.837.399-8.687.409l-12.653.046c-20.584.076-41.87.157-62.801.109-11.862-.027-23.436-.288-34.617-3.16a46 46 0 0 1-9.867-3.693c-3.523-1.843-6.058-5.102-7.745-9.962a65 65 0 0 1-3.4-21.187c-.066-9.189.1-18.537.257-27.577l.105-6.185c.163-10.035.333-20.412.667-30.606.384-11.693 6.988-19.119 18.594-20.91a120 120 0 0 1 18.304-1.366h.668c10.867.056 21.917.329 32.604.591q6.59.162 13.18.312a.69.69 0 0 0 .557-.272q6.933.173 13.866.343c13.042.322 26.527.657 39.789 1.035 3.93.112 8.049.617 11.553 3.527 3.462 2.88 5.166 5.979 5.358 9.755l.131 2.578c.469 9.145.952 18.603 1.321 27.907q.122 3.106.262 6.213c.333 7.853.684 15.97.605 23.938z"/><path d="M114.992 63.349c-2.739-2.24-5.543-4.426-7.923-6.269l-2.828-2.19c-7.433-5.756-15.12-11.71-22.73-17.501a16.7 16.7 0 0 0-4.339-2.2c-2.736-1-5.448-.13-6.754 2.166-1.823 3.206-2.775 5.942-2.912 8.363-.354 6.28-.425 12.675-.493 18.858-.025 2.22-.05 4.444-.088 6.664a.67.67 0 0 0-.405.596l-.21 6.162q-.299 8.817-.613 17.635c-.091 2.52.737 4.214 2.532 5.181a5 5 0 0 0 2.404.627 6.3 6.3 0 0 0 3.369-1.099q5.559-3.536 11.124-7.067c9.648-6.125 19.625-12.458 29.404-18.747 2.327-1.497 3.616-3.325 3.727-5.286.113-2.017-1.016-4.054-3.265-5.893m-10.879 5.676L75.465 87.718l.734-39.75c5.814 3.927 11.258 8.185 17 12.678 3.529 2.757 7.167 5.603 10.914 8.379"/></g><defs><clipPath id="a"><path fill="#fff" d="M.599.892h179.18v145.051H.599z"/></clipPath></defs></svg>